<?xml version="1.0" encoding="UTF-8" standalone="no"?>
<!-- Created with Inkscape (http://www.inkscape.org/) -->

<svg
   xmlns:dc="http://purl.org/dc/elements/1.1/"
   xmlns:cc="http://creativecommons.org/ns#"
   xmlns:rdf="http://www.w3.org/1999/02/22-rdf-syntax-ns#"
   xmlns:svg="http://www.w3.org/2000/svg"
   xmlns="http://www.w3.org/2000/svg"
   xmlns:sodipodi="http://sodipodi.sourceforge.net/DTD/sodipodi-0.dtd"
   xmlns:inkscape="http://www.inkscape.org/namespaces/inkscape"
   version="1.1"
   id="svg2"
   viewBox="0 0 260 88.003024"
   sodipodi:docname="LoRo.svg"
   inkscape:version="0.92.2 2405546, 2018-03-11">
  <metadata
     id="metadata8">
    <rdf:RDF>
      <cc:Work
         rdf:about="">
        <dc:format>image/svg+xml</dc:format>
        <dc:type
           rdf:resource="http://purl.org/dc/dcmitype/StillImage" />
        <dc:title />
      </cc:Work>
    </rdf:RDF>
  </metadata>
  <defs
     id="defs6" />
  <sodipodi:namedview
     pagecolor="#ffffff"
     bordercolor="#666666"
     borderopacity="1"
     objecttolerance="10"
     gridtolerance="10"
     guidetolerance="10"
     inkscape:pageopacity="0"
     inkscape:pageshadow="2"
     inkscape:window-width="1920"
     inkscape:window-height="1016"
     id="namedview4"
     showgrid="false"
     inkscape:zoom="2.621733"
     inkscape:cx="104.11266"
     inkscape:cy="2.1113395"
     inkscape:window-x="0"
     inkscape:window-y="27"
     inkscape:window-maximized="1"
     inkscape:current-layer="g12"
     fit-margin-top="0"
     fit-margin-left="0"
     fit-margin-right="0"
     fit-margin-bottom="0" />
  <g
     id="g10"
     inkscape:groupmode="layer"
     inkscape:label="ink_ext_XXXXXX"
     transform="matrix(1.3333333,0,0,-1.3333333,-1.8906266,89.893651)">
    <g
       id="g12"
       transform="scale(0.1)">
      <path
         d="M 103.31161,674.2024 H 14.1797 v -96.73852 c 22.522719,38.26107 52.978956,71.25161 89.13191,96.73852"
         style="fill:#0b1783;fill-opacity:1;fill-rule:nonzero;stroke:none;stroke-width:1.05833876"
         id="path16"
         inkscape:connector-curvature="0" />
      <path
         d="m 281.63809,514.08738 c 75.75801,0 137.43906,-62.33826 137.43906,-138.90696 0,-76.53059 -61.68105,-138.81171 -137.43906,-138.81171 -75.77917,0 -137.41893,62.28112 -137.41893,138.81171 0,76.5687 61.63976,138.90696 137.41893,138.90696 z m 0.0614,-312.11468 c 119.99339,0 217.22826,97.39998 217.22826,217.71194 0,120.32358 -97.23487,217.80717 -217.22826,217.80717 -120.02197,0 -217.26933,-97.48359 -217.26933,-217.80717 0,-120.31196 97.24736,-217.71194 217.26933,-217.71194"
         style="fill:#0b1783;fill-opacity:1;fill-rule:nonzero;stroke:none;stroke-width:1.05833876"
         id="path18"
         inkscape:connector-curvature="0" />
      <path
         d="m 460.02533,674.2024 c 79.80933,-56.30679 132.00341,-149.28291 132.00341,-254.51776 0,-171.82343 -138.88685,-311.22569 -310.32926,-311.22569 -113.99896,0 -213.540376,61.6186 -267.51978,153.37657 V 14.1797 h 1950 V 674.2024 H 460.02533"
         style="fill:#0b1783;fill-opacity:1;fill-rule:nonzero;stroke:none;stroke-width:1.05833876"
         id="path20"
         inkscape:connector-curvature="0" />
      <path
         d="m 281.69948,637.49181 c 119.99339,0 217.22827,-97.48359 217.22827,-217.80717 0,-120.31196 -97.23488,-217.71194 -217.22827,-217.71194 -120.02196,0 -217.269327,97.39998 -217.269327,217.71194 0,120.32358 97.247367,217.80717 217.269327,217.80717 z m 0,-529.03286 c 171.44241,0 310.32926,139.40226 310.32926,311.22569 0,105.23485 -52.19408,198.21097 -132.00341,254.51776 H 103.31161 C 67.158656,648.71549 36.702419,615.72495 14.1797,577.46388 V 261.83552 C 68.159104,170.07755 167.70052,108.45895 281.69948,108.45895"
         style="fill:#ffffff;fill-opacity:1;fill-rule:nonzero;stroke:none;stroke-width:1.05833876"
         id="path22"
         inkscape:connector-curvature="0" />
      <path
         d="m 281.63809,236.36871 c 75.75801,0 137.43906,62.28112 137.43906,138.81171 0,76.5687 -61.68105,138.90696 -137.43906,138.90696 -75.77917,0 -137.41893,-62.33826 -137.41893,-138.90696 0,-76.53059 61.63976,-138.81171 137.41893,-138.81171"
         style="fill:#ffffff;fill-opacity:1;fill-rule:nonzero;stroke:none;stroke-width:1.05833876"
         id="path24"
         inkscape:connector-curvature="0" />
      <path
         d="m 879.90957,549.88887 h 54.97544 V 434.8157 h 53.73922 V 387.85191 H 879.90957 v 162.03696"
         style="fill:#ffffff;fill-opacity:1;fill-rule:nonzero;stroke:none;stroke-width:1.05833876"
         id="path26"
         inkscape:connector-curvature="0" />
      <path
         d="m 1066.6027,469.81072 c 0,-5.35307 0.7937,-10.21085 2.3812,-14.6548 1.6193,-4.42387 3.8312,-8.22754 6.657,-11.45229 2.8151,-3.18243 6.2018,-5.66318 10.1706,-7.42001 3.9582,-1.77801 8.2445,-2.64586 12.8271,-2.64586 4.5508,0 8.8371,0.86785 12.6895,2.64586 3.9158,1.75683 7.3025,4.23758 10.2023,7.42001 2.8999,3.22475 5.1541,7.02842 6.784,11.45229 1.5769,4.44395 2.3812,9.30173 2.3812,14.6548 0,5.16787 -0.8043,9.9431 -2.3812,14.30451 -1.6299,4.34131 -3.8841,8.04126 -6.784,10.9972 -2.8998,2.95594 -6.2865,5.29169 -10.2023,6.98609 -3.8524,1.65419 -8.1387,2.50087 -12.6895,2.50087 -4.5826,0 -8.8689,-0.84668 -12.8271,-2.50087 -3.9688,-1.6944 -7.3555,-4.03015 -10.1706,-6.98609 -2.8258,-2.95594 -5.0377,-6.65589 -6.657,-10.9972 -1.5875,-4.36141 -2.3812,-9.13664 -2.3812,-14.30451 z m -57.9356,0 c 0,12.96042 2.286,24.66037 6.8749,35.14003 4.589,10.43945 10.8808,19.32739 18.9009,26.6659 8,7.31736 17.5081,12.93925 28.4979,16.92919 10.9856,3.96877 22.8707,5.93198 35.6978,5.93198 12.827,0 24.7228,-1.96321 35.7083,-5.93198 10.9856,-3.98994 20.5,-9.61183 28.6069,-16.92919 8.1069,-7.33851 14.404,-16.22645 19.0184,-26.6659 4.5297,-10.47966 6.8474,-22.17961 6.8474,-35.14003 0,-12.98052 -2.3177,-24.80428 -6.8474,-35.45011 -4.6144,-10.7072 -10.9115,-19.82267 -19.0184,-27.38875 -8.1069,-7.565 -17.6213,-13.37317 -28.6069,-17.48693 -10.9855,-4.15504 -22.8813,-6.22197 -35.7083,-6.22197 -12.8271,0 -24.7122,2.06693 -35.6978,6.22197 -10.9898,4.11376 -20.4979,9.92193 -28.4979,17.48693 -8.0201,7.56608 -14.3119,16.68155 -18.9009,27.38875 -4.5889,10.64583 -6.8749,22.46959 -6.8749,35.45011"
         style="fill:#ffffff;fill-opacity:1;fill-rule:nonzero;stroke:none;stroke-width:1.05833876"
         id="path28"
         inkscape:connector-curvature="0" />
      <path
         d="m 1300.7284,387.85191 h -54.441 v 116.0659 h -39.8464 v 45.97106 h 134.1232 v -45.97106 h -39.8358 v -116.0659"
         style="fill:#ffffff;fill-opacity:1;fill-rule:nonzero;stroke:none;stroke-width:1.05833876"
         id="path30"
         inkscape:connector-curvature="0" />
      <path
         d="m 1370.6528,549.88887 h 111.496 v -45.28948 h -60.2089 V 490.6473 h 56.547 v -42.35472 h -56.547 v -15.1099 h 64.0824 v -45.33077 h -115.3695 v 162.03696"
         style="fill:#ffffff;fill-opacity:1;fill-rule:nonzero;stroke:none;stroke-width:1.05833876"
         id="path32"
         inkscape:connector-curvature="0" />
      <path
         d="m 1574.5523,481.46938 h 10.6998 c 1.7992,0 3.8418,0.16512 5.9797,0.4752 2.2436,0.31009 4.2756,0.95145 6.1489,1.94311 1.905,0.97155 3.4819,2.33575 4.7625,4.13387 1.2912,1.7579 1.958,4.05132 1.958,6.96599 0,2.91466 -0.5398,5.16786 -1.6087,6.84216 -1.0372,1.69545 -2.4024,2.93583 -4.117,3.80366 -1.6404,0.84773 -3.4396,1.3642 -5.3975,1.59176 -2.0002,0.20636 -3.8206,0.35135 -5.4716,0.35135 h -12.9541 z m -52.3983,68.41949 h 69.808 c 7.927,0 15.8328,-0.76412 23.6433,-2.37703 7.9164,-1.61184 14.912,-4.44396 21.1244,-8.47518 6.1807,-4.05132 11.1655,-9.44567 14.9649,-16.24656 3.7995,-6.7797 5.7362,-15.31732 5.7362,-25.54935 0,-9.88065 -2.4447,-18.60348 -7.3342,-26.16848 -4.8472,-7.58618 -11.8534,-13.41551 -20.9551,-17.5081 l 41.0847,-65.71226 h -62.569 l -31.0517,57.91866 h -1.5875 v -57.91866 h -52.864 v 162.03696"
         style="fill:#ffffff;fill-opacity:1;fill-rule:nonzero;stroke:none;stroke-width:1.05833876"
         id="path34"
         inkscape:connector-curvature="0" />
      <path
         d="m 1690.4828,549.88887 h 54.9383 V 387.85191 h -54.9383 v 162.03696"
         style="fill:#ffffff;fill-opacity:1;fill-rule:nonzero;stroke:none;stroke-width:1.05833876"
         id="path36"
         inkscape:connector-curvature="0" />
      <path
         d="M 1780.1453,549.88887 H 1891.62 v -45.28948 h -60.1877 V 490.6473 h 56.5047 v -42.35472 h -56.5047 v -15.1099 h 64.0613 v -45.33077 h -115.3483 v 162.03696"
         style="fill:#ffffff;fill-opacity:1;fill-rule:nonzero;stroke:none;stroke-width:1.05833876"
         id="path38"
         inkscape:connector-curvature="0" />
      <path
         d="m 690.04891,245.13282 h 10.63735 c 1.81929,0 3.81956,0.10371 6.02301,0.43497 2.18335,0.30904 4.20901,0.95039 6.11085,1.94206 1.88068,0.99272 3.47242,2.35692 4.78263,4.11376 1.26154,1.73673 1.91455,4.07249 1.91455,6.94588 0,2.91467 -0.53765,5.20914 -1.58329,6.86226 -1.0541,1.6743 -2.45216,2.95594 -4.10106,3.78251 -1.63301,0.80645 -3.45229,1.34409 -5.41975,1.59174 -1.96004,0.18627 -3.79944,0.33126 -5.44515,0.33126 h -12.91914 z m -52.28406,68.25544 h 69.64716 c 7.90897,0 15.77242,-0.78635 23.63482,-2.37809 7.82641,-1.61185 14.84638,-4.4228 21.02285,-8.45401 6.13836,-4.03015 11.14536,-9.48801 14.9649,-16.24656 3.79521,-6.78077 5.7182,-15.25489 5.7182,-25.4668 0,-9.88065 -2.45216,-18.58232 -7.31841,-26.12721 -4.85671,-7.5449 -11.84387,-13.37423 -20.95933,-17.46682 l 41.03073,-65.52599 h -62.42506 l -30.98498,57.73238 h -1.59174 v -57.73238 h -52.73914 v 161.66548"
         style="fill:#ffffff;fill-opacity:1;fill-rule:nonzero;stroke:none;stroke-width:1.05833876"
         id="path40"
         inkscape:connector-curvature="0" />
      <path
         d="m 851.71438,233.45405 c 0,-5.33297 0.77259,-10.19075 2.38973,-14.61354 1.60762,-4.40375 3.84494,-8.22753 6.64319,-11.41101 2.81096,-3.18243 6.1934,-5.68434 10.17806,-7.42001 3.94021,-1.75791 8.21903,-2.64585 12.76669,-2.64585 4.589,0 8.77682,0.88794 12.69164,2.64585 3.85337,1.73567 7.25495,4.23758 10.14945,7.42001 2.89354,3.18348 5.13404,7.00726 6.75116,11.41101 1.56632,4.42279 2.35161,9.28057 2.35161,14.61354 0,5.18903 -0.78529,9.92192 -2.35161,14.28334 -1.61712,4.3413 -3.85762,7.97881 -6.75116,10.95593 -2.8945,2.95594 -6.29608,5.29168 -10.14945,6.98608 -3.91482,1.63302 -8.10264,2.48075 -12.69164,2.48075 -4.54766,0 -8.82648,-0.84773 -12.76669,-2.48075 -3.98466,-1.6944 -7.3671,-4.03014 -10.17806,-6.98608 -2.79825,-2.97712 -5.03557,-6.61463 -6.64319,-10.95593 -1.61714,-4.36142 -2.38973,-9.09431 -2.38973,-14.28334 z m -57.762,0 c 0,12.96041 2.26908,24.61907 6.84216,35.05747 4.57625,10.43839 10.8522,19.28611 18.84688,26.60346 7.97882,7.31735 17.44989,12.93925 28.40159,16.90802 11.00142,3.92751 22.88235,5.95317 35.64904,5.95317 12.79538,0 24.66039,-2.02566 35.60258,-5.95317 10.98873,-3.96877 20.50525,-9.59067 28.56776,-16.90802 8.09415,-7.31735 14.39862,-16.16507 18.96648,-26.60346 4.53916,-10.4384 6.84216,-22.09706 6.84216,-35.05747 0,-12.93925 -2.303,-24.72174 -6.84216,-35.38767 -4.56786,-10.68711 -10.87233,-19.76131 -18.96648,-27.3062 -8.06251,-7.52373 -17.57903,-13.35306 -28.56776,-17.44566 -10.94219,-4.11376 -22.8072,-6.1807 -35.60258,-6.1807 -12.76669,0 -24.64762,2.06694 -35.64904,6.1807 -10.9517,4.0926 -20.42277,9.92193 -28.40159,17.44566 -7.99468,7.54489 -14.27063,16.61909 -18.84688,27.3062 -4.57308,10.66593 -6.84216,22.44842 -6.84216,35.38767"
         style="fill:#ffffff;fill-opacity:1;fill-rule:nonzero;stroke:none;stroke-width:1.05833876"
         id="path42"
         inkscape:connector-curvature="0" />
      <path
         d="m 1044.6876,243.06589 2.5221,-91.34311 h -50.69767 v 161.66548 h 71.08547 l 29.2948,-87.00286 h 1.1324 l 25.3684,87.00286 h 73.4064 V 151.72278 h -52.9805 l 1.5981,90.88907 -1.3652,0.22649 -30.1627,-91.11556 h -38.3753 l -29.6811,91.34311 h -1.1452"
         style="fill:#ffffff;fill-opacity:1;fill-rule:nonzero;stroke:none;stroke-width:1.05833876"
         id="path44"
         inkscape:connector-curvature="0" />
      <path
         d="m 1307.9356,256.99786 -13.2398,-39.9978 h 26.2786 z m -28.0883,56.3904 h 57.7747 l 63.0347,-161.66548 h -59.1188 l -8.4773,23.7089 h -51.3718 l -7.9904,-23.7089 h -57.5631 l 63.712,161.66548"
         style="fill:#ffffff;fill-opacity:1;fill-rule:nonzero;stroke:none;stroke-width:1.05833876"
         id="path46"
         inkscape:connector-curvature="0" />
      <path
         d="m 1419.7703,313.38826 h 54.1552 l 46.133,-82.00115 h 0.889 l -2.2649,82.00115 h 51.6152 V 151.72278 h -55.4887 l -44.7783,77.18359 h -0.889 l 2.286,-77.18359 h -51.6575 v 161.66548"
         style="fill:#ffffff;fill-opacity:1;fill-rule:nonzero;stroke:none;stroke-width:1.05833876"
         id="path48"
         inkscape:connector-curvature="0" />
      <path
         d="m 1652.7107,267.25104 v -68.70947 h 10.0436 c 12.8059,0 22.6167,2.7284 29.5065,8.30902 6.8157,5.51923 10.2341,14.57332 10.2341,27.16226 0,10.4585 -3.4184,18.62359 -10.2341,24.47408 -6.8898,5.84944 -16.0021,8.76411 -27.4322,8.76411 z m -52.2926,-115.52826 v 161.66548 h 60.3042 c 12.7847,0 24.9874,-1.28165 36.6502,-3.74229 11.6629,-2.52096 21.9288,-6.88343 30.8189,-13.04297 8.9112,-6.18069 16.055,-14.36589 21.3573,-24.55663 5.3551,-10.21085 8.0117,-23.0686 8.0117,-38.59232 0,-14.15952 -2.5401,-26.39603 -7.6307,-36.77304 -5.1118,-10.33574 -11.9699,-18.80985 -20.4789,-25.46575 -8.4879,-6.61461 -18.3622,-11.53483 -29.4536,-14.73842 -11.1019,-3.16232 -22.6908,-4.75406 -34.6711,-4.75406 h -64.908"
         style="fill:#ffffff;fill-opacity:1;fill-rule:nonzero;stroke:none;stroke-width:1.05833876"
         id="path50"
         inkscape:connector-curvature="0" />
      <path
         d="m 1780.4098,313.38826 h 111.2209 v -45.22811 h -60.0502 v -13.9108 h 56.3777 v -42.27217 h -56.3777 v -15.04852 h 63.9131 v -45.20588 h -115.0838 v 161.66548"
         style="fill:#ffffff;fill-opacity:1;fill-rule:nonzero;stroke:none;stroke-width:1.05833876"
         id="path52"
         inkscape:connector-curvature="0" />
    </g>
  </g>
</svg>
