<?xml version="1.0" encoding="UTF-8" standalone="no"?>
<svg
   xmlns:dc="http://purl.org/dc/elements/1.1/"
   xmlns:cc="http://creativecommons.org/ns#"
   xmlns:rdf="http://www.w3.org/1999/02/22-rdf-syntax-ns#"
   xmlns:svg="http://www.w3.org/2000/svg"
   xmlns="http://www.w3.org/2000/svg"
   xmlns:sodipodi="http://sodipodi.sourceforge.net/DTD/sodipodi-0.dtd"
   xmlns:inkscape="http://www.inkscape.org/namespaces/inkscape"
   id="Calque_1"
   data-name="Calque 1"
   viewBox="0 0 239.56979 87.999997"
   version="1.1"
   sodipodi:docname="ville-cdf.svg"
   inkscape:version="0.92.2 2405546, 2018-03-11">
  <metadata
     id="metadata55">
    <rdf:RDF>
      <cc:Work
         rdf:about="">
        <dc:format>image/svg+xml</dc:format>
        <dc:type
           rdf:resource="http://purl.org/dc/dcmitype/StillImage" />
        <dc:title>Plan de travail 1</dc:title>
      </cc:Work>
    </rdf:RDF>
  </metadata>
  <sodipodi:namedview
     pagecolor="#ffffff"
     bordercolor="#666666"
     borderopacity="1"
     objecttolerance="10"
     gridtolerance="10"
     guidetolerance="10"
     inkscape:pageopacity="0"
     inkscape:pageshadow="2"
     inkscape:window-width="1920"
     inkscape:window-height="1016"
     id="namedview53"
     showgrid="false"
     fit-margin-top="0"
     fit-margin-left="0"
     fit-margin-right="0"
     fit-margin-bottom="0"
     inkscape:zoom="2.8061688"
     inkscape:cx="10.558143"
     inkscape:cy="1.3633087"
     inkscape:window-x="0"
     inkscape:window-y="27"
     inkscape:window-maximized="1"
     inkscape:current-layer="g88" />
  <defs
     id="defs4">
    <style
       id="style2">.cls-1{fill:blue;}</style>
  </defs>
  <title
     id="title6">Plan de travail 1</title>
  <g
     id="g88"
     transform="matrix(0.14472018,0,0,0.14472018,-24.689263,-28.003355)">
    <polygon
       id="polygon2"
       class="cls-1"
       points="501.8,800.4 505.3,748.41 515.23,748.41 529.25,788.72 529.25,788.72 543.85,748.41 553.78,748.41 557.29,800.4 548.53,800.4 546.77,763.02 533.34,800.4 523.99,800.4 511.73,763.6 511.14,763.6 509.39,800.4 "
       style="fill:#0b1783;fill-opacity:1" />
    <polygon
       id="polygon4"
       class="cls-1"
       points="606.94,777.62 606.94,792.81 625.05,792.81 625.05,800.4 597.59,800.4 597.59,748.41 624.46,748.41 624.46,756.01 606.94,756.01 606.94,770.03 622.13,770.03 622.13,777.62 "
       style="fill:#0b1783;fill-opacity:1" />
    <polygon
       id="polygon6"
       class="cls-1"
       points="680.54,756.01 680.54,800.4 671.19,800.4 671.19,756.01 657.17,756.01 657.17,748.41 695.14,748.41 695.14,756.01 "
       style="fill:#0b1783;fill-opacity:1" />
    <path
       id="path8"
       class="cls-1"
       d="m 743,754.84 h -4 v 17.52 h 1.17 c 6.43,0 12.27,-2.92 12.27,-9.93 0.58,-5.84 -3.5,-7.59 -9.35,-7.59 z m 14.6,46.73 -13.43,-22.78 h -4.67 v 21.61 h -9.35 V 749 a 95.23,95.23 0 0 1 13.43,-1.17 c 11.1,0 17.52,4.67 17.52,13.43 0,7 -4.09,11.68 -9.35,14.6 l 14,22.2 -8.18,3.5 z"
       inkscape:connector-curvature="0"
       style="fill:#0b1783;fill-opacity:1" />
    <path
       id="path10"
       class="cls-1"
       d="m 822.48,755.42 c -9.93,0 -14.6,7.59 -14.6,19.28 0,11.69 4.67,19.3 14.6,19.3 9.93,0 14.6,-7.59 14.6,-19.28 0,-12.27 -4.67,-19.28 -14.6,-19.28 z m 0,46.15 c -18.11,0 -23.95,-13.43 -23.95,-26.87 0,-13.44 6.43,-26.87 23.95,-26.87 18.11,0 23.95,13.43 23.95,26.87 0,12.85 -5.84,26.87 -23.95,26.87 z"
       inkscape:connector-curvature="0"
       style="fill:#0b1783;fill-opacity:1" />
    <path
       id="path12"
       class="cls-1"
       d="m 896.66,754.84 h -4.09 v 18.69 h 1.17 c 6.43,0 12.27,-3.5 12.27,-10.51 0,-5.84 -3.5,-8.18 -9.35,-8.18 z m -2.92,25.7 h -1.17 v 19.86 h -9.35 V 749 a 84.92,84.92 0 0 1 13.43,-1.17 c 11.1,0 17.52,4.67 17.52,14 0.58,11.68 -8.76,18.69 -20.44,18.69 z"
       inkscape:connector-curvature="0"
       style="fill:#0b1783;fill-opacity:1" />
    <path
       id="path14"
       class="cls-1"
       d="m 973.18,755.42 c -9.93,0 -14.6,7.59 -14.6,19.28 0,11.69 4.67,19.3 14.6,19.3 9.93,0 14.6,-7.59 14.6,-19.28 0,-12.27 -4.67,-19.28 -14.6,-19.28 z m 0,46.15 c -18.11,0 -23.95,-13.43 -23.95,-26.87 0,-13.44 6.43,-26.87 23.95,-26.87 18.11,0 23.95,13.43 23.95,26.87 0,12.85 -5.84,26.87 -23.95,26.87 z"
       inkscape:connector-curvature="0"
       style="fill:#0b1783;fill-opacity:1" />
    <polygon
       id="polygon16"
       class="cls-1"
       points="1045.03,748.41 1045.03,792.81 1064.31,792.81 1064.31,800.4 1035.68,800.4 1035.68,748.41 "
       style="fill:#0b1783;fill-opacity:1" />
    <polygon
       id="polygon18"
       class="cls-1"
       points="1107.53,777.62 1107.53,792.81 1126.22,792.81 1126.22,800.4 1098.18,800.4 1098.18,748.41 1125.05,748.41 1125.05,756.01 1107.53,756.01 1107.53,770.03 1123.3,770.03 1123.3,777.62 "
       style="fill:#0b1783;fill-opacity:1" />
    <polygon
       id="polygon20"
       class="cls-1"
       points="1253.56,770.03 1253.56,748.41 1262.32,748.41 1262.32,800.4 1253.56,800.4 1253.56,777.62 1232.53,777.62 1232.53,800.4 1223.19,800.4 1223.19,748.41 1232.53,748.41 1232.53,770.03 "
       style="fill:#0b1783;fill-opacity:1" />
    <path
       id="path22"
       class="cls-1"
       d="m 1322.49,755.42 c -9.93,0 -14.6,7.59 -14.6,19.28 0,11.69 4.67,19.28 14.6,19.28 9.93,0 14.6,-7.59 14.6,-19.28 -0.58,-12.27 -4.67,-19.28 -14.6,-19.28 z m 0,46.15 c -18.11,0 -23.95,-13.43 -23.95,-26.87 0,-13.44 6.43,-26.87 23.95,-26.87 18.11,0 23.95,13.43 23.95,26.87 0,12.85 -6.43,26.87 -23.95,26.87 z"
       inkscape:connector-curvature="0"
       style="fill:#0b1783;fill-opacity:1" />
    <path
       id="path24"
       class="cls-1"
       d="m 1394.92,754.84 h -4.09 v 17.52 h 1.17 c 6.43,0 12.27,-2.92 12.27,-9.93 0,-5.84 -4.09,-7.59 -9.35,-7.59 z m 14,46.73 -13.43,-22.78 h -4.67 v 21.61 h -9.35 V 749 a 95.23,95.23 0 0 1 13.43,-1.17 c 11.1,0 17.52,4.67 17.52,13.43 0,7 -4.09,11.68 -9.35,14.6 l 14,22.2 -8.18,3.5 z"
       inkscape:connector-curvature="0"
       style="fill:#0b1783;fill-opacity:1" />
    <polygon
       id="polygon26"
       class="cls-1"
       points="1459.17,748.41 1459.17,792.81 1478.45,792.81 1478.45,800.4 1450.41,800.4 1450.41,748.41 "
       style="fill:#0b1783;fill-opacity:1" />
    <path
       id="path28"
       class="cls-1"
       d="m 1532.19,755.42 c -9.93,0 -14.6,7.59 -14.6,19.28 0,11.69 4.67,19.28 14.6,19.28 9.93,0 14.6,-7.59 14.6,-19.28 0,-12.27 -4.67,-19.28 -14.6,-19.28 z m 0,46.15 c -18.11,0 -23.95,-13.43 -23.95,-26.87 0,-13.44 6.43,-26.87 23.95,-26.87 18.11,0 23.95,13.43 23.95,26.87 0,12.85 -5.84,26.87 -23.95,26.87 z"
       inkscape:connector-curvature="0"
       style="fill:#0b1783;fill-opacity:1" />
    <path
       id="path30"
       class="cls-1"
       d="m 1628,758.35 a 24.7,24.7 0 0 0 -11.68,-2.92 c -9.93,0 -17.52,6.43 -17.52,18.11 0,12.85 5.26,19.28 16.94,19.28 a 34.15,34.15 0 0 0 5.84,-0.58 V 774.7 h 9.35 v 23.95 c 0,0 -7,2.92 -18.69,2.92 -13.43,0 -23.36,-9.35 -23.36,-26.29 0,-17.52 11.68,-28 27.45,-28 a 36.07,36.07 0 0 1 14.6,2.92 l -2.92,8.18 z"
       inkscape:connector-curvature="0"
       style="fill:#0b1783;fill-opacity:1" />
    <path
       id="path32"
       class="cls-1"
       d="m 1684.64,739.07 -16.36,-9.35 4.09,-6.43 15.77,10.51 -3.5,5.26 z m -17.52,61.33 v -52 H 1694 v 7.6 h -17.52 v 14 h 15.77 v 7.59 h -15.77 v 15.19 h 18.69 v 7.59 h -28 z"
       inkscape:connector-curvature="0"
       style="fill:#0b1783;fill-opacity:1" />
    <path
       id="path34"
       class="cls-1"
       d="m 1742.47,754.84 h -4.09 v 17.52 h 1.17 c 6.43,0 12.27,-2.92 12.27,-9.93 0.58,-5.84 -3.5,-7.59 -9.35,-7.59 z m 14.6,46.73 -13.43,-22.78 H 1739 v 21.61 h -9.35 V 749 a 95.23,95.23 0 0 1 13.43,-1.17 c 11.1,0 17.52,4.67 17.52,13.43 0,7 -4.09,11.68 -9.35,14.6 l 14,22.2 -8.18,3.5 z"
       inkscape:connector-curvature="0"
       style="fill:#0b1783;fill-opacity:1" />
    <polygon
       id="polygon36"
       class="cls-1"
       points="1807.31,777.62 1807.31,792.81 1826,792.81 1826,800.4 1798.55,800.4 1798.55,748.41 1824.83,748.41 1824.83,756.01 1807.31,756.01 1807.31,770.03 1823.08,770.03 1823.08,777.62 "
       style="fill:#0b1783;fill-opacity:1" />
    <polygon
       id="polygon38"
       class="cls-1"
       points="172.35,554.49 191.04,554.49 191.04,657.88 236.02,657.88 236.02,673.65 172.35,673.65 "
       style="fill:#0b1783;fill-opacity:1" />
    <path
       id="path40"
       class="cls-1"
       d="m 297.35,653.2 c -5.26,4.67 -11.1,7.59 -19.28,7.59 -7,0 -11.68,-4.67 -11.68,-11.68 a 20.88,20.88 0 0 1 17.52,-19.86 l 13.43,-1.75 v 25.7 z m 18.11,-1.2 v -43.19 c 0,-18.11 -12.85,-29.79 -32.13,-29.79 -10.51,0 -19.28,2.34 -29.21,8.18 l -0.58,0.58 6.46,13.44 1.17,-0.58 c 6.43,-2.92 11.1,-5.26 18.69,-5.26 12.85,0 18.11,6.43 18.11,20.44 l -15.77,1.75 c -18.69,1.75 -32.71,16.94 -32.71,34.46 0,15.19 9.93,24.53 25.7,24.53 10.51,0 18.11,-4.67 24.53,-10.51 l 1.17,9.93 18.11,-2.92 -3.5,-21 z"
       inkscape:connector-curvature="0"
       style="fill:#0b1783;fill-opacity:1" />
    <path
       id="path42"
       class="cls-1"
       d="m 441,676 c -32.13,0 -52.57,-22.78 -52.57,-59 0,-39.14 22.78,-64.25 57.83,-64.25 12.27,0 21,1.75 31.54,6.43 l 1.17,0.58 -7,16.36 -1.17,-0.58 c -7,-2.92 -14,-5.84 -24.53,-5.84 -18.69,0 -38.55,13.43 -38.55,43.22 0,32.13 12.27,46.73 39.72,46.73 9.35,0 18.11,-4.09 24.53,-7 l 1.17,-0.58 6.43,15.19 -1.17,0.58 c -11.1,5.84 -22.2,8.18 -37.38,8.18 z"
       inkscape:connector-curvature="0"
       style="fill:#0b1783;fill-opacity:1" />
    <path
       id="path44"
       class="cls-1"
       d="m 573.64,673.65 -16.36,1.75 v -60.16 c -1.17,-15.19 -6.43,-21 -18.11,-21 -8.76,0 -14.6,4.09 -19.28,8.18 v 71.26 H 501.8 v -111.6 l -2.92,-21 21,-2.92 v 49.04 c 7.59,-5.84 16.36,-9.35 25.12,-9.35 18.11,0 28.62,11.1 28.62,29.79 v 66 z"
       inkscape:connector-curvature="0"
       style="fill:#0b1783;fill-opacity:1" />
    <path
       id="path46"
       class="cls-1"
       d="m 649,628.09 -13.43,1.75 C 625,631 618,640.94 618,649.7 c 0,7 4.67,11.68 11.68,11.68 8.18,0 13.43,-2.92 19.28,-7.59 v -25.7 z M 626.21,676 c -15.77,0 -25.7,-9.35 -25.7,-24.53 0,-17.52 14,-32.71 32.71,-34.46 L 649,615.24 c 0,-14.6 -5.26,-20.44 -18.11,-20.44 -7.59,0 -12.27,2.34 -18.69,5.26 l -1.17,0.58 -6.43,-13.44 0.58,-0.58 c 9.93,-5.84 18.69,-8.18 29.21,-8.18 19.28,0 32.13,11.68 32.13,29.79 v 43.22 l 2.92,21 -17.52,2.92 -1.17,-9.93 c -6.43,5.84 -14,10.51 -24.53,10.51 z"
       inkscape:connector-curvature="0"
       style="fill:#0b1783;fill-opacity:1" />
    <path
       id="path48"
       class="cls-1"
       d="m 729.6,676 c -17.52,0 -29.21,-11.68 -29.21,-29.79 v -43.82 l -2.92,-21 21,-2.92 v 61.92 c 0,13.43 5.26,19.28 16.36,19.28 7.59,0 13.43,-2.34 19.86,-8.18 v -49.1 l -2.92,-21 21,-2.92 V 652 l 2.92,21 -17.46,3 -1.75,-9.93 A 41.29,41.29 0 0 1 729.6,676 Z"
       inkscape:connector-curvature="0"
       style="fill:#0b1783;fill-opacity:1" />
    <polygon
       id="polygon50"
       class="cls-1"
       points="853.44,580.77 872.71,580.77 842.92,624 873.88,668.98 858.7,677.74 832.99,639.18 810.8,673.65 791.52,673.65 824.23,625.75 796.19,585.45 811.38,577.27 834.16,611.15 "
       style="fill:#0b1783;fill-opacity:1" />
    <polygon
       id="polygon52"
       class="cls-1"
       points="931.71,636.26 883.81,636.26 883.81,622.83 931.71,622.83 "
       style="fill:#0b1783;fill-opacity:1" />
    <path
       id="path54"
       class="cls-1"
       d="m 996,594.79 c -19.28,0 -25.7,16.94 -25.7,31.54 0,23.36 7,33.88 22.2,33.88 7.59,0 12.27,-2.92 16.94,-6.43 V 597.13 A 37,37 0 0 0 996,594.79 Z M 987.2,676 c -21,0 -35,-17.52 -35,-44.39 0,-32.13 16.94,-51.4 45.56,-51.4 a 60.25,60.25 0 0 1 11.68,1.17 v -18.13 l -2.92,-21 21,-2.92 V 652 l 2.92,21 -17.52,2.34 -1.17,-8.76 c -8.18,6.43 -16.36,9.35 -24.53,9.35 z"
       inkscape:connector-curvature="0"
       style="fill:#0b1783;fill-opacity:1" />
    <path
       id="path56"
       class="cls-1"
       d="m 1071.32,612.9 h 38.55 c 0,-13.43 -8.18,-19.86 -18.69,-19.86 -9.93,0 -17.52,7.59 -19.86,19.86 z m 23.94,63.1 c -27.45,0 -42.06,-17.52 -42.06,-49.07 0,-28.62 15.77,-47.9 39.14,-47.9 21,0 35,12.85 35,35.63 v 11.68 h -56.66 c 0.58,23.36 9.35,33.88 28,33.88 7.59,0 13.43,-2.34 19.86,-5.26 l 1.17,-0.58 6.43,14 -0.58,0.58 c -9.93,4.67 -18.69,7 -30.37,7 z"
       inkscape:connector-curvature="0"
       style="fill:#0b1783;fill-opacity:1" />
    <polygon
       id="polygon58"
       class="cls-1"
       points="1195.73,636.26 1147.25,636.26 1147.25,622.83 1195.73,622.83 "
       style="fill:#0b1783;fill-opacity:1" />
    <polygon
       id="polygon60"
       class="cls-1"
       points="1281.02,624 1242.46,624 1242.46,673.65 1223.77,673.65 1223.77,554.49 1285.1,554.49 1285.1,570.84 1242.46,570.84 1242.46,608.23 1281.02,608.23 "
       style="fill:#0b1783;fill-opacity:1" />
    <path
       id="path62"
       class="cls-1"
       d="m 1341.18,594.21 c -15.19,0 -22.2,10.51 -22.2,32.13 0,22.2 7.59,33.29 22.2,33.29 15.19,0 22.2,-10.51 22.2,-32.71 0,-21.61 -7.59,-32.71 -22.2,-32.71 z m 0,81.78 c -26.29,0 -40.3,-16.94 -40.3,-48.48 0,-29.79 15.77,-48.48 40.3,-48.48 26.29,0 40.3,16.94 40.3,48.48 0.58,29.79 -15.19,48.48 -40.3,48.48 z"
       inkscape:connector-curvature="0"
       style="fill:#0b1783;fill-opacity:1" />
    <path
       id="path64"
       class="cls-1"
       d="m 1481.37,673.65 h -18.11 v -60.17 c 0,-13.43 -5.26,-19.28 -16.36,-19.28 -7,0 -13.43,2.34 -19.86,8.18 v 71.26 h -18.11 v -71.25 l -2.92,-21 17.52,-2.92 1.17,9.93 a 39,39 0 0 1 26.87,-10.51 c 17.52,0 29.21,11.68 29.21,29.79 v 66 z"
       inkscape:connector-curvature="0"
       style="fill:#0b1783;fill-opacity:1" />
    <path
       id="path66"
       class="cls-1"
       d="m 1552.63,594.79 c -19.28,0 -25.7,16.94 -25.7,31.54 0,23.36 7,33.88 22.2,33.88 7.59,0 12.27,-2.92 16.94,-6.43 v -56.65 a 37,37 0 0 0 -13.43,-2.34 z m -9.34,81.21 c -21,0 -35,-17.52 -35,-44.39 0,-32.13 16.94,-51.4 45.56,-51.4 a 60.25,60.25 0 0 1 11.68,1.17 v -18.13 l -2.92,-21 21,-2.92 V 652 l 2.92,21 -17.53,2.4 -1.17,-8.76 c -8.18,6.43 -15.77,9.35 -24.53,9.35 z"
       inkscape:connector-curvature="0"
       style="fill:#0b1783;fill-opacity:1" />
    <path
       id="path68"
       class="cls-1"
       d="m 1638.5,676 c -10.51,0 -19.86,-1.75 -26.87,-5.26 l -1.17,-0.58 5.26,-15.77 1.17,0.58 c 7.59,3.5 14.6,5.26 20.44,5.26 6.43,0 16.94,-1.75 16.94,-11.68 0,-5.84 -2.92,-8.18 -8.76,-11.1 l -16.94,-7.59 c -5.26,-2.34 -17.52,-8.18 -17.52,-25.12 0,-18.11 16.94,-26.87 33.29,-26.87 9.93,0 16.94,1.17 25.7,4.67 l 1.17,0.58 -5.84,15.19 -1.17,-0.58 c -5.26,-2.34 -11.68,-4.67 -19.28,-4.67 -10.51,0 -15.77,3.5 -15.77,9.93 0,5.84 5.26,8.76 8.76,10.51 l 17.52,8.18 c 12.27,5.84 18.11,13.43 18.11,23.95 -0.58,18.11 -14.6,30.37 -35,30.37 z"
       inkscape:connector-curvature="0"
       style="fill:#0b1783;fill-opacity:1" />
    <path
       id="path70"
       class="cls-1"
       d="m 1159.52,193.5 c -57.83,0 -98.13,46.73 -98.13,46.73 -3.5,3.5 -2.34,6.43 2.92,6.43 h 192.76 c 5.26,0 6.43,-2.92 2.92,-6.43 -0.58,0 -42.64,-46.73 -100.47,-46.73 z"
       inkscape:connector-curvature="0"
       style="fill:#0b1783;fill-opacity:1" />
    <path
       id="path72"
       class="cls-1"
       d="m 1261.74,316.17 a 6.48,6.48 0 0 1 -6.43,6.43 h -190.42 a 6.48,6.48 0 0 1 -6.43,-6.43 v -29.79 a 6.48,6.48 0 0 1 6.43,-6.43 h 190.42 a 6.48,6.48 0 0 1 6.43,6.43 z"
       inkscape:connector-curvature="0"
       style="fill:#0b1783;fill-opacity:1" />
    <path
       id="path74"
       class="cls-1"
       d="m 1024,316.17 a 5.52,5.52 0 0 1 -5.84,5.84 h -191 a 5.85,5.85 0 0 1 -5.84,-5.84 v -30.38 a 5.85,5.85 0 0 1 5.84,-5.84 h 191 a 5.85,5.85 0 0 1 5.84,5.84 v 30.37 z"
       inkscape:connector-curvature="0"
       style="fill:#0b1783;fill-opacity:1" />
    <path
       id="path76"
       class="cls-1"
       d="m 1261.74,390.93 a 6.48,6.48 0 0 1 -6.43,6.43 h -190.42 a 6.48,6.48 0 0 1 -6.43,-6.43 v -29.79 a 6.48,6.48 0 0 1 6.43,-6.43 h 190.42 a 6.48,6.48 0 0 1 6.43,6.43 z"
       inkscape:connector-curvature="0"
       style="fill:#0b1783;fill-opacity:1" />
    <path
       id="path78"
       class="cls-1"
       d="m 1024,390.93 a 5.85,5.85 0 0 1 -5.84,5.84 H 724.35 a 5.85,5.85 0 0 1 -5.84,-5.84 v -30.37 a 5.85,5.85 0 0 1 5.84,-5.84 h 293.81 a 5.85,5.85 0 0 1 5.84,5.84 z"
       inkscape:connector-curvature="0"
       style="fill:#0b1783;fill-opacity:1" />
    <path
       id="path80"
       class="cls-1"
       d="m 683.46,390.93 a 5.85,5.85 0 0 1 -5.84,5.84 H 176.44 a 5.85,5.85 0 0 1 -5.84,-5.84 v -30.37 a 5.85,5.85 0 0 1 5.84,-5.84 h 501.18 a 5.85,5.85 0 0 1 5.84,5.84 z"
       inkscape:connector-curvature="0"
       style="fill:#0b1783;fill-opacity:1" />
    <path
       id="path82"
       class="cls-1"
       d="m 1261.74,465.7 a 6.48,6.48 0 0 1 -6.43,6.43 h -190.42 a 6.48,6.48 0 0 1 -6.43,-6.43 v -29.79 a 6.48,6.48 0 0 1 6.43,-6.43 h 190.42 a 6.48,6.48 0 0 1 6.43,6.43 z"
       inkscape:connector-curvature="0"
       style="fill:#0b1783;fill-opacity:1" />
    <path
       id="path84"
       class="cls-1"
       d="m 1024,465.7 a 5.85,5.85 0 0 1 -5.84,5.84 H 507.05 a 5.85,5.85 0 0 1 -5.84,-5.84 v -30.37 a 5.85,5.85 0 0 1 5.84,-5.84 h 511.11 a 5.85,5.85 0 0 1 5.84,5.84 z"
       inkscape:connector-curvature="0"
       style="fill:#0b1783;fill-opacity:1" />
    <polygon
       id="polygon86"
       class="cls-1"
       points="606.36,739.07 602.85,734.4 618.62,723.88 622.71,729.72 "
       style="fill:#0b1783;fill-opacity:1" />
  </g>
</svg>
