<?xml version="1.0" encoding="utf-8"?>
<!-- Generator: Adobe Illustrator 23.0.6, SVG Export Plug-In . SVG Version: 6.00 Build 0)  -->
<svg version="1.1" xmlns="http://www.w3.org/2000/svg" xmlns:xlink="http://www.w3.org/1999/xlink" x="0px" y="0px"
	 viewBox="0 0 500 500" style="enable-background:new 0 0 500 500;" xml:space="preserve">
<style type="text/css">
	.st0{display:none;}
	.st1{display:inline;}
	.st2{fill:#0B1783;}
	.st3{fill:#FFFFFF;}
</style>
<g id="Calque_1" class="st0">
	<g class="st1">
		<path class="st2" d="M336.88,471.91l-2.43-0.58L52.33,403.31l-0.11-31l-27.3-7.08L2.84,322.04v-93.93l153.58-88.42l2.55,0.64
			l340.85,86.49v95.21l-21.64,42.3l-13.58,7.83v29.81L336.88,471.91z M65.24,393.09l269.8,65.07l116.6-63.86v-29.62l16.74-9.66
			l18.48-36.1V236.9l-328.53-83.36L15.79,235.61v83.31l18.02,35.23l31.32,8.13L65.24,393.09z M74.48,291.68l-6.47-11.23l88.39-50.89
			l162.49,39.99l-3.1,12.58l-157.43-38.75L74.48,291.68z"/>
	</g>
	<g class="st1">
		<path class="st2" d="M345.27,320.34c-0.26,0-0.54-0.03-0.8-0.11l-69.15-17.54l1.6-6.28l67.88,17.21l140.01-80.58l-326.96-82.96
			L10.93,234.68l-3.24-5.62l148.07-85.24c0.75-0.41,1.61-0.55,2.42-0.33l335.97,85.25c1.27,0.33,2.23,1.39,2.41,2.7
			c0.18,1.31-0.45,2.59-1.6,3.25l-148.08,85.23C346.39,320.2,345.83,320.34,345.27,320.34z"/>
	</g>
	<g class="st1">
		<polygon class="st2" points="70.45,250.72 8.52,235 10.12,228.73 72.05,244.44 		"/>
	</g>
	<g class="st1">
		<polygon class="st2" points="195.05,193.42 209.15,184.92 231.8,190.75 231.8,221.23 217.69,229.73 195.05,223.9 		"/>
	</g>
	<g class="st1">
		<polygon class="st3" points="230.09,203.21 172.72,189.17 152.67,149.95 152.67,61.34 216.69,24.9 273.87,39.06 273.87,127.69 
			268.27,181.47 		"/>
	</g>
	<g class="st1">
		<path class="st2" d="M231.06,210.11l-62.75-15.36l-22.12-43.23V57.57L215.72,18l64.62,16v93.69l-5.98,57.76L231.06,210.11z
			 M177.14,183.59l51.99,12.72l33.05-18.82l5.26-50.47l-0.03-82.89l-49.75-12.31l-58.5,33.29v83.29L177.14,183.59z"/>
	</g>
	<g class="st1">
		<polygon class="st2" points="274.31,39.51 207.92,75.3 208.04,163.79 230.09,203.21 268.28,181.46 273.86,127.69 		"/>
	</g>
	<g class="st1">
		<g>
			<path class="st2" d="M215.37,234.61c0,1.88-1.52,3.4-3.4,3.4c-1.88,0-3.4-1.52-3.4-3.4v-9.23c0-1.88,1.52-3.4,3.4-3.4
				c1.88,0,3.4,1.52,3.4,3.4V234.61z"/>
		</g>
		<g>
			<path class="st2" d="M211.98,239.63c-2.77,0-5.02-2.25-5.02-5.01v-9.24c0-2.76,2.25-5.01,5.02-5.01c2.76,0,5.01,2.25,5.01,5.01
				v9.24C216.99,237.37,214.73,239.63,211.98,239.63z M211.98,223.61c-0.98,0-1.78,0.79-1.78,1.77v9.24c0,0.98,0.8,1.77,1.78,1.77
				c0.98,0,1.77-0.79,1.77-1.77v-9.24C213.74,224.4,212.95,223.61,211.98,223.61z"/>
		</g>
	</g>
	<g class="st1">
		<polygon class="st2" points="327.16,445.94 347.22,406.73 347.22,318.11 493.34,231.87 493.34,320.48 473.28,359.68 
			458.12,368.42 458.12,398.13 335.96,465.03 335.96,445.94 		"/>
	</g>
	<g class="st1">
		<path class="st2" d="M296.18,430.63c-0.26,0-0.54-0.03-0.8-0.11L90.5,378.54c-0.9-0.22-1.66-0.83-2.09-1.66l-20.06-39.21
			c-0.23-0.45-0.36-0.96-0.36-1.47v-88.62c0-1.15,0.61-2.21,1.61-2.8l85-49.69c-0.2-0.58-0.25-1.22-0.09-1.87
			c0.43-1.73,2.14-2.8,3.93-2.37l211.44,52.04c1.28,0.32,2.24,1.38,2.43,2.7c0.18,1.31-0.45,2.6-1.59,3.26l-51.65,29.73
			c-0.07,0.04-0.16,0.09-0.25,0.14l-39.46,22.73v85.95l19.71,38.52c0.58,1.13,0.44,2.5-0.35,3.5
			C298.09,430.18,297.15,430.63,296.18,430.63z M93.52,372.63l196.51,49.85l-16.8-32.83c-0.23-0.45-0.36-0.96-0.36-1.47v-88.61
			c0-1.16,0.62-2.23,1.62-2.81l34.3-19.74l-152.22-38.63c-1.43-0.36-2.44-1.65-2.44-3.14v-32.38l-79.65,46.57v85.97L93.52,372.63z
			 M160.62,232.73l156.23,39.64l43.63-25.12l-199.87-49.2V232.73z"/>
	</g>
	<g class="st1">
		
			<rect x="173.82" y="256.63" transform="matrix(0.2521 -0.9677 0.9677 0.2521 -218.6467 439.8496)" class="st2" width="2.86" height="209.52"/>
	</g>
</g>
<g id="Calque_2" class="st0">
	<g class="st1">
		<g>
			<path class="st2" d="M373.29,309.62l-255.28-59.79l1.42-6.08l253.35,59.34l101.73-41.75l2.38,5.77L373.29,309.62z M373.29,278.48
				L98.46,214.13l1.42-6.08l272.9,63.9l118.96-48.81l2.38,5.77L373.29,278.48z"/>
		</g>
		<g>
			<path class="st2" d="M428.23,257.25c-0.35,0-0.7-0.04-1.04-0.12L4.76,160.43c-2.12-0.48-3.63-2.38-3.63-4.56v-14.94
				c0-1.88,1.13-3.58,2.86-4.31l64.34-27.1c0.95-0.4,1.99-0.48,2.99-0.22l72.62,18.77l-2.34,9.05L70.5,118.76l-60.02,25.28v8.11
				l413.07,94.56v-11.23c0-1.83,1.08-3.5,2.74-4.26l64.7-29.41c1.44-0.66,3.12-0.53,4.46,0.33c1.34,0.86,2.15,2.34,2.15,3.93v19.96
				c0,1.89-1.15,3.6-2.91,4.33l-64.68,26.54C429.46,257.13,428.84,257.25,428.23,257.25z M432.91,238.49v7.12l55.34-22.71v-9.56
				L432.91,238.49z"/>
		</g>
		<g>
			<g>
				<path class="st2" d="M336.5,135.79h-6.25V81.82c0-7.02-2.02-12.1-6.01-15.08c-7.83-5.85-21-2.8-23.47-2.13l-76.79,49.82
					l-3.4-5.24l77.2-50.08c0.26-0.15,0.52-0.29,0.82-0.37c0.73-0.24,18.27-5.29,29.37,2.99c5.66,4.23,8.53,10.99,8.53,20.09V135.79z
					"/>
			</g>
		</g>
		<g>
			<path class="st2" d="M373.04,459c-0.48,0-0.95-0.06-1.42-0.16l-51.24-12c-1.69-0.4-3.13-1.48-3.99-2.99l-14.71-25.89
				L185.89,389.6l-10.43,18.67c-1.36,2.43-4.15,3.67-6.87,3.03l-49.94-11.69c-2.8-0.66-4.79-3.15-4.81-6.03l-0.97-145.05
				l-19.15-34.4c-0.52-0.93-0.79-1.97-0.79-3.03v-19.96c0-2.24,1.21-4.31,3.16-5.42l17.42-9.89l6.15,10.83l-14.26,8.1v14.71
				l19.13,34.38c0.51,0.91,0.78,1.95,0.79,2.99l0.95,141.74l40.59,9.5l10.46-18.72c1.37-2.46,4.17-3.7,6.93-3.01l123,30.13
				c1.67,0.41,3.09,1.48,3.93,2.97l14.69,25.85l46.64,10.93l96.94-39.78l0.01-142.22c0-0.88,0.19-1.76,0.55-2.56l16.68-36.99v-13.67
				l-40.86-9.57c-2.74-0.65-4.72-3.05-4.8-5.87l-0.5-15.67l-0.01-19.23l-105.43-18.74l-42.57,27.07l-6.7-10.53l44.61-28.37
				c1.32-0.83,2.88-1.17,4.44-0.87l112.97,20.08c2.97,0.52,5.14,3.11,5.14,6.13l0.34,34.94l41.02,9.6c2.82,0.67,4.81,3.17,4.81,6.07
				v19.96c0,0.88-0.19,1.76-0.55,2.56l-16.68,36.99l-0.01,145.06c0,2.53-1.53,4.8-3.87,5.76L375.4,458.53
				C374.64,458.84,373.85,459,373.04,459z"/>
		</g>
		<g>
			<g>
				<path class="st2" d="M304.54,206.72l-12.45-0.66c2.14-41.31-29.8-79.53-74.3-88.91c-40.06-8.48-78,13.27-90.17,51.6l-11.88-3.77
					c13.93-43.86,58.9-69.65,104.62-60.03C270.81,115.59,306.99,159.35,304.54,206.72z M220.77,188.26l-12.45-0.63
					c0.16-3.09-2.42-5.99-6-6.75c-3.27-0.74-5.53,1.32-6.22,3.49l-11.89-3.77c2.76-8.68,11.62-13.84,20.68-11.93
					C214.41,170.69,221.23,179.11,220.77,188.26z"/>
			</g>
		</g>
		<g>
			<polygon class="st2" points="427.19,240.04 4.78,145.5 6.82,136.37 429.24,230.91 			"/>
		</g>
		<g>
			<polygon class="st2" points="446.76,155.45 399.06,185.58 398.91,228.99 429.3,235.54 492.93,206.06 447.26,195.37 			"/>
		</g>
		<g>
			<polygon class="st2" points="373.04,306.35 373.04,275.22 428.22,252.57 428.22,235.47 492.93,206.06 492.93,226.03 
				475.69,264.23 475.69,410.64 373.04,452.77 			"/>
		</g>
		<g>
			<g>
				<path class="st2" d="M309.86,150.6v-45.26c0-30.12-33.89-20.08-33.89-20.08l-44.87,29.1l-8.82-2.54l77.19-50.08
					c0,0,33.9-10.03,33.9,20.09v53.97L309.86,150.6z"/>
			</g>
		</g>
	</g>
</g>
<g id="Calque_3" class="st0">
	<g class="st1">
		<g>
			<path class="st2" d="M15.82,306.41c30.37-24.99,57.66-53.91,90.26-76.13c32.73-22.31,69.73-31.5,108.9-33.92
				c36.35-2.24,74.62-0.65,108.99,12.4c31.21,11.85,64.67,36.67,64.36,73.66c-0.3,36.94-41.09,43.46-68.85,31.94
				c-8.42-3.5-21.12-10.31-23.1-20.3c-2.54-12.81,16.76-16.78,25.63-18.85c16.58-3.85,35.57-4.61,50.75,4.29
				c12.06,7.07,27.2,28.82,15.86,42.29c-9.43,11.19-32.1,11.24-45.14,9.04c-16.35-2.76-32.41-11.06-41.95-24.96
				c-16.09-23.44-9.28-53.61,19.92-59.37c22.53-4.45,52.83,1.08,69.47,17.82c20.62,20.74,33.38,54.65,31.22,83.8
				c-1.04,14.12-6.4,30.01-19.54,37.32c-10.43,5.8-23.68,4.43-34.74,1.48c-36.83-9.83-114.06-71.18-66.38-111.4
				c17.02-14.35,47.92-17.83,64.3-0.6c16.1,16.94,12.28,42.54-11.25,47.88c-20.35,4.62-47.9,0.87-64.81-12.03
				c-6.53-4.99-14.51-14.42-13.34-23.27c1.07-8.09,9.75-11.91,16.57-14.39c19.41-7.04,42.79-8.33,63.18-6.06
				c31.25,3.48,57.92,24.92,89.22,29.65c17.4,2.63,34.31-0.35,49.63-9.02c10.49-5.94,0.98-15.41-7.85-10.41
				c-42.93,24.3-86.5-20.46-129.74-23.51c-26.86-1.89-60.01-0.22-83.49,14.4c-23.53,14.64-16.42,40.85,4.67,54.59
				c23.32,15.21,58.45,19.16,84.77,10.6c28.15-9.15,39.89-38.58,21-63.45c-18.61-24.54-56.99-23.33-82.02-10.56
				c-28.53,14.57-40.06,44.08-26.4,73.41c14.26,30.61,45.8,54.76,77.56,64.89c30.47,9.72,66.76,4.4,81.04-27.77
				c15.41-34.74-0.03-81.37-23.43-109.01c-33.67-39.8-148.97-43.45-135.21,30.7c7.69,41.46,55.35,57.83,92.48,51.79
				c15.38-2.5,33.72-8.75,40.1-24.47c6.97-17.17-5.28-37.99-19.2-47.77c-15.86-11.15-37.13-13.16-55.88-10.74
				c-16.5,2.14-38,6.42-49.56,19.67c-21.57,24.74,19.6,45.99,38.88,50.47c33.64,7.83,78.86-4.9,83.27-44.63
				c4.89-44.06-35.08-75.12-71.76-89.04c-43.94-16.68-95.26-17.24-141.34-11.16c-50.27,6.63-91.44,28.08-129.77,60.76
				c-19.95,17.01-38.82,35.26-59.07,51.92C-5.23,306,8.99,312.03,15.82,306.41"/>
		</g>
	</g>
	<g class="st1">
		<polygon class="st3" points="53.82,220.99 65.89,230.19 66.27,241.48 201.49,342.62 386.15,215.04 387.47,200.07 395.14,194.56 
			242.29,91.13 		"/>
	</g>
	<g class="st1">
		<path class="st2" d="M201.49,347.21c-0.97,0-1.94-0.31-2.76-0.92L63.51,245.16c-1.12-0.84-1.79-2.13-1.83-3.53l-0.31-9.11
			l-10.33-7.88c-1.17-0.89-1.85-2.29-1.8-3.77c0.03-1.47,0.77-2.84,1.99-3.67L239.69,87.34c1.55-1.07,3.61-1.08,5.18-0.02
			l152.84,103.43c1.25,0.84,2,2.24,2.02,3.74c0.03,1.5-0.69,2.92-1.91,3.8l-5.96,4.28l-1.13,12.86c-0.12,1.36-0.84,2.6-1.97,3.38
			L204.1,346.4C203.31,346.94,202.4,347.21,201.49,347.21z M70.79,239.12l130.8,97.83l180.18-124.47l1.12-12.81
			c0.12-1.33,0.81-2.55,1.9-3.33l2.32-1.67L242.32,96.69L61.65,221.18l7.02,5.36c1.1,0.84,1.76,2.12,1.8,3.5L70.79,239.12z"/>
	</g>
	<g class="st1">
		<polygon class="st2" points="132.38,181.34 132.38,155.68 254.97,75.62 267.29,85.38 266.65,107.13 144.46,188.72 		"/>
	</g>
	<g class="st1">
		<polygon class="st2" points="205.17,236.51 205.17,210.84 327.75,130.78 345.11,141.9 344.54,161.79 217.24,243.89 		"/>
	</g>
	<g class="st1">
		<polygon class="st2" points="240.03,260.64 240.03,234.97 362.61,154.91 379.97,166.03 379.4,185.92 252.1,268.02 		"/>
	</g>
	<g class="st1">
		<path class="st3" d="M133.69,186.42c-0.22,5.71-10,9.95-21.84,9.49c-11.84-0.47-21.25-5.48-21.03-11.19
			c0.22-5.7,10-9.95,21.84-9.48C124.5,175.71,133.92,180.71,133.69,186.42"/>
	</g>
	<g class="st1">
		<path class="st2" d="M113.65,200.05c-0.65,0-1.3-0.02-1.97-0.04c-14.56-0.58-25.28-7.22-24.96-15.45c0.1-2.64,1.35-5.15,3.6-7.24
			c4.53-4.18,13.27-6.51,22.51-6.17c6.32,0.25,12.29,1.7,16.8,4.1c5.43,2.89,8.33,6.92,8.16,11.34
			C137.47,194.43,127.23,200.05,113.65,200.05z M110.83,179.31c-7.3,0-12.7,1.96-14.95,4.03c-0.35,0.32-0.94,0.96-0.96,1.53
			c-0.09,2.21,6.34,6.51,17.09,6.94c10.69,0.37,17.5-3.36,17.58-5.56c0.04-0.82-1.15-2.35-3.81-3.77c-3.38-1.8-8.22-2.95-13.27-3.15
			C111.94,179.32,111.38,179.31,110.83,179.31z"/>
	</g>
	<g class="st1">
		<path class="st3" d="M90.82,184.73l0.66-16.82c0.23-5.71,10.01-9.96,21.84-9.49c11.84,0.47,21.26,5.48,21.04,11.19l-0.67,16.82"/>
	</g>
	<g class="st1">
		<path class="st2" d="M137.79,186.59l-8.2-0.33l0.67-16.82c0.09-2.2-6.34-6.5-17.1-6.93c-10.67-0.43-17.5,3.36-17.58,5.57
			l-0.66,16.81l-8.2-0.32l0.66-16.82c0.35-8.24,11.44-14.05,26.11-13.43c14.56,0.58,25.29,7.23,24.97,15.45L137.79,186.59z"/>
	</g>
	<g class="st1">
		<path class="st2" d="M114.3,183.23c-0.65,0-1.29-0.02-1.96-0.04c-9.37-0.37-17.78-3.41-21.95-7.94c-2.08-2.25-3.12-4.84-3.01-7.5
			l8.2,0.34c-0.03,0.57,0.51,1.25,0.84,1.6c2.21,2.41,8.11,4.99,16.25,5.31c10.71,0.39,17.49-3.36,17.58-5.56l8.2,0.34
			C138.13,177.62,127.89,183.23,114.3,183.23z"/>
	</g>
	<g class="st1">
		<path class="st3" d="M105.62,212.35c-0.23,5.71-10,9.96-21.84,9.49c-11.84-0.47-21.26-5.48-21.03-11.18
			c0.22-5.71,10-9.96,21.84-9.49C96.44,201.64,105.84,206.64,105.62,212.35"/>
	</g>
	<g class="st1">
		<path class="st2" d="M85.56,225.98c-0.65,0-1.29-0.02-1.95-0.04c-14.56-0.58-25.28-7.22-24.96-15.44
			c0.17-4.42,3.38-8.21,9.03-10.66c4.68-2.03,10.72-3.02,17.08-2.76c6.32,0.25,12.29,1.7,16.8,4.1c5.43,2.89,8.33,6.92,8.16,11.34
			c-0.17,4.42-3.38,8.21-9.03,10.66C96.49,225,91.18,225.98,85.56,225.98z M82.82,205.24c-4.47,0-8.72,0.75-11.87,2.12
			c-2.78,1.21-4.07,2.64-4.1,3.47c-0.09,2.19,6.34,6.49,17.09,6.92c5.13,0.23,9.97-0.56,13.48-2.09c2.78-1.2,4.07-2.64,4.1-3.46
			c0.04-0.82-1.15-2.35-3.81-3.77c-3.38-1.8-8.22-2.95-13.27-3.15C83.9,205.25,83.37,205.24,82.82,205.24z"/>
	</g>
	<g class="st1">
		<path class="st3" d="M62.75,210.66l0.66-16.82c0.23-5.71,10.01-9.95,21.84-9.49c11.84,0.47,21.26,5.48,21.04,11.18l-0.67,16.82"/>
	</g>
	<g class="st1">
		<path class="st2" d="M86.24,209.16c-0.65,0-1.29-0.02-1.96-0.04c-9.37-0.37-17.78-3.41-21.95-7.94c-2.08-2.25-3.12-4.84-3.01-7.5
			l8.2,0.34c-0.03,0.57,0.51,1.25,0.84,1.6c2.21,2.41,8.11,4.99,16.25,5.31c10.66,0.4,17.49-3.36,17.58-5.56l8.2,0.34
			C110.06,203.55,99.82,209.16,86.24,209.16z"/>
	</g>
	<g class="st1">
		<polygon class="st3" points="270.45,268.31 205.17,224.64 135.99,262.57 145.08,269.44 135.99,274.43 202.26,324.6 270.45,280.17 
			261.46,274.17 		"/>
	</g>
	<g class="st1">
		<path class="st2" d="M202.26,328.7c-0.87,0-1.74-0.28-2.47-0.83l-66.26-50.17c-1.11-0.84-1.72-2.18-1.62-3.57
			c0.1-1.39,0.9-2.63,2.12-3.3l3.54-1.94l-4.04-3.05c-1.11-0.84-1.72-2.18-1.62-3.57c0.1-1.39,0.9-2.63,2.12-3.3l69.17-37.93
			c1.33-0.75,2.97-0.66,4.24,0.18l65.28,43.67c1.15,0.77,1.83,2.06,1.82,3.43c-0.01,1.37-0.71,2.65-1.87,3.41l-3.78,2.47l3.82,2.55
			c1.15,0.76,1.83,2.06,1.82,3.43c-0.01,1.38-0.71,2.66-1.87,3.41l-68.19,44.43C203.81,328.48,203.04,328.7,202.26,328.7z
			 M143.51,274.98l58.92,44.62L263,280.13l-3.82-2.55c-1.15-0.76-1.83-2.06-1.82-3.43c0.01-1.38,0.71-2.66,1.87-3.41l3.78-2.47
			l-58.05-38.83l-61.43,33.69l4.03,3.05c1.11,0.84,1.72,2.18,1.62,3.57c-0.1,1.39-0.9,2.63-2.12,3.3L143.51,274.98z"/>
	</g>
	<g class="st1">
		<path class="st2" d="M109.72,212.51l-8.2-0.33l0.67-16.82c0.09-2.19-6.34-6.49-17.1-6.92c-10.78-0.44-17.5,3.36-17.58,5.56
			l-0.66,16.81l-8.2-0.32l0.66-16.82c0.34-8.22,11.45-13.93,26.11-13.42c14.56,0.58,25.29,7.22,24.97,15.44L109.72,212.51z"/>
	</g>
</g>
<g id="Calque_4" class="st0">
	<g class="st1">
		<path class="st2" d="M406.06,347.44c-1.97,0-4.55-0.29-7.98-1.04l-9.01-1.98c-11.66-2.56-12.25-5.91-12.54-7.52
			c-0.4-2.21,0.6-4.32,2.67-5.64c0.93-0.83,2.48-5.4,3.11-9.34l30.75-134.55c0.81-18.01,5.54-33.59,8.3-41.32l-20.7-4.55
			c-3.98-1.05-9.08-5.02-7.58-11.86l2.97-13.58c0.2-0.91,0.67-1.74,1.35-2.37l5.71-5.29c1.1-1.02,2.61-1.45,4.08-1.11l56.41,12.38
			c1.4,0.31,2.58,1.26,3.18,2.56c0.6,1.32,0.54,2.82-0.15,4.09c-0.57,1.99,3.46,10.89,30.56,21.13c0.34,0.13,0.66,0.3,0.96,0.49
			c1.4,0.96,2.87,3.02,2.37,5.64c-0.8,4.19-5.68,5.85-10.83,7.01c-0.65,0.14-1.33,0.14-1.98,0l-35.85-7.85
			c-0.74,8.2-3.03,24.51-10,41.77l-28.13,134c-1.14,4.13-1.64,8.92-1.11,10.14c1.28,1.99,1.3,4.32,0.02,6.18
			C411.96,345.77,410.79,347.44,406.06,347.44z M387.81,334.66c1.03,0.32,2.16,0.62,3.22,0.85l9.01,1.98
			c1.06,0.23,2.21,0.43,3.28,0.58c-0.3-4.37,0.85-9.27,1.53-11.72l28.3-134.47c9.36-23.34,9.93-44.61,9.93-44.82
			c0.03-1.36,0.67-2.65,1.74-3.49c1.07-0.84,2.45-1.18,3.8-0.86l30.04,6.59c-11.07-5.75-17.83-11.83-20.17-18.14
			c-0.46-1.25-0.71-2.39-0.82-3.43l-50.1-10.99l-2.91,2.7l-2.67,12.19c0.04,0.62,0.51,0.93,0.9,1.05l25.62,5.62
			c1.33,0.29,2.47,1.16,3.08,2.38c0.62,1.21,0.67,2.65,0.12,3.9c-0.08,0.2-8.49,19.83-9.65,44.05l-30.8,135.06
			C390.9,325.97,389.92,330.84,387.81,334.66z"/>
	</g>
	<g class="st1">
		<path class="st2" d="M427.53,142.73c0,0,6.09-0.97,11.47,0.21c5.38,1.18,9.52,4.39,9.52,4.39l40.17,8.82l5.23-1.61l2.09-2.29
			l-3.08-1.56l-17.95-8.77l-7.53-5.74l-4.31-5.75l-0.51-6.28l-56.41-12.39l-5.7,5.3l-2.98,13.57l1.15,4.64l4.28,2.07L427.53,142.73z
			"/>
	</g>
	<g class="st1">
		<path class="st2" d="M209.67,210.1c0,0-10.24-2.99-13.98-16.86c-3.73-13.86-6.29-16.5-11.64-16.28c0,0,4.99-5.99-0.7-19.03
			c0,0-9.7-25.4-23.3-27.49l5.49,36.04c0,0-0.02,1-1.1,1.37c-0.93,0.32-1.48-0.5-1.48-0.5l-17.5-32
			c-9.55,9.92-1.85,35.98-1.85,35.98c3.39,13.83,10.98,15.57,10.98,15.57c-4.09,3.92-1.92,9.4,3.62,19.63
			c6.83,12.64,0.76,23,0.76,23s11.28-6.44,17.65-5.97c0,0-0.36-16.6-3.54-26.03c0,0-0.6-2.02,1.65-3.11
			c2.27-1.09,3.68,0.98,3.68,0.98s8.54,15.83,13.35,21.13C191.79,216.54,199.94,211.47,209.67,210.1"/>
	</g>
	<g class="st1">
		<path class="st3" d="M176.64,223.57l-12.73,55.9c-5.22,29.79,10.18,63.13,16.15,75.12c5.97,12,21.91,15.85,6.59,23.26
			c-15.33,7.41-33.57-41.85-33.57-41.85c-21.11-52.11,5.91-106.47,5.91-106.47l9.8-4.47L176.64,223.57z"/>
	</g>
	<g class="st1">
		<path class="st2" d="M183.39,383.17c-1.64,0-3.32-0.34-4.98-1.01c-14.98-6.03-28.16-40.65-29.62-44.58
			c-21.58-53.27,4.97-107.78,6.11-110.08c0.46-0.94,1.24-1.69,2.19-2.12l9.8-4.48c0.33-0.15,0.68-0.27,1.04-0.34l7.85-1.49
			c1.55-0.26,3.08,0.22,4.14,1.32c1.07,1.11,1.51,2.69,1.17,4.18l-12.73,55.9c-3.36,19.17,2.23,44.85,15.78,72.09
			c1.71,3.44,4.59,6.26,7.13,8.75c3.63,3.55,7.07,6.91,6.3,11.63c-0.74,4.52-5.17,7.19-8.94,9.02
			C186.96,382.77,185.2,383.17,183.39,383.17z M162.42,232.99c-3.92,8.76-23.33,56.33-5.12,101.31
			c5.01,13.49,16.03,35.99,24.52,39.41c1.41,0.56,2.23,0.34,2.84,0.04c3.39-1.65,3.99-2.57,4.01-2.61
			c-0.36,0.16-2.33-1.89-3.78-3.29c-2.91-2.85-6.53-6.39-8.92-11.22c-10.19-20.48-21.34-50.64-16.55-77.93l11.23-49.33l-0.46,0.09
			L162.42,232.99z"/>
	</g>
	<g class="st1">
		<path class="st3" d="M209.67,210.1c0,0,54.46,26.83,69.28,81.07c0,0,15.37,50.23-1.31,53.64c-16.69,3.4-6.34-9.33-8.87-22.48
			c-2.54-13.16-10.51-49.01-32.72-69.53l-44.02-36.73l8.64-3.66L209.67,210.1z"/>
	</g>
	<g class="st1">
		<path class="st2" d="M273.04,349.93c-2.6,0-5.14-0.58-7.08-2.41c-3.47-3.28-2.78-8.04-2.04-13.07c0.51-3.51,1.09-7.49,0.37-11.26
			c-4.08-21.14-12.82-49.94-31.34-67.04l-43.85-36.58c-1.22-1.02-1.83-2.59-1.59-4.17c0.23-1.57,1.27-2.91,2.73-3.53l8.64-3.66
			l9.66-2.53c1.06-0.27,2.17-0.14,3.15,0.33c2.3,1.13,56.47,28.39,71.66,83.97c1.19,3.87,11.7,39.4,3.45,53.27
			c-1.92,3.24-4.77,5.33-8.24,6.03C276.83,349.63,274.92,349.93,273.04,349.93z M200.64,217.32l38.32,31.97
			c20.51,18.94,29.95,49.68,34.28,72.17c1.01,5.28,0.29,10.28-0.3,14.31c-0.26,1.79-0.61,4.17-0.49,5.22
			c0.29-0.15,1.58-0.1,4.27-0.65c0.66-0.14,1.45-0.45,2.22-1.76c4.67-7.85-0.2-32.43-4.37-46.07
			c-12.79-46.82-56.92-72.88-65.49-77.55L200.64,217.32z"/>
	</g>
	<g class="st1">
		<path class="st3" d="M175.24,179.13c1.2,3.55-0.71,7.41-4.26,8.61c-3.55,1.2-7.41-0.71-8.61-4.26c-1.19-3.55,0.71-7.41,4.26-8.61
			C170.19,173.67,174.04,175.58,175.24,179.13"/>
	</g>
	<g class="st1">
		<path class="st3" d="M271.61,208.12c0,0-31.99,25.95-40.13,60.05c-8.15,34.09-2.72,70.6,8.45,81.78c0,0,2.11,1.8,7.55-3.63
			c5.43-5.43,0-14.79,0-18.11c0-3.32-7.25-28.67,0-52.2c7.24-23.53,33.49-52.8,35.91-57.93c2.4-5.13,2.4-10.57,2.4-10.57
			L271.61,208.12z"/>
	</g>
	<g class="st1">
		<path class="st2" d="M240.97,354.82c-2.07,0-3.42-0.9-4.01-1.4c-13.48-13.47-17.91-52.89-9.93-86.31
			c8.41-35.2,40.35-61.44,41.7-62.53c0.76-0.62,1.7-0.98,2.68-1.02l14.17-0.62c1.27-0.03,2.45,0.4,3.36,1.27
			c0.9,0.85,1.41,2.05,1.41,3.29c0,0.27-0.03,6.53-2.84,12.51c-0.83,1.76-2.83,4.43-6.91,9.79c-8.88,11.67-23.73,31.21-28.76,47.55
			c-5.58,18.09-2.01,37.69-0.49,46.06c0.44,2.4,0.69,4.07,0.69,4.81c0.03,0.35,0.41,1.63,0.69,2.56c1.44,4.83,3.84,12.91-2.03,18.77
			C246.56,353.68,243.31,354.82,240.97,354.82z M273.37,212.61c-5.6,4.88-30.62,27.98-37.46,56.62
			c-7.39,30.92-3.03,64.36,5.88,75.94c0.57-0.37,1.38-1.01,2.45-2.08c1.87-1.86,0.99-5.5-0.27-9.71c-0.57-1.92-1.07-3.59-1.07-5.17
			c-0.03-0.51-0.26-1.63-0.54-3.17c-1.64-9.03-5.49-30.16,0.75-50.38c5.51-17.89,20.98-38.24,30.22-50.39
			c2.55-3.35,5.44-7.14,5.92-8.14c0.6-1.29,1.02-2.61,1.31-3.83L273.37,212.61z"/>
	</g>
	<g class="st1">
		<path class="st3" d="M311.78,207.55c0,0,31.26,26.82,38.46,61.13c7.21,34.32,0.78,70.67-10.7,81.52c0,0-2.16,1.75-7.44-3.84
			c-5.28-5.58,0.41-14.78,0.51-18.1c0.08-3.32,8.02-28.46,1.43-52.18c-6.6-23.73-32.03-53.71-34.3-58.9
			c-2.28-5.2-2.13-10.62-2.13-10.62L311.78,207.55z"/>
	</g>
	<g class="st1">
		<path class="st2" d="M338.49,355.01c-2.38,0-5.64-1.2-9.71-5.51c-5.72-6.04-3.08-14.05-1.5-18.85c0.3-0.92,0.72-2.17,0.76-2.59
			c0.02-0.66,0.31-2.34,0.82-4.74c1.74-8.32,5.83-27.8,0.78-46.01c-4.59-16.49-18.89-36.41-27.44-48.32
			c-3.94-5.49-5.87-8.2-6.64-9.98c-2.65-6.05-2.52-12.3-2.51-12.57c0.03-1.25,0.57-2.42,1.49-3.25c0.92-0.84,2.08-1.33,3.39-1.17
			l14.17,0.99c0.98,0.06,1.91,0.44,2.65,1.09c1.33,1.13,32.52,28.23,39.95,63.65c7.07,33.65,1.56,72.92-12.03,85.78
			C341.96,354.11,340.55,355.01,338.49,355.01z M302.71,211.5c0.26,1.22,0.64,2.56,1.21,3.86c0.45,1.02,3.24,4.9,5.7,8.32
			c8.9,12.4,23.8,33.15,28.81,51.19c5.65,20.35,1.25,41.37-0.63,50.33c-0.32,1.55-0.58,2.68-0.63,3.27
			c-0.05,1.5-0.59,3.15-1.21,5.05c-1.37,4.17-2.36,7.78-0.54,9.71c1.07,1.13,1.87,1.79,2.43,2.17c9.12-10.89,14.52-44.44,7.93-75.78
			c-6.04-28.8-30.41-52.58-35.87-57.62L302.71,211.5z"/>
	</g>
	<g class="st1">
		<path class="st2" d="M271.61,208.12c0,0,4.23-11.17,2.41-19.77c-1.81-8.6-1.67-12.97,3.17-15.24v-3.01l-4.68-2.56l-1.67-23.84
			l6.95-60.65c0,0,0.6-3.62,2.11,0c1.52,3.62,8.76,52.36,8.76,52.36l0.53,0.53c0,0-5.51,3.54-5.51,9.88c0,0-1.36,8.91,8.6,10.87
			l1.05-21.88l6.95-53.41c0,0,1.36-3.01,2.41,2.42c1.05,5.43,6.64,59.44,6.64,59.44v23.69l-3.77,3.76v3.48c0,0,5.88-0.76,3.63,12.52
			c0,0-2.34,13.96,2.6,20.86l-14.16-0.99l-3.84-20.17h-5.28l-2.72,21.12L271.61,208.12z"/>
	</g>
	<g class="st1">
		<path class="st3" d="M297.26,173.56c0,3.25-2.63,5.88-5.88,5.88c-3.26,0-5.89-2.63-5.89-5.88c0-3.25,2.63-5.88,5.89-5.88
			C294.62,167.68,297.26,170.32,297.26,173.56"/>
	</g>
	<g class="st1">
		<path class="st2" d="M144.87,451c-1.98,0-3.79-1.3-4.37-3.27l-55.5-188.84l-5.67,1.14c-2.24,0.44-4.52-0.86-5.23-3.07
			l-15.86-48.73l-39.85,3.46c-1.64,0.13-3.12-0.56-4.06-1.83l-6.88-9.26c-0.9-1.21-1.14-2.79-0.64-4.22
			c0.49-1.43,1.67-2.52,3.13-2.9l48.22-12.88l-4.97-14.07L5.83,180.21c-1.53,0.45-3.19,0.06-4.36-1.03c-1.17-1.08-1.7-2.7-1.38-4.26
			l2.03-10.04c0.27-1.36,1.15-2.51,2.37-3.15l44.41-22.98c0.32-0.16,0.66-0.29,1.01-0.38l28.95-7.13c1.2-0.27,2.45-0.09,3.5,0.57
			c1.04,0.65,1.78,1.7,2.04,2.9l0.6,2.73l28.58-5.31c2.2-0.41,4.34,0.82,5.11,2.89c0.77,2.08-0.06,4.42-1.97,5.54L88.98,156.8
			l0.49,2.28l35.29-5.09c2.27-0.31,4.35,1.03,5.02,3.18c0.66,2.15-0.34,4.46-2.37,5.44l-29.44,14.32l17.71,68.25
			c0.55,2.1-0.46,4.29-2.41,5.24l-3.77,1.84l55.59,189.14c0.35,1.2,0.2,2.49-0.43,3.58c-0.63,1.08-1.68,1.85-2.9,2.14l-15.84,3.75
			C145.57,450.97,145.22,451,144.87,451z M88.2,249.03c1.99,0,3.79,1.3,4.37,3.27l55.46,188.7l6.94-1.65L99.66,251.14
			c-0.63-2.13,0.38-4.42,2.38-5.38l3.88-1.89l-16.35-62.98l-0.47,0.04c-2.12,0.23-4.21-1.2-4.8-3.33c-0.59-2.12,0.42-4.35,2.4-5.32
			l10.42-5.06l-10.53,1.52c-2.42,0.31-4.61-1.2-5.11-3.55l-2.11-9.67c-0.42-1.92,0.45-3.91,2.15-4.91l8.07-4.72l-7.26,1.35
			c-2.42,0.46-4.77-1.11-5.29-3.52l-0.54-2.48l-23.87,5.89l-42.09,22.24l44.25-12.79c2.33-0.67,4.77,0.59,5.57,2.86l8.05,22.79
			c0.43,1.2,0.33,2.52-0.27,3.65c-0.59,1.12-1.63,1.96-2.86,2.27l-46.5,12.41l1.35,1.82l40.92-3.55c2.18-0.15,4.08,1.12,4.73,3.14
			l15.72,48.32l5.78-1.16C87.6,249.05,87.9,249.03,88.2,249.03z"/>
	</g>
	<g class="st1">
		<polygon class="st2" points="71.49,234.21 105.45,223.94 93.01,176 111.14,165.45 111.78,160.48 85.91,164.22 85.31,153.37 
			103.3,143.13 100.3,139.24 81.49,142.73 79.95,135.67 51,142.8 6.59,165.79 4.56,175.82 56.05,160.93 64.11,183.72 11.11,197.87 
			17.99,207.13 61.45,203.37 		"/>
	</g>
</g>
<g id="Calque_5">
	<g>
		<g>
			<path class="st2" d="M470.02,456.94l-0.65,9.95c0,0-19.84,18.58-41.51,18.58c0,0-16.11,0.62-8.05-13.62
				c0,0,16.25-11.13,16.25-16.25c0,0,1.21-8.53-5.1-6.05c0,0-17.02,17.34-39.01,17.34c0,0-15.33-2.94-2.48-15.79
				c0,0,9.6-5.41,11.16-12.22"/>
			<path class="st2" d="M427.4,491.12c-2.12,0-10.23-0.43-13.88-6.42c-2.58-4.23-2.12-9.49,1.36-15.64
				c0.43-0.75,1.02-1.39,1.73-1.88c1.39-0.95,2.77-1.96,4.1-2.98c-7.51,4.34-17.5,8.34-28.78,8.34c-0.36,0-0.71-0.03-1.06-0.1
				c-0.97-0.18-9.53-2.02-11.73-9.17c-1.54-5,0.59-10.44,6.31-16.17c0.36-0.36,0.78-0.68,1.22-0.93c2.99-1.7,7.75-5.61,8.43-8.56
				l11.02,2.52c-1.82,7.98-10.4,13.77-13.15,15.45c-2.91,3.05-3,4.47-3,4.49c0.22,0.22,1.46,0.84,2.6,1.16
				c19.09-0.33,34.19-15.49,34.34-15.64c0.55-0.57,1.23-1.01,1.97-1.3c4.75-1.87,7.88-0.22,9.32,0.92c4,3.16,3.73,8.82,3.48,10.9
				c-0.37,5.13-6.26,11.72-17.54,19.61c-1.12,2.28-0.94,3.19-0.94,3.2c0.42,0.42,2.67,0.97,4.46,0.91
				c15.98,0,31.29-11.57,36.21-15.65l0.5-7.6l11.28,0.74l-0.65,9.95c-0.09,1.43-0.73,2.77-1.78,3.76
				c-0.88,0.82-21.74,20.11-45.37,20.11C427.77,491.12,427.62,491.12,427.4,491.12z"/>
		</g>
		<g>
			<path class="st2" d="M427.4,489.7c-2.01,0-9.42-0.39-12.68-5.74c-2.29-3.76-1.82-8.54,1.38-14.21c0.32-0.56,0.76-1.05,1.29-1.41
				c7-4.8,13.67-10.81,14.41-12.98c0.01-0.15,0.02-0.31,0.05-0.46c0.02-0.14,0.03-0.29,0.04-0.44
				c-5.42,4.79-20.79,16.67-39.96,16.67c-0.27,0-0.54-0.02-0.8-0.07c-0.88-0.17-8.68-1.84-10.64-8.2
				c-1.37-4.46,0.63-9.43,5.96-14.76c0.27-0.27,0.58-0.51,0.92-0.7c2.97-1.69,7.91-5.57,9-9.07l-0.58-133.16
				c-15.32-6.9-16.37-40.35-16.44-44.4l-0.64-85.02c0-0.36,0.04-0.72,0.13-1.07c0.19-0.77,4.66-17.82,21.2-22.91l0.04-1.94
				c-2.04-0.82-3.82-2.02-4.86-4c-1.74-3.31-0.51-6.63,1.19-11.22c0.6-1.61,1.29-3.49,2-5.71c0.17-0.85-0.67-3.68-1.74-5.79
				c-0.14-0.28-0.26-0.59-0.33-0.89c-1.55-6.15-1.88-16.23,0.43-23.92c0.2-5.03,2.63-9.94,6.88-13.92c7.5-7,19.6-10.31,34.06-9.33
				c28,1.91,29.64,26.41,30.43,38.18c0.86,13.02-6.32,30.87-6.81,32.08c-0.05,0.22-0.09,0.5-0.14,0.76c-0.1,0.56-0.19,1.1-0.33,1.6
				c-0.06,4.39,1.07,9.88,2.13,12.95c9.57,4.6,33.19,19.58,33.19,55.01v85.46c0,0.8-0.23,1.59-0.65,2.26
				c-0.2,0.31-1.74,2.67-4.73,4.79l-0.01,19.26c0,0.12-0.01,0.25-0.02,0.37L479.9,451.46c-0.04,0.47-0.16,0.93-0.35,1.36
				c-0.18,0.4-1.67,3.55-5.44,6.44l-0.52,7.9c-0.07,1.08-0.55,2.08-1.33,2.82c-0.86,0.81-21.32,19.72-44.41,19.72
				C427.77,489.7,427.61,489.7,427.4,489.7z M423.04,474.74c-1.34,2.62-1.44,4.21-1.08,4.8c0.68,1.12,3.83,1.74,5.75,1.68
				c16.94,0,33.06-12.58,37.54-16.37l0.54-8.2c0.09-1.38,0.84-2.62,2.02-3.34c2.09-1.28,3.24-2.74,3.73-3.51l10.76-122.57
				l0.01-21.44c0-1.58,0.88-3.03,2.28-3.76c1.44-0.75,2.49-1.73,3.11-2.4v-84c0-32.48-22.74-44.93-29.71-47.98
				c-0.94-0.41-1.71-1.16-2.14-2.09c-1.62-3.47-3.72-11.95-3.44-18.87c0.02-0.5,0.13-0.99,0.32-1.45c0.04-0.18,0.07-0.39,0.1-0.61
				c0.17-0.97,0.31-1.83,0.68-2.63c0.59-1.48,6.88-17.48,6.17-28.22c-1.02-15.22-3.51-28.98-22.55-30.28
				c-11.92-0.81-22.01,1.77-27.69,7.07c-2.71,2.53-4.21,5.52-4.21,8.41c0,0.44-0.07,0.89-0.21,1.31
				c-1.88,5.78-1.76,14.28-0.57,19.42c1.06,2.18,3.35,7.63,2.04,11.75c-0.75,2.36-1.49,4.37-2.13,6.08
				c-0.55,1.5-1.22,3.29-1.43,4.27c0.41,0.19,1.16,0.47,2.5,0.82c1.91,0.49,3.23,2.23,3.19,4.2l-0.18,8.35
				c-0.04,2.01-1.48,3.71-3.46,4.08c-12.67,2.38-17,14.42-17.79,17.01l0.63,84.37c0.21,11.48,3.62,35.74,12.85,37.2
				c2.05,0.32,3.57,2.09,3.58,4.17l0.6,136.83c0,0.33-0.03,0.65-0.11,0.97c-1.74,7.61-10.23,13.19-12.67,14.65
				c-3.15,3.26-3.68,5.22-3.48,5.88c0.28,0.92,2.31,1.9,3.8,2.29c19.76-0.24,35.37-15.91,35.52-16.07c0.42-0.43,0.92-0.76,1.47-0.98
				c5.49-2.14,8.4,0.97,9.17,1.98c1.58,2.09,2.1,5.62,1.71,8.16C440.11,461.6,431.03,469.19,423.04,474.74z M461.11,145.78
				c0,0,0,0.01-0.01,0.01C461.1,145.79,461.11,145.79,461.11,145.78z M453.34,144.22L453.34,144.22L453.34,144.22z M453.36,144.21
				C453.36,144.21,453.35,144.21,453.36,144.21C453.35,144.21,453.36,144.21,453.36,144.21z"/>
		</g>
		<g>
			<path class="st2" d="M459.84,163.32c0,0,33.44,10.53,33.44,52.33s0,85.46,0,85.46s-5.27,8.37-16.1,5.89c0,0-6.35-0.77-13.01-7.43
				v-35.3c0,0-3.87-1.85-3.87,3.87c0,5.72,0,32.97,0,32.97s-18.73,6.5-28.33-3.09v-87.63c0,0-0.62-10.22,22.6-33.44
				C454.58,176.95,459.84,170.44,459.84,163.32z"/>
			<path class="st2" d="M481.18,311.7c-1.48,0-3.07-0.16-4.77-0.54c-1.38-0.22-6.94-1.37-13.09-6.62l-1.63,0.57
				c-0.87,0.3-21.37,7.24-32.72-4.1l-1.24-1.24v-89.38c-0.12-1.76,0.45-12.99,23.66-36.25c1.53-2,4.21-6.6,4.21-10.82v-5.78
				l5.51,1.74c0.36,0.11,36.4,11.98,36.4,56.37v86.68l-0.65,1.04C496.63,303.75,491.48,311.7,481.18,311.7z M468.41,297.73
				c4.91,4.36,9.14,5.03,9.33,5.06l0.38,0.07c5.93,1.36,9.53-1.66,10.91-3.19v-84.02c0-29.26-17.32-41.85-25.87-46.27
				c-0.96,3.3-2.5,6.11-3.69,7.97l0.23,0.47l-2.13,2.13c-20.79,20.79-21.36,30.3-21.36,30.39l0,85.75
				c5.78,4.31,15.16,2.89,19.85,1.79v-29.74c0-4.4,1.82-6.46,3.35-7.42c2.27-1.44,4.9-1.08,6.6-0.27l2.41,1.15V297.73z
				 M464.64,267.11C464.64,267.11,464.64,267.11,464.64,267.11S464.64,267.11,464.64,267.11z"/>
		</g>
		<g>
			<path class="st2" d="M421.18,168.72c0,0-9.64,13.17-9.64,25.25s0,95.06,0,95.06s-15.02-7.43-15.02-15.02v-6.35
				c0,0-8.28,0.07-12.23-8.05v-83.91c0,0,0.51-14.02,22.82-22.01C407.11,153.7,405.54,168.03,421.18,168.72z"/>
			<path class="st2" d="M412.95,291.31l-2.04-1.01c-1.62-0.8-15.8-8.06-15.8-16.28v-5.04c-2.75-0.36-8.78-1.93-12.09-8.74
				l-0.14-0.62v-83.91c0.02-0.66,0.81-15.02,23.49-23.25c0.19-0.11,0.43-0.18,0.74-0.18l0.25,1.44l1.15,0.13
				c-0.01,0.06-0.54,5.48,2.81,9.38c2.16,2.51,5.49,3.88,9.91,4.07l2.63,0.12l-1.56,2.13c-0.09,0.13-9.36,12.95-9.36,24.42V291.31z
				 M397.94,266.24v7.78c0,4.71,7.54,10,12.19,12.66v-92.7c0-9.69,5.81-19.84,8.54-24.07c-9.11-1.35-12.68-7.82-12.99-14.15
				c-19.29,7.65-19.97,19.88-19.97,20.01v83.53c3.6,7.01,10.83,6.96,10.8,6.97L397.94,266.24z"/>
		</g>
		<g>
			<path class="st2" d="M450.86,460.74c-0.12,0-0.24-0.01-0.36-0.02c-0.7-0.06-15.76-1.48-21.05-11.96
				c-17.35,4.57-30.31-6.68-30.9-7.2l5.63-6.34l-2.82,3.17l2.8-3.18c0.45,0.39,10.57,9.04,23.88,5.14v-102l-6.35-6.35
				c-1.66-1.66-1.66-4.34,0-6c1.66-1.66,4.34-1.65,6,0l7.59,7.59c0,0,0,0,0,0c0,0,0,0,0,0s0,0,0,0c0,0-0.01,0.01,0.01,0c0,0,0,0,0,0
				c0,0,0,0,0,0c0,0,0,0,0,0s0,0,0,0c0,0,0,0,0,0l0,0c0,0,0,0,0,0l0,0l0,0c0,0,0,0,0,0l0,0c0,0,0,0,0,0c0,0,0,0,0,0l0,0l0,0
				c0,0,0,0,0,0l0,0c0.01,0.01,0.01,0.01,0.01,0.01c0,0,0,0,0,0c0,0,0,0,0,0c0,0,0,0,0,0c0,0,0,0,0,0.01c0,0,0,0,0,0c0,0,0,0,0,0
				c0,0,0,0,0,0c0,0,0,0,0,0v0c0,0,0,0,0,0h0c0,0,0,0,0,0.01l0,0c0,0.01,0.01,0.01,0.01,0.01l0,0l0,0c0,0,0,0,0.01,0.01l0,0
				c0,0,0.01,0.01,0.01,0.01l0,0v0c0,0,0,0,0.01,0l0,0c0,0,0,0,0,0.01c0,0,0.01,0,0.01,0.01l0,0c0,0,0,0,0.01,0c0,0,0,0,0,0l0,0l0,0
				c0,0,0,0,0.01,0.01l0,0c0,0,0,0,0,0.01l0,0c0,0,0,0,0.01,0v0c0,0,0,0,0.01,0l0,0c0.55,0.62,0.91,1.38,1.04,2.19l0,0
				c0,0.01,0,0.01,0,0.01h0c0,0,0,0,0,0.01l0,0c0,0.01,0,0.02,0.01,0.04l0,0c0.01,0.03,0.01,0.06,0.01,0.1l0,0c0,0,0,0.01,0,0.01
				c0,0,0,0,0,0s0,0,0,0.01l0,0c0,0,0,0,0,0.01l0,0c0,0.01,0,0.03,0.01,0.04c0,0,0,0,0,0c0,0,0,0,0,0.01l0,0c0,0,0,0,0,0.01l0,0
				c0,0,0,0.01,0,0.01s0,0,0,0c0,0.01,0,0.01,0,0.02c0,0,0,0,0,0c0,0.01,0,0.01,0,0.02l0,0c0,0,0,0,0,0c0,0,0,0,0,0.01l0,0
				c0,0,0,0.01,0,0.01l0,0c0,0.01,0,0.01,0,0.02v0c0,0,0,0,0,0.01l0,0c0,0,0,0,0,0.01v0c0,0,0,0,0,0c0,0,0,0,0,0c0,0,0,0,0,0.01l0,0
				c0,0,0,0,0,0.01c0,0,0,0,0,0v0c0,0,0,0,0,0c0,0,0,0,0,0.01l0,0c0,0.01,0,0.01,0,0.01c0,0,0,0,0,0.01l0,0c0,0.01,0,0.01,0,0.01
				c0,0,0,0,0,0v0v0c0,0,0,0,0,0.01l0,0c0,0,0,0,0,0.01c0,0,0,0,0,0c0,0,0,0,0,0v0l0,0v0c0,0,0,0,0,0c0,0,0,0,0,0.01l0,0
				c0,0,0,0,0,0.01l0,0c0,0,0,0.01,0,0.01v0c0,0.01,0,0.01,0,0.02v0v0c0,0.02,0,0.04,0,0.06l0,0c0,0.01,0,0.01,0,0.02
				c0,0,0,0.01,0,0.01l0,0c0,0.01,0,0.01,0,0.02c0,0,0,0.01,0,0.01c0,0.01,0,0.01,0,0.01c0,0.01,0,0.02,0,0.04c0,0,0,0,0,0l0,0
				c0,0.01,0,0.02,0,0.03v107.12c2.13,6.8,13.15,8.37,14.56,8.54c13.39-0.05,20.79-4.69,20.87-4.73l4.64,7.1
				C476.21,454.88,467.11,460.74,450.86,460.74z"/>
		</g>
		<g>
			<path class="st2" d="M400.7,306.22c-18.79-2.96-19.37-40.22-19.37-44.46l-0.01-11.67l7.5,8.94c3.21,3.83,8.09,4.41,8.13,4.42
				l3.77,0.42l0.04,9.45c2.1,5.66,9.78,10.49,12.66,11.9l0.63,0.31l0.49,0.49c6.75,6.75,17.65,7.74,17.75,7.75l-0.63,8.46
				c-0.56-0.04-13.57-1.11-22.62-9.73c-2.96-1.56-13.69-7.78-16.57-17.27l-0.18-0.6v-3.62c-0.63-0.2-1.31-0.45-2.01-0.75
				c1.13,11.68,4.54,26.44,11.75,27.58L400.7,306.22z"/>
		</g>
		<g>
			<path class="st2" d="M458.73,143.74c0,0,7.34-17.86,6.52-30.22c-0.83-12.36-2.33-32.58-26.49-34.23
				c-24.16-1.64-36.71,10.21-36.21,17.77c0.5,7.57,9.99,11.23,20.5,8.36c10.51-2.88,18.33-0.7,18.73,5.32
				c0.4,6.02,1.37,6.58,0.63,9.42c-0.74,2.84-1.92,8.35-0.38,8.25c1.54-0.1,4.27-1.06,4.14-3.07c-0.13-2.01,5.36-7.96,6.94-5.27
				c1.58,2.69,4.02,4.39,2.08,10.26c-1.93,5.87-2.03,4.48-1.79,8.03C453.65,141.91,455.42,149.87,458.73,143.74z"/>
			<path class="st2" d="M456.46,147.41c-0.18,0-0.36-0.02-0.54-0.06c-3.28-0.71-3.87-8.05-3.93-8.89c-0.18-2.75-0.16-2.94,0.65-5.11
				c0.28-0.76,0.68-1.83,1.21-3.46c1.38-4.18,0.32-5.72-1.02-7.67c-0.32-0.47-0.64-0.94-0.93-1.44c0,0,0,0,0,0
				c-0.07,0-0.64,0.13-1.58,0.9c-1.61,1.31-2.7,3.09-2.73,3.59c0.06,0.9-0.24,1.79-0.89,2.53c-1.1,1.26-3.08,1.92-4.56,2.02
				c-0.64,0.06-1.22-0.21-1.63-0.7c-0.43-0.52-1.43-1.73,0.55-9.31c0.35-1.36,0.24-2.02-0.02-3.6c-0.2-1.18-0.48-2.8-0.65-5.38
				c-0.1-1.49-0.78-2.69-2.01-3.57c-2.9-2.06-8.48-2.25-14.93-0.48c-6.86,1.87-13.54,1.16-17.85-1.91
				c-2.69-1.92-4.23-4.59-4.43-7.72c-0.21-3.12,1.46-6.7,4.57-9.8c3.3-3.3,13.12-10.83,33.14-9.47
				c25.54,1.74,27.01,23.73,27.8,35.55c0.83,12.54-6.32,30.11-6.62,30.85l-0.07,0.14C459.56,145.19,458.36,147.41,456.46,147.41z
				 M451.95,117.97c1,0,1.86,0.48,2.38,1.38c0.26,0.44,0.55,0.85,0.83,1.27c1.5,2.18,3.2,4.65,1.37,10.15
				c-0.55,1.68-0.96,2.77-1.25,3.56c-0.63,1.69-0.63,1.69-0.47,3.94c0.19,2.85,1.08,5.74,1.71,6.29c0.03-0.11,0.39-0.44,0.93-1.42
				c0.49-1.22,7.15-18.02,6.39-29.52c-0.78-11.72-2.09-31.34-25.17-32.91c-13.07-0.9-24.64,2.35-30.96,8.65
				c-2.53,2.53-3.9,5.31-3.75,7.62c0.15,2.26,1.28,4.2,3.25,5.61c3.56,2.54,9.49,3.11,15.47,1.48c7.37-2.02,13.68-1.69,17.32,0.9
				c1.93,1.38,3.04,3.34,3.2,5.69c0.16,2.43,0.41,3.91,0.62,5.09c0.29,1.7,0.48,2.83-0.02,4.78c-0.85,3.26-1.11,5.38-1.1,6.37
				c0.73-0.17,1.49-0.51,1.87-0.94c0.19-0.22,0.2-0.38,0.2-0.5c-0.15-2.23,3.4-6.46,6.12-7.3
				C451.25,118.03,451.61,117.97,451.95,117.97z"/>
		</g>
	</g>
	<path class="st3" d="M491.99,289.12c0,0,4.06,41.31,2.39,49.89c-1.68,8.59-6.05,11.84-9.6,1.7c-3.55-10.14-7.95-25.97-9.36-18.76
		c-1.41,7.21-19.68-7.13-4.77-29.58C470.64,292.38,478.09,296.39,491.99,289.12z"/>
	<path class="st2" d="M489.54,351.25c-3.7,0-6.65-3.07-8.77-9.14c-0.65-1.86-1.33-3.92-2.02-5.98c-0.85-2.57-1.95-5.89-2.93-8.53
		c-0.36,0.15-0.75,0.27-1.15,0.35c-3.52,0.72-7.51-1.52-10.41-5.83c-2.18-3.24-8.41-15.12,2.85-32.08c1.13-1.7,3.3-2.36,5.19-1.55
		c0.09,0.04,0.18,0.08,0.27,0.12c0.43,0.19,6.28,2.6,17.45-3.23c1.25-0.66,2.74-0.64,3.98,0.03c1.24,0.67,2.07,1.91,2.21,3.31
		c0.42,4.29,4.07,42.18,2.33,51.12c-1.86,9.53-6.12,11.23-8.5,11.41C489.87,351.24,489.7,351.25,489.54,351.25z M476.5,315.89
		c4.48,0,6.23,5.28,10.3,17.57c0.67,2.02,1.33,4.03,1.97,5.85c0.24,0.7,0.47,1.27,0.68,1.74c0.26-0.73,0.52-1.67,0.75-2.85
		c1.01-5.19-0.44-26.61-1.9-42.8c-6.84,2.55-12.19,2.59-15.74,1.94c-4.66,8.37-3.7,14.41-2.6,17.4c0.63,1.74,1.47,2.97,2.2,3.76
		c1.15-2.06,2.86-2.53,3.95-2.6C476.25,315.9,476.38,315.89,476.5,315.89z"/>
	<g>
		<path class="st2" d="M111.34,465.81l0.65,9.95c0,0,19.84,18.58,41.51,18.58c0,0,16.1,0.62,8.05-13.62c0,0-16.25-11.13-16.25-16.25
			c0,0-1.21-8.53,5.1-6.05c0,0,17.03,17.34,39.01,17.34c0,0,15.33-2.94,2.48-15.79c0,0-9.6-5.41-11.16-12.22"/>
		<path class="st2" d="M153.82,500c-0.25,0-0.43-0.01-0.54-0.01h-0.01c-23.42,0-44.28-19.28-45.15-20.1
			c-1.05-0.98-1.68-2.33-1.78-3.76l-0.65-9.95l11.28-0.73l0.49,7.6c4.9,4.08,20.2,15.65,36.03,15.65c1.92,0.07,4.2-0.48,4.7-1.02
			l0,0c-0.03,0,0.07-0.92-0.99-3.09c-11.28-7.88-17.17-14.47-17.54-19.61c-0.25-2.08-0.52-7.74,3.49-10.9
			c1.44-1.14,4.58-2.77,9.32-0.92c0.74,0.29,1.41,0.73,1.96,1.3c0.15,0.15,15.38,15.31,34.35,15.64c1.1-0.31,2.35-0.94,2.65-1.37
			l0,0c-0.07,0-0.33-1.42-3.06-4.28c-2.75-1.68-11.33-7.47-13.15-15.45l11.02-2.52c0.75,3.28,6.1,7.25,8.42,8.56
			c0.45,0.25,0.86,0.56,1.22,0.93c5.73,5.72,7.85,11.16,6.32,16.17c-2.2,7.15-10.76,8.99-11.73,9.17c-0.35,0.07-0.71,0.1-1.06,0.1
			c-11.26,0-21.24-3.99-28.75-8.32c1.33,1.02,2.71,2.02,4.07,2.96c0.71,0.49,1.3,1.13,1.73,1.88c3.48,6.16,3.94,11.42,1.36,15.65
			C164.19,499.55,156.14,500,153.82,500z"/>
	</g>
	<g>
		<path class="st2" d="M153.86,498.58c-0.24,0-0.41-0.01-0.51-0.01c0,0,0,0-0.01,0c-22.92,0-43.38-18.92-44.24-19.72
			c-0.79-0.74-1.26-1.74-1.33-2.82l-0.51-7.9c-3.77-2.89-5.26-6.04-5.44-6.43c-0.19-0.43-0.31-0.89-0.35-1.36L90.59,336.67
			c-0.01-0.12-0.02-0.25-0.02-0.37l-0.01-19.27c-2.99-2.13-4.54-4.48-4.73-4.79c-0.43-0.68-0.65-1.46-0.65-2.26v-85.46
			c0-35.44,23.61-50.41,33.19-55.01c1.06-3.07,2.19-8.57,2.13-12.96c-0.14-0.5-0.23-1.04-0.33-1.6c-0.04-0.27-0.09-0.55-0.14-0.77
			c-0.52-1.26-7.68-19.08-6.81-32.07c0.78-11.77,2.42-36.27,30.43-38.18c14.46-0.98,26.56,2.33,34.06,9.33
			c4.25,3.97,6.68,8.89,6.88,13.92c2.31,7.69,1.99,17.76,0.44,23.92c-0.08,0.31-0.19,0.61-0.34,0.9c-1.07,2.1-1.91,4.94-1.73,5.82
			c0.69,2.18,1.39,4.06,1.98,5.67c1.7,4.59,2.93,7.91,1.2,11.22c-1.04,1.98-2.82,3.17-4.86,4l0.04,1.94
			c16.54,5.09,21.01,22.13,21.2,22.9c0.1,0.41,0.14,0.83,0.12,1.25l-4.44,84.98c-0.1,2-1.6,3.66-3.58,3.97
			c-0.87,0.17-9.04,2.11-9.04,16l-0.59,157.44c1.15,3.67,6.49,7.66,9,9.08c0.33,0.19,0.64,0.42,0.92,0.7
			c5.33,5.33,7.34,10.29,5.96,14.75c-1.95,6.37-9.76,8.03-10.64,8.2c-0.26,0.05-0.53,0.07-0.8,0.07
			c-19.16,0-34.54-11.87-39.96-16.67c0.01,0.17,0.02,0.33,0.04,0.47c0.02,0.14,0.04,0.28,0.04,0.43c0.75,2.17,7.42,8.18,14.41,12.98
			c0.53,0.36,0.98,0.85,1.29,1.41c3.21,5.67,3.67,10.46,1.38,14.22C163.38,498.18,156.01,498.58,153.86,498.58z M116.11,473.73
			c4.48,3.8,20.59,16.37,37.4,16.37c2.11,0.07,5.21-0.55,5.89-1.67c0.36-0.59,0.25-2.19-1.08-4.8
			c-8.04-5.59-17.19-13.24-17.24-19.11c-0.37-2.62,0.33-5.95,1.42-7.63c0.74-1.15,3.62-4.7,9.46-2.41c0.55,0.22,1.05,0.55,1.47,0.97
			c0.25,0.25,15.92,15.83,35.53,16.07c1.47-0.38,3.52-1.37,3.8-2.29c0.2-0.66-0.33-2.63-3.48-5.88
			c-2.43-1.46-10.92-7.04-12.67-14.65c-0.07-0.32-0.11-0.64-0.11-0.96l0.6-157.99c0-14.16,7.13-20.89,12.79-23.34l4.25-81.33
			c-0.85-2.74-5.22-14.56-17.78-16.92c-1.97-0.37-3.41-2.07-3.46-4.08l-0.17-8.35c-0.04-1.97,1.28-3.7,3.19-4.19
			c1.34-0.34,2.09-0.63,2.5-0.82c-0.21-0.98-0.87-2.78-1.43-4.28c-0.63-1.71-1.37-3.72-2.13-6.08c-1.31-4.12,0.98-9.57,2.04-11.75
			c1.19-5.14,1.31-13.64-0.58-19.41c-0.14-0.42-0.21-0.87-0.21-1.31c0-2.89-1.49-5.88-4.21-8.41c-5.68-5.3-15.75-7.88-27.69-7.07
			c-19.05,1.3-21.53,15.07-22.54,30.28c-0.72,10.78,5.58,26.77,6.17,28.22c0.36,0.8,0.51,1.65,0.68,2.62
			c0.04,0.22,0.07,0.43,0.11,0.62c0.19,0.45,0.3,0.94,0.32,1.44c0.28,6.91-1.81,15.4-3.44,18.87c-0.44,0.93-1.2,1.68-2.14,2.09
			c-6.97,3.04-29.71,15.49-29.71,47.98v83.99c0.62,0.67,1.66,1.65,3.11,2.4c1.4,0.73,2.28,2.18,2.28,3.76l0.01,21.44l10.77,122.58
			c0.48,0.73,1.63,2.21,3.73,3.49c1.18,0.72,1.93,1.97,2.02,3.34L116.11,473.73z M149.52,464.16L149.52,464.16z M120.24,154.65
			c0,0,0,0.01,0.01,0.01C120.25,154.65,120.24,154.65,120.24,154.65z M120,154.08L120,154.08L120,154.08z M128.02,153.11
			C128.02,153.12,128.02,153.12,128.02,153.11C128.02,153.12,128.02,153.12,128.02,153.11z M128.01,153.1
			C128.01,153.1,128.02,153.11,128.01,153.1C128.02,153.11,128.01,153.1,128.01,153.1z"/>
	</g>
	<g>
		<path class="st2" d="M130.5,469.63c-16.25,0-25.35-5.87-25.73-6.11l4.66-7.08c0.05,0.03,7.46,4.66,20.85,4.72
			c1.37-0.17,12.43-1.74,14.56-8.55V345.48c0-0.01,0-0.02,0-0.02s0-0.01,0-0.02c0,0,0-0.01,0-0.01c0-0.01,0-0.01,0-0.02l0,0
			c0,0,0-0.01,0-0.01s0,0,0,0c0,0,0,0,0-0.01l0,0c0,0,0,0,0-0.01c0,0,0,0,0,0c0-0.01,0-0.01,0-0.02l0,0c0,0,0-0.01,0-0.01
			c0,0,0,0,0,0c0-0.01,0-0.02,0-0.02v0c0,0,0,0,0,0c0,0,0,0,0,0c0,0,0,0,0-0.01l0,0c0-0.01,0-0.01,0-0.01l0,0c0,0,0-0.01,0-0.01v0v0
			v0c0,0,0,0,0-0.01c0,0,0,0,0,0l0-0.01c0,0,0,0,0-0.01l0,0c0,0,0,0,0-0.01c0,0,0,0,0,0c0,0,0,0,0,0v0v0v0c0,0,0,0,0,0
			c0,0,0,0,0-0.01l0,0c0,0,0-0.01,0-0.01v0c0,0,0,0,0-0.01l0,0c0,0,0,0,0-0.01v0v0c0,0,0,0,0,0c0,0,0,0,0-0.01l0,0c0,0,0,0,0-0.01v0
			v0c0,0,0,0,0,0c0,0,0,0,0-0.01c0,0,0,0,0,0v0v0c0,0,0,0,0-0.01c0,0,0,0,0,0v0c0,0,0,0,0-0.01l0,0c0,0,0,0,0-0.01c0,0,0,0,0,0v0v0
			v0c0,0,0,0,0,0c0,0,0-0.01,0-0.01c0,0,0,0,0,0c0,0,0,0,0-0.01l0,0c0,0,0,0,0-0.01l0,0c0,0,0-0.01,0-0.01v0c0,0,0,0,0-0.01l0,0
			c0,0,0-0.01,0-0.01l0,0c0,0,0-0.01,0-0.01v0c0,0,0,0,0-0.01l0,0c0,0,0-0.01,0-0.01l0,0c0-0.01,0-0.01,0-0.01l0,0
			c0,0,0-0.01,0-0.01l0,0v0c0,0,0,0,0,0c0,0,0,0,0-0.01l0,0c0,0,0-0.01,0-0.01v0c0,0,0,0,0,0c0,0,0,0,0,0c0,0,0,0,0-0.01l0,0
			c0,0,0-0.01,0-0.01v0v0c0,0,0,0,0,0c0,0,0,0,0-0.01l0,0c0,0,0,0,0-0.01c0,0,0,0,0,0v0v0c0,0,0,0,0-0.01l0,0c0,0,0-0.01,0-0.01v0
			c0,0,0,0,0-0.01l0,0c0,0,0,0,0-0.01l0,0c0,0,0-0.01,0-0.01c0,0,0,0,0,0s0,0,0-0.01l0,0c0,0,0,0,0-0.01l0,0c0,0,0-0.01,0-0.01v0
			c0,0,0,0,0-0.01l0,0c0,0,0,0,0-0.01c0,0,0,0,0,0c0,0,0,0,0-0.01l0,0c0,0,0,0,0-0.01l0,0c0-0.01,0-0.02,0-0.02c0,0,0,0,0,0
			c0,0,0,0,0-0.01l0,0c0,0,0,0,0-0.01l0,0c0,0,0-0.01,0-0.01s0,0,0,0v0c0,0,0,0,0,0c0,0,0,0,0-0.01l0,0c0,0,0-0.01,0-0.01s0,0,0,0v0
			c0,0,0,0,0,0s0,0,0-0.01l0,0c0,0,0,0,0-0.01c0,0,0,0,0,0c0,0,0,0,0-0.01l0,0c0,0,0,0,0-0.01l0,0c0,0,0,0,0-0.01c0,0,0,0,0,0v0
			c0,0,0,0,0,0c0,0,0,0,0-0.01l0,0c0,0,0,0,0-0.01c0,0,0,0,0,0v0v0c0,0,0,0,0-0.01l0,0c0,0,0,0,0-0.01l0,0c0,0,0-0.01,0-0.01
			c0,0,0,0,0,0c0,0,0,0,0-0.01l0,0c0,0,0,0,0-0.01l0,0c0-0.01,0-0.01,0-0.01s0,0,0-0.01l0,0c0,0,0,0,0-0.01l0,0c0,0,0-0.01,0-0.01v0
			c0,0,0,0,0-0.01l0,0c0,0,0,0,0-0.01l0,0c0,0,0,0,0-0.01c0,0,0,0,0,0v0c0,0,0,0,0,0c0,0,0,0,0-0.01l0,0c0,0,0-0.01,0-0.01s0,0,0,0
			c0,0,0,0,0-0.01l0,0c0,0,0,0,0-0.01l0,0c0-0.01,0.01,0,0-0.01c0,0,0,0,0-0.01l0,0c0,0,0,0,0-0.01l0,0c0,0,0,0,0-0.01l0,0
			c0,0,0-0.01,0-0.01v0c0,0,0,0,0-0.01l0,0c0,0,0,0,0-0.01l0,0c0,0,0-0.01,0-0.01v0c0,0,0,0,0-0.01l0,0c0,0,0,0,0-0.01l0,0
			c0,0,0-0.01,0-0.01s0,0,0,0c0,0,0,0,0-0.01l0,0c0,0,0-0.01,0-0.01l0,0c0,0,0-0.01,0-0.01l0,0c0,0,0,0,0-0.01l0,0c0,0,0,0,0-0.01
			l0,0c0,0,0-0.01,0-0.01v0c0,0,0,0,0-0.01l0,0c0,0,0,0,0-0.01l0,0c0,0,0-0.01,0-0.01s0,0,0,0v0c0,0,0,0,0,0c0,0,0,0,0-0.01l0,0
			c0,0,0,0,0-0.01l0-0.01v0c0,0,0,0,0-0.01h0c0,0,0,0,0-0.01l0,0c0,0,0-0.01,0-0.01c0,0,0,0,0,0c0,0,0,0,0-0.01l0,0c0,0,0,0,0-0.01
			l0,0c0,0,0,0,0-0.01l0,0c0,0,0-0.01,0-0.01v0c0,0,0,0,0-0.01l0,0c0,0,0,0,0-0.01l0,0c0,0,0-0.01,0-0.01s0.01,0,0-0.01l0,0
			c0,0,0-0.01,0-0.01l0,0c0,0,0-0.01,0-0.01v0c0,0,0,0,0-0.01l0,0c0,0,0,0,0-0.01l0,0c0,0,0-0.01,0-0.01l0,0c0,0,0-0.01,0-0.01l0,0
			c0,0,0,0,0-0.01c0,0,0.01,0,0-0.01l0,0c0-0.01,0-0.01,0-0.01l0,0c0,0,0,0,0-0.01l0,0c0,0,0,0,0-0.01l0,0c0,0,0-0.01,0-0.01v0
			c0,0,0,0,0-0.01l0,0c0,0,0,0,0-0.01l0,0c0,0,0,0,0-0.01l0,0c0,0,0-0.01,0-0.01c0,0,0,0,0,0s0,0,0-0.01l0,0c0,0,0,0,0-0.01l0,0
			c0,0,0,0,0-0.01l0,0c0,0,0-0.01,0-0.01c0,0,0,0,0,0s0,0,0-0.01l0,0c0,0,0,0,0-0.01l0,0c0,0,0-0.01,0-0.01l0,0c0,0,0-0.01,0-0.01
			s0,0,0-0.01l0,0c0,0,0,0,0-0.01l0,0c0,0,0-0.01,0-0.01h0c0,0,0-0.01,0-0.01c0,0,0,0,0,0s0,0,0-0.01l0,0c0,0,0,0,0-0.01h0
			c0,0,0-0.01,0-0.01l0,0c0,0,0-0.01,0-0.01c0,0,0,0,0,0s0,0,0-0.01h0c0,0,0,0,0-0.01l0,0c0,0,0,0,0-0.01l0,0c0,0,0-0.01,0-0.01
			c0,0,0,0,0,0s0,0,0-0.01l0,0c0,0,0,0,0-0.01l0,0c0,0,0,0,0-0.01l0,0c0,0,0-0.01,0-0.01s0,0,0-0.01l0,0c0,0,0,0,0-0.01l0,0
			c0,0,0,0,0-0.01l0,0c0,0,0,0,0-0.01c0,0,0,0,0,0l0,0v0c0,0,0,0,0-0.01l0,0c0,0,0,0,0-0.01l0,0c0,0,0-0.01,0-0.01l0,0
			c0,0,0-0.01,0-0.01v0c0,0,0,0,0-0.01h0c0,0,0,0,0-0.01l0,0c0,0,0,0,0-0.01l0,0c0,0,0-0.01,0-0.01c0,0,0,0,0,0c0,0,0,0,0-0.01l0,0
			c0,0,0,0,0-0.01l0,0c0,0,0,0,0-0.01l0,0c0,0,0-0.01,0-0.01l0,0c0,0,0-0.01,0-0.01s0,0,0,0v0c0,0,0,0,0,0c0,0,0,0,0-0.01l0,0
			c0,0,0,0,0-0.01l0,0c0,0,0-0.01,0-0.01l0,0c0,0,0-0.01,0-0.01v0c0,0,0,0,0-0.01l0,0c0,0,0,0,0-0.01l0,0c0,0,0,0,0-0.01l0,0
			c0,0,0-0.01,0-0.01s0-0.01,0-0.01v0c0,0,0,0,0-0.01l0,0c0,0,0,0,0-0.01l0,0c0,0,0,0,0-0.01l0,0c0,0,0-0.01,0-0.01l0,0
			c0,0,0-0.01,0-0.01l0,0c0,0,0,0,0-0.01l0,0c0,0,0,0,0-0.01l0,0c0,0,0,0,0-0.01l0,0c0,0,0-0.01,0-0.01l0,0c0,0,0-0.01,0-0.01v0
			c0,0,0,0,0-0.01l0,0c0,0,0,0,0-0.01l0,0c0,0,0,0,0-0.01l0,0c0,0,0,0,0-0.01l0,0c0,0,0-0.01,0-0.01c0,0,0,0,0,0v0c0,0,0,0,0,0
			c0,0,0,0,0-0.01l0,0c0,0,0,0,0-0.01l0,0c0,0,0,0,0-0.01l0,0c0,0,0-0.01,0-0.01l0,0c0,0,0-0.01,0-0.01c0,0,0,0,0,0v0c0,0,0,0,0,0
			s0,0,0-0.01l0,0c0,0,0,0,0-0.01l0,0c0,0,0,0,0-0.01l0,0c0,0,0,0,0-0.01l0,0c0,0,0-0.01,0-0.01s0,0,0,0l0-0.01c0,0,0,0,0-0.01l0,0
			c0,0,0-0.01,0-0.01c0,0,0,0,0-0.01c0,0,0,0,0-0.01l0,0c0,0,0-0.01,0-0.01l0-0.01v0l0,0c0,0,0,0,0,0c0,0,0,0,0-0.01l0,0
			c0,0,0,0,0-0.01l0,0c0,0,0,0,0-0.01l0,0c0,0,0-0.01,0-0.01c0,0,0,0,0,0c0,0,0,0,0,0v0c0,0,0,0,0-0.01c0,0,0-0.01,0-0.01
			c0,0,0,0,0-0.01c0,0,0,0,0-0.01l0,0c0,0,0,0,0-0.01l0,0c0,0,0-0.01,0-0.01s0,0,0-0.01v0c0,0,0,0,0,0c0,0,0,0,0,0c0,0,0,0,0,0
			c0,0,0,0,0,0s0,0,0-0.01l0,0c0,0,0,0,0-0.01l0,0c0,0,0,0,0-0.01l0,0c0,0,0,0,0-0.01l0,0c0,0,0-0.01,0-0.01s0,0,0,0l0,0v0l0,0
			c0,0,0,0,0,0l0-0.01c0,0,0,0,0-0.01l0,0c0,0,0,0,0-0.01l0,0c0,0,0,0,0-0.01l0,0c0,0,0,0,0-0.01l0,0c0,0,0-0.01,0-0.01c0,0,0,0,0,0
			c0,0,0,0,0,0v0c0,0,0,0,0,0v0l0-0.01c0,0,0,0,0-0.01l0,0c0,0,0,0,0-0.01l0,0c0,0,0,0,0-0.01l0,0c0,0,0,0,0-0.01l0,0
			c0,0,0,0,0-0.01l0,0c0,0,0,0,0-0.01c0,0,0,0,0,0l0,0v0l0,0v0l0,0v0l0,0c0,0,0,0,0,0c0,0,0,0,0-0.01l0,0c0,0,0,0,0-0.01l0,0
			c0,0,0,0,0-0.01l0,0c0,0,0,0,0-0.01l0,0c0,0,0,0,0-0.01l0,0c0,0,0,0,0-0.01c0,0,0,0,0,0v0c0,0,0,0,0,0v0l0,0v0l0,0v0c0,0,0,0,0,0
			s0.01-0.01,0-0.01l0-0.01c0,0,0,0,0-0.01l0,0c0,0,0,0,0-0.01l0,0c0,0,0,0,0-0.01l0,0c0,0,0,0,0-0.01l0,0c0,0,0,0,0-0.01l0,0
			c0,0,0,0,0-0.01l0,0c0,0,0,0,0-0.01c0,0,0,0,0,0v0c0,0,0,0,0,0v0c0,0,0,0,0,0c0,0,0,0,0,0v0c0,0,0,0,0,0v0c0,0,0,0,0,0v0l0,0v0
			l0,0c0,0,0,0,0,0c0,0,0,0,0,0c0,0,0,0,0,0c0,0,0,0,0,0c0,0,0-0.01,0-0.01c0,0,0,0,0,0c0,0,0,0,0,0c0,0,0,0,0,0
			c0,0,0.01-0.01,0-0.01c0,0,0,0,0-0.01l0,0c0,0,0,0,0-0.01l0,0c0,0,0,0,0-0.01l0,0c0,0,0,0,0-0.01c0,0,0,0,0-0.01h0c0,0,0,0,0-0.01
			l0,0c0,0,0,0,0-0.01c0,0,0,0,0,0c0,0,0,0,0,0c0,0,0,0,0,0l0,0l0-0.01c0,0,0,0,0,0v0c0,0,0,0,0,0c0,0,0,0,0,0c0,0,0,0,0,0
			c0,0,0,0,0,0c0,0,0,0,0,0l0,0v0c0,0,0,0,0,0v0c0,0,0,0,0,0l0,0v0c0,0,0,0,0,0s0,0,0,0v0l0,0v0c0,0,0,0,0,0v0c0,0,0,0,0,0l0,0v0
			c0,0,0,0,0,0s0,0,0,0v0l0,0v0c0,0,0,0,0,0s0,0,0,0v0l0,0v0c0,0,0,0,0,0s0,0,0,0v0l0,0v0c0,0,0,0,0,0s0,0,0,0v0c0,0,0,0,0,0
			s0,0,0,0v0l0,0v0c0,0,0,0,0,0s0,0,0,0v0c0,0,0,0,0,0s0,0,0,0v0l0,0v0c0,0,0,0,0,0s0,0,0,0v0c0,0,0,0,0,0s0,0,0,0v0l0,0v0
			c0,0,0,0,0,0l0,0v0c0,0,0,0,0,0c0,0,0,0,0,0c0,0,0,0,0,0c0,0,0,0,0,0c0,0,0,0,0,0c0,0,0,0,0,0c0,0,0,0,0,0c0,0,0,0,0,0
			c0,0,0,0,0,0c0,0,0,0,0,0c0,0,0,0.01,0-0.01c0,0,0,0,0,0c0,0,0,0.01,0-0.01c0,0,0,0,0,0c0,0,0,0,0-0.01c0,0,0,0.01,0-0.01h0
			c0,0,0-0.01,0-0.01c0,0,0,0,0,0c0,0,0-0.01,0-0.01c0,0,0,0,0,0c0-0.01,0.01-0.01,0-0.01c0,0,0,0,0,0c0,0,0,0,0,0c0,0,0,0,0,0l0,0
			c0,0,0,0,0,0v0l0,0v0c0,0,0,0,0,0l0,0v0c0,0,0,0,0,0l0,0v0c0,0,0,0,0,0c0,0,0,0,0,0c0,0,0.01,0.01,0-0.01c0,0,0,0,0,0
			c0,0,0,0.01,0-0.01c0,0,0,0,0,0l0,0c0,0,0,0,0-0.01h0c0,0,0-0.01,0-0.01c0,0,0,0,0,0c0,0,0-0.01,0-0.01c0,0,0,0,0,0s0,0,0,0v0
			c0,0,0,0,0,0s0,0,0,0v0c0,0,0,0,0,0l0,0c0,0,0,0,0-0.01c0,0,0,0,0,0c0,0,0,0,0,0c0,0,0,0,0,0c0,0,0,0,0,0c0,0,0.01,0.01,0-0.01
			c0,0,0,0,0,0c0-0.01,0,0,0-0.01c0,0,0,0,0,0c0,0,0,0,0,0c0,0,0,0,0,0c0,0,0,0,0,0l0,0c0,0,0,0,0,0v0l0,0c0,0,0,0,0,0
			c0,0,0.01,0,0-0.01c0,0,0,0,0,0c0,0,0,0,0,0c0,0,0,0,0,0c0,0,0,0,0,0c0,0,0,0.01,0-0.01c0,0,0,0,0,0c0,0,0,0,0,0c0,0,0,0,0,0
			c0,0,0,0,0,0c0,0,0,0,0,0s0,0,0,0v0c0,0,0,0,0,0s0,0,0,0v0c0,0,0,0,0,0c0,0,0,0,0,0c0,0,0,0,0-0.01c0,0,0,0,0,0c0,0,0,0,0-0.01
			l0,0c0,0,0,0,0,0c0,0,0,0,0,0s0,0,0,0v0c0,0,0,0,0,0l0,0c0,0,0,0,0,0c0,0,0,0,0,0c0,0,0,0,0,0c0,0,0,0,0,0c0,0,0,0,0,0l0,0
			c0,0,0,0,0-0.01c0,0,0,0,0,0c0,0,0,0,0,0l0,0v0c0,0,0,0,0,0c0,0,0,0,0,0l0,0c0,0,0,0,0-0.01c0,0,0,0,0,0c0,0,0,0,0-0.01l0,0
			c0,0,0.01-0.01,0.01-0.01l0,0c0,0,0,0,0,0c0,0,0,0,0,0c0,0,0,0,0,0l0,0c0,0,0,0.01,0-0.01h0c0,0,0,0,0-0.01l0,0
			c0.01-0.01,0-0.01,0.01-0.01l0,0c0,0,0,0,0,0c0,0,0,0,0,0c0,0,0,0,0,0l0,0l0,0c0,0,0,0,0.01-0.01l0,0c0,0,0,0,0-0.01l0,0
			c0,0,0,0,0.01-0.01l0,0l0,0v0c0,0,0,0,0.01,0l0,0c0,0,0,0,0-0.01l0,0c0,0,0,0,0.01-0.01l0,0c0,0,0,0,0-0.01l0,0c0,0,0,0,0.01,0v0
			l0,0l0,0c0,0,0,0,0.01-0.01l0,0c0,0,0,0,0-0.01c0,0,0,0,0.01-0.01l0,0c0,0,0,0,0,0c0,0,0,0,0,0l0,0l0,0c0,0,0,0,0.01-0.01l0,0
			c0,0,0,0,0-0.01l0,0c0,0,0,0,0.01-0.01l0,0l0,0c0,0,0-0.01,0.01-0.01l0,0c0,0,0,0,0-0.01h0c0,0,0,0,0-0.01l0,0c0,0,0,0,0.01,0v0
			l0,0l0,0c0,0,0,0,0.01-0.01l0,0c0.05-0.06,0.1-0.11,0.15-0.16l7.59-7.6c1.66-1.65,4.34-1.65,6,0s1.66,4.34,0,6l-6.35,6.35v101.99
			c13.29,3.9,23.43-4.74,23.88-5.14l5.62,6.35c-0.59,0.52-13.54,11.78-30.9,7.2c-5.29,10.48-20.35,11.9-21.05,11.96
			C130.74,469.62,130.62,469.63,130.5,469.63z"/>
	</g>
	<g>
		<path class="st2" d="M122.63,152.62c0,0-7.34-17.86-6.52-30.22c0.82-12.36,2.32-32.58,26.49-34.23
			c24.16-1.64,36.71,10.21,36.21,17.77c-0.51,7.57-9.99,11.23-20.5,8.36c-10.52-2.88-18.33-0.7-18.73,5.32
			c-0.4,6.02-1.37,6.58-0.63,9.42c0.74,2.84,1.92,8.35,0.38,8.25c-1.54-0.1-4.27-1.06-4.14-3.07c0.13-2.01-5.36-7.96-6.94-5.27
			c-1.58,2.69-4.02,4.39-2.08,10.26c1.93,5.87,2.03,4.48,1.79,8.03C127.71,150.79,125.94,158.75,122.63,152.62z"/>
		<path class="st2" d="M124.89,156.29c-1.89,0-3.09-2.22-3.51-2.99l-0.07-0.14c-0.3-0.74-7.45-18.31-6.62-30.85
			c0.79-11.82,2.25-33.81,27.8-35.55c19.99-1.36,29.83,6.17,33.14,9.47c3.11,3.11,4.78,6.68,4.57,9.8
			c-0.21,3.14-1.75,5.81-4.44,7.73c-4.31,3.07-10.98,3.78-17.84,1.91c-6.45-1.77-12.04-1.59-14.94,0.48
			c-1.24,0.88-1.92,2.08-2.01,3.57c-0.17,2.58-0.45,4.2-0.65,5.38c-0.27,1.57-0.38,2.23-0.02,3.59c1.98,7.58,0.98,8.79,0.55,9.31
			c-0.4,0.49-1.05,0.72-1.63,0.7c-1.13-0.07-2.37-0.45-3.32-1.01c-1.47-0.86-2.23-2.13-2.13-3.56c-0.03-0.47-1.12-2.26-2.73-3.56
			c-0.96-0.79-1.57-0.9-1.65-0.88c-0.23,0.49-0.55,0.95-0.87,1.42c-1.34,1.95-2.4,3.49-1.02,7.67c0.54,1.63,0.93,2.69,1.21,3.45
			c0.81,2.18,0.83,2.37,0.65,5.11c-0.06,0.84-0.65,8.18-3.93,8.89C125.25,156.27,125.07,156.29,124.89,156.29z M123.91,152.02
			c0.7,1.27,1.11,1.45,1.11,1.45c0.38-0.37,1.32-3.37,1.53-6.32c0.15-2.25,0.15-2.25-0.48-3.95c-0.29-0.79-0.7-1.88-1.24-3.55
			c-1.82-5.51-0.12-7.98,1.37-10.15c0.28-0.41,0.57-0.82,0.83-1.26c0.71-1.2,2-1.66,3.45-1.21c2.72,0.83,6.27,5.06,6.12,7.29
			c-0.02,0.32,0.23,0.64,0.74,0.94c0.4,0.24,0.88,0.41,1.32,0.51c0.02-0.99-0.24-3.1-1.09-6.36c-0.51-1.95-0.32-3.08-0.03-4.78
			c0.2-1.19,0.45-2.66,0.62-5.1c0.16-2.34,1.26-4.31,3.2-5.69c3.64-2.59,9.95-2.92,17.32-0.9c5.96,1.63,11.89,1.06,15.46-1.48
			c1.98-1.41,3.11-3.35,3.26-5.61c0.15-2.31-1.21-5.08-3.75-7.62c-6.32-6.31-17.9-9.55-30.95-8.65
			c-23.09,1.57-24.39,21.19-25.17,32.92C116.75,134,123.42,150.8,123.91,152.02z"/>
	</g>
	<g>
		<path class="st2" d="M248.31,239.05l-12.29-26.76l-21.66,13.54l-14.3-42.57c0,0-10.09-20.08-22.93-19.55
			c-0.01,0-0.02,0.01-0.03,0.01c-0.92-0.38-1.84-0.77-2.85-1.13c0,0,1.57,14.33-14.07,15.02c0,0,9.64,13.17,9.64,25.25
			s0,95.06,0,95.06s1.87,4.37,15.02,4.37c0,0,8.28,0.07,12.23-8.05v-23.69C222.42,267.19,248.31,239.05,248.31,239.05z"/>
		<path class="st2" d="M184.83,305.11c-0.01,0-0.02,0-0.03,0c-13.9,0-16.98-4.65-17.59-6.08l-0.23-0.54v-95.64
			c0-11.03-9-23.46-9.09-23.58l-3.12-4.26l5.27-0.23c4-0.18,6.99-1.38,8.89-3.56c2.95-3.4,2.5-8.29,2.5-8.34l-0.44-4.44l4.2,1.48
			c0.85,0.3,1.64,0.63,2.42,0.95c0.04,0,0.08,0,0.12,0c14.07,0,24.41,20.24,24.85,21.12l0.15,0.37l13.16,39.17l21.35-13.34
			l14.41,31.39l-1.27,1.38c-1.05,1.14-25.28,27.22-50.5,31.99v21.93l-0.28,0.59C195.01,304.92,185.54,305.11,184.83,305.11z
			 M172.64,296.98c0.78,0.61,3.76,2.48,12.19,2.48c0.26,0,6.24-0.11,9.4-5.91v-25.48l2.46-0.33c20.96-2.77,42.78-23.72,48.24-29.27
			l-10.14-22.09l-21.97,13.73l-15.37-45.77c-2.64-5.16-10.99-17.72-19.72-17.83l-0.03,0.01l-0.8,0c-0.37,2.47-1.32,5.62-3.64,8.32
			c-2.08,2.43-4.86,4.07-8.29,4.92c3.02,5.02,7.67,14.2,7.67,23.08V296.98z"/>
	</g>
	<g>
		<path class="st2" d="M246.46,239.26c-1.61,0-3.14-0.92-3.86-2.47l-8.41-18.32c-0.44-0.96-0.51-2.04-0.19-3.04
			c1.49-4.75,9.25-28.76,15.84-35.35c6.86-6.86,11.34-5.9,13.41-4.71c3.42,1.96,4.29,6.25,2.59,12.74c-0.5,1.92-1.09,4.02-1.68,6.14
			c-0.73,2.59-1.66,5.94-2.32,8.67c0.39,0.08,0.77,0.2,1.15,0.35c3.32,1.38,5.38,5.46,5.37,10.65c0,3.9-1.48,17.24-20.3,25.02
			C247.55,239.16,247,239.26,246.46,239.26z M242.59,216.43l5.93,12.93c7.84-4.26,10.25-9.53,10.99-12.51
			c0.45-1.8,0.44-3.28,0.28-4.34c-2.11,1.07-3.78,0.5-4.73-0.05c-4.12-2.41-2.64-7.7,0.94-20.49c0.58-2.07,1.15-4.12,1.65-6
			c0.19-0.71,0.32-1.32,0.41-1.83c-0.62,0.46-1.36,1.09-2.21,1.94C252.07,189.86,245.94,206.06,242.59,216.43z"/>
	</g>
	<g>
		<path class="st2" d="M126.78,185.83c0,0-5.26-6.51-5.26-13.63c0,0-19.39,6.12-28.64,27.51l0,0l-0.01,0.02
			c-0.53,1.22-1.02,2.48-1.48,3.8l-14.42,37.14l-21.66-13.54l-12.29,26.76c0,0,21.84,23.74,45.05,30.21c0,15.49,0,25.88,0,25.88
			s9.01,7.56,19.84,9.62c0,0,21.74,7.01,41.47-12.72v-87.63C149.38,219.27,150,209.05,126.78,185.83z"/>
		<path class="st2" d="M117.57,323.68c-5.55,0-9.42-1.05-10.34-1.32c-11.36-2.22-20.58-9.88-20.97-10.2l-1.01-0.85v-25.09
			c-22.89-7.34-43.42-29.44-44.3-30.4l-1.27-1.38l14.41-31.39l21.49,13.43l13.19-33.96c0.44-1.28,0.96-2.61,1.52-3.89
			c9.66-22.34,29.55-28.85,30.39-29.11l3.68-1.16v3.86c0,5.56,3.94,10.95,4.56,11.75c23.33,23.36,23.37,34.31,23.3,35.49l0.01,88.62
			l-0.83,0.83C139.17,321.1,126.29,323.68,117.57,323.68z M90.9,308.61c2.54,1.9,9.59,6.71,17.54,8.23l0.34,0.09
			c0.81,0.26,19.82,6,37.78-11.21v-86.44c0-0.18-0.29-9.96-21.78-31.44l-0.2-0.22c-0.2-0.25-4.1-5.13-5.44-11.35
			c-5.64,2.7-17.28,9.82-23.67,24.58c-0.51,1.18-0.98,2.37-1.41,3.62l-15.69,40.42l-21.83-13.64L46.4,253.32
			c4.96,5.03,23.41,22.76,42.44,28.06l2.07,0.58V308.61z"/>
	</g>
	<g>
		<path class="st2" d="M44.42,255.1c-0.56,0-1.12-0.11-1.67-0.34c-0.26-0.11-26.05-11.16-33.31-13.73
			c-6.59-2.34-8.81-7.31-8.68-11.18c0.14-4.16,2.87-7.71,6.81-8.9c-4.51-4.41-6.64-11.03-4.96-15.61c1.05-2.84,3.24-4.99,6.17-6.06
			c5.37-1.97,12.96-0.34,22.58,4.82c0.21-1.03,0.4-2.24,0.54-3.12c0.77-4.9,1.64-10.45,6.32-12.01c2.67-0.89,5.37-0.55,7.8,1
			c9.43,5.99,12.9,31.6,13.5,36.67c0.09,0.77-0.03,1.56-0.36,2.27l-10.89,23.73C47.56,254.18,46.02,255.1,44.42,255.1z
			 M13.73,206.95c-1.04,0-1.69,0.17-2.03,0.29c-0.76,0.28-1,0.68-1.13,1.03c-0.32,0.87,0.36,4.26,3.15,6.82
			c3.62,3.32,3.52,6.47,3.15,8.05c-0.47,1.95-2.03,4.57-6.84,5.92c-0.69,0.19-0.78,0.81-0.79,1.06c-0.03,0.87,0.75,2.1,3.04,2.91
			c5.85,2.07,22.45,9.09,30.02,12.3l8.67-18.88c-1.61-12.44-5.59-26.87-9.48-29.34c-0.04-0.02-0.07-0.05-0.1-0.06
			c-0.46,1.19-0.85,3.66-1.09,5.23c-0.72,4.6-1.4,8.94-5,10.67c-1.1,0.53-3.37,1.18-6.23-0.45
			C20.93,207.89,16.21,206.95,13.73,206.95z"/>
	</g>
	<g>
		<g>
			<g>
				<g>
					<path class="st2" d="M289.5,119.88c-0.18,0-0.36,0-0.55-0.01c-6.89-0.3-9.43-5.44-9.46-8.83l0.19-4.75
						c0.09-2.34,2.07-4.21,4.41-4.06l11.13,0.46c2.34,0.1,4.15,2.07,4.06,4.4l-0.18,4.54C298.79,115.13,295.97,119.88,289.5,119.88z
						 M287.98,110.89c0.05,0.19,0.24,0.46,1.32,0.51c1,0.02,1.27-0.2,1.34-0.41v-0.01l-2.66-0.11V110.89z"/>
				</g>
			</g>
		</g>
		<g>
			<path class="st2" d="M300.68,111.42c-0.06,0-0.12,0-0.18,0l-22.53-0.94c-1.18-0.05-2.29-0.59-3.05-1.49l-4.41-5.19
				c-1.18-1.39-1.34-3.37-0.41-4.93l2.19-3.64l-1.68-1.68c-1.28-1.28-1.6-3.24-0.8-4.86l3.75-7.64c0.71-1.45,2.19-2.37,3.81-2.37
				h25.28c1.61,0,3.09,0.92,3.8,2.37l3.76,7.64c0.8,1.63,0.48,3.59-0.81,4.87l-2.11,2.11l1.78,4.88c0.52,1.43,0.23,3.04-0.75,4.2
				l-4.41,5.18C303.1,110.87,301.92,111.42,300.68,111.42z M280.17,102.08l18.62,0.78l1.47-1.73l-1.86-5.1
				c-0.57-1.55-0.18-3.29,0.99-4.45l1.88-1.88l-1.25-2.55h-20.01l-1.25,2.55l1.87,1.88c1.37,1.38,1.63,3.51,0.63,5.18l-2.32,3.86
				L280.17,102.08z"/>
		</g>
		<g>
			<path class="st2" d="M305.09,103.41c-0.01,0-0.03,0-0.04,0l-31.36-0.95c-0.71-0.02-1.3-0.57-1.37-1.28
				c-0.07-0.71,0.4-1.36,1.1-1.51l21.1-4.77l-21.11-2.95c-0.68-0.1-1.2-0.67-1.22-1.36c-0.02-0.69,0.47-1.29,1.15-1.42l29.04-5.54
				c0.75-0.14,1.51,0.35,1.65,1.12c0.15,0.77-0.36,1.51-1.12,1.65l-20.64,3.94l20.3,2.84c0.68,0.09,1.19,0.66,1.22,1.34
				c0.03,0.68-0.44,1.29-1.1,1.44l-17.79,4.02l20.23,0.61c0.78,0.02,1.39,0.68,1.37,1.46C306.48,102.8,305.85,103.41,305.09,103.41z
				"/>
		</g>
		<g>
			<path class="st2" d="M302.64,88.56c-2.77,0-5.18-2.03-5.59-4.85c-1.4-9.76,5.49-16.59,6.28-17.33c0.12-0.11,0.25-0.22,0.38-0.33
				c11.22-8.86,15.91-14.33,15.91-25.28c0-15.63-13.56-28.84-29.62-28.84c-16.05,0-29.61,13.21-29.61,28.84
				c0,10.95,4.69,16.42,15.9,25.28c0.13,0.1,0.26,0.21,0.38,0.33c2.87,2.71,7.42,9.41,6.28,17.34c-0.44,3.09-3.31,5.23-6.4,4.79
				c-3.09-0.44-5.24-3.31-4.79-6.4c0.52-3.61-2.13-6.73-2.77-7.41c-10.92-8.65-19.92-17.24-19.92-33.93
				c0-22.14,18.36-40.15,40.92-40.15c22.57,0,40.93,18.01,40.93,40.15c0,16.68-9,25.28-19.93,33.93c-0.57,0.62-3.27,3.76-2.75,7.41
				c0.44,3.09-1.7,5.96-4.79,6.4C303.18,88.54,302.91,88.56,302.64,88.56z"/>
		</g>
		<g>
			<path class="st2" d="M299.13,45.35H280.3c-0.99,0-1.91-0.52-2.42-1.37l-5.82-9.71c-0.8-1.34-0.37-3.07,0.97-3.88
				c1.34-0.81,3.07-0.37,3.88,0.97l5,8.34h15.63l5.01-8.34c0.8-1.34,2.54-1.77,3.88-0.97c1.34,0.8,1.77,2.54,0.97,3.88l-5.83,9.71
				C301.04,44.83,300.13,45.35,299.13,45.35z"/>
		</g>
		<g>
			<path class="st2" d="M290.01,85.73c-1.56,0-2.83-1.27-2.83-2.83v-50.1c0-1.56,1.26-2.83,2.83-2.83c1.56,0,2.83,1.27,2.83,2.83
				v50.1C292.84,84.47,291.57,85.73,290.01,85.73z"/>
		</g>
	</g>
</g>
</svg>
