<?xml version="1.0" encoding="UTF-8" standalone="no"?>
<!-- Created with Inkscape (http://www.inkscape.org/) -->

<svg
   xmlns:dc="http://purl.org/dc/elements/1.1/"
   xmlns:cc="http://creativecommons.org/ns#"
   xmlns:rdf="http://www.w3.org/1999/02/22-rdf-syntax-ns#"
   xmlns:svg="http://www.w3.org/2000/svg"
   xmlns="http://www.w3.org/2000/svg"
   xmlns:sodipodi="http://sodipodi.sourceforge.net/DTD/sodipodi-0.dtd"
   xmlns:inkscape="http://www.inkscape.org/namespaces/inkscape"
   width="78.375938mm"
   height="7.9375038mm"
   viewBox="0 0 78.375937 7.9375039"
   version="1.1"
   id="svg8"
   inkscape:export-filename="/home/raphael/github/fab-manager/public/prices/assets/payment_methods.png"
   inkscape:export-xdpi="96"
   inkscape:export-ydpi="96"
   inkscape:version="0.92.2 2405546, 2018-03-11"
   sodipodi:docname="payment_methods.svg">
  <defs
     id="defs2">
    <clipPath
       clipPathUnits="userSpaceOnUse"
       id="clipPath828">
      <rect
         style="opacity:0.47000002;fill:#000000;fill-opacity:1;stroke:none;stroke-width:0.85912436;stroke-miterlimit:4;stroke-dasharray:none;stroke-opacity:1"
         id="rect830"
         width="69.209366"
         height="15.768902"
         x="112.22802"
         y="85.857071" />
    </clipPath>
  </defs>
  <sodipodi:namedview
     id="base"
     pagecolor="#ffffff"
     bordercolor="#666666"
     borderopacity="1.0"
     inkscape:pageopacity="0.0"
     inkscape:pageshadow="2"
     inkscape:zoom="2.8"
     inkscape:cx="148.79722"
     inkscape:cy="47.358088"
     inkscape:document-units="mm"
     inkscape:current-layer="layer1"
     showgrid="false"
     fit-margin-top="0"
     fit-margin-left="0"
     fit-margin-right="0"
     fit-margin-bottom="0"
     inkscape:window-width="1865"
     inkscape:window-height="1016"
     inkscape:window-x="55"
     inkscape:window-y="30"
     inkscape:window-maximized="1"
     objecttolerance="20" />
  <metadata
     id="metadata5">
    <rdf:RDF>
      <cc:Work
         rdf:about="">
        <dc:format>image/svg+xml</dc:format>
        <dc:type
           rdf:resource="http://purl.org/dc/dcmitype/StillImage" />
        <dc:title />
      </cc:Work>
    </rdf:RDF>
  </metadata>
  <g
     inkscape:label="Layer 1"
     inkscape:groupmode="layer"
     id="layer1"
     transform="translate(-35.348477,-118.19988)">
    <g
       id="g1095"
       transform="matrix(0.49999987,0,0,0.49999987,14.837127,63.068708)">
      <path
         sodipodi:nodetypes="sssssssss"
         style="fill:#bbbbbb;stroke-width:0.03457376;fill-opacity:1"
         inkscape:connector-curvature="0"
         d="m 142.89866,112.1149 v 12.16997 c 0,0.9162 -0.74334,1.65954 -1.65954,1.65954 h -16.59541 c -0.9162,0 -1.65954,-0.74334 -1.65954,-1.65954 V 112.1149 c 0,-0.9162 0.74334,-1.65954 1.65954,-1.65954 h 16.59541 c 0.9162,0 1.65954,0.74334 1.65954,1.65954 z"
         id="path916-6" />
      <g
         transform="matrix(0.04609906,0,0,0.04609906,115.9876,83.093339)"
         id="g867">
        <path
           inkscape:connector-curvature="0"
           id="path8681"
           d="M 486.96911,632.40812 H 248.5691 v 258.27534 h 238.40001 z m 0,0"
           style="fill:#ffffff;fill-opacity:1;fill-rule:nonzero;stroke:none" />
        <path
           inkscape:connector-curvature="0"
           id="path8683"
           d="M 481.00304,800.13447 H 254.53517 V 638.37419 h 226.46787 z m 0,0"
           style="fill:#bbbbbb;fill-opacity:1;fill-rule:nonzero;stroke:none" />
        <path
           inkscape:connector-curvature="0"
           id="path8685"
           d="M 425.05379,667.73627 380.62045,773.80744 H 351.58786 L 329.71805,689.1378 c -1.31806,-5.20294 -2.48006,-7.11071 -6.50369,-9.33064 -6.62513,-3.55536 -17.51665,-6.91998 -27.09012,-9.01848 l 0.6417,-3.05241 h 46.68795 c 5.94875,0 11.3078,3.95423 12.66059,10.7875 l 11.56789,61.37765 28.54697,-72.16515 h 28.82445"
           style="fill:#ffffff;fill-opacity:1;fill-rule:nonzero;stroke:none" />
        <path
           inkscape:connector-curvature="0"
           id="path8687"
           d="m 317.64716,841.5848 c 1.05793,0.2948 2.46275,0.38138 4.21441,0.38138 6.45171,0 10.38862,-3.31258 10.38862,-9.08787 0,-5.48044 -3.64211,-8.41146 -9.62549,-8.41146 -2.35868,0 -4.05835,0.22554 -4.97754,0.45091 z m -8.5502,-22.96246 c 3.08708,-0.58966 7.37089,-1.02326 13.19821,-1.02326 6.31291,0 10.92625,1.38746 13.94393,4.02363 2.80964,2.41072 4.63065,6.27828 4.63065,10.90893 0,4.66533 -1.40477,8.53285 -4.07566,11.18638 -3.43393,3.57267 -8.8277,5.25498 -14.93252,5.25498 -1.59555,0 -3.08708,-0.0866 -4.21441,-0.29481 v 18.59194 h -8.5502 z m 0,0"
           style="fill:#bbbbbb;fill-opacity:1;fill-rule:nonzero;stroke:none" />
        <path
           inkscape:connector-curvature="0"
           id="path8689"
           d="m 373.33628,846.49294 -3.71147,-12.14029 c -0.91918,-3.00037 -1.68226,-6.36494 -2.39335,-9.22657 h -0.13897 c -0.69373,2.86163 -1.40477,6.31291 -2.23725,9.22657 l -3.64211,12.14029 z m -13.5277,6.79854 -4.07566,13.97861 h -8.8971 l 15.14066,-49.30676 h 11.01295 l 15.36607,49.30676 h -9.26125 l -4.28381,-13.97861 z m 0,0"
           style="fill:#bbbbbb;fill-opacity:1;fill-rule:nonzero;stroke:none" />
        <path
           inkscape:connector-curvature="0"
           id="path8691"
           d="m 406.51389,867.27009 v -20.56906 l -14.93252,-28.7377 h 9.79892 l 5.68858,12.64319 c 1.61292,3.67678 2.79223,6.43434 4.07567,9.81627 h 0.1212 c 1.19668,-3.15647 2.54946,-6.2262 4.14502,-9.81627 l 5.68858,-12.64319 h 9.74693 l -15.713,28.52961 v 20.77715 z m 0,0"
           style="fill:#bbbbbb;fill-opacity:1;fill-rule:nonzero;stroke:none" />
      </g>
    </g>
    <g
       id="g977"
       transform="matrix(0.06533623,0,0,0.06533623,74.653989,117.92023)">
      <path
         sodipodi:nodetypes="ssssssssssscccsccccccccccccccccccccccccccsscccs"
         style="fill:#bbbbbb;fill-opacity:1;stroke-width:0.26458332"
         inkscape:connector-curvature="0"
         d="m 597.99027,18.457017 v 93.133333 c 0,7.01146 -5.68854,12.7 -12.7,12.7 h -127 c -7.01146,0 -12.7,-5.68854 -12.7,-12.7 V 18.457017 c 0,-7.01146 5.68854,-12.7000009 12.7,-12.7000009 h 127 c 7.01146,0 12.7,5.6885409 12.7,12.7000009 z M 462.5236,55.392847 c 0,20.24063 16.43063,36.6448 36.6448,36.6448 7.19666,0 14.26104,-2.16959 20.24062,-6.11188 -19.28813,-15.68979 -19.15583,-45.29667 0,-60.98646 -5.97958,-3.96875 -13.04396,-6.11187 -20.24062,-6.11187 -20.21417,-0.0265 -36.6448,16.40416 -36.6448,36.56541 z m 59.26667,28.78667 c 18.65312,-14.55208 18.57375,-42.91542 0,-57.54687 -18.57375,14.63145 -18.65312,43.02125 0,57.54687 z m 55.50958,-7.24958 v 1.21708 h 0.21167 v -1.21708 h 0.50271 v -0.21167 h -1.21709 v 0.21167 z m 2.59292,-0.23813 h -0.37042 l -0.42333,0.92604 -0.42333,-0.92604 h -0.37042 v 1.42875 h 0.21167 v -1.08479 l 0.42333,0.92604 h 0.29104 l 0.37042,-0.92604 v 1.08479 h 0.29104 z m 1.16417,-21.29896 c 0,-20.16125 -16.43063,-36.59187 -36.64479,-36.59187 -7.19667,0 -14.26105,2.16958 -20.24063,6.11187 19.07646,15.6898 19.3675,45.37605 0,60.98646 5.97958,3.96875 13.09688,6.11188 20.24063,6.11188 20.21416,0.0265 36.64479,-16.37771 36.64479,-36.61834 z"
         id="path916-3" />
      <g
         style="fill:#ffffff;fill-opacity:1"
         transform="matrix(2.241141,0,0,2.241141,-570.14958,-137.08107)"
         id="g969">
        <g
           style="fill:#ffffff;fill-opacity:1"
           id="g887"
           transform="matrix(1.0397133,0,0,-1.0397133,498.45491,106.00164)">
          <path
             id="path885"
             d="M 0,0 C 0.183,0 0.446,-0.035 0.647,-0.114 L 0.367,-0.97 c -0.192,0.079 -0.384,0.105 -0.568,0.105 -0.594,0 -0.891,-0.384 -0.891,-1.074 v -2.342 h -0.909 v 4.176 h 0.9 V -0.612 C -0.865,-0.245 -0.524,0 0,0 m -3.358,-0.935 h -1.485 v -1.887 c 0,-0.419 0.148,-0.699 0.603,-0.699 0.236,0 0.533,0.079 0.803,0.236 l 0.262,-0.777 c -0.288,-0.201 -0.742,-0.324 -1.135,-0.324 -1.075,0 -1.45,0.577 -1.45,1.547 v 1.904 h -0.848 v 0.83 h 0.848 v 1.267 h 0.917 v -1.267 h 1.485 z m -11.629,-0.891 c 0.097,0.603 0.463,1.014 1.11,1.014 0.585,0 0.961,-0.367 1.057,-1.014 z m 3.111,-0.367 C -11.885,-0.891 -12.689,0 -13.86,0 c -1.223,0 -2.079,-0.891 -2.079,-2.193 0,-1.327 0.891,-2.192 2.141,-2.192 0.629,0 1.205,0.157 1.712,0.585 l -0.446,0.673 c -0.349,-0.28 -0.795,-0.437 -1.214,-0.437 -0.585,0 -1.118,0.271 -1.249,1.022 h 3.101 c 0.009,0.114 0.018,0.227 0.018,0.349 m 3.992,1.022 c -0.253,0.158 -0.768,0.359 -1.301,0.359 -0.498,0 -0.795,-0.184 -0.795,-0.49 0,-0.279 0.314,-0.358 0.707,-0.41 l 0.428,-0.061 c 0.909,-0.132 1.459,-0.516 1.459,-1.25 0,-0.795 -0.699,-1.363 -1.904,-1.363 -0.682,0 -1.311,0.175 -1.809,0.542 l 0.428,0.708 c 0.306,-0.236 0.761,-0.437 1.39,-0.437 0.62,0 0.952,0.183 0.952,0.507 0,0.235 -0.236,0.367 -0.734,0.436 l -0.428,0.061 c -0.935,0.132 -1.442,0.551 -1.442,1.232 0,0.83 0.682,1.337 1.739,1.337 0.664,0 1.267,-0.149 1.703,-0.437 z M 3.321,-0.863 C 3.134,-0.863 2.961,-0.896 2.8,-0.961 2.64,-1.027 2.501,-1.119 2.384,-1.237 2.267,-1.355 2.175,-1.497 2.108,-1.662 c -0.067,-0.165 -0.1,-0.347 -0.1,-0.545 0,-0.199 0.033,-0.38 0.1,-0.545 0.067,-0.165 0.159,-0.307 0.276,-0.425 0.117,-0.118 0.256,-0.21 0.416,-0.276 0.161,-0.066 0.334,-0.098 0.521,-0.098 0.187,0 0.361,0.032 0.521,0.098 0.161,0.066 0.301,0.158 0.418,0.276 0.119,0.118 0.211,0.26 0.279,0.425 0.067,0.165 0.1,0.346 0.1,0.545 0,0.198 -0.033,0.38 -0.1,0.545 -0.068,0.165 -0.16,0.307 -0.279,0.425 -0.117,0.118 -0.257,0.21 -0.418,0.276 -0.16,0.065 -0.334,0.098 -0.521,0.098 M 3.321,0 C 3.645,0 3.945,-0.056 4.221,-0.169 4.497,-0.281 4.736,-0.436 4.937,-0.633 5.139,-0.83 5.296,-1.063 5.41,-1.331 5.524,-1.6 5.581,-1.892 5.581,-2.207 5.581,-2.522 5.524,-2.814 5.41,-3.083 5.296,-3.351 5.139,-3.585 4.937,-3.782 4.736,-3.979 4.497,-4.133 4.221,-4.246 3.945,-4.358 3.645,-4.414 3.321,-4.414 c -0.324,0 -0.624,0.056 -0.9,0.168 -0.276,0.113 -0.513,0.267 -0.713,0.464 -0.2,0.197 -0.357,0.431 -0.471,0.699 -0.114,0.269 -0.171,0.561 -0.171,0.876 0,0.315 0.057,0.607 0.171,0.876 0.114,0.268 0.271,0.501 0.471,0.698 0.2,0.197 0.437,0.352 0.713,0.464 C 2.697,-0.056 2.997,0 3.321,0 m -23.616,-2.193 c 0,0.734 0.481,1.337 1.267,1.337 0.751,0 1.258,-0.577 1.258,-1.337 0,-0.76 -0.507,-1.336 -1.258,-1.336 -0.786,0 -1.267,0.602 -1.267,1.336 m 3.381,0 v 2.088 h -0.908 V -0.612 C -18.111,-0.236 -18.547,0 -19.141,0 c -1.171,0 -2.088,-0.917 -2.088,-2.193 0,-1.275 0.917,-2.193 2.088,-2.193 0.594,0 1.03,0.236 1.319,0.612 v -0.507 h 0.908 z m -5.119,-2.088 v 2.621 c 0,0.987 -0.629,1.651 -1.642,1.66 -0.533,0.009 -1.084,-0.157 -1.468,-0.743 C -25.431,-0.28 -25.886,0 -26.524,0 c -0.445,0 -0.882,-0.131 -1.223,-0.62 v 0.515 h -0.908 v -4.176 h 0.917 v 2.315 c 0,0.725 0.402,1.11 1.022,1.11 0.603,0 0.909,-0.393 0.909,-1.101 v -2.324 h 0.917 v 2.315 c 0,0.725 0.42,1.11 1.022,1.11 0.621,0 0.918,-0.393 0.918,-1.101 v -2.324 z"
             inkscape:connector-curvature="0"
             style="fill:#ffffff;fill-opacity:1" />
        </g>
        <g
           style="fill:#ffffff;fill-opacity:1"
           id="g891"
           transform="matrix(1.0397133,0,0,-1.0397133,505.27543,110.12722)">
          <path
             id="path889"
             d="m 0,0 v -0.103 h 0.095 c 0.021,0 0.039,0.005 0.051,0.013 0.013,0.008 0.02,0.022 0.02,0.039 0,0.017 -0.007,0.03 -0.02,0.038 C 0.134,-0.004 0.116,0 0.095,0 Z M 0.096,0.072 C 0.145,0.072 0.183,0.061 0.21,0.039 0.237,0.017 0.25,-0.013 0.25,-0.051 0.25,-0.083 0.24,-0.109 0.218,-0.13 0.197,-0.15 0.166,-0.163 0.127,-0.168 L 0.253,-0.313 H 0.155 L 0.038,-0.169 H 0 V -0.313 H -0.082 V 0.072 Z M 0.071,-0.445 c 0.045,0 0.087,0.008 0.125,0.025 0.039,0.017 0.073,0.04 0.102,0.069 0.029,0.029 0.052,0.063 0.069,0.103 0.016,0.039 0.025,0.081 0.025,0.126 0,0.045 -0.009,0.087 -0.025,0.126 C 0.35,0.043 0.327,0.078 0.298,0.107 0.269,0.136 0.235,0.159 0.196,0.175 0.158,0.192 0.116,0.2 0.071,0.2 0.026,0.2 -0.017,0.192 -0.056,0.175 -0.096,0.159 -0.131,0.136 -0.16,0.107 -0.189,0.078 -0.212,0.043 -0.228,0.004 c -0.017,-0.039 -0.025,-0.081 -0.025,-0.126 0,-0.045 0.008,-0.087 0.025,-0.126 0.016,-0.04 0.039,-0.074 0.068,-0.103 0.029,-0.029 0.064,-0.052 0.104,-0.069 0.039,-0.017 0.082,-0.025 0.127,-0.025 m 0,0.738 C 0.13,0.293 0.184,0.282 0.235,0.26 0.287,0.239 0.331,0.209 0.37,0.171 0.408,0.134 0.438,0.09 0.46,0.039 0.482,-0.011 0.493,-0.065 0.493,-0.122 0.493,-0.179 0.482,-0.233 0.46,-0.283 0.438,-0.333 0.408,-0.377 0.37,-0.414 0.331,-0.452 0.287,-0.482 0.235,-0.504 0.184,-0.526 0.13,-0.537 0.071,-0.537 c -0.06,0 -0.115,0.011 -0.167,0.033 -0.052,0.022 -0.097,0.052 -0.135,0.09 -0.038,0.037 -0.068,0.081 -0.09,0.131 -0.022,0.05 -0.033,0.104 -0.033,0.161 0,0.057 0.011,0.111 0.033,0.161 0.022,0.051 0.052,0.095 0.09,0.132 0.038,0.038 0.083,0.068 0.135,0.089 0.052,0.022 0.107,0.033 0.167,0.033"
             inkscape:connector-curvature="0"
             style="fill:#ffffff;fill-opacity:1" />
        </g>
      </g>
    </g>
    <path
       id="path916"
       d="m 98.396038,124.81872 c 0,0.11755 -0.07952,0.20225 -0.193615,0.20225 -0.11755,0 -0.19361,-0.0899 -0.19361,-0.20225 0,-0.11237 0.07606,-0.20226 0.19361,-0.20226 0.114095,0 0.193615,0.0899 0.193615,0.20226 z m -5.372764,-0.20226 c -0.122735,0 -0.193609,0.0899 -0.193609,0.20226 0,0.11236 0.07087,0.20225 0.193609,0.20225 0.112365,0 0.18843,-0.0847 0.18843,-0.20225 -0.0015,-0.11237 -0.07606,-0.20226 -0.18843,-0.20226 z m 2.03121,-0.005 c -0.09335,0 -0.150395,0.0605 -0.164225,0.1504 h 0.33018 c -0.01555,-0.0985 -0.07606,-0.1504 -0.165955,-0.1504 z m 1.863524,0.005 c -0.117549,0 -0.188424,0.0899 -0.188424,0.20226 0,0.11236 0.07088,0.20225 0.188424,0.20225 0.11755,0 0.193615,-0.0847 0.193615,-0.20225 0,-0.11237 -0.07606,-0.20226 -0.193615,-0.20226 z m 1.83068,0.45119 c 0,0.005 0.0052,0.009 0.0052,0.019 0,0.005 -0.0052,0.009 -0.0052,0.019 -0.0052,0.005 -0.0052,0.009 -0.0087,0.0139 -0.0052,0.005 -0.0087,0.009 -0.019,0.009 -0.0052,0.005 -0.0086,0.005 -0.019,0.005 -0.0052,0 -0.0087,0 -0.019,-0.005 -0.0052,0 -0.0087,-0.005 -0.0138,-0.009 -0.0052,-0.005 -0.0087,-0.009 -0.0087,-0.0139 -0.0052,-0.009 -0.0052,-0.0138 -0.0052,-0.019 0,-0.009 0,-0.0138 0.0052,-0.019 0,-0.009 0.0052,-0.0139 0.0087,-0.019 0.0052,-0.005 0.0086,-0.005 0.0138,-0.009 0.0087,-0.005 0.01385,-0.005 0.019,-0.005 0.0087,0 0.0138,0 0.019,0.005 0.0087,0.005 0.01385,0.005 0.019,0.009 0.0052,0.004 0.0035,0.0104 0.0087,0.019 z m -0.03805,0.0242 c 0.0087,0 0.0087,-0.005 0.01385,-0.005 0.0052,-0.005 0.0052,-0.009 0.0052,-0.0139 0,-0.005 0,-0.009 -0.0052,-0.0139 -0.0052,0 -0.0086,-0.005 -0.019,-0.005 h -0.02765 v 0.0605 h 0.01385 v -0.0242 h 0.0052 l 0.019,0.0242 h 0.01385 z m 1.294792,-5.96571 v 6.08499 c 0,0.4581 -0.371672,0.82977 -0.829772,0.82977 h -8.297703 c -0.4581,0 -0.82977,-0.37167 -0.82977,-0.82977 v -6.08499 c 0,-0.4581 0.37167,-0.82977 0.82977,-0.82977 h 8.297703 c 0.4581,0 0.829772,0.37167 0.829772,0.82977 z m -8.850885,2.41326 c 0,1.32244 1.073515,2.39423 2.394234,2.39423 0.4702,0 0.93176,-0.14175 1.322445,-0.39933 -1.260215,-1.02511 -1.25157,-2.95952 0,-3.98463 -0.390685,-0.2593 -0.852245,-0.39933 -1.322445,-0.39933 -1.320719,-0.001 -2.394234,1.07179 -2.394234,2.38906 z m 3.872259,1.88081 c 1.218725,-0.95078 1.21354,-2.80394 0,-3.7599 -1.213535,0.95596 -1.218725,2.81085 0,3.7599 z m -2.459919,1.31898 c 0,-0.15039 -0.09853,-0.24893 -0.25412,-0.25411 -0.07952,0 -0.164225,0.0242 -0.22127,0.11236 -0.0415,-0.0709 -0.112365,-0.11236 -0.2109,-0.11236 -0.06569,0 -0.13138,0.0242 -0.18324,0.0933 v -0.0761 H 91.5556 v 0.63443 h 0.141755 c 0,-0.32672 -0.0432,-0.52206 0.15558,-0.52206 0.176325,0 0.141755,0.17632 0.141755,0.52206 h 0.136565 c 0,-0.31635 -0.0432,-0.52206 0.15558,-0.52206 0.176325,0 0.141755,0.17287 0.141755,0.52206 h 0.14175 v -0.3976 z m 0.776179,-0.23683 h -0.136565 v 0.0761 c -0.0467,-0.057 -0.112365,-0.0933 -0.20226,-0.0933 -0.178054,0 -0.314619,0.14175 -0.314619,0.33363 0,0.19362 0.136565,0.33364 0.314619,0.33364 0.08989,0 0.155585,-0.0328 0.20226,-0.0934 v 0.0795 h 0.136565 z m 0.70012,0.44255 c 0,-0.25931 -0.39587,-0.14175 -0.39587,-0.26276 0,-0.0985 0.205715,-0.083 0.319805,-0.019 l 0.05705,-0.11237 c -0.1625,-0.10545 -0.522065,-0.10372 -0.522065,0.14175 0,0.24721 0.39587,0.14349 0.39587,0.25931 0,0.1089 -0.233375,0.10026 -0.35784,0.0138 l -0.0605,0.1089 c 0.193615,0.13138 0.563555,0.10373 0.563555,-0.12965 z m 0.611955,0.16077 -0.03805,-0.11756 c -0.06569,0.0363 -0.210895,0.0761 -0.210895,-0.0709 v -0.28696 h 0.226455 v -0.12793 h -0.226455 v -0.19361 h -0.141755 v 0.19361 h -0.13138 v 0.1262 h 0.13138 v 0.28869 c 0,0.30425 0.299065,0.24893 0.390685,0.18843 z m 0.229915,-0.23165 h 0.47539 c 0,-0.28005 -0.127925,-0.39068 -0.300795,-0.39068 -0.18324,0 -0.31462,0.13656 -0.31462,0.33363 0,0.35439 0.390685,0.41316 0.584295,0.24548 l -0.06569,-0.10372 c -0.134835,0.11063 -0.33882,0.10026 -0.37858,-0.0847 z m 1.021655,-0.37167 c -0.07952,-0.0346 -0.20053,-0.0311 -0.26276,0.0761 v -0.0761 h -0.141755 v 0.63443 h 0.141755 v -0.35784 c 0,-0.20053 0.164225,-0.17459 0.22127,-0.14521 z m 0.18324,0.31635 c 0,-0.19707 0.20053,-0.26103 0.35784,-0.14521 l 0.06569,-0.11236 c -0.20053,-0.15731 -0.56528,-0.0709 -0.56528,0.2593 0,0.34228 0.387225,0.41143 0.56528,0.2593 l -0.06569,-0.11236 c -0.15904,0.11236 -0.35784,0.045 -0.35784,-0.14867 z m 1.153034,-0.31635 h -0.14175 v 0.0761 c -0.143485,-0.19015 -0.516879,-0.083 -0.516879,0.24029 0,0.33191 0.387224,0.42699 0.516879,0.24029 v 0.0795 h 0.14175 z m 0.58257,0 c -0.0415,-0.0207 -0.19016,-0.0501 -0.262765,0.0761 v -0.0761 h -0.136565 v 0.63443 h 0.136565 v -0.35784 c 0,-0.19015 0.155585,-0.17805 0.221275,-0.14521 z m 0.69666,-0.25756 h -0.136565 v 0.33362 c -0.141755,-0.18842 -0.51688,-0.0882 -0.51688,0.24029 0,0.33537 0.388955,0.42526 0.51688,0.24029 v 0.0795 h 0.136565 z m 0.13138,-1.29825 v 0.0795 h 0.01385 v -0.0795 h 0.03285 v -0.0139 h -0.07952 v 0.0139 z m 0.114095,2.14011 c 0,-0.009 0,-0.019 -0.0052,-0.0276 -0.0052,-0.005 -0.0087,-0.0139 -0.01385,-0.019 -0.0052,-0.005 -0.01385,-0.009 -0.019,-0.0138 -0.0086,0 -0.019,-0.005 -0.02765,-0.005 -0.0052,0 -0.01385,0.005 -0.0242,0.005 -0.0087,0.005 -0.01385,0.009 -0.019,0.0138 -0.0087,0.005 -0.01385,0.0138 -0.01385,0.019 -0.0052,0.009 -0.0052,0.019 -0.0052,0.0276 0,0.005 0,0.0139 0.0052,0.0242 0,0.005 0.0052,0.0138 0.01385,0.019 0.0052,0.005 0.0087,0.009 0.019,0.0139 0.0086,0.005 0.019,0.005 0.0242,0.005 0.0087,0 0.019,0 0.02765,-0.005 0.0052,-0.005 0.01385,-0.009 0.019,-0.0139 0.0052,-0.005 0.0087,-0.0138 0.01385,-0.019 0.0052,-0.0104 0.0052,-0.019 0.0052,-0.0242 z m 0.05531,-2.15567 h -0.0242 l -0.02765,0.0605 -0.02765,-0.0605 h -0.0242 v 0.0934 h 0.01385 v -0.0709 l 0.02765,0.0605 h 0.019 l 0.0242,-0.0605 v 0.0709 h 0.019 z m 0.07606,-1.39159 c 0,-1.31727 -1.073515,-2.39078 -2.394234,-2.39078 -0.470205,0 -0.931765,0.14175 -1.322445,0.39932 1.246385,1.02512 1.2654,2.96471 0,3.98463 0.39068,0.25931 0.8557,0.39933 1.322445,0.39933 1.320719,0.002 2.394234,-1.07006 2.394234,-2.3925 z"
       inkscape:connector-curvature="0"
       style="fill:#bbbbbb;stroke-width:0.01728688;fill-opacity:1" />
    <path
       id="path994"
       d="m 55.799294,122.17748 c 0,0.3385 -0.1559,0.5918 -0.388,0.5918 -0.14705,0 -0.235649,-0.053 -0.297649,-0.119 l -0.0035,-0.93545 c 0.06555,-0.0725 0.155899,-0.124 0.301199,-0.124 0.22855,-0.002 0.388,0.257 0.388,0.58645 z m 3.173225,-3.12715 v 6.2366 c 0,0.4695 -0.38095,0.85045 -0.850445,0.85045 h -8.504463 c -0.4695,0 -0.850445,-0.381 -0.850445,-0.85045 v -6.2366 c 0,-0.4695 0.38095,-0.85045 0.850445,-0.85045 h 8.504463 c 0.4695,0 0.850445,0.381 0.850445,0.85045 z m -8.040258,3.563 c 0,-0.74945 -0.96207,-0.6148 -0.96207,-0.89825 0,-0.0975 0.0815,-0.1365 0.2144,-0.1365 0.19135,0 0.4341,0.0585 0.625435,0.1615 v -0.5918 c -0.20905,-0.083 -0.41635,-0.115 -0.625435,-0.115 -0.510265,0 -0.850445,0.266 -0.850445,0.71225 0,0.6963 0.95675,0.5829 0.95675,0.8841 0,0.117 -0.101,0.154 -0.24095,0.154 -0.20905,0 -0.4766,-0.087 -0.689215,-0.2 v 0.6006 c 0.2339,0.101 0.4713,0.1435 0.687445,0.1435 0.52444,-0.004 0.88411,-0.2605 0.88411,-0.71405 z m 1.220744,-1.53965 h -0.47835 v -0.5457 l -0.614804,0.131 -0.0036,2.01805 c 0,0.372 0.279949,0.6467 0.653779,0.6467 0.20555,0 0.3579,-0.035 0.44115,-0.0835 v -0.512 c -0.07975,0.03 -0.47835,0.147 -0.47835,-0.223 v -0.89475 h 0.47835 v -0.53685 z m 1.30756,0 c -0.08325,-0.03 -0.3774,-0.085 -0.52444,0.186 l -0.039,-0.186 h -0.54393 v 2.20585 h 0.628975 v -1.49535 c 0.14885,-0.195 0.4004,-0.1575 0.48015,-0.131 v -0.57935 z m 0.78312,0 h -0.63252 v 2.20585 h 0.63252 z m 0,-0.83805 -0.63252,0.1345 v 0.51205 l 0.63252,-0.1345 z m 2.173954,1.9277 c 0,-0.73175 -0.41635,-1.1304 -0.857535,-1.1304 -0.24625,0 -0.405749,0.117 -0.492549,0.1965 l -0.032,-0.156 H 54.4811 v 2.9376 l 0.628975,-0.133 0.0018,-0.71225 c 0.09035,0.0655 0.224999,0.1595 0.444699,0.1595 0.45005,-0.002 0.861075,-0.363 0.861075,-1.16225 z m 1.987915,0.02 c 0,-0.64495 -0.31185,-1.1534 -0.90891,-1.1534 -0.59886,0 -0.96207,0.50845 -0.96207,1.14985 0,0.7583 0.42875,1.1428 1.041795,1.1428 0.3012,0 0.526215,-0.069 0.698075,-0.163 v -0.50675 c -0.17185,0.087 -0.36855,0.14 -0.618345,0.14 -0.2445,0 -0.46065,-0.087 -0.489,-0.381 h 1.231375 c 0.0018,-0.035 0.007,-0.1665 0.007,-0.2285 z m -0.91423,-0.6396 c -0.1577,0 -0.3313,0.1185 -0.3313,0.402 h 0.65024 c 0,-0.2835 -0.1648,-0.402 -0.3189,-0.402 z"
       inkscape:connector-curvature="0"
       style="fill:#bbbbbb;stroke-width:0.01771765;fill-opacity:1" />
    <path
       id="path1005"
       d="m 70.81521,121.73101 c 0,0 0.134655,0.65909 0.164775,0.79729 h -0.59177 c 0.05847,-0.15769 0.28348,-0.77072 0.28348,-0.77072 -0.0035,0.005 0.05847,-0.16123 0.09391,-0.26399 z m 1.876295,-2.68068 v 6.23661 c 0,0.46951 -0.380925,0.85044 -0.850445,0.85044 h -8.504461 c -0.469515,0 -0.850445,-0.38093 -0.850445,-0.85044 v -6.23661 c 0,-0.46952 0.38093,-0.85045 0.850445,-0.85045 h 8.504461 c 0.46952,0 0.850445,0.38093 0.850445,0.85045 z m -7.503414,4.45067 1.119755,-2.74978 h -0.753 l -0.696304,1.87807 -0.07618,-0.38093 -0.248043,-1.26504 c -0.04075,-0.1754 -0.166545,-0.22501 -0.32246,-0.2321 h -1.146335 l -0.0124,0.0549 c 0.27994,0.0709 0.529755,0.17363 0.747685,0.30297 l 0.63429,2.39188 z m 1.672545,0.003 0.446485,-2.75332 h -0.71225 l -0.444715,2.75332 z m 2.478694,-0.90006 c 0.0035,-0.3136 -0.187805,-0.55279 -0.597084,-0.74946 -0.249815,-0.12579 -0.40219,-0.21084 -0.40219,-0.34017 0.0035,-0.11694 0.12934,-0.23742 0.40928,-0.23742 0.2321,-0.005 0.402189,0.0496 0.529754,0.10453 l 0.06379,0.0301 0.09744,-0.59531 c -0.13997,-0.0549 -0.363209,-0.11694 -0.637834,-0.11694 -0.70339,0 -1.19771,0.37562 -1.201255,0.91069 -0.0053,0.3951 0.354355,0.6148 0.62366,0.74769 0.274625,0.13465 0.36853,0.22324 0.36853,0.34194 -0.0035,0.18427 -0.223245,0.26931 -0.426995,0.26931 -0.283485,0 -0.435855,-0.0443 -0.667955,-0.14705 l -0.0939,-0.0443 -0.09922,0.61834 c 0.166545,0.0762 0.474835,0.14352 0.79375,0.14706 0.747685,0.002 1.234919,-0.36853 1.240234,-0.93904 z m 2.50173,0.90006 -0.57405,-2.75332 h -0.55102 c -0.17009,0 -0.299425,0.0496 -0.37207,0.22855 l -1.05774,2.52477 h 0.74768 c 0,0 0.122255,-0.34018 0.14883,-0.41282 h 0.91423 c 0.02125,0.0974 0.08505,0.41282 0.08505,0.41282 z"
       inkscape:connector-curvature="0"
       style="fill:#bbbbbb;stroke-width:0.01771763;fill-opacity:1" />
    <g
       id="g1100"
       transform="matrix(0.49999987,0,0,0.49999987,17.674243,63.068708)"
       style="fill:#bbbbbb;fill-opacity:1">
      <g
         transform="translate(133.04762,-22.055256)"
         id="g1085"
         style="fill:#bbbbbb;fill-opacity:1">
        <path
           id="path1016"
           d="m -79.135427,141.79843 c -0.389423,-0.37204 -0.990945,-0.3477 -1.401232,0 l -3.031945,2.56951 c -0.37204,0.3164 -0.834481,0.48678 -1.314307,0.48678 h -3.883812 c -0.288591,0 -0.525027,-0.25035 -0.525027,-0.55632 0,-0.30598 0.236436,-0.55632 0.525027,-0.55632 h 2.569505 c 0.525026,0 1.00833,-0.379 1.091778,-0.92489 0.107787,-0.6954 -0.399855,-1.30039 -1.036146,-1.30039 h -5.25375 c -0.886637,0 -1.745457,0.32336 -2.430426,0.91445 l -1.526403,1.31083 h -1.821949 c -0.288591,0 -0.525028,0.25034 -0.525028,0.55632 v 3.33792 c 0,0.30598 0.236437,0.55632 0.525028,0.55632 h 11.71402 c 0.476349,0 0.938791,-0.17037 1.314307,-0.48678 l 4.965159,-4.20717 c 0.500689,-0.42072 0.538935,-1.22738 0.0452,-1.70026 z"
           inkscape:connector-curvature="0"
           style="fill:#bbbbbb;stroke-width:0.03477002;fill-opacity:1"
           sodipodi:nodetypes="cccssssscssccsssssccc" />
        <path
           id="path1072"
           d="m -85.2284,134.00233 c -1.116529,0 -2.021628,1.05588 -2.021628,2.35857 0,1.30247 0.905099,2.35856 2.021628,2.35856 1.116107,0 2.021629,-1.05566 2.021629,-2.35856 0,-1.30269 -0.905101,-2.35857 -2.021629,-2.35857 z m 0.842345,3.53785 c 0,0.0931 -0.07539,0.16847 -0.168469,0.16847 h -1.347752 c -0.09308,0 -0.16847,-0.0754 -0.16847,-0.16847 v -0.33694 c 0,-0.0931 0.07539,-0.16847 0.16847,-0.16847 h 0.336938 v -1.16749 l -0.0099,0.007 a 0.16830058,0.16830058 0 0 1 -0.23354,-0.0468 l -0.187001,-0.28029 a 0.16830058,0.16830058 0 0 1 0.04675,-0.23354 l 0.322829,-0.21522 a 0.50519656,0.50519656 0 0 1 0.28029,-0.0849 h 0.285976 c 0.09308,0 0.16847,0.0754 0.16847,0.16847 v 1.85316 h 0.336937 c 0.09308,0 0.16847,0.0754 0.16847,0.16847 z m 5.222541,-5.22254 h -12.129772 c -0.372106,0 -0.673876,0.30177 -0.673876,0.67388 v 6.73876 c 0,0.37211 0.30177,0.67387 0.673876,0.67387 h 12.129772 c 0.372105,0 0.673875,-0.30176 0.673875,-0.67387 v -6.73876 c 0,-0.37211 -0.30177,-0.67388 -0.673875,-0.67388 z m -0.336939,5.72795 c -0.744422,0 -1.347752,0.60333 -1.347752,1.34775 h -8.760391 c 0,-0.74442 -0.603329,-1.34775 -1.347752,-1.34775 v -3.36938 c 0.744423,0 1.347752,-0.60333 1.347752,-1.34776 h 8.760391 c 0,0.74443 0.60333,1.34776 1.347752,1.34776 z"
           inkscape:connector-curvature="0"
           style="fill:#bbbbbb;stroke-width:0.02105863;fill-opacity:1" />
      </g>
    </g>
  </g>
</svg>
