<svg xmlns="http://www.w3.org/2000/svg" viewBox="0 0 1300 2000"><defs><style>.cls-1{fill:#e4f2e5;}.cls-2,.cls-3,.cls-4,.cls-5,.cls-6,.cls-7,.cls-8,.cls-9{fill:none;stroke:#646464;stroke-miterlimit:10;}.cls-2,.cls-3,.cls-7,.cls-8,.cls-9{stroke-width:3px;}.cls-3{stroke-dasharray:10.01 10.01;}.cls-5{stroke-dasharray:9.99 9.99;}.cls-6{stroke-dasharray:10 10;}.cls-7{stroke-dasharray:10.01 10.01;}.cls-8{stroke-dasharray:10.01 10.01;}.cls-9{stroke-dasharray:9.99 9.99;}.cls-10,.cls-14{font-size:35px;font-family:GTPressura-Bold, GT Pressura;font-weight:700;}.cls-11{letter-spacing:-0.02em;}.cls-12{letter-spacing:-0.02em;}.cls-13{letter-spacing:-0.02em;}.cls-14{letter-spacing:0.07em;}.cls-15{letter-spacing:-0.01em;}.cls-16{letter-spacing:-0.03em;}.cls-17{letter-spacing:-0.08em;}.cls-18{letter-spacing:-0.03em;}.cls-19{letter-spacing:-0.04em;}.cls-20{letter-spacing:-0.01em;}.cls-21{letter-spacing:-0.04em;}.cls-22{letter-spacing:-0.02em;}.cls-23{letter-spacing:0em;}.cls-24{letter-spacing:-0.04em;}.cls-25{letter-spacing:-0.03em;}.cls-26{letter-spacing:-0.03em;}.cls-27{letter-spacing:-0.02em;}.cls-28{letter-spacing:-0.03em;}.cls-29{letter-spacing:-0.06em;}.cls-30{letter-spacing:-0.04em;}</style></defs><title>fablab tarif</title><g id="fond"><polygon class="cls-1" points="1200 600 1200 599 900 600 800 700 100 700 100 500 800 500 900 400 1200 400 1200 600"/><polygon class="cls-1" points="1200 1000 1200 999 900 1000 800 1100 100 1100 100 900 800 900 900 800 1200 800 1200 1000"/><polygon class="cls-1" points="1200 1400 1200 1399 900 1400 800 1500 100 1500 100 1300 800 1300 900 1200 1200 1200 1200 1400"/><polygon class="cls-1" points="1200 1800 1200 1799 900 1800 800 1900 100 1900 100 1700 800 1700 900 1600 1200 1600 1200 1800"/></g><g id="grille"><line class="cls-2" x1="500" y1="298.82" x2="500" y2="303.82"/><line class="cls-3" x1="500" y1="313.83" x2="500" y2="1890"/><line class="cls-2" x1="500" y1="1895" x2="500" y2="1900"/><line class="cls-4" x1="800" y1="301.18" x2="800" y2="306.18"/><line class="cls-5" x1="800" y1="316.17" x2="800" y2="1890"/><line class="cls-4" x1="800" y1="1895" x2="800" y2="1900"/><line class="cls-4" x1="900" y1="200" x2="900" y2="205"/><line class="cls-6" x1="900" y1="215" x2="900" y2="1789.5"/><line class="cls-4" x1="900" y1="1794.5" x2="900" y2="1799.5"/><line class="cls-2" x1="100" y1="500" x2="105" y2="500"/><polyline class="cls-7" points="115.01 500 800 500 900 400 1189.99 400"/><line class="cls-2" x1="1195" y1="400" x2="1200" y2="400"/><line class="cls-2" x1="100" y1="1900" x2="105" y2="1900"/><polyline class="cls-8" points="115.01 1900 800 1900 900 1800 1189.99 1800"/><polyline class="cls-2" points="1195 1800 1200 1800 1200 1795"/><line class="cls-9" x1="1200" y1="1785.01" x2="1200" y2="211.59"/><line class="cls-2" x1="1200" y1="206.6" x2="1200" y2="201.6"/></g><g id="texte"><text class="cls-10" transform="translate(172.59 563.85)">Découpeuse laser<tspan x="122.8" y="40">/</tspan><tspan x="47.88" y="80">30 minu</tspan><tspan class="cls-11" x="166.58" y="80">t</tspan><tspan x="179.85" y="80">es</tspan></text><text class="cls-10" transform="translate(273.7 763.85)">CNC<tspan x="21.7" y="40">/</tspan><tspan x="-53.23" y="80">30 minu</tspan><tspan class="cls-11" x="65.48" y="80">t</tspan><tspan x="78.74" y="80">es</tspan></text><text class="cls-10" transform="translate(174.27 963.85)">Découpeuse vinyl<tspan x="121.12" y="40">/</tspan><tspan x="46.2" y="80">30 minu</tspan><tspan class="cls-11" x="164.91" y="80">t</tspan><tspan x="178.17" y="80">es</tspan></text><text class="cls-10"><tspan x="195.1" y="1203.85">Impriman</tspan><tspan class="cls-11" x="335.08" y="1203.85">t</tspan><tspan x="348.35" y="1203.85">e 3D</tspan></text><text class="cls-10" transform="translate(233.44 1363.85)"><tspan class="cls-12">M</tspan><tspan x="24.69" y="0">achines </tspan><tspan class="cls-11" x="-23.11" y="40">e</tspan><tspan x="-6.49" y="40">t outillages </tspan><tspan x="-43.42" y="80">con</tspan><tspan class="cls-12" x="10.11" y="80">v</tspan><tspan x="27.56" y="80">entionn</tspan><tspan class="cls-13" x="141.05" y="80">e</tspan><tspan x="157.8" y="80">ls</tspan></text><text class="cls-14" transform="translate(530.21 404.85)">NON<tspan class="cls-15" x="68.8" y="0"> </tspan><tspan x="76.33" y="0">-</tspan><tspan class="cls-15" x="93.39" y="0"> </tspan><tspan x="100.92" y="0">MEMBRE</tspan></text><text class="cls-10" transform="translate(100 124.85)">– <tspan class="cls-16" x="27.99" y="0">L</tspan><tspan x="42.93" y="0">es prix s</tspan><tspan class="cls-17" x="168.76" y="0">’</tspan><tspan x="174.85" y="0">en</tspan><tspan class="cls-11" x="210.67" y="0">t</tspan><tspan x="223.93" y="0">endent en f</tspan><tspan class="cls-18" x="393.94" y="0">r</tspan><tspan x="406.29" y="0">ancs suisses (CHF)</tspan><tspan class="cls-19" x="688.97" y="0">,</tspan><tspan x="696.73" y="0" xml:space="preserve"> hors t</tspan><tspan class="cls-20" x="793.65" y="0">a</tspan><tspan class="cls-21" x="811.17" y="0">x</tspan><tspan x="827.3" y="0">es</tspan><tspan class="cls-21" x="861.89" y="0">.</tspan><tspan x="0" y="40">– </tspan><tspan class="cls-16" x="27.99" y="40">L</tspan><tspan x="42.93" y="40">es prix sont indiqués sous </tspan><tspan class="cls-18" x="439.52" y="40">r</tspan><tspan x="451.87" y="40">éser</tspan><tspan class="cls-22" x="517.21" y="40">v</tspan><tspan class="cls-23" x="534.66" y="40">e de modification</tspan><tspan class="cls-21" x="793.67" y="40">.</tspan><tspan x="0" y="80">– </tspan><tspan class="cls-16" x="27.99" y="80">L</tspan><tspan x="42.93" y="80">es prix </tspan><tspan class="cls-24" x="151.62" y="80">e</tspan><tspan class="cls-21" x="167.63" y="80">x</tspan><tspan x="183.77" y="80">cluent la matiè</tspan><tspan class="cls-18" x="407.15" y="80">r</tspan><tspan x="419.5" y="80">e p</tspan><tspan class="cls-25" x="463.02" y="80">r</tspan><tspan x="475.37" y="80">emiè</tspan><tspan class="cls-26" x="546.29" y="80">r</tspan><tspan class="cls-27" x="558.65" y="80">e</tspan><tspan class="cls-21" x="575.4" y="80">.</tspan></text><text class="cls-10" transform="translate(607.82 603.85)">2<tspan class="cls-28" x="18.27" y="0">0</tspan><tspan x="36.54" y="0">.00</tspan></text><text class="cls-10" transform="translate(1009.4 504.85)">1<tspan class="cls-28" x="15.11" y="0">0</tspan><tspan x="33.38" y="0">.00</tspan></text><text class="cls-10" transform="translate(607.82 803.85)">2<tspan class="cls-28" x="18.27" y="0">0</tspan><tspan x="36.54" y="0">.00</tspan></text><text class="cls-10" transform="translate(1009.4 704.85)">1<tspan class="cls-28" x="15.11" y="0">0</tspan><tspan x="33.38" y="0">.00</tspan></text><text class="cls-10" transform="translate(609.4 1003.85)">1<tspan class="cls-28" x="15.11" y="0">0</tspan><tspan x="33.38" y="0">.00</tspan></text><text class="cls-10" transform="translate(1016.4 903.85)">5.00</text><text class="cls-10" transform="translate(556.64 1164.85)">Dég<tspan class="cls-18" x="55.51" y="0">r</tspan><tspan x="67.86" y="0">essif en </tspan><tspan class="cls-16" x="8.05" y="40">f</tspan><tspan x="21.24" y="40">onction du </tspan><tspan class="cls-11" x="46.96" y="80">t</tspan><tspan x="60.22" y="80">emps</tspan></text><text class="cls-10" transform="translate(956.64 1064.85)">Dég<tspan class="cls-18" x="55.51" y="0">r</tspan><tspan x="67.86" y="0">essif en </tspan><tspan class="cls-16" x="8.05" y="40">f</tspan><tspan x="21.24" y="40">onction du </tspan><tspan class="cls-11" x="46.96" y="80">t</tspan><tspan x="60.22" y="80">emps</tspan></text><text class="cls-10" transform="translate(583.71 1403.85)">Prix lib<tspan class="cls-18" x="102.78" y="0">r</tspan><tspan x="115.13" y="0">e</tspan></text><text class="cls-10" transform="translate(983.71 1303.85)">Prix lib<tspan class="cls-18" x="102.78" y="0">r</tspan><tspan x="115.13" y="0">e</tspan></text><text class="cls-10" transform="translate(607.92 1603.85)">4<tspan class="cls-28" x="18.08" y="0">0</tspan><tspan x="36.35" y="0">.00</tspan></text><text class="cls-10" transform="translate(1007.82 1503.85)">2<tspan class="cls-28" x="18.27" y="0">0</tspan><tspan x="36.54" y="0">.00</tspan></text><text class="cls-10" transform="translate(590.3 1803.85)"><tspan class="cls-29">V</tspan><tspan x="17.18" y="0">aria</tspan><tspan class="cls-13" x="75.38" y="0">b</tspan><tspan x="92.87" y="0">le</tspan></text><text class="cls-10" transform="translate(1011.54 1703.85)">-50%</text><text class="cls-14" transform="translate(980.67 305.85)">MEMBRE</text><text class="cls-10" transform="translate(231.84 1803.85)"><tspan class="cls-30">W</tspan><tspan x="25.16" y="0">ork</tspan><tspan class="cls-16" x="73.37" y="0">s</tspan><tspan x="89.53" y="0">hop</tspan></text><text class="cls-10" transform="translate(228.2 1603.85)"><tspan class="cls-13">F</tspan><tspan x="15.91" y="0">ormation</tspan></text></g></svg>