<?xml version="1.0" encoding="UTF-8" standalone="no"?>
<svg
   xmlns:dc="http://purl.org/dc/elements/1.1/"
   xmlns:cc="http://creativecommons.org/ns#"
   xmlns:rdf="http://www.w3.org/1999/02/22-rdf-syntax-ns#"
   xmlns:svg="http://www.w3.org/2000/svg"
   xmlns="http://www.w3.org/2000/svg"
   xmlns:sodipodi="http://sodipodi.sourceforge.net/DTD/sodipodi-0.dtd"
   xmlns:inkscape="http://www.inkscape.org/namespaces/inkscape"
   viewBox="0 0 1102 702"
   version="1.1"
   id="svg369"
   sodipodi:docname="trainings.svg"
   width="1102"
   height="702"
   inkscape:version="1.0.2-2 (e86c870879, 2021-01-15)">
  <metadata
     id="metadata373">
    <rdf:RDF>
      <cc:Work
         rdf:about="">
        <dc:format>image/svg+xml</dc:format>
        <dc:type
           rdf:resource="http://purl.org/dc/dcmitype/StillImage" />
        <dc:title>fablab tarif formation</dc:title>
      </cc:Work>
    </rdf:RDF>
  </metadata>
  <sodipodi:namedview
     pagecolor="#ffffff"
     bordercolor="#666666"
     borderopacity="1"
     objecttolerance="10"
     gridtolerance="10"
     guidetolerance="10"
     inkscape:pageopacity="0"
     inkscape:pageshadow="2"
     inkscape:window-width="1827"
     inkscape:window-height="1057"
     id="namedview371"
     showgrid="false"
     fit-margin-top="0"
     fit-margin-left="0"
     fit-margin-right="0"
     fit-margin-bottom="0"
     inkscape:zoom="0.50615385"
     inkscape:cx="1500.7774"
     inkscape:cy="830.59589"
     inkscape:window-x="85"
     inkscape:window-y="-8"
     inkscape:window-maximized="1"
     inkscape:current-layer="layer2"
     showguides="true"
     inkscape:guide-bbox="true"
     inkscape:document-rotation="0">
    <sodipodi:guide
       position="556.36301,502.22851"
       orientation="0,1"
       id="guide2080"
       inkscape:locked="false" />
  </sodipodi:namedview>
  <defs
     id="defs4">
    <style
       id="style2">.cls-1{fill:#e4f2e5;}.cls-2,.cls-3,.cls-4,.cls-5{fill:none;stroke:#646464;stroke-miterlimit:10;}.cls-2,.cls-3{stroke-width:4px;}.cls-3,.cls-5{stroke-dasharray:10 10;}.cls-4,.cls-5{stroke-width:2px;}</style>
  </defs>
  <title
     id="title6">fablab tarif formation</title>
  <g
     inkscape:groupmode="layer"
     id="layer2"
     inkscape:label="Layer 1"
     style="display:inline"
     transform="translate(0,100)">
    <g
       id="g2160"
       transform="translate(0,-100)">
      <g
         transform="translate(-100)"
         id="fond">
        <polygon
           style="fill:#e4f2e5"
           id="polygon8"
           points="1200,500 1200,499 900,500 800,500 100,500 100,300 800,300 900,300 1200,300 "
           class="cls-1" />
      </g>
      <g
         transform="translate(-100)"
         id="grille">
        <line
           style="fill:none;stroke:#646464;stroke-width:4px;stroke-miterlimit:10"
           id="line11"
           y2="105"
           x2="600"
           y1="100"
           x1="600"
           class="cls-2" />
        <line
           style="fill:none;stroke:#646464;stroke-width:4px;stroke-miterlimit:10;stroke-dasharray:10, 10"
           id="line13"
           y2="690"
           x2="600"
           y1="115"
           x1="600"
           class="cls-3" />
        <line
           style="fill:none;stroke:#646464;stroke-width:4px;stroke-miterlimit:10"
           id="line15"
           y2="700"
           x2="600"
           y1="695"
           x1="600"
           class="cls-2" />
        <line
           style="fill:none;stroke:#646464;stroke-width:4px;stroke-miterlimit:10"
           id="line17"
           y2="105"
           x2="1200"
           y1="100"
           x1="1200"
           class="cls-2" />
        <line
           style="fill:none;stroke:#646464;stroke-width:4px;stroke-miterlimit:10;stroke-dasharray:10, 10"
           id="line19"
           y2="690"
           x2="1200"
           y1="115"
           x1="1200"
           class="cls-3" />
        <line
           style="fill:none;stroke:#646464;stroke-width:4px;stroke-miterlimit:10"
           id="line21"
           y2="700"
           x2="1200"
           y1="695"
           x1="1200"
           class="cls-2" />
        <line
           style="fill:none;stroke:#646464;stroke-width:2px;stroke-miterlimit:10"
           id="line23"
           y2="105"
           x2="900"
           y1="100"
           x1="900"
           class="cls-4" />
        <line
           style="fill:none;stroke:#646464;stroke-width:2px;stroke-miterlimit:10;stroke-dasharray:10, 10"
           id="line25"
           y2="690"
           x2="900"
           y1="115"
           x1="900"
           class="cls-5" />
        <line
           style="fill:none;stroke:#646464;stroke-width:2px;stroke-miterlimit:10"
           id="line27"
           y2="700"
           x2="900"
           y1="695"
           x1="900"
           class="cls-4" />
        <line
           style="fill:none;stroke:#646464;stroke-width:4px;stroke-miterlimit:10"
           id="line29"
           y2="300"
           x2="105"
           y1="300"
           x1="100"
           class="cls-2" />
        <polyline
           style="fill:none;stroke:#646464;stroke-width:4px;stroke-miterlimit:10;stroke-dasharray:10, 10"
           id="polyline31"
           points="115 300 800 300 900 300 1190 300"
           class="cls-3" />
        <line
           style="fill:none;stroke:#646464;stroke-width:4px;stroke-miterlimit:10"
           id="line33"
           y2="300"
           x2="1200"
           y1="300"
           x1="1195"
           class="cls-2" />
        <line
           style="fill:none;stroke:#646464;stroke-width:4px;stroke-miterlimit:10"
           id="line35"
           y2="700"
           x2="105"
           y1="700"
           x1="100"
           class="cls-2" />
        <polyline
           style="fill:none;stroke:#646464;stroke-width:4px;stroke-miterlimit:10;stroke-dasharray:10, 10"
           id="polyline37"
           points="115 700 800 700 900 700 1190 700"
           class="cls-3" />
        <line
           style="fill:none;stroke:#646464;stroke-width:4px;stroke-miterlimit:10"
           id="line39"
           y2="700"
           x2="1200"
           y1="700"
           x1="1195"
           class="cls-2" />
      </g>
      <g
         transform="translate(-100)"
         id="texte">
        <path
           inkscape:connector-curvature="0"
           id="path270"
           d="M 709.4,404.15 V 400 a 1.26,1.26 0 0 1 0.1,-0.58 1,1 0 0 1 0.22,-0.29 l 9.11,-9.62 a 4.85,4.85 0 0 0 0.62,-1 2.88,2.88 0 0 0 0.35,-1.26 2.67,2.67 0 0 0 -0.66,-1.8 2.31,2.31 0 0 0 -1.85,-0.76 3,3 0 0 0 -2.1,0.7 2.4,2.4 0 0 0 -0.77,1.86 v 0.6 a 0.66,0.66 0 0 1 -0.22,0.49 0.68,0.68 0 0 1 -0.49,0.21 h -3.38 a 0.68,0.68 0 0 1 -0.49,-0.21 0.66,0.66 0 0 1 -0.22,-0.49 v -0.56 a 6.88,6.88 0 0 1 0.6,-2.87 7.6,7.6 0 0 1 1.63,-2.33 7.38,7.38 0 0 1 2.38,-1.55 7.91,7.91 0 0 1 5.82,0 7.09,7.09 0 0 1 2.36,1.55 7.59,7.59 0 0 1 1.59,2.33 7.06,7.06 0 0 1 0.59,2.87 6.69,6.69 0 0 1 -0.61,2.8 8.6,8.6 0 0 1 -1.59,2.38 l -6.6,7 a 0.5,0.5 0 0 0 -0.14,0.44 q 0,0.27 0.48,0.26 h 7.79 a 0.7,0.7 0 0 1 0.49,0.21 0.64,0.64 0 0 1 0.22,0.48 v 3.33 a 0.67,0.67 0 0 1 -0.21,0.49 0.68,0.68 0 0 1 -0.49,0.21 H 710.1 a 0.73,0.73 0 0 1 -0.7,-0.7 z" />
        <path
           inkscape:connector-curvature="0"
           id="path272"
           d="m 727.74,395.13 q -0.08,-1.27 -0.08,-2.57 0,-1.3 0.07,-2.53 0.07,-1.23 0.22,-2.36 a 9.37,9.37 0 0 1 0.82,-3 9,9 0 0 1 1.66,-2.45 7.57,7.57 0 0 1 2.37,-1.67 7.11,7.11 0 0 1 3,-0.61 7.19,7.19 0 0 1 3,0.61 7.73,7.73 0 0 1 2.39,1.67 8.94,8.94 0 0 1 1.68,2.45 9.3,9.3 0 0 1 0.83,3 q 0.14,1.13 0.19,2.36 0.05,1.23 0.05,2.53 0,1.3 -0.05,2.56 -0.05,1.26 -0.19,2.36 a 9.4,9.4 0 0 1 -0.83,3 9.11,9.11 0 0 1 -1.68,2.48 7.65,7.65 0 0 1 -2.39,1.69 7.15,7.15 0 0 1 -3,0.62 7.08,7.08 0 0 1 -3,-0.62 7.49,7.49 0 0 1 -2.37,-1.69 9.21,9.21 0 0 1 -1.66,-2.48 9.47,9.47 0 0 1 -0.82,-3 q -0.13,-1.08 -0.21,-2.35 z m 4.83,-2.57 a 43.14,43.14 0 0 0 0.27,5 3.38,3.38 0 0 0 0.92,2 2.88,2.88 0 0 0 4,0 3.4,3.4 0 0 0 0.92,-2 44.37,44.37 0 0 0 0.28,-5 39.55,39.55 0 0 0 -0.28,-5 3.4,3.4 0 0 0 -0.92,-2 2.87,2.87 0 0 0 -4,0 3.41,3.41 0 0 0 -0.92,2 43.14,43.14 0 0 0 -0.27,5 z" />
        <path
           inkscape:connector-curvature="0"
           id="path274"
           d="m 746.17,404.15 v -4.2 a 0.71,0.71 0 0 1 0.19,-0.49 0.58,0.58 0 0 1 0.44,-0.21 h 3.81 a 0.58,0.58 0 0 1 0.44,0.21 0.71,0.71 0 0 1 0.19,0.49 v 4.2 a 0.72,0.72 0 0 1 -0.19,0.49 0.57,0.57 0 0 1 -0.45,0.21 h -3.81 a 0.58,0.58 0 0 1 -0.44,-0.21 0.7,0.7 0 0 1 -0.18,-0.49 z" />
        <path
           inkscape:connector-curvature="0"
           id="path276"
           d="m 755.21,395.13 q -0.08,-1.27 -0.08,-2.57 0,-1.3 0.07,-2.53 0.07,-1.23 0.22,-2.36 a 9.37,9.37 0 0 1 0.82,-3 9,9 0 0 1 1.66,-2.45 7.56,7.56 0 0 1 2.37,-1.67 7.11,7.11 0 0 1 3,-0.61 7.19,7.19 0 0 1 3,0.61 7.72,7.72 0 0 1 2.39,1.67 8.92,8.92 0 0 1 1.68,2.45 9.33,9.33 0 0 1 0.83,3 q 0.14,1.13 0.19,2.36 0.05,1.23 0.05,2.53 0,1.3 -0.05,2.56 -0.05,1.26 -0.19,2.36 a 9.43,9.43 0 0 1 -0.83,3 9.1,9.1 0 0 1 -1.68,2.48 7.64,7.64 0 0 1 -2.39,1.69 7.16,7.16 0 0 1 -3,0.62 7.07,7.07 0 0 1 -3,-0.62 7.48,7.48 0 0 1 -2.37,-1.69 9.19,9.19 0 0 1 -1.66,-2.48 9.47,9.47 0 0 1 -0.82,-3 q -0.14,-1.08 -0.21,-2.35 z m 4.83,-2.57 a 43.15,43.15 0 0 0 0.27,5 3.39,3.39 0 0 0 0.92,2 2.88,2.88 0 0 0 4,0 3.39,3.39 0 0 0 0.92,-2 44.37,44.37 0 0 0 0.28,-5 39.55,39.55 0 0 0 -0.28,-5 3.39,3.39 0 0 0 -0.92,-2 2.87,2.87 0 0 0 -4,0 3.42,3.42 0 0 0 -0.92,2 43.15,43.15 0 0 0 -0.31,5 z" />
        <path
           inkscape:connector-curvature="0"
           id="path278"
           d="m 774.52,395.13 q -0.08,-1.27 -0.08,-2.57 0,-1.3 0.07,-2.53 0.07,-1.23 0.22,-2.36 a 9.4,9.4 0 0 1 0.82,-3 9.06,9.06 0 0 1 1.66,-2.45 7.57,7.57 0 0 1 2.37,-1.67 7.11,7.11 0 0 1 3,-0.61 7.2,7.2 0 0 1 3,0.61 7.75,7.75 0 0 1 2.39,1.67 9,9 0 0 1 1.68,2.45 9.33,9.33 0 0 1 0.83,3 q 0.14,1.13 0.19,2.36 0.05,1.23 0.05,2.53 0,1.3 -0.05,2.56 -0.05,1.26 -0.19,2.36 a 9.43,9.43 0 0 1 -0.83,3 9.14,9.14 0 0 1 -1.68,2.48 7.66,7.66 0 0 1 -2.39,1.69 7.16,7.16 0 0 1 -3,0.62 7.07,7.07 0 0 1 -3,-0.62 7.49,7.49 0 0 1 -2.37,-1.69 9.24,9.24 0 0 1 -1.66,-2.48 9.5,9.5 0 0 1 -0.82,-3 q -0.14,-1.08 -0.21,-2.35 z m 4.83,-2.57 a 43.15,43.15 0 0 0 0.27,5 3.38,3.38 0 0 0 0.92,2 2.88,2.88 0 0 0 4,0 3.4,3.4 0 0 0 0.92,-2 44.59,44.59 0 0 0 0.28,-5 39.91,39.91 0 0 0 -0.28,-5 3.4,3.4 0 0 0 -0.92,-2 2.86,2.86 0 0 0 -4,0 3.41,3.41 0 0 0 -0.92,2 43.15,43.15 0 0 0 -0.28,5 z" />
        <path
           inkscape:connector-curvature="0"
           id="path280"
           d="M 1009.4,404.15 V 400 a 1.26,1.26 0 0 1 0.1,-0.58 1,1 0 0 1 0.22,-0.29 l 9.11,-9.62 a 4.89,4.89 0 0 0 0.62,-1 2.87,2.87 0 0 0 0.35,-1.26 2.67,2.67 0 0 0 -0.66,-1.8 2.31,2.31 0 0 0 -1.85,-0.76 3,3 0 0 0 -2.1,0.7 2.4,2.4 0 0 0 -0.77,1.86 v 0.6 a 0.66,0.66 0 0 1 -0.22,0.49 0.68,0.68 0 0 1 -0.49,0.21 h -3.38 a 0.68,0.68 0 0 1 -0.49,-0.21 0.66,0.66 0 0 1 -0.22,-0.49 v -0.56 a 6.88,6.88 0 0 1 0.6,-2.87 7.59,7.59 0 0 1 1.63,-2.33 7.37,7.37 0 0 1 2.39,-1.55 7.91,7.91 0 0 1 5.82,0 7.09,7.09 0 0 1 2.36,1.55 7.59,7.59 0 0 1 1.58,2.33 7.06,7.06 0 0 1 0.59,2.87 6.71,6.71 0 0 1 -0.61,2.8 8.64,8.64 0 0 1 -1.59,2.38 l -6.6,7 a 0.49,0.49 0 0 0 -0.14,0.44 c 0,0.18 0.18,0.26 0.48,0.26 h 7.79 a 0.7,0.7 0 0 1 0.49,0.21 0.64,0.64 0 0 1 0.22,0.48 v 3.33 a 0.66,0.66 0 0 1 -0.22,0.49 0.68,0.68 0 0 1 -0.49,0.21 h -13.82 a 0.73,0.73 0 0 1 -0.7,-0.7 z" />
        <path
           inkscape:connector-curvature="0"
           id="path282"
           d="m 1027.74,395.13 q -0.08,-1.27 -0.08,-2.57 0,-1.3 0.07,-2.53 0.07,-1.23 0.22,-2.36 a 9.37,9.37 0 0 1 0.82,-3 9,9 0 0 1 1.66,-2.45 7.56,7.56 0 0 1 2.37,-1.67 7.11,7.11 0 0 1 3,-0.61 7.19,7.19 0 0 1 3,0.61 7.72,7.72 0 0 1 2.39,1.67 8.92,8.92 0 0 1 1.68,2.45 9.33,9.33 0 0 1 0.83,3 q 0.14,1.13 0.19,2.36 0.05,1.23 0.05,2.53 0,1.3 -0.05,2.56 -0.05,1.26 -0.19,2.36 a 9.43,9.43 0 0 1 -0.83,3 9.1,9.1 0 0 1 -1.68,2.48 7.64,7.64 0 0 1 -2.39,1.69 7.16,7.16 0 0 1 -3,0.62 7.07,7.07 0 0 1 -3,-0.62 7.48,7.48 0 0 1 -2.37,-1.69 9.19,9.19 0 0 1 -1.66,-2.48 9.47,9.47 0 0 1 -0.82,-3 q -0.13,-1.08 -0.21,-2.35 z m 4.83,-2.57 a 43.15,43.15 0 0 0 0.27,5 3.39,3.39 0 0 0 0.92,2 2.88,2.88 0 0 0 4,0 3.39,3.39 0 0 0 0.92,-2 44.37,44.37 0 0 0 0.28,-5 39.55,39.55 0 0 0 -0.28,-5 3.39,3.39 0 0 0 -0.92,-2 2.87,2.87 0 0 0 -4,0 3.42,3.42 0 0 0 -0.92,2 43.15,43.15 0 0 0 -0.27,5 z" />
        <path
           inkscape:connector-curvature="0"
           id="path284"
           d="m 1046.17,404.15 v -4.2 a 0.71,0.71 0 0 1 0.19,-0.49 0.58,0.58 0 0 1 0.44,-0.21 h 3.81 a 0.58,0.58 0 0 1 0.44,0.21 0.71,0.71 0 0 1 0.19,0.49 v 4.2 a 0.72,0.72 0 0 1 -0.19,0.49 0.57,0.57 0 0 1 -0.45,0.21 h -3.81 a 0.58,0.58 0 0 1 -0.44,-0.21 0.7,0.7 0 0 1 -0.18,-0.49 z" />
        <path
           inkscape:connector-curvature="0"
           id="path286"
           d="m 1055.21,395.13 q -0.08,-1.27 -0.08,-2.57 0,-1.3 0.07,-2.53 0.07,-1.23 0.22,-2.36 a 9.4,9.4 0 0 1 0.82,-3 9,9 0 0 1 1.66,-2.45 7.56,7.56 0 0 1 2.37,-1.67 7.1,7.1 0 0 1 3,-0.61 7.2,7.2 0 0 1 3,0.61 7.73,7.73 0 0 1 2.39,1.67 8.94,8.94 0 0 1 1.68,2.45 9.35,9.35 0 0 1 0.83,3 q 0.14,1.13 0.19,2.36 0.05,1.23 0.05,2.53 0,1.3 -0.05,2.56 -0.05,1.26 -0.19,2.36 a 9.45,9.45 0 0 1 -0.83,3 9.12,9.12 0 0 1 -1.68,2.48 7.65,7.65 0 0 1 -2.39,1.69 7.16,7.16 0 0 1 -3,0.62 7.07,7.07 0 0 1 -3,-0.62 7.48,7.48 0 0 1 -2.37,-1.69 9.22,9.22 0 0 1 -1.66,-2.48 9.5,9.5 0 0 1 -0.82,-3 q -0.14,-1.08 -0.21,-2.35 z m 4.83,-2.57 a 43.16,43.16 0 0 0 0.27,5 3.4,3.4 0 0 0 0.92,2 2.88,2.88 0 0 0 4,0 3.38,3.38 0 0 0 0.92,-2 44.59,44.59 0 0 0 0.28,-5 39.91,39.91 0 0 0 -0.28,-5 3.38,3.38 0 0 0 -0.92,-2 2.86,2.86 0 0 0 -4,0 3.42,3.42 0 0 0 -0.92,2 43.17,43.17 0 0 0 -0.31,5 z" />
        <path
           inkscape:connector-curvature="0"
           id="path288"
           d="m 1074.52,395.13 q -0.08,-1.27 -0.08,-2.57 0,-1.3 0.07,-2.53 0.07,-1.23 0.22,-2.36 a 9.37,9.37 0 0 1 0.82,-3 9,9 0 0 1 1.66,-2.45 7.57,7.57 0 0 1 2.37,-1.67 7.11,7.11 0 0 1 3,-0.61 7.19,7.19 0 0 1 3,0.61 7.73,7.73 0 0 1 2.39,1.67 8.94,8.94 0 0 1 1.68,2.45 9.3,9.3 0 0 1 0.83,3 q 0.14,1.13 0.19,2.36 0.05,1.23 0.05,2.53 0,1.3 -0.05,2.56 -0.05,1.26 -0.19,2.36 a 9.4,9.4 0 0 1 -0.83,3 9.11,9.11 0 0 1 -1.68,2.48 7.65,7.65 0 0 1 -2.39,1.69 7.15,7.15 0 0 1 -3,0.62 7.08,7.08 0 0 1 -3,-0.62 7.49,7.49 0 0 1 -2.37,-1.69 9.21,9.21 0 0 1 -1.66,-2.48 9.47,9.47 0 0 1 -0.82,-3 q -0.13,-1.08 -0.21,-2.35 z m 4.83,-2.57 a 43.14,43.14 0 0 0 0.27,5 3.38,3.38 0 0 0 0.92,2 2.88,2.88 0 0 0 4,0 3.4,3.4 0 0 0 0.92,-2 44.37,44.37 0 0 0 0.28,-5 39.55,39.55 0 0 0 -0.28,-5 3.4,3.4 0 0 0 -0.92,-2 2.87,2.87 0 0 0 -4,0 3.41,3.41 0 0 0 -0.92,2 43.14,43.14 0 0 0 -0.28,5 z" />
        <path
           inkscape:connector-curvature="0"
           id="path290"
           d="m 690.5,581.2 a 0.84,0.84 0 0 1 0,-0.17 1.1,1.1 0 0 1 0.12,-0.39 0.6,0.6 0 0 1 0.56,-0.29 H 695 a 0.6,0.6 0 0 1 0.67,0.53 l 3.86,16.42 c 0,0.16 0.13,0.24 0.24,0.24 H 700 c 0.11,0 0.2,-0.08 0.26,-0.24 l 3.81,-16.42 a 0.6,0.6 0 0 1 0.67,-0.53 h 3.85 a 0.61,0.61 0 0 1 0.58,0.27 0.86,0.86 0 0 1 0.08,0.58 l -6,23.12 a 0.67,0.67 0 0 1 -0.67,0.53 h -5.28 a 0.63,0.63 0 0 1 -0.67,-0.53 z" />
        <path
           inkscape:connector-curvature="0"
           id="path292"
           d="m 709,599.47 a 5.25,5.25 0 0 1 0.37,-1.87 5.39,5.39 0 0 1 1.12,-1.77 5.84,5.84 0 0 1 1.89,-1.32 A 6.37,6.37 0 0 1 715,594 h 3.57 a 0.32,0.32 0 0 0 0.36,-0.34 v -0.56 a 1.82,1.82 0 0 0 -0.77,-1.61 3.35,3.35 0 0 0 -1.94,-0.53 4.74,4.74 0 0 0 -0.64,0.05 3.54,3.54 0 0 0 -0.74,0.19 1.93,1.93 0 0 0 -0.65,0.4 1.36,1.36 0 0 0 -0.38,0.69 q -0.1,0.46 -0.28,0.56 a 1.52,1.52 0 0 1 -0.68,0.1 h -2.52 a 0.67,0.67 0 0 1 -0.49,-0.21 0.67,0.67 0 0 1 -0.21,-0.49 4.42,4.42 0 0 1 0.47,-2 5.27,5.27 0 0 1 1.33,-1.68 6.64,6.64 0 0 1 2.12,-1.18 8.45,8.45 0 0 1 2.83,-0.44 7.58,7.58 0 0 1 5.09,1.63 5.84,5.84 0 0 1 1.91,4.71 v 10.85 a 0.67,0.67 0 0 1 -0.21,0.49 0.66,0.66 0 0 1 -0.48,0.21 h -1.75 a 0.61,0.61 0 0 1 -0.47,-0.24 1.56,1.56 0 0 1 -0.26,-0.45 0.41,0.41 0 0 0 -0.43,-0.25 1,1 0 0 0 -0.55,0.21 8.31,8.31 0 0 1 -0.81,0.45 8,8 0 0 1 -1.18,0.46 5.62,5.62 0 0 1 -1.66,0.21 7.15,7.15 0 0 1 -4.83,-1.51 5.33,5.33 0 0 1 -1.75,-4.25 z m 4.27,0 a 1.57,1.57 0 0 0 0.68,1.43 2.92,2.92 0 0 0 1.62,0.44 5.42,5.42 0 0 0 2.52,-0.53 2,2 0 0 0 1,-1.92 v -0.85 a 0.33,0.33 0 0 0 -0.36,-0.36 H 715 a 1.78,1.78 0 0 0 -0.91,0.2 1.64,1.64 0 0 0 -0.54,0.48 1.72,1.72 0 0 0 -0.26,0.58 2.31,2.31 0 0 0 -0.04,0.55 z" />
        <path
           inkscape:connector-curvature="0"
           id="path294"
           d="m 727.48,604.15 v -16.1 a 0.68,0.68 0 0 1 0.21,-0.49 0.66,0.66 0 0 1 0.5,-0.21 h 1.74 a 1,1 0 0 1 0.44,0.12 0.57,0.57 0 0 1 0.3,0.34 q 0.17,0.46 0.33,1 a 0.63,0.63 0 0 0 0.62,0.5 1.08,1.08 0 0 0 0.75,-0.3 8.5,8.5 0 0 1 0.85,-0.67 5.9,5.9 0 0 1 1.32,-0.67 6,6 0 0 1 2.08,-0.3 h 1.2 a 0.73,0.73 0 0 1 0.7,0.7 v 2.8 a 0.73,0.73 0 0 1 -0.7,0.7 h -1.23 a 5,5 0 0 0 -3.27,1.05 3.9,3.9 0 0 0 -1.27,3.19 v 8.36 a 0.68,0.68 0 0 1 -0.21,0.49 0.66,0.66 0 0 1 -0.5,0.21 h -3.14 a 0.73,0.73 0 0 1 -0.7,-0.7 z" />
        <path
           inkscape:connector-curvature="0"
           id="path296"
           d="m 740.78,584.34 v -3.78 a 0.58,0.58 0 0 1 0.15,-0.38 0.51,0.51 0 0 1 0.41,-0.18 h 3.78 a 0.53,0.53 0 0 1 0.4,0.17 0.56,0.56 0 0 1 0.16,0.39 v 3.78 a 0.5,0.5 0 0 1 -0.56,0.56 h -3.78 a 0.5,0.5 0 0 1 -0.56,-0.56 z m 0.17,19.94 v -16.37 a 0.56,0.56 0 0 1 0.16,-0.38 0.52,0.52 0 0 1 0.4,-0.18 H 745 a 0.51,0.51 0 0 1 0.39,0.17 0.57,0.57 0 0 1 0.15,0.39 v 16.37 a 0.58,0.58 0 0 1 -0.15,0.38 0.49,0.49 0 0 1 -0.39,0.18 h -3.44 a 0.53,0.53 0 0 1 -0.4,-0.17 0.55,0.55 0 0 1 -0.16,-0.38 z" />
        <path
           inkscape:connector-curvature="0"
           id="path298"
           d="m 749.27,599.47 a 5.25,5.25 0 0 1 0.37,-1.87 5.37,5.37 0 0 1 1.12,-1.77 5.82,5.82 0 0 1 1.89,-1.32 6.37,6.37 0 0 1 2.64,-0.51 h 3.57 a 0.32,0.32 0 0 0 0.36,-0.34 v -0.56 a 1.82,1.82 0 0 0 -0.77,-1.61 3.35,3.35 0 0 0 -1.94,-0.53 4.76,4.76 0 0 0 -0.64,0.05 3.51,3.51 0 0 0 -0.74,0.19 1.91,1.91 0 0 0 -0.65,0.4 1.35,1.35 0 0 0 -0.39,0.69 c -0.07,0.31 -0.16,0.5 -0.28,0.56 a 1.52,1.52 0 0 1 -0.68,0.1 h -2.52 a 0.73,0.73 0 0 1 -0.7,-0.7 4.41,4.41 0 0 1 0.47,-2 5.27,5.27 0 0 1 1.33,-1.68 6.65,6.65 0 0 1 2.12,-1.18 8.45,8.45 0 0 1 2.83,-0.44 7.58,7.58 0 0 1 5.09,1.63 5.85,5.85 0 0 1 1.91,4.71 v 10.85 a 0.67,0.67 0 0 1 -0.21,0.49 0.66,0.66 0 0 1 -0.48,0.21 h -1.75 a 0.61,0.61 0 0 1 -0.47,-0.24 1.58,1.58 0 0 1 -0.26,-0.45 0.41,0.41 0 0 0 -0.43,-0.25 1.06,1.06 0 0 0 -0.55,0.21 8,8 0 0 1 -2,0.91 5.62,5.62 0 0 1 -1.66,0.21 7.15,7.15 0 0 1 -4.83,-1.51 5.33,5.33 0 0 1 -1.75,-4.25 z m 4.27,0 a 1.57,1.57 0 0 0 0.68,1.43 2.92,2.92 0 0 0 1.62,0.44 5.42,5.42 0 0 0 2.52,-0.53 2,2 0 0 0 1,-1.92 v -0.85 A 0.33,0.33 0 0 0 759,597.68 h -3.71 a 1.79,1.79 0 0 0 -0.91,0.2 1.64,1.64 0 0 0 -0.54,0.48 1.7,1.7 0 0 0 -0.26,0.58 2.31,2.31 0 0 0 -0.03,0.55 z" />
        <path
           inkscape:connector-curvature="0"
           id="path300"
           d="M 768,604.15 V 580.7 a 0.73,0.73 0 0 1 0.7,-0.7 h 3.14 a 0.69,0.69 0 0 1 0.49,0.21 0.67,0.67 0 0 1 0.21,0.5 v 5.95 c 0,0.4 0.11,0.65 0.33,0.75 a 0.85,0.85 0 0 0 0.73,0 6.64,6.64 0 0 1 0.85,-0.3 4.79,4.79 0 0 1 1.26,-0.13 6.26,6.26 0 0 1 2.54,0.51 6.62,6.62 0 0 1 2,1.38 7,7 0 0 1 1.42,2.07 7.46,7.46 0 0 1 0.65,2.55 q 0,0.53 0.05,1.21 0.05,0.68 0,1.42 0,0.74 0,1.42 0,0.68 -0.05,1.21 a 7.4,7.4 0 0 1 -0.65,2.55 7.06,7.06 0 0 1 -1.42,2.06 6.62,6.62 0 0 1 -2,1.38 6.26,6.26 0 0 1 -2.54,0.51 5,5 0 0 1 -1.56,-0.2 6.58,6.58 0 0 1 -1,-0.41 q -0.4,-0.21 -0.68,-0.4 a 1.19,1.19 0 0 0 -0.67,-0.19 0.72,0.72 0 0 0 -0.49,0.19 5,5 0 0 0 -0.38,0.38 0.7,0.7 0 0 1 -0.5,0.24 h -1.74 a 0.73,0.73 0 0 1 -0.7,-0.7 z m 4.46,-9.47 q 0,0.68 0,1.42 0,0.74 0,1.42 0,0.68 0.05,1.21 a 2.16,2.16 0 0 0 0.72,1.5 2.81,2.81 0 0 0 1.95,0.59 2.68,2.68 0 0 0 1.91,-0.61 2.29,2.29 0 0 0 0.73,-1.48 q 0,-0.53 0.05,-1.21 0.05,-0.68 0,-1.42 0,-0.73 0,-1.42 0,-0.69 -0.05,-1.21 A 2.2,2.2 0 0 0 777,592 a 2.71,2.71 0 0 0 -1.91,-0.61 3,3 0 0 0 -1.95,0.54 2.09,2.09 0 0 0 -0.72,1.55 q 0.01,0.52 -0.01,1.2 z" />
        <path
           inkscape:connector-curvature="0"
           id="path302"
           d="M 785.44,604.15 V 580.7 a 0.73,0.73 0 0 1 0.7,-0.7 h 3.14 a 0.69,0.69 0 0 1 0.49,0.21 0.66,0.66 0 0 1 0.21,0.5 v 23.45 a 0.68,0.68 0 0 1 -0.21,0.49 0.66,0.66 0 0 1 -0.5,0.21 h -3.14 a 0.73,0.73 0 0 1 -0.7,-0.7 z" />
        <path
           inkscape:connector-curvature="0"
           id="path304"
           d="m 793.76,597.52 q 0,-0.68 0,-1.42 0,-0.74 0,-1.42 c 0,-0.46 0.06,-0.86 0.1,-1.21 a 8.65,8.65 0 0 1 0.71,-2.55 6.59,6.59 0 0 1 1.46,-2.06 6.93,6.93 0 0 1 2.18,-1.38 7.54,7.54 0 0 1 2.86,-0.51 8.78,8.78 0 0 1 2.91,0.46 6.29,6.29 0 0 1 2.27,1.35 6.2,6.2 0 0 1 1.48,2.17 7.65,7.65 0 0 1 0.53,3 v 2.91 a 0.66,0.66 0 0 1 -0.22,0.49 0.68,0.68 0 0 1 -0.49,0.21 h -9 a 0.47,0.47 0 0 0 -0.53,0.53 2.76,2.76 0 0 0 0.91,2.24 3.28,3.28 0 0 0 2.18,0.76 4.1,4.1 0 0 0 1.71,-0.32 2.12,2.12 0 0 0 1.06,-1.17 0.83,0.83 0 0 1 0.8,-0.61 h 2.91 a 0.76,0.76 0 0 1 0.49,0.17 q 0.21,0.17 0.11,0.6 a 7.54,7.54 0 0 1 -2.37,4 6.91,6.91 0 0 1 -4.72,1.55 7.54,7.54 0 0 1 -2.86,-0.51 6.93,6.93 0 0 1 -2.18,-1.38 6.56,6.56 0 0 1 -1.46,-2.07 8.73,8.73 0 0 1 -0.71,-2.55 c -0.07,-0.42 -0.11,-0.8 -0.13,-1.28 z M 798,593.3 c 0,0.21 0.12,0.31 0.34,0.32 h 5.35 q 0.34,0 0.34,-0.32 a 1.94,1.94 0 0 0 -0.24,-1 1.85,1.85 0 0 0 -0.67,-0.68 3.81,3.81 0 0 0 -1,-0.4 4.26,4.26 0 0 0 -1.11,-0.15 3.67,3.67 0 0 0 -2.28,0.6 1.93,1.93 0 0 0 -0.73,1.63 z" />
        <path
           inkscape:connector-curvature="0"
           id="path306"
           d="m 990.5,581.2 a 0.84,0.84 0 0 1 0,-0.17 1.09,1.09 0 0 1 0.12,-0.39 0.6,0.6 0 0 1 0.56,-0.29 H 995 a 0.6,0.6 0 0 1 0.67,0.53 l 3.86,16.42 c 0,0.16 0.13,0.24 0.24,0.24 h 0.21 c 0.11,0 0.2,-0.08 0.26,-0.24 l 3.81,-16.42 a 0.6,0.6 0 0 1 0.67,-0.53 h 3.84 a 0.61,0.61 0 0 1 0.58,0.27 0.84,0.84 0 0 1 0.1,0.41 0.92,0.92 0 0 1 0,0.17 l -6,23.12 a 0.66,0.66 0 0 1 -0.67,0.53 h -5.28 a 0.63,0.63 0 0 1 -0.67,-0.53 z" />
        <path
           inkscape:connector-curvature="0"
           id="path308"
           d="m 1009,599.47 a 5.27,5.27 0 0 1 0.37,-1.87 5.4,5.4 0 0 1 1.12,-1.77 5.83,5.83 0 0 1 1.89,-1.32 6.37,6.37 0 0 1 2.62,-0.51 h 3.57 a 0.32,0.32 0 0 0 0.36,-0.34 v -0.56 a 1.82,1.82 0 0 0 -0.77,-1.61 3.35,3.35 0 0 0 -1.94,-0.53 4.74,4.74 0 0 0 -0.64,0.05 3.53,3.53 0 0 0 -0.74,0.19 1.92,1.92 0 0 0 -0.65,0.4 1.36,1.36 0 0 0 -0.39,0.69 q -0.1,0.46 -0.28,0.56 a 1.53,1.53 0 0 1 -0.68,0.1 h -2.52 a 0.73,0.73 0 0 1 -0.7,-0.7 4.41,4.41 0 0 1 0.47,-2 5.27,5.27 0 0 1 1.33,-1.68 6.65,6.65 0 0 1 2.12,-1.18 8.45,8.45 0 0 1 2.83,-0.44 7.59,7.59 0 0 1 5.09,1.63 5.85,5.85 0 0 1 1.91,4.71 v 10.85 a 0.67,0.67 0 0 1 -0.21,0.49 0.66,0.66 0 0 1 -0.48,0.21 h -1.75 a 0.61,0.61 0 0 1 -0.47,-0.24 1.58,1.58 0 0 1 -0.26,-0.45 0.41,0.41 0 0 0 -0.43,-0.25 1.05,1.05 0 0 0 -0.55,0.21 8.17,8.17 0 0 1 -0.81,0.45 8.05,8.05 0 0 1 -1.18,0.46 5.63,5.63 0 0 1 -1.66,0.21 7.15,7.15 0 0 1 -4.83,-1.51 5.33,5.33 0 0 1 -1.74,-4.25 z m 4.27,0 a 1.57,1.57 0 0 0 0.68,1.43 2.92,2.92 0 0 0 1.62,0.44 5.43,5.43 0 0 0 2.52,-0.53 2,2 0 0 0 1,-1.92 v -0.85 a 0.33,0.33 0 0 0 -0.36,-0.36 H 1015 a 1.78,1.78 0 0 0 -0.91,0.2 1.64,1.64 0 0 0 -0.54,0.48 1.7,1.7 0 0 0 -0.26,0.58 2.26,2.26 0 0 0 -0.04,0.55 z" />
        <path
           inkscape:connector-curvature="0"
           id="path310"
           d="m 1027.49,604.15 v -16.1 a 0.68,0.68 0 0 1 0.21,-0.49 0.66,0.66 0 0 1 0.5,-0.21 h 1.74 a 1,1 0 0 1 0.44,0.12 0.57,0.57 0 0 1 0.3,0.34 q 0.17,0.46 0.33,1 a 0.62,0.62 0 0 0 0.62,0.5 1.08,1.08 0 0 0 0.75,-0.3 8.61,8.61 0 0 1 0.85,-0.67 5.91,5.91 0 0 1 1.32,-0.67 6,6 0 0 1 2.08,-0.3 h 1.2 a 0.73,0.73 0 0 1 0.7,0.7 v 2.8 a 0.73,0.73 0 0 1 -0.7,0.7 h -1.23 a 5,5 0 0 0 -3.27,1.05 3.89,3.89 0 0 0 -1.27,3.19 v 8.36 a 0.68,0.68 0 0 1 -0.21,0.49 0.66,0.66 0 0 1 -0.5,0.21 h -3.14 a 0.73,0.73 0 0 1 -0.7,-0.7 z" />
        <path
           inkscape:connector-curvature="0"
           id="path312"
           d="m 1040.78,584.34 v -3.78 a 0.58,0.58 0 0 1 0.15,-0.38 0.51,0.51 0 0 1 0.41,-0.18 h 3.78 a 0.53,0.53 0 0 1 0.4,0.17 0.55,0.55 0 0 1 0.16,0.39 v 3.78 a 0.5,0.5 0 0 1 -0.56,0.56 h -3.78 a 0.5,0.5 0 0 1 -0.56,-0.56 z m 0.17,19.94 v -16.37 a 0.56,0.56 0 0 1 0.16,-0.38 0.52,0.52 0 0 1 0.4,-0.18 h 3.49 a 0.5,0.5 0 0 1 0.39,0.17 0.57,0.57 0 0 1 0.15,0.39 v 16.37 a 0.58,0.58 0 0 1 -0.15,0.38 0.49,0.49 0 0 1 -0.39,0.18 h -3.44 a 0.53,0.53 0 0 1 -0.4,-0.17 0.55,0.55 0 0 1 -0.16,-0.38 z" />
        <path
           inkscape:connector-curvature="0"
           id="path314"
           d="m 1049.28,599.47 a 5.23,5.23 0 0 1 0.37,-1.87 5.35,5.35 0 0 1 1.12,-1.77 5.83,5.83 0 0 1 1.89,-1.32 6.36,6.36 0 0 1 2.64,-0.51 h 3.57 a 0.32,0.32 0 0 0 0.36,-0.34 v -0.56 a 1.82,1.82 0 0 0 -0.77,-1.61 3.35,3.35 0 0 0 -1.94,-0.53 4.76,4.76 0 0 0 -0.64,0.05 3.52,3.52 0 0 0 -0.74,0.19 1.92,1.92 0 0 0 -0.65,0.4 1.35,1.35 0 0 0 -0.39,0.69 c -0.07,0.31 -0.16,0.5 -0.28,0.56 a 1.52,1.52 0 0 1 -0.68,0.1 h -2.52 a 0.73,0.73 0 0 1 -0.7,-0.7 4.42,4.42 0 0 1 0.47,-2 5.28,5.28 0 0 1 1.33,-1.68 6.64,6.64 0 0 1 2.12,-1.18 8.44,8.44 0 0 1 2.83,-0.44 7.58,7.58 0 0 1 5.09,1.63 5.84,5.84 0 0 1 1.91,4.71 v 10.85 a 0.67,0.67 0 0 1 -0.21,0.49 0.66,0.66 0 0 1 -0.48,0.21 h -1.75 a 0.61,0.61 0 0 1 -0.47,-0.24 1.56,1.56 0 0 1 -0.26,-0.45 0.41,0.41 0 0 0 -0.43,-0.25 1.05,1.05 0 0 0 -0.55,0.21 8.28,8.28 0 0 1 -0.81,0.45 8,8 0 0 1 -1.18,0.46 5.61,5.61 0 0 1 -1.66,0.21 7.15,7.15 0 0 1 -4.83,-1.51 5.33,5.33 0 0 1 -1.76,-4.25 z m 4.27,0 a 1.58,1.58 0 0 0 0.68,1.43 2.92,2.92 0 0 0 1.62,0.44 5.42,5.42 0 0 0 2.52,-0.53 2,2 0 0 0 1,-1.92 v -0.85 a 0.33,0.33 0 0 0 -0.36,-0.36 h -3.71 a 1.78,1.78 0 0 0 -0.91,0.2 1.64,1.64 0 0 0 -0.54,0.48 1.72,1.72 0 0 0 -0.27,0.58 2.37,2.37 0 0 0 -0.03,0.55 z" />
        <path
           inkscape:connector-curvature="0"
           id="path316"
           d="M 1068,604.15 V 580.7 a 0.73,0.73 0 0 1 0.7,-0.7 h 3.14 a 0.69,0.69 0 0 1 0.49,0.21 0.66,0.66 0 0 1 0.21,0.5 v 5.95 q 0,0.6 0.33,0.75 a 0.85,0.85 0 0 0 0.73,0 6.59,6.59 0 0 1 0.85,-0.3 4.79,4.79 0 0 1 1.26,-0.13 6.26,6.26 0 0 1 2.54,0.51 6.62,6.62 0 0 1 2,1.38 7.05,7.05 0 0 1 1.42,2.07 7.44,7.44 0 0 1 0.65,2.55 q 0,0.53 0.05,1.21 0.05,0.68 0,1.42 0,0.74 0,1.42 0,0.68 -0.05,1.21 a 7.38,7.38 0 0 1 -0.65,2.55 7.07,7.07 0 0 1 -1.42,2.06 6.62,6.62 0 0 1 -2,1.38 6.26,6.26 0 0 1 -2.54,0.51 5,5 0 0 1 -1.56,-0.2 6.56,6.56 0 0 1 -1,-0.41 c -0.27,-0.14 -0.49,-0.28 -0.68,-0.4 a 1.19,1.19 0 0 0 -0.67,-0.19 0.72,0.72 0 0 0 -0.49,0.19 4.94,4.94 0 0 0 -0.38,0.38 0.7,0.7 0 0 1 -0.5,0.24 h -1.74 a 0.73,0.73 0 0 1 -0.7,-0.7 z m 4.46,-9.47 q 0,0.68 0,1.42 0,0.74 0,1.42 0,0.68 0.05,1.21 a 2.16,2.16 0 0 0 0.72,1.5 2.81,2.81 0 0 0 1.95,0.59 2.68,2.68 0 0 0 1.91,-0.61 2.28,2.28 0 0 0 0.73,-1.48 q 0,-0.53 0.05,-1.21 0.05,-0.68 0,-1.42 0,-0.73 0,-1.42 0,-0.69 -0.05,-1.21 A 2.2,2.2 0 0 0 1077,592 a 2.71,2.71 0 0 0 -1.91,-0.61 3,3 0 0 0 -1.95,0.54 2.09,2.09 0 0 0 -0.72,1.55 q 0.01,0.52 -0.01,1.2 z" />
        <path
           inkscape:connector-curvature="0"
           id="path318"
           d="M 1085.44,604.15 V 580.7 a 0.73,0.73 0 0 1 0.7,-0.7 h 3.14 a 0.68,0.68 0 0 1 0.49,0.21 0.66,0.66 0 0 1 0.21,0.5 v 23.45 a 0.68,0.68 0 0 1 -0.21,0.49 0.66,0.66 0 0 1 -0.5,0.21 h -3.14 a 0.73,0.73 0 0 1 -0.7,-0.7 z" />
        <path
           inkscape:connector-curvature="0"
           id="path320"
           d="m 1093.76,597.52 q 0,-0.68 0,-1.42 0,-0.74 0,-1.42 0,-0.68 0.1,-1.21 a 8.65,8.65 0 0 1 0.72,-2.55 6.59,6.59 0 0 1 1.46,-2.06 6.91,6.91 0 0 1 2.18,-1.38 7.54,7.54 0 0 1 2.86,-0.51 8.78,8.78 0 0 1 2.91,0.46 6.29,6.29 0 0 1 2.27,1.35 6.21,6.21 0 0 1 1.48,2.17 7.65,7.65 0 0 1 0.53,3 v 2.91 a 0.67,0.67 0 0 1 -0.22,0.49 0.68,0.68 0 0 1 -0.49,0.21 h -9 a 0.47,0.47 0 0 0 -0.53,0.53 2.76,2.76 0 0 0 0.91,2.24 3.28,3.28 0 0 0 2.18,0.76 4.11,4.11 0 0 0 1.71,-0.32 2.12,2.12 0 0 0 1.06,-1.17 0.83,0.83 0 0 1 0.8,-0.61 h 2.91 a 0.76,0.76 0 0 1 0.49,0.17 q 0.21,0.17 0.11,0.6 a 7.53,7.53 0 0 1 -2.37,4 6.91,6.91 0 0 1 -4.72,1.55 7.54,7.54 0 0 1 -2.86,-0.51 6.91,6.91 0 0 1 -2.18,-1.38 6.56,6.56 0 0 1 -1.46,-2.07 8.73,8.73 0 0 1 -0.72,-2.55 q -0.1,-0.6 -0.13,-1.28 z m 4.27,-4.22 q 0,0.31 0.34,0.32 h 5.35 c 0.23,0 0.34,-0.11 0.34,-0.32 a 1.94,1.94 0 0 0 -0.24,-1 1.84,1.84 0 0 0 -0.67,-0.68 3.79,3.79 0 0 0 -1,-0.4 4.27,4.27 0 0 0 -1.11,-0.15 3.68,3.68 0 0 0 -2.28,0.6 1.93,1.93 0 0 0 -0.76,1.63 z" />
        <path
           inkscape:connector-curvature="0"
           id="path334"
           d="m 278.29,581 a 0.62,0.62 0 0 1 0,-0.15 0.41,0.41 0 0 1 0.12,-0.34 0.74,0.74 0 0 1 0.6,-0.21 h 3.5 a 0.6,0.6 0 0 1 0.67,0.53 L 286,596.3 c 0,0.16 0.1,0.25 0.24,0.26 h 0.22 c 0.14,0 0.22,-0.09 0.24,-0.26 l 2.34,-15.43 a 0.6,0.6 0 0 1 0.67,-0.53 h 3.14 a 0.6,0.6 0 0 1 0.67,0.53 l 2.38,15.43 a 0.26,0.26 0 0 0 0.26,0.26 h 0.21 c 0.14,0 0.22,-0.09 0.24,-0.26 l 2.87,-15.43 a 0.6,0.6 0 0 1 0.66,-0.53 h 3.49 a 0.74,0.74 0 0 1 0.6,0.2 0.54,0.54 0 0 1 0.12,0.34 0.76,0.76 0 0 1 0,0.15 l -4.71,23.28 a 0.6,0.6 0 0 1 -0.67,0.53 h -4.86 a 0.6,0.6 0 0 1 -0.67,-0.53 L 291.52,593 c 0,-0.14 -0.09,-0.21 -0.21,-0.21 -0.12,0 -0.18,0.07 -0.21,0.21 l -1.93,11.36 a 0.6,0.6 0 0 1 -0.67,0.53 h -4.85 a 0.6,0.6 0 0 1 -0.67,-0.53 z" />
        <path
           inkscape:connector-curvature="0"
           id="path336"
           d="m 304.75,597.52 q 0,-0.68 0,-1.42 0,-0.74 0,-1.42 0,-0.68 0.1,-1.21 a 8.7,8.7 0 0 1 0.71,-2.55 6.59,6.59 0 0 1 1.46,-2.06 6.88,6.88 0 0 1 2.17,-1.38 7.47,7.47 0 0 1 2.81,-0.48 7.74,7.74 0 0 1 2.89,0.51 6.72,6.72 0 0 1 2.19,1.38 7,7 0 0 1 1.47,2.07 8.4,8.4 0 0 1 0.74,2.55 q 0.07,0.53 0.1,1.21 0.03,0.68 0,1.42 0,0.74 0,1.42 0,0.68 -0.1,1.21 a 8.64,8.64 0 0 1 -0.72,2.55 6.59,6.59 0 0 1 -1.47,2.06 7,7 0 0 1 -2.19,1.38 8.28,8.28 0 0 1 -5.74,0 6.83,6.83 0 0 1 -2.19,-1.38 6.58,6.58 0 0 1 -1.46,-2.06 8.69,8.69 0 0 1 -0.71,-2.55 q -0.03,-0.57 -0.06,-1.25 z m 4.46,-2.84 q -0.05,0.68 -0.05,1.42 0,0.74 0.05,1.42 0,0.68 0.12,1.21 a 2.23,2.23 0 0 0 0.75,1.43 3.9,3.9 0 0 0 3.93,0 2.24,2.24 0 0 0 0.77,-1.41 q 0.07,-0.53 0.1,-1.21 0.03,-0.68 0,-1.42 0,-0.73 0,-1.42 0,-0.69 -0.1,-1.21 a 2.24,2.24 0 0 0 -0.77,-1.41 3,3 0 0 0 -2,-0.54 3.16,3.16 0 0 0 -1.94,0.47 2.28,2.28 0 0 0 -0.77,1.48 q -0.04,0.51 -0.09,1.19 z" />
        <path
           inkscape:connector-curvature="0"
           id="path338"
           d="m 323.08,604.15 v -16.1 a 0.68,0.68 0 0 1 0.21,-0.49 0.66,0.66 0 0 1 0.5,-0.21 h 1.74 a 1,1 0 0 1 0.44,0.12 0.57,0.57 0 0 1 0.3,0.34 q 0.17,0.46 0.33,1 a 0.63,0.63 0 0 0 0.62,0.5 1.08,1.08 0 0 0 0.75,-0.3 8.5,8.5 0 0 1 0.85,-0.67 5.9,5.9 0 0 1 1.32,-0.67 6,6 0 0 1 2.08,-0.3 h 1.2 a 0.73,0.73 0 0 1 0.7,0.7 v 2.8 a 0.73,0.73 0 0 1 -0.7,0.7 h -1.23 a 5,5 0 0 0 -3.27,1.05 3.9,3.9 0 0 0 -1.27,3.19 v 8.36 a 0.68,0.68 0 0 1 -0.21,0.49 0.66,0.66 0 0 1 -0.5,0.21 h -3.14 a 0.73,0.73 0 0 1 -0.7,-0.7 z" />
        <path
           inkscape:connector-curvature="0"
           id="path340"
           d="M 336.55,604.15 V 580.7 a 0.73,0.73 0 0 1 0.7,-0.7 h 3.14 a 0.68,0.68 0 0 1 0.49,0.21 0.66,0.66 0 0 1 0.21,0.5 v 12.22 c 0,0.11 0,0.18 0.14,0.19 a 0.21,0.21 0 0 0 0.21,-0.09 l 4.05,-5.21 a 1.11,1.11 0 0 1 0.3,-0.32 1,1 0 0 1 0.59,-0.15 h 3.45 a 0.62,0.62 0 0 1 0.68,0.44 0.77,0.77 0 0 1 -0.12,0.73 L 345.2,595 a 0.79,0.79 0 0 0 -0.24,0.49 1.07,1.07 0 0 0 0.27,0.57 l 5.71,7.66 a 0.83,0.83 0 0 1 0.17,0.48 0.68,0.68 0 0 1 -0.07,0.31 0.66,0.66 0 0 1 -0.67,0.38 h -3.64 a 0.91,0.91 0 0 1 -0.6,-0.17 1.26,1.26 0 0 1 -0.31,-0.36 l -4.37,-6 a 0.21,0.21 0 0 0 -0.21,-0.09 c -0.1,0 -0.14,0.07 -0.14,0.19 v 5.78 a 0.68,0.68 0 0 1 -0.21,0.49 0.66,0.66 0 0 1 -0.5,0.21 h -3.14 a 0.73,0.73 0 0 1 -0.7,-0.7 z" />
        <path
           inkscape:connector-curvature="0"
           id="path342"
           d="m 352.56,599.11 a 0.69,0.69 0 0 1 0.21,-0.49 0.64,0.64 0 0 1 0.48,-0.21 h 2.67 q 0.63,0 0.8,0.21 a 1.53,1.53 0 0 1 0.26,0.66 1.64,1.64 0 0 0 1,1.42 4.9,4.9 0 0 0 2.1,0.41 5.49,5.49 0 0 0 2.32,-0.42 1.32,1.32 0 0 0 0.89,-1.22 1,1 0 0 0 -0.27,-0.74 1.37,1.37 0 0 0 -0.74,-0.37 l -1,-0.23 q -0.57,-0.14 -1.16,-0.23 -1.06,-0.17 -2.29,-0.49 a 8.69,8.69 0 0 1 -2.28,-0.94 5.54,5.54 0 0 1 -1.75,-1.64 4.38,4.38 0 0 1 -0.7,-2.55 3.9,3.9 0 0 1 0.63,-2.15 5.94,5.94 0 0 1 1.63,-1.68 8.26,8.26 0 0 1 2.26,-1.09 8.37,8.37 0 0 1 2.52,-0.39 9.62,9.62 0 0 1 2.42,0.32 7.22,7.22 0 0 1 2.22,1 5.32,5.32 0 0 1 1.64,1.76 5,5 0 0 1 0.64,2.6 0.66,0.66 0 0 1 -0.21,0.48 0.67,0.67 0 0 1 -0.5,0.21 h -2.62 a 0.9,0.9 0 0 1 -0.51,-0.15 1,1 0 0 1 -0.3,-0.71 1.54,1.54 0 0 0 -1,-1.23 4.57,4.57 0 0 0 -1.83,-0.37 5,5 0 0 0 -2,0.35 1.15,1.15 0 0 0 -0.81,1.09 0.85,0.85 0 0 0 0.24,0.63 1.31,1.31 0 0 0 0.65,0.33 l 0.91,0.2 1,0.23 2.45,0.53 a 9.69,9.69 0 0 1 2.39,0.85 5,5 0 0 1 1.83,1.63 5,5 0 0 1 0.73,2.85 4.62,4.62 0 0 1 -0.6,2.34 5.88,5.88 0 0 1 -1.61,1.79 7.62,7.62 0 0 1 -2.36,1.16 9.79,9.79 0 0 1 -2.85,0.41 11.57,11.57 0 0 1 -2.79,-0.33 7.13,7.13 0 0 1 -2.4,-1.07 5.35,5.35 0 0 1 -1.67,-1.91 6,6 0 0 1 -0.64,-2.85 z" />
        <path
           inkscape:connector-curvature="0"
           id="path344"
           d="M 369.89,604.15 V 580.7 a 0.73,0.73 0 0 1 0.7,-0.7 h 3.14 a 0.69,0.69 0 0 1 0.49,0.21 0.66,0.66 0 0 1 0.21,0.5 v 5.95 a 0.82,0.82 0 0 0 0.28,0.68 0.79,0.79 0 0 0 0.78,0.05 l 0.85,-0.28 a 4.29,4.29 0 0 1 1.26,-0.15 6.59,6.59 0 0 1 6.12,4 6.23,6.23 0 0 1 0.53,2.55 v 10.68 a 0.73,0.73 0 0 1 -0.7,0.7 h -3.15 a 0.73,0.73 0 0 1 -0.7,-0.7 V 593.47 A 1.9,1.9 0 0 0 379,592 a 3.43,3.43 0 0 0 -3.9,0 1.9,1.9 0 0 0 -0.68,1.48 v 10.68 a 0.68,0.68 0 0 1 -0.21,0.49 0.66,0.66 0 0 1 -0.5,0.21 h -3.14 a 0.73,0.73 0 0 1 -0.7,-0.7 z" />
        <path
           inkscape:connector-curvature="0"
           id="path346"
           d="m 387.67,597.52 q 0,-0.68 0,-1.42 0,-0.74 0,-1.42 0,-0.68 0.1,-1.21 a 8.7,8.7 0 0 1 0.71,-2.55 6.59,6.59 0 0 1 1.46,-2.06 6.88,6.88 0 0 1 2.17,-1.38 7.47,7.47 0 0 1 2.89,-0.48 7.74,7.74 0 0 1 2.89,0.51 6.72,6.72 0 0 1 2.19,1.38 7,7 0 0 1 1.47,2.07 8.4,8.4 0 0 1 0.74,2.55 q 0.07,0.53 0.1,1.21 0.03,0.68 0,1.42 0,0.74 0,1.42 0,0.68 -0.1,1.21 a 8.64,8.64 0 0 1 -0.72,2.55 6.59,6.59 0 0 1 -1.47,2.06 7,7 0 0 1 -2.19,1.38 8.28,8.28 0 0 1 -5.74,0 6.83,6.83 0 0 1 -2.19,-1.38 6.58,6.58 0 0 1 -1.46,-2.06 8.69,8.69 0 0 1 -0.71,-2.55 q -0.11,-0.57 -0.14,-1.25 z m 4.46,-2.84 q -0.05,0.68 -0.05,1.42 0,0.74 0.05,1.42 0,0.68 0.12,1.21 a 2.23,2.23 0 0 0 0.75,1.43 3.9,3.9 0 0 0 3.93,0 2.24,2.24 0 0 0 0.77,-1.41 q 0.07,-0.53 0.1,-1.21 0.03,-0.68 0,-1.42 0,-0.73 0,-1.42 0,-0.69 -0.1,-1.21 a 2.24,2.24 0 0 0 -0.77,-1.41 3,3 0 0 0 -2,-0.54 3.16,3.16 0 0 0 -1.93,0.46 2.28,2.28 0 0 0 -0.77,1.48 q -0.05,0.52 -0.1,1.2 z" />
        <path
           inkscape:connector-curvature="0"
           id="path348"
           d="m 406,611.16 v -23.11 a 0.68,0.68 0 0 1 0.21,-0.49 0.66,0.66 0 0 1 0.5,-0.21 h 1.74 a 0.75,0.75 0 0 1 0.5,0.24 l 0.38,0.37 a 0.7,0.7 0 0 0 0.49,0.2 1.15,1.15 0 0 0 0.67,-0.19 6.65,6.65 0 0 1 0.68,-0.4 7.16,7.16 0 0 1 1,-0.41 4.92,4.92 0 0 1 1.55,-0.2 6.29,6.29 0 0 1 2.54,0.51 6.56,6.56 0 0 1 2,1.38 6.87,6.87 0 0 1 1.41,2.07 7.87,7.87 0 0 1 0.66,2.55 q 0,0.53 0.05,1.21 0.05,0.68 0,1.42 0,0.74 0,1.42 0,0.68 -0.05,1.21 a 7.38,7.38 0 0 1 -0.65,2.55 7,7 0 0 1 -1.42,2.06 6.56,6.56 0 0 1 -2,1.38 6.29,6.29 0 0 1 -2.54,0.51 4.8,4.8 0 0 1 -1.26,-0.13 5.79,5.79 0 0 1 -0.83,-0.3 0.86,0.86 0 0 0 -0.73,0 c -0.22,0.1 -0.33,0.35 -0.33,0.75 v 5.61 a 0.68,0.68 0 0 1 -0.21,0.49 0.66,0.66 0 0 1 -0.5,0.21 h -3.16 a 0.73,0.73 0 0 1 -0.7,-0.7 z m 4.46,-16.47 q 0,0.68 0,1.42 0,0.74 0,1.42 0,0.68 0.05,1.21 a 2.09,2.09 0 0 0 0.72,1.55 3,3 0 0 0 1.95,0.54 2.68,2.68 0 0 0 1.91,-0.61 2.21,2.21 0 0 0 0.71,-1.48 q 0,-0.53 0.05,-1.21 0.05,-0.68 0,-1.42 0,-0.73 0,-1.42 0,-0.69 -0.05,-1.21 a 2.2,2.2 0 0 0 -0.72,-1.48 2.68,2.68 0 0 0 -1.9,-0.61 2.81,2.81 0 0 0 -1.95,0.59 2.16,2.16 0 0 0 -0.72,1.5 q -0.03,0.52 -0.05,1.2 z" />
        <path
           inkscape:connector-curvature="0"
           id="path350"
           d="M 276.73,404.15 V 381 a 0.73,0.73 0 0 1 0.7,-0.7 h 12.25 a 0.73,0.73 0 0 1 0.7,0.7 v 3.5 a 0.73,0.73 0 0 1 -0.7,0.7 H 282 q -0.34,0 -0.34,0.36 v 4.19 a 0.32,0.32 0 0 0 0.34,0.36 h 7.35 a 0.68,0.68 0 0 1 0.49,0.21 0.66,0.66 0 0 1 0.21,0.5 v 3.5 a 0.68,0.68 0 0 1 -0.21,0.49 0.66,0.66 0 0 1 -0.5,0.21 H 282 a 0.3,0.3 0 0 0 -0.34,0.34 v 8.75 a 0.73,0.73 0 0 1 -0.7,0.7 h -3.5 a 0.73,0.73 0 0 1 -0.7,-0.7 z" />
        <path
           inkscape:connector-curvature="0"
           id="path352"
           d="m 291.87,397.52 q 0,-0.68 0,-1.42 0,-0.74 0,-1.42 0,-0.68 0.1,-1.21 a 8.67,8.67 0 0 1 0.71,-2.55 6.59,6.59 0 0 1 1.46,-2.06 6.88,6.88 0 0 1 2.17,-1.38 7.47,7.47 0 0 1 2.85,-0.51 7.74,7.74 0 0 1 2.89,0.51 6.71,6.71 0 0 1 2.19,1.38 7,7 0 0 1 1.47,2.07 8.42,8.42 0 0 1 0.74,2.55 q 0.07,0.53 0.1,1.21 0.03,0.68 0,1.42 0,0.74 0,1.42 0,0.68 -0.1,1.21 a 8.61,8.61 0 0 1 -0.72,2.55 6.6,6.6 0 0 1 -1.47,2.06 7,7 0 0 1 -2.19,1.38 8.29,8.29 0 0 1 -5.74,0 6.84,6.84 0 0 1 -2.19,-1.38 6.58,6.58 0 0 1 -1.46,-2.06 8.66,8.66 0 0 1 -0.71,-2.55 q -0.07,-0.54 -0.1,-1.22 z m 4.46,-2.84 q 0,0.68 -0.05,1.42 -0.05,0.74 0.05,1.42 0.05,0.68 0.12,1.21 a 2.23,2.23 0 0 0 0.75,1.43 3.9,3.9 0 0 0 3.93,0 2.24,2.24 0 0 0 0.77,-1.41 q 0.07,-0.53 0.1,-1.21 0.03,-0.68 0,-1.42 0,-0.73 0,-1.42 0,-0.69 -0.1,-1.21 a 2.24,2.24 0 0 0 -0.77,-1.41 3,3 0 0 0 -2,-0.54 3.16,3.16 0 0 0 -1.94,0.47 2.28,2.28 0 0 0 -0.77,1.48 q -0.04,0.51 -0.09,1.19 z" />
        <path
           inkscape:connector-curvature="0"
           id="path354"
           d="m 310.21,404.15 v -16.1 a 0.68,0.68 0 0 1 0.21,-0.49 0.66,0.66 0 0 1 0.5,-0.21 h 1.74 a 1,1 0 0 1 0.44,0.12 0.57,0.57 0 0 1 0.3,0.34 c 0.11,0.31 0.22,0.63 0.33,1 a 0.62,0.62 0 0 0 0.62,0.5 1.08,1.08 0 0 0 0.75,-0.3 8.52,8.52 0 0 1 0.85,-0.67 5.88,5.88 0 0 1 1.32,-0.67 6,6 0 0 1 2.08,-0.3 h 1.2 a 0.73,0.73 0 0 1 0.7,0.7 v 2.8 a 0.73,0.73 0 0 1 -0.7,0.7 h -1.25 a 5,5 0 0 0 -3.3,1.03 3.9,3.9 0 0 0 -1.27,3.19 v 8.36 a 0.68,0.68 0 0 1 -0.21,0.49 0.66,0.66 0 0 1 -0.5,0.21 h -3.14 a 0.73,0.73 0 0 1 -0.7,-0.7 z" />
        <path
           inkscape:connector-curvature="0"
           id="path356"
           d="m 323.5,404.15 v -16.1 a 0.68,0.68 0 0 1 0.21,-0.49 0.66,0.66 0 0 1 0.5,-0.21 h 1.74 a 0.85,0.85 0 0 1 0.63,0.24 4.66,4.66 0 0 1 0.38,0.44 0.66,0.66 0 0 0 0.56,0.23 1.45,1.45 0 0 0 0.74,-0.21 l 0.77,-0.44 a 9.24,9.24 0 0 1 0.94,-0.44 3.47,3.47 0 0 1 1.31,-0.21 4.57,4.57 0 0 1 2,0.39 10.21,10.21 0 0 1 1.5,0.91 1.34,1.34 0 0 0 0.77,0.28 1.41,1.41 0 0 0 0.82,-0.28 9.32,9.32 0 0 1 1.61,-0.9 5.24,5.24 0 0 1 2.14,-0.4 6.34,6.34 0 0 1 2.55,0.51 6.52,6.52 0 0 1 2.05,1.38 6.3,6.3 0 0 1 1.36,2.07 6.61,6.61 0 0 1 0.49,2.55 v 10.68 a 0.73,0.73 0 0 1 -0.7,0.7 h -3.15 a 0.73,0.73 0 0 1 -0.7,-0.7 v -10.72 a 2,2 0 0 0 -0.57,-1.46 2.27,2.27 0 0 0 -1.7,-0.59 2.53,2.53 0 0 0 -1.75,0.62 1.93,1.93 0 0 0 -0.66,1.48 v 10.68 a 0.73,0.73 0 0 1 -0.7,0.7 h -3.14 a 0.73,0.73 0 0 1 -0.7,-0.7 v -10.73 a 2,2 0 0 0 -0.58,-1.46 2.3,2.3 0 0 0 -1.71,-0.59 2.68,2.68 0 0 0 -1.79,0.56 1.71,1.71 0 0 0 -0.66,1.36 v 10.85 a 0.68,0.68 0 0 1 -0.21,0.49 0.66,0.66 0 0 1 -0.5,0.21 h -3.15 a 0.73,0.73 0 0 1 -0.7,-0.7 z" />
        <path
           inkscape:connector-curvature="0"
           id="path358"
           d="m 349.84,399.47 a 5.25,5.25 0 0 1 0.37,-1.87 5.39,5.39 0 0 1 1.12,-1.77 5.83,5.83 0 0 1 1.89,-1.32 6.37,6.37 0 0 1 2.64,-0.51 h 3.57 a 0.32,0.32 0 0 0 0.36,-0.34 v -0.56 a 1.82,1.82 0 0 0 -0.77,-1.61 3.35,3.35 0 0 0 -1.94,-0.53 4.74,4.74 0 0 0 -0.64,0.05 3.51,3.51 0 0 0 -0.74,0.19 1.92,1.92 0 0 0 -0.65,0.4 1.36,1.36 0 0 0 -0.39,0.69 q -0.1,0.46 -0.28,0.56 a 1.52,1.52 0 0 1 -0.68,0.1 h -2.52 a 0.73,0.73 0 0 1 -0.7,-0.7 4.41,4.41 0 0 1 0.47,-2 5.26,5.26 0 0 1 1.33,-1.68 6.64,6.64 0 0 1 2.12,-1.18 8.45,8.45 0 0 1 2.83,-0.44 7.58,7.58 0 0 1 5.09,1.63 5.85,5.85 0 0 1 1.91,4.71 v 10.85 a 0.67,0.67 0 0 1 -0.21,0.49 0.66,0.66 0 0 1 -0.48,0.21 h -1.75 a 0.61,0.61 0 0 1 -0.47,-0.24 1.58,1.58 0 0 1 -0.26,-0.45 0.41,0.41 0 0 0 -0.43,-0.25 1.05,1.05 0 0 0 -0.55,0.21 8.17,8.17 0 0 1 -0.81,0.45 8,8 0 0 1 -1.18,0.46 5.62,5.62 0 0 1 -1.66,0.21 7.15,7.15 0 0 1 -4.83,-1.51 5.33,5.33 0 0 1 -1.76,-4.25 z m 4.27,0 a 1.57,1.57 0 0 0 0.68,1.43 2.92,2.92 0 0 0 1.62,0.44 5.43,5.43 0 0 0 2.52,-0.53 2,2 0 0 0 1,-1.92 v -0.85 a 0.33,0.33 0 0 0 -0.36,-0.36 h -3.71 a 1.79,1.79 0 0 0 -0.91,0.2 1.64,1.64 0 0 0 -0.54,0.48 1.7,1.7 0 0 0 -0.26,0.58 2.31,2.31 0 0 0 -0.04,0.55 z" />
        <path
           inkscape:connector-curvature="0"
           id="path360"
           d="m 366.4,391 v -2.8 a 0.73,0.73 0 0 1 0.7,-0.7 h 2.75 a 0.3,0.3 0 0 0 0.34,-0.34 v -5.37 a 0.68,0.68 0 0 1 0.21,-0.49 0.67,0.67 0 0 1 0.49,-0.21 H 374 a 0.73,0.73 0 0 1 0.7,0.7 v 5.37 a 0.3,0.3 0 0 0 0.34,0.34 h 3.86 a 0.73,0.73 0 0 1 0.7,0.7 v 2.8 a 0.68,0.68 0 0 1 -0.21,0.49 0.66,0.66 0 0 1 -0.5,0.21 h -3.86 a 0.3,0.3 0 0 0 -0.34,0.34 v 6.34 a 2.08,2.08 0 0 0 0.57,1.48 2,2 0 0 0 1.54,0.61 h 2.45 a 0.67,0.67 0 0 1 0.49,0.22 0.68,0.68 0 0 1 0.21,0.49 v 3 a 0.69,0.69 0 0 1 -0.21,0.49 0.67,0.67 0 0 1 -0.49,0.22 h -2.44 a 6.79,6.79 0 0 1 -4.84,-1.71 6.17,6.17 0 0 1 -1.83,-4.74 V 392 a 0.3,0.3 0 0 0 -0.34,-0.34 h -2.7 a 0.73,0.73 0 0 1 -0.7,-0.7 z" />
        <path
           inkscape:connector-curvature="0"
           id="path362"
           d="m 382.44,384.34 v -3.78 a 0.58,0.58 0 0 1 0.15,-0.38 A 0.51,0.51 0 0 1 383,380 h 3.78 a 0.53,0.53 0 0 1 0.4,0.17 0.55,0.55 0 0 1 0.16,0.39 v 3.78 a 0.5,0.5 0 0 1 -0.56,0.56 H 383 a 0.5,0.5 0 0 1 -0.56,-0.56 z m 0.17,19.94 v -16.37 a 0.56,0.56 0 0 1 0.16,-0.38 0.52,0.52 0 0 1 0.4,-0.18 h 3.44 a 0.51,0.51 0 0 1 0.39,0.17 0.57,0.57 0 0 1 0.15,0.39 v 16.37 a 0.58,0.58 0 0 1 -0.15,0.38 0.49,0.49 0 0 1 -0.39,0.18 h -3.44 a 0.53,0.53 0 0 1 -0.4,-0.17 0.55,0.55 0 0 1 -0.15,-0.38 z" />
        <path
           inkscape:connector-curvature="0"
           id="path364"
           d="m 390.94,397.52 q 0,-0.68 0,-1.42 0,-0.74 0,-1.42 0,-0.68 0.1,-1.21 a 8.7,8.7 0 0 1 0.71,-2.55 6.59,6.59 0 0 1 1.46,-2.06 6.88,6.88 0 0 1 2.17,-1.38 7.47,7.47 0 0 1 2.85,-0.51 7.74,7.74 0 0 1 2.89,0.51 6.72,6.72 0 0 1 2.19,1.38 7,7 0 0 1 1.47,2.07 8.4,8.4 0 0 1 0.74,2.55 q 0.07,0.53 0.1,1.21 0.03,0.68 0,1.42 0,0.74 0,1.42 0,0.68 -0.1,1.21 a 8.64,8.64 0 0 1 -0.72,2.55 6.59,6.59 0 0 1 -1.47,2.06 7,7 0 0 1 -2.19,1.38 8.28,8.28 0 0 1 -5.74,0 6.83,6.83 0 0 1 -2.19,-1.38 6.58,6.58 0 0 1 -1.46,-2.06 8.69,8.69 0 0 1 -0.71,-2.55 q -0.04,-0.54 -0.1,-1.22 z m 4.46,-2.84 q -0.05,0.68 -0.05,1.42 0,0.74 0.05,1.42 0,0.68 0.12,1.21 a 2.23,2.23 0 0 0 0.75,1.43 3.9,3.9 0 0 0 3.93,0 2.24,2.24 0 0 0 0.77,-1.41 q 0.07,-0.53 0.1,-1.21 0.03,-0.68 0,-1.42 0,-0.73 0,-1.42 0,-0.69 -0.1,-1.21 a 2.24,2.24 0 0 0 -0.77,-1.41 3,3 0 0 0 -2,-0.54 3.16,3.16 0 0 0 -1.94,0.47 2.28,2.28 0 0 0 -0.77,1.48 q -0.04,0.51 -0.09,1.19 z" />
        <path
           inkscape:connector-curvature="0"
           id="path366"
           d="m 409.28,404.15 v -16.1 a 0.68,0.68 0 0 1 0.21,-0.49 0.66,0.66 0 0 1 0.5,-0.21 h 1.74 a 0.86,0.86 0 0 1 0.63,0.24 3,3 0 0 1 0.38,0.38 0.69,0.69 0 0 0 0.56,0.21 1.55,1.55 0 0 0 0.7,-0.18 l 0.79,-0.42 a 7.63,7.63 0 0 1 1,-0.43 4,4 0 0 1 1.35,-0.2 6.34,6.34 0 0 1 2.55,0.51 6.54,6.54 0 0 1 2.05,1.38 6.3,6.3 0 0 1 1.36,2.07 6.59,6.59 0 0 1 0.49,2.55 v 10.68 a 0.73,0.73 0 0 1 -0.7,0.7 h -3.15 a 0.66,0.66 0 0 1 -0.49,-0.21 0.67,0.67 0 0 1 -0.21,-0.49 v -10.71 a 1.85,1.85 0 0 0 -0.68,-1.46 2.87,2.87 0 0 0 -1.93,-0.59 3,3 0 0 0 -1.93,0.56 1.68,1.68 0 0 0 -0.7,1.36 v 10.85 a 0.68,0.68 0 0 1 -0.21,0.49 0.66,0.66 0 0 1 -0.5,0.21 H 410 a 0.73,0.73 0 0 1 -0.7,-0.7 z" />
        <g
           aria-label="DEMI-TARIF"
           id="text1109-8"
           style="font-style:normal;font-weight:normal;font-size:35.0409px;line-height:1.25;font-family:sans-serif;letter-spacing:0px;word-spacing:0px;display:inline;fill:#000000;fill-opacity:1;stroke:none;stroke-width:0.876021">
          <path
             d="m 970.24914,205.85901 h 6.86802 c 3.78441,0 6.37744,-1.92725 7.60387,-4.66044 0.91107,-2.03237 0.98115,-4.4502 0.98115,-7.60388 0,-3.15368 -0.0701,-5.5715 -0.98115,-7.60387 -1.22643,-2.73319 -3.81946,-4.66044 -7.60387,-4.66044 h -6.86802 c -0.38545,0 -0.70082,0.31537 -0.70082,0.70082 v 23.12699 c 0,0.38545 0.31537,0.70082 0.70082,0.70082 z m 4.55532,-4.94077 c -0.21025,0 -0.35041,-0.14016 -0.35041,-0.35041 v -13.94628 c 0,-0.21024 0.14016,-0.3504 0.35041,-0.3504 h 2.3127 c 1.57684,0 2.59302,0.59569 3.0836,1.68196 0.45553,1.01618 0.49057,3.53913 0.49057,5.64158 0,2.10246 -0.035,4.6254 -0.49057,5.64159 -0.49058,1.08627 -1.50676,1.68196 -3.0836,1.68196 z"
             style="font-style:normal;font-variant:normal;font-weight:normal;font-stretch:normal;font-family:'GT Pressura';-inkscape-font-specification:'GT Pressura';stroke-width:0.876021"
             id="path900" />
          <path
             d="m 990.43264,205.85901 h 12.86006 c 0.3854,0 0.7008,-0.31537 0.7008,-0.70082 v -3.50409 c 0,-0.38545 -0.3154,-0.70082 -0.7008,-0.70082 h -8.30474 c -0.21025,0 -0.35041,-0.14016 -0.35041,-0.35041 v -4.2049 c 0,-0.21025 0.14016,-0.35041 0.35041,-0.35041 h 7.88424 c 0.3854,0 0.7008,-0.31537 0.7008,-0.70082 v -3.50409 c 0,-0.38545 -0.3154,-0.70082 -0.7008,-0.70082 h -7.88424 c -0.21025,0 -0.35041,-0.14016 -0.35041,-0.35041 v -4.20491 c 0,-0.21024 0.14016,-0.35041 0.35041,-0.35041 h 8.16454 c 0.3854,0 0.7008,-0.31536 0.7008,-0.70081 v -3.50409 c 0,-0.38545 -0.3154,-0.70082 -0.7008,-0.70082 h -12.71986 c -0.38545,0 -0.70082,0.31537 -0.70082,0.70082 v 23.12699 c 0,0.38545 0.31537,0.70082 0.70082,0.70082 z"
             style="font-style:normal;font-variant:normal;font-weight:normal;font-stretch:normal;font-family:'GT Pressura';-inkscape-font-specification:'GT Pressura';stroke-width:0.876021"
             id="path902" />
          <path
             d="m 1008.5487,205.85901 h 3.0836 c 0.3855,0 0.7008,-0.31537 0.7008,-0.70082 v -14.01636 c 0,-0.31537 0.07,-0.42049 0.1752,-0.42049 0.1052,0 0.2103,0.0701 0.2453,0.28033 l 3.434,14.26164 c 0.1052,0.42049 0.3505,0.5957 0.7359,0.5957 h 2.7682 c 0.3855,0 0.6308,-0.17521 0.7359,-0.5957 l 3.434,-14.26164 c 0.035,-0.21025 0.1402,-0.28033 0.2453,-0.28033 0.1051,0 0.1752,0.10512 0.1752,0.42049 v 14.01636 c 0,0.38545 0.3154,0.70082 0.7008,0.70082 h 3.0836 c 0.3855,0 0.7008,-0.31537 0.7008,-0.70082 V 182.0312 c 0,-0.38545 -0.3153,-0.70082 -0.7008,-0.70082 h -5.151 c -0.3855,0 -0.6307,0.1752 -0.7359,0.59569 l -3.5741,15.80345 c -0.07,0.28033 -0.1402,0.38545 -0.3154,0.38545 -0.1402,0 -0.2102,-0.10512 -0.2803,-0.38545 l -3.5742,-15.80345 c -0.1051,-0.42049 -0.3504,-0.59569 -0.7359,-0.59569 h -5.151 c -0.3854,0 -0.7008,0.31537 -0.7008,0.70082 v 23.12699 c 0,0.38545 0.3154,0.70082 0.7008,0.70082 z"
             style="font-style:normal;font-variant:normal;font-weight:normal;font-stretch:normal;font-family:'GT Pressura';-inkscape-font-specification:'GT Pressura';stroke-width:0.876021"
             id="path904" />
          <path
             d="m 1034.3739,205.85901 h 3.504 c 0.3855,0 0.7009,-0.31537 0.7009,-0.70082 V 182.0312 c 0,-0.38545 -0.3154,-0.70082 -0.7009,-0.70082 h -3.504 c -0.3855,0 -0.7009,0.31537 -0.7009,0.70082 v 23.12699 c 0,0.38545 0.3154,0.70082 0.7009,0.70082 z"
             style="font-style:normal;font-variant:normal;font-weight:normal;font-stretch:normal;font-family:'GT Pressura';-inkscape-font-specification:'GT Pressura';stroke-width:0.876021"
             id="path906" />
          <path
             d="m 1052.3498,194.05023 h -8.8654 c -0.3854,0 -0.7008,0.31536 -0.7008,0.70081 v 3.15368 c 0,0.38545 0.3154,0.70082 0.7008,0.70082 h 8.8654 c 0.3854,0 0.7008,-0.31537 0.7008,-0.70082 v -3.15368 c 0,-0.38545 -0.3154,-0.70081 -0.7008,-0.70081 z"
             style="font-style:normal;font-variant:normal;font-weight:normal;font-stretch:normal;font-family:'GT Pressura';-inkscape-font-specification:'GT Pressura';stroke-width:0.876021"
             id="path908" />
          <path
             d="m 1058.4819,205.85901 h 3.5041 c 0.3854,0 0.7008,-0.31537 0.7008,-0.70082 v -18.57168 c 0,-0.21024 0.1401,-0.35041 0.3504,-0.35041 h 4.3801 c 0.3855,0 0.7008,-0.31536 0.7008,-0.70081 v -3.50409 c 0,-0.38545 -0.3153,-0.70082 -0.7008,-0.70082 h -14.3668 c -0.3854,0 -0.7008,0.31537 -0.7008,0.70082 v 3.50409 c 0,0.38545 0.3154,0.70081 0.7008,0.70081 h 4.3801 c 0.2103,0 0.3505,0.14017 0.3505,0.35041 v 18.57168 c 0,0.38545 0.3153,0.70082 0.7008,0.70082 z"
             style="font-style:normal;font-variant:normal;font-weight:normal;font-stretch:normal;font-family:'GT Pressura';-inkscape-font-specification:'GT Pressura';stroke-width:0.876021"
             id="path910" />
          <path
             d="m 1067.7677,205.85901 h 3.6792 c 0.3154,0 0.5607,-0.17521 0.6658,-0.52561 l 0.9812,-3.60922 c 0.1051,-0.35041 0.2102,-0.52561 0.5256,-0.52561 h 5.3262 c 0.3154,0 0.4205,0.21024 0.5256,0.52561 l 1.0863,3.60922 c 0.1051,0.3504 0.3504,0.52561 0.6658,0.52561 h 3.6793 c 0.4555,0 0.7008,-0.21025 0.7008,-0.52561 0,-0.17521 -0.035,-0.31537 -0.1402,-0.70082 l -6.0971,-22.77659 c -0.1051,-0.35041 -0.3504,-0.52561 -0.6658,-0.52561 h -4.6955 c -0.3153,0 -0.5606,0.1752 -0.6657,0.52561 l -6.1322,22.77659 c -0.1051,0.38545 -0.1402,0.52561 -0.1402,0.70082 0,0.31536 0.2453,0.52561 0.7009,0.52561 z m 6.938,-9.56617 c -0.2102,0 -0.3153,-0.14016 -0.2803,-0.38545 l 1.6469,-8.23461 c 0.035,-0.21024 0.07,-0.31537 0.1752,-0.31537 h 0.1402 c 0.1051,0 0.1402,0.10513 0.1752,0.31537 l 1.6469,8.23461 c 0.035,0.24529 -0.07,0.38545 -0.2803,0.38545 z"
             style="font-style:normal;font-variant:normal;font-weight:normal;font-stretch:normal;font-family:'GT Pressura';-inkscape-font-specification:'GT Pressura';stroke-width:0.876021"
             id="path912" />
          <path
             d="m 1089.1076,205.85901 h 3.504 c 0.3855,0 0.7009,-0.31537 0.7009,-0.70082 v -8.76022 c 0,-0.21025 0.1401,-0.35041 0.3504,-0.35041 h 0.911 c 0.2804,0 0.5256,0.1752 0.6308,0.45553 l 3.6442,8.72518 c 0.2103,0.49058 0.4205,0.63074 0.876,0.63074 h 3.5041 c 0.5257,0 0.8761,-0.35041 0.8761,-0.80594 0,-0.21025 -0.035,-0.31537 -0.1752,-0.66578 l -3.6093,-8.33973 c -0.1401,-0.35041 -0.1752,-0.52562 -0.1752,-0.66578 0,-0.21025 0.1402,-0.35041 0.3855,-0.49057 2.4879,-1.43668 3.6442,-3.46905 3.6442,-6.20224 0,-4.38012 -2.9784,-7.35859 -7.3585,-7.35859 h -7.709 c -0.3855,0 -0.7009,0.31537 -0.7009,0.70082 v 23.12699 c 0,0.38545 0.3154,0.70082 0.7009,0.70082 z m 4.5553,-14.71718 c -0.2103,0 -0.3504,-0.14016 -0.3504,-0.35041 v -4.20491 c 0,-0.21024 0.1401,-0.35041 0.3504,-0.35041 h 2.9784 c 1.4367,0 2.4529,1.01619 2.4529,2.45287 0,1.43667 -1.0162,2.45286 -2.4529,2.45286 z"
             style="font-style:normal;font-variant:normal;font-weight:normal;font-stretch:normal;font-family:'GT Pressura';-inkscape-font-specification:'GT Pressura';stroke-width:0.876021"
             id="path914" />
          <path
             d="m 1108.5552,205.85901 h 3.5041 c 0.3854,0 0.7008,-0.31537 0.7008,-0.70082 V 182.0312 c 0,-0.38545 -0.3154,-0.70082 -0.7008,-0.70082 h -3.5041 c -0.3854,0 -0.7008,0.31537 -0.7008,0.70082 v 23.12699 c 0,0.38545 0.3154,0.70082 0.7008,0.70082 z"
             style="font-style:normal;font-variant:normal;font-weight:normal;font-stretch:normal;font-family:'GT Pressura';-inkscape-font-specification:'GT Pressura';stroke-width:0.876021"
             id="path916" />
          <path
             d="m 1118.3666,205.85901 h 3.5041 c 0.3854,0 0.7008,-0.31537 0.7008,-0.70082 v -8.76022 c 0,-0.21025 0.1402,-0.35041 0.3504,-0.35041 h 7.3586 c 0.3855,0 0.7008,-0.31537 0.7008,-0.70082 v -3.50409 c 0,-0.38545 -0.3153,-0.70082 -0.7008,-0.70082 h -7.3586 c -0.2102,0 -0.3504,-0.14016 -0.3504,-0.35041 v -4.20491 c 0,-0.21024 0.1402,-0.35041 0.3504,-0.35041 h 7.709 c 0.3855,0 0.7008,-0.31536 0.7008,-0.70081 v -3.50409 c 0,-0.38545 -0.3153,-0.70082 -0.7008,-0.70082 h -12.2643 c -0.3854,0 -0.7008,0.31537 -0.7008,0.70082 v 23.12699 c 0,0.38545 0.3154,0.70082 0.7008,0.70082 z"
             style="font-style:normal;font-variant:normal;font-weight:normal;font-stretch:normal;font-family:'GT Pressura';-inkscape-font-specification:'GT Pressura';stroke-width:0.876021"
             id="path918" />
        </g>
      </g>
    </g>
    <g
       aria-label="NORMAL"
       id="text1109"
       style="font-style:normal;font-weight:normal;font-size:35.0409px;line-height:1.25;font-family:sans-serif;letter-spacing:0px;word-spacing:0px;fill:#000000;fill-opacity:1;stroke:none;stroke-width:0.876021">
      <path
         d="m 591.73406,104.86432 h 3.50409 c 0.38545,0 0.70082,-0.31537 0.70082,-0.70082 V 90.988122 c 0,-0.210245 0.24529,-0.280327 0.31537,-0.07008 l 4.76556,13.35058 c 0.10513,0.28033 0.35041,0.5957 0.94611,0.5957 h 4.13482 c 0.38545,0 0.70082,-0.31537 0.70082,-0.70082 V 81.036506 c 0,-0.38545 -0.31537,-0.700818 -0.70082,-0.700818 h -3.50409 c -0.38545,0 -0.70081,0.315368 -0.70081,0.700818 v 14.226606 c 0,0.210245 -0.24529,0.280327 -0.31537,0.07008 l -4.80061,-14.36677 c -0.10512,-0.315368 -0.3504,-0.630736 -0.87602,-0.630736 h -4.16987 c -0.38545,0 -0.70081,0.315368 -0.70081,0.700818 V 104.1635 c 0,0.38545 0.31536,0.70082 0.70081,0.70082 z"
         style="font-style:normal;font-variant:normal;font-weight:normal;font-stretch:normal;font-family:'GT Pressura';-inkscape-font-specification:'GT Pressura';stroke-width:0.876021"
         id="path921" />
      <path
         d="m 619.41632,105.24977 c 3.78441,0 6.37744,-1.92725 7.60387,-4.66044 0.91106,-2.032373 0.98115,-4.660441 0.98115,-7.989327 0,-3.328885 -0.0701,-5.956953 -0.98115,-7.989325 -1.22643,-2.73319 -3.81946,-4.66044 -7.60387,-4.66044 -3.78442,0 -6.37745,1.92725 -7.60388,4.66044 -0.91106,2.032372 -0.98115,4.66044 -0.98115,7.989325 0,3.328886 0.0701,5.956954 0.98115,7.989327 1.22643,2.73319 3.81946,4.66044 7.60388,4.66044 z m 0,-4.94077 c -1.57685,0 -2.59303,-0.595694 -3.0836,-1.681962 -0.45554,-1.016186 -0.49058,-3.784417 -0.49058,-6.027035 0,-2.242617 0.035,-5.010848 0.49058,-6.027035 0.49057,-1.086268 1.50675,-1.681963 3.0836,-1.681963 1.57684,0 2.59302,0.595695 3.08359,1.681963 0.45554,1.016187 0.49058,3.784418 0.49058,6.027035 0,2.242618 -0.035,5.010849 -0.49058,6.027035 -0.49057,1.086268 -1.50675,1.681962 -3.08359,1.681962 z"
         style="font-style:normal;font-variant:normal;font-weight:normal;font-stretch:normal;font-family:'GT Pressura';-inkscape-font-specification:'GT Pressura';stroke-width:0.876021"
         id="path923" />
      <path
         d="m 632.73186,104.86432 h 3.50409 c 0.38545,0 0.70081,-0.31537 0.70081,-0.70082 v -8.760224 c 0,-0.210246 0.14017,-0.350409 0.35041,-0.350409 h 0.91107 c 0.28032,0 0.52561,0.175204 0.63073,0.455531 l 3.64426,8.725182 c 0.21024,0.49058 0.42049,0.63074 0.87602,0.63074 h 3.50409 c 0.52561,0 0.87602,-0.35041 0.87602,-0.80594 0,-0.21025 -0.035,-0.31537 -0.1752,-0.66578 l -3.60922,-8.339733 c -0.14016,-0.350409 -0.1752,-0.525614 -0.1752,-0.665778 0,-0.210245 0.14016,-0.350409 0.38545,-0.490572 2.4879,-1.436677 3.64425,-3.469049 3.64425,-6.20224 0,-4.380112 -2.97847,-7.358589 -7.35859,-7.358589 h -7.70899 c -0.38545,0 -0.70082,0.315368 -0.70082,0.700818 V 104.1635 c 0,0.38545 0.31537,0.70082 0.70082,0.70082 z m 4.55531,-14.71718 c -0.21024,0 -0.35041,-0.140163 -0.35041,-0.350409 v -4.204908 c 0,-0.210245 0.14017,-0.350409 0.35041,-0.350409 h 2.97848 c 1.43668,0 2.45286,1.016186 2.45286,2.452863 0,1.436677 -1.01618,2.452863 -2.45286,2.452863 z"
         style="font-style:normal;font-variant:normal;font-weight:normal;font-stretch:normal;font-family:'GT Pressura';-inkscape-font-specification:'GT Pressura';stroke-width:0.876021"
         id="path925" />
      <path
         d="m 652.1795,104.86432 h 3.0836 c 0.38545,0 0.70082,-0.31537 0.70082,-0.70082 V 90.14714 c 0,-0.315368 0.0701,-0.42049 0.1752,-0.42049 0.10512,0 0.21025,0.07008 0.24529,0.280327 l 3.43401,14.261643 c 0.10512,0.42049 0.3504,0.5957 0.73585,0.5957 h 2.76824 c 0.38545,0 0.63073,-0.17521 0.73585,-0.5957 l 3.43401,-14.261643 c 0.035,-0.210246 0.14017,-0.280327 0.24529,-0.280327 0.10512,0 0.1752,0.105122 0.1752,0.42049 v 14.01636 c 0,0.38545 0.31537,0.70082 0.70082,0.70082 h 3.0836 c 0.38545,0 0.70082,-0.31537 0.70082,-0.70082 V 81.036506 c 0,-0.38545 -0.31537,-0.700818 -0.70082,-0.700818 h -5.15101 c -0.38545,0 -0.63074,0.175205 -0.73586,0.595695 l -3.57417,15.803447 c -0.0701,0.280327 -0.14017,0.38545 -0.31537,0.38545 -0.14016,0 -0.21025,-0.105123 -0.28033,-0.38545 l -3.57417,-15.803447 c -0.10512,-0.42049 -0.35041,-0.595695 -0.73586,-0.595695 h -5.15101 c -0.38545,0 -0.70082,0.315368 -0.70082,0.700818 V 104.1635 c 0,0.38545 0.31537,0.70082 0.70082,0.70082 z"
         style="font-style:normal;font-variant:normal;font-weight:normal;font-stretch:normal;font-family:'GT Pressura';-inkscape-font-specification:'GT Pressura';stroke-width:0.876021"
         id="path927" />
      <path
         d="m 675.90217,104.86432 h 3.6793 c 0.31536,0 0.56065,-0.17521 0.66577,-0.52561 l 0.98115,-3.60922 c 0.10512,-0.35041 0.21024,-0.52561 0.52561,-0.52561 h 5.32622 c 0.31537,0 0.42049,0.21024 0.52561,0.52561 l 1.08627,3.60922 c 0.10512,0.3504 0.35041,0.52561 0.66578,0.52561 h 3.67929 c 0.45553,0 0.70082,-0.21025 0.70082,-0.52561 0,-0.17521 -0.035,-0.31537 -0.14016,-0.70082 l -6.09712,-22.776588 c -0.10512,-0.350409 -0.35041,-0.525614 -0.66578,-0.525614 h -4.69548 c -0.31537,0 -0.56065,0.175205 -0.66578,0.525614 l -6.13215,22.776588 c -0.10513,0.38545 -0.14017,0.52561 -0.14017,0.70082 0,0.31536 0.24529,0.52561 0.70082,0.52561 z m 6.9381,-9.566167 c -0.21025,0 -0.31537,-0.140164 -0.28033,-0.38545 l 1.64693,-8.234612 c 0.035,-0.210245 0.0701,-0.315368 0.1752,-0.315368 h 0.14016 c 0.10513,0 0.14017,0.105123 0.17521,0.315368 l 1.64692,8.234612 c 0.035,0.245286 -0.0701,0.38545 -0.28033,0.38545 z"
         style="font-style:normal;font-variant:normal;font-weight:normal;font-stretch:normal;font-family:'GT Pressura';-inkscape-font-specification:'GT Pressura';stroke-width:0.876021"
         id="path929" />
      <path
         d="m 697.24208,104.86432 h 11.9139 c 0.38545,0 0.70082,-0.31537 0.70082,-0.70082 v -3.50409 c 0,-0.38545 -0.31537,-0.700817 -0.70082,-0.700817 h -7.35859 c -0.21024,0 -0.35041,-0.140164 -0.35041,-0.350409 V 81.036506 c 0,-0.38545 -0.31536,-0.700818 -0.70081,-0.700818 h -3.50409 c -0.38545,0 -0.70082,0.315368 -0.70082,0.700818 V 104.1635 c 0,0.38545 0.31537,0.70082 0.70082,0.70082 z"
         style="font-style:normal;font-variant:normal;font-weight:normal;font-stretch:normal;font-family:'GT Pressura';-inkscape-font-specification:'GT Pressura';stroke-width:0.876021"
         id="path931" />
    </g>
  </g>
</svg>
