<?xml version="1.0" encoding="UTF-8" standalone="no"?>
<!-- Created with Inkscape (http://www.inkscape.org/) -->

<svg
   xmlns:dc="http://purl.org/dc/elements/1.1/"
   xmlns:cc="http://creativecommons.org/ns#"
   xmlns:rdf="http://www.w3.org/1999/02/22-rdf-syntax-ns#"
   xmlns:svg="http://www.w3.org/2000/svg"
   xmlns="http://www.w3.org/2000/svg"
   xmlns:sodipodi="http://sodipodi.sourceforge.net/DTD/sodipodi-0.dtd"
   xmlns:inkscape="http://www.inkscape.org/namespaces/inkscape"
   width="800"
   height="800"
   viewBox="0 0 211.66666 211.66667"
   version="1.1"
   id="svg8"
   inkscape:version="0.92.2 2405546, 2018-03-11"
   sodipodi:docname="1.svg"
   inkscape:export-filename="/home/raphael/Documents/FabLab/website/fab-manager/app/assets/images/crowdmachine/1_800x800.png"
   inkscape:export-xdpi="96"
   inkscape:export-ydpi="96">
  <defs
     id="defs2" />
  <sodipodi:namedview
     id="base"
     pagecolor="#ffffff"
     bordercolor="#666666"
     borderopacity="1.0"
     inkscape:pageopacity="0.0"
     inkscape:pageshadow="2"
     inkscape:zoom="0.7"
     inkscape:cx="528.64778"
     inkscape:cy="395.01432"
     inkscape:document-units="mm"
     inkscape:current-layer="layer1"
     showgrid="false"
     units="px"
     inkscape:window-width="1920"
     inkscape:window-height="1016"
     inkscape:window-x="0"
     inkscape:window-y="27"
     inkscape:window-maximized="1" />
  <metadata
     id="metadata5">
    <rdf:RDF>
      <cc:Work
         rdf:about="">
        <dc:format>image/svg+xml</dc:format>
        <dc:type
           rdf:resource="http://purl.org/dc/dcmitype/StillImage" />
        <dc:title></dc:title>
      </cc:Work>
    </rdf:RDF>
  </metadata>
  <g
     inkscape:label="Layer 1"
     inkscape:groupmode="layer"
     id="layer1"
     transform="translate(0,-85.33332)">
    <g
       id="g1007"
       transform="translate(0,-1.1454639)">
      <g
         id="g871">
        <g
           id="g69"
           transform="matrix(0.12424497,0,0,0.12424497,85.986971,230.84887)">
          <g
             id="g12">
	<path
   id="path8"
   d="m 312.486,67.188 -0.276,-0.718 -59.456,59.456 44.125,44.126 0.348,-0.444 c 22.62,-28.867 28.467,-68.111 15.259,-102.42 z"
   inkscape:connector-curvature="0" />

	<path
   id="path10"
   d="m 182.321,85.324 c 0,-4.732 1.842,-9.182 5.189,-12.527 L 253.024,7.283 252.306,7.007 C 240.229,2.357 227.516,0 214.521,0 186.486,0 160.13,10.917 140.307,30.739 c -29.718,29.719 -37.85,72.969 -24.408,110.1 L 13.018,243.72 c -8.381,8.381 -12.997,19.525 -12.997,31.378 0,11.853 4.616,22.996 12.997,31.377 8.381,8.381 19.525,12.996 31.378,12.997 0,0 0,0 0,0 11.852,0 22.996,-4.616 31.376,-12.997 L 178.604,203.643 c 11.358,4.126 23.47,6.282 35.914,6.283 0.003,0 0.002,0 0.005,0 23.021,0 44.86,-7.3 63.149,-21.106 l 0.458,-0.347 -90.621,-90.623 c -3.345,-3.346 -5.188,-7.794 -5.188,-12.526 z M 53.648,287.141 c -5.881,5.881 -15.416,5.881 -21.297,0 -5.88,-5.881 -5.88,-15.416 10e-4,-21.295 5.88,-5.881 15.415,-5.881 21.295,0 5.881,5.88 5.881,15.415 0.001,21.295 z m 94.937,-168.574 c -0.377,-3.47 2.13,-6.585 5.6,-6.96 l 24.7,-2.686 c 3.468,-0.378 6.585,2.129 6.96,5.597 0.377,3.47 -2.13,6.587 -5.595,6.964 l -24.702,2.684 c -3.469,0.377 -6.586,-2.129 -6.963,-5.599 z m 72.995,31.687 c 0.377,3.469 -2.131,6.585 -5.6,6.959 l -24.699,2.686 c -3.469,0.378 -6.586,-2.127 -6.961,-5.596 -0.377,-3.47 2.129,-6.586 5.596,-6.963 l 24.701,-2.684 c 3.469,-0.379 6.587,2.129 6.963,5.598 z m -17.868,-17.869 c 0.377,3.471 -2.129,6.588 -5.597,6.963 l -24.701,2.684 c -3.469,0.377 -6.585,-2.127 -6.961,-5.596 -0.377,-3.469 2.129,-6.586 5.597,-6.963 l 24.701,-2.684 c 3.468,-0.377 6.585,2.128 6.961,5.596 z"
   inkscape:connector-curvature="0" />

</g>
          <g
             id="g14">
</g>
          <g
             id="g16">
</g>
          <g
             id="g18">
</g>
          <g
             id="g20">
</g>
          <g
             id="g22">
</g>
          <g
             id="g24">
</g>
          <g
             id="g26">
</g>
          <g
             id="g28">
</g>
          <g
             id="g30">
</g>
          <g
             id="g32">
</g>
          <g
             id="g34">
</g>
          <g
             id="g36">
</g>
          <g
             id="g38">
</g>
          <g
             id="g40">
</g>
          <g
             id="g42">
</g>
        </g>
        <g
           id="g209"
           transform="matrix(0.11511431,0,0,0.11511431,26.458333,231.61229)">
          <path
             id="path154"
             d="M 330.674,40.967 H 270.09 c -5.391,0 -10.071,3.029 -12.441,7.477 H 236.962 V 17.357 c 0,-5.941 -4.833,-10.773 -10.772,-10.773 H 118.576 c -5.94,0 -10.772,4.832 -10.772,10.773 V 48.444 H 87.117 C 84.746,43.997 80.066,40.967 74.675,40.967 H 14.092 C 6.31,40.967 0,47.278 0,55.06 v 17.044 c 0,7.783 6.31,14.093 14.092,14.093 h 60.584 c 5.391,0 10.07,-3.029 12.441,-7.476 h 20.687 v 98.489 c 0,5.939 4.832,10.773 10.772,10.773 h 18.28 l 5.019,49.67 c 0.764,4.182 3.297,6.678 6.777,6.678 h 6.765 v 55.541 c 0,0.367 0.296,0.664 0.663,0.664 h 4.9 l 7.571,37.15 c 0.059,0.287 0.311,0.494 0.605,0.494 h 6.453 c 0.294,0 0.546,-0.207 0.605,-0.494 l 7.571,-37.15 h 4.901 c 0.366,0 0.662,-0.297 0.662,-0.664 v -55.541 h 6.766 c 3.558,0 6.348,-2.764 6.784,-6.727 l 5.011,-49.621 h 18.281 c 5.94,0 10.772,-4.834 10.772,-10.773 V 78.721 h 20.687 c 2.371,4.446 7.051,7.476 12.441,7.476 h 60.584 c 7.782,0 14.092,-6.31 14.092,-14.093 V 55.06 c 0,-7.782 -6.31,-14.093 -14.092,-14.093 z M 200.65,103.246 c 0,15.612 -12.654,28.268 -28.268,28.268 -15.614,0 -28.268,-12.655 -28.268,-28.268 V 39.309 h 56.535 v 63.937 z"
             inkscape:connector-curvature="0" />
          <g
             id="g156">
</g>
          <g
             id="g158">
</g>
          <g
             id="g160">
</g>
          <g
             id="g162">
</g>
          <g
             id="g164">
</g>
          <g
             id="g166">
</g>
          <g
             id="g168">
</g>
          <g
             id="g170">
</g>
          <g
             id="g172">
</g>
          <g
             id="g174">
</g>
          <g
             id="g176">
</g>
          <g
             id="g178">
</g>
          <g
             id="g180">
</g>
          <g
             id="g182">
</g>
          <g
             id="g184">
</g>
        </g>
        <g
           id="g329"
           transform="matrix(0.13685345,0,0,0.13685345,145.16953,230.15168)">
          <path
             id="path274"
             d="M 292.567,159.638 V 144.605 H 270.829 C 266.069,125.555 236.351,34.517 97.622,2.858 66.735,-4.191 51.165,1.738 48.411,21.313 40.194,21.188 27.814,22.516 12.64,28.854 l 3.854,9.227 c 13.551,-5.66 24.51,-6.828 31.547,-6.755 0.544,11.427 3.953,26.022 9.958,43.87 15.476,31.73 -13.253,56.79 -32.838,69.408 H 2.567 v 15.033 h 194.491 l 0.097,0.137 -5.262,7.416 5.262,7.413 -5.262,7.419 5.262,7.418 -5.261,7.414 5.261,7.418 -5.262,7.416 5.439,7.669 -5.439,7.666 5.262,7.417 -5.262,7.416 5.262,7.413 -5.262,7.419 5.262,7.418 -5.261,7.414 5.261,7.418 -5.262,7.416 6.227,8.779 h 10.164 l 6.227,-8.779 -5.262,-7.416 5.262,-7.418 -5.262,-7.414 5.262,-7.418 -5.262,-7.419 5.262,-7.413 -5.262,-7.416 5.262,-7.417 -5.439,-7.666 5.439,-7.669 -5.262,-7.416 5.262,-7.418 -5.262,-7.414 5.262,-7.418 -5.262,-7.419 5.262,-7.413 -5.262,-7.416 0.097,-0.137 h 83.221 z M 147.399,55.848 c -2.114,7.631 -10.016,12.1 -17.646,9.985 L 83.599,53.036 C 75.968,50.921 71.497,43.02 73.615,35.389 c 2.114,-7.63 10.016,-12.1 17.647,-9.984 l 46.153,12.798 c 7.632,2.113 12.101,10.015 9.984,17.645 z"
             inkscape:connector-curvature="0" />
          <g
             id="g276">
</g>
          <g
             id="g278">
</g>
          <g
             id="g280">
</g>
          <g
             id="g282">
</g>
          <g
             id="g284">
</g>
          <g
             id="g286">
</g>
          <g
             id="g288">
</g>
          <g
             id="g290">
</g>
          <g
             id="g292">
</g>
          <g
             id="g294">
</g>
          <g
             id="g296">
</g>
          <g
             id="g298">
</g>
          <g
             id="g300">
</g>
          <g
             id="g302">
</g>
          <g
             id="g304">
</g>
        </g>
      </g>
      <g
         transform="translate(0,-4.5395022e-6)"
         id="g777">
        <g
           id="g132"
           transform="matrix(0.1372721,0,0,0.1372721,85.955995,114.08258)">
          <g
             id="g75">
	<path
   id="path71"
   d="m 203.803,140.437 c 2.291,0.576 4.545,1.078 6.904,0.51 2.031,-0.488 3.748,-1.577 5.057,-3.013 46.5,-46.593 75.051,-89.209 73.539,-128.988 L 253.597,44.65 c -1.91,6.774 -5.574,15.61 -12.523,22.559 -6.949,6.948 -15.785,10.613 -22.559,12.523 l -11.336,11.337 c -0.826,-1.414 -1.807,-2.745 -2.934,-3.979 -0.24,-0.262 -0.463,-0.535 -0.715,-0.788 -1.439,-1.438 -3.045,-2.642 -4.756,-3.641 l 11.373,-11.373 c 1.914,-6.766 5.576,-15.571 12.506,-22.5 6.928,-6.928 15.734,-10.591 22.5,-12.506 L 280.896,0.54 C 278.703,0.175 276.435,0 274.107,0 225.98,-0.001 151.5,74.482 151.445,74.538 l 0.002,0.016 c -1.24,1.281 -2.166,2.899 -2.582,4.788 -0.49,2.239 -0.021,4.36 0.512,6.534 0.859,3.498 1.85,6.945 2.484,10.498 1.502,8.391 1.676,16.908 0.965,25.388 -0.705,8.382 -2.109,16.705 -4.484,24.778 -2.402,8.178 -5.672,16.098 -9.336,23.783 -7.479,15.686 -16.971,30.338 -26.732,44.672 -9.295,13.648 -19.465,26.656 -29.158,40.014 -1.676,2.346 -3.264,4.645 -4.189,7.408 -0.992,2.952 -1.307,6.125 -0.914,9.215 0.811,6.389 4.689,12.156 10.295,15.327 3.119,1.765 6.639,2.646 10.156,2.646 3.67,0 7.34,-0.959 10.551,-2.876 2.711,-1.617 5.008,-3.933 7.324,-6.053 3.701,-3.387 7.273,-6.876 10.791,-10.452 24.572,-24.908 45.049,-54.103 58.227,-86.582 3.035,-7.481 5.619,-15.511 7.471,-23.77 l 16.633,9.269 4.629,-4.628 -18.877,-18.879 c 0.773,-7.101 0.891,-14.236 0.205,-21.223 2.395,-0.917 4.631,-2.225 6.625,-3.907 0.828,6.234 1.045,12.789 0.646,19.647 0.369,0.096 0.74,0.192 1.114,0.286 z m -11.393,-32.4 c -1.418,1.417 -3.301,2.198 -5.305,2.198 -2.006,0 -3.891,-0.781 -5.309,-2.2 -1.418,-1.417 -2.199,-3.301 -2.199,-5.306 0,-2.005 0.781,-3.89 2.199,-5.308 1.418,-1.418 3.303,-2.199 5.309,-2.199 2.004,0 3.889,0.781 5.307,2.199 1.418,1.417 2.199,3.302 2.199,5.307 0,2.005 -0.781,3.89 -2.201,5.309 z"
   inkscape:connector-curvature="0" />

	<path
   id="path73"
   d="m 142.359,141.934 c 1.699,-6.423 2.873,-13.391 3.49,-20.757 0.717,-8.551 0.43,-16.26 -0.879,-23.569 -0.168,-0.944 -0.373,-1.892 -0.592,-2.847 -0.027,0.003 -0.055,0.005 -0.082,0.008 l -24.846,-24.894 -4.629,4.628 12.9,23.153 c -15.596,3.7 -30.369,10.196 -44.559,17.558 -15.684,8.135 -30.283,18.663 -43.894,29.865 -12.131,9.983 -23.457,20.885 -33.865,32.653 -4.965,5.405 -6.428,13.574 -4.031,20.448 2.504,7.175 8.932,12.494 16.445,13.612 6.228,0.929 11.631,-1.193 16.615,-4.751 6.408,-4.574 12.697,-9.355 18.98,-14.099 13.846,-10.452 28.24,-20.217 42.967,-29.376 14.218,-8.841 29.748,-16.698 45.98,-21.632 z"
   inkscape:connector-curvature="0" />

</g>
          <g
             id="g77">
</g>
          <g
             id="g79">
</g>
          <g
             id="g81">
</g>
          <g
             id="g83">
</g>
          <g
             id="g85">
</g>
          <g
             id="g87">
</g>
          <g
             id="g89">
</g>
          <g
             id="g91">
</g>
          <g
             id="g93">
</g>
          <g
             id="g95">
</g>
          <g
             id="g97">
</g>
          <g
             id="g99">
</g>
          <g
             id="g101">
</g>
          <g
             id="g103">
</g>
          <g
             id="g105">
</g>
        </g>
        <path
           id="path134"
           d="m 66.145806,120.84308 -1.31177,1.31178 -6.73195,-6.73193 1.31188,-1.31179 z m -21.90619,8.44242 c 0.48056,1.20795 0.46862,2.56494 -0.0276,3.76636 l -1.17239,-1.17238 c -3.18656,2.98422 -11.6955,7.66147 -13.85899,9.82514 -3.50017,3.50017 -3.43034,7.57426 -0.90049,10.19084 l -0.003,0.002 c 0.0183,0.0184 0.0276,0.0275 0.046,0.046 0.0183,0.0184 0.0276,0.0276 0.046,0.046 l 0.003,-0.002 c 2.61657,2.5292 6.69076,2.59913 10.19084,-0.90141 2.16367,-2.16349 6.84073,-10.67234 9.82505,-13.85899 l -1.17239,-1.17239 c 1.20143,-0.50078 2.55842,-0.51273 3.76646,-0.0276 l 12.47239,-12.47204 -6.73203,-6.73184 z"
           inkscape:connector-curvature="0"
           style="stroke-width:0.06485624" />
        <g
           id="g455"
           transform="matrix(0.1122492,0,0,0.1122492,145.52083,114.11606)">
          <g
             id="g396">
	<polygon
   id="polygon388"
   points="353.566,102.644 342.888,102.644 337.259,113.091 346.968,113.091 " />

	<polygon
   id="polygon390"
   points="276.902,102.644 271.273,113.091 293.472,113.091 299.1,102.644 " />

	<polygon
   id="polygon392"
   points="309.896,102.644 304.268,113.091 326.463,113.091 332.092,102.644 " />

	<path
   id="path394"
   d="M 257.332,94.216 200.417,69.811 v -4.28 c 0,-7.592 -6.155,-13.747 -13.748,-13.747 H 13.746 C 6.154,51.783 0,57.938 0,65.53 v 84.672 c 0,7.593 6.154,13.746 13.746,13.746 H 28.779 L 7.345,253.967 c -3.682,3.155 -6.023,7.83 -6.023,13.06 v 17.551 c 0,9.502 7.704,17.206 17.205,17.206 H 93.89 c 9.502,0 17.205,-7.704 17.205,-17.206 v -17.551 c 0,-9.502 -7.703,-17.205 -17.205,-17.205 H 73.404 L 93.85,163.949 h 92.819 c 7.593,0 13.748,-6.153 13.748,-13.746 v -4.28 l 56.915,-24.404 v -8.427 h 3.148 l 5.628,-10.447 h -8.776 z"
   inkscape:connector-curvature="0" />

</g>
          <g
             id="g398">
</g>
          <g
             id="g400">
</g>
          <g
             id="g402">
</g>
          <g
             id="g404">
</g>
          <g
             id="g406">
</g>
          <g
             id="g408">
</g>
          <g
             id="g410">
</g>
          <g
             id="g412">
</g>
          <g
             id="g414">
</g>
          <g
             id="g416">
</g>
          <g
             id="g418">
</g>
          <g
             id="g420">
</g>
          <g
             id="g422">
</g>
          <g
             id="g424">
</g>
          <g
             id="g426">
</g>
        </g>
      </g>
      <g
         transform="translate(0,-2.4818046)"
         id="g816">
        <path
           id="path144"
           d="m 123.26606,183.88519 0.70717,0.66629 c -0.0475,0.0475 -0.0855,0.0951 -0.13593,0.13877 l -0.76988,0.77084 -0.68626,-0.68624 0.76989,-0.77085 c 0.0381,-0.0381 0.0761,-0.076 0.11501,-0.11881 z m -2.40558,2.40872 0.68625,0.68625 0.89821,-0.89725 -0.68625,-0.68626 z m 2.91086,-3.03405 0.79936,0.55129 c 0.25948,-0.37735 0.47999,-0.78415 0.65108,-1.20997 l -0.9001,-0.36308 c -0.14543,0.35833 -0.32983,0.70241 -0.54939,1.02148 z m 0.93624,-2.94079 c -0.005,0.38874 -0.057,0.77559 -0.14258,1.15236 l 0.94383,0.22338 c 0.10551,-0.44484 0.16253,-0.90297 0.16823,-1.36121 z m -0.0475,-0.80411 0.96255,-0.13022 c -0.0665,-0.45433 -0.17299,-0.90201 -0.33172,-1.33145 l -0.91055,0.33458 c 0.13306,0.36309 0.22717,0.74233 0.27944,1.1269 z m -0.61306,-1.85725 0.84974,-0.46954 c -0.22052,-0.40016 -0.48761,-0.7775 -0.79176,-1.12177 l -0.72713,0.64348 c 0.2576,0.29085 0.48285,0.60926 0.66915,0.94764 z m -0.62351,-2.25388 c -0.35264,-0.29561 -0.73664,-0.55129 -1.14278,-0.76134 l -0.44577,0.86209 c 0.34407,0.17773 0.66818,0.39445 0.96617,0.64252 z m -8.6653,18.36631 -0.68719,0.68625 0.74042,0.74043 -1.37298,1.37307 -0.73947,-0.74043 -0.26329,0.26329 -0.6872,-0.68625 0.26329,-0.26329 -7.53374,-7.53364 -0.39066,0.39064 -0.68624,-0.68623 0.39065,-0.39065 -3.877311,-3.87713 c -0.53038,-0.53038 -1.22622,-0.79555 -1.92227,-0.79555 -0.69575,-1e-4 -1.39208,0.26517 -1.92187,0.79459 -0.78321,0.78321 -0.98585,1.92844 -0.61211,2.90089 l 0.79745,-0.79746 0.68435,-0.68435 c 0.56839,-0.56839 1.49074,-0.56934 2.05932,-1.8e-4 l 3.625531,3.62533 0.15492,-0.15493 0.68626,0.68625 -0.15493,0.15493 0.60926,0.60926 c 0.14637,0.14638 0.25663,0.32127 0.32981,0.51137 l 0.57125,-0.57125 5.4745,5.47451 -2.40281,2.40292 1.02994,1.02986 0.68625,-0.68626 0.68624,0.68626 -0.70335,0.70336 c 0.16728,0.24237 0.26043,0.53036 0.26043,0.82882 0,0.38685 -0.15303,0.75658 -0.42677,1.02984 l -8.30647,8.30629 c -0.2728,0.27279 -0.64348,0.42677 -1.02986,0.42677 -0.385891,0 -0.756581,-0.15303 -1.029751,-0.42677 l -0.65488,-0.65488 -6.1332,6.13272 c -0.27469,0.27469 -0.64538,0.42677 -1.02938,0.42677 -0.0665,0 -0.12546,-0.005 -0.18914,-0.01 -0.44863,-0.057 -0.84403,-0.32221 -1.0711,-0.71286 l -3.79577,-6.54152 c -0.33171,-0.57125 -0.23666,-1.29371 0.23002,-1.76059 l 4.75984,-4.76021 -2.35806,-2.35826 c -0.56839,-0.56838 -0.56839,-1.49064 0,-2.05941 l 4.25561,-4.25589 -1.07633,-1.07633 c -0.56839,-0.56839 -0.56839,-1.49083 0,-2.05932 l 1.31253,-1.31271 0.70335,-0.70336 c -1.0921,-1.79348 -0.86493,-4.17017 0.68436,-5.71927 0.90866,-0.90866 2.10199,-1.36252 3.29504,-1.36261 1.19362,-1.8e-4 2.386771,0.45433 3.295431,1.3629 l 3.87712,3.87712 0.65393,-0.65392 0.68626,0.68624 -0.65298,0.65298 7.53373,7.53374 0.68625,-0.68625 0.095,-0.095 0.6872,0.68625 z m -22.962011,4.13242 1.16682,1.1672 1.89982,-1.89973 c 0.32222,-0.32222 0.32222,-0.84499 0,-1.1672 -0.32221,-0.32222 -0.84497,-0.32222 -1.16729,2.8e-4 z m 4.54845,8.48356 -3.10951,-3.10961 -3.96808,3.96828 2.28334,3.9351 z m 2.31652,-1.61811 1.16682,1.16644 1.899441,-1.89945 c 0.32223,-0.32222 0.32223,-0.84498 5.9e-4,-1.16719 -0.32222,-0.32222 -0.84499,-0.32222 -1.1674,2.8e-4 z m -3.43267,-3.43268 1.1671,1.16701 1.89935,-1.89926 c 0.32222,-0.32316 0.32317,-0.84592 0,-1.16776 -0.32221,-0.32222 -0.84402,-0.32127 -1.16634,3.8e-4 z m 12.338441,-14.7558 5.47441,5.47451 9.0798,-9.0798 c 1.51212,-1.51203 1.51212,-3.96323 0.002,-5.4745 -1.51214,-1.51213 -3.96334,-1.51203 -5.47518,0 z m 11.77584,1.23012 0.6872,0.68625 0.89726,-0.89726 -0.6872,-0.68625 z m -1.52002,1.52201 0.68625,0.68625 0.89726,-0.89726 -0.68625,-0.68625 z m -1.51621,1.51811 0.68625,0.68626 0.89726,-0.89821 -0.68721,-0.68625 z m -1.51953,1.51898 0.68624,0.68625 0.89822,-0.89726 -0.68626,-0.68625 z m -4.55778,4.55681 0.6872,0.68625 0.89727,-0.89725 -0.68626,-0.68625 z m 11.17488,-22.65415 c -0.43247,-0.14637 -0.88396,-0.24427 -1.34038,-0.2937 l -0.1036,0.96513 c 0.38685,0.0381 0.76799,0.12546 1.13432,0.24903 z m -2.24894,0.64538 -0.0381,-0.96958 c -0.45815,0.019 -0.91532,0.0855 -1.35616,0.20626 l 0.24902,0.93907 c 0.3745,-0.0998 0.7604,-0.15873 1.14839,-0.17489 z m -1.90649,0.43912 -0.3878,-0.88964 c -0.42011,0.18344 -0.82027,0.41345 -1.19077,0.6834 l 0.57315,0.78415 c 0.31271,-0.22812 0.65108,-0.42297 1.0058,-0.57791 z m -1.61591,1.0982 -0.68625,-0.68625 -0.91152,0.91151 0.68626,0.68626 z m -1.53371,1.5338 -0.6872,-0.68625 -0.89726,0.89821 0.6872,0.68624 z m -1.51897,1.51934 -0.68625,-0.68624 -0.89821,0.8982 0.6872,0.6872 z m -1.52049,1.51964 -0.68625,-0.68625 -0.89726,0.89727 0.68625,0.68624 z m -1.51802,1.51879 -0.68625,-0.6872 -0.89726,0.89725 0.68625,0.68625 z m -1.51935,1.51868 -0.6872,-0.68625 -0.89726,0.89821 0.6872,0.68625 z"
           inkscape:connector-curvature="0"
           style="stroke-width:0.06708751" />
        <g
           id="g272"
           transform="matrix(0.13685345,0,0,0.13685345,26.10703,174.22726)">
          <g
             id="g215">
	<path
   id="path211"
   d="M 270.829,144.605 C 266.069,125.555 236.351,34.517 97.622,2.858 66.735,-4.191 51.165,1.738 48.411,21.313 40.194,21.188 27.814,22.516 12.64,28.854 l 3.854,9.227 c 13.551,-5.661 24.51,-6.828 31.547,-6.755 0.544,11.427 3.953,26.022 9.958,43.87 0,0 -36.737,22.269 -38.513,69.408 H 2.567 v 15.033 h 290 V 144.604 H 270.829 Z M 147.399,55.848 c -2.114,7.631 -10.016,12.1 -17.646,9.985 L 83.599,53.036 C 75.968,50.921 71.497,43.02 73.615,35.389 c 2.114,-7.63 10.016,-12.1 17.647,-9.984 l 46.153,12.798 c 7.632,2.113 12.101,10.015 9.984,17.645 z"
   inkscape:connector-curvature="0" />

	<path
   id="path213"
   d="m 228.694,203.371 3.208,-6.969 -5.191,-5.646 2.074,-7.385 -6.018,-4.76 0.885,-7.618 -6.105,-3.426 H 77.584 l -6.102,3.424 0.884,7.619 -6.017,4.759 2.073,7.385 -5.191,5.648 3.208,6.969 -4.247,6.389 4.247,6.389 -3.208,6.968 5.191,5.648 -2.074,7.385 6.018,4.76 -0.884,7.619 6.69,3.753 0.321,7.665 7.193,2.662 1.512,7.522 7.521,1.511 2.662,7.194 7.665,0.321 3.753,6.689 7.62,-0.884 4.759,6.017 7.386,-2.073 5.646,5.191 6.969,-3.208 6.389,4.247 6.389,-4.247 6.969,3.208 5.646,-5.191 7.385,2.073 4.76,-6.017 7.618,0.885 3.754,-6.69 7.664,-0.321 2.662,-7.194 7.521,-1.511 1.512,-7.52 7.194,-2.663 0.322,-7.664 6.689,-3.753 -0.884,-7.619 6.017,-4.76 -2.074,-7.385 5.191,-5.648 -3.207,-6.969 4.247,-6.389 z m -81.127,22.055 c -8.652,0 -15.666,-7.014 -15.666,-15.667 0,-8.651 7.014,-15.666 15.666,-15.666 8.652,0 15.666,7.015 15.666,15.666 0,8.653 -7.013,15.667 -15.666,15.667 z"
   inkscape:connector-curvature="0" />

</g>
          <g
             id="g217">
</g>
          <g
             id="g219">
</g>
          <g
             id="g221">
</g>
          <g
             id="g223">
</g>
          <g
             id="g225">
</g>
          <g
             id="g227">
</g>
          <g
             id="g229">
</g>
          <g
             id="g231">
</g>
          <g
             id="g233">
</g>
          <g
             id="g235">
</g>
          <g
             id="g237">
</g>
          <g
             id="g239">
</g>
          <g
             id="g241">
</g>
          <g
             id="g243">
</g>
          <g
             id="g245">
</g>
        </g>
        <g
           id="g569"
           transform="matrix(0.13685301,0,0,0.13685301,145.5209,174.52212)">
          <path
             id="path514"
             d="M 285.857,52.128 243.3,94.685 c -3.887,3.887 -10.184,3.887 -14.072,0 L 195.314,60.771 c -3.887,-3.887 -3.887,-10.186 0,-14.071 L 237.871,4.144 c -26.965,-9.211 -58.012,-3.066 -79.518,18.441 -22.459,22.457 -28.162,55.313 -17.129,83.063 l -45.361,45.359 c -25.279,-9.078 -54.639,-3.505 -74.889,16.747 -27.967,27.966 -27.965,73.308 0,101.271 27.961,27.964 73.303,27.966 101.27,0 20.252,-20.253 25.826,-49.614 16.748,-74.893 l 45.359,-45.359 c 27.75,11.032 60.607,5.33 83.065,-17.127 21.506,-21.505 27.652,-52.551 18.441,-79.518 z M 99.793,246.573 61.291,256.89 33.109,228.709 l 10.318,-38.501 38.5,-10.318 28.184,28.182 z"
             inkscape:connector-curvature="0" />
          <g
             id="g516">
</g>
          <g
             id="g518">
</g>
          <g
             id="g520">
</g>
          <g
             id="g522">
</g>
          <g
             id="g524">
</g>
          <g
             id="g526">
</g>
          <g
             id="g528">
</g>
          <g
             id="g530">
</g>
          <g
             id="g532">
</g>
          <g
             id="g534">
</g>
          <g
             id="g536">
</g>
          <g
             id="g538">
</g>
          <g
             id="g540">
</g>
          <g
             id="g542">
</g>
          <g
             id="g544">
</g>
        </g>
      </g>
    </g>
  </g>
</svg>
