<?xml version="1.0" encoding="UTF-8" standalone="no"?>
<!-- Generator: Adobe Illustrator 19.0.0, SVG Export Plug-In . SVG Version: 6.00 Build 0)  -->

<svg
   xmlns:dc="http://purl.org/dc/elements/1.1/"
   xmlns:cc="http://creativecommons.org/ns#"
   xmlns:rdf="http://www.w3.org/1999/02/22-rdf-syntax-ns#"
   xmlns:svg="http://www.w3.org/2000/svg"
   xmlns="http://www.w3.org/2000/svg"
   xmlns:sodipodi="http://sodipodi.sourceforge.net/DTD/sodipodi-0.dtd"
   xmlns:inkscape="http://www.inkscape.org/namespaces/inkscape"
   version="1.1"
   id="Calque_1"
   x="0px"
   y="0px"
   viewBox="0 0 86 142"
   style="enable-background:new 0 0 86 142;"
   xml:space="preserve"
   inkscape:version="0.91 r13725"
   sodipodi:docname="fablab - F.svg"><metadata
     id="metadata11"><rdf:RDF><cc:Work
         rdf:about=""><dc:format>image/svg+xml</dc:format><dc:type
           rdf:resource="http://purl.org/dc/dcmitype/StillImage" /></cc:Work></rdf:RDF></metadata><defs
     id="defs9" /><sodipodi:namedview
     pagecolor="#ffffff"
     bordercolor="#666666"
     borderopacity="1"
     objecttolerance="10"
     gridtolerance="10"
     guidetolerance="10"
     inkscape:pageopacity="0"
     inkscape:pageshadow="2"
     inkscape:window-width="1920"
     inkscape:window-height="1056"
     id="namedview7"
     showgrid="false"
     inkscape:zoom="1.6619718"
     inkscape:cx="-136.30508"
     inkscape:cy="70.999999"
     inkscape:window-x="0"
     inkscape:window-y="24"
     inkscape:window-maximized="1"
     inkscape:current-layer="XMLID_7_" /><style
     type="text/css"
     id="style3">
	.st0{fill:#641BA8;}
</style><g
     id="XMLID_7_"><path
       id="XMLID_54_"
       class="st0"
       d="M24.8,88.3v45.9c0,2-1.6,4-3.5,4.4l-17.7,3.4c-1.9,0.4-3.5-1-3.5-3V17.8c0-2,1.6-4,3.5-4.4   L72.6,0.1c1.9-0.4,3.5,1,3.5,3v18.3c0,2-1.6,4-3.5,4.4l-46.1,9c-1.1,0.2-1.8,1.1-1.8,2.2v22c0,1.1,0.7,1.7,1.8,1.5l37.1-7.2   c1.9-0.4,3.5,1,3.5,3v18.3c0,2-1.6,4-3.5,4.4l-37.1,7.2C25.5,86.3,24.8,87.2,24.8,88.3"
       style="fill:#e3005c;fill-opacity:1" /></g></svg>
