<?xml version="1.0" encoding="UTF-8" standalone="no"?>
<!-- Generator: Adobe Illustrator 19.0.0, SVG Export Plug-In . SVG Version: 6.00 Build 0)  -->

<svg
   xmlns:dc="http://purl.org/dc/elements/1.1/"
   xmlns:cc="http://creativecommons.org/ns#"
   xmlns:rdf="http://www.w3.org/1999/02/22-rdf-syntax-ns#"
   xmlns:svg="http://www.w3.org/2000/svg"
   xmlns="http://www.w3.org/2000/svg"
   xmlns:sodipodi="http://sodipodi.sourceforge.net/DTD/sodipodi-0.dtd"
   xmlns:inkscape="http://www.inkscape.org/namespaces/inkscape"
   version="1.1"
   id="Calque_1"
   x="0px"
   y="0px"
   viewBox="0 0 240 32"
   style="enable-background:new 0 0 240 32;"
   xml:space="preserve"
   inkscape:version="0.91 r13725"
   sodipodi:docname="fablab - ici autour.svg"><metadata
     id="metadata19"><rdf:RDF><cc:Work
         rdf:about=""><dc:format>image/svg+xml</dc:format><dc:type
           rdf:resource="http://purl.org/dc/dcmitype/StillImage" /></cc:Work></rdf:RDF></metadata><defs
     id="defs17" /><sodipodi:namedview
     pagecolor="#ffffff"
     bordercolor="#666666"
     borderopacity="1"
     objecttolerance="10"
     gridtolerance="10"
     guidetolerance="10"
     inkscape:pageopacity="0"
     inkscape:pageshadow="2"
     inkscape:window-width="1920"
     inkscape:window-height="1056"
     id="namedview15"
     showgrid="false"
     inkscape:zoom="1.3416667"
     inkscape:cx="-178.43478"
     inkscape:cy="151.42083"
     inkscape:window-x="0"
     inkscape:window-y="24"
     inkscape:window-maximized="1"
     inkscape:current-layer="XMLID_1_" /><style
     type="text/css"
     id="style3">
	.st0{fill:#641BA8;}
</style><g
     id="XMLID_1_"><path
       id="XMLID_2_"
       class="st0"
       d="M0,30.7V1.4c0-0.2,0.1-0.4,0.3-0.6c0.2-0.2,0.4-0.3,0.6-0.3h4.4c0.2,0,0.4,0.1,0.6,0.3   c0.2,0.2,0.3,0.4,0.3,0.6v29.3c0,0.2-0.1,0.4-0.3,0.6c-0.2,0.2-0.4,0.3-0.6,0.3H0.9c-0.2,0-0.4-0.1-0.6-0.3C0.1,31.2,0,30.9,0,30.7   z"
       style="fill:#0000ff;fill-opacity:1" /><path
       id="XMLID_4_"
       class="st0"
       d="M14.5,19.3c-0.1-1.1-0.1-2.2-0.1-3.3s0-2.2,0.1-3.2c0.1-1,0.2-2.1,0.3-3c0.1-1.3,0.5-2.6,1-3.8   c0.5-1.2,1.3-2.2,2.2-3.1c0.9-0.9,2-1.6,3.2-2.1C22.4,0.3,23.8,0,25.3,0c1.5,0,3,0.3,4.3,0.8C30.9,1.3,32,2,32.9,2.8   c0.9,0.9,1.7,1.9,2.2,3.2s0.8,2.6,0.8,4.1v0c0,0.2-0.1,0.4-0.3,0.6c-0.2,0.2-0.4,0.3-0.6,0.3h-4.4c-0.2,0-0.4-0.1-0.6-0.3   c-0.2-0.2-0.3-0.4-0.3-0.6v0c0-0.5-0.1-0.9-0.3-1.4c-0.2-0.5-0.5-0.9-0.8-1.3c-0.4-0.4-0.8-0.7-1.4-0.9c-0.5-0.2-1.2-0.4-1.9-0.4   c-1.4,0-2.4,0.3-3.1,1S21.1,8.8,21,9.8c-0.1,1-0.2,2-0.3,3c-0.1,1.1-0.1,2.1-0.1,3.2s0,2.2,0.1,3.3c0.1,1.1,0.1,2.1,0.3,3   c0.1,1,0.5,1.8,1.2,2.5c0.7,0.7,1.7,1,3.1,1c0.7,0,1.2-0.1,1.8-0.3s1-0.5,1.4-0.9c0.4-0.4,0.7-0.8,0.9-1.2c0.2-0.5,0.3-0.9,0.3-1.4   v0c0-0.2,0.1-0.5,0.3-0.6c0.2-0.2,0.4-0.3,0.6-0.3H35c0.2,0,0.4,0.1,0.6,0.3c0.2,0.2,0.3,0.4,0.3,0.6v0c0,1.5-0.3,2.8-0.8,4.1   c-0.5,1.2-1.3,2.3-2.2,3.2c-0.9,0.9-2.1,1.6-3.4,2.1c-1.3,0.5-2.7,0.8-4.3,0.8c-1.5,0-2.9-0.3-4.1-0.8c-1.2-0.5-2.3-1.2-3.2-2.1   c-0.9-0.9-1.6-1.9-2.2-3.1c-0.5-1.2-0.9-2.4-1-3.8C14.7,21.4,14.6,20.4,14.5,19.3z"
       style="fill:#0000ff;fill-opacity:1" /><path
       id="XMLID_6_"
       class="st0"
       d="M43.9,30.7V1.4c0-0.2,0.1-0.4,0.3-0.6c0.2-0.2,0.4-0.3,0.6-0.3h4.4c0.2,0,0.4,0.1,0.6,0.3   c0.2,0.2,0.3,0.4,0.3,0.6v29.3c0,0.2-0.1,0.4-0.3,0.6c-0.2,0.2-0.4,0.3-0.6,0.3h-4.4c-0.2,0-0.4-0.1-0.6-0.3   C44,31.2,43.9,30.9,43.9,30.7z"
       style="fill:#0000ff;fill-opacity:1" /><path
       id="XMLID_8_"
       class="st0"
       d="M70.1,30.7l8-29.6c0.1-0.4,0.4-0.7,0.8-0.7h5.9c0.5,0,0.8,0.2,0.8,0.7l7.9,29.6   c0,0.1,0,0.1,0,0.2c0,0.1,0,0.3-0.2,0.4c-0.1,0.2-0.4,0.3-0.8,0.3h-4.7c-0.4,0-0.7-0.2-0.8-0.7l-1.4-4.6c-0.1-0.2-0.1-0.3-0.2-0.5   s-0.2-0.2-0.5-0.2h-6.8c-0.4,0-0.6,0.2-0.7,0.7l-1.2,4.6c-0.1,0.4-0.4,0.7-0.8,0.7H71c-0.4,0-0.6-0.1-0.8-0.3   c-0.1-0.1-0.2-0.3-0.2-0.4C70.1,30.8,70.1,30.8,70.1,30.7z M79.4,19c0,0.1,0,0.1,0,0.2c0,0.2,0.1,0.3,0.4,0.3h4.1   c0.3,0,0.4-0.1,0.4-0.3c0-0.1,0-0.1,0-0.2L82.1,8.3c0-0.1-0.1-0.2-0.2-0.2h-0.1c-0.1,0-0.2,0.1-0.2,0.2L79.4,19z"
       style="fill:#0000ff;fill-opacity:1" /><path
       id="XMLID_12_"
       class="st0"
       d="M99.5,22.3V1.4c0-0.2,0.1-0.4,0.3-0.6c0.2-0.2,0.4-0.3,0.6-0.3h4.5c0.2,0,0.4,0.1,0.6,0.3   c0.2,0.2,0.3,0.4,0.3,0.6v20.9c0,1,0.4,1.8,1.1,2.5c0.7,0.7,1.8,1,3.1,1c1.4,0,2.4-0.3,3.2-1c0.8-0.7,1.1-1.5,1.1-2.5V1.4   c0-0.2,0.1-0.4,0.3-0.6c0.2-0.2,0.4-0.3,0.6-0.3h4.5c0.2,0,0.4,0.1,0.6,0.3c0.2,0.2,0.3,0.4,0.3,0.6v20.9c0,1.3-0.3,2.6-0.8,3.8   c-0.5,1.2-1.3,2.2-2.2,3.1c-0.9,0.9-2,1.6-3.3,2.1c-1.3,0.5-2.7,0.8-4.2,0.8c-1.5,0-2.9-0.3-4.2-0.8c-1.3-0.5-2.4-1.2-3.3-2.1   c-0.9-0.9-1.7-1.9-2.2-3.1C99.8,24.9,99.5,23.6,99.5,22.3z"
       style="fill:#0000ff;fill-opacity:1" /><path
       id="XMLID_14_"
       class="st0"
       d="M126.4,5.8V1.4c0-0.2,0.1-0.4,0.3-0.6c0.2-0.2,0.4-0.3,0.6-0.3h18.2c0.2,0,0.4,0.1,0.6,0.3   c0.2,0.2,0.3,0.4,0.3,0.6v4.4c0,0.2-0.1,0.4-0.3,0.6c-0.2,0.2-0.4,0.3-0.6,0.3H140c-0.3,0-0.4,0.2-0.5,0.5v23.6   c0,0.2-0.1,0.4-0.3,0.6c-0.2,0.2-0.4,0.3-0.6,0.3h-4.5c-0.2,0-0.4-0.1-0.6-0.3c-0.2-0.2-0.3-0.4-0.3-0.6V7.2c0-0.3-0.2-0.4-0.5-0.5   h-5.5c-0.2,0-0.4-0.1-0.6-0.3C126.5,6.3,126.4,6.1,126.4,5.8z"
       style="fill:#0000ff;fill-opacity:1" /><path
       id="XMLID_16_"
       class="st0"
       d="M151.9,19.3c-0.1-1.1-0.1-2.2-0.1-3.3s0-2.2,0.1-3.2c0.1-1,0.2-2.1,0.3-3   c0.1-1.3,0.5-2.6,1-3.8c0.5-1.2,1.3-2.2,2.2-3.1c0.9-0.9,2-1.6,3.2-2.1c1.2-0.5,2.6-0.8,4.1-0.8c1.5,0,2.9,0.3,4.1,0.8   c1.2,0.5,2.3,1.2,3.2,2.1c0.9,0.9,1.6,1.9,2.2,3.1c0.5,1.2,0.9,2.4,1,3.8c0.1,1,0.2,2,0.2,3c0.1,1,0.1,2.1,0.1,3.2s0,2.2-0.1,3.3   s-0.1,2.1-0.3,3c-0.1,1.3-0.5,2.6-1,3.8c-0.5,1.2-1.3,2.2-2.2,3.1c-0.9,0.9-2,1.6-3.2,2.1c-1.2,0.5-2.6,0.8-4.1,0.8   c-1.5,0-2.9-0.3-4.1-0.8c-1.2-0.5-2.3-1.2-3.2-2.1c-0.9-0.9-1.6-1.9-2.2-3.1c-0.5-1.2-0.9-2.4-1-3.8C152,21.4,152,20.4,151.9,19.3z    M158.1,12.8c-0.1,1.1-0.1,2.1-0.1,3.2s0,2.2,0.1,3.3c0.1,1.1,0.1,2.1,0.3,3c0.1,1,0.5,1.8,1.2,2.5c0.7,0.7,1.7,1,3.1,1   s2.4-0.3,3.1-1c0.7-0.7,1.1-1.5,1.2-2.5c0.1-0.9,0.2-1.9,0.2-3c0-1.1,0.1-2.2,0.1-3.3s0-2.2-0.1-3.2c0-1.1-0.1-2.1-0.2-3   c-0.1-1-0.5-1.8-1.2-2.5c-0.7-0.7-1.7-1-3.1-1s-2.4,0.3-3.1,1c-0.7,0.7-1.1,1.5-1.2,2.5C158.3,10.7,158.2,11.8,158.1,12.8z"
       style="fill:#0000ff;fill-opacity:1" /><path
       id="XMLID_19_"
       class="st0"
       d="M181.4,22.3V1.4c0-0.2,0.1-0.4,0.3-0.6c0.2-0.2,0.4-0.3,0.6-0.3h4.5c0.2,0,0.4,0.1,0.6,0.3   c0.2,0.2,0.3,0.4,0.3,0.6v20.9c0,1,0.4,1.8,1.1,2.5c0.7,0.7,1.8,1,3.1,1c1.4,0,2.4-0.3,3.2-1c0.8-0.7,1.1-1.5,1.1-2.5V1.4   c0-0.2,0.1-0.4,0.3-0.6c0.2-0.2,0.4-0.3,0.6-0.3h4.5c0.2,0,0.4,0.1,0.6,0.3c0.2,0.2,0.3,0.4,0.3,0.6v20.9c0,1.3-0.3,2.6-0.8,3.8   c-0.5,1.2-1.3,2.2-2.2,3.1c-0.9,0.9-2,1.6-3.3,2.1c-1.3,0.5-2.7,0.8-4.2,0.8c-1.5,0-2.9-0.3-4.2-0.8c-1.3-0.5-2.4-1.2-3.3-2.1   c-0.9-0.9-1.7-1.9-2.2-3.1C181.7,24.9,181.4,23.6,181.4,22.3z"
       style="fill:#0000ff;fill-opacity:1" /><path
       id="XMLID_21_"
       class="st0"
       d="M211.1,30.7V1.4c0-0.2,0.1-0.4,0.3-0.6c0.2-0.2,0.4-0.3,0.6-0.3h9.8c1.3,0,2.5,0.2,3.6,0.7   c1.1,0.5,2.1,1.2,3,2c0.8,0.8,1.5,1.8,2,3c0.5,1.1,0.7,2.3,0.7,3.6c0,1.7-0.4,3.2-1.1,4.4c-0.7,1.2-1.9,2.4-3.5,3.5   c-0.3,0.2-0.5,0.5-0.5,0.7c0,0.2,0.1,0.5,0.2,0.8l4.8,11.1c0.1,0.3,0.1,0.6,0,0.9c-0.1,0.3-0.4,0.4-0.9,0.4h-4.6   c-0.4,0-0.6-0.1-0.8-0.2c-0.2-0.2-0.3-0.4-0.5-0.6l-4.5-11c-0.1-0.1-0.1-0.2-0.3-0.4c-0.1-0.1-0.3-0.2-0.5-0.2h-1.2   c-0.3,0-0.4,0.1-0.4,0.4v11.1c0,0.2-0.1,0.4-0.3,0.6c-0.2,0.2-0.4,0.3-0.6,0.3h-4.4c-0.2,0-0.4-0.1-0.6-0.3   C211.1,31.2,211.1,30.9,211.1,30.7z M217.3,12.5c0,0.3,0.1,0.4,0.4,0.5h4c0.9,0,1.6-0.3,2.2-0.9c0.6-0.6,0.9-1.3,0.9-2.2   c0-0.9-0.3-1.6-0.9-2.2c-0.6-0.6-1.3-0.9-2.2-0.9h-4c-0.3,0-0.4,0.2-0.4,0.5V12.5z"
       style="fill:#0000ff;fill-opacity:1" /></g></svg>