<?xml version="1.0" encoding="UTF-8" standalone="no"?>
<!-- Generator: Adobe Illustrator 21.0.0, SVG Export Plug-In . SVG Version: 6.00 Build 0)  -->

<svg
   xmlns:dc="http://purl.org/dc/elements/1.1/"
   xmlns:cc="http://creativecommons.org/ns#"
   xmlns:rdf="http://www.w3.org/1999/02/22-rdf-syntax-ns#"
   xmlns:svg="http://www.w3.org/2000/svg"
   xmlns="http://www.w3.org/2000/svg"
   xmlns:xlink="http://www.w3.org/1999/xlink"
   xmlns:sodipodi="http://sodipodi.sourceforge.net/DTD/sodipodi-0.dtd"
   xmlns:inkscape="http://www.inkscape.org/namespaces/inkscape"
   version="1.1"
   id="Calque_1"
   x="0px"
   y="0px"
   viewBox="0 0 74 74"
   xml:space="preserve"
   sodipodi:docname="fablab-picto-?.svg"
   width="74"
   height="74"
   inkscape:version="0.92.2 2405546, 2018-03-11"><metadata
   id="metadata19"><rdf:RDF><cc:Work
       rdf:about=""><dc:format>image/svg+xml</dc:format><dc:type
         rdf:resource="http://purl.org/dc/dcmitype/StillImage" /><dc:title></dc:title></cc:Work></rdf:RDF></metadata><defs
   id="defs17" /><sodipodi:namedview
   pagecolor="#ffffff"
   bordercolor="#666666"
   borderopacity="1"
   objecttolerance="10"
   gridtolerance="10"
   guidetolerance="10"
   inkscape:pageopacity="0"
   inkscape:pageshadow="2"
   inkscape:window-width="1920"
   inkscape:window-height="1016"
   id="namedview15"
   showgrid="false"
   fit-margin-top="0"
   fit-margin-left="0"
   fit-margin-right="0"
   fit-margin-bottom="0"
   inkscape:zoom="0.30729167"
   inkscape:cx="-2"
   inkscape:cy="33"
   inkscape:window-x="0"
   inkscape:window-y="27"
   inkscape:window-maximized="1"
   inkscape:current-layer="Calque_1" />
<style
   type="text/css"
   id="style2">
	.st0{clip-path:url(#SVGID_2_);fill:#0B1783;}
</style>
<g
   id="g12"
   transform="translate(-514,-343)">
	<defs
   id="defs5">
		<rect
   id="SVGID_1_"
   x="514"
   y="343"
   width="74"
   height="74" />
	</defs>
	<clipPath
   id="SVGID_2_">
		<use
   xlink:href="#SVGID_1_"
   style="overflow:visible"
   id="use7"
   x="0"
   y="0"
   width="100%"
   height="100%" />
	</clipPath>
	<path
   class="st0"
   d="m 562,371.7 c 0,1.1 -0.2,2.1 -0.5,3.1 -0.3,1 -0.7,1.8 -1.2,2.6 -0.5,0.8 -1.1,1.5 -1.7,2.1 -0.6,0.6 -1.2,1.1 -1.8,1.6 -0.5,0.4 -0.9,0.8 -1.2,1.1 -0.3,0.3 -0.6,0.7 -0.7,1 -0.2,0.4 -0.3,0.8 -0.4,1.2 -0.1,0.4 -0.1,1 -0.1,1.6 v 0.6 c 0,0.3 -0.1,0.5 -0.3,0.7 -0.2,0.2 -0.5,0.3 -0.7,0.3 H 548 c -0.3,0 -0.5,-0.1 -0.7,-0.3 -0.2,-0.2 -0.3,-0.5 -0.3,-0.7 V 386 c 0,-0.4 0,-0.9 0,-1.4 0,-0.5 0,-1.1 0.1,-1.7 0.1,-0.6 0.2,-1.2 0.5,-1.8 0.2,-0.6 0.6,-1.2 1,-1.8 0.6,-0.8 1.3,-1.4 2.1,-1.9 0.8,-0.5 1.5,-1 2,-1.6 0.5,-0.5 1,-1.1 1.4,-1.8 0.4,-0.7 0.6,-1.3 0.6,-1.9 0,-1.2 -0.3,-2.1 -1,-2.8 -0.7,-0.7 -1.6,-1 -2.6,-1 -1.1,0 -1.9,0.4 -2.5,1.2 -0.6,0.8 -0.9,1.7 -0.9,2.7 v 0.9 c 0,0.3 -0.1,0.5 -0.3,0.7 -0.2,0.2 -0.5,0.3 -0.8,0.3 h -5.4 c -0.3,0 -0.5,-0.1 -0.7,-0.3 -0.2,-0.2 -0.3,-0.5 -0.3,-0.7 v -0.8 c 0,-1.6 0.3,-3.1 0.9,-4.5 0.6,-1.4 1.4,-2.6 2.3,-3.7 1,-1 2.1,-1.9 3.4,-2.5 1.3,-0.6 2.7,-0.9 4.2,-0.9 1.5,0 3,0.3 4.3,0.8 1.4,0.5 2.5,1.3 3.5,2.3 1,1 1.8,2.1 2.4,3.5 0.5,1.3 0.8,2.8 0.8,4.4 m -15,20 c 0,-0.3 0.1,-0.5 0.3,-0.7 0.2,-0.2 0.4,-0.3 0.7,-0.3 h 5.8 c 0.3,0 0.5,0.1 0.7,0.3 0.2,0.2 0.3,0.5 0.3,0.7 v 6.5 c 0,0.3 -0.1,0.5 -0.3,0.7 -0.2,0.2 -0.4,0.3 -0.7,0.3 H 548 c -0.3,0 -0.5,-0.1 -0.7,-0.3 -0.2,-0.2 -0.3,-0.5 -0.3,-0.7 z M 588,380 c 0,-20.4 -16.6,-37 -37,-37 -20.4,0 -37,16.6 -37,37 0,20.4 16.6,37 37,37 20.4,0 37,-16.6 37,-37"
   clip-path="url(#SVGID_2_)"
   id="path10"
   inkscape:connector-curvature="0"
   style="fill:#0b1783" />
</g>
</svg>