<?xml version="1.0" encoding="UTF-8" standalone="no"?>
<svg
   xmlns:dc="http://purl.org/dc/elements/1.1/"
   xmlns:cc="http://creativecommons.org/ns#"
   xmlns:rdf="http://www.w3.org/1999/02/22-rdf-syntax-ns#"
   xmlns:svg="http://www.w3.org/2000/svg"
   xmlns="http://www.w3.org/2000/svg"
   xmlns:sodipodi="http://sodipodi.sourceforge.net/DTD/sodipodi-0.dtd"
   xmlns:inkscape="http://www.inkscape.org/namespaces/inkscape"
   id="Calque_1"
   data-name="Calque 1"
   viewBox="0 0 356.2933 142.11127"
   version="1.1"
   sodipodi:docname="fablab-logo-officiel.svg"
   width="356.2933"
   height="142.11127"
   inkscape:version="0.92.2 2405546, 2018-03-11">
  <metadata
     id="metadata59">
    <rdf:RDF>
      <cc:Work
         rdf:about="">
        <dc:format>image/svg+xml</dc:format>
        <dc:type
           rdf:resource="http://purl.org/dc/dcmitype/StillImage" />
        <dc:title>Plan de travail 1</dc:title>
      </cc:Work>
    </rdf:RDF>
  </metadata>
  <sodipodi:namedview
     pagecolor="#ffffff"
     bordercolor="#666666"
     borderopacity="1"
     objecttolerance="10"
     gridtolerance="10"
     guidetolerance="10"
     inkscape:pageopacity="0"
     inkscape:pageshadow="2"
     inkscape:window-width="1920"
     inkscape:window-height="1016"
     id="namedview57"
     showgrid="false"
     fit-margin-top="0"
     fit-margin-left="0"
     fit-margin-right="0"
     fit-margin-bottom="0"
     inkscape:zoom="0.30729167"
     inkscape:cx="178.24267"
     inkscape:cy="71.158098"
     inkscape:window-x="0"
     inkscape:window-y="27"
     inkscape:window-maximized="1"
     inkscape:current-layer="Calque_1" />
  <defs
     id="defs4">
    <style
       id="style2">.cls-1{fill:#e61b72;}</style>
  </defs>
  <title
     id="title6">Plan de travail 1</title>
  <path
     class="cls-1"
     d="m 9.7226651,137.95317 h -5.67 a 0.23,0.23 0 0 1 -0.26,-0.26 v -14.3 a 0.57,0.57 0 0 0 -0.54,-0.54 H 0.55266511 a 0.56,0.56 0 0 0 -0.54,0.54 v 17.82 a 0.56,0.56 0 0 0 0.54,0.54 H 9.7326651 a 0.51,0.51 0 0 0 0.3799999,-0.17 0.53,0.53 0 0 0 0.16,-0.38 v -2.7 a 0.56,0.56 0 0 0 -0.5399999,-0.54 z"
     id="path8"
     inkscape:connector-curvature="0"
     style="fill:#e61b72" />
  <path
     class="cls-1"
     d="m 22.242665,123.26317 a 0.47,0.47 0 0 0 -0.51,-0.41 h -3.59 a 0.47,0.47 0 0 0 -0.51,0.41 l -4.84,18 a 0.45,0.45 0 0 0 0,0.11 0.44,0.44 0 0 0 0.09,0.25 0.53,0.53 0 0 0 0.46,0.18 h 2.83 a 0.47,0.47 0 0 0 0.51,-0.41 l 0.75,-2.78 q 0.08,-0.4 0.41,-0.4 h 4.1 a 0.3,0.3 0 0 1 0.28,0.12 1.17,1.17 0 0 1 0.13,0.28 l 0.84,2.78 a 0.51,0.51 0 0 0 0.51,0.41 h 2.83 a 0.53,0.53 0 0 0 0.46,-0.18 0.35,0.35 0 0 0 0.09,-0.25 0.45,0.45 0 0 0 0,-0.11 z m -1.11,11.13 h -2.48 c -0.16,0 -0.24,-0.06 -0.24,-0.19 a 0.61,0.61 0 0 1 0,-0.12 l 1.31,-6.47 a 0.12,0.12 0 0 1 0.13,-0.11 h 0.05 a 0.13,0.13 0 0 1 0.13,0.11 l 1.29,6.47 a 0.33,0.33 0 0 1 0,0.12 c 0.08,0.13 0,0.19 -0.16,0.19 z"
     id="path10"
     inkscape:connector-curvature="0"
     style="fill:#e61b72" />
  <path
     class="cls-1"
     d="m 50.162665,124.29317 a 6.27,6.27 0 0 0 -2,-1.27 7.08,7.08 0 0 0 -2.58,-0.46 6.4,6.4 0 0 0 -2.52,0.47 6,6 0 0 0 -1.93,1.29 6.53,6.53 0 0 0 -1.31,1.9 7.28,7.28 0 0 0 -0.63,2.29 q -0.12,0.87 -0.17,1.83 -0.05,0.96 -0.05,2 0,1 0.06,2 0.06,1 0.16,1.8 a 7.28,7.28 0 0 0 0.63,2.29 6.62,6.62 0 0 0 1.31,1.9 6,6 0 0 0 1.94,1.3 6.43,6.43 0 0 0 2.52,0.47 7.06,7.06 0 0 0 2.58,-0.46 6.17,6.17 0 0 0 2,-1.27 5.75,5.75 0 0 0 1.33,-1.94 6.25,6.25 0 0 0 0.48,-2.48 v 0 a 0.51,0.51 0 0 0 -0.17,-0.38 0.53,0.53 0 0 0 -0.38,-0.16 h -2.7 a 0.5,0.5 0 0 0 -0.38,0.18 0.58,0.58 0 0 0 -0.16,0.39 v 0 a 2.05,2.05 0 0 1 -0.19,0.85 2.32,2.32 0 0 1 -0.54,0.75 2.83,2.83 0 0 1 -0.84,0.53 2.75,2.75 0 0 1 -1.08,0.21 2.56,2.56 0 0 1 -1.88,-0.64 2.51,2.51 0 0 1 -0.75,-1.54 q -0.11,-0.85 -0.16,-1.82 -0.05,-0.97 -0.05,-2 0,-1 0.05,-2 0.05,-1 0.16,-1.83 a 2.59,2.59 0 0 1 0.75,-1.52 2.55,2.55 0 0 1 1.88,-0.64 2.82,2.82 0 0 1 1.14,0.21 2.58,2.58 0 0 1 0.83,0.56 2.51,2.51 0 0 1 0.51,0.76 2.11,2.11 0 0 1 0.18,0.83 v 0 a 0.57,0.57 0 0 0 0.54,0.55 h 2.7 a 0.51,0.51 0 0 0 0.38,-0.17 0.53,0.53 0 0 0 0.16,-0.37 v 0 a 6.29,6.29 0 0 0 -0.48,-2.49 5.7,5.7 0 0 0 -1.34,-1.92 z"
     id="path12"
     inkscape:connector-curvature="0"
     style="fill:#e61b72" />
  <path
     class="cls-1"
     d="m 68.642665,122.85317 h -2.7 a 0.57,0.57 0 0 0 -0.54,0.54 v 6.75 c 0,0.19 -0.09,0.28 -0.26,0.28 h -4.11 a 0.25,0.25 0 0 1 -0.26,-0.28 v -6.75 a 0.57,0.57 0 0 0 -0.54,-0.54 h -2.7 a 0.56,0.56 0 0 0 -0.54,0.54 v 17.82 a 0.56,0.56 0 0 0 0.54,0.54 h 2.57 a 0.77,0.77 0 0 0 0.44,-0.17 0.46,0.46 0 0 0 0.23,-0.38 v -6.75 a 0.23,0.23 0 0 1 0.26,-0.26 h 4.11 a 0.23,0.23 0 0 1 0.26,0.26 v 6.75 a 0.57,0.57 0 0 0 0.54,0.54 h 2.7 a 0.56,0.56 0 0 0 0.54,-0.54 v -17.81 a 0.56,0.56 0 0 0 -0.54,-0.54 z"
     id="path14"
     inkscape:connector-curvature="0"
     style="fill:#e61b72" />
  <path
     class="cls-1"
     d="m 82.672665,123.26317 a 0.47,0.47 0 0 0 -0.51,-0.41 h -3.62 a 0.47,0.47 0 0 0 -0.51,0.41 l -4.84,18 a 0.45,0.45 0 0 0 0,0.11 0.44,0.44 0 0 0 0.09,0.25 0.53,0.53 0 0 0 0.46,0.18 h 2.83 a 0.47,0.47 0 0 0 0.51,-0.41 l 0.75,-2.78 q 0.08,-0.4 0.41,-0.4 h 4.1 a 0.3,0.3 0 0 1 0.28,0.12 1.17,1.17 0 0 1 0.13,0.28 l 0.84,2.78 a 0.51,0.51 0 0 0 0.51,0.41 h 2.83 a 0.53,0.53 0 0 0 0.46,-0.18 0.35,0.35 0 0 0 0.09,-0.25 0.45,0.45 0 0 0 0,-0.11 z m -1.11,11.13 h -2.48 c -0.16,0 -0.24,-0.06 -0.24,-0.19 a 0.61,0.61 0 0 1 0,-0.12 l 1.31,-6.47 a 0.12,0.12 0 0 1 0.13,-0.11 h 0.05 a 0.13,0.13 0 0 1 0.13,0.11 l 1.29,6.47 a 0.33,0.33 0 0 1 0,0.12 c 0.05,0.13 -0.03,0.19 -0.19,0.19 z"
     id="path16"
     inkscape:connector-curvature="0"
     style="fill:#e61b72" />
  <path
     class="cls-1"
     d="m 103.43267,122.85317 h -2.71 a 0.51,0.51 0 0 0 -0.38,0.17 0.53,0.53 0 0 0 -0.16,0.38 v 12.72 a 2,2 0 0 1 -0.690005,1.53 2.77,2.77 0 0 1 -1.94,0.63 2.68,2.68 0 0 1 -1.9,-0.63 2,2 0 0 1 -0.68,-1.53 v -12.73 a 0.56,0.56 0 0 0 -0.54,-0.54 h -2.71 a 0.51,0.51 0 0 0 -0.38,0.17 0.53,0.53 0 0 0 -0.16,0.38 v 12.7 a 5.82,5.82 0 0 0 0.47,2.31 5.69,5.69 0 0 0 1.32,1.9 6.31,6.31 0 0 0 2,1.29 6.75,6.75 0 0 0 2.55,0.47 6.83,6.83 0 0 0 2.580005,-0.47 6.32,6.32 0 0 0 2,-1.29 5.87,5.87 0 0 0 1.33,-1.9 5.68,5.68 0 0 0 0.48,-2.31 v -12.7 a 0.56,0.56 0 0 0 -0.54,-0.54 z"
     id="path18"
     inkscape:connector-curvature="0"
     style="fill:#e61b72" />
  <path
     class="cls-1"
     d="m 117.80267,132.04317 a 0.89,0.89 0 0 1 -0.08,-0.29 1,1 0 0 1 0.08,-0.3 l 3.51,-7.83 a 0.51,0.51 0 0 0 0,-0.53 0.47,0.47 0 0 0 -0.42,-0.23 h -3.06 a 0.57,0.57 0 0 0 -0.51,0.41 l -2.24,5.59 c 0,0.09 -0.09,0.13 -0.16,0.13 -0.07,0 -0.12,0 -0.16,-0.13 l -2.24,-5.59 c -0.12,-0.27 -0.29,-0.41 -0.51,-0.41 h -3.07 a 0.46,0.46 0 0 0 -0.41,0.23 0.55,0.55 0 0 0 0,0.53 l 3.51,7.8 a 1,1 0 0 1 0.08,0.31 0.8,0.8 0 0 1 -0.08,0.28 l -4,9 a 0.57,0.57 0 0 0 -0.07,0.25 0.47,0.47 0 0 0 0.08,0.26 0.49,0.49 0 0 0 0.42,0.24 h 3.18 a 0.54,0.54 0 0 0 0.57,-0.41 l 2.52,-6.39 q 0.05,-0.13 0.16,-0.13 0.11,0 0.16,0.13 l 2.52,6.39 a 0.54,0.54 0 0 0 0.57,0.41 h 3.18 a 0.47,0.47 0 0 0 0.42,-0.22 0.4,0.4 0 0 0 0.08,-0.25 0.68,0.68 0 0 0 -0.07,-0.28 z"
     id="path20"
     inkscape:connector-curvature="0"
     style="fill:#e61b72" />
  <path
     class="cls-1"
     d="m 133.64267,132.62317 h -7.4 a 0.51,0.51 0 0 0 -0.37,0.17 0.52,0.52 0 0 0 -0.17,0.38 v 2.7 a 0.5,0.5 0 0 0 0.17,0.37 0.52,0.52 0 0 0 0.38,0.16 h 7.37 a 0.54,0.54 0 0 0 0.54,-0.53 v -2.7 a 0.52,0.52 0 0 0 -0.16,-0.39 0.53,0.53 0 0 0 -0.36,-0.16 z"
     id="path22"
     inkscape:connector-curvature="0"
     style="fill:#e61b72" />
  <path
     class="cls-1"
     d="m 151.02267,126.53317 a 7,7 0 0 0 -1.28,-1.91 5.82,5.82 0 0 0 -1.82,-1.3 5.41,5.41 0 0 0 -2.28,-0.47 h -5.66 a 0.56,0.56 0 0 0 -0.54,0.54 v 17.82 a 0.56,0.56 0 0 0 0.54,0.54 h 5.66 a 5.41,5.41 0 0 0 2.28,-0.47 5.82,5.82 0 0 0 1.82,-1.3 7,7 0 0 0 1.28,-1.9 7.29,7.29 0 0 0 0.63,-2.29 29,29 0 0 0 0,-7 7.29,7.29 0 0 0 -0.63,-2.26 z m -3.15,9.25 a 2.73,2.73 0 0 1 -0.69,1.54 2,2 0 0 1 -1.53,0.65 h -2.16 a 0.23,0.23 0 0 1 -0.26,-0.26 v -10.76 c 0,-0.18 0.09,-0.28 0.26,-0.28 h 2.16 a 2,2 0 0 1 1.53,0.65 2.73,2.73 0 0 1 0.69,1.54 28.82,28.82 0 0 1 0,7 z"
     id="path24"
     inkscape:connector-curvature="0"
     style="fill:#e61b72" />
  <path
     class="cls-1"
     d="m 167.46267,137.95317 h -6.41 a 0.23,0.23 0 0 1 -0.26,-0.26 v -3.24 a 0.23,0.23 0 0 1 0.26,-0.26 h 6.08 a 0.51,0.51 0 0 0 0.38,-0.16 0.53,0.53 0 0 0 0.16,-0.38 v -2.7 a 0.51,0.51 0 0 0 -0.17,-0.38 0.53,0.53 0 0 0 -0.37,-0.16 h -6.08 a 0.25,0.25 0 0 1 -0.26,-0.28 v -3.18 c 0,-0.18 0.09,-0.28 0.26,-0.28 h 6.3 a 0.5,0.5 0 0 0 0.37,-0.17 0.53,0.53 0 0 0 0.16,-0.38 v -2.7 a 0.53,0.53 0 0 0 -0.16,-0.37 0.49,0.49 0 0 0 -0.37,-0.17 h -9.81 a 0.56,0.56 0 0 0 -0.54,0.54 v 17.82 a 0.56,0.56 0 0 0 0.54,0.54 h 9.91 a 0.56,0.56 0 0 0 0.54,-0.54 v -2.7 a 0.56,0.56 0 0 0 -0.54,-0.54 z"
     id="path26"
     inkscape:connector-curvature="0"
     style="fill:#e61b72" />
  <path
     class="cls-1"
     d="m 180.49267,132.62317 h -7.37 a 0.51,0.51 0 0 0 -0.37,0.17 0.52,0.52 0 0 0 -0.17,0.38 v 2.7 a 0.5,0.5 0 0 0 0.17,0.37 0.52,0.52 0 0 0 0.38,0.16 h 7.37 a 0.54,0.54 0 0 0 0.54,-0.53 v -2.7 a 0.52,0.52 0 0 0 -0.16,-0.39 0.53,0.53 0 0 0 -0.39,-0.16 z"
     id="path28"
     inkscape:connector-curvature="0"
     style="fill:#e61b72" />
  <path
     class="cls-1"
     d="m 196.24267,122.85317 h -9.45 a 0.56,0.56 0 0 0 -0.54,0.54 v 17.82 a 0.56,0.56 0 0 0 0.54,0.54 h 2.7 a 0.57,0.57 0 0 0 0.54,-0.54 v -6.75 a 0.23,0.23 0 0 1 0.26,-0.26 h 5.67 a 0.51,0.51 0 0 0 0.38,-0.16 0.53,0.53 0 0 0 0.16,-0.38 v -2.71 a 0.51,0.51 0 0 0 -0.16,-0.38 0.53,0.53 0 0 0 -0.38,-0.16 h -5.67 a 0.25,0.25 0 0 1 -0.26,-0.28 v -3.18 c 0,-0.18 0.09,-0.28 0.26,-0.28 h 5.95 a 0.57,0.57 0 0 0 0.54,-0.54 v -2.7 a 0.57,0.57 0 0 0 -0.54,-0.54 z"
     id="path30"
     inkscape:connector-curvature="0"
     style="fill:#e61b72" />
  <path
     class="cls-1"
     d="m 213.75267,128.52317 a 7.34,7.34 0 0 0 -0.63,-2.29 6.53,6.53 0 0 0 -1.32,-1.9 6.1,6.1 0 0 0 -1.94,-1.29 6.89,6.89 0 0 0 -5,0 6,6 0 0 0 -1.94,1.29 6.56,6.56 0 0 0 -1.31,1.9 7.31,7.31 0 0 0 -0.63,2.29 q -0.12,0.87 -0.17,1.83 -0.05,0.96 -0.05,2 0,1 0.06,2 0.06,1 0.16,1.8 a 7.28,7.28 0 0 0 0.63,2.29 6.62,6.62 0 0 0 1.31,1.9 5.94,5.94 0 0 0 1.94,1.3 6.91,6.91 0 0 0 5,0 6,6 0 0 0 1.94,-1.3 6.63,6.63 0 0 0 1.32,-1.9 7.34,7.34 0 0 0 0.63,-2.29 q 0.12,-0.84 0.16,-1.81 0.04,-0.97 0,-2 0,-1 0,-2 0,-1 -0.16,-1.82 z m -3.63,5.77 q 0,1 -0.14,1.81 a 2.6,2.6 0 0 1 -0.75,1.54 3.1,3.1 0 0 1 -3.76,0 2.51,2.51 0 0 1 -0.75,-1.54 q -0.11,-0.85 -0.16,-1.82 -0.05,-0.97 -0.05,-2 0,-1 0.05,-2 0.05,-1 0.16,-1.83 a 2.59,2.59 0 0 1 0.75,-1.52 2.55,2.55 0 0 1 1.88,-0.64 2.58,2.58 0 0 1 1.89,0.66 2.49,2.49 0 0 1 0.75,1.53 q 0.11,0.87 0.14,1.83 0.03,0.96 0,2 c 0.03,0.64 0.02,1.33 -0.01,1.98 z"
     id="path32"
     inkscape:connector-curvature="0"
     style="fill:#e61b72" />
  <path
     class="cls-1"
     d="m 230.74267,122.85317 h -2.7 a 0.57,0.57 0 0 0 -0.54,0.54 v 10.15 c 0,0.1 0,0.15 -0.09,0.17 -0.09,0.02 -0.11,0 -0.15,-0.11 l -3.7,-10.27 a 0.77,0.77 0 0 0 -0.21,-0.34 0.65,0.65 0 0 0 -0.46,-0.15 h -3.22 a 0.56,0.56 0 0 0 -0.54,0.54 v 17.82 a 0.56,0.56 0 0 0 0.54,0.54 h 2.7 a 0.57,0.57 0 0 0 0.54,-0.54 v -9.35 c 0,-0.09 0,-0.14 0.09,-0.16 0.09,-0.02 0.11,0 0.15,0.11 l 3.68,9.48 a 0.77,0.77 0 0 0 0.21,0.31 0.73,0.73 0 0 0 0.51,0.15 h 3.19 a 0.56,0.56 0 0 0 0.54,-0.54 v -17.81 a 0.56,0.56 0 0 0 -0.54,-0.54 z"
     id="path34"
     inkscape:connector-curvature="0"
     style="fill:#e61b72" />
  <path
     class="cls-1"
     d="m 248.51267,126.53317 a 7,7 0 0 0 -1.28,-1.91 5.82,5.82 0 0 0 -1.82,-1.3 5.41,5.41 0 0 0 -2.28,-0.47 h -5.66 a 0.56,0.56 0 0 0 -0.54,0.54 v 17.82 a 0.56,0.56 0 0 0 0.54,0.54 h 5.66 a 5.41,5.41 0 0 0 2.28,-0.47 5.82,5.82 0 0 0 1.83,-1.33 7,7 0 0 0 1.28,-1.9 7.29,7.29 0 0 0 0.63,-2.29 29,29 0 0 0 0,-7 7.29,7.29 0 0 0 -0.64,-2.23 z m -3.15,9.25 a 2.73,2.73 0 0 1 -0.69,1.54 2,2 0 0 1 -1.53,0.65 h -2.16 a 0.23,0.23 0 0 1 -0.26,-0.26 v -10.76 c 0,-0.18 0.09,-0.28 0.26,-0.28 h 2.16 a 2,2 0 0 1 1.53,0.65 2.73,2.73 0 0 1 0.69,1.54 28.82,28.82 0 0 1 0,7 z"
     id="path36"
     inkscape:connector-curvature="0"
     style="fill:#e61b72" />
  <path
     class="cls-1"
     d="m 264.70267,131.95317 a 6.94,6.94 0 0 0 -2.07,-1.16 19.86,19.86 0 0 0 -2.6,-0.75 4.47,4.47 0 0 1 -1.72,-0.69 1.47,1.47 0 0 1 -0.67,-1.25 1.75,1.75 0 0 1 0.61,-1.36 2.52,2.52 0 0 1 1.74,-0.54 2.4,2.4 0 0 1 1.77,0.62 2,2 0 0 1 0.62,1.43 v 0.41 a 0.53,0.53 0 0 0 0.16,0.38 0.51,0.51 0 0 0 0.37,0.17 h 2.71 a 0.51,0.51 0 0 0 0.37,-0.17 0.52,0.52 0 0 0 0.16,-0.38 v -0.41 a 5.47,5.47 0 0 0 -0.46,-2.23 5.54,5.54 0 0 0 -1.28,-1.81 6,6 0 0 0 -2,-1.21 6.82,6.82 0 0 0 -2.48,-0.44 6.71,6.71 0 0 0 -2.48,0.44 6.12,6.12 0 0 0 -1.95,1.21 5.43,5.43 0 0 0 -1.75,4 5.06,5.06 0 0 0 0.47,2.26 5,5 0 0 0 1.28,1.64 7.09,7.09 0 0 0 1.92,1.12 14,14 0 0 0 2.38,0.71 6.24,6.24 0 0 1 2.16,0.83 1.56,1.56 0 0 1 0.64,1.34 2,2 0 0 1 -0.73,1.59 2.85,2.85 0 0 1 -1.94,0.63 2.78,2.78 0 0 1 -2,-0.63 2.07,2.07 0 0 1 -0.68,-1.58 v -0.8 a 0.51,0.51 0 0 0 -0.16,-0.38 0.52,0.52 0 0 0 -0.37,-0.16 h -2.71 a 0.51,0.51 0 0 0 -0.37,0.17 0.52,0.52 0 0 0 -0.16,0.38 v 0.8 a 5.6,5.6 0 0 0 0.49,2.32 5.85,5.85 0 0 0 1.34,1.88 6.28,6.28 0 0 0 2,1.26 7,7 0 0 0 2.58,0.46 7.8,7.8 0 0 0 2.64,-0.43 6.25,6.25 0 0 0 2.09,-1.22 5.53,5.53 0 0 0 1.36,-1.87 5.77,5.77 0 0 0 0.49,-2.4 5.5,5.5 0 0 0 -0.5,-2.43 5.23,5.23 0 0 0 -1.27,-1.75 z"
     id="path38"
     inkscape:connector-curvature="0"
     style="fill:#e61b72" />
  <path
     class="cls-1"
     d="m 274.95267,0.27317275 h -9.45 a 0.56,0.56 0 0 0 -0.54,0.54 V 18.633173 a 0.56,0.56 0 0 0 0.54,0.54 h 2.74 a 0.57,0.57 0 0 0 0.54,-0.54 v -6.75 a 0.23,0.23 0 0 1 0.26,-0.26 h 5.67 a 0.51,0.51 0 0 0 0.38,-0.16 0.53,0.53 0 0 0 0.16,-0.38 V 8.3831728 a 0.51,0.51 0 0 0 -0.16,-0.38 0.53,0.53 0 0 0 -0.38,-0.16 h -5.67 a 0.25,0.25 0 0 1 -0.26,-0.28 v -3.23 c 0,-0.18 0.09,-0.28 0.26,-0.28 h 5.95 a 0.57,0.57 0 0 0 0.54,-0.54 V 0.81317275 a 0.57,0.57 0 0 0 -0.54,-0.54 z"
     id="path40"
     inkscape:connector-curvature="0"
     style="fill:#e61b72" />
  <path
     class="cls-1"
     d="m 286.89267,0.68317275 a 0.47,0.47 0 0 0 -0.51,-0.41 h -3.61 a 0.47,0.47 0 0 0 -0.51,0.41 l -4.84,18.00000025 a 0.45,0.45 0 0 0 0,0.11 0.44,0.44 0 0 0 0.09,0.25 0.53,0.53 0 0 0 0.46,0.18 h 2.83 a 0.47,0.47 0 0 0 0.51,-0.41 l 0.75,-2.78 q 0.08,-0.4 0.41,-0.4 h 4.1 a 0.3,0.3 0 0 1 0.28,0.12 1.17,1.17 0 0 1 0.13,0.28 l 0.84,2.78 a 0.51,0.51 0 0 0 0.51,0.41 h 2.83 a 0.53,0.53 0 0 0 0.46,-0.18 0.35,0.35 0 0 0 0.09,-0.25 0.45,0.45 0 0 0 0,-0.11 z m -1.11,11.13000025 h -2.48 c -0.16,0 -0.24,-0.06 -0.24,-0.19 a 0.61,0.61 0 0 1 0,-0.12 l 1.31,-6.4700002 a 0.12,0.12 0 0 1 0.13,-0.11 h 0.05 a 0.13,0.13 0 0 1 0.13,0.11 l 1.29,6.4700002 a 0.33,0.33 0 0 1 0,0.12 c 0.05,0.12 -0.03,0.18 -0.19,0.18 z"
     id="path42"
     inkscape:connector-curvature="0"
     style="fill:#e61b72" />
  <path
     class="cls-1"
     d="m 307.74267,11.263173 a 4.79,4.79 0 0 0 -0.48,-0.89 3.83,3.83 0 0 0 -0.62,-0.7100002 c -0.18,-0.15 -0.18,-0.31 0,-0.49 a 5.13,5.13 0 0 0 1.44,-3.4 5.58,5.58 0 0 0 -0.41,-2.14 5.48,5.48 0 0 0 -1.13,-1.75 5.35,5.35 0 0 0 -1.71,-1.18000005 5.25,5.25 0 0 0 -2.13,-0.43 h -6.46 a 0.53,0.53 0 0 0 -0.38,0.17 0.51,0.51 0 0 0 -0.17,0.38 V 18.643173 a 0.56,0.56 0 0 0 0.54,0.54 h 6.37 a 6,6 0 0 0 2.28,-0.42 5,5 0 0 0 2.88,-3 7,7 0 0 0 0.39,-2.4 5.29,5.29 0 0 0 -0.11,-1.05 5.59,5.59 0 0 0 -0.3,-1.05 z m -8.33,-6.9300002 c 0,-0.18 0.09,-0.28 0.26,-0.28 h 2.81 a 1.75,1.75 0 0 1 1.24,0.51 1.62,1.62 0 0 1 0.54,1.21 1.67,1.67 0 0 1 -0.54,1.23 1.73,1.73 0 0 1 -1.24,0.53 h -2.81 a 0.23,0.23 0 0 1 -0.26,-0.26 z m 4.46,10.4400002 a 1.71,1.71 0 0 1 -1.38,0.62 h -2.81 a 0.23,0.23 0 0 1 -0.26,-0.26 v -3.53 c 0,-0.19 0.09,-0.28 0.26,-0.28 h 2.81 a 1.7,1.7 0 0 1 1.38,0.63 2.2,2.2 0 0 1 0,2.83 z"
     id="path44"
     inkscape:connector-curvature="0"
     style="fill:#e61b72" />
  <path
     class="cls-1"
     d="m 313.24267,19.173173 h 9.18 a 0.51,0.51 0 0 0 0.38,-0.17 0.53,0.53 0 0 0 0.16,-0.38 v -2.67 a 0.56,0.56 0 0 0 -0.54,-0.54 h -5.67 a 0.23,0.23 0 0 1 -0.26,-0.26 V 0.81317275 a 0.57,0.57 0 0 0 -0.54,-0.54 h -2.71 a 0.56,0.56 0 0 0 -0.54,0.54 V 18.633173 a 0.56,0.56 0 0 0 0.54,0.54 z"
     id="path46"
     inkscape:connector-curvature="0"
     style="fill:#e61b72" />
  <path
     class="cls-1"
     d="m 326.06267,19.173173 h 2.83 a 0.47,0.47 0 0 0 0.51,-0.41 l 0.75,-2.78 q 0.08,-0.4 0.41,-0.4 h 4.1 a 0.3,0.3 0 0 1 0.28,0.12 1.17,1.17 0 0 1 0.13,0.28 l 0.84,2.78 a 0.51,0.51 0 0 0 0.51,0.41 h 2.82 a 0.53,0.53 0 0 0 0.46,-0.18 0.35,0.35 0 0 0 0.09,-0.25 0.45,0.45 0 0 0 0,-0.11 l -4.81,-18.00000025 a 0.47,0.47 0 0 0 -0.51,-0.41 h -3.61 a 0.47,0.47 0 0 0 -0.51,0.41 l -4.84,18.00000025 a 0.45,0.45 0 0 0 0,0.11 0.44,0.44 0 0 0 0.09,0.25 0.53,0.53 0 0 0 0.46,0.18 z m 5.13,-7.67 1.31,-6.4700002 a 0.12,0.12 0 0 1 0.13,-0.11 h 0.05 a 0.13,0.13 0 0 1 0.13,0.11 l 1.29,6.4700002 a 0.33,0.33 0 0 1 0,0.12 c 0,0.12 -0.08,0.19 -0.24,0.19 h -2.48 c -0.16,0 -0.24,-0.06 -0.24,-0.19 a 0.61,0.61 0 0 1 0.1,-0.12 z"
     id="path48"
     inkscape:connector-curvature="0"
     style="fill:#e61b72" />
  <path
     class="cls-1"
     d="m 356.17267,12.293173 a 5.59,5.59 0 0 0 -0.31,-1 4.79,4.79 0 0 0 -0.48,-0.89 3.83,3.83 0 0 0 -0.62,-0.7100002 c -0.18,-0.15 -0.18,-0.31 0,-0.49 a 5.13,5.13 0 0 0 1.44,-3.4 5.58,5.58 0 0 0 -0.41,-2.14 5.48,5.48 0 0 0 -1.13,-1.75 5.35,5.35 0 0 0 -1.71,-1.18000005 5.25,5.25 0 0 0 -2.13,-0.43 h -6.44 a 0.53,0.53 0 0 0 -0.38,0.17 0.51,0.51 0 0 0 -0.17,0.38 V 18.673173 a 0.56,0.56 0 0 0 0.54,0.54 h 6.37 a 6,6 0 0 0 2.28,-0.42 5,5 0 0 0 2.88,-3 7,7 0 0 0 0.39,-2.4 5.29,5.29 0 0 0 -0.12,-1.1 z m -8.64,-8.0000002 c 0,-0.18 0.09,-0.28 0.26,-0.28 h 2.81 a 1.75,1.75 0 0 1 1.24,0.51 1.62,1.62 0 0 1 0.54,1.21 1.67,1.67 0 0 1 -0.54,1.23 1.73,1.73 0 0 1 -1.24,0.53 h -2.81 a 0.23,0.23 0 0 1 -0.26,-0.26 z m 4.46,10.4400002 a 1.71,1.71 0 0 1 -1.38,0.62 h -2.81 a 0.23,0.23 0 0 1 -0.26,-0.26 v -3.53 c 0,-0.19 0.09,-0.28 0.26,-0.28 h 2.81 a 1.7,1.7 0 0 1 1.38,0.63 2.2,2.2 0 0 1 0,2.83 z"
     id="path50"
     inkscape:connector-curvature="0"
     style="fill:#e61b72" />
  <path
     class="cls-1"
     d="m 353.77267,61.953173 -9.94,1.93 a 2.59,2.59 0 0 0 -2,2.45 v 54.619997 a 1.21,1.21 0 0 1 -1,1.23 l -26,5.05 a 2.59,2.59 0 0 0 -2,2.45 v 10.37 a 1.63,1.63 0 0 0 2,1.68 l 38.92,-7.57 a 2.59,2.59 0 0 0 2,-2.45 V 63.613173 a 1.62,1.62 0 0 0 -1.98,-1.66 z"
     id="path52"
     inkscape:connector-curvature="0"
     style="fill:#e61b72" />
  <path
     class="cls-1"
     d="m 35.802665,29.953173 -20.88,4 a 0.77,0.77 0 0 1 -1,-0.84 v -12.36 a 1.21,1.21 0 0 1 1,-1.23 l 25.92,-5 a 2.59,2.59 0 0 0 2,-2.45 V 1.7231728 a 1.63,1.63 0 0 0 -2,-1.68000005 L 2.0026651,7.5931728 A 2.59,2.59 0 0 0 0.00266511,10.043173 v 68.1 a 1.63,1.63 0 0 0 1.99999999,1.68 l 9.9399999,-1.93 a 2.59,2.59 0 0 0 2,-2.45 v -25.8 a 1.21,1.21 0 0 1 1,-1.23 l 20.88,-4.06 a 2.59,2.59 0 0 0 2,-2.45 v -10.31 a 1.63,1.63 0 0 0 -2.02,-1.64 z"
     id="path54"
     inkscape:connector-curvature="0"
     style="fill:#e61b72" />
</svg>
