<?xml version="1.0" encoding="UTF-8" standalone="no"?>
<!-- Created with Inkscape (http://www.inkscape.org/) -->

<svg
   xmlns:dc="http://purl.org/dc/elements/1.1/"
   xmlns:cc="http://creativecommons.org/ns#"
   xmlns:rdf="http://www.w3.org/1999/02/22-rdf-syntax-ns#"
   xmlns:svg="http://www.w3.org/2000/svg"
   xmlns="http://www.w3.org/2000/svg"
   xmlns:sodipodi="http://sodipodi.sourceforge.net/DTD/sodipodi-0.dtd"
   xmlns:inkscape="http://www.inkscape.org/namespaces/inkscape"
   version="1.1"
   id="svg815"
   xml:space="preserve"
   width="305.76401"
   height="188.97681"
   viewBox="0 0 305.76401 188.9768"
   sodipodi:docname="fablab logo-02.svg"
   inkscape:version="0.92.2 2405546, 2018-03-11"><metadata
     id="metadata821"><rdf:RDF><cc:Work
         rdf:about=""><dc:format>image/svg+xml</dc:format><dc:type
           rdf:resource="http://purl.org/dc/dcmitype/StillImage" /><dc:title></dc:title></cc:Work></rdf:RDF></metadata><defs
     id="defs819" /><sodipodi:namedview
     pagecolor="#ffffff"
     bordercolor="#666666"
     borderopacity="1"
     objecttolerance="10"
     gridtolerance="10"
     guidetolerance="10"
     inkscape:pageopacity="0"
     inkscape:pageshadow="2"
     inkscape:window-width="1920"
     inkscape:window-height="1016"
     id="namedview817"
     showgrid="false"
     fit-margin-top="0"
     fit-margin-left="0"
     fit-margin-right="0"
     fit-margin-bottom="0"
     inkscape:zoom="1.4716887"
     inkscape:cx="142.61064"
     inkscape:cy="40.061727"
     inkscape:window-x="0"
     inkscape:window-y="27"
     inkscape:window-maximized="1"
     inkscape:current-layer="g823" /><g
     id="g823"
     inkscape:groupmode="layer"
     inkscape:label="ink_ext_XXXXXX"
     transform="matrix(1.3333333,0,0,-1.3333333,-243.96799,729.97412)"><g
       id="g825"
       transform="scale(0.1)"><path
         d="m 2890.9,5474.8 h -27.07 c -1.49,0 -2.76,-0.55 -3.81,-1.65 -1.05,-1.1 -1.57,-2.36 -1.57,-3.77 v -127.17 c 0,-5.98 -2.32,-11.09 -6.94,-15.32 -4.63,-4.23 -11.09,-6.34 -19.37,-6.34 -8.1,0 -14.43,2.11 -18.96,6.34 -4.54,4.23 -6.81,9.34 -6.81,15.32 v 127.17 c 0,1.41 -0.55,2.67 -1.64,3.77 -1.1,1.1 -2.34,1.65 -3.74,1.65 h -27.07 c -1.49,0 -2.76,-0.55 -3.81,-1.65 -1.05,-1.1 -1.58,-2.35 -1.58,-3.76 v -126.95 c 0,-8.09 1.56,-15.78 4.68,-23.08 3.12,-7.29 7.51,-13.64 13.17,-19.04 5.66,-5.41 12.42,-9.7 20.28,-12.86 7.86,-3.17 16.35,-4.75 25.48,-4.75 9.31,0 17.89,1.58 25.75,4.75 7.86,3.16 14.62,7.45 20.28,12.86 5.67,5.4 10.1,11.75 13.3,19.04 3.21,7.3 4.81,14.99 4.81,23.08 v 126.95 c 0,1.41 -0.54,2.66 -1.64,3.76 -1.1,1.1 -2.34,1.65 -3.74,1.65"
         style="fill:#e3005c;fill-opacity:1;fill-rule:nonzero;stroke:none"
         id="path827"
         inkscape:connector-curvature="0" /><path
         d="m 3064.85,5474.8 h -27.03 c -1.41,0 -2.66,-0.55 -3.75,-1.65 -1.11,-1.1 -1.65,-2.35 -1.65,-3.76 v -101.51 c 0,-0.97 -0.31,-1.53 -0.93,-1.71 -0.61,-0.18 -1.1,0.18 -1.45,1.05 l -37.04,102.7 c -0.35,1.23 -1.06,2.35 -2.11,3.37 -1.06,1 -2.6,1.51 -4.62,1.51 h -32.16 c -1.41,0 -2.67,-0.55 -3.76,-1.65 -1.1,-1.1 -1.65,-2.35 -1.65,-3.76 v -178.24 c 0,-1.41 0.55,-2.66 1.65,-3.75 1.09,-1.1 2.35,-1.65 3.76,-1.65 h 27.02 c 1.41,0 2.66,0.55 3.76,1.65 1.1,1.09 1.65,2.34 1.65,3.75 v 93.48 c 0,0.88 0.3,1.4 0.92,1.58 0.62,0.17 1.1,-0.18 1.45,-1.06 l 36.78,-94.79 c 0.35,-1.06 1.06,-2.09 2.11,-3.1 1.06,-1.01 2.77,-1.51 5.14,-1.51 h 31.91 c 1.4,0 2.65,0.55 3.76,1.65 1.09,1.09 1.64,2.34 1.64,3.75 v 178.24 c 0,1.41 -0.55,2.66 -1.64,3.76 -1.11,1.1 -2.36,1.65 -3.76,1.65"
         style="fill:#e3005c;fill-opacity:1;fill-rule:nonzero;stroke:none"
         id="path829"
         inkscape:connector-curvature="0" /><path
         d="m 3307.72,5474.8 h -94.53 c -1.4,0 -2.66,-0.55 -3.76,-1.65 -1.1,-1.1 -1.64,-2.35 -1.64,-3.76 v -178.24 c 0,-1.41 0.54,-2.66 1.64,-3.75 1.1,-1.1 2.36,-1.65 3.76,-1.65 h 27.03 c 1.4,0 2.65,0.55 3.75,1.65 1.1,1.09 1.65,2.34 1.65,3.75 v 67.5 c 0,1.76 0.88,2.64 2.64,2.64 h 56.69 c 1.49,0 2.77,0.54 3.82,1.65 1.06,1.09 1.59,2.35 1.59,3.76 v 27.02 c 0,1.49 -0.56,2.77 -1.65,3.83 -1.1,1.05 -2.35,1.58 -3.76,1.58 h -56.69 c -1.76,0.09 -2.64,1 -2.64,2.76 v 32.31 c 0,1.84 0.88,2.76 2.64,2.76 h 59.46 c 1.4,0 2.65,0.55 3.75,1.65 1.1,1.1 1.65,2.35 1.65,3.76 v 27.02 c 0,1.41 -0.55,2.66 -1.65,3.76 -1.1,1.1 -2.35,1.65 -3.75,1.65"
         style="fill:#e3005c;fill-opacity:1;fill-rule:nonzero;stroke:none"
         id="path831"
         inkscape:connector-curvature="0" /><path
         d="m 3423.42,5359.44 h -24.79 c -1.58,0 -2.37,0.62 -2.37,1.85 0,0.35 0.04,0.75 0.13,1.19 l 13.05,64.73 c 0.18,0.7 0.62,1.05 1.32,1.05 h 0.53 c 0.7,0 1.14,-0.35 1.32,-1.05 l 12.92,-64.73 c 0.17,-0.44 0.26,-0.84 0.26,-1.19 0,-1.23 -0.79,-1.85 -2.37,-1.85 z m 11.07,111.27 c -0.53,2.73 -2.24,4.09 -5.14,4.09 h -36.12 c -2.9,0 -4.62,-1.36 -5.15,-4.09 l -48.38,-179.56 c -0.09,-0.35 -0.13,-0.7 -0.13,-1.05 0,-0.8 0.31,-1.63 0.92,-2.5 0.88,-1.23 2.42,-1.85 4.62,-1.85 h 28.34 c 2.9,0 4.62,1.36 5.14,4.08 l 7.52,27.82 c 0.52,2.64 1.89,3.96 4.08,3.96 h 41.01 c 1.31,0 2.24,-0.4 2.76,-1.19 0.53,-0.79 0.97,-1.71 1.32,-2.77 l 8.44,-27.82 c 0.88,-2.72 2.59,-4.08 5.14,-4.08 h 28.35 c 2.19,0 3.73,0.62 4.61,1.85 0.7,0.87 1.01,1.7 0.92,2.5 0,0.35 -0.04,0.7 -0.13,1.05 l -48.12,179.56"
         style="fill:#e3005c;fill-opacity:1;fill-rule:nonzero;stroke:none"
         id="path833"
         inkscape:connector-curvature="0" /><path
         d="m 3602.92,5329.78 c -3.42,-4.13 -8.04,-6.2 -13.84,-6.2 H 3561 c -1.76,0 -2.64,0.88 -2.64,2.64 v 35.33 c 0,1.85 0.88,2.77 2.64,2.77 h 28.08 c 5.8,0 10.42,-2.09 13.84,-6.26 3.43,-4.18 5.15,-8.85 5.15,-14.04 0,-5.36 -1.72,-10.11 -5.15,-14.24 z m -44.56,104.42 c 0,1.84 0.88,2.76 2.64,2.76 h 28.08 c 4.66,0 8.79,-1.71 12.39,-5.14 3.61,-3.42 5.41,-7.47 5.41,-12.12 0,-4.66 -1.8,-8.75 -5.41,-12.27 -3.6,-3.52 -7.73,-5.27 -12.39,-5.27 H 3561 c -1.76,0 -2.64,0.88 -2.64,2.63 z m 83.31,-69.35 c -1.34,3.25 -2.94,6.21 -4.78,8.9 -1.84,2.67 -3.9,5.03 -6.19,7.05 -1.82,1.49 -1.82,3.12 0,4.88 4.12,3.96 7.55,9.11 10.29,15.49 2.75,6.37 4.12,12.55 4.12,18.53 0,7.55 -1.38,14.69 -4.13,21.42 -2.76,6.72 -6.54,12.56 -11.34,17.53 -4.81,4.96 -10.5,8.9 -17.08,11.8 -6.58,2.9 -13.69,4.35 -21.34,4.35 h -64.43 c -1.43,0 -2.69,-0.55 -3.81,-1.65 -1.11,-1.1 -1.66,-2.35 -1.66,-3.76 v -178.24 c 0,-1.41 0.55,-2.66 1.65,-3.75 1.1,-1.1 2.35,-1.65 3.76,-1.65 h 63.74 c 8.36,0 15.95,1.39 22.77,4.15 6.82,2.77 12.67,6.68 17.55,11.74 4.88,5.05 8.62,11.18 11.22,18.39 2.59,7.2 3.89,15.2 3.89,23.99 0,3.43 -0.37,6.94 -1.1,10.55 -0.74,3.6 -1.78,7.03 -3.13,10.28"
         style="fill:#e3005c;fill-opacity:1;fill-rule:nonzero;stroke:none"
         id="path835"
         inkscape:connector-curvature="0" /><path
         d="m 3787.44,5285.75 c 1.49,0 2.77,0.55 3.82,1.65 1.06,1.09 1.59,2.34 1.59,3.75 v 27.03 c 0,1.41 -0.56,2.66 -1.65,3.76 -1.1,1.1 -2.35,1.64 -3.76,1.64 h -56.69 c -1.76,0 -2.64,0.88 -2.64,2.64 v 143.17 c 0,1.41 -0.55,2.66 -1.65,3.76 -1.1,1.1 -2.35,1.65 -3.75,1.65 h -27.03 c -1.4,0 -2.66,-0.55 -3.76,-1.65 -1.1,-1.1 -1.64,-2.35 -1.64,-3.76 v -178.24 c 0,-1.41 0.54,-2.66 1.64,-3.75 1.1,-1.1 2.36,-1.65 3.76,-1.65 h 91.76"
         style="fill:#e3005c;fill-opacity:1;fill-rule:nonzero;stroke:none"
         id="path837"
         inkscape:connector-curvature="0" /><path
         d="m 3873.48,5362.48 13.05,64.73 c 0.17,0.7 0.61,1.05 1.32,1.05 h 0.52 c 0.71,0 1.15,-0.35 1.32,-1.05 l 12.92,-64.73 c 0.18,-0.44 0.26,-0.84 0.26,-1.19 0,-1.23 -0.79,-1.85 -2.37,-1.85 h -24.78 c -1.59,0 -2.38,0.62 -2.38,1.85 0,0.35 0.05,0.75 0.14,1.19 z m -51.29,-76.73 h 28.35 c 2.9,0 4.61,1.36 5.14,4.08 l 7.51,27.82 c 0.53,2.64 1.89,3.96 4.09,3.96 h 41 c 1.32,0 2.24,-0.4 2.77,-1.19 0.53,-0.79 0.97,-1.71 1.32,-2.77 l 8.43,-27.82 c 0.88,-2.72 2.6,-4.08 5.15,-4.08 h 28.34 c 2.2,0 3.74,0.62 4.62,1.85 0.7,0.87 1.01,1.7 0.92,2.5 0,0.35 -0.05,0.7 -0.13,1.05 l -48.12,179.56 c -0.53,2.73 -2.25,4.09 -5.15,4.09 h -36.12 c -2.9,0 -4.61,-1.36 -5.14,-4.09 l -48.38,-179.56 c -0.09,-0.35 -0.14,-0.7 -0.14,-1.05 0,-0.8 0.31,-1.63 0.93,-2.5 0.88,-1.23 2.41,-1.85 4.61,-1.85"
         style="fill:#e3005c;fill-opacity:1;fill-rule:nonzero;stroke:none"
         id="path839"
         inkscape:connector-curvature="0" /><path
         d="m 4035.45,5361.55 c 0,1.85 0.88,2.77 2.64,2.77 h 28.08 c 5.8,0 10.42,-2.09 13.84,-6.26 3.43,-4.18 5.15,-8.85 5.15,-14.04 0,-5.36 -1.72,-10.11 -5.15,-14.24 -3.42,-4.13 -8.04,-6.2 -13.84,-6.2 h -28.08 c -1.76,0 -2.64,0.88 -2.64,2.64 z m 0,72.65 c 0,1.84 0.88,2.76 2.64,2.76 h 28.08 c 4.66,0 8.79,-1.71 12.39,-5.14 3.61,-3.42 5.41,-7.47 5.41,-12.12 0,-4.66 -1.8,-8.75 -5.41,-12.27 -3.6,-3.52 -7.73,-5.27 -12.39,-5.27 h -28.08 c -1.76,0 -2.64,0.88 -2.64,2.63 z m -31.63,-148.45 h 63.74 c 8.36,0 15.95,1.39 22.77,4.15 6.82,2.77 12.67,6.68 17.55,11.74 4.88,5.05 8.62,11.18 11.22,18.39 2.59,7.2 3.89,15.2 3.89,23.99 0,3.43 -0.37,6.94 -1.1,10.55 -0.74,3.6 -1.78,7.03 -3.13,10.28 -1.34,3.25 -2.94,6.21 -4.78,8.9 -1.84,2.67 -3.9,5.03 -6.19,7.05 -1.82,1.49 -1.82,3.12 0,4.88 4.12,3.96 7.55,9.11 10.29,15.49 2.75,6.37 4.12,12.55 4.12,18.53 0,7.55 -1.38,14.69 -4.13,21.42 -2.76,6.72 -6.54,12.56 -11.34,17.53 -4.81,4.96 -10.5,8.9 -17.08,11.8 -6.58,2.9 -13.69,4.35 -21.34,4.35 h -64.43 c -1.43,0 -2.69,-0.55 -3.81,-1.65 -1.11,-1.1 -1.66,-2.35 -1.66,-3.76 v -178.24 c 0,-1.41 0.55,-2.66 1.65,-3.75 1.1,-1.1 2.35,-1.65 3.76,-1.65"
         style="fill:#e3005c;fill-opacity:1;fill-rule:nonzero;stroke:none"
         id="path841"
         inkscape:connector-curvature="0" /><path
         d="m 1862.2,4249.57 h -27.03 c -1.41,0 -2.66,-0.56 -3.76,-1.65 -1.1,-1.1 -1.65,-2.35 -1.65,-3.76 v -178.24 c 0,-1.41 0.55,-2.66 1.65,-3.75 1.1,-1.11 2.35,-1.65 3.76,-1.65 h 27.03 c 1.4,0 2.65,0.54 3.75,1.65 1.1,1.09 1.65,2.34 1.65,3.75 v 178.24 c 0,1.41 -0.55,2.66 -1.65,3.76 -1.1,1.09 -2.35,1.65 -3.75,1.65"
         style="fill:#e3005c;fill-opacity:1;fill-rule:nonzero;stroke:none"
         id="path843"
         inkscape:connector-curvature="0" /><path
         d="m 2029.85,4235.19 c -5.69,5.37 -12.48,9.58 -20.37,12.66 -7.89,3.08 -16.5,4.62 -25.85,4.62 -9.37,0 -17.79,-1.58 -25.24,-4.75 -7.45,-3.16 -13.89,-7.47 -19.32,-12.91 -5.44,-5.45 -9.82,-11.77 -13.15,-18.97 -3.33,-7.21 -5.43,-14.85 -6.31,-22.93 -0.79,-5.8 -1.36,-11.89 -1.71,-18.25 -0.35,-6.37 -0.52,-12.91 -0.52,-19.62 0,-6.71 0.2,-13.31 0.59,-19.82 0.39,-6.49 0.94,-12.52 1.64,-18.04 0.88,-8.09 2.98,-15.73 6.31,-22.93 3.33,-7.21 7.71,-13.56 13.15,-19.05 5.43,-5.48 11.89,-9.81 19.38,-12.97 7.5,-3.17 15.89,-4.75 25.18,-4.75 9.35,0 17.96,1.54 25.85,4.62 7.89,3.08 14.68,7.31 20.37,12.72 5.68,5.4 10.14,11.89 13.36,19.45 3.21,7.56 4.82,15.82 4.82,24.78 v 0.27 c 0,1.49 -0.55,2.76 -1.66,3.81 -1.1,1.06 -2.35,1.59 -3.76,1.59 h -26.99 c -1.5,0 -2.78,-0.6 -3.84,-1.8 -1.06,-1.19 -1.59,-2.5 -1.59,-3.93 v -0.26 c 0,-2.83 -0.64,-5.67 -1.91,-8.52 -1.28,-2.83 -3.09,-5.34 -5.42,-7.51 -2.34,-2.17 -5.14,-3.94 -8.39,-5.32 -3.26,-1.37 -6.87,-2.06 -10.84,-2.06 -8.28,0 -14.56,2.12 -18.83,6.35 -4.27,4.24 -6.77,9.36 -7.47,15.37 -0.7,5.64 -1.23,11.72 -1.59,18.2 -0.35,6.5 -0.52,13.09 -0.52,19.8 0,6.71 0.17,13.26 0.52,19.67 0.36,6.39 0.89,12.51 1.59,18.34 0.79,5.91 3.31,10.98 7.54,15.22 4.22,4.24 10.48,6.36 18.76,6.36 4.32,0 8.11,-0.71 11.36,-2.13 3.26,-1.42 6.02,-3.28 8.26,-5.59 2.25,-2.3 3.97,-4.85 5.16,-7.64 1.19,-2.8 1.78,-5.57 1.78,-8.31 v -0.28 c 0,-1.41 0.55,-2.68 1.66,-3.79 1.1,-1.11 2.36,-1.66 3.77,-1.66 h 26.99 c 1.49,0 2.77,0.55 3.83,1.65 1.06,1.1 1.59,2.35 1.59,3.75 v 0.27 c 0,9.05 -1.61,17.36 -4.82,24.92 -3.22,7.56 -7.68,14.01 -13.36,19.37"
         style="fill:#e3005c;fill-opacity:1;fill-rule:nonzero;stroke:none"
         id="path845"
         inkscape:connector-curvature="0" /><path
         d="m 2129.06,4249.57 h -27.03 c -1.41,0 -2.66,-0.56 -3.76,-1.65 -1.1,-1.1 -1.65,-2.35 -1.65,-3.76 v -178.24 c 0,-1.41 0.55,-2.66 1.65,-3.75 1.1,-1.11 2.35,-1.65 3.76,-1.65 h 27.03 c 1.4,0 2.65,0.54 3.75,1.65 1.1,1.09 1.65,2.34 1.65,3.75 v 178.24 c 0,1.41 -0.55,2.66 -1.65,3.76 -1.1,1.09 -2.35,1.65 -3.75,1.65"
         style="fill:#e3005c;fill-opacity:1;fill-rule:nonzero;stroke:none"
         id="path847"
         inkscape:connector-curvature="0" /><path
         d="m 2339.23,4134.21 h -24.78 c -1.59,0 -2.38,0.61 -2.38,1.84 0,0.36 0.05,0.76 0.13,1.2 l 13.06,64.72 c 0.17,0.71 0.61,1.06 1.32,1.06 h 0.52 c 0.71,0 1.14,-0.35 1.32,-1.06 l 12.92,-64.72 c 0.18,-0.44 0.26,-0.84 0.26,-1.2 0,-1.23 -0.79,-1.84 -2.37,-1.84 z m 11.08,111.27 c -0.53,2.72 -2.25,4.09 -5.15,4.09 h -36.12 c -2.9,0 -4.61,-1.37 -5.14,-4.09 l -48.38,-179.56 c -0.09,-0.35 -0.14,-0.71 -0.14,-1.06 0,-0.79 0.31,-1.62 0.93,-2.5 0.88,-1.23 2.41,-1.84 4.61,-1.84 h 28.35 c 2.9,0 4.61,1.35 5.14,4.08 l 7.51,27.82 c 0.53,2.64 1.89,3.96 4.09,3.96 h 41 c 1.32,0 2.24,-0.4 2.77,-1.2 0.53,-0.79 0.96,-1.7 1.32,-2.76 l 8.43,-27.82 c 0.88,-2.73 2.6,-4.08 5.15,-4.08 h 28.34 c 2.2,0 3.74,0.61 4.61,1.84 0.71,0.88 1.02,1.71 0.93,2.5 0,0.35 -0.05,0.71 -0.13,1.06 l -48.12,179.56"
         style="fill:#e3005c;fill-opacity:1;fill-rule:nonzero;stroke:none"
         id="path849"
         inkscape:connector-curvature="0" /><path
         d="m 2556.59,4249.57 h -27.06 c -1.49,0 -2.76,-0.56 -3.81,-1.65 -1.05,-1.1 -1.58,-2.36 -1.58,-3.77 v -127.17 c 0,-5.98 -2.31,-11.09 -6.94,-15.32 -4.62,-4.23 -11.08,-6.34 -19.36,-6.34 -8.11,0 -14.43,2.11 -18.97,6.34 -4.54,4.23 -6.8,9.34 -6.8,15.32 v 127.17 c 0,1.41 -0.55,2.67 -1.64,3.77 -1.1,1.09 -2.35,1.65 -3.75,1.65 h -27.06 c -1.49,0 -2.76,-0.56 -3.81,-1.65 -1.05,-1.1 -1.58,-2.35 -1.58,-3.76 v -126.95 c 0,-8.09 1.56,-15.78 4.67,-23.08 3.12,-7.29 7.51,-13.64 13.18,-19.04 5.66,-5.41 12.42,-9.7 20.28,-12.86 7.86,-3.17 16.35,-4.75 25.48,-4.75 9.31,0 17.89,1.58 25.75,4.75 7.86,3.16 14.62,7.45 20.28,12.86 5.66,5.4 10.1,11.75 13.3,19.04 3.21,7.3 4.81,14.99 4.81,23.08 v 126.95 c 0,1.41 -0.55,2.66 -1.64,3.76 -1.1,1.09 -2.34,1.65 -3.75,1.65"
         style="fill:#e3005c;fill-opacity:1;fill-rule:nonzero;stroke:none"
         id="path851"
         inkscape:connector-curvature="0" /><path
         d="m 2713.54,4249.57 h -110.62 c -1.4,0 -2.65,-0.56 -3.75,-1.65 -1.1,-1.1 -1.65,-2.35 -1.65,-3.76 v -27.02 c 0,-1.5 0.55,-2.78 1.64,-3.83 1.1,-1.05 2.35,-1.58 3.75,-1.58 h 33.65 c 1.83,-0.09 2.75,-1.01 2.75,-2.77 v -143.04 c 0,-1.41 0.53,-2.66 1.59,-3.75 1.06,-1.11 2.29,-1.65 3.71,-1.65 h 27.12 c 1.5,0 2.77,0.54 3.83,1.65 1.06,1.09 1.59,2.34 1.59,3.75 v 143.04 c 0.09,1.85 1.01,2.77 2.76,2.77 h 33.64 c 1.4,0 2.65,0.54 3.75,1.65 1.1,1.09 1.64,2.35 1.64,3.76 v 27.02 c 0,1.41 -0.55,2.66 -1.64,3.76 -1.1,1.09 -2.35,1.65 -3.76,1.65"
         style="fill:#e3005c;fill-opacity:1;fill-rule:nonzero;stroke:none"
         id="path853"
         inkscape:connector-curvature="0" /><path
         d="m 2845.72,4135.18 c -0.27,-6.54 -0.76,-12.58 -1.46,-18.14 -0.79,-6.01 -3.31,-11.13 -7.53,-15.37 -4.23,-4.23 -10.49,-6.35 -18.76,-6.35 -8.28,0 -14.56,2.12 -18.84,6.35 -4.27,4.24 -6.76,9.36 -7.46,15.37 -0.71,5.64 -1.24,11.72 -1.59,18.2 -0.35,6.5 -0.53,13.09 -0.53,19.8 0,6.71 0.18,13.26 0.53,19.67 0.35,6.39 0.88,12.51 1.59,18.34 0.79,5.91 3.3,10.98 7.53,15.22 4.23,4.24 10.49,6.36 18.77,6.36 8.27,0 14.55,-2.09 18.82,-6.29 4.28,-4.19 6.77,-9.29 7.47,-15.29 0.7,-5.83 1.19,-11.95 1.46,-18.34 0.26,-6.41 0.39,-12.96 0.39,-19.67 0,-6.71 -0.13,-13.33 -0.39,-19.86 z m 36.26,57.73 c -0.88,8.08 -2.98,15.72 -6.31,22.93 -3.33,7.2 -7.74,13.52 -13.21,18.97 -5.48,5.44 -11.94,9.75 -19.39,12.91 -7.45,3.17 -15.82,4.75 -25.1,4.75 -9.3,0 -17.68,-1.58 -25.18,-4.75 -7.49,-3.16 -13.95,-7.47 -19.39,-12.91 -5.43,-5.45 -9.82,-11.77 -13.14,-18.97 -3.34,-7.21 -5.44,-14.85 -6.32,-22.93 -0.78,-5.8 -1.35,-11.89 -1.7,-18.25 -0.35,-6.37 -0.52,-12.91 -0.52,-19.62 0,-6.71 0.19,-13.31 0.59,-19.82 0.39,-6.49 0.93,-12.52 1.64,-18.04 0.87,-8.09 2.98,-15.73 6.31,-22.93 3.33,-7.21 7.71,-13.56 13.14,-19.05 5.44,-5.48 11.9,-9.81 19.39,-12.97 7.5,-3.17 15.88,-4.75 25.18,-4.75 9.28,0 17.65,1.58 25.1,4.75 7.45,3.16 13.91,7.49 19.39,12.97 5.47,5.49 9.88,11.84 13.21,19.05 3.33,7.2 5.43,14.84 6.31,22.93 0.78,5.61 1.31,11.66 1.57,18.11 0.27,6.46 0.4,13.04 0.4,19.75 0,6.71 -0.16,13.25 -0.47,19.62 -0.3,6.36 -0.8,12.45 -1.5,18.25"
         style="fill:#e3005c;fill-opacity:1;fill-rule:nonzero;stroke:none"
         id="path855"
         inkscape:connector-curvature="0" /><path
         d="m 3053.85,4249.57 h -27.06 c -1.49,0 -2.76,-0.56 -3.81,-1.65 -1.05,-1.1 -1.58,-2.36 -1.58,-3.77 v -127.17 c 0,-5.98 -2.31,-11.09 -6.93,-15.32 -4.63,-4.23 -11.09,-6.34 -19.37,-6.34 -8.11,0 -14.43,2.11 -18.96,6.34 -4.55,4.23 -6.81,9.34 -6.81,15.32 v 127.17 c 0,1.41 -0.55,2.67 -1.64,3.77 -1.1,1.09 -2.35,1.65 -3.75,1.65 h -27.06 c -1.49,0 -2.76,-0.56 -3.81,-1.65 -1.05,-1.1 -1.58,-2.35 -1.58,-3.76 v -126.95 c 0,-8.09 1.56,-15.78 4.67,-23.08 3.12,-7.29 7.51,-13.64 13.18,-19.04 5.66,-5.41 12.42,-9.7 20.28,-12.86 7.86,-3.17 16.35,-4.75 25.48,-4.75 9.31,0 17.89,1.58 25.75,4.75 7.86,3.16 14.62,7.45 20.28,12.86 5.66,5.4 10.1,11.75 13.3,19.04 3.21,7.3 4.81,14.99 4.81,23.08 v 126.95 c 0,1.41 -0.55,2.66 -1.64,3.76 -1.1,1.09 -2.34,1.65 -3.75,1.65"
         style="fill:#e3005c;fill-opacity:1;fill-rule:nonzero;stroke:none"
         id="path857"
         inkscape:connector-curvature="0" /><path
         d="m 3189.84,4179.43 c -3.69,-3.69 -8.13,-5.53 -13.32,-5.53 h -24.39 c -1.76,0.08 -2.64,1 -2.64,2.76 v 32.3 c 0,1.85 0.88,2.77 2.64,2.77 h 24.39 c 5.19,0 9.63,-1.85 13.32,-5.54 3.69,-3.69 5.53,-8.12 5.53,-13.31 0,-5.27 -1.84,-9.76 -5.53,-13.45 z m 15.29,-34.41 c 9.67,6.5 16.76,13.49 21.29,20.97 4.52,7.47 6.79,16.43 6.79,26.89 0,7.73 -1.49,15.05 -4.48,21.95 -2.99,6.9 -7.06,12.92 -12.19,18.06 -5.15,5.15 -11.17,9.21 -18.07,12.2 -6.9,2.99 -14.21,4.48 -21.95,4.48 h -59.46 c -1.4,0 -2.66,-0.56 -3.76,-1.65 -1.1,-1.1 -1.64,-2.35 -1.64,-3.76 v -178.24 c 0,-1.41 0.54,-2.66 1.64,-3.75 1.1,-1.11 2.36,-1.65 3.76,-1.65 h 27.03 c 1.41,0 2.66,0.54 3.75,1.65 1.1,1.09 1.65,2.34 1.65,3.75 v 67.5 c 0,1.76 0.88,2.63 2.64,2.63 h 7.12 c 1.41,0 2.46,-0.39 3.16,-1.18 0.71,-0.79 1.24,-1.54 1.59,-2.24 l 27.55,-66.71 c 0.79,-1.58 1.76,-2.88 2.9,-3.89 1.14,-1.02 2.81,-1.51 5.01,-1.51 h 27.82 c 2.63,0 4.37,0.83 5.2,2.5 0.84,1.67 0.82,3.51 -0.06,5.53 l -29,67.5 c -0.88,2.03 -1.32,3.68 -1.32,4.96 0,1.26 1.01,2.6 3.03,4.01"
         style="fill:#e3005c;fill-opacity:1;fill-rule:nonzero;stroke:none"
         id="path859"
         inkscape:connector-curvature="0" /><path
         d="m 4103.11,4855.8 -99.43,-19.33 c -10.96,-2.13 -19.88,-13.17 -19.88,-24.5 V 4265.1 c 0,-6.21 -3.98,-11.1 -9.97,-12.26 l -259.9,-50.52 c -10.94,-2.13 -19.93,-13.17 -19.93,-24.52 v -103.2 c 0,-11.33 8.99,-18.88 19.93,-16.76 l 389.18,75.65 c 10.98,2.13 19.88,13.16 19.88,24.5 v 681.04 c 0,11.34 -8.9,18.9 -19.88,16.77"
         style="fill:#e3005c;fill-opacity:1;fill-rule:nonzero;stroke:none"
         id="path861"
         inkscape:connector-curvature="0" /><path
         d="m 2257.98,5457.66 c 0,11.34 -8.94,18.91 -19.9,16.79 l -388.41,-75.5 c -10.96,-2.14 -19.91,-13.18 -19.91,-24.53 v -681.01 c 0,-11.36 8.95,-18.91 19.91,-16.78 l 99.39,19.32 c 10.98,2.14 19.89,13.16 19.89,24.52 v 257.96 c 0,6.18 4,11.09 9.95,12.26 l 208.83,40.58 c 10.9,2.12 19.89,13.14 19.89,24.52 v 103.16 c 0,11.35 -8.99,18.89 -19.89,16.77 l -208.83,-40.58 c -5.95,-1.16 -9.95,2.18 -9.95,8.39 v 123.79 c 0,6.23 4,11.12 9.95,12.28 l 259.18,50.38 c 10.96,2.13 19.9,13.16 19.9,24.49 v 103.19"
         style="fill:#e3005c;fill-opacity:1;fill-rule:nonzero;stroke:none"
         id="path863"
         inkscape:connector-curvature="0" /></g></g></svg>
