<?xml version="1.0" encoding="UTF-8" standalone="no"?>
<!-- Generator: Adobe Illustrator 19.0.0, SVG Export Plug-In . SVG Version: 6.00 Build 0)  -->

<svg
   xmlns:dc="http://purl.org/dc/elements/1.1/"
   xmlns:cc="http://creativecommons.org/ns#"
   xmlns:rdf="http://www.w3.org/1999/02/22-rdf-syntax-ns#"
   xmlns:svg="http://www.w3.org/2000/svg"
   xmlns="http://www.w3.org/2000/svg"
   xmlns:sodipodi="http://sodipodi.sourceforge.net/DTD/sodipodi-0.dtd"
   xmlns:inkscape="http://www.inkscape.org/namespaces/inkscape"
   version="1.1"
   id="Calque_1"
   x="0px"
   y="0px"
   viewBox="0 0 240 32"
   style="enable-background:new 0 0 240 32;"
   xml:space="preserve"
   inkscape:version="0.91 r13725"
   sodipodi:docname="fablab - Un fablab.svg"><metadata
     id="metadata18"><rdf:RDF><cc:Work
         rdf:about=""><dc:format>image/svg+xml</dc:format><dc:type
           rdf:resource="http://purl.org/dc/dcmitype/StillImage" /></cc:Work></rdf:RDF></metadata><defs
     id="defs16" /><sodipodi:namedview
     pagecolor="#ffffff"
     bordercolor="#666666"
     borderopacity="1"
     objecttolerance="10"
     gridtolerance="10"
     guidetolerance="10"
     inkscape:pageopacity="0"
     inkscape:pageshadow="2"
     inkscape:window-width="1920"
     inkscape:window-height="1056"
     id="namedview14"
     showgrid="false"
     inkscape:zoom="1.3416667"
     inkscape:cx="120"
     inkscape:cy="16"
     inkscape:window-x="0"
     inkscape:window-y="24"
     inkscape:window-maximized="1"
     inkscape:current-layer="XMLID_1_" /><style
     type="text/css"
     id="style3">
	.st0{fill:#641BA8;}
</style><g
     id="XMLID_1_"><path
       id="XMLID_2_"
       class="st0"
       d="M11.5,22.3V0.9c0-0.2,0.1-0.4,0.3-0.6S12.1,0,12.4,0h4.6c0.2,0,0.4,0.1,0.6,0.3   c0.2,0.2,0.3,0.4,0.3,0.6v21.5c0,1,0.4,1.9,1.1,2.6c0.8,0.7,1.8,1.1,3.2,1.1c1.4,0,2.5-0.4,3.3-1.1c0.8-0.7,1.2-1.6,1.2-2.6V0.9   c0-0.2,0.1-0.4,0.3-0.6C27.1,0.1,27.3,0,27.6,0h4.6c0.2,0,0.4,0.1,0.6,0.3C32.9,0.5,33,0.7,33,0.9v21.4c0,1.4-0.3,2.7-0.8,3.9   c-0.5,1.2-1.3,2.3-2.2,3.2c-1,0.9-2.1,1.6-3.4,2.2c-1.3,0.5-2.8,0.8-4.3,0.8c-1.5,0-3-0.3-4.3-0.8c-1.3-0.5-2.5-1.3-3.4-2.2   c-1-0.9-1.7-2-2.2-3.2C11.7,25,11.5,23.7,11.5,22.3z"
       style="fill:#0000ff;fill-opacity:1" /><path
       id="XMLID_4_"
       class="st0"
       d="M41.9,31V0.9c0-0.2,0.1-0.4,0.3-0.6C42.3,0.1,42.5,0,42.8,0h5.4c0.3,0,0.6,0.1,0.8,0.3   c0.2,0.2,0.3,0.4,0.4,0.6l6.2,17.3c0.1,0.1,0.1,0.2,0.2,0.2S56,18.2,56,18V0.9c0-0.2,0.1-0.4,0.3-0.6C56.5,0.1,56.7,0,56.9,0h4.6   c0.2,0,0.4,0.1,0.6,0.3c0.2,0.2,0.3,0.4,0.3,0.6V31c0,0.2-0.1,0.4-0.3,0.6c-0.2,0.2-0.4,0.3-0.6,0.3h-5.4c-0.4,0-0.7-0.1-0.9-0.3   c-0.2-0.2-0.3-0.3-0.4-0.5l-6.2-16c-0.1-0.1-0.1-0.2-0.2-0.2c-0.1,0-0.2,0.1-0.2,0.3V31c0,0.2-0.1,0.4-0.3,0.6   c-0.2,0.2-0.4,0.3-0.6,0.3h-4.6c-0.2,0-0.4-0.1-0.6-0.3C42,31.4,41.9,31.2,41.9,31z"
       style="fill:#0000ff;fill-opacity:1" /><path
       id="XMLID_6_"
       class="st0"
       d="M85.6,31V0.9c0-0.2,0.1-0.4,0.3-0.6C86,0.1,86.3,0,86.5,0h15.9c0.2,0,0.4,0.1,0.6,0.3   c0.2,0.2,0.3,0.4,0.3,0.6v4.6c0,0.2-0.1,0.4-0.3,0.6c-0.2,0.2-0.4,0.3-0.6,0.3h-10c-0.3,0-0.4,0.2-0.4,0.5v5.4   c0,0.3,0.1,0.5,0.4,0.5h9.6c0.2,0,0.4,0.1,0.6,0.3c0.2,0.2,0.3,0.4,0.3,0.6v4.6c0,0.2-0.1,0.4-0.3,0.6c-0.2,0.2-0.4,0.3-0.6,0.3   h-9.6c-0.3,0-0.4,0.1-0.4,0.4V31c0,0.2-0.1,0.4-0.3,0.6c-0.2,0.2-0.4,0.3-0.6,0.3h-4.6c-0.2,0-0.4-0.1-0.6-0.3   C85.7,31.4,85.6,31.2,85.6,31z"
       style="fill:#0000ff;fill-opacity:1" /><path
       id="XMLID_8_"
       class="st0"
       d="M107.8,31L116,0.7c0.1-0.5,0.4-0.7,0.9-0.7h6.1c0.5,0,0.8,0.2,0.9,0.7L132,31c0,0.1,0,0.1,0,0.2   c0,0.1,0,0.3-0.2,0.4c-0.1,0.2-0.4,0.3-0.8,0.3h-4.8c-0.4,0-0.7-0.2-0.9-0.7l-1.4-4.7c-0.1-0.2-0.1-0.3-0.2-0.5s-0.2-0.2-0.5-0.2   h-6.9c-0.4,0-0.6,0.2-0.7,0.7l-1.3,4.7c-0.1,0.5-0.4,0.7-0.9,0.7h-4.8c-0.4,0-0.6-0.1-0.8-0.3c-0.1-0.1-0.2-0.3-0.2-0.4   C107.8,31.1,107.8,31,107.8,31z M117.4,19c0,0.1,0,0.1,0,0.2c0,0.2,0.1,0.3,0.4,0.3h4.2c0.3,0,0.4-0.1,0.4-0.3c0-0.1,0-0.1,0-0.2   L120.1,8c0-0.1-0.1-0.2-0.2-0.2h-0.1c-0.1,0-0.2,0.1-0.2,0.2L117.4,19z"
       style="fill:#0000ff;fill-opacity:1" /><path
       id="XMLID_12_"
       class="st0"
       d="M138.5,31V0.9c0-0.2,0.1-0.4,0.3-0.6s0.4-0.3,0.6-0.3h10.9c1.3,0,2.5,0.2,3.6,0.7   c1.1,0.5,2.1,1.2,2.9,2c0.8,0.8,1.4,1.8,1.9,3c0.5,1.1,0.7,2.3,0.7,3.6c0,1-0.2,2.1-0.7,3.1c-0.5,1.1-1,1.9-1.7,2.6   c-0.3,0.3-0.3,0.6,0,0.8c0.4,0.3,0.7,0.7,1,1.2c0.3,0.5,0.6,1,0.8,1.5s0.4,1.1,0.5,1.7c0.1,0.6,0.2,1.2,0.2,1.8   c0,1.5-0.2,2.8-0.7,4c-0.4,1.2-1.1,2.3-1.9,3.1c-0.8,0.9-1.8,1.5-3,2c-1.2,0.5-2.4,0.7-3.8,0.7h-10.8c-0.2,0-0.4-0.1-0.6-0.3   C138.6,31.4,138.5,31.2,138.5,31z M144.7,11.8c0,0.3,0.1,0.4,0.4,0.4h4.7c0.8,0,1.5-0.3,2.1-0.9c0.6-0.6,0.9-1.3,0.9-2.1   c0-0.8-0.3-1.5-0.9-2s-1.3-0.9-2.1-0.9h-4.7c-0.3,0-0.4,0.2-0.4,0.5V11.8z M144.7,25.1c0,0.3,0.1,0.4,0.4,0.4h4.7   c1,0,1.8-0.3,2.3-1c0.6-0.7,0.9-1.5,0.9-2.4c0-0.9-0.3-1.7-0.9-2.4c-0.6-0.7-1.4-1.1-2.3-1.1h-4.7c-0.3,0-0.4,0.2-0.4,0.5V25.1z"
       style="fill:#0000ff;fill-opacity:1" /><path
       id="XMLID_16_"
       class="st0"
       d="M167,31V0.9c0-0.2,0.1-0.4,0.3-0.6c0.2-0.2,0.4-0.3,0.6-0.3h4.6c0.2,0,0.4,0.1,0.6,0.3   c0.2,0.2,0.3,0.4,0.3,0.6v24.2c0,0.3,0.1,0.4,0.4,0.4h9.6c0.2,0,0.4,0.1,0.6,0.3c0.2,0.2,0.3,0.4,0.3,0.6V31c0,0.2-0.1,0.4-0.3,0.6   c-0.2,0.2-0.4,0.3-0.6,0.3h-15.5c-0.2,0-0.4-0.1-0.6-0.3C167.1,31.4,167,31.2,167,31z"
       style="fill:#0000ff;fill-opacity:1" /><path
       id="XMLID_18_"
       class="st0"
       d="M188.3,31l8.2-30.3c0.1-0.5,0.4-0.7,0.9-0.7h6.1c0.5,0,0.8,0.2,0.9,0.7l8.1,30.3   c0,0.1,0,0.1,0,0.2c0,0.1,0,0.3-0.2,0.4c-0.1,0.2-0.4,0.3-0.8,0.3h-4.8c-0.4,0-0.7-0.2-0.9-0.7l-1.4-4.7c-0.1-0.2-0.1-0.3-0.2-0.5   s-0.2-0.2-0.5-0.2h-6.9c-0.4,0-0.6,0.2-0.7,0.7l-1.3,4.7c-0.1,0.5-0.4,0.7-0.9,0.7h-4.8c-0.4,0-0.6-0.1-0.8-0.3   c-0.1-0.1-0.2-0.3-0.2-0.4C188.3,31.1,188.3,31,188.3,31z M197.9,19c0,0.1,0,0.1,0,0.2c0,0.2,0.1,0.3,0.4,0.3h4.2   c0.3,0,0.4-0.1,0.4-0.3c0-0.1,0-0.1,0-0.2L200.6,8c0-0.1-0.1-0.2-0.2-0.2h-0.1c-0.1,0-0.2,0.1-0.2,0.2L197.9,19z"
       style="fill:#0000ff;fill-opacity:1" /><path
       id="XMLID_21_"
       class="st0"
       d="M219,31V0.9c0-0.2,0.1-0.4,0.3-0.6s0.4-0.3,0.6-0.3h10.9c1.3,0,2.5,0.2,3.6,0.7   c1.1,0.5,2.1,1.2,2.9,2c0.8,0.8,1.4,1.8,1.9,3c0.5,1.1,0.7,2.3,0.7,3.6c0,1-0.2,2.1-0.7,3.1c-0.5,1.1-1,1.9-1.7,2.6   c-0.3,0.3-0.3,0.6,0,0.8c0.4,0.3,0.7,0.7,1,1.2c0.3,0.5,0.6,1,0.8,1.5c0.2,0.5,0.4,1.1,0.5,1.7c0.1,0.6,0.2,1.2,0.2,1.8   c0,1.5-0.2,2.8-0.7,4c-0.4,1.2-1.1,2.3-1.9,3.1c-0.8,0.9-1.8,1.5-3,2c-1.2,0.5-2.4,0.7-3.8,0.7h-10.8c-0.2,0-0.4-0.1-0.6-0.3   C219.1,31.4,219,31.2,219,31z M225.2,11.8c0,0.3,0.1,0.4,0.4,0.4h4.7c0.8,0,1.5-0.3,2.1-0.9c0.6-0.6,0.9-1.3,0.9-2.1   c0-0.8-0.3-1.5-0.9-2s-1.3-0.9-2.1-0.9h-4.7c-0.3,0-0.4,0.2-0.4,0.5V11.8z M225.2,25.1c0,0.3,0.1,0.4,0.4,0.4h4.7   c1,0,1.8-0.3,2.3-1c0.6-0.7,0.9-1.5,0.9-2.4c0-0.9-0.3-1.7-0.9-2.4c-0.6-0.7-1.4-1.1-2.3-1.1h-4.7c-0.3,0-0.4,0.2-0.4,0.5V25.1z"
       style="fill:#0000ff;fill-opacity:1" /></g></svg>