<svg id="Calque_1" data-name="Calque 1" xmlns="http://www.w3.org/2000/svg" width="68.28mm" height="176.99mm" viewBox="0 0 193.55 501.71">
  <defs>
    <style>
      .cls-1, .cls-19 {
        fill: #0b1783;
      }

      .cls-10, .cls-11, .cls-12, .cls-13, .cls-14, .cls-15, .cls-16, .cls-17, .cls-2, .cls-3, .cls-4, .cls-5, .cls-6, .cls-7, .cls-8, .cls-9 {
        fill: none;
        stroke: #0b1783;
        stroke-linecap: round;
        stroke-miterlimit: 10;
        stroke-width: 1.5px;
      }

      .cls-3 {
        stroke-dasharray: 0 3.86;
      }

      .cls-4 {
        stroke-dasharray: 0 4.18;
      }

      .cls-5 {
        stroke-dasharray: 0 4.02;
      }

      .cls-6 {
        stroke-dasharray: 0 3.66;
      }

      .cls-7 {
        stroke-dasharray: 0 4.03;
      }

      .cls-8 {
        stroke-dasharray: 0 3.82;
      }

      .cls-9 {
        stroke-dasharray: 0 4;
      }

      .cls-10 {
        stroke-dasharray: 0 4.27;
      }

      .cls-11 {
        stroke-dasharray: 0 4.03;
      }

      .cls-12 {
        stroke-dasharray: 0 4.23;
      }

      .cls-13 {
        stroke-dasharray: 0 3.62;
      }

      .cls-14 {
        stroke-dasharray: 0 4.05;
      }

      .cls-15 {
        stroke-dasharray: 0 4.29;
      }

      .cls-16 {
        stroke-dasharray: 0 4.05;
      }

      .cls-17 {
        stroke-dasharray: 0 3.86;
      }

      .cls-18 {
        fill: #e3005c;
      }

      .cls-19 {
        fill-rule: evenodd;
      }

      .cls-20 {
        fill: #fff;
      }

      .cls-21 {
        isolation: isolate;
      }
    </style>
  </defs>
  <title>infographie</title>
  <g>
    <path class="cls-1" d="M179.13,34.2l.1.51h0l.1-.48,2.09-9h2.46l-3.46,12.08H178L174.6,25.2h2.46Z" transform="translate(-110.16 -25.2)"/>
    <path class="cls-1" d="M184.1,32.71a5.3,5.3,0,0,1,1-3.3,3.54,3.54,0,0,1,5.44,0,5.26,5.26,0,0,1,1,3.3v.19a5.24,5.24,0,0,1-1,3.29,3.56,3.56,0,0,1-5.44,0,5.25,5.25,0,0,1-1-3.29Zm2.33.19a5.23,5.23,0,0,0,.31,2,1.08,1.08,0,0,0,1.06.74,1.07,1.07,0,0,0,1-.74,5.17,5.17,0,0,0,.32-2v-.19a5.22,5.22,0,0,0-.32-2,1.1,1.1,0,0,0-2.09,0,5.28,5.28,0,0,0-.31,2Z" transform="translate(-110.16 -25.2)"/>
    <path class="cls-1" d="M197.43,36a2.89,2.89,0,0,1-.89,1.07,2.1,2.1,0,0,1-1.24.38,2.21,2.21,0,0,1-1.9-1,5.21,5.21,0,0,1-.69-3V28.31H195V33.5a4,4,0,0,0,.24,1.66.78.78,0,0,0,.74.46,1.58,1.58,0,0,0,.71-.15,1.44,1.44,0,0,0,.52-.45V28.31h2.35v9h-1.92Z" transform="translate(-110.16 -25.2)"/>
    <path class="cls-1" d="M205.11,34.94a.89.89,0,0,0-.31-.68,5,5,0,0,0-1.19-.69,6.28,6.28,0,0,1-2.06-1.15,2.14,2.14,0,0,1-.69-1.64,2.4,2.4,0,0,1,.88-1.87,3.38,3.38,0,0,1,2.32-.77,3.49,3.49,0,0,1,2.41.8,2.47,2.47,0,0,1,.86,2l0,0h-2.26a1.52,1.52,0,0,0-.25-.91.87.87,0,0,0-.75-.34,1,1,0,0,0-.68.27.86.86,0,0,0-.28.65.82.82,0,0,0,.27.64,5.7,5.7,0,0,0,1.19.68,5.82,5.82,0,0,1,2.11,1.15,2.26,2.26,0,0,1,.69,1.71,2.29,2.29,0,0,1-.92,1.88,3.77,3.77,0,0,1-2.42.73,3.39,3.39,0,0,1-2.48-.9,2.63,2.63,0,0,1-.87-2l0,0h2.12a1.46,1.46,0,0,0,.35,1,1.26,1.26,0,0,0,.91.32,1.07,1.07,0,0,0,.76-.25A.86.86,0,0,0,205.11,34.94Z" transform="translate(-110.16 -25.2)"/>
    <path class="cls-1" d="M216.82,37.28a3.89,3.89,0,0,1-.22-.65,5.37,5.37,0,0,1-.13-.71,3.17,3.17,0,0,1-.78,1.1,1.73,1.73,0,0,1-1.19.43,2.43,2.43,0,0,1-1.89-.72,2.8,2.8,0,0,1-.66-2,2.51,2.51,0,0,1,.87-2,4,4,0,0,1,2.59-.73h1v-.75a1.81,1.81,0,0,0-.25-1,.84.84,0,0,0-.74-.36.78.78,0,0,0-.66.29,1.33,1.33,0,0,0-.22.83H212.3l0,0a2.39,2.39,0,0,1,.87-2,3.54,3.54,0,0,1,2.43-.81,3.25,3.25,0,0,1,2.3.81,3,3,0,0,1,.88,2.32V35a7.39,7.39,0,0,0,.09,1.19,6.9,6.9,0,0,0,.28,1.13Zm-1.72-1.56a1.31,1.31,0,0,0,.83-.29,1.44,1.44,0,0,0,.5-.69V33.33h-1a1,1,0,0,0-.86.38,1.62,1.62,0,0,0-.27,1,1.2,1.2,0,0,0,.22.75A.72.72,0,0,0,215.1,35.72Z" transform="translate(-110.16 -25.2)"/>
    <path class="cls-1" d="M223.05,34l.11.68h0l.13-.68,1.09-5.66h2.45l-2.55,9H222l-2.56-9h2.46Z" transform="translate(-110.16 -25.2)"/>
    <path class="cls-1" d="M231.11,37.46a3.32,3.32,0,0,1-2.75-1.23,4.92,4.92,0,0,1-1-3.16v-.34a5.44,5.44,0,0,1,.94-3.31A3.1,3.1,0,0,1,231,28.14a2.9,2.9,0,0,1,2.43,1.09,4.69,4.69,0,0,1,.85,3v1.28h-4.53a3.16,3.16,0,0,0,.45,1.58,1.36,1.36,0,0,0,1.22.59,3.62,3.62,0,0,0,1.17-.16,4.78,4.78,0,0,0,1-.51l.61,1.46a3.88,3.88,0,0,1-1.3.74A5.07,5.07,0,0,1,231.11,37.46ZM231,30a.94.94,0,0,0-.87.52,3.6,3.6,0,0,0-.36,1.42H232v-.21a2.9,2.9,0,0,0-.23-1.28A.78.78,0,0,0,231,30Z" transform="translate(-110.16 -25.2)"/>
    <path class="cls-1" d="M238,35.46h3.76v1.83h-6.49V35.91l3.66-5.77h-3.55V28.31h6.3v1.34Z" transform="translate(-110.16 -25.2)"/>
    <path class="cls-1" d="M155.07,53a2.89,2.89,0,0,1-.89,1.07,2.1,2.1,0,0,1-1.24.38,2.21,2.21,0,0,1-1.9-1,5.21,5.21,0,0,1-.69-3V45.3h2.34v5.19a4,4,0,0,0,.24,1.66.78.78,0,0,0,.74.46,1.58,1.58,0,0,0,.71-.15,1.44,1.44,0,0,0,.52-.45V45.3h2.35v9h-1.92Z" transform="translate(-110.16 -25.2)"/>
    <path class="cls-1" d="M160.91,45.3l.1,1.25a3,3,0,0,1,.93-1,2.15,2.15,0,0,1,1.23-.37A2.1,2.1,0,0,1,165,46a4.79,4.79,0,0,1,.65,2.8v5.45h-2.34V48.82a3,3,0,0,0-.24-1.43.81.81,0,0,0-.74-.42,1.36,1.36,0,0,0-.7.18,1.59,1.59,0,0,0-.53.51v6.6h-2.34v-9Z" transform="translate(-110.16 -25.2)"/>
    <path class="cls-1" d="M170.56,54.45a3.32,3.32,0,0,1-2.75-1.23,4.92,4.92,0,0,1-1-3.16v-.34a5.44,5.44,0,0,1,.94-3.31,3.1,3.1,0,0,1,2.65-1.28,2.9,2.9,0,0,1,2.43,1.09,4.69,4.69,0,0,1,.85,3v1.28h-4.53a3.15,3.15,0,0,0,.45,1.58,1.36,1.36,0,0,0,1.22.59,3.62,3.62,0,0,0,1.17-.16,4.75,4.75,0,0,0,1-.51l.61,1.46a3.88,3.88,0,0,1-1.3.74A5.07,5.07,0,0,1,170.56,54.45ZM170.42,47a.94.94,0,0,0-.87.52,3.59,3.59,0,0,0-.36,1.42h2.22V48.7a2.91,2.91,0,0,0-.23-1.28A.79.79,0,0,0,170.42,47Z" transform="translate(-110.16 -25.2)"/>
    <path class="cls-1" d="M181.11,43.11h-2.34V41.33h2.34Zm0,11.16h-2.34v-9h2.34Z" transform="translate(-110.16 -25.2)"/>
    <path class="cls-1" d="M182.47,49.83a6.49,6.49,0,0,1,.79-3.41,2.48,2.48,0,0,1,2.23-1.29,1.88,1.88,0,0,1,1,.26,2.59,2.59,0,0,1,.78.73V41.33h2.34V54.27h-2l-.17-1a2.67,2.67,0,0,1-.84.88,2,2,0,0,1-1.1.3,2.5,2.5,0,0,1-2.21-1.22,5.85,5.85,0,0,1-.79-3.22Zm2.32.17a5,5,0,0,0,.3,1.91,1,1,0,0,0,1,.69,1.28,1.28,0,0,0,.68-.18,1.37,1.37,0,0,0,.49-.53V47.79a1.61,1.61,0,0,0-.49-.6,1.11,1.11,0,0,0-.66-.22,1,1,0,0,0-1,.79,5.82,5.82,0,0,0-.31,2.07Z" transform="translate(-110.16 -25.2)"/>
    <path class="cls-1" d="M194.58,54.45a3.32,3.32,0,0,1-2.75-1.23,4.92,4.92,0,0,1-1-3.16v-.34a5.44,5.44,0,0,1,.94-3.31,3.1,3.1,0,0,1,2.65-1.28,2.9,2.9,0,0,1,2.43,1.09,4.69,4.69,0,0,1,.85,3v1.28h-4.53a3.15,3.15,0,0,0,.45,1.58,1.36,1.36,0,0,0,1.22.59,3.62,3.62,0,0,0,1.17-.16,4.75,4.75,0,0,0,1-.51l.61,1.46a3.88,3.88,0,0,1-1.3.74A5.07,5.07,0,0,1,194.58,54.45Zm0-13h2.6l0,0-2.09,2.16h-2ZM194.44,47a.94.94,0,0,0-.87.52,3.59,3.59,0,0,0-.36,1.42h2.22V48.7a2.91,2.91,0,0,0-.23-1.28A.79.79,0,0,0,194.44,47Z" transform="translate(-110.16 -25.2)"/>
    <path class="cls-1" d="M202.35,54.45a3.32,3.32,0,0,1-2.75-1.23,4.92,4.92,0,0,1-1-3.16v-.34a5.44,5.44,0,0,1,.94-3.31,3.1,3.1,0,0,1,2.65-1.28,2.9,2.9,0,0,1,2.43,1.09,4.69,4.69,0,0,1,.85,3v1.28H201a3.15,3.15,0,0,0,.45,1.58,1.36,1.36,0,0,0,1.22.59,3.62,3.62,0,0,0,1.17-.16,4.75,4.75,0,0,0,1-.51l.61,1.46a3.88,3.88,0,0,1-1.3.74A5.07,5.07,0,0,1,202.35,54.45ZM202.21,47a.94.94,0,0,0-.87.52A3.59,3.59,0,0,0,201,48.9h2.22V48.7a2.91,2.91,0,0,0-.23-1.28A.79.79,0,0,0,202.21,47Z" transform="translate(-110.16 -25.2)"/>
    <path class="cls-1" d="M214.93,54.27a3.88,3.88,0,0,1-.22-.65,5.37,5.37,0,0,1-.13-.71,3.17,3.17,0,0,1-.79,1.1,1.72,1.72,0,0,1-1.19.43,2.44,2.44,0,0,1-1.89-.72,2.8,2.8,0,0,1-.66-2,2.51,2.51,0,0,1,.87-2,4,4,0,0,1,2.59-.73h1v-.75a1.81,1.81,0,0,0-.25-1,.84.84,0,0,0-.74-.36.77.77,0,0,0-.65.29,1.33,1.33,0,0,0-.22.83h-2.26l0,0a2.39,2.39,0,0,1,.87-2,3.54,3.54,0,0,1,2.43-.81,3.25,3.25,0,0,1,2.3.81,3,3,0,0,1,.88,2.32v3.68a7.51,7.51,0,0,0,.09,1.19,6.8,6.8,0,0,0,.28,1.13Zm-.17-10.6h-2l-2.06-2.16,0,0h2.59Zm-1.54,9a1.31,1.31,0,0,0,.83-.29,1.46,1.46,0,0,0,.5-.69V50.32h-1a1,1,0,0,0-.86.38,1.61,1.61,0,0,0-.27,1,1.21,1.21,0,0,0,.22.75A.72.72,0,0,0,213.21,52.71Z" transform="translate(-110.16 -25.2)"/>
    <path class="cls-1" d="M226.33,47.32l-.8,0a1,1,0,0,0-.65.21,1.3,1.3,0,0,0-.4.58v6.19h-2.33v-9h2.18l.09,1.27a2.76,2.76,0,0,1,.66-1.06,1.31,1.31,0,0,1,.92-.38,1.38,1.38,0,0,1,.29,0l.27.07Z" transform="translate(-110.16 -25.2)"/>
    <path class="cls-1" d="M230.71,54.45A3.32,3.32,0,0,1,228,53.22a4.92,4.92,0,0,1-1-3.16v-.34a5.44,5.44,0,0,1,.94-3.31,3.1,3.1,0,0,1,2.65-1.28A2.9,2.9,0,0,1,233,46.22a4.69,4.69,0,0,1,.85,3v1.28h-4.53a3.16,3.16,0,0,0,.45,1.58,1.36,1.36,0,0,0,1.22.59,3.62,3.62,0,0,0,1.17-.16,4.78,4.78,0,0,0,1-.51l.61,1.46a3.88,3.88,0,0,1-1.3.74A5.07,5.07,0,0,1,230.71,54.45Zm0-13h2.6l0,0-2.09,2.16h-2ZM230.57,47a.94.94,0,0,0-.87.52,3.6,3.6,0,0,0-.36,1.42h2.22V48.7a2.9,2.9,0,0,0-.23-1.28A.78.78,0,0,0,230.57,47Z" transform="translate(-110.16 -25.2)"/>
    <path class="cls-1" d="M239.53,54.27a3.89,3.89,0,0,1-.22-.65,5.37,5.37,0,0,1-.13-.71,3.17,3.17,0,0,1-.78,1.1,1.73,1.73,0,0,1-1.19.43,2.43,2.43,0,0,1-1.89-.72,2.8,2.8,0,0,1-.66-2,2.51,2.51,0,0,1,.87-2,4,4,0,0,1,2.59-.73h1v-.75a1.81,1.81,0,0,0-.25-1,.84.84,0,0,0-.74-.36.78.78,0,0,0-.66.29,1.33,1.33,0,0,0-.22.83H235l0,0a2.39,2.39,0,0,1,.87-2,3.54,3.54,0,0,1,2.43-.81,3.25,3.25,0,0,1,2.3.81,3,3,0,0,1,.88,2.32v3.68a7.39,7.39,0,0,0,.09,1.19,6.9,6.9,0,0,0,.28,1.13Zm-1.72-1.56a1.31,1.31,0,0,0,.83-.29,1.44,1.44,0,0,0,.5-.69V50.32h-1a1,1,0,0,0-.86.38,1.62,1.62,0,0,0-.27,1,1.2,1.2,0,0,0,.22.75A.72.72,0,0,0,237.81,52.71Z" transform="translate(-110.16 -25.2)"/>
    <path class="cls-1" d="M245.43,54.27h-2.34V41.33h2.34Z" transform="translate(-110.16 -25.2)"/>
    <path class="cls-1" d="M249.56,43.11h-2.34V41.33h2.34Zm0,11.16h-2.34v-9h2.34Z" transform="translate(-110.16 -25.2)"/>
    <path class="cls-1" d="M255.22,51.93a.89.89,0,0,0-.31-.68,5,5,0,0,0-1.19-.69,6.28,6.28,0,0,1-2.06-1.15,2.14,2.14,0,0,1-.69-1.64,2.4,2.4,0,0,1,.88-1.87,3.38,3.38,0,0,1,2.32-.77,3.49,3.49,0,0,1,2.41.8,2.46,2.46,0,0,1,.86,2l0,0h-2.26a1.52,1.52,0,0,0-.25-.91.87.87,0,0,0-.75-.34,1,1,0,0,0-.68.27.86.86,0,0,0-.28.65.82.82,0,0,0,.27.64,5.67,5.67,0,0,0,1.19.68,5.81,5.81,0,0,1,2.11,1.15,2.26,2.26,0,0,1,.69,1.71,2.29,2.29,0,0,1-.92,1.88,3.77,3.77,0,0,1-2.42.73,3.39,3.39,0,0,1-2.48-.9,2.64,2.64,0,0,1-.87-2l0,0h2.12a1.46,1.46,0,0,0,.35,1,1.26,1.26,0,0,0,.91.32,1.07,1.07,0,0,0,.76-.25A.86.86,0,0,0,255.22,51.93Z" transform="translate(-110.16 -25.2)"/>
    <path class="cls-1" d="M262.13,54.45a3.32,3.32,0,0,1-2.75-1.23,4.92,4.92,0,0,1-1-3.16v-.34a5.44,5.44,0,0,1,.94-3.31A3.1,3.1,0,0,1,262,45.13a2.9,2.9,0,0,1,2.43,1.09,4.69,4.69,0,0,1,.85,3v1.28h-4.53a3.16,3.16,0,0,0,.45,1.58,1.36,1.36,0,0,0,1.22.59,3.62,3.62,0,0,0,1.17-.16,4.78,4.78,0,0,0,1-.51l.61,1.46a3.88,3.88,0,0,1-1.3.74A5.07,5.07,0,0,1,262.13,54.45ZM262,47a.94.94,0,0,0-.87.52,3.6,3.6,0,0,0-.36,1.42H263V48.7a2.9,2.9,0,0,0-.23-1.28A.78.78,0,0,0,262,47Z" transform="translate(-110.16 -25.2)"/>
    <path class="cls-1" d="M270.65,47.32l-.8,0a1,1,0,0,0-.65.21,1.3,1.3,0,0,0-.4.58v6.19h-2.33v-9h2.18l.09,1.27a2.76,2.76,0,0,1,.66-1.06,1.31,1.31,0,0,1,.92-.38,1.38,1.38,0,0,1,.29,0l.27.07Z" transform="translate(-110.16 -25.2)"/>
  </g>
  <g>
    <path class="cls-1" d="M260.05,161.61a3.26,3.26,0,0,1-.82,2.36,2.92,2.92,0,0,1-2.2.85,2.84,2.84,0,0,1-2.16-.85,3.3,3.3,0,0,1-.8-2.36v-2.34a3.32,3.32,0,0,1,.8-2.37A2.82,2.82,0,0,1,257,156a2.92,2.92,0,0,1,2.2.85,3.27,3.27,0,0,1,.82,2.37Zm-1.18-2.36a2.6,2.6,0,0,0-.48-1.69A1.67,1.67,0,0,0,257,157a1.58,1.58,0,0,0-1.32.58,2.67,2.67,0,0,0-.46,1.69v2.36a2.69,2.69,0,0,0,.46,1.71,1.59,1.59,0,0,0,1.32.58,1.66,1.66,0,0,0,1.36-.58,2.64,2.64,0,0,0,.47-1.71Z" transform="translate(-110.16 -25.2)"/>
    <path class="cls-1" d="M267,156.17v5.64a3,3,0,0,1-.8,2.21,2.8,2.8,0,0,1-2.07.8,2.71,2.71,0,0,1-2-.8,3,3,0,0,1-.78-2.21v-5.64h1.19v5.64a2.42,2.42,0,0,0,.45,1.55,1.43,1.43,0,0,0,1.17.56,1.49,1.49,0,0,0,1.21-.56,2.37,2.37,0,0,0,.46-1.55v-5.64Z" transform="translate(-110.16 -25.2)"/>
    <path class="cls-1" d="M269.85,164.7h-1.19v-8.53h1.19Z" transform="translate(-110.16 -25.2)"/>
  </g>
  <g>
    <path class="cls-1" d="M260.3,299.47a3.26,3.26,0,0,1-.82,2.36,2.92,2.92,0,0,1-2.2.85,2.84,2.84,0,0,1-2.16-.85,3.3,3.3,0,0,1-.8-2.36v-2.34a3.32,3.32,0,0,1,.8-2.37,2.82,2.82,0,0,1,2.16-.86,2.92,2.92,0,0,1,2.2.85,3.27,3.27,0,0,1,.82,2.37Zm-1.18-2.36a2.6,2.6,0,0,0-.48-1.69,1.67,1.67,0,0,0-1.36-.58,1.58,1.58,0,0,0-1.32.58,2.67,2.67,0,0,0-.46,1.69v2.36a2.69,2.69,0,0,0,.46,1.71,1.59,1.59,0,0,0,1.32.58,1.66,1.66,0,0,0,1.36-.58,2.64,2.64,0,0,0,.47-1.71Z" transform="translate(-110.16 -25.2)"/>
    <path class="cls-1" d="M267.28,294v5.64a3,3,0,0,1-.8,2.21,2.8,2.8,0,0,1-2.07.8,2.71,2.71,0,0,1-2-.8,3,3,0,0,1-.78-2.21V294h1.19v5.64a2.42,2.42,0,0,0,.45,1.55,1.43,1.43,0,0,0,1.17.56,1.49,1.49,0,0,0,1.21-.56,2.37,2.37,0,0,0,.46-1.55V294Z" transform="translate(-110.16 -25.2)"/>
    <path class="cls-1" d="M270.1,302.56h-1.19V294h1.19Z" transform="translate(-110.16 -25.2)"/>
  </g>
  <g>
    <path class="cls-1" d="M153.18,290.68H152l-3.3-6.29h0v6.28h-1.19v-8.53h1.19l3.3,6.28h0v-6.27h1.2Z" transform="translate(-110.16 -25.2)"/>
    <path class="cls-1" d="M160.55,287.59a3.26,3.26,0,0,1-.82,2.36,2.92,2.92,0,0,1-2.2.85,2.84,2.84,0,0,1-2.16-.85,3.3,3.3,0,0,1-.8-2.36v-2.34a3.32,3.32,0,0,1,.8-2.37,2.82,2.82,0,0,1,2.16-.86,2.92,2.92,0,0,1,2.2.85,3.27,3.27,0,0,1,.82,2.37Zm-1.18-2.36a2.6,2.6,0,0,0-.48-1.69,1.67,1.67,0,0,0-1.36-.58,1.58,1.58,0,0,0-1.32.58,2.67,2.67,0,0,0-.46,1.69v2.36a2.69,2.69,0,0,0,.46,1.71,1.59,1.59,0,0,0,1.32.58,1.66,1.66,0,0,0,1.36-.58,2.64,2.64,0,0,0,.47-1.71Z" transform="translate(-110.16 -25.2)"/>
    <path class="cls-1" d="M167.67,290.68h-1.2l-3.3-6.29h0v6.28h-1.19v-8.53h1.19l3.3,6.28h0v-6.27h1.2Z" transform="translate(-110.16 -25.2)"/>
  </g>
  <g>
    <path class="cls-1" d="M128.74,311.53H128v-5.33h.74Z" transform="translate(-110.16 -25.2)"/>
    <path class="cls-1" d="M130.42,307.56l0,.59a1.32,1.32,0,0,1,.42-.49,1,1,0,0,1,.58-.17,1,1,0,0,1,.82.39,2,2,0,0,1,.29,1.21v2.44h-.74v-2.44a1.48,1.48,0,0,0-.16-.79.53.53,0,0,0-.47-.23.73.73,0,0,0-.44.13.93.93,0,0,0-.29.37v3h-.75v-4Z" transform="translate(-110.16 -25.2)"/>
    <path class="cls-1" d="M135.32,310.53a.53.53,0,0,0-.15-.39,2.05,2.05,0,0,0-.59-.35,2.94,2.94,0,0,1-.92-.5.89.89,0,0,1-.3-.7,1,1,0,0,1,.37-.78,1.4,1.4,0,0,1,1-.32,1.38,1.38,0,0,1,1,.35,1.09,1.09,0,0,1,.36.86v0h-.72a.74.74,0,0,0-.17-.49.55.55,0,0,0-.45-.2.6.6,0,0,0-.44.16.51.51,0,0,0-.16.37.47.47,0,0,0,.14.36,2.41,2.41,0,0,0,.59.33,2.72,2.72,0,0,1,.94.51,1,1,0,0,1,.31.73,1,1,0,0,1-.38.8,1.53,1.53,0,0,1-1,.31,1.44,1.44,0,0,1-1-.37,1.11,1.11,0,0,1-.36-.87v0H134a.72.72,0,0,0,.22.55.77.77,0,0,0,.51.17.66.66,0,0,0,.46-.15A.5.5,0,0,0,135.32,310.53Z" transform="translate(-110.16 -25.2)"/>
    <path class="cls-1" d="M138.12,311a.59.59,0,0,0,.46-.21.85.85,0,0,0,.19-.58h.67v0a1.22,1.22,0,0,1-.38.94A1.39,1.39,0,0,1,137,311a2.39,2.39,0,0,1-.4-1.43v-.14a2.41,2.41,0,0,1,.4-1.43,1.3,1.3,0,0,1,1.13-.56,1.25,1.25,0,0,1,1,.4,1.43,1.43,0,0,1,.36,1v0h-.67a1.08,1.08,0,0,0-.18-.64.55.55,0,0,0-.47-.25.62.62,0,0,0-.6.4,2.43,2.43,0,0,0-.19,1v.14a2.46,2.46,0,0,0,.18,1A.62.62,0,0,0,138.12,311Z" transform="translate(-110.16 -25.2)"/>
    <path class="cls-1" d="M141.84,308.18l-.32,0a.56.56,0,0,0-.39.14.9.9,0,0,0-.24.4v2.82h-.75v-4h.68l.05.59a1.27,1.27,0,0,1,.34-.48.71.71,0,0,1,.47-.17h.13l.11,0Z" transform="translate(-110.16 -25.2)"/>
    <path class="cls-1" d="M143.24,306.52h-.75v-.71h.75Zm0,5h-.75v-4h.75Z" transform="translate(-110.16 -25.2)"/>
    <path class="cls-1" d="M145.31,310.34l.06.31h0l.07-.31.69-2.77h.77l-1.21,4h-.66l-1.22-4h.78Z" transform="translate(-110.16 -25.2)"/>
    <path class="cls-1" d="M148.84,311.6a1.38,1.38,0,0,1-1.16-.54,2.24,2.24,0,0,1-.42-1.41v-.17a2.33,2.33,0,0,1,.42-1.43,1.3,1.3,0,0,1,1.09-.56,1.2,1.2,0,0,1,1,.48,2.13,2.13,0,0,1,.35,1.29v.42H148a2,2,0,0,0,.22,1,.72.72,0,0,0,.67.38,1.4,1.4,0,0,0,.54-.1,1.37,1.37,0,0,0,.42-.28l.24.46a1.58,1.58,0,0,1-.52.34A1.85,1.85,0,0,1,148.84,311.6Zm-.07-3.54a.58.58,0,0,0-.51.3,1.77,1.77,0,0,0-.24.79h1.4v-.08a1.45,1.45,0,0,0-.16-.72A.53.53,0,0,0,148.77,308.06Z" transform="translate(-110.16 -25.2)"/>
    <path class="cls-1" d="M151.52,311h1.93v.56h-2.77v-.47l1.83-2.92h-1.79v-.58h2.64V308Z" transform="translate(-110.16 -25.2)"/>
    <path class="cls-1" d="M156.06,309.54h-1.86V309h1.86Z" transform="translate(-110.16 -25.2)"/>
    <path class="cls-1" d="M158.18,310.34l.06.31h0l.07-.31.69-2.77h.77l-1.21,4h-.66l-1.22-4h.78Z" transform="translate(-110.16 -25.2)"/>
    <path class="cls-1" d="M160.12,309.5a2.37,2.37,0,0,1,.42-1.45,1.45,1.45,0,0,1,2.29,0,2.36,2.36,0,0,1,.42,1.45v.1a2.35,2.35,0,0,1-.42,1.44,1.46,1.46,0,0,1-2.3,0,2.35,2.35,0,0,1-.42-1.44Zm.75.1a2.3,2.3,0,0,0,.2,1,.66.66,0,0,0,.62.4.65.65,0,0,0,.61-.4,2.3,2.3,0,0,0,.2-1v-.1a2.28,2.28,0,0,0-.21-1,.67.67,0,0,0-1.23,0,2.31,2.31,0,0,0-.2,1Z" transform="translate(-110.16 -25.2)"/>
    <path class="cls-1" d="M166.09,310.95a1.27,1.27,0,0,1-.41.48,1.07,1.07,0,0,1-1.43-.25,2.23,2.23,0,0,1-.31-1.31v-2.31h.75v2.32a1.93,1.93,0,0,0,.15.89.48.48,0,0,0,.45.25.83.83,0,0,0,.47-.13.86.86,0,0,0,.3-.37v-3h.75v4h-.63Z" transform="translate(-110.16 -25.2)"/>
    <path class="cls-1" d="M169.53,310.53a.53.53,0,0,0-.15-.39,2.05,2.05,0,0,0-.59-.35,2.94,2.94,0,0,1-.92-.5.89.89,0,0,1-.3-.7,1,1,0,0,1,.37-.78,1.4,1.4,0,0,1,1-.32,1.38,1.38,0,0,1,1,.35,1.09,1.09,0,0,1,.36.86v0h-.72a.74.74,0,0,0-.17-.49.55.55,0,0,0-.45-.2.6.6,0,0,0-.44.16.51.51,0,0,0-.16.37.47.47,0,0,0,.14.36,2.41,2.41,0,0,0,.59.33,2.72,2.72,0,0,1,.94.51,1,1,0,0,1,.31.73,1,1,0,0,1-.38.8,1.53,1.53,0,0,1-1,.31,1.44,1.44,0,0,1-1-.37,1.11,1.11,0,0,1-.36-.87v0h.69a.72.72,0,0,0,.22.55.77.77,0,0,0,.51.17.66.66,0,0,0,.46-.15A.5.5,0,0,0,169.53,310.53Z" transform="translate(-110.16 -25.2)"/>
    <path class="cls-1" d="M175.57,309.67a2.51,2.51,0,0,1-.35,1.41,1.11,1.11,0,0,1-1,.53,1.13,1.13,0,0,1-.52-.12,1.06,1.06,0,0,1-.38-.34V313h-.75v-5.49h.63l.07.48a1.16,1.16,0,0,1,.4-.41,1,1,0,0,1,.55-.14,1.09,1.09,0,0,1,1,.57,2.92,2.92,0,0,1,.35,1.53Zm-.75-.08a2.63,2.63,0,0,0-.2-1.1.63.63,0,0,0-.59-.42.65.65,0,0,0-.42.14.94.94,0,0,0-.27.37v2a.83.83,0,0,0,.27.34.72.72,0,0,0,.42.12.62.62,0,0,0,.59-.37,2.17,2.17,0,0,0,.19-1Z" transform="translate(-110.16 -25.2)"/>
    <path class="cls-1" d="M176.14,309.5a2.37,2.37,0,0,1,.42-1.45,1.45,1.45,0,0,1,2.29,0,2.36,2.36,0,0,1,.42,1.45v.1a2.35,2.35,0,0,1-.42,1.44,1.46,1.46,0,0,1-2.3,0,2.35,2.35,0,0,1-.42-1.44Zm.75.1a2.3,2.3,0,0,0,.2,1,.66.66,0,0,0,.62.4.65.65,0,0,0,.61-.4,2.3,2.3,0,0,0,.2-1v-.1a2.28,2.28,0,0,0-.21-1,.67.67,0,0,0-1.23,0,2.31,2.31,0,0,0-.2,1Z" transform="translate(-110.16 -25.2)"/>
    <path class="cls-1" d="M182.11,310.95a1.27,1.27,0,0,1-.41.48,1.07,1.07,0,0,1-1.43-.25,2.23,2.23,0,0,1-.31-1.31v-2.31h.75v2.32a1.93,1.93,0,0,0,.15.89.48.48,0,0,0,.45.25.83.83,0,0,0,.47-.13.86.86,0,0,0,.3-.37v-3h.75v4h-.63Z" transform="translate(-110.16 -25.2)"/>
    <path class="cls-1" d="M185.37,308.18l-.32,0a.56.56,0,0,0-.39.14.9.9,0,0,0-.24.4v2.82h-.75v-4h.68l.05.59a1.27,1.27,0,0,1,.34-.48.71.71,0,0,1,.47-.17h.13l.11,0Z" transform="translate(-110.16 -25.2)"/>
    <path class="cls-1" d="M189.76,310.95a1.27,1.27,0,0,1-.41.48,1.07,1.07,0,0,1-1.43-.25,2.23,2.23,0,0,1-.31-1.31v-2.31h.75v2.32a1.93,1.93,0,0,0,.15.89.48.48,0,0,0,.45.25.83.83,0,0,0,.47-.13.86.86,0,0,0,.3-.37v-3h.75v4h-.63Z" transform="translate(-110.16 -25.2)"/>
    <path class="cls-1" d="M192,307.56l0,.59a1.32,1.32,0,0,1,.42-.49,1,1,0,0,1,.58-.17,1,1,0,0,1,.82.39,2,2,0,0,1,.29,1.21v2.44h-.74v-2.44a1.48,1.48,0,0,0-.16-.79.53.53,0,0,0-.47-.23.73.73,0,0,0-.44.13.93.93,0,0,0-.29.37v3h-.75v-4Z" transform="translate(-110.16 -25.2)"/>
    <path class="cls-1" d="M196.44,311.6a1.38,1.38,0,0,1-1.16-.54,2.24,2.24,0,0,1-.42-1.41v-.17a2.33,2.33,0,0,1,.42-1.43,1.3,1.3,0,0,1,1.09-.56,1.2,1.2,0,0,1,1,.48,2.13,2.13,0,0,1,.35,1.29v.42h-2.15a2,2,0,0,0,.22,1,.72.72,0,0,0,.67.38,1.4,1.4,0,0,0,.54-.1,1.37,1.37,0,0,0,.42-.28l.24.46a1.58,1.58,0,0,1-.52.34A1.85,1.85,0,0,1,196.44,311.6Zm-.07-3.54a.58.58,0,0,0-.51.3,1.77,1.77,0,0,0-.24.79H197v-.08a1.45,1.45,0,0,0-.16-.72A.53.53,0,0,0,196.38,308.06Z" transform="translate(-110.16 -25.2)"/>
    <path class="cls-1" d="M125.65,320.87v-3.43h-.52v-.53h.52v-.51a1.42,1.42,0,0,1,.31-1,1.08,1.08,0,0,1,.85-.34l.23,0,.25.06-.07.55-.15,0h-.17a.43.43,0,0,0-.38.19,1,1,0,0,0-.13.55v.51H127v.53h-.66v3.43Z" transform="translate(-110.16 -25.2)"/>
    <path class="cls-1" d="M127.48,318.85a2.37,2.37,0,0,1,.42-1.45,1.45,1.45,0,0,1,2.29,0,2.36,2.36,0,0,1,.42,1.45v.1a2.35,2.35,0,0,1-.42,1.44,1.46,1.46,0,0,1-2.3,0,2.35,2.35,0,0,1-.42-1.44Zm.75.1a2.3,2.3,0,0,0,.2,1,.66.66,0,0,0,.62.4.65.65,0,0,0,.61-.4,2.3,2.3,0,0,0,.2-1v-.1a2.28,2.28,0,0,0-.21-1,.67.67,0,0,0-1.23,0,2.31,2.31,0,0,0-.2,1Z" transform="translate(-110.16 -25.2)"/>
    <path class="cls-1" d="M133,317.53l-.32,0a.56.56,0,0,0-.39.14.9.9,0,0,0-.24.4v2.82h-.75v-4H132l.05.59a1.27,1.27,0,0,1,.34-.48.71.71,0,0,1,.47-.17H133l.11,0Z" transform="translate(-110.16 -25.2)"/>
    <path class="cls-1" d="M134.31,316.91l0,.54a1.22,1.22,0,0,1,.42-.45,1.09,1.09,0,0,1,.59-.16.92.92,0,0,1,.57.18,1.09,1.09,0,0,1,.36.55,1.36,1.36,0,0,1,.42-.54,1,1,0,0,1,.62-.19.94.94,0,0,1,.81.42,2.23,2.23,0,0,1,.29,1.28v2.34h-.75v-2.34a1.75,1.75,0,0,0-.15-.87.5.5,0,0,0-.46-.25.56.56,0,0,0-.43.19,1.16,1.16,0,0,0-.25.5v.14s0,.1,0,.15v2.48h-.74v-2.34a1.73,1.73,0,0,0-.16-.86.51.51,0,0,0-.46-.26.65.65,0,0,0-.41.13.87.87,0,0,0-.26.36v3h-.75v-4Z" transform="translate(-110.16 -25.2)"/>
    <path class="cls-1" d="M141.35,320.87c0-.12-.06-.23-.07-.32a1.91,1.91,0,0,1,0-.28,1.46,1.46,0,0,1-.42.49,1,1,0,0,1-.59.19,1,1,0,0,1-.81-.32,1.24,1.24,0,0,1-.28-.86,1.08,1.08,0,0,1,.39-.88,1.68,1.68,0,0,1,1.1-.32h.61v-.41a.89.89,0,0,0-.16-.57.62.62,0,0,0-.89,0,.64.64,0,0,0-.16.45h-.71v0a1,1,0,0,1,.36-.81,1.41,1.41,0,0,1,1-.35,1.34,1.34,0,0,1,1,.35,1.29,1.29,0,0,1,.37,1V320a3.25,3.25,0,0,0,0,.44,2.74,2.74,0,0,0,.09.42Zm-1-.49a.84.84,0,0,0,.54-.19.88.88,0,0,0,.31-.46V319h-.62a.68.68,0,0,0-.54.22.76.76,0,0,0-.19.53.68.68,0,0,0,.13.44A.45.45,0,0,0,140.39,320.38Z" transform="translate(-110.16 -25.2)"/>
    <path class="cls-1" d="M143.79,315.92v1h.62v.53h-.62v2.36a.77.77,0,0,0,.09.44.29.29,0,0,0,.25.13h.12l.13,0,.08.51a1.1,1.1,0,0,1-.24.08,1.17,1.17,0,0,1-.27,0,.83.83,0,0,1-.67-.28,1.32,1.32,0,0,1-.24-.87v-2.36h-.52v-.53H143v-1Z" transform="translate(-110.16 -25.2)"/>
    <path class="cls-1" d="M145.88,315.87h-.75v-.71h.75Zm0,5h-.75v-4h.75Z" transform="translate(-110.16 -25.2)"/>
    <path class="cls-1" d="M146.63,318.85a2.37,2.37,0,0,1,.42-1.45,1.45,1.45,0,0,1,2.29,0,2.36,2.36,0,0,1,.42,1.45v.1a2.35,2.35,0,0,1-.42,1.44,1.46,1.46,0,0,1-2.3,0,2.35,2.35,0,0,1-.42-1.44Zm.75.1a2.3,2.3,0,0,0,.2,1,.66.66,0,0,0,.62.4.65.65,0,0,0,.61-.4,2.3,2.3,0,0,0,.2-1v-.1a2.28,2.28,0,0,0-.21-1,.67.67,0,0,0-1.23,0,2.31,2.31,0,0,0-.2,1Z" transform="translate(-110.16 -25.2)"/>
    <path class="cls-1" d="M151.15,316.91l0,.59a1.32,1.32,0,0,1,.42-.49,1,1,0,0,1,.58-.17,1,1,0,0,1,.82.39,2,2,0,0,1,.29,1.21v2.44h-.74v-2.44a1.48,1.48,0,0,0-.16-.79.53.53,0,0,0-.47-.23.73.73,0,0,0-.44.13.93.93,0,0,0-.29.37v3h-.75v-4Z" transform="translate(-110.16 -25.2)"/>
    <path class="cls-1" d="M155.67,318.85a2.37,2.37,0,0,1,.42-1.45,1.45,1.45,0,0,1,2.29,0,2.36,2.36,0,0,1,.42,1.45v.1a2.35,2.35,0,0,1-.42,1.44,1.46,1.46,0,0,1-2.3,0,2.35,2.35,0,0,1-.42-1.44Zm.75.1a2.3,2.3,0,0,0,.2,1,.66.66,0,0,0,.62.4.65.65,0,0,0,.61-.4,2.3,2.3,0,0,0,.2-1v-.1a2.28,2.28,0,0,0-.21-1,.67.67,0,0,0-1.23,0,2.31,2.31,0,0,0-.2,1Z" transform="translate(-110.16 -25.2)"/>
    <path class="cls-1" d="M161.64,320.29a1.27,1.27,0,0,1-.41.48,1.07,1.07,0,0,1-1.43-.25,2.23,2.23,0,0,1-.31-1.31v-2.31h.75v2.32a1.93,1.93,0,0,0,.15.89.48.48,0,0,0,.45.25.83.83,0,0,0,.47-.13.86.86,0,0,0,.3-.37v-3h.75v4h-.63Z" transform="translate(-110.16 -25.2)"/>
    <path class="cls-1" d="M167,320.29a1.27,1.27,0,0,1-.41.48,1.07,1.07,0,0,1-1.43-.25,2.23,2.23,0,0,1-.31-1.31v-2.31h.75v2.32a1.93,1.93,0,0,0,.15.89.48.48,0,0,0,.45.25.83.83,0,0,0,.47-.13.86.86,0,0,0,.3-.37v-3h.75v4h-.63Z" transform="translate(-110.16 -25.2)"/>
    <path class="cls-1" d="M169.21,316.91l0,.59a1.32,1.32,0,0,1,.42-.49,1,1,0,0,1,.58-.17,1,1,0,0,1,.82.39,2,2,0,0,1,.29,1.21v2.44h-.74v-2.44a1.48,1.48,0,0,0-.16-.79.53.53,0,0,0-.47-.23.73.73,0,0,0-.44.13.93.93,0,0,0-.29.37v3h-.75v-4Z" transform="translate(-110.16 -25.2)"/>
    <path class="cls-1" d="M176.87,319.58h0l.51-2.67h.75l-.92,4h-.62l-.73-2.57h0l-.71,2.57h-.62l-.93-4h.74l.52,2.64h0l.72-2.64h.53Z" transform="translate(-110.16 -25.2)"/>
    <path class="cls-1" d="M178.59,318.85a2.37,2.37,0,0,1,.42-1.45,1.45,1.45,0,0,1,2.29,0,2.36,2.36,0,0,1,.42,1.45v.1a2.35,2.35,0,0,1-.42,1.44,1.46,1.46,0,0,1-2.3,0,2.35,2.35,0,0,1-.42-1.44Zm.75.1a2.3,2.3,0,0,0,.2,1,.66.66,0,0,0,.62.4.65.65,0,0,0,.61-.4,2.3,2.3,0,0,0,.2-1v-.1a2.28,2.28,0,0,0-.21-1,.67.67,0,0,0-1.23,0,2.31,2.31,0,0,0-.2,1Z" transform="translate(-110.16 -25.2)"/>
    <path class="cls-1" d="M184.13,317.53l-.32,0a.56.56,0,0,0-.39.14.9.9,0,0,0-.24.4v2.82h-.75v-4h.68l.05.59a1.27,1.27,0,0,1,.34-.48.71.71,0,0,1,.47-.17h.13l.11,0Z" transform="translate(-110.16 -25.2)"/>
    <path class="cls-1" d="M185.76,319.05h-.28v1.82h-.74v-5.71h.74v3.33h.26l1-1.58h.88l-1.21,1.8,1.34,2.16h-.87Z" transform="translate(-110.16 -25.2)"/>
    <path class="cls-1" d="M190,319.87a.53.53,0,0,0-.15-.39,2.05,2.05,0,0,0-.59-.35,2.94,2.94,0,0,1-.92-.5.89.89,0,0,1-.3-.7,1,1,0,0,1,.37-.78,1.4,1.4,0,0,1,1-.32,1.38,1.38,0,0,1,1,.35,1.09,1.09,0,0,1,.36.86v0H190a.74.74,0,0,0-.17-.49.55.55,0,0,0-.45-.2.6.6,0,0,0-.44.16.51.51,0,0,0-.16.37.47.47,0,0,0,.14.36,2.41,2.41,0,0,0,.59.33,2.72,2.72,0,0,1,.94.51,1,1,0,0,1,.31.73,1,1,0,0,1-.38.8,1.53,1.53,0,0,1-1,.31,1.44,1.44,0,0,1-1-.37,1.11,1.11,0,0,1-.36-.87v0h.69a.72.72,0,0,0,.22.55.77.77,0,0,0,.51.17.66.66,0,0,0,.46-.15A.5.5,0,0,0,190,319.87Z" transform="translate(-110.16 -25.2)"/>
    <path class="cls-1" d="M192.19,317.44a1.3,1.3,0,0,1,.41-.44,1,1,0,0,1,.55-.16,1,1,0,0,1,.84.39,2,2,0,0,1,.3,1.22v2.42h-.75v-2.43a1.48,1.48,0,0,0-.16-.79.52.52,0,0,0-.46-.24.77.77,0,0,0-.44.13.9.9,0,0,0-.3.35v3h-.75v-5.71h.75Z" transform="translate(-110.16 -25.2)"/>
    <path class="cls-1" d="M195,318.85a2.37,2.37,0,0,1,.42-1.45,1.45,1.45,0,0,1,2.29,0,2.36,2.36,0,0,1,.42,1.45v.1a2.35,2.35,0,0,1-.42,1.44,1.46,1.46,0,0,1-2.3,0,2.35,2.35,0,0,1-.42-1.44Zm.75.1a2.3,2.3,0,0,0,.2,1,.66.66,0,0,0,.62.4.65.65,0,0,0,.61-.4,2.3,2.3,0,0,0,.2-1v-.1a2.28,2.28,0,0,0-.21-1,.67.67,0,0,0-1.23,0,2.31,2.31,0,0,0-.2,1Z" transform="translate(-110.16 -25.2)"/>
    <path class="cls-1" d="M201.82,319a2.51,2.51,0,0,1-.35,1.41,1.11,1.11,0,0,1-1,.53,1.13,1.13,0,0,1-.52-.12,1.06,1.06,0,0,1-.38-.34v1.9h-.75v-5.49h.63l.07.48a1.16,1.16,0,0,1,.4-.41,1,1,0,0,1,.55-.14,1.09,1.09,0,0,1,1,.57,2.92,2.92,0,0,1,.35,1.53Zm-.75-.08a2.63,2.63,0,0,0-.2-1.1.63.63,0,0,0-.59-.42.65.65,0,0,0-.42.14.94.94,0,0,0-.27.37v2a.83.83,0,0,0,.27.34.72.72,0,0,0,.42.12.62.62,0,0,0,.59-.37,2.17,2.17,0,0,0,.19-1Z" transform="translate(-110.16 -25.2)"/>
  </g>
  <g>
    <g>
      <path class="cls-1" d="M153.18,150.28H152l-3.3-6.29h0v6.28h-1.19v-8.53h1.19l3.3,6.28h0v-6.27h1.2Z" transform="translate(-110.16 -25.2)"/>
      <path class="cls-1" d="M160.55,147.19a3.26,3.26,0,0,1-.82,2.36,2.92,2.92,0,0,1-2.2.85,2.84,2.84,0,0,1-2.16-.85,3.3,3.3,0,0,1-.8-2.36v-2.34a3.32,3.32,0,0,1,.8-2.37,2.82,2.82,0,0,1,2.16-.86,2.92,2.92,0,0,1,2.2.85,3.27,3.27,0,0,1,.82,2.37Zm-1.18-2.36a2.6,2.6,0,0,0-.48-1.69,1.67,1.67,0,0,0-1.36-.58,1.58,1.58,0,0,0-1.32.58,2.67,2.67,0,0,0-.46,1.69v2.36a2.69,2.69,0,0,0,.46,1.71,1.59,1.59,0,0,0,1.32.58,1.66,1.66,0,0,0,1.36-.58,2.64,2.64,0,0,0,.47-1.71Z" transform="translate(-110.16 -25.2)"/>
      <path class="cls-1" d="M167.67,150.28h-1.2l-3.3-6.29h0v6.28h-1.19v-8.53h1.19l3.3,6.28h0v-6.27h1.2Z" transform="translate(-110.16 -25.2)"/>
    </g>
    <g>
      <path class="cls-1" d="M145.3,172.28h-.75l-2.08-4h0v4h-.75V166.9h.75l2.08,4h0V166.9h.75Z" transform="translate(-110.16 -25.2)"/>
      <path class="cls-1" d="M146.1,170.24a2.39,2.39,0,0,1,.42-1.46,1.46,1.46,0,0,1,2.31,0,2.38,2.38,0,0,1,.42,1.46v.1a2.37,2.37,0,0,1-.42,1.46,1.47,1.47,0,0,1-2.31,0,2.37,2.37,0,0,1-.42-1.46Zm.75.1a2.31,2.31,0,0,0,.21,1,.66.66,0,0,0,.63.41.66.66,0,0,0,.61-.41,2.32,2.32,0,0,0,.2-1v-.1a2.3,2.3,0,0,0-.21-1,.67.67,0,0,0-1.24,0,2.32,2.32,0,0,0-.21,1Z" transform="translate(-110.16 -25.2)"/>
      <path class="cls-1" d="M152.11,171.69a1.28,1.28,0,0,1-.41.49,1.08,1.08,0,0,1-1.44-.25,2.25,2.25,0,0,1-.31-1.32v-2.33h.75v2.33a2,2,0,0,0,.15.9.49.49,0,0,0,.45.26.82.82,0,0,0,.47-.13.86.86,0,0,0,.3-.37v-3h.75v4h-.64Z" transform="translate(-110.16 -25.2)"/>
      <path class="cls-1" d="M155.58,171.27a.53.53,0,0,0-.15-.39,2.07,2.07,0,0,0-.59-.35,3,3,0,0,1-.92-.51.9.9,0,0,1-.31-.7,1,1,0,0,1,.37-.79,1.41,1.41,0,0,1,1-.32,1.38,1.38,0,0,1,1,.36,1.09,1.09,0,0,1,.36.86v0h-.72a.75.75,0,0,0-.17-.49.56.56,0,0,0-.46-.2.61.61,0,0,0-.45.16.51.51,0,0,0-.16.37.47.47,0,0,0,.14.36,2.44,2.44,0,0,0,.59.34,2.72,2.72,0,0,1,.94.51,1,1,0,0,1,.32.73,1,1,0,0,1-.38.81,1.53,1.53,0,0,1-1,.31,1.45,1.45,0,0,1-1.06-.37,1.12,1.12,0,0,1-.37-.88v0h.7a.73.73,0,0,0,.22.56.77.77,0,0,0,.51.17.67.67,0,0,0,.47-.15A.5.5,0,0,0,155.58,171.27Z" transform="translate(-110.16 -25.2)"/>
      <path class="cls-1" d="M159.84,171.08l.06.31h0l.07-.31.7-2.79h.77l-1.22,4h-.67l-1.22-4h.78Z" transform="translate(-110.16 -25.2)"/>
      <path class="cls-1" d="M161.8,170.24a2.39,2.39,0,0,1,.42-1.46,1.46,1.46,0,0,1,2.31,0,2.38,2.38,0,0,1,.42,1.46v.1a2.37,2.37,0,0,1-.42,1.46,1.47,1.47,0,0,1-2.31,0,2.37,2.37,0,0,1-.42-1.46Zm.75.1a2.31,2.31,0,0,0,.21,1,.66.66,0,0,0,.63.41.66.66,0,0,0,.61-.41,2.32,2.32,0,0,0,.2-1v-.1a2.3,2.3,0,0,0-.21-1,.67.67,0,0,0-1.24,0,2.32,2.32,0,0,0-.21,1Z" transform="translate(-110.16 -25.2)"/>
      <path class="cls-1" d="M167.81,171.69a1.28,1.28,0,0,1-.41.49,1.08,1.08,0,0,1-1.44-.25,2.25,2.25,0,0,1-.31-1.32v-2.33h.75v2.33a2,2,0,0,0,.15.9.49.49,0,0,0,.45.26.82.82,0,0,0,.47-.13.86.86,0,0,0,.3-.37v-3h.75v4h-.64Z" transform="translate(-110.16 -25.2)"/>
      <path class="cls-1" d="M171.28,171.27a.53.53,0,0,0-.15-.39,2.07,2.07,0,0,0-.59-.35,3,3,0,0,1-.92-.51.9.9,0,0,1-.31-.7,1,1,0,0,1,.37-.79,1.41,1.41,0,0,1,1-.32,1.38,1.38,0,0,1,1,.36,1.09,1.09,0,0,1,.36.86v0h-.72a.75.75,0,0,0-.17-.49.56.56,0,0,0-.46-.2.61.61,0,0,0-.45.16.51.51,0,0,0-.16.37.47.47,0,0,0,.14.36,2.44,2.44,0,0,0,.59.34,2.72,2.72,0,0,1,.94.51,1,1,0,0,1,.32.73,1,1,0,0,1-.38.81,1.53,1.53,0,0,1-1,.31,1.45,1.45,0,0,1-1.06-.37,1.12,1.12,0,0,1-.37-.88v0h.7a.73.73,0,0,0,.22.56.77.77,0,0,0,.51.17.67.67,0,0,0,.47-.15A.5.5,0,0,0,171.28,171.27Z" transform="translate(-110.16 -25.2)"/>
      <path class="cls-1" d="M134.14,178.33a2.39,2.39,0,0,1,.42-1.46,1.46,1.46,0,0,1,2.31,0,2.38,2.38,0,0,1,.42,1.46v.1a2.37,2.37,0,0,1-.42,1.46,1.47,1.47,0,0,1-2.31,0,2.37,2.37,0,0,1-.42-1.46Zm.75.1a2.31,2.31,0,0,0,.21,1,.66.66,0,0,0,.63.41.66.66,0,0,0,.61-.41,2.32,2.32,0,0,0,.2-1v-.1a2.3,2.3,0,0,0-.21-1,.67.67,0,0,0-1.24,0,2.32,2.32,0,0,0-.21,1Z" transform="translate(-110.16 -25.2)"/>
      <path class="cls-1" d="M138.26,180.37v-3.46h-.53v-.53h.53v-.51a1.43,1.43,0,0,1,.31-1,1.09,1.09,0,0,1,.86-.35l.23,0,.25.06-.07.55-.15,0h-.17a.43.43,0,0,0-.38.19,1,1,0,0,0-.13.55v.51h.66v.53H139v3.46Z" transform="translate(-110.16 -25.2)"/>
      <path class="cls-1" d="M140.5,180.37v-3.46H140v-.53h.53v-.51a1.43,1.43,0,0,1,.31-1,1.09,1.09,0,0,1,.86-.35l.23,0,.25.06-.07.55-.15,0h-.17a.43.43,0,0,0-.38.19,1,1,0,0,0-.13.55v.51h.66v.53h-.66v3.46Z" transform="translate(-110.16 -25.2)"/>
      <path class="cls-1" d="M144.21,177l-.32,0a.56.56,0,0,0-.39.14.91.91,0,0,0-.24.4v2.84h-.75v-4h.69l.05.59a1.29,1.29,0,0,1,.34-.49.72.72,0,0,1,.48-.18h.13l.11,0Z" transform="translate(-110.16 -25.2)"/>
      <path class="cls-1" d="M144.6,178.33a2.39,2.39,0,0,1,.42-1.46,1.46,1.46,0,0,1,2.31,0,2.38,2.38,0,0,1,.42,1.46v.1a2.37,2.37,0,0,1-.42,1.46,1.47,1.47,0,0,1-2.31,0,2.37,2.37,0,0,1-.42-1.46Zm.75.1a2.31,2.31,0,0,0,.21,1,.66.66,0,0,0,.63.41.66.66,0,0,0,.61-.41,2.32,2.32,0,0,0,.2-1v-.1a2.3,2.3,0,0,0-.21-1,.67.67,0,0,0-1.24,0,2.32,2.32,0,0,0-.21,1Z" transform="translate(-110.16 -25.2)"/>
      <path class="cls-1" d="M149.15,176.38l0,.59a1.34,1.34,0,0,1,.43-.49,1,1,0,0,1,.59-.18,1,1,0,0,1,.83.39,2,2,0,0,1,.3,1.22v2.46h-.75v-2.45a1.49,1.49,0,0,0-.16-.8.53.53,0,0,0-.47-.23.73.73,0,0,0-.44.13.94.94,0,0,0-.29.37v3h-.75v-4Z" transform="translate(-110.16 -25.2)"/>
      <path class="cls-1" d="M154.08,179.37a.53.53,0,0,0-.15-.39,2.07,2.07,0,0,0-.59-.35,3,3,0,0,1-.92-.51.9.9,0,0,1-.31-.7,1,1,0,0,1,.37-.79,1.41,1.41,0,0,1,1-.32,1.38,1.38,0,0,1,1,.36,1.09,1.09,0,0,1,.36.86v0h-.72a.75.75,0,0,0-.17-.49.56.56,0,0,0-.46-.2.61.61,0,0,0-.45.16.51.51,0,0,0-.16.37.47.47,0,0,0,.14.36,2.44,2.44,0,0,0,.59.34,2.72,2.72,0,0,1,.94.51,1,1,0,0,1,.32.73,1,1,0,0,1-.38.81,1.53,1.53,0,0,1-1,.31,1.45,1.45,0,0,1-1.06-.37,1.12,1.12,0,0,1-.37-.88v0h.7a.73.73,0,0,0,.22.56.77.77,0,0,0,.51.17.67.67,0,0,0,.47-.15A.5.5,0,0,0,154.08,179.37Z" transform="translate(-110.16 -25.2)"/>
      <path class="cls-1" d="M157,178.42a3,3,0,0,1,.35-1.54,1.1,1.1,0,0,1,1-.58,1,1,0,0,1,.51.13,1.15,1.15,0,0,1,.39.37v-2.18H160v5.75h-.62l-.08-.48a1.19,1.19,0,0,1-.41.42,1.06,1.06,0,0,1-.55.14,1.11,1.11,0,0,1-1-.53,2.55,2.55,0,0,1-.35-1.41Zm.75.08a2.22,2.22,0,0,0,.19,1,.62.62,0,0,0,.59.37.69.69,0,0,0,.43-.13,1,1,0,0,0,.29-.38v-1.93A1.05,1.05,0,0,0,159,177a.64.64,0,0,0-.42-.15.62.62,0,0,0-.59.43,2.74,2.74,0,0,0-.19,1.11Z" transform="translate(-110.16 -25.2)"/>
      <path class="cls-1" d="M162.33,180.45a1.39,1.39,0,0,1-1.17-.55,2.26,2.26,0,0,1-.42-1.42v-.17a2.34,2.34,0,0,1,.42-1.44,1.31,1.31,0,0,1,1.1-.56,1.21,1.21,0,0,1,1,.48,2.14,2.14,0,0,1,.36,1.3v.42h-2.17a2,2,0,0,0,.22,1,.72.72,0,0,0,.67.38,1.31,1.31,0,0,0,1-.38l.24.46a1.59,1.59,0,0,1-.53.35A1.87,1.87,0,0,1,162.33,180.45Zm-.07-3.57a.59.59,0,0,0-.52.3,1.79,1.79,0,0,0-.24.79h1.41v-.08a1.46,1.46,0,0,0-.16-.73A.53.53,0,0,0,162.26,176.88Z" transform="translate(-110.16 -25.2)"/>
      <path class="cls-1" d="M166.79,180.37H166v-5.75h.75Z" transform="translate(-110.16 -25.2)"/>
      <path class="cls-1" d="M168.49,175.77l-.31,1.15h-.37V175h.67Z" transform="translate(-110.16 -25.2)"/>
      <path class="cls-1" d="M171.33,180.37c0-.12-.06-.23-.08-.32a2,2,0,0,1,0-.28,1.47,1.47,0,0,1-.42.49,1,1,0,0,1-.59.19,1,1,0,0,1-.82-.32,1.25,1.25,0,0,1-.29-.87,1.09,1.09,0,0,1,.4-.89,1.7,1.7,0,0,1,1.1-.32h.61v-.41a.9.9,0,0,0-.16-.57.62.62,0,0,0-.9,0,.65.65,0,0,0-.16.45h-.72v0a1,1,0,0,1,.36-.82,1.42,1.42,0,0,1,1-.35,1.34,1.34,0,0,1,1,.35,1.3,1.3,0,0,1,.37,1v1.85a3.22,3.22,0,0,0,0,.44,2.79,2.79,0,0,0,.09.43Zm-1-.5a.84.84,0,0,0,.54-.19.88.88,0,0,0,.31-.46v-.71h-.62a.69.69,0,0,0-.54.22.77.77,0,0,0-.2.53.69.69,0,0,0,.13.44A.45.45,0,0,0,170.37,179.87Z" transform="translate(-110.16 -25.2)"/>
      <path class="cls-1" d="M173.63,175.33h-.75v-.72h.75Zm0,5h-.75v-4h.75Z" transform="translate(-110.16 -25.2)"/>
      <path class="cls-1" d="M174.4,178.42a3,3,0,0,1,.35-1.54,1.1,1.1,0,0,1,1-.58,1,1,0,0,1,.51.13,1.15,1.15,0,0,1,.39.37v-2.18h.75v5.75h-.62l-.08-.48a1.19,1.19,0,0,1-.41.42,1.06,1.06,0,0,1-.55.14,1.11,1.11,0,0,1-1-.53,2.55,2.55,0,0,1-.35-1.41Zm.75.08a2.22,2.22,0,0,0,.19,1,.62.62,0,0,0,.59.37.69.69,0,0,0,.43-.13,1,1,0,0,0,.29-.38v-1.93a1.05,1.05,0,0,0-.29-.39.64.64,0,0,0-.42-.15.62.62,0,0,0-.59.43,2.74,2.74,0,0,0-.19,1.11Z" transform="translate(-110.16 -25.2)"/>
      <path class="cls-1" d="M179.7,180.45a1.39,1.39,0,0,1-1.17-.55,2.26,2.26,0,0,1-.42-1.42v-.17a2.34,2.34,0,0,1,.42-1.44,1.31,1.31,0,0,1,1.1-.56,1.21,1.21,0,0,1,1,.48,2.14,2.14,0,0,1,.36,1.3v.42h-2.17a2,2,0,0,0,.22,1,.72.72,0,0,0,.67.38,1.31,1.31,0,0,0,1-.38l.24.46a1.59,1.59,0,0,1-.53.35A1.87,1.87,0,0,1,179.7,180.45Zm-.07-3.57a.59.59,0,0,0-.52.3,1.79,1.79,0,0,0-.24.79h1.41v-.08a1.46,1.46,0,0,0-.16-.73A.53.53,0,0,0,179.63,176.88Z" transform="translate(-110.16 -25.2)"/>
    </g>
  </g>
  <g>
    <path class="cls-1" d="M120,91.15v3.29h-1.76V85.36h3a2.92,2.92,0,0,1,2.16.8,3.16,3.16,0,0,1,0,4.2,2.93,2.93,0,0,1-2.16.8Zm0-1.38h1.28a1,1,0,0,0,.9-.42,1.79,1.79,0,0,0,.31-1.08,1.85,1.85,0,0,0-.31-1.1,1,1,0,0,0-.9-.43H120Z" transform="translate(-110.16 -25.2)"/>
    <path class="cls-1" d="M125,91a4,4,0,0,1,.73-2.48,2.66,2.66,0,0,1,4.09,0,4,4,0,0,1,.74,2.48v.14a3.94,3.94,0,0,1-.73,2.47,2.68,2.68,0,0,1-4.09,0,4,4,0,0,1-.73-2.48Zm1.75.14a3.94,3.94,0,0,0,.23,1.5.81.81,0,0,0,.8.56.8.8,0,0,0,.77-.56,3.89,3.89,0,0,0,.24-1.5V91a3.93,3.93,0,0,0-.24-1.49.83.83,0,0,0-1.57,0,4,4,0,0,0-.23,1.49Z" transform="translate(-110.16 -25.2)"/>
    <path class="cls-1" d="M134.51,92.68a.67.67,0,0,0-.23-.51,3.8,3.8,0,0,0-.89-.52,4.72,4.72,0,0,1-1.55-.87,1.61,1.61,0,0,1-.52-1.23,1.81,1.81,0,0,1,.66-1.4,2.54,2.54,0,0,1,1.74-.58,2.63,2.63,0,0,1,1.81.6,1.86,1.86,0,0,1,.65,1.52v0h-1.7a1.14,1.14,0,0,0-.19-.68.65.65,0,0,0-.57-.26.71.71,0,0,0-.51.2.65.65,0,0,0-.21.49.62.62,0,0,0,.21.48,4.3,4.3,0,0,0,.9.51,4.37,4.37,0,0,1,1.59.86,1.7,1.7,0,0,1,.52,1.29,1.72,1.72,0,0,1-.69,1.41,2.83,2.83,0,0,1-1.82.55,2.55,2.55,0,0,1-1.86-.67,2,2,0,0,1-.65-1.53l0,0h1.6a1.09,1.09,0,0,0,.26.79,1,1,0,0,0,.69.24.8.8,0,0,0,.57-.18A.65.65,0,0,0,134.51,92.68Z" transform="translate(-110.16 -25.2)"/>
    <path class="cls-1" d="M140.11,92.68a.67.67,0,0,0-.23-.51,3.8,3.8,0,0,0-.89-.52,4.72,4.72,0,0,1-1.55-.87,1.61,1.61,0,0,1-.52-1.23,1.81,1.81,0,0,1,.66-1.4,2.54,2.54,0,0,1,1.74-.58,2.63,2.63,0,0,1,1.81.6,1.86,1.86,0,0,1,.65,1.52v0h-1.7a1.14,1.14,0,0,0-.19-.68.65.65,0,0,0-.57-.26.71.71,0,0,0-.51.2.65.65,0,0,0-.21.49.62.62,0,0,0,.21.48,4.3,4.3,0,0,0,.9.51,4.37,4.37,0,0,1,1.59.86,1.7,1.7,0,0,1,.52,1.29,1.72,1.72,0,0,1-.69,1.41,2.83,2.83,0,0,1-1.82.55,2.55,2.55,0,0,1-1.86-.67,2,2,0,0,1-.65-1.53l0,0h1.6a1.09,1.09,0,0,0,.26.79,1,1,0,0,0,.69.24.8.8,0,0,0,.57-.18A.65.65,0,0,0,140.11,92.68Z" transform="translate(-110.16 -25.2)"/>
    <path class="cls-1" d="M145.3,94.57a2.5,2.5,0,0,1-2.07-.92,3.7,3.7,0,0,1-.74-2.38V91a4.09,4.09,0,0,1,.71-2.49,2.33,2.33,0,0,1,2-1,2.18,2.18,0,0,1,1.83.82,3.52,3.52,0,0,1,.64,2.22v1h-3.41a2.38,2.38,0,0,0,.34,1.19,1,1,0,0,0,.91.44,2.72,2.72,0,0,0,.88-.12,3.56,3.56,0,0,0,.76-.38l.46,1.1a2.91,2.91,0,0,1-1,.56A3.81,3.81,0,0,1,145.3,94.57Zm0-9.77h2l0,0-1.57,1.62H144.2Zm-.12,4.14a.7.7,0,0,0-.66.39,2.7,2.7,0,0,0-.27,1.07h1.67v-.16a2.19,2.19,0,0,0-.17-1A.59.59,0,0,0,145.2,88.94Z" transform="translate(-110.16 -25.2)"/>
    <path class="cls-1" d="M148.33,91.1a4.88,4.88,0,0,1,.59-2.56,1.86,1.86,0,0,1,1.68-1,1.41,1.41,0,0,1,.73.19,1.94,1.94,0,0,1,.58.55v-3.6h1.76v9.73h-1.5l-.13-.76a2,2,0,0,1-.63.66,1.51,1.51,0,0,1-.82.23,1.88,1.88,0,0,1-1.67-.91,4.4,4.4,0,0,1-.59-2.42Zm1.75.13a3.72,3.72,0,0,0,.22,1.44.76.76,0,0,0,.74.52,1,1,0,0,0,.51-.13,1,1,0,0,0,.36-.4v-3.1a1.21,1.21,0,0,0-.37-.45.84.84,0,0,0-.5-.16.78.78,0,0,0-.74.59,4.38,4.38,0,0,0-.23,1.56Z" transform="translate(-110.16 -25.2)"/>
    <path class="cls-1" d="M157.44,94.57a2.5,2.5,0,0,1-2.07-.92,3.7,3.7,0,0,1-.74-2.38V91a4.09,4.09,0,0,1,.71-2.49,2.33,2.33,0,0,1,2-1,2.18,2.18,0,0,1,1.83.82,3.52,3.52,0,0,1,.64,2.22v1h-3.41a2.38,2.38,0,0,0,.34,1.19,1,1,0,0,0,.91.44,2.72,2.72,0,0,0,.88-.12,3.56,3.56,0,0,0,.76-.38l.46,1.1a2.91,2.91,0,0,1-1,.56A3.81,3.81,0,0,1,157.44,94.57Zm-.11-5.63a.7.7,0,0,0-.66.39,2.7,2.7,0,0,0-.27,1.07h1.67v-.16a2.19,2.19,0,0,0-.17-1A.59.59,0,0,0,157.33,88.94Z" transform="translate(-110.16 -25.2)"/>
    <path class="cls-1" d="M162.59,93.07h2.83v1.37h-4.88v-1l2.75-4.34h-2.67V87.69h4.74v1Z" transform="translate(-110.16 -25.2)"/>
    <path class="cls-1" d="M169.84,91.23h-3.16V89.85h3.16Z" transform="translate(-110.16 -25.2)"/>
    <path class="cls-1" d="M173.5,91.94l.08.51h0l.09-.51.82-4.25h1.84l-1.92,6.75h-1.72l-1.93-6.75h1.85Z" transform="translate(-110.16 -25.2)"/>
    <path class="cls-1" d="M176.74,91a4,4,0,0,1,.73-2.48,2.66,2.66,0,0,1,4.09,0,4,4,0,0,1,.74,2.48v.14a3.94,3.94,0,0,1-.73,2.47,2.68,2.68,0,0,1-4.09,0,4,4,0,0,1-.73-2.48Zm1.75.14a3.94,3.94,0,0,0,.23,1.5.81.81,0,0,0,.8.56.8.8,0,0,0,.77-.56,3.89,3.89,0,0,0,.24-1.5V91a3.93,3.93,0,0,0-.24-1.49.83.83,0,0,0-1.57,0,4,4,0,0,0-.23,1.49Z" transform="translate(-110.16 -25.2)"/>
    <path class="cls-1" d="M186.76,93.48a2.18,2.18,0,0,1-.67.81,1.58,1.58,0,0,1-.93.28,1.66,1.66,0,0,1-1.43-.73,3.92,3.92,0,0,1-.52-2.26V87.69H185v3.9a3,3,0,0,0,.18,1.25.59.59,0,0,0,.56.35,1.18,1.18,0,0,0,.54-.12,1.08,1.08,0,0,0,.39-.34v-5h1.77v6.75H187Z" transform="translate(-110.16 -25.2)"/>
    <path class="cls-1" d="M192.53,92.68a.67.67,0,0,0-.23-.51,3.8,3.8,0,0,0-.89-.52,4.72,4.72,0,0,1-1.55-.87,1.61,1.61,0,0,1-.52-1.23,1.81,1.81,0,0,1,.66-1.4,2.54,2.54,0,0,1,1.74-.58,2.63,2.63,0,0,1,1.81.6,1.86,1.86,0,0,1,.65,1.52v0h-1.7a1.14,1.14,0,0,0-.19-.68.65.65,0,0,0-.57-.26.71.71,0,0,0-.51.2.65.65,0,0,0-.21.49.62.62,0,0,0,.21.48,4.3,4.3,0,0,0,.9.51,4.37,4.37,0,0,1,1.59.86,1.7,1.7,0,0,1,.52,1.29,1.72,1.72,0,0,1-.69,1.41,2.83,2.83,0,0,1-1.82.55,2.55,2.55,0,0,1-1.86-.67,2,2,0,0,1-.65-1.53l0,0h1.6a1.09,1.09,0,0,0,.26.79,1,1,0,0,0,.69.24.8.8,0,0,0,.57-.18A.65.65,0,0,0,192.53,92.68Z" transform="translate(-110.16 -25.2)"/>
    <path class="cls-1" d="M201.48,93.48a2.18,2.18,0,0,1-.67.81,1.58,1.58,0,0,1-.93.28,1.66,1.66,0,0,1-1.43-.73,3.92,3.92,0,0,1-.52-2.26V87.69h1.76v3.9a3,3,0,0,0,.18,1.25.59.59,0,0,0,.56.35,1.18,1.18,0,0,0,.54-.12,1.08,1.08,0,0,0,.39-.34v-5h1.77v6.75h-1.44Z" transform="translate(-110.16 -25.2)"/>
    <path class="cls-1" d="M205.86,87.69l.08.94a2.29,2.29,0,0,1,.7-.79,1.62,1.62,0,0,1,.93-.28,1.58,1.58,0,0,1,1.35.67,3.6,3.6,0,0,1,.49,2.1v4.1h-1.76v-4.1a2.28,2.28,0,0,0-.18-1.08.6.6,0,0,0-.56-.31,1,1,0,0,0-.53.14,1.19,1.19,0,0,0-.4.39v5h-1.76V87.69Z" transform="translate(-110.16 -25.2)"/>
    <path class="cls-1" d="M213.74,94.44v-5.5h-.84V87.69h.84v-.46a2.63,2.63,0,0,1,.7-2,2.71,2.71,0,0,1,2-.69,4.09,4.09,0,0,1,.87.09,8.82,8.82,0,0,1,1,.27L218,86.35a7,7,0,0,0-.72-.22,3.34,3.34,0,0,0-.76-.08,1,1,0,0,0-.77.3,1.28,1.28,0,0,0-.26.87v.46h1.1v1.25h-1.1v5.5Zm5.33,0H217.3V87.69h1.76Z" transform="translate(-110.16 -25.2)"/>
    <path class="cls-1" d="M222.8,93.2a.65.65,0,0,0,.57-.28,1.38,1.38,0,0,0,.19-.8h1.59l0,0a2.29,2.29,0,0,1-.66,1.73,2.32,2.32,0,0,1-1.71.68,2.38,2.38,0,0,1-2-1,4,4,0,0,1-.71-2.46V91a4,4,0,0,1,.71-2.45,2.37,2.37,0,0,1,2-1,2.26,2.26,0,0,1,1.75.7,2.62,2.62,0,0,1,.63,1.89v0h-1.6a1.83,1.83,0,0,0-.19-.9.62.62,0,0,0-.57-.34.77.77,0,0,0-.76.56,4.24,4.24,0,0,0-.21,1.48v.18a4.24,4.24,0,0,0,.21,1.49A.77.77,0,0,0,222.8,93.2Z" transform="translate(-110.16 -25.2)"/>
    <path class="cls-1" d="M227.77,88.51a2.09,2.09,0,0,1,.65-.7,1.49,1.49,0,0,1,.83-.25,1.68,1.68,0,0,1,1.43.71,3.71,3.71,0,0,1,.52,2.19v4h-1.76v-4a2.64,2.64,0,0,0-.18-1.17.61.61,0,0,0-.57-.33,1.12,1.12,0,0,0-.53.12,1.09,1.09,0,0,0-.38.35v5H226V84.71h1.75Z" transform="translate(-110.16 -25.2)"/>
    <path class="cls-1" d="M234.19,86h-1.76V84.71h1.76Zm0,8.39h-1.76V87.69h1.76Z" transform="translate(-110.16 -25.2)"/>
    <path class="cls-1" d="M238,94.57a2.5,2.5,0,0,1-2.07-.92,3.7,3.7,0,0,1-.74-2.38V91a4.09,4.09,0,0,1,.71-2.49,2.33,2.33,0,0,1,2-1,2.18,2.18,0,0,1,1.83.82,3.52,3.52,0,0,1,.64,2.22v1H237a2.36,2.36,0,0,0,.34,1.19,1,1,0,0,0,.91.44,2.72,2.72,0,0,0,.88-.12,3.57,3.57,0,0,0,.76-.38l.46,1.1a2.9,2.9,0,0,1-1,.56A3.8,3.8,0,0,1,238,94.57Zm-.11-5.63a.71.71,0,0,0-.66.39A2.71,2.71,0,0,0,237,90.4h1.67v-.16a2.17,2.17,0,0,0-.17-1A.59.59,0,0,0,237.93,88.94Z" transform="translate(-110.16 -25.2)"/>
    <path class="cls-1" d="M244.44,89.21l-.6,0a.76.76,0,0,0-.49.16,1,1,0,0,0-.3.44v4.65H241.3V87.69h1.64l.07,1a2.09,2.09,0,0,1,.5-.8,1,1,0,0,1,.7-.28l.22,0,.21.05Z" transform="translate(-110.16 -25.2)"/>
    <path class="cls-1" d="M250.58,93.2a.65.65,0,0,0,.57-.28,1.38,1.38,0,0,0,.19-.8h1.59l0,0a2.29,2.29,0,0,1-.66,1.73,2.32,2.32,0,0,1-1.71.68,2.38,2.38,0,0,1-2-1,4,4,0,0,1-.71-2.46V91a4,4,0,0,1,.71-2.45,2.37,2.37,0,0,1,2-1,2.26,2.26,0,0,1,1.75.7,2.62,2.62,0,0,1,.63,1.89v0h-1.6a1.83,1.83,0,0,0-.19-.9.62.62,0,0,0-.57-.34.77.77,0,0,0-.76.56A4.24,4.24,0,0,0,249.6,91v.18a4.24,4.24,0,0,0,.21,1.49A.77.77,0,0,0,250.58,93.2Z" transform="translate(-110.16 -25.2)"/>
    <path class="cls-1" d="M253.62,91a4,4,0,0,1,.73-2.48,2.66,2.66,0,0,1,4.09,0,4,4,0,0,1,.74,2.48v.14a3.94,3.94,0,0,1-.73,2.47,2.68,2.68,0,0,1-4.09,0,4,4,0,0,1-.73-2.48Zm1.75.14a3.93,3.93,0,0,0,.23,1.5.81.81,0,0,0,.79.56.8.8,0,0,0,.77-.56,3.88,3.88,0,0,0,.24-1.5V91a3.92,3.92,0,0,0-.24-1.49.83.83,0,0,0-1.57,0,4,4,0,0,0-.23,1.49Z" transform="translate(-110.16 -25.2)"/>
    <path class="cls-1" d="M261.74,87.69l.08.94a2.3,2.3,0,0,1,.7-.79,1.62,1.62,0,0,1,.93-.28,1.58,1.58,0,0,1,1.35.67,3.6,3.6,0,0,1,.49,2.1v4.1h-1.76v-4.1a2.28,2.28,0,0,0-.18-1.08.61.61,0,0,0-.56-.31,1,1,0,0,0-.53.14,1.18,1.18,0,0,0-.4.39v5H260.1V87.69Z" transform="translate(-110.16 -25.2)"/>
    <path class="cls-1" d="M266.81,94.44v-5.5H266V87.69h.84v-.76a2.4,2.4,0,0,1,.59-1.74,2.2,2.2,0,0,1,1.66-.61,2.54,2.54,0,0,1,.41,0l.47.1L269.81,86l-.25-.05-.28,0a.61.61,0,0,0-.53.25,1.21,1.21,0,0,0-.18.71v.76h1.09v1.25h-1.09v5.5Z" transform="translate(-110.16 -25.2)"/>
    <path class="cls-1" d="M270.18,91a4,4,0,0,1,.73-2.48,2.66,2.66,0,0,1,4.09,0,4,4,0,0,1,.74,2.48v.14a3.94,3.94,0,0,1-.73,2.47,2.68,2.68,0,0,1-4.09,0,4,4,0,0,1-.73-2.48Zm1.75.14a3.93,3.93,0,0,0,.23,1.5.81.81,0,0,0,.79.56.8.8,0,0,0,.77-.56,3.88,3.88,0,0,0,.24-1.5V91a3.92,3.92,0,0,0-.24-1.49.83.83,0,0,0-1.57,0,4,4,0,0,0-.23,1.49Z" transform="translate(-110.16 -25.2)"/>
    <path class="cls-1" d="M279.83,89.21l-.6,0a.76.76,0,0,0-.49.16,1,1,0,0,0-.3.44v4.65h-1.75V87.69h1.64l.07,1a2.09,2.09,0,0,1,.5-.8,1,1,0,0,1,.7-.28l.22,0,.21.05Z" transform="translate(-110.16 -25.2)"/>
    <path class="cls-1" d="M282.29,87.69l.07.87a2.07,2.07,0,0,1,.69-.73,1.76,1.76,0,0,1,1-.26,1.53,1.53,0,0,1,.92.28,1.73,1.73,0,0,1,.59.85,2.19,2.19,0,0,1,.69-.83,1.66,1.66,0,0,1,1-.3,1.55,1.55,0,0,1,1.34.71,3.86,3.86,0,0,1,.49,2.18v4h-1.76v-4a2.67,2.67,0,0,0-.18-1.18.59.59,0,0,0-.55-.32.79.79,0,0,0-.49.16,1.19,1.19,0,0,0-.35.44c0,.1,0,.19,0,.27s0,.15,0,.22v4.4H284v-4a2.65,2.65,0,0,0-.18-1.17.6.6,0,0,0-.56-.33.84.84,0,0,0-.46.13,1.09,1.09,0,0,0-.35.36v5h-1.76V87.69Z" transform="translate(-110.16 -25.2)"/>
    <path class="cls-1" d="M292.78,94.57a2.5,2.5,0,0,1-2.07-.92,3.7,3.7,0,0,1-.74-2.38V91a4.09,4.09,0,0,1,.71-2.49,2.33,2.33,0,0,1,2-1,2.18,2.18,0,0,1,1.83.82,3.52,3.52,0,0,1,.64,2.22v1h-3.41a2.36,2.36,0,0,0,.34,1.19,1,1,0,0,0,.91.44,2.72,2.72,0,0,0,.88-.12,3.57,3.57,0,0,0,.76-.38l.46,1.1a2.9,2.9,0,0,1-1,.56A3.8,3.8,0,0,1,292.78,94.57Zm-.11-5.63a.71.71,0,0,0-.66.39,2.71,2.71,0,0,0-.27,1.07h1.67v-.16a2.17,2.17,0,0,0-.17-1A.59.59,0,0,0,292.67,88.94Z" transform="translate(-110.16 -25.2)"/>
    <path class="cls-1" d="M300,91.86a2.56,2.56,0,0,1,.25-1.25,4.52,4.52,0,0,1,.93-1,3,3,0,0,0,.57-.78,2.11,2.11,0,0,0,.21-1,1.58,1.58,0,0,0-.24-.93.79.79,0,0,0-.68-.34.77.77,0,0,0-.6.29,1.29,1.29,0,0,0-.26.84h-1.71v0a2.28,2.28,0,0,1,.7-1.85,2.75,2.75,0,0,1,1.88-.64,2.68,2.68,0,0,1,2,.71,2.6,2.6,0,0,1,.72,1.93,2.76,2.76,0,0,1-.4,1.45,3.94,3.94,0,0,1-1,1.13,1.45,1.45,0,0,0-.44.59,2.57,2.57,0,0,0-.11.82Zm1.75,2.58H300V92.92h1.75Z" transform="translate(-110.16 -25.2)"/>
  </g>
  <g>
    <path class="cls-1" d="M132.93,236a1.25,1.25,0,0,0-.28-.86,2.76,2.76,0,0,0-1-.61,6.4,6.4,0,0,1-2.1-1.12,2.21,2.21,0,0,1-.71-1.75,2.3,2.3,0,0,1,.8-1.82,3.37,3.37,0,0,1,4.18,0,2.54,2.54,0,0,1,.78,2v0h-1.71a1.59,1.59,0,0,0-.31-1.07,1.13,1.13,0,0,0-.9-.37,1,1,0,0,0-.79.33,1.25,1.25,0,0,0-.28.83,1,1,0,0,0,.32.76,4.29,4.29,0,0,0,1.09.65,5.09,5.09,0,0,1,2,1.1,2.41,2.41,0,0,1,.68,1.8,2.27,2.27,0,0,1-.79,1.83,3.15,3.15,0,0,1-2.1.67,3.47,3.47,0,0,1-2.21-.72,2.54,2.54,0,0,1-.89-2.19v0h1.72a1.78,1.78,0,0,0,.35,1.23,1.32,1.32,0,0,0,1,.37,1.09,1.09,0,0,0,.85-.31A1.18,1.18,0,0,0,132.93,236Z" transform="translate(-110.16 -25.2)"/>
    <path class="cls-1" d="M139.08,238.41a3,3,0,0,1-.17-.49,4.21,4.21,0,0,1-.1-.54,2.38,2.38,0,0,1-.59.83,1.3,1.3,0,0,1-.9.32,1.83,1.83,0,0,1-1.42-.54,2.11,2.11,0,0,1-.5-1.48,1.89,1.89,0,0,1,.65-1.53,3,3,0,0,1,1.95-.55h.77v-.56a1.36,1.36,0,0,0-.19-.78.63.63,0,0,0-.56-.27.58.58,0,0,0-.49.22,1,1,0,0,0-.17.62h-1.7v0a1.8,1.8,0,0,1,.65-1.48,2.66,2.66,0,0,1,1.83-.61,2.44,2.44,0,0,1,1.73.61,2.26,2.26,0,0,1,.66,1.75v2.77a5.61,5.61,0,0,0,.07.9,5.28,5.28,0,0,0,.21.85Zm-1.29-1.17a1,1,0,0,0,.62-.21,1.08,1.08,0,0,0,.37-.52v-1.06H138a.74.74,0,0,0-.65.29,1.22,1.22,0,0,0-.2.72.9.9,0,0,0,.17.57A.54.54,0,0,0,137.79,237.23Z" transform="translate(-110.16 -25.2)"/>
    <path class="cls-1" d="M143.77,235.91l.08.51h0l.09-.51.82-4.25h1.84l-1.92,6.75H143l-1.93-6.75h1.85Z" transform="translate(-110.16 -25.2)"/>
    <path class="cls-1" d="M149.83,238.54a2.5,2.5,0,0,1-2.07-.92,3.7,3.7,0,0,1-.74-2.38V235a4.09,4.09,0,0,1,.71-2.49,2.33,2.33,0,0,1,2-1,2.18,2.18,0,0,1,1.83.82,3.52,3.52,0,0,1,.64,2.22v1h-3.41a2.38,2.38,0,0,0,.34,1.19,1,1,0,0,0,.91.44,2.72,2.72,0,0,0,.88-.12,3.56,3.56,0,0,0,.76-.38l.46,1.1a2.91,2.91,0,0,1-1,.56A3.81,3.81,0,0,1,149.83,238.54Zm-.11-5.63a.7.7,0,0,0-.66.39,2.7,2.7,0,0,0-.27,1.07h1.67v-.16a2.19,2.19,0,0,0-.17-1A.59.59,0,0,0,149.72,232.91Z" transform="translate(-110.16 -25.2)"/>
    <path class="cls-1" d="M155,237h2.83v1.37h-4.88v-1l2.75-4.34H153v-1.38h4.74v1Z" transform="translate(-110.16 -25.2)"/>
    <path class="cls-1" d="M162.23,235.2h-3.16v-1.38h3.16Z" transform="translate(-110.16 -25.2)"/>
    <path class="cls-1" d="M165.89,235.91l.08.51h0l.09-.51.82-4.25h1.84l-1.92,6.75h-1.72l-1.93-6.75h1.85Z" transform="translate(-110.16 -25.2)"/>
    <path class="cls-1" d="M169.13,235a4,4,0,0,1,.73-2.48,2.66,2.66,0,0,1,4.09,0,4,4,0,0,1,.74,2.48v.14a3.94,3.94,0,0,1-.73,2.47,2.68,2.68,0,0,1-4.09,0,4,4,0,0,1-.73-2.48Zm1.75.14a3.94,3.94,0,0,0,.23,1.5.81.81,0,0,0,.8.56.8.8,0,0,0,.77-.56,3.89,3.89,0,0,0,.24-1.5V235a3.93,3.93,0,0,0-.24-1.49.83.83,0,0,0-1.57,0,4,4,0,0,0-.23,1.49Z" transform="translate(-110.16 -25.2)"/>
    <path class="cls-1" d="M179.15,237.45a2.18,2.18,0,0,1-.67.81,1.58,1.58,0,0,1-.93.28,1.66,1.66,0,0,1-1.43-.73,3.92,3.92,0,0,1-.52-2.26v-3.89h1.76v3.9a3,3,0,0,0,.18,1.25.59.59,0,0,0,.56.35,1.18,1.18,0,0,0,.54-.12,1.08,1.08,0,0,0,.39-.34v-5h1.77v6.75h-1.44Z" transform="translate(-110.16 -25.2)"/>
    <path class="cls-1" d="M184.93,236.65a.67.67,0,0,0-.23-.51,3.8,3.8,0,0,0-.89-.52,4.72,4.72,0,0,1-1.55-.87,1.61,1.61,0,0,1-.52-1.23,1.81,1.81,0,0,1,.66-1.4,2.54,2.54,0,0,1,1.74-.58,2.63,2.63,0,0,1,1.81.6,1.86,1.86,0,0,1,.65,1.52v0h-1.7a1.14,1.14,0,0,0-.19-.68.65.65,0,0,0-.57-.26.71.71,0,0,0-.51.2.65.65,0,0,0-.21.49.62.62,0,0,0,.21.48,4.3,4.3,0,0,0,.9.51,4.37,4.37,0,0,1,1.59.86,1.7,1.7,0,0,1,.52,1.29,1.72,1.72,0,0,1-.69,1.41,2.83,2.83,0,0,1-1.82.55,2.55,2.55,0,0,1-1.86-.67,2,2,0,0,1-.65-1.53l0,0h1.6a1.09,1.09,0,0,0,.26.79,1,1,0,0,0,.69.24.8.8,0,0,0,.57-.18A.65.65,0,0,0,184.93,236.65Z" transform="translate(-110.16 -25.2)"/>
    <path class="cls-1" d="M193.87,237.45a2.18,2.18,0,0,1-.67.81,1.58,1.58,0,0,1-.93.28,1.66,1.66,0,0,1-1.43-.73,3.92,3.92,0,0,1-.52-2.26v-3.89h1.76v3.9a3,3,0,0,0,.18,1.25.59.59,0,0,0,.56.35,1.18,1.18,0,0,0,.54-.12,1.08,1.08,0,0,0,.39-.34v-5h1.77v6.75h-1.44Z" transform="translate(-110.16 -25.2)"/>
    <path class="cls-1" d="M198.7,230v1.68h.92v1.25h-.92v3.44a1.11,1.11,0,0,0,.13.61.39.39,0,0,0,.34.18l.21,0,.2-.05.14,1.3a3,3,0,0,1-.48.13,2.92,2.92,0,0,1-.51,0,1.66,1.66,0,0,1-1.32-.52,2.47,2.47,0,0,1-.46-1.65v-3.45h-.82v-1.25h.82V230Z" transform="translate(-110.16 -25.2)"/>
    <path class="cls-1" d="M202.45,230h-1.76v-1.34h1.76Zm0,8.39h-1.76v-6.75h1.76Z" transform="translate(-110.16 -25.2)"/>
    <path class="cls-1" d="M205.55,238.41h-1.76v-9.73h1.76Z" transform="translate(-110.16 -25.2)"/>
    <path class="cls-1" d="M208.65,230h-1.76v-1.34h1.76Zm0,8.39h-1.76v-6.75h1.76Z" transform="translate(-110.16 -25.2)"/>
    <path class="cls-1" d="M212.91,236.65a.67.67,0,0,0-.23-.51,3.79,3.79,0,0,0-.89-.52,4.73,4.73,0,0,1-1.55-.87,1.61,1.61,0,0,1-.52-1.23,1.81,1.81,0,0,1,.66-1.4,2.54,2.54,0,0,1,1.74-.58,2.62,2.62,0,0,1,1.81.6,1.85,1.85,0,0,1,.65,1.52v0h-1.7a1.15,1.15,0,0,0-.19-.68.66.66,0,0,0-.57-.26.72.72,0,0,0-.51.2.65.65,0,0,0-.21.49.62.62,0,0,0,.21.48,4.31,4.31,0,0,0,.9.51,4.38,4.38,0,0,1,1.59.86,1.7,1.7,0,0,1,.52,1.29,1.72,1.72,0,0,1-.69,1.41,2.83,2.83,0,0,1-1.82.55,2.55,2.55,0,0,1-1.87-.67,2,2,0,0,1-.65-1.53l0,0h1.6a1.1,1.1,0,0,0,.26.79,1,1,0,0,0,.69.24.8.8,0,0,0,.57-.18A.65.65,0,0,0,212.91,236.65Z" transform="translate(-110.16 -25.2)"/>
    <path class="cls-1" d="M218.1,238.54a2.5,2.5,0,0,1-2.07-.92,3.7,3.7,0,0,1-.74-2.38V235a4.09,4.09,0,0,1,.71-2.49,2.33,2.33,0,0,1,2-1,2.18,2.18,0,0,1,1.83.82,3.52,3.52,0,0,1,.64,2.22v1H217a2.36,2.36,0,0,0,.34,1.19,1,1,0,0,0,.91.44,2.72,2.72,0,0,0,.88-.12,3.57,3.57,0,0,0,.76-.38l.46,1.1a2.9,2.9,0,0,1-1,.56A3.8,3.8,0,0,1,218.1,238.54Zm-.11-5.63a.71.71,0,0,0-.66.39,2.71,2.71,0,0,0-.27,1.07h1.67v-.16a2.17,2.17,0,0,0-.17-1A.59.59,0,0,0,218,232.91Z" transform="translate(-110.16 -25.2)"/>
    <path class="cls-1" d="M224.5,233.18l-.6,0a.76.76,0,0,0-.49.16,1,1,0,0,0-.3.44v4.65h-1.75v-6.75H223l.07,1a2.09,2.09,0,0,1,.5-.8,1,1,0,0,1,.7-.28l.22,0,.21.05Z" transform="translate(-110.16 -25.2)"/>
    <path class="cls-1" d="M230,238.41h-1.76v-9.73H230Z" transform="translate(-110.16 -25.2)"/>
    <path class="cls-1" d="M234.63,238.41a3,3,0,0,1-.17-.49,4,4,0,0,1-.1-.54,2.38,2.38,0,0,1-.59.83,1.3,1.3,0,0,1-.9.32,1.83,1.83,0,0,1-1.42-.54,2.1,2.1,0,0,1-.5-1.48,1.89,1.89,0,0,1,.65-1.53,3,3,0,0,1,1.95-.55h.77v-.56a1.36,1.36,0,0,0-.19-.78.63.63,0,0,0-.56-.27.58.58,0,0,0-.49.22,1,1,0,0,0-.17.62h-1.7v0a1.8,1.8,0,0,1,.66-1.48,2.66,2.66,0,0,1,1.83-.61,2.44,2.44,0,0,1,1.73.61,2.26,2.26,0,0,1,.66,1.75v2.77a5.6,5.6,0,0,0,.07.9,5.18,5.18,0,0,0,.21.85Zm-1.29-1.17A1,1,0,0,0,234,237a1.08,1.08,0,0,0,.37-.52v-1.06h-.77a.73.73,0,0,0-.65.29,1.22,1.22,0,0,0-.2.72.9.9,0,0,0,.17.57A.54.54,0,0,0,233.33,237.23Z" transform="translate(-110.16 -25.2)"/>
    <path class="cls-1" d="M241.69,231.66l.07.87a2.07,2.07,0,0,1,.69-.73,1.76,1.76,0,0,1,1-.26,1.53,1.53,0,0,1,.92.28,1.73,1.73,0,0,1,.59.85,2.19,2.19,0,0,1,.69-.83,1.66,1.66,0,0,1,1-.3,1.55,1.55,0,0,1,1.34.71,3.86,3.86,0,0,1,.49,2.18v4h-1.76v-4a2.67,2.67,0,0,0-.18-1.18.59.59,0,0,0-.55-.32.79.79,0,0,0-.49.16,1.19,1.19,0,0,0-.35.44c0,.1,0,.19,0,.27s0,.15,0,.22v4.4h-1.75v-4a2.65,2.65,0,0,0-.18-1.17.6.6,0,0,0-.56-.33.84.84,0,0,0-.46.13,1.09,1.09,0,0,0-.35.36v5h-1.76v-6.75Z" transform="translate(-110.16 -25.2)"/>
    <path class="cls-1" d="M253,238.41a3,3,0,0,1-.17-.49,4,4,0,0,1-.1-.54,2.38,2.38,0,0,1-.59.83,1.3,1.3,0,0,1-.9.32,1.83,1.83,0,0,1-1.42-.54,2.1,2.1,0,0,1-.5-1.48A1.89,1.89,0,0,1,250,235a3,3,0,0,1,1.95-.55h.77v-.56a1.36,1.36,0,0,0-.19-.78.63.63,0,0,0-.56-.27.58.58,0,0,0-.49.22,1,1,0,0,0-.17.62h-1.7v0a1.8,1.8,0,0,1,.66-1.48,2.66,2.66,0,0,1,1.83-.61,2.44,2.44,0,0,1,1.73.61,2.26,2.26,0,0,1,.66,1.75v2.77a5.6,5.6,0,0,0,.07.9,5.18,5.18,0,0,0,.21.85Zm-1.29-1.17a1,1,0,0,0,.62-.21,1.08,1.08,0,0,0,.37-.52v-1.06h-.77a.73.73,0,0,0-.65.29,1.22,1.22,0,0,0-.2.72.9.9,0,0,0,.17.57A.54.54,0,0,0,251.67,237.23Z" transform="translate(-110.16 -25.2)"/>
    <path class="cls-1" d="M258,237.16a.65.65,0,0,0,.57-.28,1.38,1.38,0,0,0,.19-.8h1.59l0,0a2.29,2.29,0,0,1-.66,1.73,2.32,2.32,0,0,1-1.71.68,2.38,2.38,0,0,1-2-1,4,4,0,0,1-.71-2.46v-.18a4,4,0,0,1,.71-2.45,2.37,2.37,0,0,1,2-1,2.26,2.26,0,0,1,1.75.7,2.62,2.62,0,0,1,.63,1.89v0h-1.6a1.83,1.83,0,0,0-.19-.9.62.62,0,0,0-.57-.34.77.77,0,0,0-.76.56,4.24,4.24,0,0,0-.21,1.48v.18a4.24,4.24,0,0,0,.21,1.49A.77.77,0,0,0,258,237.16Z" transform="translate(-110.16 -25.2)"/>
    <path class="cls-1" d="M263,232.47a2.09,2.09,0,0,1,.65-.7,1.49,1.49,0,0,1,.83-.25,1.68,1.68,0,0,1,1.43.71,3.71,3.71,0,0,1,.52,2.19v4h-1.76v-4a2.64,2.64,0,0,0-.18-1.17.61.61,0,0,0-.57-.33,1.12,1.12,0,0,0-.53.12,1.09,1.09,0,0,0-.38.35v5h-1.75v-9.73H263Z" transform="translate(-110.16 -25.2)"/>
    <path class="cls-1" d="M269.44,230h-1.76v-1.34h1.76Zm0,8.39h-1.76v-6.75h1.76Z" transform="translate(-110.16 -25.2)"/>
    <path class="cls-1" d="M272.31,231.66l.08.94a2.3,2.3,0,0,1,.7-.79,1.62,1.62,0,0,1,.93-.28,1.58,1.58,0,0,1,1.35.67,3.6,3.6,0,0,1,.49,2.1v4.1h-1.76v-4.1a2.28,2.28,0,0,0-.18-1.08.61.61,0,0,0-.56-.31,1,1,0,0,0-.53.14,1.18,1.18,0,0,0-.4.39v5h-1.76v-6.75Z" transform="translate(-110.16 -25.2)"/>
    <path class="cls-1" d="M279.57,238.54a2.5,2.5,0,0,1-2.07-.92,3.7,3.7,0,0,1-.74-2.38V235a4.09,4.09,0,0,1,.71-2.49,2.33,2.33,0,0,1,2-1,2.18,2.18,0,0,1,1.83.82,3.52,3.52,0,0,1,.64,2.22v1h-3.41a2.36,2.36,0,0,0,.34,1.19,1,1,0,0,0,.91.44,2.72,2.72,0,0,0,.88-.12,3.57,3.57,0,0,0,.76-.38l.46,1.1a2.9,2.9,0,0,1-1,.56A3.8,3.8,0,0,1,279.57,238.54Zm-.11-5.63a.71.71,0,0,0-.66.39,2.71,2.71,0,0,0-.27,1.07h1.67v-.16a2.17,2.17,0,0,0-.17-1A.59.59,0,0,0,279.46,232.91Z" transform="translate(-110.16 -25.2)"/>
    <path class="cls-1" d="M286.78,235.83a2.56,2.56,0,0,1,.25-1.25,4.52,4.52,0,0,1,.93-1,3,3,0,0,0,.57-.78,2.11,2.11,0,0,0,.21-1,1.58,1.58,0,0,0-.24-.93.79.79,0,0,0-.68-.34.77.77,0,0,0-.6.29,1.29,1.29,0,0,0-.26.84h-1.71v0a2.28,2.28,0,0,1,.7-1.85,2.75,2.75,0,0,1,1.88-.64,2.68,2.68,0,0,1,2,.71,2.6,2.6,0,0,1,.72,1.93,2.76,2.76,0,0,1-.4,1.45,3.94,3.94,0,0,1-1,1.13,1.45,1.45,0,0,0-.44.59,2.57,2.57,0,0,0-.11.82Zm1.75,2.58h-1.75v-1.52h1.75Z" transform="translate(-110.16 -25.2)"/>
  </g>
  <g>
    <path class="cls-1" d="M179,418.14v-9.08h2.8a3,3,0,0,1,2.35,1.06,4,4,0,0,1,.93,2.73v1.5a4,4,0,0,1-.93,2.73,3,3,0,0,1-2.35,1.06Zm1.76-7.7v6.33h1a1.25,1.25,0,0,0,1.1-.67,3.26,3.26,0,0,0,.42-1.74v-1.52a3.24,3.24,0,0,0-.42-1.73,1.25,1.25,0,0,0-1.1-.67Z" transform="translate(-110.16 -25.2)"/>
    <path class="cls-1" d="M186,414.7a4,4,0,0,1,.73-2.48,2.66,2.66,0,0,1,4.09,0,4,4,0,0,1,.74,2.48v.14a3.94,3.94,0,0,1-.73,2.47,2.68,2.68,0,0,1-4.09,0,4,4,0,0,1-.73-2.48Zm1.75.14a3.94,3.94,0,0,0,.23,1.5.81.81,0,0,0,.8.55.8.8,0,0,0,.77-.55,3.89,3.89,0,0,0,.24-1.5v-.14a3.93,3.93,0,0,0-.24-1.49.83.83,0,0,0-1.57,0,4,4,0,0,0-.23,1.49Z" transform="translate(-110.16 -25.2)"/>
    <path class="cls-1" d="M195,416.9a.65.65,0,0,0,.57-.28,1.38,1.38,0,0,0,.19-.79h1.59l0,0a2.28,2.28,0,0,1-.66,1.73,2.32,2.32,0,0,1-1.71.68,2.38,2.38,0,0,1-2-1,4,4,0,0,1-.71-2.46v-.18a4,4,0,0,1,.71-2.45,2.37,2.37,0,0,1,2-1,2.26,2.26,0,0,1,1.75.7,2.62,2.62,0,0,1,.63,1.89v0h-1.6a1.83,1.83,0,0,0-.19-.9.62.62,0,0,0-.57-.34.77.77,0,0,0-.76.56,4.23,4.23,0,0,0-.21,1.47v.18a4.23,4.23,0,0,0,.21,1.49A.77.77,0,0,0,195,416.9Z" transform="translate(-110.16 -25.2)"/>
    <path class="cls-1" d="M201.78,417.18a2.18,2.18,0,0,1-.67.81,1.58,1.58,0,0,1-.93.28,1.66,1.66,0,0,1-1.43-.73,3.92,3.92,0,0,1-.52-2.26v-3.89H200v3.91a3,3,0,0,0,.18,1.25.59.59,0,0,0,.56.35,1.18,1.18,0,0,0,.54-.12,1.08,1.08,0,0,0,.39-.34v-5h1.77v6.75H202Z" transform="translate(-110.16 -25.2)"/>
    <path class="cls-1" d="M206.2,411.39l.07.87a2.06,2.06,0,0,1,.69-.73,1.76,1.76,0,0,1,1-.26,1.53,1.53,0,0,1,.92.28,1.72,1.72,0,0,1,.59.84,2.2,2.2,0,0,1,.69-.83,1.66,1.66,0,0,1,1-.3,1.55,1.55,0,0,1,1.34.71,3.86,3.86,0,0,1,.49,2.18v4h-1.76v-4A2.66,2.66,0,0,0,211,413a.59.59,0,0,0-.56-.32.79.79,0,0,0-.49.16,1.18,1.18,0,0,0-.35.44c0,.1,0,.19,0,.27s0,.15,0,.22v4.4h-1.75v-4a2.67,2.67,0,0,0-.18-1.17.6.6,0,0,0-.56-.33.84.84,0,0,0-.46.13,1.09,1.09,0,0,0-.35.36v5h-1.76v-6.75Z" transform="translate(-110.16 -25.2)"/>
    <path class="cls-1" d="M216.68,418.27a2.5,2.5,0,0,1-2.07-.92,3.7,3.7,0,0,1-.74-2.38v-.26a4.09,4.09,0,0,1,.71-2.49,2.33,2.33,0,0,1,2-1,2.18,2.18,0,0,1,1.83.82,3.52,3.52,0,0,1,.64,2.22v1h-3.41a2.36,2.36,0,0,0,.34,1.19,1,1,0,0,0,.91.44,2.72,2.72,0,0,0,.88-.12,3.57,3.57,0,0,0,.76-.38l.46,1.1a2.9,2.9,0,0,1-1,.55A3.79,3.79,0,0,1,216.68,418.27Zm-.11-5.63a.71.71,0,0,0-.66.39,2.71,2.71,0,0,0-.27,1.07h1.67v-.16a2.17,2.17,0,0,0-.17-1A.59.59,0,0,0,216.58,412.64Z" transform="translate(-110.16 -25.2)"/>
    <path class="cls-1" d="M221.56,411.39l.08.94a2.3,2.3,0,0,1,.7-.79,1.62,1.62,0,0,1,.93-.28,1.58,1.58,0,0,1,1.35.67,3.61,3.61,0,0,1,.49,2.11v4.1h-1.76V414a2.29,2.29,0,0,0-.18-1.08.61.61,0,0,0-.56-.31,1,1,0,0,0-.53.14,1.19,1.19,0,0,0-.4.39v5h-1.76v-6.75Z" transform="translate(-110.16 -25.2)"/>
    <path class="cls-1" d="M228.29,409.71v1.68h.92v1.25h-.92v3.44a1.12,1.12,0,0,0,.13.61.39.39,0,0,0,.34.18l.21,0,.2-.05.14,1.3a3.09,3.09,0,0,1-.48.13,2.92,2.92,0,0,1-.51,0,1.66,1.66,0,0,1-1.32-.52,2.47,2.47,0,0,1-.46-1.65v-3.45h-.82v-1.25h.82v-1.68Z" transform="translate(-110.16 -25.2)"/>
    <path class="cls-1" d="M232.78,418.27a2.5,2.5,0,0,1-2.07-.92A3.7,3.7,0,0,1,230,415v-.26a4.09,4.09,0,0,1,.71-2.49,2.33,2.33,0,0,1,2-1,2.18,2.18,0,0,1,1.83.82,3.52,3.52,0,0,1,.64,2.22v1h-3.41a2.36,2.36,0,0,0,.34,1.19,1,1,0,0,0,.91.44,2.72,2.72,0,0,0,.88-.12,3.57,3.57,0,0,0,.76-.38l.46,1.1a2.9,2.9,0,0,1-1,.55A3.79,3.79,0,0,1,232.78,418.27Zm-.11-5.63a.71.71,0,0,0-.66.39,2.71,2.71,0,0,0-.27,1.07h1.67v-.16a2.17,2.17,0,0,0-.17-1A.59.59,0,0,0,232.67,412.64Z" transform="translate(-110.16 -25.2)"/>
    <path class="cls-1" d="M237.93,416.77h2.83v1.37h-4.88v-1l2.75-4.34H236v-1.38h4.74v1Z" transform="translate(-110.16 -25.2)"/>
  </g>
  <g>
    <path class="cls-1" d="M189.77,453.73V457H188v-9.08h3a2.92,2.92,0,0,1,2.16.8,3.16,3.16,0,0,1,0,4.2,2.93,2.93,0,0,1-2.16.8Zm0-1.38H191a1,1,0,0,0,.9-.42,1.79,1.79,0,0,0,.31-1.08,1.85,1.85,0,0,0-.31-1.1,1,1,0,0,0-.9-.43h-1.28Z" transform="translate(-110.16 -25.2)"/>
    <path class="cls-1" d="M198.32,457a3,3,0,0,1-.17-.49,4.2,4.2,0,0,1-.1-.54,2.39,2.39,0,0,1-.59.83,1.3,1.3,0,0,1-.9.32,1.83,1.83,0,0,1-1.42-.54,2.11,2.11,0,0,1-.5-1.48,1.89,1.89,0,0,1,.65-1.53,3,3,0,0,1,1.95-.54H198v-.56a1.36,1.36,0,0,0-.19-.78.63.63,0,0,0-.56-.27.58.58,0,0,0-.49.22,1,1,0,0,0-.17.62h-1.7v0a1.8,1.8,0,0,1,.65-1.48,2.66,2.66,0,0,1,1.83-.61,2.45,2.45,0,0,1,1.73.61,2.26,2.26,0,0,1,.66,1.75v2.77a5.6,5.6,0,0,0,.07.9,5.29,5.29,0,0,0,.21.85ZM197,455.84a1,1,0,0,0,.62-.21,1.08,1.08,0,0,0,.37-.52V454h-.77a.74.74,0,0,0-.65.29,1.22,1.22,0,0,0-.2.72.9.9,0,0,0,.17.57A.54.54,0,0,0,197,455.84Z" transform="translate(-110.16 -25.2)"/>
    <path class="cls-1" d="M204.07,451.79l-.6,0a.77.77,0,0,0-.49.16,1,1,0,0,0-.3.44V457h-1.75v-6.75h1.64l.07,1a2.08,2.08,0,0,1,.5-.79,1,1,0,0,1,.7-.28l.22,0,.21.05Z" transform="translate(-110.16 -25.2)"/>
    <path class="cls-1" d="M207.06,448.59v1.68H208v1.25h-.92V455a1.11,1.11,0,0,0,.13.61.39.39,0,0,0,.34.18l.21,0,.2-.05.14,1.3a3,3,0,0,1-.48.13,2.92,2.92,0,0,1-.51,0,1.66,1.66,0,0,1-1.32-.52,2.47,2.47,0,0,1-.46-1.65v-3.45h-.82v-1.25h.82v-1.68Z" transform="translate(-110.16 -25.2)"/>
    <path class="cls-1" d="M212.33,457a3.16,3.16,0,0,1-.17-.49,4,4,0,0,1-.1-.54,2.39,2.39,0,0,1-.59.83,1.3,1.3,0,0,1-.89.32,1.83,1.83,0,0,1-1.42-.54,2.11,2.11,0,0,1-.5-1.48,1.89,1.89,0,0,1,.65-1.53,3,3,0,0,1,1.95-.54H212v-.56a1.36,1.36,0,0,0-.19-.78.63.63,0,0,0-.55-.27.58.58,0,0,0-.49.22,1,1,0,0,0-.17.62h-1.7v0a1.8,1.8,0,0,1,.65-1.48,2.66,2.66,0,0,1,1.83-.61,2.45,2.45,0,0,1,1.73.61,2.26,2.26,0,0,1,.66,1.75v2.77a5.49,5.49,0,0,0,.07.9,5.18,5.18,0,0,0,.21.85ZM211,455.84a1,1,0,0,0,.62-.21,1.08,1.08,0,0,0,.38-.52V454h-.77a.74.74,0,0,0-.65.29,1.22,1.22,0,0,0-.2.72.9.9,0,0,0,.17.57A.54.54,0,0,0,211,455.84Z" transform="translate(-110.16 -25.2)"/>
    <path class="cls-1" d="M214.7,453.68a4.88,4.88,0,0,1,.59-2.56,1.86,1.86,0,0,1,1.68-1,1.45,1.45,0,0,1,.82.23,2.07,2.07,0,0,1,.61.66l.12-.77h1.53V457a2.66,2.66,0,0,1-.77,2,3,3,0,0,1-2.14.72,3.54,3.54,0,0,1-.95-.14,4.38,4.38,0,0,1-.93-.37l.29-1.33a3.48,3.48,0,0,0,.75.3,3.19,3.19,0,0,0,.82.1A1.1,1.1,0,0,0,218,458a1.48,1.48,0,0,0,.28-1v-.5a1.79,1.79,0,0,1-.58.5,1.58,1.58,0,0,1-.75.17,1.88,1.88,0,0,1-1.67-.91,4.39,4.39,0,0,1-.59-2.42Zm1.76.13a3.81,3.81,0,0,0,.22,1.44.76.76,0,0,0,.74.52,1,1,0,0,0,.51-.12,1,1,0,0,0,.35-.36v-3.19a1.14,1.14,0,0,0-.36-.42.87.87,0,0,0-.5-.15.78.78,0,0,0-.74.59,4.43,4.43,0,0,0-.23,1.56Z" transform="translate(-110.16 -25.2)"/>
    <path class="cls-1" d="M223.8,457.15a2.5,2.5,0,0,1-2.07-.92,3.7,3.7,0,0,1-.74-2.38v-.26a4.09,4.09,0,0,1,.71-2.49,2.33,2.33,0,0,1,2-1,2.18,2.18,0,0,1,1.83.82,3.52,3.52,0,0,1,.64,2.22v1h-3.41a2.35,2.35,0,0,0,.34,1.19,1,1,0,0,0,.91.44,2.72,2.72,0,0,0,.88-.12,3.57,3.57,0,0,0,.76-.38l.46,1.1a2.9,2.9,0,0,1-1,.56A3.81,3.81,0,0,1,223.8,457.15Zm-.11-5.63a.71.71,0,0,0-.66.39,2.7,2.7,0,0,0-.27,1.07h1.67v-.16a2.17,2.17,0,0,0-.17-1A.59.59,0,0,0,223.7,451.52Z" transform="translate(-110.16 -25.2)"/>
    <path class="cls-1" d="M229,455.65h2.83V457H226.9v-1l2.75-4.34H227v-1.38h4.74v1Z" transform="translate(-110.16 -25.2)"/>
  </g>
  <g>
    <line class="cls-2" x1="99.6" y1="36.03" x2="99.6" y2="36.03"/>
    <line class="cls-3" x1="99.59" y1="39.89" x2="99.57" y2="53.39"/>
    <line class="cls-2" x1="99.56" y1="55.31" x2="99.56" y2="55.31"/>
  </g>
  <g>
    <g>
      <line class="cls-2" x1="99.56" y1="77.42" x2="99.56" y2="77.42"/>
      <line class="cls-4" x1="99.57" y1="81.6" x2="99.6" y2="96.22"/>
      <line class="cls-2" x1="99.6" y1="98.31" x2="99.6" y2="98.31"/>
      <line class="cls-5" x1="95.59" y1="98.31" x2="49.41" y2="98.31"/>
      <line class="cls-2" x1="47.4" y1="98.31" x2="47.4" y2="98.31"/>
      <line class="cls-6" x1="47.4" y1="101.97" x2="47.4" y2="111.12"/>
      <line class="cls-2" x1="47.4" y1="112.95" x2="47.4" y2="112.95"/>
    </g>
    <g>
      <line class="cls-2" x1="99.6" y1="98.31" x2="99.6" y2="98.31"/>
      <line class="cls-7" x1="103.63" y1="98.31" x2="149.96" y2="98.31"/>
      <line class="cls-2" x1="151.97" y1="98.31" x2="151.97" y2="98.31"/>
      <line class="cls-8" x1="151.97" y1="102.13" x2="151.97" y2="123.16"/>
      <line class="cls-2" x1="151.97" y1="125.07" x2="151.97" y2="125.07"/>
    </g>
  </g>
  <line class="cls-9" x1="47.4" y1="129.01" x2="47.4" y2="139.66"/>
  <g>
    <g>
      <line class="cls-2" x1="99.56" y1="196.63" x2="99.56" y2="196.63"/>
      <line class="cls-10" x1="99.57" y1="192.36" x2="99.6" y2="177.4"/>
      <line class="cls-2" x1="99.6" y1="175.27" x2="99.6" y2="175.27"/>
      <line class="cls-5" x1="95.59" y1="175.27" x2="49.41" y2="175.27"/>
      <line class="cls-2" x1="47.4" y1="175.27" x2="47.4" y2="175.27"/>
      <line class="cls-6" x1="47.4" y1="171.61" x2="47.4" y2="162.46"/>
      <line class="cls-2" x1="47.4" y1="160.63" x2="47.4" y2="160.63"/>
    </g>
    <g>
      <line class="cls-2" x1="99.6" y1="175.27" x2="99.6" y2="175.27"/>
      <line class="cls-11" x1="103.63" y1="175.27" x2="149.96" y2="175.27"/>
      <line class="cls-2" x1="151.97" y1="175.27" x2="151.97" y2="175.27"/>
      <line class="cls-12" x1="151.97" y1="171.03" x2="151.97" y2="147.76"/>
      <line class="cls-2" x1="151.97" y1="145.64" x2="151.97" y2="145.64"/>
    </g>
  </g>
  <g>
    <g>
      <line class="cls-2" x1="99.6" y1="219.69" x2="99.6" y2="219.69"/>
      <line class="cls-13" x1="99.6" y1="223.31" x2="99.6" y2="235.99"/>
      <line class="cls-2" x1="99.6" y1="237.8" x2="99.6" y2="237.8"/>
      <line class="cls-5" x1="95.59" y1="237.8" x2="49.41" y2="237.8"/>
      <line class="cls-2" x1="47.4" y1="237.8" x2="47.4" y2="237.8"/>
      <line class="cls-6" x1="47.4" y1="241.45" x2="47.4" y2="250.6"/>
      <line class="cls-2" x1="47.4" y1="252.43" x2="47.4" y2="252.43"/>
    </g>
    <g>
      <line class="cls-2" x1="99.6" y1="237.8" x2="99.6" y2="237.8"/>
      <line class="cls-14" x1="103.65" y1="237.83" x2="150.2" y2="238.26"/>
      <line class="cls-2" x1="152.22" y1="238.27" x2="152.22" y2="238.27"/>
      <line class="cls-8" x1="152.22" y1="242.1" x2="152.22" y2="263.13"/>
      <line class="cls-2" x1="152.22" y1="265.04" x2="152.22" y2="265.04"/>
    </g>
  </g>
  <line class="cls-9" x1="47.4" y1="268.62" x2="47.4" y2="279.27"/>
  <line class="cls-9" x1="99.56" y1="368.35" x2="99.56" y2="383.89"/>
  <line class="cls-9" x1="99.56" y1="398.82" x2="99.56" y2="422.18"/>
  <g>
    <g>
      <line class="cls-2" x1="99.56" y1="332.47" x2="99.56" y2="332.47"/>
      <line class="cls-15" x1="99.57" y1="328.18" x2="99.6" y2="317.46"/>
      <line class="cls-2" x1="99.6" y1="315.32" x2="99.6" y2="315.32"/>
      <line class="cls-5" x1="95.59" y1="315.32" x2="49.41" y2="315.32"/>
      <line class="cls-2" x1="47.4" y1="315.32" x2="47.4" y2="315.32"/>
      <line class="cls-6" x1="47.4" y1="311.66" x2="47.4" y2="302.51"/>
      <line class="cls-2" x1="47.4" y1="300.68" x2="47.4" y2="300.68"/>
    </g>
    <g>
      <line class="cls-2" x1="99.6" y1="315.32" x2="99.6" y2="315.32"/>
      <line class="cls-16" x1="103.65" y1="315.32" x2="150.2" y2="315.32"/>
      <line class="cls-2" x1="152.22" y1="315.32" x2="152.22" y2="315.32"/>
      <line class="cls-17" x1="152.22" y1="311.46" x2="152.22" y2="282.52"/>
      <line class="cls-2" x1="152.22" y1="280.59" x2="152.22" y2="280.59"/>
    </g>
  </g>
  <g>
    <path id="path1334" class="cls-18" d="M115.76,307.4a5.81,5.81,0,1,0,.15,0Zm0,1h.15a4.68,4.68,0,1,1-.15,0Z" transform="translate(-110.16 -25.2)"/>
    <path id="text1367" class="cls-18" d="M114.76,314.35a1.81,1.81,0,0,0,1.88.34c.14-.08.18-.31.18-.47a.36.36,0,0,0-.09-.26.94.94,0,0,0-.39-.27,5,5,0,0,1-1.77-.73.93.93,0,0,1-.35-.89,1.45,1.45,0,0,1,.43-1.12,1.84,1.84,0,0,1,1.3-.41,2.31,2.31,0,0,1,1.67.58l-.62.67a1.35,1.35,0,0,0-1-.32.87.87,0,0,0-.52.12.34.34,0,0,0-.17.29.32.32,0,0,0,.16.27,3.57,3.57,0,0,0,.92.33,2.67,2.67,0,0,1,1.24.61,1.37,1.37,0,0,1,.32,1,1.53,1.53,0,0,1-.5,1.18,1.87,1.87,0,0,1-1.33.55A2.62,2.62,0,0,1,114,315" transform="translate(-110.16 -25.2)"/>
    <path id="rect2278" class="cls-18" d="M115.61,309.71v1.23h.58v-1.23Zm0,5.76v1.1h.58v-1.1Z" transform="translate(-110.16 -25.2)"/>
  </g>
  <g>
    <path class="cls-1" d="M191.1,370.62v3.64h-1.76v-9.08h2.72a3.05,3.05,0,0,1,2.13.71,2.52,2.52,0,0,1,.78,2,2.24,2.24,0,0,1-.33,1.22,2.29,2.29,0,0,1-.94.82,1.76,1.76,0,0,1,1,.79,2.75,2.75,0,0,1,.31,1.37v.66a3.88,3.88,0,0,0,.09.8,1.07,1.07,0,0,0,.31.61v.13H193.6a1,1,0,0,1-.28-.65,6.93,6.93,0,0,1-.06-.9v-.64A1.75,1.75,0,0,0,193,371a1,1,0,0,0-.82-.38Zm0-1.37H192a1.09,1.09,0,0,0,.86-.34,1.42,1.42,0,0,0,.3-1,1.6,1.6,0,0,0-.29-1,1,1,0,0,0-.85-.37h-1Z" transform="translate(-110.16 -25.2)"/>
    <path class="cls-1" d="M198.86,374.39a2.5,2.5,0,0,1-2.07-.92,3.69,3.69,0,0,1-.74-2.38v-.26a4.09,4.09,0,0,1,.71-2.49,2.33,2.33,0,0,1,2-1,2.18,2.18,0,0,1,1.83.82,3.52,3.52,0,0,1,.64,2.22v1h-3.41a2.38,2.38,0,0,0,.34,1.19,1,1,0,0,0,.91.44,2.72,2.72,0,0,0,.88-.12,3.56,3.56,0,0,0,.76-.38l.46,1.1a2.9,2.9,0,0,1-1,.55A3.8,3.8,0,0,1,198.86,374.39Zm0-9.77h2l0,0-1.57,1.62h-1.52Zm-.12,4.14a.7.7,0,0,0-.66.39,2.71,2.71,0,0,0-.27,1.07h1.67v-.16a2.19,2.19,0,0,0-.17-1A.59.59,0,0,0,198.75,368.77Z" transform="translate(-110.16 -25.2)"/>
    <path class="cls-1" d="M205.49,374.26a3,3,0,0,1-.17-.49,4.22,4.22,0,0,1-.1-.54,2.38,2.38,0,0,1-.59.83,1.3,1.3,0,0,1-.9.32,1.83,1.83,0,0,1-1.42-.54,2.11,2.11,0,0,1-.5-1.48,1.89,1.89,0,0,1,.65-1.53,3,3,0,0,1,1.95-.55h.77v-.56A1.36,1.36,0,0,0,205,369a.63.63,0,0,0-.56-.27.58.58,0,0,0-.49.22,1,1,0,0,0-.17.62h-1.7v0a1.8,1.8,0,0,1,.65-1.48,2.66,2.66,0,0,1,1.83-.61,2.44,2.44,0,0,1,1.73.61,2.26,2.26,0,0,1,.66,1.75v2.77a5.61,5.61,0,0,0,.07.9,5.28,5.28,0,0,0,.21.85Zm-1.29-1.17a1,1,0,0,0,.62-.21,1.08,1.08,0,0,0,.37-.52v-1.06h-.77a.74.74,0,0,0-.65.29,1.22,1.22,0,0,0-.2.72.9.9,0,0,0,.17.57A.54.54,0,0,0,204.2,373.09Z" transform="translate(-110.16 -25.2)"/>
    <path class="cls-1" d="M209.93,374.26h-1.76v-9.73h1.76Z" transform="translate(-110.16 -25.2)"/>
    <path class="cls-1" d="M213,365.87h-1.76v-1.34H213Zm0,8.39h-1.76v-6.75H213Z" transform="translate(-110.16 -25.2)"/>
    <path class="cls-1" d="M217.29,372.5a.67.67,0,0,0-.23-.51,3.82,3.82,0,0,0-.89-.52,4.71,4.71,0,0,1-1.55-.87,1.6,1.6,0,0,1-.52-1.23,1.8,1.8,0,0,1,.66-1.4,2.54,2.54,0,0,1,1.74-.58,2.62,2.62,0,0,1,1.81.6,1.85,1.85,0,0,1,.65,1.52v0h-1.7a1.15,1.15,0,0,0-.19-.68.66.66,0,0,0-.57-.26.72.72,0,0,0-.51.2.65.65,0,0,0-.21.49.62.62,0,0,0,.21.48,4.31,4.31,0,0,0,.9.51,4.38,4.38,0,0,1,1.59.86,1.7,1.7,0,0,1,.52,1.29,1.72,1.72,0,0,1-.69,1.41,2.83,2.83,0,0,1-1.82.55,2.55,2.55,0,0,1-1.86-.67,2,2,0,0,1-.66-1.53l0,0h1.6a1.1,1.1,0,0,0,.26.79,1,1,0,0,0,.69.24.8.8,0,0,0,.57-.18A.65.65,0,0,0,217.29,372.5Z" transform="translate(-110.16 -25.2)"/>
    <path class="cls-1" d="M222.48,374.39a2.5,2.5,0,0,1-2.07-.92,3.7,3.7,0,0,1-.74-2.38v-.26a4.09,4.09,0,0,1,.71-2.49,2.33,2.33,0,0,1,2-1,2.18,2.18,0,0,1,1.83.82,3.52,3.52,0,0,1,.64,2.22v1h-3.41a2.36,2.36,0,0,0,.34,1.19,1,1,0,0,0,.91.44,2.72,2.72,0,0,0,.88-.12,3.57,3.57,0,0,0,.76-.38l.46,1.1a2.9,2.9,0,0,1-1,.55A3.79,3.79,0,0,1,222.48,374.39Zm-.11-5.63a.71.71,0,0,0-.66.39,2.71,2.71,0,0,0-.27,1.07h1.67v-.16a2.17,2.17,0,0,0-.17-1A.59.59,0,0,0,222.37,368.77Z" transform="translate(-110.16 -25.2)"/>
    <path class="cls-1" d="M227.63,372.89h2.83v1.37h-4.88v-1l2.75-4.34h-2.67v-1.38h4.74v1Z" transform="translate(-110.16 -25.2)"/>
  </g>
  <g>
    <path id="path1334-2" data-name="path1334" class="cls-18" d="M209.62,377.83a5.81,5.81,0,1,0,.15,0Zm0,1h.15a4.68,4.68,0,1,1-.15,0Z" transform="translate(-110.16 -25.2)"/>
    <path id="text1367-2" data-name="text1367" class="cls-18" d="M208.63,384.77a1.81,1.81,0,0,0,1.88.34c.14-.08.18-.31.18-.47a.36.36,0,0,0-.09-.26.94.94,0,0,0-.39-.27,5,5,0,0,1-1.77-.73.93.93,0,0,1-.35-.89,1.45,1.45,0,0,1,.43-1.12,1.84,1.84,0,0,1,1.3-.41,2.31,2.31,0,0,1,1.67.58l-.62.67a1.35,1.35,0,0,0-1-.32.87.87,0,0,0-.52.12.34.34,0,0,0-.17.29.32.32,0,0,0,.16.27,3.57,3.57,0,0,0,.92.33,2.67,2.67,0,0,1,1.24.61,1.37,1.37,0,0,1,.32,1,1.53,1.53,0,0,1-.5,1.18,1.87,1.87,0,0,1-1.33.55,2.62,2.62,0,0,1-2.05-.76" transform="translate(-110.16 -25.2)"/>
    <path id="rect2278-2" data-name="rect2278" class="cls-18" d="M209.47,380.14v1.23h.58v-1.23Zm0,5.76V387h.58v-1.1Z" transform="translate(-110.16 -25.2)"/>
  </g>
  <g>
    <path class="cls-19" d="M201.62,490.23a1.94,1.94,0,0,0-1.83-1,2,2,0,0,0-2,2.14,2,2,0,0,0,2.06,2.14,2.07,2.07,0,0,0,1.81-1.08l-.86-.44a.84.84,0,0,1-.85.6c-.64,0-.93-.53-.93-1.23s.25-1.23.93-1.23a.88.88,0,0,1,.77.56Z" transform="translate(-110.16 -25.2)"/>
    <path class="cls-19" d="M203.81,490.15c.68,0,1,.53,1,1.18s-.29,1.27-1,1.27-1-.53-1-1.23S203.13,490.15,203.81,490.15Zm0-.92a2.14,2.14,0,1,0,2.17,2.14A2,2,0,0,0,203.81,489.24Z" transform="translate(-110.16 -25.2)"/>
    <path class="cls-19" d="M206.22,493.42h1.19v-2.53c0-.37.15-.68.64-.68s.58.27.58.67v2.55h1.19v-2.5c0-.41.21-.71.61-.71s.61.26.61.83v2.38h1.19v-3.11a1.11,1.11,0,0,0-1.26-1.07,1.75,1.75,0,0,0-1.31.54,1.26,1.26,0,0,0-1.08-.54,1.57,1.57,0,0,0-1.18.47v-.36h-1.19Z" transform="translate(-110.16 -25.2)"/>
    <path class="cls-19" d="M212.62,493.42h1.19v-2.53c0-.37.15-.68.64-.68s.58.27.58.67v2.55h1.19v-2.5c0-.41.21-.71.6-.71s.61.26.61.83v2.38h1.19v-3.11a1.11,1.11,0,0,0-1.26-1.07,1.75,1.75,0,0,0-1.31.54,1.26,1.26,0,0,0-1.08-.54,1.57,1.57,0,0,0-1.18.47v-.36h-1.19Z" transform="translate(-110.16 -25.2)"/>
    <path class="cls-19" d="M221.05,490.15c.68,0,1,.53,1,1.18s-.29,1.27-1,1.27-1-.53-1-1.23S220.37,490.15,221.05,490.15Zm0-.92a2.14,2.14,0,1,0,2.17,2.14A2,2,0,0,0,221.05,489.24Z" transform="translate(-110.16 -25.2)"/>
    <path class="cls-19" d="M223.54,493.42h1.19v-2.53c0-.37.15-.68.64-.68s.58.27.58.67v2.55h1.19v-3c0-.61-.27-1.17-1.23-1.17a1.57,1.57,0,0,0-1.18.47v-.36h-1.19Z" transform="translate(-110.16 -25.2)"/>
    <path class="cls-19" d="M231.14,489.83a3.27,3.27,0,0,0-1.8-.59c-.83,0-1.72.4-1.72,1.42,0,1.45,2.41.94,2.41,1.58,0,.37-.45.41-.65.41a1.76,1.76,0,0,1-1.29-.57l-.74.64a2.59,2.59,0,0,0,2,.8c.89,0,1.84-.38,1.84-1.46,0-1.52-2.41-.95-2.41-1.65,0-.21.21-.31.51-.31a1.61,1.61,0,0,1,1.13.44Z" transform="translate(-110.16 -25.2)"/>
    <path class="cls-19" d="M201.62,485.54a1.94,1.94,0,0,0-1.83-1,2,2,0,0,0-2,2.14,2,2,0,0,0,2.06,2.14,2.07,2.07,0,0,0,1.81-1.08l-.86-.44a.84.84,0,0,1-.85.6c-.64,0-.93-.53-.93-1.23s.25-1.23.93-1.23a.88.88,0,0,1,.77.56Z" transform="translate(-110.16 -25.2)"/>
    <path class="cls-19" d="M201.91,488.73h1.19v-2.36c0-.45.28-.57,1-.66l.13,0v-1.06a1.9,1.9,0,0,0-1.12.43v-.41h-1.19Z" transform="translate(-110.16 -25.2)"/>
    <path class="cls-19" d="M208.29,486.94c0-1.26-.51-2.39-2-2.39-1.24,0-2,.83-2,2.27a1.9,1.9,0,0,0,2,2,2.06,2.06,0,0,0,2-1.13l-.9-.47c-.34.49-.55.72-1,.72a.9.9,0,0,1-.89-1Zm-2.82-.74a.82.82,0,0,1,.81-.78.77.77,0,0,1,.81.78Z" transform="translate(-110.16 -25.2)"/>
    <path class="cls-19" d="M211,487c0,.62-.35.93-.82.93-.29,0-.56-.14-.56-.46s.28-.44.57-.53l.8-.23Zm1.15-1.3c0-.92-.7-1.18-1.81-1.18-.55,0-1.64.11-1.68,1.28h1.15a.54.54,0,0,1,.63-.54c.32,0,.57.13.57.44v.34l-.44.06c-1.3.18-2.09.53-2.09,1.51a1.21,1.21,0,0,0,1.36,1.21,1.61,1.61,0,0,0,1.23-.53h0a1.63,1.63,0,0,0,.08.42h1.1a2.4,2.4,0,0,1-.11-.85Z" transform="translate(-110.16 -25.2)"/>
    <path class="cls-19" d="M215,484.73h-.71v-1.18h-1.19v1.18h-.58v.74h.58v2.14c0,.59.15,1.23,1.16,1.23.26,0,.61,0,.77,0v-.94l-.36,0c-.21,0-.38-.08-.38-.41v-2H215Z" transform="translate(-110.16 -25.2)"/>
    <path class="cls-19" d="M215.44,484.66v4.07h1.19v-4.07Zm1.19-.46v-.92h-1.19v.92Z" transform="translate(-110.16 -25.2)"/>
    <polygon class="cls-19" points="108.08 463.53 109.28 463.53 110.67 459.45 109.4 459.45 108.7 462.33 108.68 462.33 107.98 459.45 106.7 459.45 108.08 463.53"/>
    <path class="cls-19" d="M224.7,486.94c0-1.26-.51-2.39-2-2.39-1.24,0-2,.83-2,2.27a1.9,1.9,0,0,0,2,2,2.06,2.06,0,0,0,2-1.13l-.9-.47c-.34.49-.55.72-1,.72a.9.9,0,0,1-.89-1Zm-2.82-.74a.82.82,0,0,1,.81-.78.77.77,0,0,1,.81.78Z" transform="translate(-110.16 -25.2)"/>
    <g>
      <path class="cls-19" d="M192.75,484.48a4.31,4.31,0,0,0-3.15,1.3,4.52,4.52,0,0,0-1.33,3.18,4.51,4.51,0,0,0,4.47,4.49,4.56,4.56,0,0,0,3.21-1.34,4.32,4.32,0,0,0,1.28-3.15,4.45,4.45,0,0,0-4.49-4.49Zm0,.81a3.65,3.65,0,0,1,3.66,3.68,3.5,3.5,0,0,1-1,2.57,3.73,3.73,0,0,1-2.62,1.09,3.71,3.71,0,0,1-3.68-3.66,3.71,3.71,0,0,1,1.09-2.61A3.53,3.53,0,0,1,192.76,485.29Z" transform="translate(-110.16 -25.2)"/>
      <path class="cls-19" d="M192.7,488.22a1.26,1.26,0,0,0-1.19-.65A1.29,1.29,0,0,0,190.2,489a1.27,1.27,0,0,0,1.34,1.39,1.35,1.35,0,0,0,1.18-.7l-.56-.28a.54.54,0,0,1-.55.39c-.41,0-.6-.34-.6-.8s.16-.8.6-.8a.57.57,0,0,1,.5.36Z" transform="translate(-110.16 -25.2)"/>
      <path class="cls-19" d="M195.29,488.22a1.26,1.26,0,0,0-1.19-.65,1.29,1.29,0,0,0-1.31,1.39,1.27,1.27,0,0,0,1.34,1.39,1.35,1.35,0,0,0,1.18-.7l-.56-.28a.54.54,0,0,1-.55.39c-.41,0-.6-.34-.6-.8s.16-.8.6-.8a.57.57,0,0,1,.5.36Z" transform="translate(-110.16 -25.2)"/>
    </g>
  </g>
  <g>
    <path class="cls-1" d="M195.33,477.68a.5.5,0,0,0-.17-.4,1.72,1.72,0,0,0-.6-.28,3.42,3.42,0,0,1-1.12-.52,1,1,0,0,1-.38-.82,1,1,0,0,1,.43-.86,2,2,0,0,1,2.24,0,1.12,1.12,0,0,1,.42.94v0h-.83a.62.62,0,0,0-.19-.49.79.79,0,0,0-.54-.17.72.72,0,0,0-.49.15.5.5,0,0,0-.17.39.42.42,0,0,0,.19.36,2.47,2.47,0,0,0,.65.29,2.8,2.8,0,0,1,1.07.52,1.07,1.07,0,0,1,.37.85,1,1,0,0,1-.43.86,1.86,1.86,0,0,1-1.13.32,2,2,0,0,1-1.18-.34,1.13,1.13,0,0,1-.48-1v0h.83a.67.67,0,0,0,.22.56.94.94,0,0,0,.6.18.82.82,0,0,0,.52-.14A.47.47,0,0,0,195.33,477.68Z" transform="translate(-110.16 -25.2)"/>
    <path class="cls-1" d="M196.62,477.18A1.7,1.7,0,0,1,197,476a1.37,1.37,0,0,1,1.1-.45,1.39,1.39,0,0,1,1.1.45,1.69,1.69,0,0,1,.4,1.16v.06a1.7,1.7,0,0,1-.4,1.16,1.57,1.57,0,0,1-2.2,0,1.69,1.69,0,0,1-.4-1.16Zm.85.06a1.37,1.37,0,0,0,.15.7.52.52,0,0,0,.49.26.52.52,0,0,0,.48-.26,1.36,1.36,0,0,0,.15-.69v-.06a1.36,1.36,0,0,0-.15-.69.53.53,0,0,0-.49-.27.52.52,0,0,0-.48.27,1.35,1.35,0,0,0-.15.69Z" transform="translate(-110.16 -25.2)"/>
    <path class="cls-1" d="M202.08,478.32a1.08,1.08,0,0,1-.37.39,1,1,0,0,1-.52.14,1,1,0,0,1-.78-.34,1.63,1.63,0,0,1-.28-1.05v-1.84H201v1.84a1,1,0,0,0,.11.57.4.4,0,0,0,.35.15.84.84,0,0,0,.35-.07.58.58,0,0,0,.24-.19v-2.31h.86v3.17h-.71Z" transform="translate(-110.16 -25.2)"/>
    <path class="cls-1" d="M205.24,477.91a.3.3,0,0,0-.14-.24,1.41,1.41,0,0,0-.51-.18,2,2,0,0,1-.85-.34.74.74,0,0,1-.29-.61.87.87,0,0,1,.35-.69,1.39,1.39,0,0,1,.92-.29,1.5,1.5,0,0,1,1,.29.84.84,0,0,1,.35.71v0h-.83a.41.41,0,0,0-.12-.31.58.58,0,0,0-.68,0,.32.32,0,0,0-.12.25.28.28,0,0,0,.12.24,1.37,1.37,0,0,0,.51.17,2.08,2.08,0,0,1,.87.34.76.76,0,0,1,.29.63.84.84,0,0,1-.37.7,1.58,1.58,0,0,1-1,.27,1.47,1.47,0,0,1-1-.32.89.89,0,0,1-.35-.73v0h.78a.44.44,0,0,0,.17.37.69.69,0,0,0,.41.11.59.59,0,0,0,.36-.09A.31.31,0,0,0,205.24,477.91Z" transform="translate(-110.16 -25.2)"/>
    <path class="cls-1" d="M209,478.79h-.86v-4.57H209Z" transform="translate(-110.16 -25.2)"/>
    <path class="cls-1" d="M210.62,474.86h-.86v-.64h.86Zm0,3.93h-.86v-3.17h.86Z" transform="translate(-110.16 -25.2)"/>
    <path class="cls-1" d="M212.64,478.2a.47.47,0,0,0,.35-.13.48.48,0,0,0,.13-.36h.78v0a1,1,0,0,1-.36.8,1.5,1.5,0,0,1-2-.13,1.71,1.71,0,0,1-.38-1.15v-.09a1.71,1.71,0,0,1,.38-1.15,1.33,1.33,0,0,1,1.08-.45,1.31,1.31,0,0,1,.93.33,1.12,1.12,0,0,1,.34.88v0h-.78a.63.63,0,0,0-.13-.41.43.43,0,0,0-.36-.16.49.49,0,0,0-.47.26,1.46,1.46,0,0,0-.14.68v.09a1.45,1.45,0,0,0,.14.68A.5.5,0,0,0,212.64,478.2Z" transform="translate(-110.16 -25.2)"/>
    <path class="cls-1" d="M215.79,478.85a1.43,1.43,0,0,1-1.11-.43,1.6,1.6,0,0,1-.4-1.12v-.12a1.74,1.74,0,0,1,.39-1.17,1.31,1.31,0,0,1,1.06-.45,1.24,1.24,0,0,1,1,.39,1.55,1.55,0,0,1,.34,1.05v.44h-1.89v0a.85.85,0,0,0,.2.53.66.66,0,0,0,.53.2,1.77,1.77,0,0,0,.49-.06,2,2,0,0,0,.41-.18l.23.53a1.59,1.59,0,0,1-.52.26A2.29,2.29,0,0,1,215.79,478.85Zm-.06-2.63a.48.48,0,0,0-.4.18.89.89,0,0,0-.17.47h1v-.06a.74.74,0,0,0-.11-.44A.42.42,0,0,0,215.73,476.22Z" transform="translate(-110.16 -25.2)"/>
    <path class="cls-1" d="M218.33,475.62l0,.45a1.16,1.16,0,0,1,.39-.38,1,1,0,0,1,.52-.13,1,1,0,0,1,.75.31,1.47,1.47,0,0,1,.27,1v1.94h-.86v-1.94a.77.77,0,0,0-.12-.48.44.44,0,0,0-.36-.14.76.76,0,0,0-.33.07.66.66,0,0,0-.24.2v2.29h-.86v-3.17Z" transform="translate(-110.16 -25.2)"/>
    <path class="cls-1" d="M222.26,478.2a.47.47,0,0,0,.35-.13.48.48,0,0,0,.13-.36h.78v0a1,1,0,0,1-.36.8,1.5,1.5,0,0,1-2-.13,1.71,1.71,0,0,1-.38-1.15v-.09a1.71,1.71,0,0,1,.38-1.15,1.33,1.33,0,0,1,1.08-.45,1.31,1.31,0,0,1,.93.33,1.12,1.12,0,0,1,.34.88v0h-.78a.63.63,0,0,0-.13-.41.43.43,0,0,0-.36-.16.49.49,0,0,0-.47.26,1.46,1.46,0,0,0-.14.68v.09a1.45,1.45,0,0,0,.14.68A.5.5,0,0,0,222.26,478.2Z" transform="translate(-110.16 -25.2)"/>
    <path class="cls-1" d="M225.41,478.85a1.43,1.43,0,0,1-1.11-.43,1.6,1.6,0,0,1-.4-1.12v-.12a1.74,1.74,0,0,1,.39-1.17,1.31,1.31,0,0,1,1.06-.45,1.24,1.24,0,0,1,1,.39,1.55,1.55,0,0,1,.34,1.05v.44h-1.89v0a.85.85,0,0,0,.2.53.66.66,0,0,0,.53.2,1.77,1.77,0,0,0,.49-.06,2,2,0,0,0,.41-.18l.23.53a1.59,1.59,0,0,1-.52.26A2.29,2.29,0,0,1,225.41,478.85Zm-.06-2.63a.48.48,0,0,0-.4.18.89.89,0,0,0-.17.47h1v-.06a.74.74,0,0,0-.11-.44A.42.42,0,0,0,225.35,476.22Z" transform="translate(-110.16 -25.2)"/>
  </g>
  <circle id="circle128" class="cls-20" cx="73.32" cy="480.81" r="6.62"/>
  <g id="g130">
    <path id="path132" class="cls-1" d="M185.4,504.1a.46.46,0,0,0-.46-.46H182a.46.46,0,0,0-.46.46V507h.82v3.46h2.22V507h.82V504.1Z" transform="translate(-110.16 -25.2)"/>
    <circle id="circle134" class="cls-1" cx="73.31" cy="477.05" r="1"/>
  </g>
  <path id="path136" class="cls-1" d="M183.46,498.72a6.81,6.81,0,0,0-5,2.07,7,7,0,0,0-2.11,5.07,7.2,7.2,0,0,0,7.14,7.15,7.06,7.06,0,0,0,5.12-2.13,6.78,6.78,0,0,0,2-5,7.08,7.08,0,0,0-7.15-7.14Zm0,1.29a5.86,5.86,0,0,1,5.85,5.86,5.45,5.45,0,0,1-1.68,4.09,5.73,5.73,0,0,1-4.17,1.75,5.82,5.82,0,0,1-4.11-10A5.54,5.54,0,0,1,183.48,500Z" transform="translate(-110.16 -25.2)"/>
  <g id="g138" class="cls-21">
    <path id="path140" class="cls-1" d="M181.65,514.79a2.56,2.56,0,0,1,.53.05,1.15,1.15,0,0,1,.41.17.79.79,0,0,1,.27.31,1.1,1.1,0,0,1,.09.48.89.89,0,0,1-.14.51,1,1,0,0,1-.42.34,1,1,0,0,1,.57.38,1.25,1.25,0,0,1,.07,1.19,1,1,0,0,1-.32.37,1.42,1.42,0,0,1-.46.21,2.08,2.08,0,0,1-.54.07h-2v-4.08h1.92Zm-.11,1.65a.65.65,0,0,0,.39-.11.43.43,0,0,0,.15-.37.47.47,0,0,0-.05-.23.39.39,0,0,0-.14-.14.58.58,0,0,0-.2-.07l-.23,0h-.84v1Zm.05,1.73.25,0a.64.64,0,0,0,.21-.09.43.43,0,0,0,.15-.16.56.56,0,0,0,.05-.26.53.53,0,0,0-.18-.45.76.76,0,0,0-.47-.13h-1v1.12Z" transform="translate(-110.16 -25.2)"/>
    <path id="path142" class="cls-1" d="M183.31,514.79h1l1,1.61,1-1.61h1l-1.52,2.51v1.57h-.9v-1.59Z" transform="translate(-110.16 -25.2)"/>
  </g>
  <g id="g105" class="cls-21">
    <path id="path107" class="cls-1" d="M197.95,514.79l1.71,2.74h0v-2.74h.84v4.08h-.9l-1.7-2.73h0v2.73h-.84v-4.08Z" transform="translate(-110.16 -25.2)"/>
    <path id="path109" class="cls-1" d="M203.05,514.79a2.11,2.11,0,0,1,.74.13,1.61,1.61,0,0,1,.59.38,1.74,1.74,0,0,1,.39.63,2.53,2.53,0,0,1,.14.89,2.83,2.83,0,0,1-.11.82,1.82,1.82,0,0,1-.35.65,1.63,1.63,0,0,1-.58.43,2,2,0,0,1-.82.16h-1.76v-4.08Zm-.06,3.32a1.15,1.15,0,0,0,.38-.06.83.83,0,0,0,.33-.21,1.06,1.06,0,0,0,.23-.38,1.68,1.68,0,0,0,.09-.57,2.37,2.37,0,0,0-.06-.56,1.11,1.11,0,0,0-.2-.43.88.88,0,0,0-.36-.27,1.46,1.46,0,0,0-.56-.09h-.64v2.57Z" transform="translate(-110.16 -25.2)"/>
  </g>
  <path id="path6503" class="cls-20" d="M207.6,505.86a6.52,6.52,0,0,1-13,0h0a6.52,6.52,0,0,1,13,0Z" transform="translate(-110.16 -25.2)"/>
  <g id="g6505">
    <path id="path6507" class="cls-1" d="M201,498.72a6.81,6.81,0,0,0-5,2.07,7,7,0,0,0-2.11,5.07A7.2,7.2,0,0,0,201,513a7.06,7.06,0,0,0,5.12-2.13,6.78,6.78,0,0,0,2-5,7.08,7.08,0,0,0-7.15-7.15Zm0,1.29a5.86,5.86,0,0,1,5.85,5.86,5.45,5.45,0,0,1-1.68,4.09,5.73,5.73,0,0,1-4.17,1.75,5.82,5.82,0,0,1-4.11-10A5.54,5.54,0,0,1,201,500Z" transform="translate(-110.16 -25.2)"/>
    <g id="g6509">
      <path id="path6511" class="cls-1" d="M203.68,504.17h-5.2v1.23h5.2Zm0,2.3h-5.2v1.23h5.2Z" transform="translate(-110.16 -25.2)"/>
    </g>
  </g>
  <g id="g150" class="cls-21">
    <path id="path152" class="cls-1" d="M215.59,514.89l1.63,2.61h0v-2.61h.8v3.9h-.86l-1.62-2.61h0v2.61h-.8v-3.9Z" transform="translate(-110.16 -25.2)"/>
    <path id="path154" class="cls-1" d="M221.29,515.92a.85.85,0,0,0-.19-.22.9.9,0,0,0-.56-.2,1,1,0,0,0-.49.11.92.92,0,0,0-.33.3,1.31,1.31,0,0,0-.18.43,2.13,2.13,0,0,0-.06.5,2,2,0,0,0,.06.48,1.28,1.28,0,0,0,.18.42.93.93,0,0,0,.33.3,1,1,0,0,0,.49.11.79.79,0,0,0,.61-.24,1.11,1.11,0,0,0,.27-.63h.83a2,2,0,0,1-.17.66,1.59,1.59,0,0,1-.36.5,1.53,1.53,0,0,1-.52.32,1.91,1.91,0,0,1-.66.11,2,2,0,0,1-.81-.16,1.73,1.73,0,0,1-.6-.43,1.9,1.9,0,0,1-.38-.64,2.36,2.36,0,0,1-.13-.8,2.44,2.44,0,0,1,.13-.81,2,2,0,0,1,.38-.65,1.73,1.73,0,0,1,.6-.44,2,2,0,0,1,.81-.16,2,2,0,0,1,.61.09,1.63,1.63,0,0,1,.51.27,1.46,1.46,0,0,1,.37.44,1.58,1.58,0,0,1,.19.6h-.83A.71.71,0,0,0,221.29,515.92Z" transform="translate(-110.16 -25.2)"/>
  </g>
  <path id="path6363" class="cls-20" d="M225.17,505.9a6.68,6.68,0,0,1-13.36,0h0a6.68,6.68,0,0,1,13.36,0Z" transform="translate(-110.16 -25.2)"/>
  <path id="path6365" class="cls-1" d="M218.48,498.72a7.12,7.12,0,0,1,7.19,7.18,6.82,6.82,0,0,1-2,5,7.1,7.1,0,0,1-5.14,2.14,7.24,7.24,0,0,1-7.17-7.18,7,7,0,0,1,2.12-5.1A6.85,6.85,0,0,1,218.48,498.72ZM212.93,504a5.73,5.73,0,0,0-.32,1.93,6,6,0,0,0,5.9,5.87,5.76,5.76,0,0,0,4.19-1.76,5.54,5.54,0,0,0,1-1.26L221,507.55a2.08,2.08,0,0,1-2,1.6v1.11h-.82v-1.11a3.41,3.41,0,0,1-2.18-.86l1-1a2.17,2.17,0,0,0,1.6.65c.42,0,.89-.16.89-.71a.54.54,0,0,0-.19-.43l-.68-.31-.85-.38-1.14-.51Zm5.57-4a5.57,5.57,0,0,0-4.13,1.72,6.63,6.63,0,0,0-.8,1l2.75,1.22a2,2,0,0,1,1.85-1.28v-1.11H219v1.11a3.1,3.1,0,0,1,1.8.66l-.94,1a2.18,2.18,0,0,0-1.23-.42c-.36,0-.86.11-.86.56a.29.29,0,0,0,.06.18l.92.41.62.28,1.15.51,3.68,1.64a6.28,6.28,0,0,0,.18-1.54A5.89,5.89,0,0,0,218.5,500Z" transform="translate(-110.16 -25.2)"/>
  <g id="g144" class="cls-21">
    <path id="path146" class="cls-1" d="M233.25,517.86a.64.64,0,0,0,.19.23.84.84,0,0,0,.29.13,1.33,1.33,0,0,0,.34,0l.25,0a.88.88,0,0,0,.25-.08.55.55,0,0,0,.2-.16.39.39,0,0,0,.08-.25.35.35,0,0,0-.1-.27.83.83,0,0,0-.27-.17l-.38-.12-.43-.11-.44-.14a1.51,1.51,0,0,1-.38-.21,1,1,0,0,1-.38-.8,1.06,1.06,0,0,1,.13-.54,1.22,1.22,0,0,1,.35-.38,1.52,1.52,0,0,1,.49-.23,2.06,2.06,0,0,1,.54-.07,2.56,2.56,0,0,1,.61.07,1.51,1.51,0,0,1,.52.23,1.16,1.16,0,0,1,.36.4,1.25,1.25,0,0,1,.13.6h-.86a.72.72,0,0,0-.08-.3.5.5,0,0,0-.17-.19.72.72,0,0,0-.24-.1,1.49,1.49,0,0,0-.3,0l-.21,0a.57.57,0,0,0-.19.08.49.49,0,0,0-.14.14.38.38,0,0,0-.06.21.36.36,0,0,0,0,.19.4.4,0,0,0,.18.14,2.28,2.28,0,0,0,.37.12l.61.16.31.08a1.49,1.49,0,0,1,.4.19,1.21,1.21,0,0,1,.34.35,1,1,0,0,1,.14.56,1.24,1.24,0,0,1-.11.51,1.11,1.11,0,0,1-.32.41,1.53,1.53,0,0,1-.53.27,2.47,2.47,0,0,1-.73.1,2.56,2.56,0,0,1-.65-.08,1.62,1.62,0,0,1-.55-.26,1.28,1.28,0,0,1-.38-.45,1.33,1.33,0,0,1-.14-.64h.86A.74.74,0,0,0,233.25,517.86Z" transform="translate(-110.16 -25.2)"/>
    <path id="path148" class="cls-1" d="M238.25,514.82l1.51,4h-.92l-.31-.9H237l-.32.9h-.89l1.53-4Zm.05,2.48-.51-1.48h0l-.53,1.48Z" transform="translate(-110.16 -25.2)"/>
  </g>
  <path id="path6334" class="cls-20" d="M242.54,505.84a6.5,6.5,0,0,1-13,0h0a6.5,6.5,0,0,1,13,0Z" transform="translate(-110.16 -25.2)"/>
  <g id="g6336">
    <path id="path6338" class="cls-1" d="M236,498.72a6.79,6.79,0,0,0-5,2.06,7,7,0,0,0-2.1,5.06A7.18,7.18,0,0,0,236,513a7,7,0,0,0,5.1-2.12,6.76,6.76,0,0,0,2-5,7.06,7.06,0,0,0-7.13-7.12Zm0,1.28a5.84,5.84,0,0,1,5.83,5.84,5.43,5.43,0,0,1-1.68,4.08,5.71,5.71,0,0,1-4.15,1.74,5.8,5.8,0,0,1-4.1-10A5.52,5.52,0,0,1,236,500Z" transform="translate(-110.16 -25.2)"/>
    <path id="path6340" class="cls-1" d="M232.84,504.84a3,3,0,0,1,3.13-2.75,3.56,3.56,0,0,1,3.66,3.85,3.62,3.62,0,0,1-3.69,3.81,3.05,3.05,0,0,1-3.14-2.78h1.79c.05,1,.68,1.29,1.56,1.29s1.67-.94,1.67-2.38-.57-2.31-1.63-2.31a1.4,1.4,0,0,0-1.6,1.26h.52l-1.41,1.41-1.41-1.41Z" transform="translate(-110.16 -25.2)"/>
  </g>
  <polyline class="cls-9" points="99.49 444.3 139.22 444.3 139.22 500.96 59.92 500.96 59.92 444.3 99.49 444.3 99.49 434.63"/>
</svg>
