<?xml version="1.0" encoding="UTF-8" standalone="no"?>
<!-- Created with Inkscape (http://www.inkscape.org/) -->

<svg
   xmlns:dc="http://purl.org/dc/elements/1.1/"
   xmlns:cc="http://creativecommons.org/ns#"
   xmlns:rdf="http://www.w3.org/1999/02/22-rdf-syntax-ns#"
   xmlns:svg="http://www.w3.org/2000/svg"
   xmlns="http://www.w3.org/2000/svg"
   xmlns:sodipodi="http://sodipodi.sourceforge.net/DTD/sodipodi-0.dtd"
   xmlns:inkscape="http://www.inkscape.org/namespaces/inkscape"
   width="400"
   height="400"
   viewBox="0 0 105.83333 105.83334"
   version="1.1"
   id="svg852"
   inkscape:version="0.92.2 2405546, 2018-03-11"
   sodipodi:docname="open_lab.svg"
   inkscape:export-filename="/home/raphael/github/fab-manager/public/home/assets/open_lab.png"
   inkscape:export-xdpi="96"
   inkscape:export-ydpi="96">
  <defs
     id="defs846" />
  <sodipodi:namedview
     id="base"
     pagecolor="#ffffff"
     bordercolor="#666666"
     borderopacity="1.0"
     inkscape:pageopacity="0.0"
     inkscape:pageshadow="2"
     inkscape:zoom="1.4"
     inkscape:cx="25.307842"
     inkscape:cy="131.61201"
     inkscape:document-units="mm"
     inkscape:current-layer="layer1"
     showgrid="false"
     units="px"
     inkscape:window-width="1865"
     inkscape:window-height="1016"
     inkscape:window-x="55"
     inkscape:window-y="30"
     inkscape:window-maximized="1" />
  <metadata
     id="metadata849">
    <rdf:RDF>
      <cc:Work
         rdf:about="">
        <dc:format>image/svg+xml</dc:format>
        <dc:type
           rdf:resource="http://purl.org/dc/dcmitype/StillImage" />
        <dc:title />
      </cc:Work>
    </rdf:RDF>
  </metadata>
  <g
     inkscape:label="Layer 1"
     inkscape:groupmode="layer"
     id="layer1"
     transform="translate(0,-191.16665)">
    <rect
       style="opacity:1;fill:#e4f2e5;fill-opacity:1;stroke:none;stroke-width:2.29793382;stroke-miterlimit:4;stroke-dasharray:none;stroke-opacity:1"
       id="rect841"
       width="105.83334"
       height="105.83334"
       x="0"
       y="191.16664" />
    <text
       xml:space="preserve"
       style="font-style:normal;font-weight:normal;font-size:10.58324528px;line-height:1.25;font-family:sans-serif;letter-spacing:0px;word-spacing:0px;fill:#00a59f;fill-opacity:1;stroke:none;stroke-width:0.26458111"
       x="11.945684"
       y="211.89313"
       id="text856"
       transform="scale(0.99999169,1.0000083)"><tspan
         sodipodi:role="line"
         id="tspan854"
         x="11.945684"
         y="211.89313"
         style="font-style:normal;font-variant:normal;font-weight:normal;font-stretch:normal;font-family:'GT Pressura';-inkscape-font-specification:'GT Pressura';fill:#00a59f;fill-opacity:1;stroke-width:0.26458111">Ouvert</tspan></text>
    <path
       id="path10"
       d="m 52.891654,244.82131 c 3.25594,0 5.894772,-2.63883 5.894772,-5.89477 0,-3.25594 -2.638832,-5.89477 -5.894772,-5.89477 -3.255941,0 -5.894773,2.63883 -5.894773,5.89477 0,3.25594 2.638832,5.89477 5.894773,5.89477 z m 4.126345,1.47369 h -0.769088 c -1.022377,0.46974 -2.159879,0.73685 -3.357257,0.73685 -1.197371,0 -2.330278,-0.26711 -3.357258,-0.73685 h -0.76908 c -3.417125,0 -6.18951,2.7724 -6.18951,6.18952 v 1.9158 c 0,1.22041 0.990133,2.21054 2.210542,2.21054 h 16.210619 c 1.220401,0 2.210534,-0.99013 2.210534,-2.21054 v -1.9158 c 0,-3.41712 -2.772377,-6.18952 -6.189502,-6.18952 z"
       inkscape:connector-curvature="0"
       style="fill:#00a59f;fill-opacity:1;stroke-width:0.0460529" />
    <path
       id="path21"
       d="m 33.413236,284.89593 c 0.119736,-0.64935 0.119736,-1.31251 0,-1.96185 l 1.188164,-0.6862 c 0.138156,-0.0783 0.198032,-0.23947 0.151972,-0.39144 -0.308554,-0.99476 -0.838161,-1.89738 -1.528954,-2.64344 -0.10592,-0.11513 -0.276319,-0.14276 -0.414474,-0.0645 l -1.188165,0.68619 c -0.501975,-0.4283 -1.077642,-0.75987 -1.699353,-0.98093 v -1.37238 c 0,-0.15658 -0.110523,-0.29473 -0.262503,-0.32697 -1.026979,-0.23027 -2.072378,-0.22105 -3.048703,0 -0.151972,0.0323 -0.262502,0.17039 -0.262502,0.32697 v 1.37238 c -0.621711,0.22106 -1.197371,0.55263 -1.699346,0.98093 l -1.188165,-0.68619 c -0.13356,-0.0783 -0.308554,-0.0506 -0.414481,0.0645 -0.690793,0.74606 -1.220401,1.64868 -1.528955,2.64344 -0.04603,0.15198 0.0184,0.31315 0.151972,0.39144 l 1.188165,0.6862 c -0.119737,0.64934 -0.119737,1.3125 0,1.96185 l -1.188165,0.68619 c -0.138156,0.0783 -0.198024,0.23947 -0.151972,0.39145 0.308554,0.99474 0.838162,1.89277 1.528955,2.64343 0.105927,0.11514 0.276318,0.14277 0.414481,0.0645 l 1.188165,-0.68619 c 0.501975,0.42829 1.077635,0.75987 1.699346,0.98092 v 1.37237 c 0,0.15659 0.11053,0.29474 0.262502,0.32698 1.02698,0.23026 2.072386,0.22105 3.048703,0 0.15198,-0.0323 0.262503,-0.17039 0.262503,-0.32698 v -1.37237 c 0.621711,-0.22105 1.197378,-0.55263 1.699353,-0.98092 l 1.188165,0.68619 c 0.133552,0.0783 0.308554,0.0506 0.414474,-0.0645 0.690793,-0.74605 1.2204,-1.64869 1.528954,-2.64343 0.04603,-0.15198 -0.0184,-0.31316 -0.151972,-0.39145 z m -5.273061,1.25264 c -1.234217,0 -2.233564,-1.00396 -2.233564,-2.23356 0,-1.22963 1.003957,-2.23357 2.233564,-2.23357 1.229613,0 2.233571,1.00395 2.233571,2.23357 0,1.2296 -0.999347,2.23356 -2.233571,2.23356 z M 9.7190205,279.49392 c 1.6256615,0 2.9473785,-1.32171 2.9473785,-2.94738 0,-1.62568 -1.321717,-2.9474 -2.9473785,-2.9474 -1.625669,0 -2.9473857,1.32172 -2.9473857,2.9474 0,1.62567 1.3217167,2.94738 2.9473857,2.94738 z m 10.3158475,1.47369 c 0.0875,0 0.170391,-0.023 0.257892,-0.0276 0.382239,-0.99935 0.94409,-1.93883 1.671721,-2.72632 0.340797,-0.36843 0.824353,-0.58027 1.330931,-0.58027 0.317767,0 0.630924,0.0829 0.90264,0.24408 l 0.363819,0.21184 c 0.03687,-0.023 0.07366,-0.0415 0.110523,-0.0645 0.322371,-0.67238 0.515792,-1.41843 0.515792,-2.21054 0,-2.85068 -2.307249,-5.15791 -5.157928,-5.15791 -2.850672,0 -5.153317,2.30263 -5.153317,5.15331 0,2.85067 2.307248,5.15792 5.157927,5.15792 z m 4.844763,8.9573 c -0.10592,-0.0553 -0.21184,-0.11974 -0.313157,-0.17961 -0.377635,0.22105 -0.704609,0.45132 -1.266459,0.45132 -0.501975,0 -0.985531,-0.21185 -1.330924,-0.58027 -0.842772,-0.91185 -1.487513,-2.02172 -1.851332,-3.20528 -0.492762,-1.58883 1.146723,-2.28883 1.188164,-2.31646 -0.0046,-0.11973 -0.0046,-0.23948 0,-0.35922 l -0.363811,-0.21184 c -0.175002,-0.10131 -0.322371,-0.23026 -0.45132,-0.37303 -0.15198,0.009 -0.299341,0.0276 -0.451321,0.0276 -1.132899,0 -2.192114,-0.27631 -3.154623,-0.73684 H 16.50261 c -2.93357,0 -5.309901,2.37633 -5.309901,5.3053 v 1.32632 c 0,1.2204 0.990135,2.21054 2.210543,2.21054 h 11.761911 c -0.170398,-0.27632 -0.285532,-0.58948 -0.285532,-0.93488 z M 13.269699,281.8242 c -0.534218,-0.52961 -1.26646,-0.85659 -2.07699,-0.85659 H 8.2453235 c -1.6256687,0 -2.9473857,1.32173 -2.9473857,2.9474 v 1.47369 c 0,0.81514 0.658557,1.47369 1.473697,1.47369 h 3.0348787 c 0.2901355,-2.18291 1.6072495,-4.02042 3.4631855,-5.03819 z"
       inkscape:connector-curvature="0"
       style="fill:#00a59f;fill-opacity:1;stroke-width:0.0460529" />
    <path
       id="path32"
       d="m 28.767381,267.19518 -0.30868,-0.30869 c -0.25574,-0.25573 -0.25573,-0.67033 0,-0.92606 l 6.94545,-6.94545 -0.92606,-0.92606 c -0.41223,-0.41223 -0.11852,-1.11785 0.46303,-1.11787 h 3.08686 c 0.36165,2e-5 0.65482,0.29319 0.65482,0.65482 l 1e-5,3.08687 c -6e-5,0.57931 -0.70391,0.87699 -1.11786,0.46305 l -0.92606,-0.92606 -6.94545,6.94544 c -0.25572,0.25573 -0.67033,0.25573 -0.92606,10e-6 z m 12.34748,-6.48242 -6.94546,6.94545 -0.92606,-0.92607 c -0.41121,-0.4112 -1.11787,-0.11996 -1.11787,0.46304 v 3.08686 c 2e-5,0.36164 0.2932,0.65482 0.65482,0.65482 h 3.08687 c 0.57985,-2e-5 0.87663,-0.70426 0.46304,-1.11785 l -0.92605,-0.92606 6.94545,-6.94545 c 0.25573,-0.25573 0.25572,-0.67033 -1e-5,-0.92606 l -0.30868,-0.30868 c -0.25573,-0.25573 -0.67033,-0.25573 -0.92605,0 z"
       inkscape:connector-curvature="0"
       style="fill:#00a59f;fill-opacity:1;stroke-width:0.0272843" />
    <path
       id="path43"
       d="m 94.628244,205.70384 -0.378905,0.66078 c -0.138623,0.2449 -0.434357,0.34655 -0.697747,0.24952 -0.545254,-0.20331 -1.044303,-0.49442 -1.483283,-0.85947 -0.212555,-0.1756 -0.268007,-0.48519 -0.129383,-0.72547 l 0.378911,-0.66078 c -0.318843,-0.36967 -0.568364,-0.7994 -0.734713,-1.2661 h -0.762433 c -0.277254,0 -0.517535,-0.1987 -0.563741,-0.47595 -0.09242,-0.5545 -0.09704,-1.13672 0,-1.71432 0.04623,-0.27725 0.286487,-0.48057 0.563741,-0.48057 h 0.762433 c 0.166349,-0.4667 0.41587,-0.89644 0.734713,-1.26611 l -0.378911,-0.66077 c -0.138624,-0.24028 -0.08779,-0.54988 0.129383,-0.72547 0.43898,-0.36505 0.942652,-0.65616 1.483283,-0.85947 0.26339,-0.097 0.559124,0.004 0.697747,0.24952 l 0.378905,0.66078 c 0.485186,-0.0878 0.979618,-0.0878 1.464803,0 l 0.378905,-0.66078 c 0.138623,-0.24491 0.434357,-0.34656 0.697748,-0.24952 0.545254,0.20331 1.044302,0.49442 1.483276,0.85947 0.212562,0.17559 0.268014,0.48519 0.12939,0.72547 l -0.378911,0.66077 c 0.318836,0.36967 0.568363,0.79941 0.734713,1.26611 H 99.9006 c 0.27725,0 0.51754,0.1987 0.56374,0.47594 0.0924,0.55451 0.097,1.13673 0,1.71433 -0.0462,0.27725 -0.28649,0.48057 -0.56374,0.48057 h -0.762432 c -0.16635,0.4667 -0.415877,0.89643 -0.734713,1.2661 l 0.378911,0.66078 c 0.138624,0.24028 0.08779,0.54987 -0.12939,0.72547 -0.438974,0.36505 -0.942645,0.65616 -1.483276,0.85947 -0.263391,0.097 -0.559125,-0.004 -0.697748,-0.24952 l -0.378905,-0.66078 c -0.480569,0.0878 -0.979617,0.0878 -1.464803,0 z m -0.485186,-2.71704 c 1.779016,1.36776 3.80756,-0.66079 2.439791,-2.4398 -1.779016,-1.37238 -3.807553,0.66078 -2.439791,2.4398 z m -5.327808,7.11144 1.557221,0.77629 c 0.4667,0.26801 0.670015,0.83638 0.485185,1.34467 -0.411254,1.11824 -1.219898,2.14405 -1.968475,3.04049 -0.341938,0.41126 -0.933405,0.51291 -1.400105,0.24491 l -1.344659,-0.7763 c -0.73933,0.63305 -1.598803,1.13672 -2.536832,1.46479 v 1.5526 c 0,0.53602 -0.383528,0.9981 -0.910296,1.09052 -1.136727,0.19408 -2.328894,0.20331 -3.507203,0 -0.531398,-0.0924 -0.924166,-0.54988 -0.924166,-1.09052 v -1.5526 c -0.938029,-0.33269 -1.797502,-0.83174 -2.536832,-1.46479 l -1.344659,0.77168 c -0.462083,0.26801 -1.058166,0.16634 -1.400106,-0.2449 -0.748576,-0.89644 -1.538734,-1.92227 -1.949988,-3.03588 -0.184836,-0.50368 0.01848,-1.07204 0.485185,-1.34467 l 1.538735,-0.77629 c -0.180212,-0.96575 -0.180212,-1.95923 0,-2.9296 l -1.538735,-0.78092 c -0.466699,-0.268 -0.674638,-0.83637 -0.485185,-1.34004 0.411254,-1.11824 1.201412,-2.14406 1.949988,-3.0405 0.34194,-0.41126 0.933406,-0.51291 1.400106,-0.24491 l 1.344659,0.77631 c 0.73933,-0.63306 1.598803,-1.13673 2.536832,-1.4648 v -1.55722 c 0,-0.5314 0.378905,-0.99348 0.905679,-1.08589 1.136721,-0.19408 2.333518,-0.20332 3.511827,-0.004 0.531391,0.0924 0.924159,0.54988 0.924159,1.09051 v 1.55259 c 0.938029,0.3327 1.797502,0.83175 2.536832,1.4648 l 1.344659,-0.77629 c 0.462083,-0.26801 1.058167,-0.16635 1.400105,0.2449 0.748577,0.89644 1.534118,1.92227 1.945372,3.04051 0.18483,0.50366 0.0046,1.07202 -0.462082,1.34465 l -1.557221,0.7763 c 0.180212,0.97037 0.180212,1.96385 0,2.93423 z m -5.434083,0.97499 c 2.735524,-3.55803 -1.326173,-7.61973 -4.884205,-4.8842 -2.735525,3.55802 1.326172,7.61973 4.884205,4.8842 z m 11.247077,8.44224 -0.378905,0.66077 c -0.138623,0.24491 -0.434357,0.34656 -0.697747,0.24953 -0.545254,-0.20331 -1.044303,-0.49443 -1.483283,-0.85947 -0.212555,-0.17559 -0.268007,-0.48519 -0.129383,-0.72547 l 0.378911,-0.66078 c -0.318843,-0.36966 -0.568364,-0.79941 -0.734713,-1.2661 h -0.762433 c -0.277254,0 -0.517535,-0.19869 -0.563741,-0.47595 -0.09242,-0.5545 -0.09704,-1.13672 0,-1.71432 0.04623,-0.27725 0.286487,-0.48056 0.563741,-0.48056 h 0.762433 c 0.166349,-0.46671 0.41587,-0.89645 0.734713,-1.26611 l -0.378911,-0.66078 c -0.138624,-0.24028 -0.08779,-0.54988 0.129383,-0.72547 0.43898,-0.36504 0.942652,-0.65616 1.483283,-0.85948 0.26339,-0.097 0.559124,0.004 0.697747,0.24954 l 0.378905,0.66077 c 0.485186,-0.0878 0.979618,-0.0878 1.464803,0 l 0.378905,-0.66077 c 0.138623,-0.24491 0.434357,-0.34657 0.697748,-0.24954 0.545254,0.20332 1.044302,0.49444 1.483276,0.85948 0.212562,0.17559 0.268014,0.48519 0.12939,0.72547 l -0.378911,0.66078 c 0.318836,0.36966 0.568363,0.7994 0.734713,1.26611 H 99.9006 c 0.27725,0 0.51754,0.19868 0.56374,0.47594 0.0924,0.55449 0.097,1.13672 0,1.71432 -0.0462,0.27726 -0.28649,0.48057 -0.56374,0.48057 h -0.762432 c -0.16635,0.4667 -0.415877,0.89644 -0.734713,1.2661 l 0.378911,0.66078 c 0.138624,0.24028 0.08779,0.54988 -0.12939,0.72547 -0.438974,0.36504 -0.942645,0.65616 -1.483276,0.85947 -0.263391,0.097 -0.559125,-0.004 -0.697748,-0.24953 l -0.378905,-0.66077 c -0.480569,0.0878 -0.979617,0.0878 -1.464803,0 z m -0.485186,-2.72166 c 1.779016,1.36776 3.80756,-0.66078 2.439791,-2.43979 -1.779016,-1.36777 -3.807553,0.66078 -2.439791,2.43979 z"
       inkscape:connector-curvature="0"
       style="fill:#00a59f;fill-opacity:1;stroke-width:0.0462082" />
    <path
       id="path32-3"
       d="m 65.539389,231.76317 6.94546,-6.94545 0.92606,0.92607 c 0.41121,0.4112 1.11787,0.11996 1.11787,-0.46304 v -3.08686 c -2e-5,-0.36164 -0.2932,-0.65482 -0.65482,-0.65482 h -3.08687 c -0.57985,2e-5 -0.87663,0.70427 -0.46304,1.11785 l 0.92605,0.92606 -6.94545,6.94545 c -0.25573,0.25573 -0.25572,0.67033 1e-5,0.92606 l 0.30868,0.30868 c 0.25573,0.25573 0.67033,0.25573 0.92605,0 z"
       inkscape:connector-curvature="0"
       style="fill:#00a59f;fill-opacity:1;stroke-width:0.0272843"
       sodipodi:nodetypes="cccsccccccccc" />
  </g>
</svg>
