<?xml version="1.0" encoding="UTF-8" standalone="no"?>
<svg
   xmlns:dc="http://purl.org/dc/elements/1.1/"
   xmlns:cc="http://creativecommons.org/ns#"
   xmlns:rdf="http://www.w3.org/1999/02/22-rdf-syntax-ns#"
   xmlns:svg="http://www.w3.org/2000/svg"
   xmlns="http://www.w3.org/2000/svg"
   viewBox="0 0 800 899.06805"
   height="899.06805"
   width="800"
   id="svg2"
   version="1.1">
  <metadata
     id="metadata8">
    <rdf:RDF>
      <cc:Work
         rdf:about="">
        <dc:format>image/svg+xml</dc:format>
        <dc:type
           rdf:resource="http://purl.org/dc/dcmitype/StillImage" />
        <dc:title></dc:title>
      </cc:Work>
    </rdf:RDF>
  </metadata>
  <defs
     id="defs6" />
  <path
     id="path817"
     d="m 603.50906,898.46916 c -29.55056,-4.45641 -54.05745,-13.79227 -78.42012,-29.87399 l -11.65641,-7.69435 H 256.71628 0 V 484.03711 107.17336 h 191.26758 191.26757 l 4.80476,-6.93329 c 2.64263,-3.81329 9.01377,-9.83212 14.15809,-13.37515 15.46283,-10.64965 27.4525,-13.00485 75.53967,-14.83867 51.27223,-1.95529 62.19489,-4.43248 74.11706,-16.80927 C 560.25406,45.77066 563.9779,34.28959 563.9779,15.68155 563.9779,1.20685 564.73265,0 573.78477,0 c 4.07804,0 4.24867,0.48091 4.24867,11.9759 0,26.39563 -5.49103,41.70727 -19.84634,55.34116 -7.37067,7.00029 -8.16984,8.30666 -4.63283,7.57318 2.35089,-0.48752 8.49194,-1.36559 13.64675,-1.95126 31.68258,-3.59964 47.11899,-19.28477 49.30442,-50.09877 l 1.05916,-14.93398 6.85648,-0.56128 6.8565,-0.56126 -1.00523,15.49526 c -2.32026,35.76582 -16.76294,53.14461 -51.66876,62.17269 -12.13949,3.13976 -20.52782,3.62944 -71.72625,4.18708 -46.05781,0.50163 -60.29586,1.21724 -69.24695,3.48034 -11.56982,2.92519 -28.26325,10.94408 -28.26325,13.5766 0,0.81274 77.87639,1.4777 173.05864,1.4777 h 173.05863 v 249.0549 249.05492 l 9.71182,12.90972 c 5.3415,7.10036 13.21176,20.1418 17.4895,28.98096 28.53952,58.97191 21.36774,130.18592 -18.33909,182.10205 -8.10112,10.59206 -8.73904,12.1526 -8.79832,21.52251 l -0.0639,10.1024 h -10.48929 c -9.70775,0 -11.46673,0.66319 -23.60735,8.90051 -15.49187,10.5111 -36.85852,19.87207 -56.38579,24.70325 -13.68704,3.38626 -49.8623,5.71858 -61.49292,3.96458 z m -36.95029,-98.23509 c 10.85534,-1.43845 22.90561,-7.47461 30.27272,-15.16404 14.55467,-15.19144 15.27633,-38.90879 1.64048,-53.91454 -4.32522,-4.75973 -15.33427,-10.77407 -19.92931,-10.88754 -2.00755,-0.0496 -0.90898,-1.26006 3.03809,-3.34766 13.86723,-7.3343 21.29927,-18.57791 21.42358,-32.41072 0.23228,-25.85155 -23.82826,-40.68163 -58.35277,-35.9666 -15.08654,2.06038 -29.86799,8.00331 -29.86799,12.00854 0,3.48102 3.42627,14.34934 5.13365,16.28426 0.62712,0.71067 5.44229,-0.34252 10.70038,-2.34044 17.88891,-6.79726 36.22224,-4.31396 41.3494,5.60085 7.89381,15.26499 -3.31031,27.17386 -27.47146,29.19943 l -12.14255,1.018 v 10.06651 10.06649 l 14.63045,0.7679 c 18.10566,0.95029 25.76628,4.98771 30.12284,15.87583 8.21163,20.52291 -9.83006,35.59073 -37.31523,31.16437 -5.8039,-0.93468 -13.38418,-2.88258 -16.8451,-4.32864 -3.46092,-1.44607 -6.63898,-2.6292 -7.06232,-2.6292 -1.02613,0 -6.37088,15.79149 -6.37088,18.82329 0,5.28505 30.59824,13.52605 43.92351,11.82986 2.4158,-0.30752 8.32093,-1.07969 13.12251,-1.71595 z m 128.5203,-1.74011 c 37.34079,-6.39174 59.8748,-27.94153 65.77103,-62.89825 4.65064,-27.57211 -1.48335,-51.76535 -17.33939,-68.38875 -17.84416,-18.70774 -41.29752,-25.42771 -82.02261,-23.50152 -12.56213,0.59414 -25.01444,1.57033 -27.67181,2.16929 l -4.83158,1.089 v 76.12109 76.12105 l 7.46699,0.67254 c 18.55873,1.67156 44.32932,1.06299 58.62737,-1.38445 z m -36.22638,-76.35088 v -56.65136 l 18.88712,0.71476 c 14.13264,0.53484 20.87735,1.62005 26.79333,4.31096 21.08077,9.58867 31.34145,33.34926 26.47331,61.30407 -5.38766,30.93831 -21.58548,44.52174 -55.02359,46.14257 l -17.13017,0.83033 z m -202.85698,53.1069 c -3.44682,-8.94494 -6.43554,-26.22271 -7.39289,-42.73799 -4.76477,-82.19936 48.62452,-156.21848 129.32508,-179.29678 17.46398,-4.99423 44.49154,-7.19375 62.72628,-5.10466 8.55971,0.98066 16.55138,1.78948 17.75927,1.79742 1.72898,0.01 2.19619,-19.42138 2.19619,-91.3465 v -91.3609 H 563.9779 467.34618 v 50.95127 50.95127 H 440.1136 412.88103 l -0.007,20.64406 c -0.007,23.30255 -2.22891,29.49574 -12.48198,34.7978 -8.34361,4.31467 -21.30952,4.21622 -27.23959,-0.20679 -10.54711,-7.86669 -11.84957,-11.37982 -12.66149,-34.15216 l -0.75083,-21.08291 h -26.11105 -26.11062 l -0.46615,-50.51203 -0.46619,-50.51205 H 201.16969 95.753259 v 178.32946 178.32946 l 3.98843,9.85942 c 5.311651,13.13041 14.648761,24.78751 25.651421,32.02505 18.29338,12.03337 8.68442,11.41019 178.30634,11.56349 145.48471,0.13144 153.41929,-0.0214 152.29626,-2.93593 z M 272.3292,318.47149 c -1.93453,-3.60939 -3.5173,-8.7877 -3.5173,-11.50736 0,-11.43836 10.63498,-22.33977 21.79374,-22.33977 h 6.31731 v 20.20483 20.2048 h 5.27082 5.27082 v -50.95127 -50.95127 h 32.5034 32.5034 v -17.56941 -17.5694 h -106.0551 c -64.36696,0 -109.77509,0.70104 -115.51882,1.78343 -27.03772,5.09524 -49.09591,27.17825 -54.239561,54.30064 -0.98072,5.17126 -1.78312,25.50219 -1.78312,45.17982 v 35.77746 h 90.485851 90.48586 z m 202.04475,-13.6423 v -20.20483 h 5.43897 c 16.79979,0 27.53782,21.80411 17.45459,35.44243 l -3.67241,4.9672 h 83.64663 83.64662 l -0.63622,-41.72733 c -0.57478,-37.69848 -0.99946,-42.627 -4.39858,-51.04516 -7.23068,-17.90737 -21.48017,-32.17764 -39.51277,-39.5704 -9.17074,-3.75969 -11.03045,-3.82793 -117.80891,-4.32273 L 390.0408,187.86565 v 17.63289 17.63291 h 38.6527 38.65268 v 50.95127 c 0,49.77998 0.0809,50.95127 3.51387,50.95127 3.31019,0 3.5139,-1.17129 3.5139,-20.2048 z"
     style="fill:#0b1783;fill-opacity:1;stroke-width:1.75694048" />
</svg>
