<?xml version="1.0" encoding="UTF-8" standalone="no"?>
<!-- Generator: Adobe Illustrator 21.0.0, SVG Export Plug-In . SVG Version: 6.00 Build 0)  -->

<svg
   xmlns:dc="http://purl.org/dc/elements/1.1/"
   xmlns:cc="http://creativecommons.org/ns#"
   xmlns:rdf="http://www.w3.org/1999/02/22-rdf-syntax-ns#"
   xmlns:svg="http://www.w3.org/2000/svg"
   xmlns="http://www.w3.org/2000/svg"
   xmlns:sodipodi="http://sodipodi.sourceforge.net/DTD/sodipodi-0.dtd"
   xmlns:inkscape="http://www.inkscape.org/namespaces/inkscape"
   version="1.1"
   id="Calque_1"
   x="0px"
   y="0px"
   viewBox="0 0 799.99999 270.86273"
   xml:space="preserve"
   sodipodi:docname="0.svg"
   width="800"
   height="270.86273"
   inkscape:version="0.92.2 2405546, 2018-03-11"
   inkscape:export-filename="/home/raphael/Documents/FabLab/website/fab-manager/public/support/assets/logo-sponsoring/png/0.png"
   inkscape:export-xdpi="192"
   inkscape:export-ydpi="192"><metadata
   id="metadata29"><rdf:RDF><cc:Work
       rdf:about=""><dc:format>image/svg+xml</dc:format><dc:type
         rdf:resource="http://purl.org/dc/dcmitype/StillImage" /><dc:title /></cc:Work></rdf:RDF></metadata><defs
   id="defs27">
	
	
	
	
	
	
	
</defs><sodipodi:namedview
   pagecolor="#ffffff"
   bordercolor="#666666"
   borderopacity="1"
   objecttolerance="10"
   gridtolerance="10"
   guidetolerance="10"
   inkscape:pageopacity="0"
   inkscape:pageshadow="2"
   inkscape:window-width="1920"
   inkscape:window-height="1016"
   id="namedview25"
   showgrid="false"
   fit-margin-top="0"
   fit-margin-left="0"
   fit-margin-right="0"
   fit-margin-bottom="0"
   inkscape:zoom="0.6544499"
   inkscape:cx="80.451325"
   inkscape:cy="-182.91328"
   inkscape:window-x="0"
   inkscape:window-y="27"
   inkscape:window-maximized="1"
   inkscape:current-layer="Calque_1" />
<style
   type="text/css"
   id="style2">
	.st0{fill:#0B1783;}
</style>



<path
   inkscape:connector-curvature="0"
   id="path16-3"
   style="fill:#0b1783;fill-opacity:1;fill-rule:nonzero;stroke:none;stroke-width:0.43419027"
   d="M 36.566927,0.08415387 H 2.068432e-6 V 39.771755 C 9.2400947,24.074893 21.734957,10.540308 36.566927,0.08415387" /><path
   inkscape:connector-curvature="0"
   id="path18-6"
   style="fill:#0b1783;fill-opacity:1;fill-rule:nonzero;stroke:none;stroke-width:0.43419027"
   d="m 109.72651,65.772372 c 31.08021,0 56.38526,25.574678 56.38526,56.987478 0,31.39714 -25.30505,56.94837 -56.38526,56.94837 -31.088874,0 -56.376998,-25.55123 -56.376998,-56.94837 0,-31.4128 25.288124,-56.987478 56.376998,-56.987478 z m 0.0252,128.047048 c 49.22806,0 89.11929,-39.95898 89.11929,-89.31772 0,-49.363513 -39.89123,-89.356807 -89.11929,-89.356807 -49.239797,0 -89.136137,39.993294 -89.136137,89.356807 0,49.35874 39.89634,89.31772 89.136137,89.31772" /><path
   inkscape:connector-curvature="0"
   id="path20-7"
   style="fill:#0b1783;fill-opacity:1;fill-rule:nonzero;stroke:none;stroke-width:0.43419027"
   d="M 182.91102,0.08415387 C 215.65331,23.18437 237.06627,61.328433 237.06627,104.5017 c 0,70.49166 -56.97922,127.68234 -127.31457,127.68234 -46.768803,0 -87.606312,-25.27945 -109.751697931568,-62.92373 V 270.86269 H 800 V 0.08415387 H 182.91102" /><path
   inkscape:connector-curvature="0"
   id="path26"
   style="fill:#ffffff;fill-opacity:1;fill-rule:nonzero;stroke:none;stroke-width:0.43419027"
   d="m 355.17123,51.084587 h 22.55402 v 47.209478 h 22.04686 V 117.56127 H 355.17123 V 51.084587" /><path
   inkscape:connector-curvature="0"
   id="path28"
   style="fill:#ffffff;fill-opacity:1;fill-rule:nonzero;stroke:none;stroke-width:0.43419027"
   d="m 431.76328,83.937142 c 0,2.196123 0.32562,4.189077 0.9769,6.012246 0.66433,1.814893 1.57178,3.375385 2.73108,4.69837 1.15491,1.3056 2.54433,2.323354 4.17255,3.044092 1.62388,0.729446 3.38236,1.085477 5.2624,1.085477 1.867,0 3.62548,-0.356031 5.20595,-1.085477 1.60648,-0.720738 2.9959,-1.738492 4.18556,-3.044092 1.1897,-1.322985 2.1145,-2.883477 2.78318,-4.69837 0.64694,-1.823169 0.97691,-3.816123 0.97691,-6.012246 0,-2.120154 -0.32997,-4.0792 -0.97691,-5.868523 -0.66868,-1.781047 -1.59348,-3.298954 -2.78318,-4.511662 -1.18966,-1.212677 -2.57908,-2.170954 -4.18556,-2.866093 -1.58047,-0.678646 -3.33895,-1.026 -5.20595,-1.026 -1.88004,0 -3.63852,0.347354 -5.2624,1.026 -1.62822,0.695139 -3.01764,1.653416 -4.17255,2.866093 -1.1593,1.212708 -2.06675,2.730615 -2.73108,4.511662 -0.65128,1.789323 -0.9769,3.748369 -0.9769,5.868523 z m -23.76845,0 c 0,-5.317077 0.93784,-10.117077 2.82047,-14.416401 1.88267,-4.282861 4.46392,-7.9292 7.75422,-10.939877 3.28205,-3.002 7.18281,-5.3084 11.69144,-6.945293 4.50691,-1.628215 9.38285,-2.433631 14.64525,-2.433631 5.26236,0 10.14269,0.805416 14.64956,2.433631 4.50692,1.636893 8.41026,3.943293 11.73617,6.945293 3.32591,3.010677 5.90933,6.657016 7.80242,10.939877 1.85834,4.299324 2.80919,9.099324 2.80919,14.416401 0,5.325354 -0.95085,10.176123 -2.80919,14.543631 -1.89309,4.392707 -4.47651,8.132397 -7.80242,11.236427 -3.32591,3.10357 -7.22925,5.48644 -11.73617,7.17413 -4.50687,1.70461 -9.3872,2.55258 -14.64956,2.55258 -5.2624,0 -10.13834,-0.84797 -14.64525,-2.55258 -4.50863,-1.68769 -8.40939,-4.07056 -11.69144,-7.17413 -3.2903,-3.10403 -5.87155,-6.84372 -7.75422,-11.236427 -1.88263,-4.367508 -2.82047,-9.218277 -2.82047,-14.543631" /><path
   inkscape:connector-curvature="0"
   id="path30"
   style="fill:#ffffff;fill-opacity:1;fill-rule:nonzero;stroke:none;stroke-width:0.43419027"
   d="M 527.81485,117.56127 H 505.48008 V 69.944495 H 489.13284 V 51.084587 h 55.0249 v 18.859908 h -16.34289 v 47.616775" /><path
   inkscape:connector-curvature="0"
   id="path32"
   style="fill:#ffffff;fill-opacity:1;fill-rule:nonzero;stroke:none;stroke-width:0.43419027"
   d="m 556.50178,51.084587 h 45.74195 v 18.580277 h -24.70108 v 5.723939 h 23.19877 v 17.376308 h -23.19877 v 6.198924 h 26.29021 V 117.56127 H 556.50178 V 51.084587" /><path
   inkscape:connector-curvature="0"
   id="path34"
   style="fill:#ffffff;fill-opacity:1;fill-rule:nonzero;stroke:none;stroke-width:0.43419027"
   d="m 640.15286,79.154095 h 4.38966 c 0.73814,0 1.57613,-0.06769 2.45322,-0.195076 0.92044,-0.127077 1.75409,-0.390339 2.52262,-0.79717 0.78154,-0.398584 1.42847,-0.958246 1.95385,-1.695938 0.52972,-0.7212 0.80328,-1.662093 0.80328,-2.857846 0,-1.195754 -0.22145,-2.120154 -0.65998,-2.807047 -0.42552,-0.695569 -0.9856,-1.204431 -1.68903,-1.560461 -0.67298,-0.347785 -1.41111,-0.559662 -2.21436,-0.653047 -0.82059,-0.08461 -1.56742,-0.144 -2.24475,-0.144 h -5.31451 z M 618.65613,51.084587 h 28.63917 c 3.25211,0 6.49551,0.313477 9.69982,0.975169 3.24775,0.661292 6.11774,1.823169 8.66642,3.477015 2.53567,1.662062 4.58072,3.875139 6.13945,6.665262 1.55877,2.781416 2.35331,6.284001 2.35331,10.481755 0,4.0536 -1.00295,7.632215 -3.0089,10.735815 -1.9886,3.112277 -4.86294,5.503785 -8.59697,7.182801 l 16.85526,26.958866 H 653.73436 L 640.9952,93.799788 h -0.65128 V 117.56127 H 618.65613 V 51.084587" /><path
   inkscape:connector-curvature="0"
   id="path36"
   style="fill:#ffffff;fill-opacity:1;fill-rule:nonzero;stroke:none;stroke-width:0.43419027"
   d="m 687.71409,51.084587 h 22.5388 v 66.476683 h -22.5388 V 51.084587" /><path
   inkscape:connector-curvature="0"
   id="path38"
   style="fill:#ffffff;fill-opacity:1;fill-rule:nonzero;stroke:none;stroke-width:0.43419027"
   d="m 724.49871,51.084587 h 45.7332 v 18.580277 h -24.69237 v 5.723939 h 23.18142 v 17.376308 h -23.18142 v 6.198924 h 26.28154 V 117.56127 H 724.49871 V 51.084587" /><path
   inkscape:connector-curvature="0"
   id="path40"
   style="fill:#ffffff;fill-opacity:1;fill-rule:nonzero;stroke:none;stroke-width:0.43419027"
   d="m 277.27967,176.11268 h 4.36404 c 0.74638,0 1.567,-0.0425 2.47098,-0.17846 0.89574,-0.12677 1.72678,-0.38991 2.50702,-0.79674 0.77156,-0.40729 1.42458,-0.96695 1.9621,-1.68769 0.51756,-0.71252 0.78546,-1.67077 0.78546,-2.8496 0,-1.19575 -0.22059,-2.13708 -0.64956,-2.81529 -0.43245,-0.68689 -1.00601,-1.21268 -1.68248,-1.55179 -0.66995,-0.33086 -1.41633,-0.55144 -2.22349,-0.65304 -0.80412,-0.0763 -1.55875,-0.136 -2.23391,-0.136 h -5.30016 z M 255.8298,148.11047 h 28.57319 c 3.24471,0 6.47074,0.32261 9.69634,0.97563 3.21084,0.66126 6.09083,1.81449 8.62476,3.46831 2.5183,1.65338 4.57246,3.89252 6.13945,6.66526 1.55701,2.78184 2.34592,6.2584 2.34592,10.44791 0,4.0536 -1.00601,7.6235 -3.00242,10.71886 -1.9925,3.09535 -4.85902,5.48686 -8.5987,7.16588 l 16.83312,26.88246 H 290.83118 L 278.11939,190.7497 h -0.65302 v 23.68508 H 255.8298 v -66.32431" /><path
   inkscape:connector-curvature="0"
   id="path42"
   style="fill:#ffffff;fill-opacity:1;fill-rule:nonzero;stroke:none;stroke-width:0.43419027"
   d="m 343.60397,180.90398 c 0,2.1879 0.31696,4.18083 0.9804,5.99532 0.65954,1.80665 1.57741,3.37538 2.72541,4.68142 1.15321,1.30563 2.54088,2.33206 4.17561,3.04412 1.6165,0.7212 3.37192,1.08548 5.23762,1.08548 1.88267,0 3.60075,-0.36428 5.20683,-1.08548 1.58087,-0.71206 2.97639,-1.73849 4.16388,-3.04412 1.18709,-1.30604 2.10627,-2.87477 2.7697,-4.68142 0.6426,-1.81449 0.96477,-3.80742 0.96477,-5.99532 0,-2.12883 -0.32217,-4.07053 -0.96477,-5.85982 -0.66343,-1.78105 -1.58261,-3.27335 -2.7697,-4.49474 -1.18749,-1.21271 -2.58301,-2.17095 -4.16388,-2.86609 -1.60608,-0.66997 -3.32416,-1.01775 -5.20683,-1.01775 -1.8657,0 -3.62112,0.34778 -5.23762,1.01775 -1.63473,0.69514 -3.0224,1.65338 -4.17561,2.86609 -1.148,1.22139 -2.06587,2.71369 -2.72541,4.49474 -0.66344,1.78929 -0.9804,3.73099 -0.9804,5.85982 z m -23.69723,0 c 0,-5.31708 0.9309,-10.10013 2.80704,-14.38256 1.87743,-4.2824 4.45218,-7.91224 7.73205,-10.91421 3.27336,-3.002 7.15893,-5.30843 11.65194,-6.93665 4.5134,-1.61126 9.38762,-2.44231 14.62524,-2.44231 5.24939,0 10.11709,0.83105 14.60619,2.44231 4.5082,1.62822 8.41241,3.93465 11.72011,6.93665 3.32067,3.00197 5.90712,6.63181 7.78112,10.91421 1.86222,4.28243 2.80704,9.06548 2.80704,14.38256 0,5.30843 -0.94482,10.14227 -2.80704,14.51803 -1.874,4.38446 -4.46045,8.1072 -7.78112,11.20255 -3.3077,3.08665 -7.21191,5.47816 -11.72011,7.15717 -4.4891,1.68772 -9.3568,2.53569 -14.60619,2.53569 -5.23762,0 -10.11184,-0.84797 -14.62524,-2.53569 -4.49301,-1.67901 -8.37858,-4.07052 -11.65194,-7.15717 -3.27987,-3.09535 -5.85462,-6.81809 -7.73205,-11.20255 -1.87614,-4.37576 -2.80704,-9.2096 -2.80704,-14.51803" /><path
   inkscape:connector-curvature="0"
   id="path44"
   style="fill:#ffffff;fill-opacity:1;fill-rule:nonzero;stroke:none;stroke-width:0.43419027"
   d="m 422.77247,176.96068 1.03471,37.4741 h -20.79905 v -66.32431 h 29.16327 l 12.01838,35.69348 h 0.46458 l 10.40755,-35.69348 h 30.11544 v 66.32431 h -21.73559 l 0.65563,-37.28785 -0.56008,-0.0929 -12.37444,37.38074 h -15.74371 l -12.17686,-37.4741 h -0.46983" /><path
   inkscape:connector-curvature="0"
   id="path46"
   style="fill:#ffffff;fill-opacity:1;fill-rule:nonzero;stroke:none;stroke-width:0.43419027"
   d="m 530.77165,171.24499 -5.43171,16.40936 h 10.78096 z m -11.52341,-23.13452 h 23.70245 l 25.86039,66.32431 h -24.25387 l -3.47787,-9.72674 h -21.07561 l -3.27811,9.72674 h -23.61563 l 26.13825,-66.32431" /><path
   inkscape:connector-curvature="0"
   id="path48"
   style="fill:#ffffff;fill-opacity:1;fill-rule:nonzero;stroke:none;stroke-width:0.43419027"
   d="m 576.65255,148.11047 h 22.21752 l 18.92636,33.64151 h 0.36472 l -0.92919,-33.64151 h 21.17547 v 66.32431 h -22.7646 L 597.27225,182.7697 h -0.36472 l 0.93784,31.66508 h -21.19282 v -66.32431" /><path
   inkscape:connector-curvature="0"
   id="path50"
   style="fill:#ffffff;fill-opacity:1;fill-rule:nonzero;stroke:none;stroke-width:0.43419027"
   d="m 672.21785,167.03856 v 28.18849 h 4.12045 c 5.2537,0 9.27865,-1.11935 12.10523,-3.40883 2.79619,-2.2643 4.1986,-5.9788 4.1986,-11.14347 0,-4.29068 -1.40241,-7.64047 -4.1986,-10.04065 -2.82658,-2.39979 -6.56497,-3.59554 -11.25424,-3.59554 z m -21.45338,47.39622 v -66.32431 h 24.74019 c 5.245,0 10.25124,0.52581 15.03598,1.53529 4.78478,1.03425 8.99644,2.82397 12.64364,5.35095 3.65587,2.5357 6.58667,5.89373 8.76197,10.07453 2.19698,4.18907 3.28686,9.46403 3.28686,15.83274 0,5.80904 -1.04209,10.82914 -3.13056,15.0864 -2.09713,4.24027 -4.9107,7.71686 -8.4016,10.44747 -3.48221,2.7137 -7.53319,4.73225 -12.08351,6.04653 -4.55463,1.29735 -9.30905,1.9504 -14.22404,1.9504 h -26.62893" /><path
   inkscape:connector-curvature="0"
   id="path52"
   style="fill:#ffffff;fill-opacity:1;fill-rule:nonzero;stroke:none;stroke-width:0.43419027"
   d="m 724.60723,148.11047 h 45.62908 v 18.55511 h -24.63597 v 5.70701 h 23.12929 v 17.34243 h -23.12929 v 6.17376 h 26.22074 v 18.546 h -47.21385 v -66.32431" /></svg>