<?xml version="1.0" encoding="UTF-8" standalone="no"?>
<svg
   xmlns:dc="http://purl.org/dc/elements/1.1/"
   xmlns:cc="http://creativecommons.org/ns#"
   xmlns:rdf="http://www.w3.org/1999/02/22-rdf-syntax-ns#"
   xmlns:svg="http://www.w3.org/2000/svg"
   xmlns="http://www.w3.org/2000/svg"
   xmlns:sodipodi="http://sodipodi.sourceforge.net/DTD/sodipodi-0.dtd"
   xmlns:inkscape="http://www.inkscape.org/namespaces/inkscape"
   id="Calque_1"
   data-name="Calque 1"
   viewBox="0 0 800.00002 293.86881"
   version="1.1"
   sodipodi:docname="1.svg"
   inkscape:version="0.92.2 2405546, 2018-03-11"
   width="800"
   height="293.8688"
   inkscape:export-filename="/home/raphael/Documents/FabLab/website/fab-manager/public/support/assets/logo-sponsoring/1.png"
   inkscape:export-xdpi="96"
   inkscape:export-ydpi="96">
  <metadata
     id="metadata99">
    <rdf:RDF>
      <cc:Work
         rdf:about="">
        <dc:format>image/svg+xml</dc:format>
        <dc:type
           rdf:resource="http://purl.org/dc/dcmitype/StillImage" />
        <dc:title>fablab logo cdf</dc:title>
      </cc:Work>
    </rdf:RDF>
  </metadata>
  <sodipodi:namedview
     pagecolor="#ffffff"
     bordercolor="#666666"
     borderopacity="1"
     objecttolerance="10"
     gridtolerance="10"
     guidetolerance="10"
     inkscape:pageopacity="0"
     inkscape:pageshadow="2"
     inkscape:window-width="1920"
     inkscape:window-height="1016"
     id="namedview97"
     showgrid="false"
     inkscape:zoom="1.2279464"
     inkscape:cx="446.27356"
     inkscape:cy="52.053024"
     inkscape:window-x="0"
     inkscape:window-y="27"
     inkscape:window-maximized="1"
     inkscape:current-layer="Calque_1"
     fit-margin-top="0"
     fit-margin-left="0"
     fit-margin-right="0"
     fit-margin-bottom="0" />
  <defs
     id="defs4">
    <style
       id="style2">.cls-1{fill:blue;}</style>
  </defs>
  <title
     id="title6">fablab logo cdf</title>
  <g
     id="g904"
     transform="scale(2.8228652)">
    <polygon
       style="fill:#0b1783;fill-opacity:1"
       id="polygon8"
       points="62.1,103.9 64.4,97.5 64.7,103.9 66.2,103.9 65.6,95 63.9,95 61.4,101.9 59,95 57.3,95 56.7,103.9 58,103.9 58.3,97.6 58.4,97.6 60.5,103.9 "
       class="cls-1" />
    <polygon
       style="fill:#0b1783;fill-opacity:1"
       id="polygon10"
       points="74.7,102.6 74.7,100 77.3,100 77.3,98.7 74.7,98.7 74.7,96.3 77.7,96.3 77.7,95 73.1,95 73.1,103.9 77.8,103.9 77.8,102.6 "
       class="cls-1" />
    <polygon
       style="fill:#0b1783;fill-opacity:1"
       id="polygon12"
       points="89.8,95 83.3,95 83.3,96.3 85.7,96.3 85.7,103.9 87.3,103.9 87.3,96.3 89.8,96.3 "
       class="cls-1" />
    <path
       style="fill:#0b1783;fill-opacity:1"
       id="path14"
       transform="translate(-824.9,-354.6)"
       d="m 922.3,454.8 h 0.8 l 2.3,3.9 1.4,-0.6 -2.4,-3.8 a 2.8,2.8 0 0 0 1.6,-2.5 c 0,-1.5 -1.1,-2.3 -3,-2.3 a 16.3,16.3 0 0 0 -2.3,0.2 v 8.8 h 1.6 z m -0.1,-4.1 h 0.7 c 1,0 1.7,0.3 1.6,1.3 0,1.2 -1,1.7 -2.1,1.7 h -0.2 z"
       class="cls-1"
       inkscape:connector-curvature="0" />
    <path
       style="fill:#0b1783;fill-opacity:1"
       id="path16"
       transform="translate(-824.9,-354.6)"
       d="m 940.6,454.1 c 0,-2.3 -1,-4.6 -4.1,-4.6 -3.1,0 -4.1,2.3 -4.1,4.6 0,2.3 1,4.6 4.1,4.6 3.1,0 4.1,-2.4 4.1,-4.6 z m -4.1,3.3 c -1.7,0 -2.5,-1.3 -2.5,-3.3 0,-2 0.8,-3.3 2.5,-3.3 1.7,0 2.5,1.2 2.5,3.3 0,2.1 -0.8,3.3 -2.5,3.3 z"
       class="cls-1"
       inkscape:connector-curvature="0" />
    <path
       style="fill:#0b1783;fill-opacity:1"
       id="path18"
       transform="translate(-824.9,-354.6)"
       d="m 952.2,451.9 c 0,-1.6 -1.1,-2.4 -3,-2.4 a 14.54,14.54 0 0 0 -2.3,0.2 v 8.8 h 1.6 v -3.4 h 0.2 c 2,0 3.6,-1.2 3.5,-3.2 z m -3.5,2 h -0.2 v -3.2 h 0.7 a 1.33,1.33 0 0 1 1.6,1.4 1.87,1.87 0 0 1 -2.1,1.8 z"
       class="cls-1"
       inkscape:connector-curvature="0" />
    <path
       style="fill:#0b1783;fill-opacity:1"
       id="path20"
       transform="translate(-824.9,-354.6)"
       d="m 962.3,449.5 c -3,0 -4.1,2.3 -4.1,4.6 0,2.3 1,4.6 4.1,4.6 3.1,0 4.1,-2.4 4.1,-4.6 0,-2.2 -1,-4.6 -4.1,-4.6 z m 0,7.9 c -1.7,0 -2.5,-1.3 -2.5,-3.3 0,-2 0.8,-3.3 2.5,-3.3 1.7,0 2.5,1.2 2.5,3.3 0,2.1 -0.8,3.3 -2.5,3.3 z"
       class="cls-1"
       inkscape:connector-curvature="0" />
    <polygon
       style="fill:#0b1783;fill-opacity:1"
       id="polygon22"
       points="148.1,95 148.1,103.9 153,103.9 153,102.6 149.7,102.6 149.7,95 "
       class="cls-1" />
    <polygon
       style="fill:#0b1783;fill-opacity:1"
       id="polygon24"
       points="158.8,103.9 163.6,103.9 163.6,102.6 160.4,102.6 160.4,100 163.1,100 163.1,98.7 160.4,98.7 160.4,96.3 163.4,96.3 163.4,95 158.8,95 "
       class="cls-1" />
    <polygon
       style="fill:#0b1783;fill-opacity:1"
       id="polygon26"
       points="185.4,98.7 181.8,98.7 181.8,95 180.2,95 180.2,103.9 181.8,103.9 181.8,100 185.4,100 185.4,103.9 186.9,103.9 186.9,95 185.4,95 "
       class="cls-1" />
    <path
       style="fill:#0b1783;fill-opacity:1"
       id="path28"
       transform="translate(-824.9,-354.6)"
       d="m 1022.1,458.7 c 3,0 4.1,-2.4 4.1,-4.6 0,-2.2 -1,-4.6 -4.1,-4.6 -3.1,0 -4.1,2.3 -4.1,4.6 0,2.3 1,4.6 4.1,4.6 z m 0,-7.9 c 1.7,0 2.4,1.2 2.5,3.3 0.1,2.1 -0.8,3.3 -2.5,3.3 -1.7,0 -2.5,-1.3 -2.5,-3.3 0,-2 0.8,-3.3 2.5,-3.3 z"
       class="cls-1"
       inkscape:connector-curvature="0" />
    <path
       style="fill:#0b1783;fill-opacity:1"
       id="path30"
       transform="translate(-824.9,-354.6)"
       d="m 1037.5,451.8 c 0,-1.5 -1.1,-2.3 -3,-2.3 a 16.31,16.31 0 0 0 -2.3,0.2 v 8.8 h 1.6 v -3.7 h 0.8 l 2.3,3.9 1.4,-0.6 -2.4,-3.8 a 2.8,2.8 0 0 0 1.6,-2.5 z m -3.5,1.9 h -0.2 v -3 h 0.7 c 0.9,0 1.6,0.3 1.6,1.3 0,1.2 -1,1.7 -2.1,1.7 z"
       class="cls-1"
       inkscape:connector-curvature="0" />
    <polygon
       style="fill:#0b1783;fill-opacity:1"
       id="polygon32"
       points="223.9,103.9 223.9,102.6 220.6,102.6 220.6,95 219.1,95 219.1,103.9 "
       class="cls-1" />
    <path
       style="fill:#0b1783;fill-opacity:1"
       id="path34"
       transform="translate(-824.9,-354.6)"
       d="m 1058,449.5 c -3,0 -4.1,2.3 -4.1,4.6 0,2.3 1,4.6 4.1,4.6 3.1,0 4.1,-2.4 4.1,-4.6 0,-2.2 -1,-4.6 -4.1,-4.6 z m 0,7.9 c -1.7,0 -2.5,-1.3 -2.5,-3.3 0,-2 0.8,-3.3 2.5,-3.3 1.7,0 2.5,1.2 2.5,3.3 0,2.1 -0.8,3.3 -2.5,3.3 z"
       class="cls-1"
       inkscape:connector-curvature="0" />
    <path
       style="fill:#0b1783;fill-opacity:1"
       id="path36"
       transform="translate(-824.9,-354.6)"
       d="m 1072.4,450.8 a 4.23,4.23 0 0 1 2,0.5 l 0.5,-1.4 a 6.18,6.18 0 0 0 -2.5,-0.5 4.49,4.49 0 0 0 -4.7,4.8 c 0,2.9 1.7,4.5 4,4.5 a 9,9 0 0 0 3.2,-0.5 v -4.1 h -1.6 v 3 a 5.84,5.84 0 0 1 -1,0.1 c -2,0 -2.9,-1.1 -2.9,-3.3 a 2.86,2.86 0 0 1 3,-3.1 z"
       class="cls-1"
       inkscape:connector-curvature="0" />
    <polygon
       style="fill:#0b1783;fill-opacity:1"
       id="polygon38"
       points="257.8,98.7 257.8,96.3 260.8,96.3 260.8,95 256.2,95 256.2,103.9 261,103.9 261,102.6 257.8,102.6 257.8,100 260.5,100 260.5,98.7 "
       class="cls-1" />
    <polygon
       style="fill:#0b1783;fill-opacity:1"
       id="polygon40"
       points="257.1,90.7 256.4,91.8 259.2,93.4 259.8,92.5 "
       class="cls-1" />
    <path
       style="fill:#0b1783;fill-opacity:1"
       id="path42"
       transform="translate(-824.9,-354.6)"
       d="m 1097.1,451.8 c 0,-1.5 -1.1,-2.3 -3,-2.3 a 16.3,16.3 0 0 0 -2.3,0.2 v 8.8 h 1.6 v -3.7 h 0.8 l 2.3,3.9 1.4,-0.6 -2.4,-3.8 a 2.8,2.8 0 0 0 1.6,-2.5 z m -3.6,1.9 h -0.2 v -3 h 0.7 c 1,0 1.7,0.3 1.6,1.3 0,1.2 -1,1.7 -2.1,1.7 z"
       class="cls-1"
       inkscape:connector-curvature="0" />
    <polygon
       style="fill:#0b1783;fill-opacity:1"
       id="polygon44"
       points="282.9,98.7 280.2,98.7 280.2,96.3 283.2,96.3 283.2,95 278.7,95 278.7,103.9 283.4,103.9 283.4,102.6 280.2,102.6 280.2,100 282.9,100 "
       class="cls-1" />
    <polygon
       style="fill:#0b1783;fill-opacity:1"
       id="polygon46"
       points="11.2,82.2 11.2,79.5 3.5,79.5 3.5,61.8 0.3,61.8 0.3,82.2 "
       class="cls-1" />
    <path
       style="fill:#0b1783;fill-opacity:1"
       id="path48"
       transform="translate(-824.9,-354.6)"
       d="m 849.7,425.7 c 0,-3.1 -2.2,-5.1 -5.5,-5.1 a 9.26,9.26 0 0 0 -5,1.4 l -0.1,0.1 1.1,2.3 0.2,-0.1 a 7,7 0 0 1 3.2,-0.9 c 2.2,0 3.1,1.1 3.1,3.5 l -2.7,0.3 a 6.06,6.06 0 0 0 -5.6,5.9 c 0,2.6 1.7,4.2 4.4,4.2 a 6,6 0 0 0 4.2,-1.8 l 0.2,1.7 3.1,-0.5 -0.6,-3.6 z m -3.1,7.6 a 4.69,4.69 0 0 1 -3.3,1.3 1.89,1.89 0 0 1 -2,-2 3.57,3.57 0 0 1 3,-3.4 l 2.3,-0.3 z"
       class="cls-1"
       inkscape:connector-curvature="0" />
    <path
       style="fill:#0b1783;fill-opacity:1"
       id="path50"
       transform="translate(-824.9,-354.6)"
       d="m 876.5,433.2 a 10.37,10.37 0 0 1 -4.2,1.2 c -4.7,0 -6.8,-2.5 -6.8,-8 0,-5.1 3.4,-7.4 6.6,-7.4 a 10,10 0 0 1 4.2,1 l 0.2,0.1 1.2,-2.8 -0.2,-0.1 a 12.15,12.15 0 0 0 -5.4,-1.1 c -6,0 -9.9,4.3 -9.9,11 0,6.2 3.5,10.1 9,10.1 a 12.88,12.88 0 0 0 6.4,-1.4 l 0.2,-0.1 -1.1,-2.6 z"
       class="cls-1"
       inkscape:connector-curvature="0" />
    <path
       style="fill:#0b1783;fill-opacity:1"
       id="path52"
       transform="translate(-824.9,-354.6)"
       d="m 889,420.4 a 7.15,7.15 0 0 0 -4.3,1.6 v -8.4 l -3.6,0.5 0.5,3.6 v 19.1 h 3.1 v -12.2 a 4.81,4.81 0 0 1 3.3,-1.4 c 2,0 2.9,1 3.1,3.6 v 10.3 l 2.8,-0.3 v -11.3 c 0,-3.2 -1.8,-5.1 -4.9,-5.1 z"
       class="cls-1"
       inkscape:connector-curvature="0" />
    <path
       style="fill:#0b1783;fill-opacity:1"
       id="path54"
       transform="translate(-824.9,-354.6)"
       d="m 907.1,435.4 0.2,1.7 3,-0.5 -0.5,-3.6 v -7.4 c 0,-3.1 -2.2,-5.1 -5.5,-5.1 a 9.26,9.26 0 0 0 -5,1.4 l -0.1,0.1 1.1,2.3 0.2,-0.1 a 7,7 0 0 1 3.2,-0.9 c 2.2,0 3.1,1 3.1,3.5 l -2.7,0.3 a 6.06,6.06 0 0 0 -5.6,5.9 c 0,2.6 1.7,4.2 4.4,4.2 a 6,6 0 0 0 4.2,-1.8 z m -5.6,-2.7 a 3.51,3.51 0 0 1 3,-3.4 l 2.3,-0.3 v 4.4 a 4.87,4.87 0 0 1 -3.3,1.3 1.89,1.89 0 0 1 -2,-2 z"
       class="cls-1"
       inkscape:connector-curvature="0" />
    <path
       style="fill:#0b1783;fill-opacity:1"
       id="path56"
       transform="translate(-824.9,-354.6)"
       d="m 925.5,437.2 3,-0.5 -0.5,-3.6 v -12.6 l -3.6,0.5 0.5,3.6 v 8.4 a 4.68,4.68 0 0 1 -3.4,1.4 c -1.9,0 -2.8,-1 -2.8,-3.3 v -10.6 l -3.6,0.5 0.5,3.6 v 7.5 a 4.75,4.75 0 0 0 5,5.1 7.07,7.07 0 0 0 4.6,-1.7 z"
       class="cls-1"
       inkscape:connector-curvature="0" />
    <polygon
       style="fill:#0b1783;fill-opacity:1"
       id="polygon58"
       points="120.4,81.4 115.1,73.7 120.2,66.3 116.9,66.3 113.6,71.5 109.7,65.7 107.1,67.1 111.9,74 106.3,82.2 109.6,82.2 113.4,76.3 117.8,82.9 "
       class="cls-1" />
    <rect
       style="fill:#0b1783;fill-opacity:1"
       id="rect60"
       height="2.3"
       width="8.1999998"
       y="73.5"
       x="122.1"
       class="cls-1" />
    <path
       style="fill:#0b1783;fill-opacity:1"
       id="path62"
       transform="translate(-824.9,-354.6)"
       d="m 971.6,433.1 v -19.3 l -3.6,0.5 0.5,3.6 v 3.1 a 10.32,10.32 0 0 0 -2,-0.2 c -4.9,0 -7.8,3.3 -7.8,8.8 0,4.6 2.4,7.6 6,7.6 a 6.72,6.72 0 0 0 4.2,-1.6 l 0.2,1.5 3,-0.4 z m -3.1,0.3 a 4.47,4.47 0 0 1 -2.9,1.1 c -2.6,0 -3.8,-1.8 -3.8,-5.8 0,-2.5 1.1,-5.4 4.4,-5.4 a 6.34,6.34 0 0 1 2.3,0.4 z"
       class="cls-1"
       inkscape:connector-curvature="0" />
    <path
       style="fill:#0b1783;fill-opacity:1"
       id="path64"
       transform="translate(-824.9,-354.6)"
       d="m 983.2,437.2 a 11.36,11.36 0 0 0 5.2,-1.2 l 0.1,-0.1 -1.1,-2.4 -0.2,0.1 a 7.81,7.81 0 0 1 -3.4,0.9 c -3.2,0 -4.7,-1.8 -4.8,-5.8 h 9.7 v -2 c 0,-3.9 -2.4,-6.1 -6,-6.1 -4,0 -6.7,3.3 -6.7,8.2 0,5.4 2.5,8.4 7.2,8.4 z M 982.5,423 a 3.05,3.05 0 0 1 3.2,3.4 h -6.6 c 0.4,-2.1 1.7,-3.4 3.4,-3.4 z"
       class="cls-1"
       inkscape:connector-curvature="0" />
    <rect
       style="fill:#0b1783;fill-opacity:1"
       id="rect66"
       height="2.3"
       width="8.3000002"
       y="73.5"
       x="167.2"
       class="cls-1" />
    <polygon
       style="fill:#0b1783;fill-opacity:1"
       id="polygon68"
       points="190.1,73.7 190.1,71 183.5,71 183.5,64.6 190.8,64.6 190.8,61.8 180.3,61.8 180.3,82.2 183.5,82.2 183.5,73.7 "
       class="cls-1" />
    <path
       style="fill:#0b1783;fill-opacity:1"
       id="path70"
       transform="translate(-824.9,-354.6)"
       d="m 1025.3,437.2 c 4.3,0 7,-3.2 6.9,-8.3 0,-5.4 -2.4,-8.3 -6.9,-8.3 -4.2,0 -6.9,3.2 -6.9,8.3 0,5.4 2.4,8.3 6.9,8.3 z m 0,-14 c 2.5,0 3.8,1.9 3.8,5.6 0,3.7 -1.2,5.6 -3.8,5.6 -2.6,0 -3.8,-1.9 -3.8,-5.7 0,-3.8 1.2,-5.5 3.8,-5.5 z"
       class="cls-1"
       inkscape:connector-curvature="0" />
    <path
       style="fill:#0b1783;fill-opacity:1"
       id="path72"
       transform="translate(-824.9,-354.6)"
       d="m 1044.2,420.4 a 6.67,6.67 0 0 0 -4.6,1.8 l -0.2,-1.7 -3,0.5 0.5,3.6 v 12.2 h 3.1 v -12.2 a 4.85,4.85 0 0 1 3.4,-1.4 c 1.9,0 2.8,1 2.8,3.3 v 10.3 h 3 v -11.3 a 4.75,4.75 0 0 0 -5,-5.1 z"
       class="cls-1"
       inkscape:connector-curvature="0" />
    <path
       style="fill:#0b1783;fill-opacity:1"
       id="path74"
       transform="translate(-824.9,-354.6)"
       d="m 1066.8,413.8 -3.6,0.5 0.5,3.6 v 3.1 a 10.32,10.32 0 0 0 -2,-0.2 c -4.9,0 -7.8,3.3 -7.8,8.8 0,4.6 2.4,7.6 6,7.6 a 6.52,6.52 0 0 0 4.2,-1.6 l 0.2,1.5 3,-0.4 -0.5,-3.6 z m -3,19.6 a 4.47,4.47 0 0 1 -2.9,1.1 c -2.6,0 -3.8,-1.8 -3.8,-5.8 0,-2.5 1.1,-5.4 4.4,-5.4 a 6.34,6.34 0 0 1 2.3,0.4 z"
       class="cls-1"
       inkscape:connector-curvature="0" />
    <path
       style="fill:#0b1783;fill-opacity:1"
       id="path76"
       transform="translate(-824.9,-354.6)"
       d="m 1079.1,427.9 -3,-1.4 a 2.18,2.18 0 0 1 -1.5,-1.8 c 0,-1.1 0.9,-1.7 2.7,-1.7 a 8,8 0 0 1 3.3,0.8 l 0.2,0.1 1,-2.6 -0.2,-0.1 a 10.76,10.76 0 0 0 -4.4,-0.8 c -2.8,0 -5.7,1.5 -5.7,4.6 a 4.47,4.47 0 0 0 3,4.3 l 2.9,1.3 c 1,0.5 1.5,0.9 1.5,1.9 0,1.7 -1.8,2 -2.9,2 a 8.62,8.62 0 0 1 -3.5,-0.9 l -0.2,-0.1 -0.9,2.7 0.2,0.1 a 10.47,10.47 0 0 0 4.6,0.9 c 3.5,0 5.9,-2.1 6,-5.2 0,-1.8 -1,-3.1 -3.1,-4.1 z"
       class="cls-1"
       inkscape:connector-curvature="0" />
    <path
       style="fill:#0b1783;fill-opacity:1"
       id="path78"
       transform="translate(-824.9,-354.6)"
       d="m 977.9,363.7 h 33 c 0.9,0 1.1,-0.5 0.5,-1.1 -0.1,0 -7.3,-8 -17.2,-8 -9.9,0 -16.8,8 -16.8,8 -0.6,0.6 -0.4,1.1 0.5,1.1 z"
       class="cls-1"
       inkscape:connector-curvature="0" />
    <rect
       style="fill:#0b1783;fill-opacity:1"
       id="rect80"
       ry="1.1"
       rx="1.1"
       height="7.3000002"
       width="34.799999"
       y="14.8"
       x="152"
       class="cls-1" />
    <path
       style="fill:#0b1783;fill-opacity:1"
       id="path82"
       transform="translate(-824.9,-354.6)"
       d="M 937.3,376.6 H 970 a 0.94,0.94 0 0 0 1,-1 v -5.2 a 1,1 0 0 0 -1,-1 h -32.7 a 1,1 0 0 0 -1,1 v 5.2 a 1,1 0 0 0 1,1 z"
       class="cls-1"
       inkscape:connector-curvature="0" />
    <rect
       style="fill:#0b1783;fill-opacity:1"
       id="rect84"
       ry="1.1"
       rx="1.1"
       height="7.3000002"
       width="34.799999"
       y="27.6"
       x="152"
       class="cls-1" />
    <path
       style="fill:#0b1783;fill-opacity:1"
       id="path86"
       transform="translate(-824.9,-354.6)"
       d="M 919.7,389.4 H 970 a 1,1 0 0 0 1,-1 v -5.2 a 1,1 0 0 0 -1,-1 h -50.3 a 1,1 0 0 0 -1,1 v 5.2 a 1,1 0 0 0 1,1 z"
       class="cls-1"
       inkscape:connector-curvature="0" />
    <path
       style="fill:#0b1783;fill-opacity:1"
       id="path88"
       transform="translate(-824.9,-354.6)"
       d="m 911.7,389.4 a 1,1 0 0 0 1,-1 v -5.2 a 1,1 0 0 0 -1,-1 h -85.8 a 1,1 0 0 0 -1,1 v 5.2 a 1,1 0 0 0 1,1 z"
       class="cls-1"
       inkscape:connector-curvature="0" />
    <rect
       style="fill:#0b1783;fill-opacity:1"
       id="rect90"
       ry="1.1"
       rx="1.1"
       height="7.3000002"
       width="34.799999"
       y="40.400002"
       x="152"
       class="cls-1" />
    <path
       style="fill:#0b1783;fill-opacity:1"
       id="path92"
       transform="translate(-824.9,-354.6)"
       d="M 971,401.2 V 396 a 1,1 0 0 0 -1,-1 h -87.5 a 1,1 0 0 0 -1,1 v 5.2 a 1,1 0 0 0 1,1 H 970 a 1,1 0 0 0 1,-1 z"
       class="cls-1"
       inkscape:connector-curvature="0" />
    <polygon
       style="fill:#0b1783;fill-opacity:1"
       id="polygon94"
       points="77.4,91.8 76.7,90.8 74,92.6 74.6,93.4 "
       class="cls-1" />
  </g>
</svg>
