<?xml version="1.0" encoding="UTF-8" standalone="no"?>
<svg
   xmlns:dc="http://purl.org/dc/elements/1.1/"
   xmlns:cc="http://creativecommons.org/ns#"
   xmlns:rdf="http://www.w3.org/1999/02/22-rdf-syntax-ns#"
   xmlns:svg="http://www.w3.org/2000/svg"
   xmlns="http://www.w3.org/2000/svg"
   xmlns:sodipodi="http://sodipodi.sourceforge.net/DTD/sodipodi-0.dtd"
   xmlns:inkscape="http://www.inkscape.org/namespaces/inkscape"
   viewBox="0 0 800.00004 176.83624"
   version="1.1"
   id="svg57"
   sodipodi:docname="2.svg"
   width="800"
   height="176.83624"
   inkscape:version="0.92.2 2405546, 2018-03-11"
   inkscape:export-filename="/home/raphael/Documents/FabLab/website/fab-manager/public/support/assets/logo-sponsoring/2.png"
   inkscape:export-xdpi="96"
   inkscape:export-ydpi="96">
  <metadata
     id="metadata61">
    <rdf:RDF>
      <cc:Work
         rdf:about="">
        <dc:format>image/svg+xml</dc:format>
        <dc:type
           rdf:resource="http://purl.org/dc/dcmitype/StillImage" />
        <dc:title>Plan de travail 1</dc:title>
      </cc:Work>
    </rdf:RDF>
  </metadata>
  <sodipodi:namedview
     pagecolor="#ffffff"
     bordercolor="#666666"
     borderopacity="1"
     objecttolerance="10"
     gridtolerance="10"
     guidetolerance="10"
     inkscape:pageopacity="0"
     inkscape:pageshadow="2"
     inkscape:window-width="1920"
     inkscape:window-height="1016"
     id="namedview59"
     showgrid="false"
     fit-margin-top="0"
     fit-margin-left="0"
     fit-margin-right="0"
     fit-margin-bottom="0"
     inkscape:zoom="1.2276865"
     inkscape:cx="-22.357178"
     inkscape:cy="28.220269"
     inkscape:window-x="0"
     inkscape:window-y="27"
     inkscape:window-maximized="1"
     inkscape:current-layer="svg57" />
  <defs
     id="defs4">
    <style
       id="style2">.cls-1{fill:blue;}</style>
  </defs>
  <title
     id="title6">Plan de travail 1</title>
  <g
     id="g864"
     transform="scale(3.0181846)">
    <path
       class="cls-1"
       d="M 31.34,30.03 A 23.8,23.8 0 0 0 35.91,15.56 22.89,22.89 0 0 0 31.16,1.08 H 17.68 a 24.66,24.66 0 0 1 5,14.48 c 0,8.16 -5.22,14.47 -5.22,14.47 z"
       id="path8"
       inkscape:connector-curvature="0"
       style="fill:#0b1783;fill-opacity:1" />
    <path
       class="cls-1"
       d="m 40.17,1.08 a 24.77,24.77 0 0 1 4.74,14.77 c -0.15,9.69 -3.46,17.43 -11.16,24.7 H 49.32 A 36.05,36.05 0 0 0 58.39,15.85 24,24 0 0 0 53.64,1.07 Z"
       id="path10"
       inkscape:connector-curvature="0"
       style="fill:#0b1783;fill-opacity:1" />
    <path
       class="cls-1"
       d="m 83.03,40.57 c -7.7,-7.27 -11,-15 -11.16,-24.7 A 24.71,24.71 0 0 1 76.61,1.09 H 63.13 a 24,24 0 0 0 -4.74,14.76 36,36 0 0 0 9.1,24.72 z"
       id="path12"
       inkscape:connector-curvature="0"
       style="fill:#0b1783;fill-opacity:1" />
    <rect
       class="cls-1"
       x="1.3899996"
       y="1.0799996"
       width="13.86"
       height="39.470001"
       id="rect14"
       style="fill:#0b1783;fill-opacity:1" />
    <path
       class="cls-1"
       d="m 223.66,26.38 c 0,7 -3.48,12.64 -11.39,12.64 -7.91,0 -11.33,-5.64 -11.33,-12.64 V 0.76 h -3 v 25.56 c 0,8.88 4.61,15.54 14.29,15.54 9.68,0 14.35,-6.66 14.35,-15.54 V 0.76 h -3 z"
       id="path16"
       inkscape:connector-curvature="0"
       style="fill:#0b1783;fill-opacity:1" />
    <path
       class="cls-1"
       d="m 251.62,0.76 h -14 v 40.36 h 3 V 24.55 h 11 c 7.74,0 13.44,-3.76 13.44,-11.9 0,-8.14 -5.7,-11.89 -13.44,-11.89 z m 0,21 h -11 V 3.6 h 11 c 5.92,0 10.36,2.73 10.36,9.05 0,6.32 -4.49,9.06 -10.36,9.06 z"
       id="path18"
       inkscape:connector-curvature="0"
       style="fill:#0b1783;fill-opacity:1" />
    <path
       class="cls-1"
       d="m 112.59,41.12 h 2.22 V 20.23 H 99.9 v 2.9 h 11.9 c 0,4.44 -0.29,9.22 -3.53,12.64 a 11.25,11.25 0 0 1 -8.09,3.19 11.61,11.61 0 0 1 -8.25,-3.11 c -3.82,-3.61 -4.44,-10 -4.44,-14.88 0,-4.88 0.62,-11 4.38,-14.74 a 11.64,11.64 0 0 1 8.37,-3.3 c 3.47,0 6.72,0.8 8.83,3.07 a 9.72,9.72 0 0 1 2.67,6 h 3 C 114.17,5.05 108.48,0 100.17,0 A 15.32,15.32 0 0 0 89.49,4.4 c -4.38,4.33 -5.13,10.76 -5.13,16.57 0,5.81 0.8,12.36 5.13,16.62 a 15.12,15.12 0 0 0 10.69,4.26 c 4.84,0 9.68,-2.62 11.78,-6.95 z"
       id="path20"
       inkscape:connector-curvature="0"
       style="fill:#0b1783;fill-opacity:1" />
    <path
       class="cls-1"
       d="m 153.41,12.37 c 0,-7 -4.78,-11.61 -13.61,-11.61 h -14.74 v 40.36 h 3 v -17.2 h 14.06 l 7.91,17.19 h 3.25 l -8.2,-17.93 a 10.93,10.93 0 0 0 8.33,-10.81 z M 139.8,21.2 H 128.02 V 3.55 h 11.78 c 6.66,0 10.53,3.07 10.53,8.82 0,5.75 -3.84,8.82 -10.53,8.82 z"
       id="path22"
       inkscape:connector-curvature="0"
       style="fill:#0b1783;fill-opacity:1" />
    <path
       class="cls-1"
       d="m 174.42,0.02 a 14.71,14.71 0 0 0 -10.36,4.1 c -4.55,4.38 -5.07,11 -5.07,16.79 0,5.79 0.52,12.47 5.07,16.85 a 15.15,15.15 0 0 0 20.72,0 c 4.55,-4.38 5.07,-11 5.07,-16.85 0,-5.85 -0.51,-12.41 -5.07,-16.79 a 14.7,14.7 0 0 0 -10.36,-4.1 z m 8.2,35.83 a 12.28,12.28 0 0 1 -16.4,0 c -4,-3.81 -4.16,-10.14 -4.16,-14.91 0,-4.77 0.17,-11 4.16,-14.86 a 12.3,12.3 0 0 1 16.4,0 c 4,3.81 4.16,10.08 4.16,14.86 0,4.78 -0.18,11.07 -4.16,14.91 z"
       id="path24"
       inkscape:connector-curvature="0"
       style="fill:#0b1783;fill-opacity:1" />
    <polygon
       transform="translate(-8.51,-12.15)"
       class="cls-1"
       points="14.14,61.3 16.35,67.4 17.04,67.4 19.75,58.9 18.74,58.9 16.6,65.7 14.14,58.77 11.65,65.7 9.51,58.9 8.51,58.9 11.23,67.4 11.96,67.4 "
       id="polygon26"
       style="fill:#0b1783;fill-opacity:1" />
    <polygon
       transform="translate(-8.51,-12.15)"
       class="cls-1"
       points="26.39,61.3 28.6,67.4 29.3,67.4 32,58.9 31,58.9 28.86,65.7 26.39,58.77 23.91,65.7 21.77,58.9 20.77,58.9 23.49,67.4 24.22,67.4 "
       id="polygon28"
       style="fill:#0b1783;fill-opacity:1" />
    <polygon
       transform="translate(-8.51,-12.15)"
       class="cls-1"
       points="38.65,61.3 40.86,67.4 41.56,67.4 44.26,58.9 43.26,58.9 41.12,65.7 38.65,58.77 36.17,65.7 34.03,58.9 33.02,58.9 35.74,67.4 36.47,67.4 "
       id="polygon30"
       style="fill:#0b1783;fill-opacity:1" />
    <path
       class="cls-1"
       d="m 37.49,53.35 a 1,1 0 1 0 1,1 1,1 0 0 0 -1,-1 z"
       id="path32"
       inkscape:connector-curvature="0"
       style="fill:#0b1783;fill-opacity:1" />
    <path
       class="cls-1"
       d="m 45.24,46.62 a 4.1,4.1 0 0 0 -3.14,1.33 v -1.2 h -1 v 11.63 h 1 v -4.3 a 4.08,4.08 0 0 0 3.14,1.31 4.39,4.39 0 0 0 0,-8.77 z m 0,7.87 a 3.48,3.48 0 0 1 -3.14,-1.7 v -3.55 a 3.5,3.5 0 0 1 3.14,-1.72 3.5,3.5 0 0 1 0,7 z"
       id="path34"
       inkscape:connector-curvature="0"
       style="fill:#0b1783;fill-opacity:1" />
    <polygon
       transform="translate(-8.51,-12.15)"
       class="cls-1"
       points="59.88,67.4 62.74,63.78 65.59,67.4 66.73,67.4 63.32,63.07 66.56,58.9 65.42,58.9 62.74,62.32 60.05,58.9 58.91,58.9 62.16,63.07 58.74,67.4 "
       id="polygon36"
       style="fill:#0b1783;fill-opacity:1" />
    <path
       class="cls-1"
       d="m 67.49,46.75 h -1 v 1.1 a 4,4 0 0 0 -3,-1.23 4.24,4.24 0 0 0 0,8.48 4,4 0 0 0 3.06,-1.25 3.24,3.24 0 0 1 0.26,1.33 c 0,1.82 -1.62,2.52 -3.25,2.52 a 5.72,5.72 0 0 1 -3.18,-0.93 l -0.51,0.82 a 6.66,6.66 0 0 0 3.57,1 c 2.16,0 4.37,-0.94 4.37,-3.4 A 5,5 0 0 0 67.49,53.5 Z m -1,5.8 a 3.37,3.37 0 0 1 -3,1.65 3.34,3.34 0 0 1 0,-6.68 3.34,3.34 0 0 1 3,1.65 z"
       id="path38"
       inkscape:connector-curvature="0"
       style="fill:#0b1783;fill-opacity:1" />
    <path
       class="cls-1"
       d="m 71.6,48.05 v -1.3 h -1 v 8.5 h 1 v -5.81 a 2.57,2.57 0 0 1 2.45,-1.77 2.91,2.91 0 0 1 0.66,0.08 v -1 A 3.12,3.12 0 0 0 74.15,46.7 3,3 0 0 0 71.6,48.05 Z"
       id="path40"
       inkscape:connector-curvature="0"
       style="fill:#0b1783;fill-opacity:1" />
    <path
       class="cls-1"
       d="M 80.14,46.62 A 4.39,4.39 0 1 0 84.49,51 4.31,4.31 0 0 0 80.14,46.62 Z m 0,7.87 A 3.49,3.49 0 1 1 83.49,51 3.36,3.36 0 0 1 80.14,54.49 Z"
       id="path42"
       inkscape:connector-curvature="0"
       style="fill:#0b1783;fill-opacity:1" />
    <path
       class="cls-1"
       d="m 92.49,52.41 a 2.61,2.61 0 0 1 -2.65,2.07 2.27,2.27 0 0 1 -2.35,-2.49 v -5.24 h -1 v 5.37 a 3,3 0 0 0 3.13,3.26 3.41,3.41 0 0 0 2.87,-1.32 v 1.19 h 1 v -8.5 h -1 z"
       id="path44"
       inkscape:connector-curvature="0"
       style="fill:#0b1783;fill-opacity:1" />
    <path
       class="cls-1"
       d="m 100.72,46.62 a 4.1,4.1 0 0 0 -3.14,1.33 v -1.2 h -1 v 11.63 h 1 v -4.3 a 4.08,4.08 0 0 0 3.14,1.31 4.39,4.39 0 0 0 0,-8.77 z m 0,7.87 a 3.48,3.48 0 0 1 -3.14,-1.7 v -3.55 a 3.5,3.5 0 0 1 3.14,-1.72 3.5,3.5 0 0 1 0,7 z"
       id="path46"
       inkscape:connector-curvature="0"
       style="fill:#0b1783;fill-opacity:1" />
    <path
       class="cls-1"
       d="m 107.74,53.35 a 1,1 0 1 0 1,1 1,1 0 0 0 -1,-1 z"
       id="path48"
       inkscape:connector-curvature="0"
       style="fill:#0b1783;fill-opacity:1" />
    <path
       class="cls-1"
       d="m 114.77,47.52 a 3.71,3.71 0 0 1 2.63,1.05 l 0.61,-0.7 a 4.6,4.6 0 0 0 -3.25,-1.26 4.39,4.39 0 0 0 0,8.77 4.6,4.6 0 0 0 3.25,-1.26 l -0.61,-0.7 a 3.71,3.71 0 0 1 -2.63,1.05 3.5,3.5 0 0 1 0,-7 z"
       id="path50"
       inkscape:connector-curvature="0"
       style="fill:#0b1783;fill-opacity:1" />
    <path
       class="cls-1"
       d="m 123.72,46.62 a 4.39,4.39 0 1 0 4.4,4.39 4.31,4.31 0 0 0 -4.4,-4.39 z m 0,7.87 a 3.49,3.49 0 1 1 3.4,-3.48 3.36,3.36 0 0 1 -3.4,3.48 z"
       id="path52"
       inkscape:connector-curvature="0"
       style="fill:#0b1783;fill-opacity:1" />
    <path
       class="cls-1"
       d="m 139.57,46.62 a 3.3,3.3 0 0 0 -2.89,1.56 2.75,2.75 0 0 0 -2.53,-1.56 3.17,3.17 0 0 0 -2.66,1.23 v -1.1 h -1 v 8.5 h 1 v -5.9 a 2.42,2.42 0 0 1 2.36,-1.84 2.21,2.21 0 0 1 2.21,2.5 v 5.24 h 1 v -5.4 a 1.89,1.89 0 0 0 0,-0.31 2.42,2.42 0 0 1 2.38,-2.06 2.2,2.2 0 0 1 2.19,2.5 v 5.27 h 1 v -5.4 a 3,3 0 0 0 -3.06,-3.23 z"
       id="path54"
       inkscape:connector-curvature="0"
       style="fill:#0b1783;fill-opacity:1" />
  </g>
</svg>
