<?xml version="1.0" encoding="UTF-8" standalone="no"?>
<!-- Generator: Adobe Illustrator 21.0.0, SVG Export Plug-In . SVG Version: 6.00 Build 0)  -->

<svg
   xmlns:dc="http://purl.org/dc/elements/1.1/"
   xmlns:cc="http://creativecommons.org/ns#"
   xmlns:rdf="http://www.w3.org/1999/02/22-rdf-syntax-ns#"
   xmlns:svg="http://www.w3.org/2000/svg"
   xmlns="http://www.w3.org/2000/svg"
   xmlns:sodipodi="http://sodipodi.sourceforge.net/DTD/sodipodi-0.dtd"
   xmlns:inkscape="http://www.inkscape.org/namespaces/inkscape"
   version="1.1"
   id="Calque_1"
   x="0px"
   y="0px"
   viewBox="0 0 800.00002 344.90105"
   xml:space="preserve"
   sodipodi:docname="3.svg"
   width="800"
   height="344.90106"
   inkscape:version="0.92.2 2405546, 2018-03-11"><metadata
   id="metadata55"><rdf:RDF><cc:Work
       rdf:about=""><dc:format>image/svg+xml</dc:format><dc:type
         rdf:resource="http://purl.org/dc/dcmitype/StillImage" /><dc:title></dc:title></cc:Work></rdf:RDF></metadata><defs
   id="defs53" /><sodipodi:namedview
   pagecolor="#ffffff"
   bordercolor="#666666"
   borderopacity="1"
   objecttolerance="10"
   gridtolerance="10"
   guidetolerance="10"
   inkscape:pageopacity="0"
   inkscape:pageshadow="2"
   inkscape:window-width="1920"
   inkscape:window-height="1016"
   id="namedview51"
   showgrid="false"
   fit-margin-top="0"
   fit-margin-left="0"
   fit-margin-right="0"
   fit-margin-bottom="0"
   inkscape:zoom="1.1212733"
   inkscape:cx="337.0738"
   inkscape:cy="246.80803"
   inkscape:window-x="0"
   inkscape:window-y="27"
   inkscape:window-maximized="1"
   inkscape:current-layer="g48" />
<style
   type="text/css"
   id="style2">
	.st0{opacity:0.5;}
	.st1{opacity:0.7;}
</style>
<g
   id="g48"
   transform="matrix(3.04414,0,0,3.04414,-505.63165,-806.39269)">
	<polygon
   class="st0"
   points="170.8,355.8 175.6,360.8 210.3,327.1 215.2,322.3 210.4,317.3 176.5,282.5 171.6,287.3 205.5,322.1 "
   id="polygon4"
   style="opacity:0.5;fill:#0b1783;fill-opacity:1" />
	<polygon
   points="166.1,351 170.9,356 200.8,327 205.7,322.2 200.9,317.2 171.8,287.1 166.8,291.9 196,322 "
   id="polygon6"
   style="fill:#0b1783;fill-opacity:1" />
	<polygon
   class="st0"
   points="190.8,269.6 185.9,274.4 219.6,309.1 224.4,314 229.3,309.2 264.2,275.3 259.4,270.4 224.5,304.3 "
   id="polygon8"
   style="opacity:0.5;fill:#0b1783;fill-opacity:1" />
	<polygon
   points="195.6,264.9 190.7,269.7 219.7,299.6 224.5,304.5 229.4,299.7 259.5,270.6 254.7,265.7 224.6,294.8 "
   id="polygon10"
   style="fill:#0b1783;fill-opacity:1" />
	<polygon
   class="st0"
   points="190.8,373.5 185.9,368.7 219.6,334 224.4,329.1 229.3,333.9 264.2,367.8 259.4,372.7 224.5,338.8 "
   id="polygon12"
   style="opacity:0.5;fill:#0b1783;fill-opacity:1" />
	<polygon
   points="195.6,378.2 190.7,373.4 219.7,343.5 224.5,338.6 229.4,343.4 259.5,372.5 254.7,377.4 224.6,348.3 "
   id="polygon14"
   style="fill:#0b1783;fill-opacity:1" />
	<g
   id="g46">
		<path
   class="st1"
   d="m 246.4,321.6 h 5.9 v 0.7 c 0,2 -0.7,3.7 -2,5.1 -1.3,1.4 -3,2.1 -5,2.1 h -0.4 c -0.1,0 -0.1,0 -0.1,0 -1,0 -2.1,-0.3 -3.2,-0.9 -0.9,-0.5 -1.6,-1.2 -2.2,-2 -1.1,-1.6 -1.7,-3.2 -1.7,-4.9 0,-1.2 0.3,-2.4 1,-3.6 1,-1.8 2.5,-3.1 4.4,-3.7 0.8,-0.3 1.5,-0.4 2.2,-0.4 1.4,0 2.5,0.2 3.5,0.7 1,0.4 1.9,1.2 2.8,2.2 l -1.4,1.3 c -1.2,-1.6 -2.8,-2.4 -4.8,-2.4 -1,0 -1.9,0.3 -2.8,0.8 -0.9,0.5 -1.6,1.2 -2.1,2 -0.6,0.9 -0.9,1.9 -0.9,3.1 v 0.1 c 0,1.1 0.3,2.1 0.8,3.1 0.5,1 1.3,1.7 2.2,2.3 0.9,0.5 1.7,0.8 2.6,0.8 0.9,0 1.7,-0.2 2.5,-0.6 0.8,-0.4 1.4,-0.9 1.9,-1.6 0.5,-0.8 0.8,-1.5 0.8,-2.2 h -3.9 v -2 z"
   id="path16"
   inkscape:connector-curvature="0"
   style="opacity:0.7;fill:#0b1783;fill-opacity:1" />
		<path
   class="st1"
   d="m 254.1,314.2 h 2.7 c 1.7,0 3,0.3 3.7,0.8 1.2,0.8 1.7,2 1.7,3.4 0,1.1 -0.3,2 -1,2.8 -0.7,0.8 -1.5,1.3 -2.6,1.4 l 4.7,6.5 h -2.2 l -4.4,-6.3 h -0.8 v 6.3 H 254 v -14.9 z m 1.9,1.7 v 5.4 c 1,0 1.9,-0.1 2.5,-0.2 1.3,-0.3 2,-1.2 2,-2.6 0,-1.8 -1.3,-2.6 -3.9,-2.6 z"
   id="path18"
   inkscape:connector-curvature="0"
   style="opacity:0.7;fill:#0b1783;fill-opacity:1" />
		<path
   class="st1"
   d="m 271.6,313.9 c 2.2,0 4,0.8 5.5,2.3 1.5,1.5 2.3,3.3 2.3,5.5 0,1.4 -0.3,2.7 -1,3.9 -0.7,1.2 -1.6,2.1 -2.8,2.8 -1.2,0.7 -2.5,1.1 -3.9,1.1 -1.4,0 -2.7,-0.3 -3.9,-1 -1.2,-0.7 -2.1,-1.6 -2.8,-2.8 -0.7,-1.2 -1.1,-2.5 -1.1,-3.9 0,-1.4 0.3,-2.7 1,-3.9 0.7,-1.2 1.6,-2.1 2.9,-2.8 1.1,-0.9 2.4,-1.2 3.8,-1.2 m 0,1.7 c -1.1,0 -2.1,0.3 -3,0.8 -0.9,0.5 -1.6,1.3 -2.2,2.2 -0.5,0.9 -0.8,2 -0.8,3.1 0,1.1 0.3,2.1 0.8,3 0.5,0.9 1.3,1.7 2.2,2.2 0.9,0.5 1.9,0.8 3,0.8 1.1,0 2.1,-0.3 3,-0.8 0.9,-0.5 1.6,-1.3 2.2,-2.2 0.5,-0.9 0.8,-1.9 0.8,-3 0,-1.1 -0.3,-2.1 -0.8,-3 -0.5,-0.9 -1.2,-1.7 -2.2,-2.2 -0.9,-0.6 -1.9,-0.9 -3,-0.9"
   id="path20"
   inkscape:connector-curvature="0"
   style="opacity:0.7;fill:#0b1783;fill-opacity:1" />
		<path
   class="st1"
   d="m 290.1,314.2 h 1.8 v 9.5 c 0,1.7 -0.5,3 -1.5,4.1 -1,1.1 -2.3,1.6 -4,1.6 -1.1,0 -2.1,-0.3 -2.9,-0.8 -0.9,-0.5 -1.5,-1.3 -2,-2.3 -0.4,-0.9 -0.6,-1.7 -0.6,-2.6 v -9.6 h 1.8 v 9.1 c 0,1.3 0.3,2.3 0.8,3.1 0.6,0.9 1.6,1.3 2.8,1.3 2.4,0 3.6,-1.5 3.6,-4.5 v -8.9 z"
   id="path22"
   inkscape:connector-curvature="0"
   style="opacity:0.7;fill:#0b1783;fill-opacity:1" />
		<path
   class="st1"
   d="m 294.5,314.2 h 2.3 c 1,0 1.8,0.1 2.6,0.2 1,0.2 1.8,0.7 2.4,1.4 0.5,0.7 0.8,1.6 0.8,2.7 0,1.5 -0.6,2.6 -1.7,3.4 -0.9,0.6 -2,0.9 -3.1,0.9 h -1.5 v 6.2 h -1.9 z m 2.7,1.7 h -0.8 v 5.4 h 0.6 c 2.6,0.1 3.9,-0.9 3.9,-2.8 0,-1.8 -1.2,-2.6 -3.7,-2.6"
   id="path24"
   inkscape:connector-curvature="0"
   style="opacity:0.7;fill:#0b1783;fill-opacity:1" />
		<polygon
   class="st1"
   points="306.1,320.1 312.1,320.1 312.1,321.8 306.1,321.8 306.1,327.4 312.3,327.4 312.3,329.1 304.3,329.1 304.3,314.2 312.3,314.2 312.3,315.9 306.1,315.9 "
   id="polygon26"
   style="opacity:0.7;fill:#0b1783;fill-opacity:1" />
		<path
   d="m 324,329.1 h -3.6 V 315 h 4 c 1.6,0 2.7,0.1 3.3,0.2 0.6,0.2 1.2,0.4 1.6,0.8 0.5,0.4 0.9,1 1.2,1.6 0.3,0.6 0.4,1.4 0.4,2.2 0,0.8 -0.1,1.6 -0.4,2.2 -0.3,0.6 -0.7,1.2 -1.2,1.6 -0.4,0.3 -0.9,0.5 -1.4,0.7 -0.5,0.1 -1.4,0.2 -2.6,0.2 h -0.7 -0.6 z m 0,-7.8 h 0.7 c 0.9,0 1.6,-0.1 1.9,-0.4 0.4,-0.3 0.5,-0.7 0.5,-1.3 0,-0.6 -0.2,-1 -0.5,-1.3 -0.4,-0.3 -1,-0.4 -1.9,-0.4 H 324 Z"
   id="path28"
   inkscape:connector-curvature="0"
   style="fill:#0b1783;fill-opacity:1" />
		<rect
   x="333"
   y="315"
   width="3.9000001"
   height="14.1"
   id="rect30"
   style="fill:#0b1783;fill-opacity:1" />
		<path
   d="M 340,329.1 V 315 h 3.9 c 1.6,0 2.7,0.1 3.3,0.2 0.6,0.1 1.2,0.3 1.6,0.5 0.5,0.3 0.9,0.7 1.2,1.2 0.3,0.5 0.4,1 0.4,1.7 0,0.8 -0.2,1.4 -0.6,1.9 -0.4,0.5 -1.1,0.8 -2,1.1 1,0.1 1.8,0.4 2.4,1.1 0.6,0.6 0.9,1.5 0.9,2.5 0,0.8 -0.2,1.4 -0.5,2 -0.3,0.6 -0.8,1 -1.4,1.3 -0.5,0.3 -1.1,0.4 -1.8,0.6 -0.7,0.1 -1.9,0.2 -3.5,0.2 H 340 Z m 3.6,-8.5 h 0.8 c 1,0 1.6,-0.1 2,-0.3 0.4,-0.2 0.5,-0.6 0.5,-1.1 0,-0.5 -0.2,-0.9 -0.5,-1.1 -0.3,-0.2 -1,-0.3 -1.9,-0.3 h -0.8 v 2.8 z m 0,5.6 h 1.4 c 0.9,0 1.6,-0.1 1.9,-0.3 0.4,-0.2 0.6,-0.6 0.6,-1.1 0,-0.6 -0.2,-1 -0.5,-1.2 -0.3,-0.2 -1,-0.4 -1.9,-0.4 h -1.4 v 3 z"
   id="path32"
   inkscape:connector-curvature="0"
   style="fill:#0b1783;fill-opacity:1" />
		<path
   d="m 368,322.1 c 0,1 -0.2,2 -0.6,2.9 -0.4,0.9 -0.9,1.7 -1.6,2.4 -0.7,0.7 -1.5,1.2 -2.5,1.6 -0.9,0.4 -1.9,0.6 -2.9,0.6 -1,0 -2,-0.2 -2.9,-0.6 -0.9,-0.4 -1.7,-0.9 -2.4,-1.6 -0.7,-0.7 -1.3,-1.5 -1.7,-2.4 -0.4,-0.9 -0.6,-1.8 -0.6,-2.9 0,-1 0.2,-2 0.6,-2.9 0.4,-0.9 0.9,-1.7 1.7,-2.4 0.7,-0.7 1.5,-1.2 2.4,-1.6 0.9,-0.4 1.9,-0.6 2.9,-0.6 1,0 2,0.2 2.9,0.6 0.9,0.4 1.8,0.9 2.5,1.6 0.7,0.7 1.3,1.5 1.6,2.4 0.4,0.9 0.6,1.9 0.6,2.9 m -7.6,4.1 c 1.1,0 2,-0.4 2.7,-1.2 0.7,-0.8 1,-1.8 1,-3 0,-1.2 -0.4,-2.2 -1.1,-3 -0.7,-0.8 -1.6,-1.2 -2.6,-1.2 -1.1,0 -2,0.4 -2.7,1.2 -0.7,0.8 -1,1.8 -1,3 0,1.2 0.3,2.2 1,3 0.7,0.8 1.6,1.2 2.7,1.2"
   id="path34"
   inkscape:connector-curvature="0"
   style="fill:#0b1783;fill-opacity:1" />
		<path
   d="M 386.6,329.1 H 383 l -0.8,-6.1 c -0.1,-0.4 -0.1,-0.9 -0.2,-1.4 0,-0.5 -0.1,-1.1 -0.1,-1.7 -0.1,0.6 -0.3,1.3 -0.5,2.2 -0.1,0.2 -0.1,0.3 -0.1,0.4 l -1.9,6.6 h -2.6 l -1.9,-6.6 c 0,-0.1 -0.1,-0.2 -0.1,-0.4 -0.3,-0.9 -0.4,-1.6 -0.5,-2.2 0,0.5 -0.1,1.1 -0.1,1.6 -0.1,0.5 -0.1,1 -0.2,1.6 l -0.8,6.1 h -3.6 l 2.2,-14.1 h 3.8 l 2.1,7.3 c 0,0.1 0,0.1 0.1,0.3 0.2,0.7 0.3,1.2 0.4,1.7 0,-0.3 0.1,-0.5 0.1,-0.8 0.1,-0.3 0.2,-0.7 0.3,-1.1 l 2.2,-7.3 h 3.8 z"
   id="path36"
   inkscape:connector-curvature="0"
   style="fill:#0b1783;fill-opacity:1" />
		<path
   d="m 388.6,315 h 3.8 v 6.9 c 0,1 0,1.7 0.1,2.2 0.1,0.4 0.1,0.8 0.3,1.1 0.1,0.4 0.4,0.6 0.8,0.8 0.4,0.2 0.8,0.3 1.3,0.3 0.5,0 1,-0.1 1.3,-0.3 0.4,-0.2 0.6,-0.5 0.8,-0.8 0.1,-0.3 0.2,-0.7 0.3,-1.1 0.1,-0.4 0.1,-1.2 0.1,-2.2 v -1 -5.9 h 3.8 v 7.5 c 0,1.6 -0.1,2.7 -0.3,3.4 -0.2,0.7 -0.5,1.4 -0.9,1.9 -0.5,0.6 -1.1,1 -2,1.3 -0.8,0.3 -1.9,0.4 -3.1,0.4 -1.2,0 -2.2,-0.1 -3.1,-0.4 -0.8,-0.3 -1.5,-0.7 -2,-1.3 -0.4,-0.5 -0.8,-1.2 -0.9,-1.9 -0.1,-0.7 -0.3,-1.9 -0.3,-3.4 V 321 Z"
   id="path38"
   inkscape:connector-curvature="0"
   style="fill:#0b1783;fill-opacity:1" />
		<polygon
   points="412.8,325.8 412.8,329.1 404.1,329.1 404.1,315 408,315 408,325.8 "
   id="polygon40"
   style="fill:#0b1783;fill-opacity:1" />
		<polygon
   points="423,315 423,318.3 419.8,318.3 419.8,329.1 416,329.1 416,318.3 412.8,318.3 412.8,315 "
   id="polygon42"
   style="fill:#0b1783;fill-opacity:1" />
		<rect
   x="425"
   y="315"
   width="3.9000001"
   height="14.1"
   id="rect44"
   style="fill:#0b1783;fill-opacity:1" />
	</g>
</g>
</svg>