<?xml version="1.0" encoding="UTF-8" standalone="no"?>
<!-- Generator: Adobe Illustrator 21.0.0, SVG Export Plug-In . SVG Version: 6.00 Build 0)  -->

<svg
   xmlns:dc="http://purl.org/dc/elements/1.1/"
   xmlns:cc="http://creativecommons.org/ns#"
   xmlns:rdf="http://www.w3.org/1999/02/22-rdf-syntax-ns#"
   xmlns:svg="http://www.w3.org/2000/svg"
   xmlns="http://www.w3.org/2000/svg"
   xmlns:sodipodi="http://sodipodi.sourceforge.net/DTD/sodipodi-0.dtd"
   xmlns:inkscape="http://www.inkscape.org/namespaces/inkscape"
   version="1.1"
   x="0px"
   y="0px"
   viewBox="0 0 799.99997 441.45593"
   xml:space="preserve"
   id="svg72"
   sodipodi:docname="4.svg"
   width="800"
   height="441.45593"
   inkscape:version="0.92.2 2405546, 2018-03-11"
   inkscape:export-filename="/home/raphael/Documents/FabLab/website/fab-manager/public/support/assets/logo-sponsoring/4png.png"
   inkscape:export-xdpi="96"
   inkscape:export-ydpi="96"><metadata
   id="metadata78"><rdf:RDF><cc:Work
       rdf:about=""><dc:format>image/svg+xml</dc:format><dc:type
         rdf:resource="http://purl.org/dc/dcmitype/StillImage" /><dc:title></dc:title></cc:Work></rdf:RDF></metadata><defs
   id="defs76">
	

		
		
		
		
		
		
		
		
		
		
		
		
		
		
		
		
		
		
		
		
		
		
		
		
		
		
	
			
			
			
			
			
		
	
</defs><sodipodi:namedview
   pagecolor="#ffffff"
   bordercolor="#666666"
   borderopacity="1"
   objecttolerance="10"
   gridtolerance="10"
   guidetolerance="10"
   inkscape:pageopacity="0"
   inkscape:pageshadow="2"
   inkscape:window-width="1920"
   inkscape:window-height="1016"
   id="namedview74"
   showgrid="false"
   fit-margin-top="0"
   fit-margin-left="0"
   fit-margin-right="0"
   fit-margin-bottom="0"
   inkscape:zoom="0.72331908"
   inkscape:cx="-92.713369"
   inkscape:cy="-107.86365"
   inkscape:window-x="0"
   inkscape:window-y="27"
   inkscape:window-maximized="1"
   inkscape:current-layer="svg72" />
<style
   type="text/css"
   id="style2">
	.st0{fill:none;}
</style>

<g
   id="g941"
   transform="matrix(1.8016232,0,0,1.8016232,-236.17531,554.41156)"><path
     style="fill:#0b1783;fill-opacity:1;stroke-width:4.70311546"
     inkscape:connector-curvature="0"
     id="path4"
     d="m 204.9292,-138.88707 c 0,-0.47031 0,-0.47031 0,-0.94062 0,-0.47031 0,-0.47031 0,-0.94063 0,-0.47031 0,-0.47031 0,-0.94062 0,-0.47031 0,-0.47031 0,-0.94062 h -4.2328 c 0,0.47031 0,0.94062 0,1.88124 0,0.47032 0,1.41094 0,1.88125 z" /><path
     style="fill:#0b1783;fill-opacity:1;stroke-width:4.70311546"
     inkscape:connector-curvature="0"
     id="path6"
     d="m 201.16671,-115.8418 c 0,0 0,0.47031 0,0.47031 h 4.23281 c 0,-0.47031 0,-0.47031 0,-0.47031 0,0 0,-0.47032 0,-0.47032 v -16.93121 c 0,0 0,-0.47031 0,-0.47031 0,0 0,-0.47031 0,-0.47031 h -4.23281 c 0,0 0,0.47031 0,0.47031 0,0 0,0.47031 0,0.47031 v 16.93121 c 0,0 0,0.47032 0,0.47032" /><path
     style="fill:#0b1783;fill-opacity:1;stroke-width:4.70311546"
     inkscape:connector-curvature="0"
     id="path8"
     d="m 211.98388,-115.37149 h 4.2328 c 0,-0.47031 0,-0.47031 0,-0.47031 0,0 0,-0.47032 0,-0.47032 v -7.99529 c 0,-0.47031 0,-0.47031 0,-0.94062 0,-0.47032 0,-0.94063 0,-1.41094 0,-0.47031 0,-0.94062 0,-1.41093 0,-0.47032 0,-0.47032 0,-0.94063 0,-0.94062 0.47031,-1.88124 1.41094,-2.82187 0.47031,-0.47031 1.41093,-0.94062 2.82187,-0.94062 1.41093,0 2.35155,0.47031 3.29218,1.41093 0.47031,0.47032 0.47031,0.94063 0.47031,1.88125 0,0 0,0.47031 0,0.47031 0,0.47031 0,0.47031 0,0.94063 0,0.47031 0,0.47031 0,0.94062 0,0.47031 0,0.47031 0,0.47031 v 1.88125 c 0,0.47031 0,0.94062 0,1.41093 0,0.47031 0,1.41094 0,1.88125 v 1.88124 3.29218 c 0,0.47032 0,0.47032 0,0.47032 0,0 0,0.47031 0,0.47031 h 3.76249 c 0,-0.47031 0,-0.47031 0,-0.47031 0,0 0,-0.47032 0,-0.47032 v -7.99529 c 0,0 0,-0.47031 0,-0.94062 0,-0.47032 0,-0.94063 0,-1.41094 0,-0.47031 0,-0.94062 0,-1.41093 0,-0.47032 0,-0.47032 0,-0.94063 0.47031,-1.41093 0.94062,-2.35155 1.41094,-2.82187 0.47031,-0.47031 1.88124,-0.94062 2.82187,-0.94062 1.88124,0 3.29218,0.94062 3.29218,2.82187 0,0 0,0 0,0.47031 0,0 0,0.47031 0,0.47031 0,0 0,0.47031 0,0.94063 0,0.47031 0,0.94062 0,1.41093 0,0.47031 0,0.94062 0,1.41094 v 0.94062 c 0,0.47031 0,0.94062 0,1.88124 0,0.47032 0,1.41094 0,2.35156 v 2.35156 1.41093 c 0,0.47032 0,0.47032 0,0.47032 0,0 0,0.47031 0,0.47031 h 4.2328 c 0,-0.47031 0,-0.47031 0,-0.47031 0,0 0,-0.47032 0,-0.47032 v -10.34685 c 0,-1.41093 0,-2.35156 -0.47031,-3.76249 0,-0.94063 -0.47031,-1.88125 -1.41094,-2.82187 -0.47031,-0.94062 -1.41093,-1.41094 -2.35155,-1.41094 -0.94063,-0.47031 -2.35156,-0.47031 -3.7625,0 -0.94062,0 -1.88124,0.47032 -2.35155,0.94063 -0.94063,0.47031 -1.41094,0.94062 -2.35156,1.88124 -0.47031,-1.41093 -1.41094,-1.88124 -2.35156,-2.35155 0,-0.94063 -1.41093,-0.94063 -2.35156,-0.94063 -1.41093,0 -2.35156,0.47031 -3.29218,0.94063 -0.94062,0.47031 -1.88124,1.41093 -2.82187,2.35155 0,0 0,0 0,-0.47031 v -0.94062 c 0,-0.47031 0,-0.94062 0,-1.41094 h -3.76249 c 0,0.47032 0,0.47032 0,0.94063 0,0.47031 0,0.94062 0,1.41093 v 1.41094 1.41093 1.41094 0.94062 c 0,0.47031 0,1.41093 0,2.35156 0,0.94062 0,1.88124 0,2.82187 v 2.82187 c 0,0.94062 0,1.88124 0,2.35155 0,0.47031 0,0.47031 0,0.47031 0,0.47032 -0.47031,0.94063 -0.47031,0.94063" /><path
     style="fill:#0b1783;fill-opacity:1;stroke-width:4.70311546"
     inkscape:connector-curvature="0"
     id="path10"
     d="m 250.07911,-127.12928 c 0,-0.47031 0,-0.94062 0,-1.41094 0,-0.47031 0,-0.94062 0.47032,-1.41093 0,-0.47031 0.47031,-0.94062 0.47031,-0.94062 0.47031,-0.47031 0.94062,-0.94063 1.41093,-1.41094 0.47031,-0.47031 1.41094,-0.47031 1.88125,-0.47031 2.82187,0 4.2328,2.35156 4.2328,7.52499 0,2.82186 -0.47031,4.70311 -0.94062,6.11405 -0.94062,1.41093 -1.88125,1.88124 -3.29218,1.88124 -1.41094,0 -2.35156,-0.47031 -2.82187,-1.41093 -0.47031,-0.47031 -0.47031,-0.94063 -0.47031,-0.94063 0,-0.47031 -0.47031,-0.94062 -0.47031,-1.41093 0,-0.47031 0,-0.94062 -0.47032,-1.88125 0,-0.47031 0,-1.41093 0,-2.35155 -0.47031,-0.47032 -0.47031,-0.94063 0,-1.88125 m -4.2328,17.87184 h 4.2328 c 0,0 0,-0.47031 0,-0.47031 0,0 0,-0.47031 0,-0.47031 v -6.58437 c 0.47032,0.94063 1.41094,1.41094 2.35156,1.88125 0.94063,0.47031 1.88125,0.47031 2.82187,0.47031 0.94062,0 1.88125,0 2.82187,-0.47031 0.94062,-0.47031 1.88125,-0.94062 2.35156,-1.88125 1.41093,-1.88124 2.35156,-4.2328 2.35156,-7.99529 0,-1.88125 0,-3.29218 -0.47031,-4.23281 -0.47032,-1.41093 -0.94063,-2.35155 -1.88125,-3.29218 -0.47031,-0.94062 -1.41094,-1.41093 -2.35156,-1.88124 -0.47031,-0.94063 -1.41093,-0.94063 -2.35156,-0.94063 -2.35155,0 -4.2328,0.94063 -5.64374,3.29218 v -2.82187 h -3.76249 c 0,0.47032 0,0.47032 0,0.47032 0,0 0,0.47031 0,0.47031 v 23.04526 c 0,0.47032 -0.47031,0.94063 -0.47031,1.41094" /><path
     style="fill:#0b1783;fill-opacity:1;stroke-width:4.70311546"
     inkscape:connector-curvature="0"
     id="path12"
     d="m 267.95095,-115.8418 c 0,0 0,0.47031 0,0.47031 h 4.23281 c 0,0 0,-0.47031 0,-0.47031 0,0 0,-0.47032 0,-0.47032 v -11.28747 c 0,-0.94063 0,-1.41094 0,-1.88125 0,-0.47031 0.47031,-0.94062 0.94062,-1.41093 0.94062,-0.94063 1.88125,-1.41094 3.29218,-1.41094 h 0.94063 v -2.82187 c -1.41094,0 -2.35156,0.47031 -3.29219,0.94063 -0.94062,0.47031 -1.41093,1.41093 -1.88124,2.35155 v -2.82187 h -3.76249 c 0,0 0,0.47032 0,0.47032 0,0 0,0.47031 0,0.47031 v 17.40152 c -0.47032,0 -0.47032,0.47032 -0.47032,0.47032" /><path
     style="fill:#0b1783;fill-opacity:1;stroke-width:4.70311546"
     inkscape:connector-curvature="0"
     id="path14"
     d="m 282.0603,-115.8418 c 0,0 0,0.47031 0,0.47031 h 4.2328 c 0,-0.47031 0,-0.47031 0,-0.47031 0,0 0,-0.47032 0,-0.47032 v -16.93121 c 0,0 0,-0.47031 0,-0.47031 0,0 0,-0.47031 0,-0.47031 h -4.2328 c 0,0 0,0.47031 0,0.47031 0,0 0,0.47031 0,0.47031 v 16.93121 c 0,0 0,0.47032 0,0.47032" /><path
     style="fill:#0b1783;fill-opacity:1;stroke-width:4.70311546"
     inkscape:connector-curvature="0"
     id="path16"
     d="m 286.2931,-138.88707 c 0,-0.47031 0,-0.47031 0,-0.94062 0,-0.47031 0,-0.47031 0,-0.94063 0,-0.47031 0,-0.47031 0,-0.94062 0,-0.47031 0,-0.47031 0,-0.94062 h -4.2328 c 0,0.47031 0,0.94062 0,1.88124 0,0.47032 0,1.41094 0,1.88125 z" /><path
     style="fill:#0b1783;fill-opacity:1;stroke-width:4.70311546"
     inkscape:connector-curvature="0"
     id="path18"
     d="m 292.40716,-115.37149 h 4.2328 c 0,-0.47031 0,-0.47031 0,-0.47031 0,0 0,-0.47032 0,-0.47032 v -7.99529 c 0,-0.47031 0,-0.47031 0,-0.94062 0,-0.47032 0,-0.94063 0,-1.41094 0,-0.47031 0,-0.94062 0,-1.41093 0,-0.47032 0,-0.47032 0,-0.94063 0,-0.94062 0.47031,-1.88124 1.41093,-2.82187 0.47032,-0.47031 1.88125,-0.94062 2.82187,-0.94062 1.41094,0 2.35156,0.47031 3.29218,1.41093 0.47032,0.47032 0.47032,0.94063 0.47032,1.88125 0,0 0,0.47031 0,0.47031 0,0.47031 0,0.47031 0,0.94063 0,0.47031 0,0.47031 0,0.94062 0,0.47031 0,0.47031 0,0.47031 v 1.88125 c 0,0.47031 0,0.94062 0,1.41093 0,0.47031 0,1.41094 0,1.88125 v 1.88124 3.29218 c 0,0.47032 0,0.47032 0,0.47032 0,0 0,0.47031 0,0.47031 h 4.2328 c 0,-0.47031 0,-0.47031 0,-0.47031 0,0 0,-0.47032 0,-0.47032 v -7.99529 c 0,0 0,-0.47031 0,-0.94062 0,-0.47032 0,-0.94063 0,-1.41094 0,-0.47031 0,-0.94062 0,-1.41093 0,-0.47032 0,-0.47032 0,-0.94063 0.47031,-1.41093 0.94062,-2.35155 1.41093,-2.82187 0.47032,-0.47031 1.88125,-0.94062 2.82187,-0.94062 1.88125,0 3.29218,0.94062 3.7625,2.82187 0,0 0,0 0,0.47031 0,0 0,0.47031 0,0.47031 0,0 0,0.47031 0,0.94063 0,0.47031 0,0.94062 0,1.41093 0,0.47031 0,0.94062 0,1.41094 v 0.94062 c 0,0.47031 0,0.94062 0,1.88124 0,0.47032 0,1.41094 0,2.35156 v 2.35156 1.41093 c 0,0.47032 0,0.47032 0,0.47032 0,0 0,0.47031 0,0.47031 h 4.2328 c 0,-0.47031 0,-0.47031 0,-0.47031 0,0 0,-0.47032 0,-0.47032 v -10.34685 c 0,-1.41093 0,-2.35156 -0.47031,-3.76249 0,-0.94063 -0.47031,-1.88125 -1.41094,-2.82187 -0.47031,-0.94062 -1.41093,-1.41094 -2.35155,-1.41094 -0.94063,-0.47031 -2.35156,-0.47031 -3.7625,0 -0.94062,0 -1.88124,0.47032 -2.35155,0.94063 -0.94063,0.47031 -1.41094,0.94062 -2.35156,1.88124 -0.47031,-1.41093 -1.41094,-1.88124 -2.35156,-2.35155 -1.41093,-0.94063 -2.35156,-0.94063 -3.29218,-0.94063 -1.41094,0 -2.35156,0.47031 -3.29218,0.94063 -0.94062,0.47031 -1.88125,1.41093 -2.82187,2.35155 0,0 0,0 0,-0.47031 v -0.94062 c 0,-0.47031 0,-0.94062 0,-1.41094 h -3.76249 c 0,0.47032 0,0.47032 0,0.94063 0,0.47031 0,0.94062 0,1.41093 v 1.41094 1.41093 1.41094 0.94062 c 0,0.47031 0,1.41093 0,2.35156 0,0.94062 0,1.88124 0,2.82187 v 2.82187 c 0,0.94062 0,1.88124 0,2.35155 0,0.47031 0,0.47031 0,0.47031 -0.47031,0.47032 -0.47031,0.94063 -0.47031,0.94063" /><path
     style="fill:#0b1783;fill-opacity:1;stroke-width:4.70311546"
     inkscape:connector-curvature="0"
     id="path20"
     d="m 330.03208,-131.8324 c 0.94062,-0.94062 1.88125,-1.41093 3.29218,-1.41093 0.94062,0 1.88125,0.47031 2.35156,0.94062 0.94062,0.47031 1.41093,1.41094 1.41093,2.35156 0,0.47031 0,0.94062 0.47031,0.94062 0,0.47031 0,0.94063 0,1.41094 h -9.40623 c 0.94063,-1.88125 1.41094,-3.29218 1.88125,-4.23281 m 4.70312,16.93122 c 0.47031,0 1.41093,0 1.88124,0 0.47031,0 0.94062,0 1.41094,-0.47031 0.47031,0 0.94062,-0.47031 1.41093,-0.47031 0.47031,0 0.94062,-0.47032 1.88125,-0.94063 l -0.47031,-2.35155 c -0.94063,0.94062 -1.88125,1.41093 -2.82187,1.88124 -0.94063,0.47031 -1.88125,0.47031 -2.82187,0.47031 -2.82187,0 -4.70312,-1.41093 -5.64374,-3.76249 0,-0.47031 0,-0.94062 -0.47031,-0.94062 0,-0.47031 0,-0.47031 0,-0.94063 0,-0.47031 0,-0.94062 0,-1.41093 0,-0.47031 0,-0.94062 0,-1.88125 h 13.63903 c 0,-3.29218 -0.94062,-5.64373 -2.35156,-7.05467 -1.88124,-1.41093 -4.2328,-2.35156 -6.58436,-2.35156 -1.41093,0 -2.82187,0.47031 -3.76249,0.94063 -0.94062,0.47031 -1.88125,0.94062 -2.82187,1.88124 -0.94062,0.94063 -1.41093,1.88125 -1.88125,3.29218 -0.47031,1.41094 -0.47031,2.82187 -0.47031,4.23281 0,3.29218 0.94063,5.64374 2.35156,7.52498 1.88125,1.41094 4.2328,2.35156 7.52499,2.35156" /><path
     style="fill:#0b1783;fill-opacity:1;stroke-width:4.70311546"
     inkscape:connector-curvature="0"
     id="path22"
     d="m 346.9633,-115.8418 c 0,0 0,0.47031 0,0.47031 h 4.2328 c 0,0 0,-0.47031 0,-0.47031 0,0 0,-0.47032 0,-0.47032 v -11.28747 c 0,-0.94063 0,-1.41094 0.47031,-1.88125 0,-0.47031 0.47031,-0.94062 0.94062,-1.41093 0.94063,-0.94063 1.88125,-1.41094 3.29219,-1.41094 h 0.94062 v -2.82187 c -1.41094,0 -2.35156,0.47031 -3.29218,0.94063 -0.94063,0.47031 -1.41094,1.41093 -1.88125,2.35155 v -2.82187 h -3.76249 c 0,0 0,0.47032 0,0.47032 0,0 0,0.47031 0,0.47031 v 17.40152 c -0.94062,0 -0.94062,0.47032 -0.94062,0.47032" /><path
     style="fill:#0b1783;fill-opacity:1;stroke-width:4.70311546"
     inkscape:connector-curvature="0"
     id="path24"
     d="m 361.07264,-115.8418 c 0,0 0,0.47031 0,0.47031 h 4.23281 c 0,-0.47031 0,-0.47031 0,-0.47031 0,0 0,-0.47032 0,-0.47032 v -16.93121 c 0,0 0,-0.47031 0,-0.47031 0,0 0,-0.47031 0,-0.47031 h -4.23281 c 0,0 0,0.47031 0,0.47031 0,0 0,0.47031 0,0.47031 v 16.93121 c 0,0 0,0.47032 0,0.47032" /><path
     style="fill:#0b1783;fill-opacity:1;stroke-width:4.70311546"
     inkscape:connector-curvature="0"
     id="path26"
     d="m 364.83514,-138.88707 c 0,-0.47031 0,-0.47031 0,-0.94062 0,-0.47031 0,-0.47031 0,-0.94063 0,-0.47031 0,-0.47031 0,-0.94062 0,-0.47031 0,-0.47031 0,-0.94062 h -4.23281 c 0,0.47031 0,0.94062 0,1.88124 0,0.47032 0,1.41094 0,1.88125 z" /><path
     style="fill:#0b1783;fill-opacity:1;stroke-width:4.70311546"
     inkscape:connector-curvature="0"
     id="path28"
     d="m 374.24137,-127.59959 c 0,-1.88125 0.94062,-3.29218 1.41093,-4.23281 0.94062,-0.94062 1.88125,-1.41093 3.29218,-1.41093 0.94063,0 1.88125,0.47031 2.35156,0.94062 0.94062,0.47031 1.41093,1.41094 1.41093,2.35156 0,0.47031 0,0.94062 0.47032,0.94062 0,0.47031 0,0.94063 0,1.41094 z m 10.81716,-5.17343 c -1.41093,-1.41093 -3.29218,-2.35156 -6.11405,-2.35156 -1.41093,0 -2.82187,0.47031 -3.76249,0.94063 -0.94062,0.47031 -1.88125,0.94062 -2.82187,1.88124 -0.94062,0.94063 -1.41093,1.88125 -1.88125,3.29218 -0.47031,1.41094 -0.47031,2.82187 -0.47031,4.23281 0,3.29218 0.94063,5.64374 2.35156,7.52498 1.88125,1.88125 4.2328,2.35156 7.52499,2.35156 0.47031,0 1.41093,0 1.88124,0 0.47031,0 0.94062,0 1.41094,-0.47031 0.47031,0 0.94062,-0.47031 1.41093,-0.47031 0.47031,0 0.94062,-0.47032 1.88125,-0.94063 l -0.47031,-2.35155 c -0.94063,0.94062 -1.88125,1.41093 -2.82187,1.88124 -0.94063,0.47031 -1.88125,0.47031 -2.82187,0.47031 -2.82187,0 -4.70312,-1.41093 -5.64374,-3.76249 0,-0.47031 0,-0.94062 -0.47031,-0.94062 0,-0.47031 0,-0.47031 -0.47032,-0.94063 0,-0.47031 0,-0.94062 0,-1.41093 0,-0.47031 0,-0.94062 0,-1.88125 h 13.63904 c 0,-2.82187 -0.47031,-5.17342 -2.35156,-7.05467" /><path
     style="fill:#0b1783;fill-opacity:1;stroke-width:4.70311546"
     inkscape:connector-curvature="0"
     id="path30"
     d="m 136.73403,-87.152798 c 0.94062,-1.410935 1.88124,-1.881247 3.29218,-1.881247 1.41093,0 2.35156,0.470312 3.29218,1.881247 0.94062,1.410934 0.94062,3.292181 0.94062,5.643738 0,1.410935 0,2.351558 -0.47031,3.292181 0,0.940623 -0.47031,1.881247 -0.94062,2.351558 -0.47031,0.470312 -0.94062,0.940623 -1.41094,1.410935 -0.47031,0.470311 -1.41093,0.470311 -1.88124,0.470311 -2.82187,0 -4.23281,-2.351557 -4.23281,-7.524985 0,-2.351557 0.47032,-4.703115 1.41094,-5.643738 m -3.29218,13.168723 c 0.47031,0.940623 1.41093,1.410935 2.35156,1.881247 0.94062,0.470311 1.88124,0.470311 2.82186,0.470311 1.41094,0 2.35156,0 3.29219,-0.940623 0.94062,-0.470312 1.88124,-1.410935 2.35155,-2.351558 v 2.82187 h 3.7625 c 0,-0.470312 0,-0.470312 0,-0.470312 0,0 0,-0.470312 0,-0.470312 v -24.456201 c 0,-0.470311 0,-0.940623 0,-1.410934 h -4.23281 c 0,0 0,0.470311 0,0.470311 0,0 0,0.470312 0,0.470312 v 8.465608 c -0.47031,-0.940623 -1.41093,-1.410935 -2.35156,-1.881246 -0.94062,-0.470312 -1.88124,-0.470312 -2.82187,-0.470312 -2.35155,0 -4.2328,0.940623 -5.64373,2.821869 -1.41094,1.881247 -1.88125,4.232804 -1.88125,7.524985 0,1.410935 0,2.82187 0.47031,4.232804 0.47031,1.410935 0.94062,2.351558 1.88125,3.292181" /><path
     style="fill:#0b1783;fill-opacity:1;stroke-width:4.70311546"
     inkscape:connector-curvature="0"
     id="path32"
     d="m 158.36836,-88.093421 c 0.94062,-0.940624 1.88125,-1.410935 3.29218,-1.410935 0.94062,0 1.88125,0.470311 2.35156,0.940623 0.94062,0.470312 1.41093,1.410935 1.41093,2.351558 0,0.470311 0,0.940623 0.47032,1.410934 0,0.470312 0,0.940624 0,1.410935 h -9.40624 c 0.47032,-2.351558 0.94063,-3.762492 1.88125,-4.703115 m 4.2328,16.931216 c 0.47032,0 1.41094,0 1.88125,0 0.47031,0 0.94062,0 1.41094,-0.470312 0.47031,0 0.94062,-0.470311 1.41093,-0.470311 0.47031,0 0.94062,-0.470312 1.88125,-0.940624 l -0.47032,-2.351557 c -0.94062,0.940623 -1.88124,1.410934 -2.82186,1.881246 -0.94063,0.470311 -1.88125,0.470311 -2.82187,0.470311 -2.82187,0 -4.70312,-1.410934 -5.64374,-3.762492 0,-0.470312 -0.47031,-0.940623 -0.47031,-0.940623 0,-0.470312 0,-0.470312 0,-0.940623 0,-0.470312 0,-0.940623 0,-1.410935 0,-0.470312 0,-0.940623 0,-1.410935 h 13.63903 c 0,-3.292181 -0.94062,-5.643738 -2.35156,-7.054673 -1.41093,-1.410935 -3.29218,-2.351558 -6.11405,-2.351558 -1.41093,0 -2.82187,0.470312 -3.76249,0.940623 -0.94062,0.470312 -1.88125,0.940623 -2.82187,1.881247 -0.94062,0.940623 -1.41093,1.881246 -1.88125,3.29218 -0.94062,0.470312 -0.94062,1.881247 -0.94062,3.762493 0,3.292181 0.94062,5.643739 2.35156,7.524985 1.88125,1.410935 4.2328,2.351558 7.52498,2.351558" /><path
     style="fill:#0b1783;fill-opacity:1;stroke-width:4.70311546"
     inkscape:connector-curvature="0"
     id="path34"
     d="m 179.53238,-73.043452 c -0.94062,0 -1.88125,0 -2.82187,-0.470311 -0.94062,-0.470312 -1.88124,-0.940623 -2.82187,-1.881246 l -0.47031,2.821869 c 0.94062,0.470312 2.35156,0.940623 3.29218,1.410935 0.94062,0.470311 1.88125,0.470311 3.29218,0.470311 2.35156,0 4.23281,-0.470311 5.64374,-1.881246 1.41094,-0.940623 1.88125,-2.821869 1.88125,-4.703116 0,-0.940623 0,-1.410934 -0.47031,-1.881246 0,-0.470311 -0.47032,-0.940623 -0.94063,-1.410935 -0.47031,-0.470311 -0.94062,-0.940623 -1.88124,-1.410934 -0.47032,-0.470312 -1.41094,-0.940623 -2.35156,-1.410935 -0.94062,-0.470311 -1.41094,-0.470311 -1.88125,-0.940623 -0.47031,-0.470312 -0.94062,-0.470312 -1.41093,-0.940623 -0.47031,-0.470312 -0.47031,-0.470312 -0.47031,-0.940623 0,-0.470312 0,-0.470312 0,-0.940623 0,-0.940623 0.47031,-1.410935 0.94062,-2.351558 0.47031,-0.470312 1.41093,-0.940623 2.82187,-0.940623 0.94062,0 1.41093,0 2.35156,0.470311 0.94062,0.470312 1.41093,0.940623 2.35155,1.410935 l 0.47032,-2.351558 c -0.94063,-0.470311 -1.88125,-0.940623 -2.82187,-0.940623 -0.94063,0 -1.88125,-0.470312 -2.82187,-0.470312 -0.94063,0 -1.88125,0 -2.82187,0.470312 -0.94063,0.470312 -1.41094,0.470312 -2.35156,0.940623 -0.47031,0.470312 -0.94062,0.940623 -1.41093,1.881246 -0.47032,0.940624 -0.47032,1.410935 -0.47032,2.351558 0,1.410935 0.47032,2.351558 0.94063,3.292181 0.94062,0.940623 1.88124,1.410935 3.76249,2.351558 0.94062,0.470311 1.88125,0.940623 2.35156,0.940623 0.47031,0.470312 0.94062,0.470312 1.41093,0.940623 0.47031,0.470312 0.47031,0.470312 0.94062,0.940623 0,0.470312 0,0.470312 0,0.940623 0,0.940624 -0.47031,1.881247 -0.94062,2.351558 -0.94062,1.410935 -1.88124,1.881246 -3.29218,1.881246" /><path
     style="fill:#0b1783;fill-opacity:1;stroke-width:4.70311546"
     inkscape:connector-curvature="0"
     id="path36"
     d="m 201.16671,-71.632517 h 4.23281 c 0,-0.470311 0,-0.470311 0,-0.470311 0,0 0,-0.470312 0,-0.470312 v -7.995297 c 0,-0.470311 0,-0.470311 0,-0.940623 0,-0.470311 0,-0.940623 0,-1.410934 0,-0.470312 0,-0.940623 0,-1.410935 0,-0.470312 0,-0.940623 0,-0.940623 0,-0.940623 0.47031,-1.881246 1.41093,-2.821869 0.47031,-0.470312 1.88125,-0.940624 2.82187,-0.940624 1.41094,0 2.35156,0.470312 3.29218,1.410935 0.47031,0.470312 0.47031,0.940623 0.47031,1.881246 0,0 0,0.470312 0,0.470312 0,0.470311 0,0.470311 0,0.940623 0,0.470312 0,0.470312 0,0.940623 0,0.470312 0,0.470312 0,0.470312 v 1.881246 c 0,0.470311 0,0.940623 0,1.410935 0,0.470311 0,1.410934 0,1.881246 v 1.881246 1.881246 c 0,0.470312 0,0.470312 0,0.470312 0,0 0,0.470311 0,0.470311 h 4.23281 c 0,-0.470311 0,-0.470311 0,-0.470311 0,0 0,-0.470312 0,-0.470312 v -7.995296 c 0,-0.470312 0,-0.470312 0,-0.940623 0,-0.470312 0,-0.940623 0,-1.410935 0,-0.470312 0,-0.940623 0,-1.410935 0,-0.470311 0,-0.470311 0,-0.940623 0.47031,-1.410934 0.94062,-2.351558 1.41093,-2.821869 0.47031,-0.470312 1.88125,-0.940623 2.82187,-0.940623 1.88125,0 3.29218,0.940623 3.76249,2.821869 0,0 0,0.470312 0,0.470312 0,0 0,0.470311 0,0.470311 0,0 0,0.470312 0,0.940623 0,0.470312 0,0.940623 0,1.410935 0,0.470312 0,0.940623 0,1.410935 v 0.940623 c 0,0.470311 0,0.940623 0,1.881246 0,0.470312 0,1.410935 0,2.351558 v 2.351558 1.881246 c 0,0.470311 0,0.470311 0,0.470311 0,0 0,0.470312 0,0.470312 h 4.23281 c 0,-0.470312 0,-0.470312 0,-0.470312 0,0 0,-0.470311 0,-0.470311 v -10.346854 c 0,-1.410935 0,-2.351558 -0.47031,-3.762493 0,-0.940623 -0.47032,-1.881246 -1.41094,-2.821869 -0.47031,-0.940623 -1.41093,-1.410935 -2.35156,-1.881247 -0.94062,-0.470311 -2.35155,-0.470311 -3.76249,0 -0.94062,0 -1.88125,0.470312 -2.35156,0.940624 -0.94062,0.470311 -1.41093,0.940623 -2.35155,1.881246 -0.47032,-1.410935 -1.41094,-1.881246 -2.35156,-2.351558 -0.94063,-0.470312 -1.88125,-0.470312 -3.29218,-0.470312 -1.41094,0 -2.35156,0.470312 -3.29218,0.940624 -0.94063,0.470311 -1.88125,1.410934 -2.82187,2.351557 0,0 0,0 0,-0.470311 v -0.940623 c 0,-0.470312 0,-0.940623 0,-1.410935 h -3.7625 c 0,0.470312 0,0.470312 0,0.940623 0,0.470312 0,0.940623 0,1.410935 v 1.410935 1.410934 1.410935 1.881246 c 0,0.470312 0,1.410935 0,2.351558 0,0.940623 0,1.881246 0,2.821869 v 2.82187 c 0,0.940623 0,1.881246 0,2.351557 0,0.470312 0,0.470312 0,0.470312 -0.47031,0.470312 -0.47031,0.940623 -0.47031,0.940623" /><path
     style="fill:#0b1783;fill-opacity:1;stroke-width:4.70311546"
     inkscape:connector-curvature="0"
     id="path38"
     d="m 240.20257,-89.504356 c 0.47031,-0.470312 1.41094,-0.470312 1.88125,-0.470312 1.41093,0 2.82187,0.940623 3.76249,2.351558 0.94062,1.410935 1.41094,3.762493 1.41094,6.11405 0,2.82187 -0.47032,4.703116 -1.41094,6.114051 -0.94062,1.410934 -1.88125,2.351557 -3.76249,2.351557 -1.41094,0 -2.82187,-0.940623 -3.76249,-2.351557 -0.47032,-1.410935 -0.94063,-3.292181 -0.94063,-6.114051 0,-1.410934 0,-2.351557 0.47031,-3.292181 0,-0.940623 0.47032,-1.881246 0.94063,-2.821869 0.47031,-0.470311 0.94062,-1.410935 1.41093,-1.881246 m -4.2328,0.470311 c -0.94063,0.940624 -1.41094,1.881247 -1.88125,3.292181 -0.47031,1.410935 -0.47031,2.351558 -0.47031,4.232804 0,1.410935 0,3.292181 0.47031,4.232804 0.47031,1.410935 0.94062,2.351558 1.88125,3.292181 0.94062,0.940623 1.88124,1.410935 2.82187,1.881247 0.94062,0.470311 2.35156,0.940623 3.76249,0.940623 1.41093,0 2.82187,0 3.76249,-0.470312 0.94063,-0.470311 1.88125,-0.940623 2.82187,-1.881246 0.94062,-0.940623 1.41094,-1.881246 1.88125,-3.292181 0.47031,-1.410935 0.47031,-2.821869 0.47031,-4.232804 0,-1.410935 0,-2.821869 -0.47031,-4.232804 -0.47031,-1.410935 -0.94063,-2.351558 -1.88125,-3.292181 -0.94062,-0.940623 -1.88124,-1.410935 -2.82187,-1.881246 -0.94062,-0.470312 -2.35156,-0.470312 -3.76249,-0.470312 -1.41093,0 -2.35156,0 -3.76249,0.470312 -1.41094,0 -2.35156,0.940623 -2.82187,1.410934" /><path
     style="fill:#0b1783;fill-opacity:1;stroke-width:4.70311546"
     inkscape:connector-curvature="0"
     id="path40"
     d="m 259.48535,-88.563733 v -2.821869 h -2.35156 -1.41094 c 0,0.470311 0,0.470311 0,0.940623 0,0.470311 0,0.470311 0,0.940623 v 16.460904 c 0,0.470312 0,0.470312 0,0.940624 0,0 0,0.470311 0,0.470311 v 0 h 4.23281 c 0,-0.470311 0,-0.470311 0,-0.470311 0,0 0,-0.470312 0,-0.940624 v -2.351557 -2.82187 c 0,-0.940623 0,-1.881246 0,-2.821869 0,-0.940623 0,-1.410935 0,-1.410935 0,-0.470311 0,-1.410934 0,-1.881246 0,-0.470312 0,-0.940623 0,-0.940623 0.47031,-0.940623 0.47031,-1.881246 1.41093,-2.821869 0.47031,-0.940624 1.88125,-0.940624 2.82187,-0.940624 1.88125,0 3.29218,0.940624 3.76249,2.82187 0,0.470311 0,0.940623 0,1.881246 0,0.940623 0,1.410935 0,2.351558 v 9.406231 c 0,0.470312 0,0.940623 0,1.410935 h 4.23281 c 0,0 0,-0.470312 0,-0.470312 0,-0.470311 0,-0.470311 0,-0.940623 v -1.410935 -1.881246 c 0,-0.940623 0,-1.881246 0,-2.821869 0,-0.940623 0,-1.881247 0,-2.82187 v -1.881246 -0.940623 c 0,-1.410935 0,-2.351558 -0.47031,-3.292181 -0.47032,-0.940623 -0.94063,-1.881246 -1.41094,-2.351558 -0.47031,-0.470311 -1.41093,-0.940623 -2.35156,-1.410934 -0.94062,-0.470312 -1.88124,-0.470312 -3.29218,0 -0.94062,0 -1.88124,0.470311 -2.35155,0.940623 -0.94063,0.470311 -1.88125,0.940623 -2.82187,1.881246" /><path
     style="fill:#0b1783;fill-opacity:1;stroke-width:4.70311546"
     inkscape:connector-curvature="0"
     id="path42"
     d="m 275.47594,-89.034045 h 2.82187 v 14.109347 c 0,1.410935 0.47031,2.351558 0.94062,2.82187 0.47031,0.470311 1.41094,0.940623 2.82187,0.940623 0.47031,0 0.94062,0 1.41094,0 0.47031,0 0.94062,-0.470312 1.88124,-0.470312 v -2.351558 c -0.47031,0.470312 -0.94062,0.470312 -0.94062,0.470312 0,0 -0.47031,0 -0.94062,0 -0.94063,0 -1.41094,-0.470312 -1.41094,-1.881246 v -14.109347 h 3.29218 v -1.881246 h -3.29218 v -2.82187 -0.470311 c 0,0 0,-0.470312 0,-0.940623 l -3.76249,0.470311 v 3.762493 h -2.82187 z" /><path
     style="fill:#0b1783;fill-opacity:1;stroke-width:4.70311546"
     inkscape:connector-curvature="0"
     id="path44"
     d="m 296.16965,-81.50906 c 0.47031,0 0.94062,-0.470311 1.41093,-0.470311 0.47031,0 0.94063,-0.470312 1.41094,-0.470312 0,0 0.47031,0 0.47031,0 0,0 0.47031,0 0.47031,-0.470311 v 5.173427 c 0,0.470311 0,0.940623 -0.47031,1.881246 0,0.470312 -0.47031,0.940623 -0.94062,1.410935 -0.47032,0.470311 -0.94063,0.940623 -1.41094,0.940623 -0.47031,0 -0.94062,0.470311 -1.88125,0.470311 -0.94062,0 -1.88124,-0.470311 -2.35155,-0.940623 -0.47031,-0.470311 -0.94063,-1.410934 -0.94063,-2.351557 0.47032,-2.82187 1.88125,-4.232805 4.23281,-5.173428 m -1.88125,10.346855 c 1.41094,0 2.35156,0 3.29218,-0.470312 0.94063,-0.470311 1.88125,-1.410935 2.82187,-2.351558 0.47031,0.940623 0.47031,1.881247 0.94062,2.351558 0.47032,0.470312 1.41094,0.470312 2.35156,0.470312 0.47031,0 0.94063,0 1.41094,0 0.47031,0 0.94062,-0.470312 1.41093,-0.940623 v -2.351558 c -0.47031,0 -0.47031,0.470311 -0.94062,0.470311 0,0 -0.47031,0 -0.47031,0 -0.94063,0 -0.94063,-0.470311 -0.94063,-1.410934 v -11.757789 c 0,-1.410935 -0.47031,-2.351558 -1.41093,-3.292181 -0.94062,-0.940623 -2.82187,-1.410935 -4.70312,-1.410935 -0.47031,0 -1.41093,0 -1.88124,0 -0.47031,0 -0.94063,0 -1.41094,0.470312 -0.47031,0 -0.94062,0.470311 -1.41093,0.470311 -0.47031,0 -0.94062,0.470312 -1.88125,0.940623 l 0.47031,2.351558 c 0.47032,-0.470311 0.94063,-0.940623 1.41094,-0.940623 0.47031,-0.470312 0.94062,-0.470312 1.41093,-0.470312 0.47031,0 0.94063,-0.470311 0.94063,-0.470311 0.47031,0 0.94062,0 1.41093,0 0.94062,0 1.88125,0.470311 2.35156,0.940623 0.47031,0.470312 0.94062,1.410935 0.94062,1.881246 0,0.470312 0,1.410935 -0.47031,1.881246 -0.47031,0.470312 -0.94062,0.940624 -1.88125,0.940624 -0.94062,0.470311 -1.88124,0.470311 -2.82187,0.940623 -0.47031,0 -1.41093,0.470311 -1.41093,0.470311 -0.47031,0 -0.94062,0.470312 -0.94062,0.470312 -0.47031,0 -0.47031,0.470311 -0.94063,0.470311 -1.41093,0.940623 -2.35155,2.82187 -2.35155,4.703116 0,1.881246 0.47031,2.821869 1.41093,4.232804 0.47031,0.940623 1.41094,1.410935 3.29218,1.410935" /><path
     style="fill:#0b1783;fill-opacity:1;stroke-width:4.70311546"
     inkscape:connector-curvature="0"
     id="path46"
     d="m 314.04149,-84.330929 c 0.47031,-0.940623 0.47031,-1.881246 1.41093,-2.821869 0.47031,-0.940623 1.41094,-1.410935 2.35156,-1.881247 0.94062,-0.470311 1.88125,-0.940623 3.29218,-0.940623 0.47031,0 0.94062,0 0.94062,0 0.47031,0 0.94063,0 1.41094,0.470312 0,0 0,0 0,0.470311 0,0.470312 0,0.940624 0,1.410935 0,0.470312 0,1.410935 0,1.881246 v 2.351558 6.11405 0.940624 c 0,0 0,0.470311 0,0.470311 0,0.470312 -0.47031,0.470312 -0.47031,0.940623 -0.94063,0.940623 -1.41094,0.940623 -1.88125,1.410935 -0.47031,0 -0.94062,0.470311 -1.88125,0.470311 h -0.47031 c 0,0 -0.47031,0 -0.47031,0 -1.41093,-0.470311 -2.82187,-0.940623 -3.76249,-2.351557 -0.94062,-1.410935 -1.41094,-3.292181 -1.41094,-5.173428 0.47032,-1.410934 0.47032,-2.351557 0.94063,-3.762492 m -3.7625,-0.470312 c -0.47031,1.410935 -0.47031,2.82187 -0.47031,4.703116 0,1.410935 0.47031,2.351558 0.47031,3.762493 0.47032,0.940623 0.94063,1.881246 1.41094,2.821869 0.47031,0.940623 1.41093,1.410935 2.35156,1.881246 0.94062,0.470312 1.88124,0.470312 3.29218,0.470312 1.88124,0 3.29218,-0.470312 5.17342,-1.881247 0,0 0,0.470312 0,0.470312 v 0.470312 c 0,1.881246 -0.47031,3.29218 -1.41093,4.232804 -0.94062,0.940623 -2.35156,1.410934 -4.2328,1.410934 -0.47032,0 -0.94063,0 -1.88125,0 -0.47031,0 -0.94062,-0.470311 -1.41093,-0.470311 -0.47032,0 -0.94063,-0.470312 -1.41094,-0.470312 -0.47031,-0.470311 -0.47031,-0.470311 -0.94062,-0.470311 0,0 0,0 0,0.470311 0,0 0,0.470312 0,0.940623 v 0.940623 c 0,0.470312 0,0.470312 0,0.470312 0,0.470312 0,0.470312 0,0.940623 0.94062,0.470312 1.88124,0.470312 2.35156,0.940623 0.94062,0 1.88124,0.470312 2.82186,0.470312 0.94063,0 2.35156,0 3.29219,-0.470312 0.94062,-0.470311 1.88124,-0.470311 2.82186,-1.410934 0.47032,-0.470312 0.94063,-0.470312 0.94063,-0.940624 0.47031,-0.470311 0.94062,-0.940623 0.94062,-1.410934 0.47031,-0.470312 0.47031,-0.940623 0.94062,-1.881247 0,-0.470311 0.47032,-1.410934 0.47032,-2.351557 v -18.812463 0 c 0,0 -0.47032,0 -0.94063,0 -0.47031,0 -1.41093,0 -1.88124,0 -0.94063,0 -1.88125,0 -2.82187,-0.470311 -3.7625,0 -6.58436,0.940623 -8.46561,3.292181 0,0 -0.94062,0.940623 -1.41094,2.351557" /><path
     style="fill:#0b1783;fill-opacity:1;stroke-width:4.70311546"
     inkscape:connector-curvature="0"
     id="path48"
     d="m 332.38364,-72.102828 c 0,0 0,0.470311 0,0.470311 v 0 h 4.2328 c 0,-0.470311 0,-0.470311 0,-0.470311 0,0 0,-0.470312 0,-0.940624 v -2.351557 -2.82187 c 0,-0.940623 0,-1.881246 0,-2.821869 0,-0.940623 0,-1.410935 0,-1.410935 0,-0.470311 0,-1.410934 0,-1.881246 0,-0.470312 0,-0.940623 0,-0.940623 0.47031,-0.940623 0.94062,-2.351558 1.41094,-2.821869 0.47031,-0.940624 1.88124,-0.940624 2.82187,-0.940624 1.88124,0 3.29218,0.940624 3.76249,2.82187 0,0.470311 0,0.940623 0,1.881246 0,0.940623 0,1.410935 0,2.351558 v 9.406231 c 0,0.470312 0,0.940623 0,1.410935 h 4.2328 c 0,0 0,-0.470312 0,-0.470312 0,-0.470311 0,-0.470311 0,-0.940623 v -1.410935 -1.881246 c 0,-0.940623 0,-1.881246 0,-2.821869 0,-0.940623 0,-1.881247 0,-2.82187 v -1.881246 -0.940623 c 0,-1.410935 0,-2.351558 -0.47031,-3.292181 -0.47031,-0.940623 -0.94062,-1.881246 -1.41093,-2.351558 -0.47032,-0.470311 -1.41094,-0.940623 -2.35156,-1.410934 -0.94062,-0.470312 -1.88125,-0.470312 -3.29218,0 -0.94063,0 -1.88125,0.470311 -2.35156,0.940623 -0.94062,0.470311 -1.41094,1.410934 -2.35156,2.351558 v -2.82187 h -2.35156 -1.41093 c 0,0.470312 0,0.470312 0,0.940623 0,0.470312 0,0.470312 0,0.940623 v 16.460905 c -0.47031,0 -0.47031,0 -0.47031,0.470312" /><path
     style="fill:#0b1783;fill-opacity:1;stroke-width:4.70311546"
     inkscape:connector-curvature="0"
     id="path50"
     d="m 362.01327,-89.504356 c 0.94062,0 1.88124,0.470311 2.35155,0.940623 0.94063,0.470312 1.41094,1.410935 1.41094,2.351558 0,0.470311 0,0.940623 0.47031,1.410934 0,0.470312 0,0.940624 0,1.410935 h -9.40623 c 0,-1.881246 0.94062,-3.292181 1.41093,-4.232804 1.41094,-1.410935 2.35156,-1.881246 3.7625,-1.881246 m -6.58437,0.940623 c -0.94062,0.940623 -1.41093,1.881246 -1.88124,3.292181 -0.47031,1.410935 -0.47031,2.821869 -0.47031,4.232804 0,3.292181 0.94062,5.643739 2.35155,7.524985 1.88125,1.881246 4.23281,2.351558 7.52499,2.351558 0.47031,0 1.41093,0 1.88125,0 0.47031,0 0.94062,0 1.41093,-0.470312 0.47031,0 0.94062,-0.470311 1.41093,-0.470311 0.47032,0 0.94063,-0.470312 1.88125,-0.940624 l -0.47031,-2.351557 c -0.94062,0.940623 -1.88125,1.410934 -2.82187,1.881246 -0.94062,0.470311 -1.88125,0.470311 -2.82187,0.470311 -2.82187,0 -4.70311,-1.410934 -5.64374,-3.762492 0,-0.470312 0,-0.940623 -0.47031,-0.940623 0,-0.470312 0,-0.470312 0,-0.940623 0,-0.470312 0,-0.940623 0,-1.410935 0,-0.470312 0,-0.940623 0,-1.410935 h 13.63904 c 0,-3.292181 -0.94063,-5.643738 -2.35156,-7.054673 -1.41094,-1.410935 -3.29218,-2.351558 -6.11405,-2.351558 -1.41094,0 -2.82187,0 -3.76249,0.470312 -1.41094,0 -2.35156,0.940623 -3.29219,1.881246" /><path
     style="fill:#0b1783;fill-opacity:1;stroke-width:4.70311546"
     inkscape:connector-curvature="0"
     id="path52"
     d="m 379.88511,-73.043452 c -0.94063,0 -1.88125,0 -2.82187,-0.470311 -0.94063,-0.470312 -1.88125,-0.940623 -2.82187,-1.881246 l -0.47032,2.351557 c 0.94063,0.470312 2.35156,0.940624 3.29219,1.410935 0.94062,0.470312 1.88124,0.470312 3.29218,0.470312 2.35155,0 4.2328,-0.470312 5.64374,-1.881247 1.41093,-0.940623 1.88124,-2.821869 1.88124,-4.703115 0,-0.940623 0,-1.410935 -0.47031,-1.881246 0,-0.470312 -0.47031,-0.940624 -0.94062,-1.410935 -0.47031,-0.470312 -0.94063,-0.940623 -1.88125,-1.410935 -0.47031,-0.470311 -1.41093,-0.940623 -2.35156,-1.410934 -0.94062,-0.470312 -1.41093,-0.470312 -1.88124,-0.940624 -0.47031,-0.470311 -0.94063,-0.470311 -1.41094,-0.940623 -0.47031,-0.470311 -0.47031,-0.470311 -0.47031,-0.940623 0,-0.470311 0,-0.470311 0,-0.940623 0,-0.940623 0.47031,-1.410935 0.94062,-2.351558 0.47032,-0.470311 1.41094,-0.940623 2.82187,-0.940623 0.94063,0 1.41094,0 2.35156,0.470312 0.94062,0.470311 1.41094,0.940623 2.35156,1.410934 l 0.47031,-2.351557 c -0.94062,-0.470312 -1.88125,-0.940624 -2.82187,-0.940624 -0.94062,0 -1.88125,-0.470311 -2.82187,-0.470311 -0.94062,0 -1.88124,0 -2.82187,0.470311 -0.94062,0.470312 -1.41093,0.470312 -2.35156,0.940624 -0.47031,0.470311 -0.94062,0.940623 -1.41093,1.881246 -0.47031,0.940623 -0.47031,1.410935 -0.47031,2.351558 0,1.410934 0.47031,2.351557 0.94062,3.292181 0.94062,0.940623 1.88125,1.410934 3.76249,2.351557 0.94063,0.470312 1.88125,0.940623 2.35156,0.940623 0.47031,0.470312 0.94062,0.470312 1.41094,0.940624 0.47031,0.470311 0.47031,0.470311 0.94062,0.940623 0,0.470311 0,0.470311 0,0.940623 0,0.940623 -0.47031,1.881246 -0.94062,2.351558 -0.94063,1.881246 -1.88125,2.351557 -3.29218,2.351557" /><path
     style="fill:#0b1783;fill-opacity:1;stroke-width:4.70311546"
     d="m 541.20197,-129.48084 c -20.2234,19.75309 -48.44209,30.570253 -77.1311,30.570253 4.70312,2.821869 51.73428,13.639035 87.00764,-20.223393 34.80306,-34.80306 22.57496,-82.77484 19.28278,-87.00764 1.41093,28.689 -8.93592,56.9077 -29.15932,76.66078"
     id="path54"
     inkscape:connector-curvature="0" /><path
     style="fill:#0b1783;fill-opacity:1;stroke-width:4.70311546"
     d="m 374.24137,-285.62428 c 6.11405,0 11.28747,-5.17342 11.28747,-10.81716 0,-6.11405 -5.17342,-11.28748 -11.28747,-11.28748 -6.11405,0 -10.81717,5.17343 -10.81717,11.28748 0,5.64374 4.70312,10.81716 10.81717,10.81716"
     id="path56"
     inkscape:connector-curvature="0" /><path
     style="fill:#0b1783;fill-opacity:1;stroke-width:4.70311546"
     d="m 418.45065,-217.4291 c 0,12.69841 -2.35155,42.32804 9.40623,42.32804 11.75779,0 8.93592,-23.51558 8.93592,-42.32804 0,-18.81246 3.7625,-45.14991 26.33745,-45.14991 22.57496,0 27.74838,23.98589 25.86714,48.9124 -3.29218,53.61552 -47.97178,67.72487 -82.77484,61.61082 l 1.88125,1.41093 c 23.98589,7.9953 94.06231,6.11405 100.64667,-61.1405 1.88125,-20.2234 -8.93592,-57.37801 -45.14991,-57.37801 -36.6843,-0.47031 -45.14991,35.74368 -45.14991,51.73427"
     id="path58"
     inkscape:connector-curvature="0" /><path
     style="fill:#0b1783;fill-opacity:1;stroke-width:4.70311546"
     d="m 520.50826,-260.22745 c 8.93592,15.52028 14.10935,33.39212 14.10935,51.73427 0,17.87184 -4.70312,36.21399 -14.10935,51.73427 -8.46561,14.10935 -22.10464,26.33745 -37.62492,32.92181 39.97648,-8.46561 69.60611,-43.26866 69.60611,-84.65608 0,-39.50617 -27.27807,-72.89829 -64.903,-82.77484 14.57966,5.17343 24.92652,17.40153 32.92181,31.04057"
     id="path60"
     inkscape:connector-curvature="0" /><path
     style="fill:#0b1783;fill-opacity:1;stroke-width:4.70311546"
     d="m 375.18199,-195.79477 v 0 c 1.41093,9.40623 5.17343,18.81246 10.34685,18.81246 7.9953,0 7.9953,-11.28747 7.52499,-31.98118 -0.47031,-35.27337 11.28748,-60.19988 30.57025,-75.24985 6.11405,-4.23281 12.69841,-7.52499 19.28277,-9.40623 -41.85772,7.99529 -69.1358,40.44679 -69.1358,84.65608 0.47032,4.70311 0.94063,8.93592 1.41094,13.16872"
     id="path62"
     inkscape:connector-curvature="0" /></g><rect
   style="fill:none;stroke-width:4.70311546"
   x="-166.4903"
   id="rect69"
   height="533.33331"
   width="800"
   class="st0"
   y="53.919209" />
</svg>