<?xml version="1.0" encoding="UTF-8" standalone="no"?>
<!-- Generator: Adobe Illustrator 21.0.0, SVG Export Plug-In . SVG Version: 6.00 Build 0)  -->

<svg
   xmlns:dc="http://purl.org/dc/elements/1.1/"
   xmlns:cc="http://creativecommons.org/ns#"
   xmlns:rdf="http://www.w3.org/1999/02/22-rdf-syntax-ns#"
   xmlns:svg="http://www.w3.org/2000/svg"
   xmlns="http://www.w3.org/2000/svg"
   xmlns:sodipodi="http://sodipodi.sourceforge.net/DTD/sodipodi-0.dtd"
   xmlns:inkscape="http://www.inkscape.org/namespaces/inkscape"
   version="1.1"
   id="Calque_1"
   x="0px"
   y="0px"
   viewBox="0 0 800 236.2724"
   xml:space="preserve"
   sodipodi:docname="5.svg"
   width="800"
   height="236.2724"
   inkscape:version="0.92.2 2405546, 2018-03-11"
   inkscape:export-filename="/home/raphael/Documents/FabLab/website/fab-manager/public/support/assets/logo-sponsoring/5.png"
   inkscape:export-xdpi="96"
   inkscape:export-ydpi="96"><metadata
   id="metadata75"><rdf:RDF><cc:Work
       rdf:about=""><dc:format>image/svg+xml</dc:format><dc:type
         rdf:resource="http://purl.org/dc/dcmitype/StillImage" /><dc:title></dc:title></cc:Work></rdf:RDF></metadata><defs
   id="defs73" /><sodipodi:namedview
   pagecolor="#ffffff"
   bordercolor="#666666"
   borderopacity="1"
   objecttolerance="10"
   gridtolerance="10"
   guidetolerance="10"
   inkscape:pageopacity="0"
   inkscape:pageshadow="2"
   inkscape:window-width="1920"
   inkscape:window-height="1016"
   id="namedview71"
   showgrid="false"
   fit-margin-top="0"
   fit-margin-left="0"
   fit-margin-right="0"
   fit-margin-bottom="0"
   inkscape:zoom="1.0561457"
   inkscape:cx="-40.796265"
   inkscape:cy="42.149997"
   inkscape:window-x="0"
   inkscape:window-y="27"
   inkscape:window-maximized="1"
   inkscape:current-layer="Calque_1" />

































<g
   id="g879"
   transform="scale(2.8673835)"><path
     style="fill:#0b1783;fill-opacity:1"
     inkscape:connector-curvature="0"
     id="path2"
     d="m 75.399999,49.5 c -10.2,0 -13.8,-9.4 -13.8,-9.4 l -16.7,-34.5 c 0,0 -3.1,-5.6 3.1,-5.6 h 9.8 c 3.1,0 3.9,2.7 5.6,5.6 l 11,23 c 0,0 1.6,4 6.3,4 4.7,0 6.3,-4 6.3,-4 l 10.9,-23 C 99.599999,2.7 100.4,0 103.5,0 h 9.8 c 6.2,0 3.1,5.6 3.1,5.6 L 99.699999,40.1 c 0,0 -3.7,9.4 -13.8,9.4 z" /><path
     style="fill:#0b1783;fill-opacity:1"
     inkscape:connector-curvature="0"
     id="path4"
     d="m 193.2,49.5 c -10.2,0 -13.9,-9.4 -13.9,-9.4 L 162.6,5.7 c 0,0 -3.1,-5.6 3.1,-5.6 h 9.8 c 3.1,0 4,2.7 5.6,5.6 l 10.9,23 c 0,0 1.6,4 6.3,4 4.7,0 6.3,-4 6.3,-4 l 10.9,-23 c 1.7,-2.9 2.5,-5.6 5.6,-5.6 h 9.8 c 6.2,0 3.1,5.6 3.1,5.6 l -16.5,34.4 c 0,0 -3.7,9.4 -13.8,9.4 z" /><path
     style="fill:#0b1783;fill-opacity:1"
     inkscape:connector-curvature="0"
     id="path6"
     d="m 144.8,0 c 10.2,0 13.8,9.4 13.8,9.4 l 16.7,34.5 c 0,0 3.1,5.6 -3.1,5.6 h -9.8 c -3.1,0 -3.9,-2.7 -5.6,-5.6 l -10.9,-23 c 0,0 -1.6,-4 -6.3,-4 -4.7,0 -6.3,4 -6.3,4 l -11,23 c -1.7,2.9 -2.5,5.6 -5.6,5.6 h -9.8 c -6.2,0 -3.1,-5.6 -3.1,-5.6 L 120.5,9.5 c 0,0 3.7,-9.4 13.8,-9.4 h 10.5 z" /><rect
     style="fill:#0b1783;fill-opacity:1"
     id="rect8"
     height="15.1"
     width="1.6"
     y="63.599998"
     x="0" /><path
     style="fill:#0b1783;fill-opacity:1"
     inkscape:connector-curvature="0"
     id="path10"
     d="m 4.4999992,67.6 c 0.9,-0.2 1,-1.3 1,-2.1 h -1 v -2 h 1.9 v 2 c 0,1.3 -0.4,2.5 -1.9,3 z" /><path
     style="fill:#0b1783;fill-opacity:1"
     inkscape:connector-curvature="0"
     id="path12"
     d="m 9.2999992,63.6 h 1.5999998 v 2 H 9.2999992 Z m 0,3.9 H 10.899999 V 78.7 H 9.2999992 Z" /><path
     style="fill:#0b1783;fill-opacity:1"
     inkscape:connector-curvature="0"
     id="path14"
     d="m 15.599999,68.7 v 0 c 0.8,-1 1.6,-1.5 2.8,-1.5 1.7,0 2.8,0.9 2.8,2.9 v 8.7 h -1.6 v -8.2 c 0,-1.2 -0.4,-2 -1.7,-2 -0.6,0 -1.2,0.2 -1.6,0.6 -0.6,0.6 -0.7,1.2 -0.7,2 v 7.5 h -1.6 V 67.5 h 1.6 z" /><path
     style="fill:#0b1783;fill-opacity:1"
     inkscape:connector-curvature="0"
     id="path16"
     d="m 24.699999,68.8 h -1.6 v -1.4 h 1.6 v -0.9 c 0,-0.7 0,-1.6 0.4,-2.2 0.5,-0.7 1.5,-0.9 3,-0.8 v 1.4 c -1.3,-0.1 -1.8,0 -1.8,1.4 v 1.2 h 1.8 v 1.4 h -1.8 v 9.9 h -1.6 z" /><path
     style="fill:#0b1783;fill-opacity:1"
     inkscape:connector-curvature="0"
     id="path18"
     d="m 33.699999,79 c -2.4,0 -4,-1.5 -4,-6.3 0,-3.4 1.3,-5.5 4,-5.5 2.7,0 4,2.1 4,5.5 0,4.9 -1.6,6.3 -4,6.3 m 0,-10.5 c -1.6,0 -2.4,1.3 -2.4,4.7 0,2.6 0.5,4.4 2.4,4.4 1.9,0 2.4,-1.8 2.4,-4.4 -0.1,-3.4 -0.7,-4.7 -2.4,-4.7" /><path
     style="fill:#0b1783;fill-opacity:1"
     inkscape:connector-curvature="0"
     id="path20"
     d="m 42.099999,69.3 v 0 c 0.7,-1.5 1.7,-2.1 3.3,-2 v 1.6 c -2.1,-0.4 -3.3,0.9 -3.3,3 v 6.8 h -1.6 V 67.5 h 1.5 v 1.8 z" /><path
     style="fill:#0b1783;fill-opacity:1"
     inkscape:connector-curvature="0"
     id="path22"
     d="m 48.999999,78.7 h -1.6 V 67.5 h 1.5 v 1.4 0 c 0.5,-0.9 1.5,-1.7 2.7,-1.7 1.2,0 2.2,0.7 2.7,1.8 0.8,-1.2 1.6,-1.8 3,-1.8 0.8,0 1.5,0.3 2.1,0.8 0.7,0.7 0.7,1.9 0.7,2.6 v 8.1 h -1.6 v -8.2 c 0,-1.3 -0.3,-2 -1.7,-2 -0.5,0 -1.1,0.2 -1.5,0.6 -0.6,0.6 -0.7,1.2 -0.7,2 v 7.5 h -1.6 v -8.2 c 0,-1.2 -0.4,-2 -1.7,-2 -0.6,0 -1.2,0.2 -1.6,0.6 -0.6,0.6 -0.7,1.2 -0.7,2 z" /><path
     style="fill:#0b1783;fill-opacity:1"
     inkscape:connector-curvature="0"
     id="path24"
     d="m 70.099999,78.7 c -0.1,0 -0.2,0 -0.4,0.1 -1.4,0.1 -1.9,-0.1 -2,-1.6 v 0 c -0.4,1 -1.4,1.8 -2.5,1.8 -2.2,0 -2.9,-1.3 -2.9,-3.3 0,-0.4 0.1,-2 1.6,-2.7 0.9,-0.4 3.2,-1.3 3.4,-1.4 0.3,-0.3 0.3,-0.7 0.3,-1.3 0,-1.3 -0.5,-1.8 -1.8,-1.8 -1.5,0 -1.7,0.7 -1.6,2 h -1.4 c -0.1,-2.3 1.1,-3.3 3.3,-3.3 3.3,0 3,2.8 3,3 v 6.4 c 0,0.3 0,0.7 0.3,0.8 0.2,0.1 0.5,0 0.7,0 z m -2.6,-6 c -0.8,0.5 -1.7,0.8 -2.5,1.2 -0.7,0.3 -1,1.2 -1,1.9 0,1.1 0.3,1.9 1.6,1.9 0.6,0 1.9,-0.5 1.9,-2.3 z" /><path
     style="fill:#0b1783;fill-opacity:1"
     inkscape:connector-curvature="0"
     id="path26"
     d="m 74.199999,67.5 h 1.9 v 1.4 h -1.9 v 7.7 c 0,0.4 -0.1,0.9 0.7,0.9 h 1.1 v 1.4 h -1.7 c -1,0 -1.7,-0.1 -1.7,-1.8 v -8 h -1.6 v -1.4 h 1.6 v -3.1 h 1.6 z" /><path
     style="fill:#0b1783;fill-opacity:1"
     inkscape:connector-curvature="0"
     id="path28"
     d="m 78.099999,63.6 h 1.6 v 2 h -1.6 z m 0,3.9 h 1.6 v 11.2 h -1.6 z" /><path
     style="fill:#0b1783;fill-opacity:1"
     inkscape:connector-curvature="0"
     id="path30"
     d="m 88.399999,67.5 h 1.5 v 14.9 h -1.6 v -4.9 0 c -0.7,1 -1.4,1.5 -2.4,1.5 -2.4,0 -3.3,-1.8 -3.5,-5.8 -0.1,-2.5 0.6,-6.1 3.3,-6.1 1,0 1.9,0.4 2.6,1.5 v 0 -1.1 z m -2.2,10.2 c 2.2,0 2.1,-3 2.1,-4.6 0,-1.5 0.1,-4.5 -2.1,-4.5 -2.1,0 -2.2,2.9 -2.2,5 0.2,2.2 0.5,4.1 2.2,4.1" /><path
     style="fill:#0b1783;fill-opacity:1"
     inkscape:connector-curvature="0"
     id="path32"
     d="m 98.599999,77.2 v 0 c -0.6,1.2 -1.6,1.8 -2.7,1.8 -1.7,0 -2.7,-0.9 -2.7,-2.9 v -8.7 h 1.6 v 8.7 c 0,1 0.3,1.5 1.4,1.5 0.8,0 1.5,-0.3 1.9,-1 0.4,-0.6 0.5,-1.3 0.5,-2 V 67.4 H 100.2 v 11.2 h -1.600001 z" /><path
     style="fill:#0b1783;fill-opacity:1"
     inkscape:connector-curvature="0"
     id="path34"
     d="m 109.8,75 c 0.1,2.2 -1,4 -3.4,4 -2.1,0 -3.6,-1.4 -3.6,-5.9 0,-2.4 0.6,-5.9 3.6,-5.9 3.6,0 3.4,3.4 3.5,6.1 h -5.5 c 0,1.5 -0.2,4.4 2,4.4 1.5,0 2,-1.4 1.9,-2.7 z m -1.6,-3.1 c -0.1,-1.3 0,-3.4 -1.8,-3.4 -1.9,0 -1.9,2.1 -2,3.4 z" /><path
     style="fill:#0b1783;fill-opacity:1"
     inkscape:connector-curvature="0"
     id="path36"
     d="m 124.7,78.7 c -0.1,0 -0.2,0 -0.4,0.1 -1.4,0.1 -1.9,-0.1 -2,-1.6 v 0 c -0.4,1 -1.4,1.8 -2.5,1.8 -2.2,0 -2.9,-1.3 -2.9,-3.3 0,-0.4 0.1,-2 1.6,-2.7 0.9,-0.4 3.2,-1.3 3.4,-1.4 0.3,-0.3 0.3,-0.7 0.3,-1.3 0,-1.3 -0.5,-1.8 -1.8,-1.8 -1.5,0 -1.7,0.7 -1.6,2 h -1.4 c -0.1,-2.3 1.1,-3.3 3.3,-3.3 3.3,0 3.1,2.8 3.1,3 v 6.4 c 0,0.3 0,0.7 0.3,0.8 0.2,0.1 0.5,0 0.7,0 v 1.3 z m -2.6,-6 c -0.8,0.5 -1.7,0.8 -2.5,1.2 -0.7,0.3 -1,1.2 -1,1.9 0,1.1 0.3,1.9 1.6,1.9 0.6,0 1.9,-0.5 1.9,-2.3 z" /><path
     style="fill:#0b1783;fill-opacity:1"
     inkscape:connector-curvature="0"
     id="path38"
     d="m 132.4,77.2 v 0 c -0.6,1.2 -1.6,1.8 -2.7,1.8 -1.7,0 -2.7,-0.9 -2.7,-2.9 v -8.7 h 1.6 v 8.7 c 0,1 0.3,1.5 1.4,1.5 0.8,0 1.5,-0.3 1.9,-1 0.4,-0.6 0.5,-1.3 0.5,-2 v -7.2 h 1.6 v 11.2 h -1.6 z" /><path
     style="fill:#0b1783;fill-opacity:1"
     inkscape:connector-curvature="0"
     id="path40"
     d="m 147.1,70.5 c 0.1,-1.3 -0.4,-2 -1.8,-2 -1.1,0 -1.8,0.5 -1.8,1.7 0,1.5 1.2,1.6 2.3,2.1 1.6,0.7 3.2,1.1 3.2,3.2 0,2.1 -1.5,3.5 -3.8,3.5 -1,0 -2.2,-0.3 -2.8,-1.2 -0.7,-0.9 -0.6,-1.6 -0.6,-2.4 h 1.5 c -0.1,1.4 0.4,2.2 1.9,2.2 1.3,0 2.1,-0.5 2.1,-1.9 0,-1.6 -1.6,-1.7 -2.8,-2.2 -1.7,-0.6 -2.7,-1.2 -2.7,-3.2 0,-1.9 1.4,-3.2 3.3,-3.2 2.2,0 3.5,1 3.5,3.3 h -1.5 z" /><path
     style="fill:#0b1783;fill-opacity:1"
     inkscape:connector-curvature="0"
     id="path42"
     d="m 158,75 c 0.1,2.2 -1,4 -3.4,4 -2.1,0 -3.6,-1.4 -3.6,-5.9 0,-2.4 0.6,-5.9 3.6,-5.9 3.6,0 3.4,3.4 3.5,6.1 h -5.5 c 0,1.5 -0.2,4.4 2,4.4 1.5,0 2,-1.4 1.9,-2.7 z m -1.6,-3.1 c -0.1,-1.3 0,-3.4 -1.8,-3.4 -1.9,0 -1.9,2.1 -2,3.4 z" /><path
     style="fill:#0b1783;fill-opacity:1"
     inkscape:connector-curvature="0"
     id="path44"
     d="m 162.4,69.3 v 0 c 0.7,-1.5 1.7,-2.1 3.3,-2 v 1.6 c -2.1,-0.4 -3.3,0.9 -3.3,3 v 6.8 h -1.6 V 67.5 h 1.5 v 1.8 z" /><polygon
     style="fill:#0b1783;fill-opacity:1"
     transform="translate(-24.700001,-47.9)"
     id="polygon46"
     points="194.8,126.6 191.5,115.4 193.1,115.4 195.7,125.3 198.3,115.4 199.9,115.4 196.6,126.6 " /><path
     style="fill:#0b1783;fill-opacity:1"
     inkscape:connector-curvature="0"
     id="path48"
     d="m 177.1,63.6 h 1.6 v 2 h -1.6 z m 0,3.9 h 1.6 v 11.2 h -1.6 z" /><path
     style="fill:#0b1783;fill-opacity:1"
     inkscape:connector-curvature="0"
     id="path50"
     d="m 182.9,73.6 c 0,1.5 0.1,4.1 2.1,4.1 1.7,0 1.9,-1.5 2,-2.9 h 1.5 c -0.1,2.2 -0.9,4.2 -3.4,4.2 -3.4,0 -3.9,-2.9 -3.9,-5.8 0,-2.7 0.4,-6.1 3.9,-6.1 2.3,0 3.4,1.8 3.3,3.8 h -1.5 c 0,-1.2 -0.3,-2.5 -1.9,-2.5 -2.2,0.1 -2.1,3.6 -2.1,5.2" /><path
     style="fill:#0b1783;fill-opacity:1"
     inkscape:connector-curvature="0"
     id="path52"
     d="m 197.4,75 c 0.1,2.2 -1,4 -3.4,4 -2.1,0 -3.6,-1.4 -3.6,-5.9 0,-2.4 0.6,-5.9 3.6,-5.9 3.6,0 3.4,3.4 3.5,6.1 H 192 c 0,1.5 -0.2,4.4 2,4.4 1.5,0 2,-1.4 1.9,-2.7 z m -1.6,-3.1 c -0.1,-1.3 0,-3.4 -1.8,-3.4 -1.8,0 -1.9,2.1 -2,3.4 z" /><path
     style="fill:#0b1783;fill-opacity:1"
     inkscape:connector-curvature="0"
     id="path54"
     d="m 210.8,63.6 h 1.6 v 15.1 h -1.5 v -1.5 0 c -0.7,1.3 -1.4,1.8 -2.7,1.8 -3.5,0 -3.3,-4.9 -3.3,-5.9 -0.1,-3.3 1,-5.9 3.4,-5.9 1.2,0 1.8,0.5 2.6,1.5 v 0 -5.1 z m 0,9.3 c 0,-1.5 0,-4.4 -2.2,-4.4 -1.3,0 -2.2,1.1 -2.2,4.5 0,2.4 0.1,4.6 2.3,4.6 1.7,0 2.1,-2.1 2.1,-3.4 z" /><path
     style="fill:#0b1783;fill-opacity:1"
     inkscape:connector-curvature="0"
     id="path56"
     d="m 222.1,75 c 0.1,2.2 -1,4 -3.4,4 -2.1,0 -3.6,-1.4 -3.6,-5.9 0,-2.4 0.6,-5.9 3.6,-5.9 3.6,0 3.4,3.4 3.5,6.1 h -5.5 c 0,1.5 -0.2,4.4 2,4.4 1.5,0 2,-1.4 1.9,-2.7 z m -1.6,-3.1 c -0.1,-1.3 0,-3.4 -1.8,-3.4 -1.9,0 -1.9,2.1 -2,3.4 z" /><path
     style="fill:#0b1783;fill-opacity:1"
     inkscape:connector-curvature="0"
     id="path58"
     d="m 229.4,70.5 c 0.1,-1.3 -0.4,-2 -1.8,-2 -1.1,0 -1.8,0.5 -1.8,1.7 0,1.5 1.2,1.6 2.3,2.1 1.6,0.7 3.2,1.1 3.2,3.2 0,2.1 -1.5,3.5 -3.8,3.5 -1,0 -2.2,-0.3 -2.8,-1.2 -0.7,-0.9 -0.6,-1.6 -0.6,-2.4 h 1.5 c -0.1,1.4 0.4,2.2 1.9,2.2 1.3,0 2.1,-0.5 2.1,-1.9 0,-1.6 -1.6,-1.7 -2.8,-2.2 -1.7,-0.6 -2.7,-1.2 -2.7,-3.2 0,-1.9 1.4,-3.2 3.3,-3.2 2.2,0 3.5,1 3.5,3.3 h -1.5 z" /><path
     style="fill:#0b1783;fill-opacity:1"
     inkscape:connector-curvature="0"
     id="path60"
     d="m 239.1,63.6 h 1.6 v 2 h -1.6 z m 0,3.9 h 1.6 v 11.2 h -1.6 z" /><path
     style="fill:#0b1783;fill-opacity:1"
     inkscape:connector-curvature="0"
     id="path62"
     d="m 249.3,63.6 h 1.6 v 15.1 h -1.5 v -1.5 0 c -0.7,1.3 -1.4,1.8 -2.7,1.8 -3.5,0 -3.3,-4.9 -3.3,-5.9 -0.1,-3.3 1,-5.9 3.4,-5.9 1.2,0 1.8,0.5 2.6,1.5 v 0 -5.1 z m 0,9.3 c 0,-1.5 0,-4.4 -2.2,-4.4 -1.3,0 -2.2,1.1 -2.2,4.5 0,2.4 0.1,4.6 2.3,4.6 1.7,0 2.1,-2.1 2.1,-3.4 z" /><path
     style="fill:#0b1783;fill-opacity:1"
     inkscape:connector-curvature="0"
     id="path64"
     d="m 260.5,75 c 0.1,2.2 -1,4 -3.4,4 -2.1,0 -3.6,-1.4 -3.6,-5.9 0,-2.4 0.6,-5.9 3.6,-5.9 3.6,0 3.4,3.4 3.5,6.1 h -5.5 c 0,1.5 -0.2,4.4 2,4.4 1.5,0 2,-1.4 1.9,-2.7 z M 259,71.9 c -0.1,-1.3 0,-3.4 -1.8,-3.4 -1.9,0 -1.9,2.1 -2,3.4 z m -1.4,-8.6 h 2.2 l -2.6,2.8 h -1.4 z" /><path
     style="fill:#0b1783;fill-opacity:1"
     inkscape:connector-curvature="0"
     id="path66"
     d="m 269.7,75 c 0.1,2.2 -1,4 -3.4,4 -2.1,0 -3.6,-1.4 -3.6,-5.9 0,-2.4 0.6,-5.9 3.6,-5.9 3.6,0 3.4,3.4 3.5,6.1 h -5.5 c 0,1.5 -0.2,4.4 2,4.4 1.5,0 2,-1.4 1.9,-2.7 z m -1.6,-3.1 c -0.1,-1.3 0,-3.4 -1.8,-3.4 -1.9,0 -1.9,2.1 -2,3.4 z" /><path
     style="fill:#0b1783;fill-opacity:1"
     inkscape:connector-curvature="0"
     id="path68"
     d="m 277.1,70.5 c 0.1,-1.3 -0.4,-2 -1.8,-2 -1.1,0 -1.8,0.5 -1.8,1.7 0,1.5 1.2,1.6 2.3,2.1 1.6,0.7 3.2,1.1 3.2,3.2 0,2.1 -1.5,3.5 -3.8,3.5 -1,0 -2.2,-0.3 -2.8,-1.2 -0.7,-0.9 -0.6,-1.6 -0.6,-2.4 h 1.5 c -0.1,1.4 0.4,2.2 1.9,2.2 1.3,0 2.1,-0.5 2.1,-1.9 0,-1.6 -1.6,-1.7 -2.8,-2.2 -1.7,-0.6 -2.7,-1.2 -2.7,-3.2 0,-1.9 1.4,-3.2 3.3,-3.2 2.2,0 3.5,1 3.5,3.3 h -1.5 z" /></g>
</svg>