<?xml version="1.0" encoding="UTF-8" standalone="no"?>
<!-- Generator: Adobe Illustrator 21.0.0, SVG Export Plug-In . SVG Version: 6.00 Build 0)  -->

<svg
   xmlns:dc="http://purl.org/dc/elements/1.1/"
   xmlns:cc="http://creativecommons.org/ns#"
   xmlns:rdf="http://www.w3.org/1999/02/22-rdf-syntax-ns#"
   xmlns:svg="http://www.w3.org/2000/svg"
   xmlns="http://www.w3.org/2000/svg"
   xmlns:sodipodi="http://sodipodi.sourceforge.net/DTD/sodipodi-0.dtd"
   xmlns:inkscape="http://www.inkscape.org/namespaces/inkscape"
   version="1.1"
   id="Calque_1"
   x="0px"
   y="0px"
   viewBox="0 0 800.00002 257.47829"
   xml:space="preserve"
   sodipodi:docname="6.svg"
   width="800"
   height="257.4783"
   inkscape:version="0.92.2 2405546, 2018-03-11"
   inkscape:export-filename="/home/raphael/Documents/FabLab/website/fab-manager/public/support/assets/logo-sponsoring/png/6.png"
   inkscape:export-xdpi="96"
   inkscape:export-ydpi="96"><metadata
   id="metadata23"><rdf:RDF><cc:Work
       rdf:about=""><dc:format>image/svg+xml</dc:format><dc:type
         rdf:resource="http://purl.org/dc/dcmitype/StillImage" /><dc:title></dc:title></cc:Work></rdf:RDF></metadata><defs
   id="defs21" /><sodipodi:namedview
   pagecolor="#ffffff"
   bordercolor="#666666"
   borderopacity="1"
   objecttolerance="10"
   gridtolerance="10"
   guidetolerance="10"
   inkscape:pageopacity="0"
   inkscape:pageshadow="2"
   inkscape:window-width="1920"
   inkscape:window-height="1016"
   id="namedview19"
   showgrid="false"
   fit-margin-top="0"
   fit-margin-left="0"
   fit-margin-right="0"
   fit-margin-bottom="0"
   inkscape:zoom="0.28031832"
   inkscape:cx="224.94531"
   inkscape:cy="-33.541"
   inkscape:window-x="0"
   inkscape:window-y="27"
   inkscape:window-maximized="1"
   inkscape:current-layer="Calque_1" />
<g
   id="g16"
   transform="matrix(1.7634412,0,0,1.7634412,-159.66471,-425.69471)"
   style="fill:#0b1783;fill-opacity:1">
	<path
   d="m 95.2,367.2 c -0.1,0 -0.3,0.1 -0.4,0.1 -0.1,0.2 -0.2,0.5 -0.2,0.8 -0.6,2.9 -1.2,5.7 -1.9,8.6 -0.7,3.1 -1.3,6.2 -2,9.3 -0.1,0.4 -0.3,0.8 0,1.2 1.5,0.2 412.4,0.3 444.9,0.1 0.4,0 0.8,0 1.4,-0.1 1.4,-6.6 2.8,-13.2 4.2,-20 -0.3,-0.1 -0.5,-0.1 -0.7,-0.1 -148.4,0.1 -296.9,0.1 -445.3,0.1 z"
   id="path2"
   inkscape:connector-curvature="0"
   style="fill:#0b1783;fill-opacity:1" />
	<path
   d="m 409.2,352.1 c 4.2,0.3 8.3,-0.1 12.4,-1 12.6,-2.9 24.4,-11.7 30.8,-24.8 0.1,-0.3 0.2,-0.6 0.4,-0.9 -0.6,-0.2 -1.1,-0.2 -1.6,-0.2 -8.7,0 -17.4,0 -26.1,0 -1,0 -1.8,0.2 -2.6,0.7 -4.4,2.5 -9.1,3.1 -13.9,1.7 -6.6,-1.9 -11.1,-6.2 -12.6,-13 -1.7,-7.4 0,-14.1 4.7,-20 2.3,-2.9 5.4,-4.7 8.9,-5.7 4,-1.1 7.9,-1.1 11.9,-0.1 2.7,0.7 5.2,1.9 7.3,3.7 1.7,1.5 3,3.2 3.8,5.3 0.2,0.5 0.3,1.1 0.5,1.7 -0.7,0.3 -1.2,0.2 -1.7,0.2 -4.3,0 -8.7,0 -13,0 -0.9,0 -1.8,0.1 -2.6,0.3 -3.7,0.9 -6.7,4.2 -7.3,8.2 -0.4,3.3 1.1,7.7 5.6,9.3 1,0.4 2.1,0.5 3.2,0.5 4.1,0 8.1,0 12.2,0 8.2,0 16.3,0 24.5,0 0.5,0 1,0.1 1.5,-0.2 0.1,-0.3 0.2,-0.7 0.3,-1.1 1.5,-6.3 1.6,-12.7 0.2,-19 -3.9,-17.9 -19.3,-31.6 -39.5,-31.8 -3.6,0 -7.1,0.5 -10.5,1.3 -18.2,4.6 -33.1,20.7 -34.5,41.6 -0.4,5.5 0.4,10.9 2.2,16.1 5.2,15.7 18.9,26 35.5,27.2 z"
   id="path4"
   inkscape:connector-curvature="0"
   style="fill:#0b1783;fill-opacity:1" />
	<path
   d="m 541.9,277.2 c -7,-6.6 -15.4,-10.2 -25,-11.1 -4.6,-0.4 -9.2,-0.1 -13.6,1 -12.2,3 -21.7,9.8 -28.3,20.4 -6.5,10.5 -8.6,21.8 -5.7,33.8 2.3,9.7 7.6,17.6 15.8,23.3 9.6,6.7 20.4,8.7 31.9,6.6 8.9,-1.6 16.5,-5.7 23.1,-11.8 0.4,-0.4 0.8,-0.8 1.2,-1.2 -0.2,-0.2 -0.3,-0.4 -0.5,-0.6 -5.9,-5.8 -11.8,-11.5 -17.8,-17.3 -0.3,0.3 -0.6,0.5 -0.9,0.8 -1.2,1.1 -2.6,2 -4,2.7 -4.8,2.3 -9.6,2.6 -14.5,0.4 -7,-3.1 -10.3,-10.5 -8.9,-17.7 1.8,-9 9.6,-14 16.5,-14.3 4.7,-0.2 8.8,1.3 12.2,4.6 0.2,0.2 0.5,0.4 0.8,0.7 0.6,-0.6 1.2,-1.1 1.8,-1.6 5.8,-5.1 11.5,-10.2 17.3,-15.3 0.3,-0.3 0.8,-0.5 0.9,-1.1 -0.6,-0.7 -1.4,-1.5 -2.3,-2.3 z"
   id="path6"
   inkscape:connector-curvature="0"
   style="fill:#0b1783;fill-opacity:1" />
	<path
   d="m 98.1,288.2 c 2.2,0 4.5,0 6.9,0 -0.1,0.5 -0.1,0.9 -0.2,1.3 -2.6,11.6 -5.3,23.3 -7.9,34.9 -0.8,3.7 -1.6,7.4 -1.9,11.2 -0.2,2.1 -0.2,4.2 0.2,6.3 0.7,3.8 2.7,6.5 6.2,8 0.7,0.3 1.4,0.6 2.1,0.8 1.7,0.6 3.4,0.9 5.2,1.1 4.4,0.5 8.8,0.5 13.1,0.2 2.7,-0.1 5.3,-0.3 8,-0.5 0.2,0 0.4,0 0.7,-0.1 1.4,-5.9 2.7,-11.8 4.1,-17.9 -0.7,-0.2 -1.3,-0.1 -1.9,0 -2.1,0.1 -4.3,0.1 -6.4,0.1 -1.1,0 -2.2,-0.3 -3.2,-0.7 -1.3,-0.6 -2,-1.6 -2.2,-3 -0.2,-1.1 0,-2.2 0.2,-3.3 0.7,-3.1 1.4,-6.3 2.1,-9.4 2.1,-9.2 4.1,-18.5 6.2,-27.7 0.1,-0.4 0.1,-0.8 0.5,-1.2 1.6,0 3.3,0 5,0 1.7,0 3.5,0 5.2,0 1.7,0 3.3,0 5.1,0 0.1,-0.4 0.2,-0.8 0.3,-1.1 1.3,-6 2.7,-11.9 4,-17.9 0,-0.2 0,-0.4 0,-0.8 -1.3,0 -2.6,0 -3.8,0 -1.3,0 -2.5,0 -3.8,0 -1.3,0 -2.5,0 -3.8,0 -1.3,0 -2.5,0.1 -3.8,-0.1 0.1,-0.5 0.1,-0.9 0.2,-1.3 0.7,-3 1.4,-6.1 2.1,-9.1 1.1,-5 2.3,-10.1 3.4,-15.1 0.1,-0.4 0.2,-0.8 0.1,-1.2 -0.3,0 -0.5,0 -0.7,0 -7.5,0 -15,0 -22.5,0 -0.3,0 -0.6,0.1 -1,0.1 -0.5,2.3 -1,4.5 -1.5,6.7 -0.5,2.2 -1,4.5 -1.5,6.7 -0.5,2.2 -1,4.5 -1.5,6.7 -0.5,2.2 -0.9,4.5 -1.6,6.7 -0.6,0 -1.1,0 -1.6,0 -3.6,0 -7.2,0 -10.8,0 -0.5,0 -0.9,-0.1 -1.3,0.2 0,0.1 -0.1,0.2 -0.1,0.3 -1.4,6.2 -2.8,12.4 -4.2,18.6 0,0.2 0,0.4 0,0.8 1.9,-0.3 4.1,-0.3 6.3,-0.3 z"
   id="path8"
   inkscape:connector-curvature="0"
   style="fill:#0b1783;fill-opacity:1" />
	<path
   d="m 316.9,288.2 c 1.4,0 2.9,0 4.3,0 1.5,0 3,-0.1 4.6,0.1 -0.1,0.4 -0.1,0.7 -0.2,1 -2,9.1 -4.1,18.1 -6.1,27.2 -1,4.6 -2.1,9.3 -3,13.9 -0.7,3.2 -1,6.5 -0.7,9.7 0.1,1.2 0.3,2.3 0.6,3.4 0.8,2.5 2.3,4.4 4.6,5.8 1.1,0.6 2.2,1.1 3.3,1.4 2.8,0.9 5.7,1.2 8.5,1.3 3,0.1 6,0.1 9,0 3,-0.1 6.1,-0.4 9.1,-0.6 0.1,0 0.2,-0.1 0.3,-0.1 0.1,-0.3 0.2,-0.6 0.3,-0.9 1.2,-5.3 2.4,-10.5 3.6,-15.8 0.1,-0.3 0.1,-0.7 0.1,-1.1 -0.6,-0.2 -1.2,-0.1 -1.7,-0.1 -2.1,0.1 -4.3,0.1 -6.4,0.1 -1.1,0 -2.1,-0.3 -3.1,-0.7 -1.5,-0.6 -2.3,-1.8 -2.4,-3.5 0,-0.8 0,-1.7 0.2,-2.5 0.8,-3.9 1.7,-7.8 2.6,-11.7 1.9,-8.6 3.9,-17.3 5.8,-25.9 0.1,-0.4 0.2,-0.7 0.3,-1.1 5.1,0 10.2,0 15.3,0 0.1,-0.4 0.3,-0.8 0.3,-1.1 1.3,-5.7 2.6,-11.5 3.9,-17.2 0.1,-0.4 0.3,-0.9 0.1,-1.4 -1.7,0 -3.4,0 -5,0 -1.7,0 -3.4,0 -5,0 -1.7,0 -3.3,0.1 -5.2,-0.1 2,-9 4,-17.8 6,-26.9 -8.2,0 -16.2,0 -24.4,0 -0.1,0.4 -0.2,0.8 -0.3,1.1 -1.8,8.1 -3.7,16.3 -5.5,24.4 -0.1,0.4 -0.1,0.9 -0.5,1.4 -0.4,0 -0.9,0 -1.4,0 -3.5,0 -7.1,0 -10.6,0 -0.5,0 -0.9,0 -1.4,0 -0.1,0.4 -0.2,0.8 -0.3,1.1 -0.6,2.8 -1.3,5.6 -1.9,8.5 -0.6,2.9 -1.3,5.7 -1.9,8.6 -0.1,0.5 -0.3,1 -0.1,1.5 1.3,0.2 2.8,0.2 4.3,0.2 z"
   id="path10"
   inkscape:connector-curvature="0"
   style="fill:#0b1783;fill-opacity:1" />
	<path
   d="m 175.8,350.3 c 0.1,-0.5 0.3,-0.8 0.4,-1.2 0.9,-3.4 1.7,-6.8 2.6,-10.2 3.4,-13.3 6.7,-26.6 10.1,-39.9 0.5,-2 1.6,-3.7 3.3,-4.9 1.3,-1 2.7,-1.7 4.2,-2.2 4.3,-1.5 8.7,-1.7 13.1,-1.2 0.8,0.1 1.6,0.2 2.5,0.3 0.1,-0.2 0.2,-0.3 0.2,-0.4 1.7,-7.3 3.3,-14.5 4.9,-21.8 0,0 0,-0.1 0,-0.1 0,0 0,-0.1 -0.1,-0.2 -3.8,-0.2 -7.7,-0.1 -11.5,1 -3.2,0.9 -6.2,2.3 -8.9,4.2 -1.2,0.8 -2.3,1.7 -3.5,2.6 -0.2,0.2 -0.5,0.2 -0.9,0.5 0.3,-1.5 0.7,-2.8 1,-4.1 0.3,-1.4 0.8,-2.7 1,-4.1 -0.3,0 -0.5,-0.1 -0.8,-0.1 -7.5,0 -15,0 -22.5,0 -0.3,0 -0.5,0.1 -0.8,0.1 -0.4,1.6 -0.7,3.2 -1.1,4.8 -2.6,11.4 -5.2,22.7 -7.7,34.1 -2.4,10.5 -4.8,21.1 -7.2,31.6 -0.8,3.3 -1.5,6.6 -2.3,10 -0.1,0.4 -0.3,0.8 0,1.2 1.1,0.1 22.5,0.1 24,0 z"
   id="path12"
   inkscape:connector-curvature="0"
   style="fill:#0b1783;fill-opacity:1" />
	<path
   d="m 254.9,352.1 c 4.6,0.4 9.2,0 13.7,-1.2 8.4,-2.2 15.7,-6.4 21.7,-12.7 8.4,-8.8 12.7,-19.2 12.9,-31.3 0,-3 -0.3,-5.9 -0.9,-8.8 -2.6,-11.8 -9,-20.8 -19.4,-26.8 -7.2,-4.2 -15,-5.8 -23.3,-5.2 -4,0.3 -7.9,1.1 -11.7,2.5 -17.1,6.1 -29,22 -30.2,39.4 -0.3,4.6 0,9 1.1,13.5 3.8,16 17.4,29.1 36.1,30.6 z m -7.1,-54.9 c 3,-3.2 6.7,-5.1 11,-5.7 0.8,-0.1 1.7,-0.1 2.5,-0.2 7.3,-0.1 14.4,4.8 16.3,13 0.9,3.9 0.5,7.6 -1.1,11.2 -2.7,6 -7.3,9.8 -13.7,11.1 -9.1,1.8 -17.9,-3.7 -19.7,-13 -1.4,-6.3 0.4,-11.8 4.7,-16.4 z"
   id="path14"
   inkscape:connector-curvature="0"
   style="fill:#0b1783;fill-opacity:1" />
</g>
</svg>