<?xml version="1.0" encoding="UTF-8" standalone="no"?>
<!-- Generator: Adobe Illustrator 21.0.0, SVG Export Plug-In . SVG Version: 6.00 Build 0)  -->

<svg
   xmlns:dc="http://purl.org/dc/elements/1.1/"
   xmlns:cc="http://creativecommons.org/ns#"
   xmlns:rdf="http://www.w3.org/1999/02/22-rdf-syntax-ns#"
   xmlns:svg="http://www.w3.org/2000/svg"
   xmlns="http://www.w3.org/2000/svg"
   xmlns:sodipodi="http://sodipodi.sourceforge.net/DTD/sodipodi-0.dtd"
   xmlns:inkscape="http://www.inkscape.org/namespaces/inkscape"
   version="1.1"
   id="Calque_1"
   x="0px"
   y="0px"
   viewBox="0 0 800.00002 249.68545"
   xml:space="preserve"
   sodipodi:docname="7.svg"
   width="800"
   height="249.68546"
   inkscape:version="0.92.2 2405546, 2018-03-11"><metadata
   id="metadata63"><rdf:RDF><cc:Work
       rdf:about=""><dc:format>image/svg+xml</dc:format><dc:type
         rdf:resource="http://purl.org/dc/dcmitype/StillImage" /><dc:title></dc:title></cc:Work></rdf:RDF></metadata><defs
   id="defs61" /><sodipodi:namedview
   pagecolor="#ffffff"
   bordercolor="#666666"
   borderopacity="1"
   objecttolerance="10"
   gridtolerance="10"
   guidetolerance="10"
   inkscape:pageopacity="0"
   inkscape:pageshadow="2"
   inkscape:window-width="1920"
   inkscape:window-height="1016"
   id="namedview59"
   showgrid="false"
   fit-margin-top="0"
   fit-margin-left="0"
   fit-margin-right="0"
   fit-margin-bottom="0"
   inkscape:zoom="0.28031832"
   inkscape:cx="231.58686"
   inkscape:cy="-51.593766"
   inkscape:window-x="0"
   inkscape:window-y="27"
   inkscape:window-maximized="1"
   inkscape:current-layer="Calque_1" />
<g
   id="g56"
   transform="matrix(1.8639329,0,0,1.8639329,-156.38397,-438.7698)"
   style="fill:#0b1783;fill-opacity:1">
	<path
   d="m 321.1,349.9 c -0.6,0 -0.7,0.1 -0.7,0.7 0,3.5 0,7 0,10.5 0,1 -0.1,2.1 -0.4,3 -0.5,1.5 -1.4,2.6 -3,2.9 -1.5,0.3 -3,0 -4,-1.2 -0.8,-1 -1.2,-2.2 -1.2,-3.5 -0.2,-3.7 0,-7.4 -0.1,-11.1 0,-1.4 0,-1.3 -1.4,-1.4 -0.6,0 -0.7,0.2 -0.7,0.7 0,3.6 0,7.3 0,10.9 0,0.7 0.1,1.4 0.2,2.1 0.5,3.1 2.3,5.1 5,5.6 0.2,0 0.6,-0.1 0.7,0.2 0.4,0 0.7,0 1.1,0 0.1,-0.3 0.3,-0.1 0.4,-0.2 2.2,-0.3 3.8,-1.4 4.7,-3.5 0.5,-1.2 0.7,-2.5 0.7,-3.8 0,-3.6 0,-7.1 0,-10.7 0.1,-1.2 0.1,-1.2 -1.3,-1.2 z"
   id="path2"
   inkscape:connector-curvature="0"
   style="fill:#0b1783;fill-opacity:1" />
	<path
   d="m 223.4,262.1 v 0 c 0,-8.5 0,-17 0,-25.5 0,-0.6 -0.2,-0.8 -0.8,-0.8 -1.6,0 -3.3,0.1 -4.9,0 -0.7,0 -0.9,0.2 -0.9,0.9 0,15.4 0,30.9 0,46.3 0,1.8 0,3.5 -0.1,5.3 -0.3,4 -2,7.2 -5.5,9.2 -5.5,3.2 -11.2,3.3 -16.9,0.7 -3.5,-1.6 -5.7,-4.5 -6.5,-8.3 -0.4,-2.3 -0.5,-4.7 -0.5,-7 0,-15.4 0,-30.8 0,-46.2 0,-0.6 -0.1,-0.8 -0.8,-0.8 -1.6,0.1 -3.2,0.1 -4.8,0 -0.8,0 -0.9,0.2 -0.9,0.9 0,16.1 0,32.1 0,48.2 0,1.7 0,3.4 0.3,5.1 1,6.6 4.5,11.3 10.9,13.6 5.4,1.9 11,2 16.6,1 3.7,-0.6 7,-2.1 9.7,-4.7 3.6,-3.6 5,-8.1 5,-13 0.1,-8.4 0.1,-16.7 0.1,-24.9 z"
   id="path4"
   inkscape:connector-curvature="0"
   style="fill:#0b1783;fill-opacity:1" />
	<path
   d="m 370.3,304.1 c 0.6,0 0.7,-0.2 0.7,-0.7 0,-1.3 -0.1,-2.6 0,-3.8 0,-0.7 -0.2,-0.9 -0.9,-0.9 -9,0 -17.9,0 -26.9,0 -0.7,0 -0.9,-0.1 -0.9,-0.9 0,-3 0,-6 0,-9 0,-5.7 0,-11.4 0,-17.1 0,-0.6 0.1,-0.8 0.7,-0.7 0.7,0 1.5,0 2.2,0 7.3,0 14.7,0 22,0 0.7,0 0.9,-0.2 0.8,-0.8 0,-1.2 -0.1,-2.4 0,-3.5 0,-0.7 -0.2,-0.9 -0.9,-0.9 -8,0 -16,0 -23.9,0 -0.7,0 -0.9,-0.2 -0.9,-0.9 0,-7.6 0,-15.1 0,-22.7 0,-1.2 -0.1,-1 1,-1 8.9,0 17.7,0 26.6,0 1,0 1,0 1,-0.9 0,-1.2 0,-2.4 0,-3.5 0,-0.7 -0.2,-0.9 -0.9,-0.9 -11.3,0 -22.6,0 -34,0 -0.7,0 -0.9,0.1 -0.9,0.9 0,11.1 0,22.2 0,33.3 0,11.1 0,22.2 0,33.3 0,0.7 0.2,0.8 0.8,0.8 9.4,0 18.8,0 28.2,0 2.2,-0.1 4.2,-0.1 6.2,-0.1 z"
   id="path6"
   inkscape:connector-curvature="0"
   style="fill:#0b1783;fill-opacity:1" />
	<path
   d="m 327,298.9 c -9,0 -17.9,0 -26.9,0 -1,0 -1,0 -1,-1 0,-14.5 0,-29 0,-43.4 0,-5.9 0,-11.8 0,-17.8 0,-0.6 -0.2,-0.8 -0.8,-0.8 -1.6,0 -3.1,0.1 -4.7,0 -0.7,0 -1,0.1 -1,0.9 0,11.1 0,22.1 0,33.2 0,11.1 0,22.2 0,33.3 0,0.7 0.2,0.8 0.8,0.8 2.9,0 5.8,0 8.7,0 8.3,0 16.6,0 24.8,0 0.6,0 0.8,-0.1 0.8,-0.8 0,-1.2 -0.1,-2.4 0,-3.6 0.2,-0.6 -0.1,-0.8 -0.7,-0.8 z"
   id="path8"
   inkscape:connector-curvature="0"
   style="fill:#0b1783;fill-opacity:1" />
	<path
   d="m 284.4,298.9 c -9,0 -17.9,0 -26.9,0 -1.2,0 -1,0.1 -1,-1.1 0,-20.2 0,-40.4 0,-60.5 0,-0.3 0,-0.6 0,-0.8 0.1,-0.5 -0.1,-0.6 -0.6,-0.6 -1.6,0 -3.3,0.1 -4.9,0 -0.7,0 -0.8,0.2 -0.8,0.9 0,11.1 0,22.1 0,33.2 0,11.1 0,22.1 0,33.2 0,0.7 0.1,1 0.9,1 3.5,-0.1 6.9,0 10.4,0 7.7,0 15.3,0 23,0 0.7,0 0.9,-0.2 0.8,-0.8 -0.1,-1.2 -0.1,-2.4 0,-3.5 0,-0.8 -0.2,-1 -0.9,-1 z"
   id="path10"
   inkscape:connector-curvature="0"
   style="fill:#0b1783;fill-opacity:1" />
	<path
   d="m 238.9,235.9 c -1.7,0 -3.4,0 -5,0 -0.7,0 -0.9,0.2 -0.9,0.9 0,11.1 0,22.2 0,33.3 0,3.9 0,7.9 0,11.8 0,7.2 0,14.4 0,21.5 0,0.6 0.1,0.8 0.8,0.8 1.6,0 3.3,0 4.9,0 1,0 1,0 1,-1 0,-19.2 0,-38.3 0,-57.5 0,-3 0,-6 0,-9 -0.1,-0.7 -0.3,-0.8 -0.8,-0.8 z"
   id="path12"
   inkscape:connector-curvature="0"
   style="fill:#0b1783;fill-opacity:1" />
	<path
   d="m 396.9,350.1 c -0.5,-0.5 -1.5,-0.1 -2.2,-0.2 -0.5,-0.1 -0.7,0.2 -0.9,0.6 -1.1,2.9 -2.3,5.8 -3.4,8.7 -0.7,1.8 -1.4,3.6 -2.2,5.5 -0.1,-0.3 -0.2,-0.5 -0.3,-0.7 -1.5,-4 -3.1,-7.9 -4.6,-11.9 -0.3,-0.7 -0.4,-1.6 -0.9,-2 -0.5,-0.4 -1.5,-0.1 -2.2,-0.1 -0.6,-0.1 -0.8,0.1 -0.8,0.8 0,5.6 0,11.1 0,16.7 0,1.4 0,1.4 1.4,1.4 0.6,0 0.7,-0.1 0.7,-0.7 0,-4.9 0,-9.8 0,-14.7 h 0.1 c 0.1,0.2 0.1,0.3 0.2,0.5 1.8,4.8 3.7,9.6 5.5,14.4 0.2,0.4 0.4,0.6 0.8,0.6 0.5,0 0.7,-0.2 0.9,-0.6 1.8,-4.8 3.7,-9.5 5.5,-14.3 0.1,-0.2 0.1,-0.4 0.3,-0.6 0,4.7 0,9.4 0,14.1 0,1.3 0,1.3 1.3,1.4 0.7,0 0.8,-0.2 0.8,-0.8 0,-5.2 0,-10.5 0,-15.7 0.1,-1 0.4,-2 0,-2.4 z"
   id="path14"
   inkscape:connector-curvature="0"
   style="fill:#0b1783;fill-opacity:1" />
	<path
   d="m 267.5,351.2 c 0,-1.3 0,-1.3 -1.3,-1.3 -0.7,0 -0.8,0.2 -0.8,0.8 0,4.6 0,9.2 0,13.9 0,0.2 0,0.5 0,0.8 -0.3,-0.2 -0.4,-0.4 -0.5,-0.6 -2.8,-4.4 -5.6,-8.8 -8.3,-13.3 -0.7,-1.2 -1.4,-1.7 -2.8,-1.6 -0.6,0.1 -0.8,0.1 -0.8,0.8 0,5.6 0,11.2 0,16.8 0,1.3 0,1.3 1.3,1.3 0.7,0 0.8,-0.2 0.8,-0.8 0,-4.6 0,-9.1 0,-13.7 0,-0.3 0,-0.5 0,-0.8 0.1,0 0.1,0 0.2,0 0.1,0.2 0.3,0.4 0.4,0.6 2.8,4.4 5.6,8.8 8.2,13.2 0.7,1.2 1.5,1.7 2.8,1.5 0.6,-0.1 0.8,-0.1 0.8,-0.8 -0.1,-5.6 0,-11.2 0,-16.8 z"
   id="path16"
   inkscape:connector-curvature="0"
   style="fill:#0b1783;fill-opacity:1" />
	<path
   d="m 193.3,366.6 c -2.6,0 -5.2,0 -7.8,0 -0.5,0 -0.7,-0.1 -0.7,-0.6 0,-1.8 0,-3.6 0,-5.3 0,-0.6 0.2,-0.7 0.7,-0.7 2,0 4,0 5.9,0 1.4,0 1.4,0 1.4,-1.4 0,-0.6 -0.2,-0.7 -0.8,-0.7 -2.2,0 -4.4,0 -6.5,0 -0.6,0 -0.8,-0.1 -0.8,-0.7 0,-1.5 0,-3 0,-4.5 0,-0.6 0.2,-0.7 0.7,-0.6 2.2,0 4.4,0 6.5,0 1.4,0 1.4,0 1.4,-1.4 0,-0.5 -0.1,-0.7 -0.7,-0.7 -3.1,0 -6.2,0 -9.3,0 -0.6,0 -0.7,0.2 -0.7,0.7 0,2.9 0,5.8 0,8.7 0,2.9 0,5.9 0,8.8 0,0.5 0.1,0.7 0.7,0.7 3,0 6,0 9,0 1.4,0 1.4,0 1.4,-1.5 0.3,-0.7 0.1,-0.8 -0.4,-0.8 z"
   id="path18"
   inkscape:connector-curvature="0"
   style="fill:#0b1783;fill-opacity:1" />
	<path
   d="m 371,366.6 c -2.6,0 -5.1,0 -7.7,0 -0.5,0 -0.7,-0.1 -0.7,-0.6 0,-1.8 0,-3.7 0,-5.5 0,-0.5 0.2,-0.6 0.6,-0.6 2,0 4.1,0 6.1,0 1.4,0 1.4,0 1.4,-1.5 0,-0.5 -0.1,-0.7 -0.7,-0.7 -2.3,0 -4.5,0 -6.8,0 -0.5,0 -0.7,-0.1 -0.7,-0.6 0,-1.6 0,-3.1 0,-4.7 0,-0.5 0.2,-0.6 0.6,-0.6 2.2,0 4.4,0 6.6,0 1.5,0 1.5,0 1.5,-1.5 0,-0.5 -0.2,-0.6 -0.6,-0.6 -3.1,0 -6.3,0 -9.4,0 -0.6,0 -0.7,0.2 -0.7,0.7 0,2.9 0,5.8 0,8.7 0,2.9 0,5.9 0,8.8 0,0.5 0.1,0.6 0.6,0.6 3,0 6.1,0 9.1,0 1.4,0 1.3,0 1.4,-1.4 0.2,-0.3 0,-0.5 -0.6,-0.5 z"
   id="path20"
   inkscape:connector-curvature="0"
   style="fill:#0b1783;fill-opacity:1" />
	<path
   d="m 431,358.7 c -1.2,-0.5 -2.4,-0.8 -3.5,-1.4 -0.8,-0.4 -1.5,-1 -1.6,-2 -0.2,-1.5 0.3,-2.6 1.5,-3.2 1.4,-0.7 3.3,-0.6 4.4,0.3 0.3,0.3 0.5,0.8 0.8,0.8 0.4,-0.1 0.6,-0.5 0.9,-0.8 0.1,-0.1 0.2,-0.2 0.3,-0.3 0.4,-0.3 0.3,-0.5 0,-0.8 -1.2,-1.3 -2.6,-1.8 -4.9,-1.8 -1.4,0 -3.2,0.6 -4.4,2.4 -1.9,2.8 -0.9,6.4 2.2,7.8 1.3,0.6 2.6,1 3.9,1.6 2.2,0.9 2,3.9 0.5,5.1 -1.5,1.2 -3.9,1.1 -5.3,-0.2 -0.3,-0.3 -0.5,-1 -0.9,-0.9 -0.4,0.1 -0.7,0.6 -1.1,0.9 -0.7,0.4 -0.5,0.8 0,1.3 1.8,1.8 3.9,2.1 6.2,1.7 2.4,-0.4 3.9,-2 4.3,-4.1 0.6,-3.1 -0.5,-5.2 -3.3,-6.4 z"
   id="path22"
   inkscape:connector-curvature="0"
   style="fill:#0b1783;fill-opacity:1" />
	<path
   d="m 214.7,365 c -0.5,-0.4 -0.6,-0.3 -1,0.1 -2.3,2.7 -6.1,2.8 -8.6,0.3 -1.6,-1.6 -2.2,-3.7 -2.2,-5.7 0,-2.6 0.8,-4.7 2.2,-6.2 2.3,-2.5 6,-2.6 8,-0.2 0.4,0.5 0.7,0.4 1.1,0.1 1.3,-1.1 1.3,-1.1 0,-2.3 -2.5,-2.1 -6.7,-2.2 -9.6,-0.1 -4.9,3.6 -5.3,12.2 -0.7,16.2 3.2,2.8 8.2,2.8 10.9,0 1,-1.2 1,-1.2 -0.1,-2.2 z"
   id="path24"
   inkscape:connector-curvature="0"
   style="fill:#0b1783;fill-opacity:1" />
	<path
   d="m 353.1,349.9 c -3.7,0 -7.4,0 -11.1,0 -1.5,0 -1.5,0 -1.5,1.5 0,0.5 0.2,0.6 0.7,0.6 1.4,0 2.9,0 4.3,0 0.5,0 0.7,0.1 0.7,0.7 0,2.6 0,5.1 0,7.7 0,2.4 0,4.7 0,7.1 0,1.3 0,1.3 1.3,1.3 0.6,0 0.8,-0.1 0.8,-0.8 0,-5.1 0,-10.2 0,-15.3 0,-0.5 0.1,-0.7 0.7,-0.7 1.2,0.1 2.4,0 3.5,0 1.4,0 1.4,0 1.4,-1.4 -0.1,-0.6 -0.2,-0.7 -0.8,-0.7 z"
   id="path26"
   inkscape:connector-curvature="0"
   style="fill:#0b1783;fill-opacity:1" />
	<path
   d="m 166,366.6 c -2.2,0 -4.3,0 -6.5,0 -0.6,0 -0.7,-0.1 -0.7,-0.7 0,-4.9 0,-9.8 0,-14.7 0,-1.4 0,-1.4 -1.4,-1.4 -0.6,0 -0.7,0.2 -0.7,0.7 0,2.9 0,5.8 0,8.7 0,2.9 0,5.8 0,8.7 0,0.7 0.2,0.8 0.8,0.8 2.5,0 5.1,0 7.6,0 1.5,0 1.5,0 1.5,-1.5 0.1,-0.4 -0.1,-0.6 -0.6,-0.6 z"
   id="path28"
   inkscape:connector-curvature="0"
   style="fill:#0b1783;fill-opacity:1" />
	<path
   d="m 244.3,359.3 c 0,-2.7 0,-5.4 0,-8 0,-1.3 0,-1.3 -1.3,-1.3 -0.6,0 -0.7,0.2 -0.7,0.7 0,5.6 0,11.2 0,16.8 0,1.4 0,1.3 1.4,1.4 0.6,0 0.7,-0.1 0.7,-0.7 -0.2,-3.1 -0.1,-6 -0.1,-8.9 z"
   id="path30"
   inkscape:connector-curvature="0"
   style="fill:#0b1783;fill-opacity:1" />
	<path
   d="m 469.7,295.9 c -1,-0.5 -1.9,-1.1 -2.9,-1.6 -1.1,-0.6 -1.1,-0.6 -1.7,0.4 -1.7,2.6 -3.8,4.6 -6.8,5.4 -1.1,0.3 -2.2,0.4 -3.3,0.5 -3.8,0.2 -7.2,-0.7 -9.8,-3.6 -2.1,-2.2 -3.3,-5 -4.1,-7.9 -1.6,-5.4 -1.9,-11 -2.1,-16.6 -0.1,-4.3 0.1,-8.6 0.6,-12.8 0.5,-3.9 1.2,-7.7 2.9,-11.3 2.3,-4.8 5.8,-7.7 11.4,-7.7 3.1,0 5.9,0.6 8.3,2.6 1.3,1.1 2.3,2.4 3.1,3.8 0.3,0.5 0.5,0.6 1,0.3 1.1,-0.7 2.3,-1.4 3.5,-2 0.7,-0.3 0.7,-0.7 0.3,-1.2 -2.6,-4.4 -6.4,-7.2 -11.5,-8.3 -0.8,-0.2 -1.6,-0.1 -2.3,-0.4 -1.6,0 -3.1,0 -4.7,0 -0.1,0.2 -0.4,0.1 -0.5,0.2 -3.2,0.4 -6.2,1.4 -8.7,3.3 -3.1,2.4 -5,5.5 -6.4,9.1 -2.3,6.2 -2.9,12.7 -3.1,19.3 -0.2,4.8 0,9.6 0.5,14.4 0.5,4.3 1.3,8.6 3,12.6 1.9,4.6 4.8,8.2 9.5,10.1 4.3,1.8 8.8,1.9 13.3,0.9 4.8,-1.1 8.3,-3.8 10.8,-8 0.6,-1 0.6,-1.1 -0.3,-1.5 z"
   id="path32"
   inkscape:connector-curvature="0"
   style="fill:#0b1783;fill-opacity:1" />
	<path
   d="m 480.6,262.6 c 0,-0.6 -0.2,-0.8 -0.8,-0.8 -1.3,0 -2.6,0.1 -3.9,0 -0.7,0 -0.8,0.2 -0.8,0.8 0,6.9 0,13.7 0,20.6 0,6.9 0,13.7 0,20.6 0,0.7 0.2,0.9 0.8,0.8 1.3,-0.1 2.5,-0.1 3.8,0 0.7,0 0.9,-0.2 0.9,-0.9 0,-10.2 0,-20.4 0,-30.6 0,-3.6 -0.1,-7 0,-10.5 z"
   id="path34"
   inkscape:connector-curvature="0"
   style="fill:#0b1783;fill-opacity:1" />
	<path
   d="m 477.8,251.7 c -1.7,0 -3.1,1.4 -3.1,3.2 0,1.7 1.4,3.1 3.2,3 1.7,0 3.1,-1.4 3.1,-3.1 0,-1.8 -1.4,-3.1 -3.2,-3.1 z"
   id="path36"
   inkscape:connector-curvature="0"
   style="fill:#0b1783;fill-opacity:1" />
	<path
   d="m 173.5,349.9 c -0.8,-0.2 -1.1,0.2 -1.2,1 -0.3,1.5 -0.7,3.1 -1.1,4.6 -0.2,0.8 -0.2,0.8 0.7,0.8 0.8,0.1 1.1,-0.2 1.3,-1 0.4,-1.5 0.9,-2.9 1.3,-4.4 0.3,-1 0.3,-1 -1,-1 z"
   id="path38"
   inkscape:connector-curvature="0"
   style="fill:#0b1783;fill-opacity:1" />
	<path
   d="m 188.1,348.4 c 1.1,-1.1 2.1,-2.4 3.3,-3.7 -0.9,0 -1.7,0 -2.5,0 -0.2,0 -0.3,0.1 -0.4,0.2 -0.8,1.2 -1.5,2.4 -2.4,3.7 0.8,-0.1 1.5,0.3 2,-0.2 z"
   id="path40"
   inkscape:connector-curvature="0"
   style="fill:#0b1783;fill-opacity:1" />
	<path
   d="m 117.5,270.7 c -1.6,-1 -3.3,-1.7 -5,-2.4 0.3,-0.3 0.7,-0.4 1,-0.5 4.2,-1.9 7.1,-5 8.3,-9.6 0.7,-2.7 0.8,-5.4 0.5,-8.1 -0.6,-5.7 -3.3,-9.8 -8.8,-11.9 -4.1,-1.6 -8.3,-2.1 -12.6,-2.2 -5.7,-0.1 -11.3,-0.1 -17,-0.1 0,22.8 0,45.6 0,68.4 5.9,0 11.8,0 17.8,0 3.8,0 7.6,-0.5 11.3,-1.7 4.9,-1.6 8.6,-4.4 10.5,-9.3 1.3,-3.3 1.6,-6.7 1.4,-10.3 -0.3,-5.4 -2.8,-9.5 -7.4,-12.3 z M 90.4,253.6 c 0,-3.9 0,-7.9 0,-11.8 0,-0.5 0.1,-0.7 0.7,-0.7 3.3,0 6.6,0 9.9,0.1 2.7,0.1 5.4,0.4 8,1.2 4.1,1.3 6.1,4.1 6.7,8.2 0.3,2.3 0.2,4.6 -0.3,6.8 -1,4.1 -3.6,6.6 -7.6,7.8 -2.4,0.7 -4.8,0.9 -7.3,1 -3.1,0 -6.2,0 -9.3,0 -0.6,0 -0.8,-0.2 -0.8,-0.8 0,-4 0,-7.9 0,-11.8 z m 27.2,35.9 c -1,4.5 -4,7.2 -8.3,8.5 -2.6,0.7 -5.3,1 -7.9,1.1 -3.4,0.1 -6.8,0 -10.2,0.1 -0.6,0 -0.7,-0.2 -0.7,-0.8 0,-4.4 0,-8.8 0,-13.3 0,-4.4 0,-8.8 0,-13.2 0,-0.6 0.1,-0.8 0.8,-0.8 3,0 6,0 9,0 3.5,0.1 7.1,0.3 10.4,1.6 4.5,1.7 6.9,4.9 7.4,9.6 0.1,2.5 0,4.8 -0.5,7.2 z"
   id="path42"
   inkscape:connector-curvature="0"
   style="fill:#0b1783;fill-opacity:1" />
	<path
   d="m 172.2,258.9 c -0.6,-4.6 -1.5,-9.1 -3.5,-13.3 -2.4,-5.1 -6.3,-8.5 -11.9,-9.7 -0.9,-0.2 -1.9,-0.4 -2.8,-0.5 -1.5,0 -3,0 -4.5,0 -0.2,0.2 -0.5,0.1 -0.7,0.2 -3.9,0.5 -7.4,1.9 -10.2,4.7 -2.6,2.6 -4.2,5.8 -5.3,9.3 -1.7,5.4 -2.3,10.9 -2.5,16.5 -0.2,6.1 -0.1,12.2 0.8,18.2 0.6,4.1 1.6,8.2 3.6,11.9 2.2,4.3 5.5,7.4 10.2,8.8 3.3,1 6.6,1.1 10,0.6 4,-0.6 7.4,-2.2 10.2,-5.2 2.2,-2.4 3.6,-5.3 4.7,-8.3 1.8,-5.4 2.4,-10.9 2.7,-16.6 -0.1,-5.6 -0.2,-11.1 -0.8,-16.6 z m -7.1,27.8 c -0.6,2.9 -1.5,5.8 -3.2,8.3 -2.5,3.8 -6.1,5.6 -10.6,5.5 -5,-0.1 -8.4,-2.7 -10.6,-7 -1.6,-3 -2.4,-6.3 -2.9,-9.7 -0.9,-5.7 -1.1,-11.4 -0.9,-17.2 0.2,-5 0.6,-10 2.1,-14.8 0.4,-1.5 1,-2.9 1.7,-4.3 2.5,-4.9 6.5,-7.3 12,-7 4.6,0.3 7.8,2.7 10,6.6 1.6,3 2.4,6.2 3,9.5 0.8,4.6 1,9.2 0.9,13.6 -0.1,5.7 -0.4,11.1 -1.5,16.5 z"
   id="path44"
   inkscape:connector-curvature="0"
   style="fill:#0b1783;fill-opacity:1" />
	<path
   d="m 494.5,283.3 c 6.2,0 12.4,0 18.6,0 0,-2.2 0,-4.3 0,-6.5 -0.2,-0.1 -0.1,-0.4 -0.1,-0.6 -0.1,-1.5 -0.3,-3 -0.6,-4.5 -0.6,-2.8 -1.7,-5.4 -3.8,-7.5 -4,-4 -13.4,-4.2 -17.1,3 -1.7,3.4 -2.4,7.1 -2.7,10.9 -0.3,3.5 -0.3,7 0,10.5 0.3,3.2 0.7,6.4 2,9.4 1.6,4.1 4.4,6.7 9,7.1 4.5,0.4 8.6,-1.2 11,-5.5 1.5,-2.8 2,-5.8 2.3,-9 0,-0.4 -0.2,-0.5 -0.5,-0.4 -1,0 -1.9,0 -2.9,0 -1.7,0 -1.7,0 -1.8,1.7 -0.2,2.2 -0.7,4.2 -1.9,6.1 -2.2,3.2 -7.5,3.8 -9.7,-0.5 -0.4,-0.8 -0.8,-1.6 -1,-2.4 -1.1,-3.7 -1.1,-7.5 -1.1,-11.3 -0.2,-0.5 0,-0.5 0.3,-0.5 z m -0.5,-5 c 0.1,-2.7 0.3,-5.3 1.3,-7.8 0.7,-1.7 1.7,-3.3 3.5,-4 2.9,-1.2 5.9,-0.1 7.4,2.6 1.1,1.9 1.5,4 1.7,6.2 0.1,0.9 0,1.9 0.1,2.9 0,0.5 -0.1,0.7 -0.7,0.7 -2.1,0 -4.2,0 -6.2,0 -2.1,0 -4.2,0 -6.3,0 -0.6,0 -0.9,0 -0.8,-0.6 z"
   id="path46"
   inkscape:connector-curvature="0"
   style="fill:#0b1783;fill-opacity:1" />
	<path
   d="m 293.4,349.9 c -1.9,0 -3.8,0 -5.6,0 -0.5,0 -0.7,0.2 -0.7,0.7 0,2.9 0,5.8 0,8.7 0,2.9 0,5.9 0,8.8 0,0.5 0.1,0.7 0.7,0.7 2,0 4,0 5.9,0 3.2,-0.1 5.6,-1.5 7.1,-4.3 1.2,-2.2 1.4,-4.6 1,-7.1 -0.5,-4.4 -4,-7.5 -8.4,-7.5 z m 6,12.3 c -0.8,2.8 -3.1,4.4 -6.1,4.5 -1.2,0 -2.4,0 -3.5,0 -0.5,0 -0.6,-0.1 -0.6,-0.6 0,-2.2 0,-4.5 0,-6.7 0,-2.2 0,-4.5 0,-6.7 0,-0.5 0.1,-0.7 0.6,-0.6 1.2,0 2.5,0 3.7,0 3.6,0.1 6,2.4 6.3,6 0,1.4 0,2.7 -0.4,4.1 z"
   id="path48"
   inkscape:connector-curvature="0"
   style="fill:#0b1783;fill-opacity:1" />
	<path
   d="m 230.3,360.7 c -0.3,-0.5 -0.3,-0.6 0.3,-0.8 2.5,-0.7 3.8,-2.6 3.5,-5.3 -0.2,-2.7 -1.7,-4.2 -4.3,-4.6 -2,-0.3 -4,-0.1 -6,-0.2 -0.6,0 -0.8,0.1 -0.8,0.8 0,5.6 0,11.1 0,16.7 0,1.4 0,1.4 1.4,1.4 0.5,0 0.6,-0.2 0.6,-0.6 0,-2 0,-3.9 0,-5.9 0,-0.6 -0.3,-1.4 0.1,-1.8 0.4,-0.4 1.2,-0.1 1.8,-0.1 0.5,-0.1 0.7,0.2 1,0.6 1,2 2.2,3.9 3.2,5.9 0.7,1.6 1.7,2.4 3.6,1.8 -0.1,-0.2 -0.2,-0.4 -0.4,-0.7 -1.4,-2.4 -2.7,-4.8 -4,-7.2 z m -4.9,-2.5 c -0.4,0 -0.4,-0.2 -0.4,-0.5 0,-0.9 0,-1.8 0,-2.6 0,-0.9 0,-1.8 0,-2.6 0,-0.3 0,-0.5 0.4,-0.5 1.3,0 2.7,-0.1 4,0.1 1.7,0.3 2.5,1.3 2.5,3 0,1.6 -0.9,2.6 -2.6,2.9 -1.3,0.2 -2.6,0.2 -3.9,0.2 z"
   id="path50"
   inkscape:connector-curvature="0"
   style="fill:#0b1783;fill-opacity:1" />
	<path
   d="m 412.6,350.1 c -2.1,-0.4 -4.2,-0.1 -6.2,-0.2 -0.5,0 -0.7,0.1 -0.7,0.6 0,2.9 0,5.9 0,8.8 0,2.7 0,5.4 0,8.1 0,1.4 0,1.3 1.4,1.4 0.6,0 0.7,-0.2 0.7,-0.8 0,-2.4 0,-4.7 0,-7.1 0,-0.5 0.1,-0.6 0.6,-0.6 1.4,0 2.8,0.1 4.2,-0.1 2.6,-0.5 4.1,-2.3 4.1,-5.1 0,-2.8 -1.4,-4.6 -4.1,-5 z m -0.7,8 c -1.2,0.2 -2.5,0 -3.7,0.1 -0.4,0 -0.4,-0.2 -0.4,-0.5 0,-0.9 0,-1.8 0,-2.6 0,-0.9 0,-1.7 0,-2.6 0,-0.4 0.1,-0.6 0.5,-0.6 1.1,0 2.2,0 3.3,0 1.7,0.1 2.8,1.1 2.9,2.7 0.1,2.1 -0.7,3.2 -2.6,3.5 z"
   id="path52"
   inkscape:connector-curvature="0"
   style="fill:#0b1783;fill-opacity:1" />
	<path
   d="m 419.6,302.8 c -0.4,0.1 -0.7,0.3 -1,0.4 -0.5,0.2 -1,0.4 -1.6,0.3 -1.9,-0.4 -3.6,-1.3 -4.9,-2.7 -0.4,-0.4 -0.3,-0.6 0.1,-0.8 1.5,-0.9 3,-1.9 4.3,-3 1.2,-1 2.3,-2.1 3,-3.6 1,-2.3 0.4,-3.3 -1.6,-4.1 -0.3,-0.1 -0.5,-0.2 -0.8,-0.3 -2.4,-0.7 -4.8,-0.7 -7.4,-0.9 -0.7,0 -1.7,0 -2.6,0 -0.6,0 -1.2,0.1 -1.6,0.5 -0.5,0.4 -0.7,1.2 -0.5,1.6 0.3,0.5 1.1,0.7 1.6,0.4 0.5,-0.2 1,-0.3 1.5,-0.3 2.3,-0.1 4.5,0.5 6.6,1.6 1.3,0.6 1.3,1.4 0.3,2.4 -1.1,1.2 -2.4,2.1 -3.8,2.9 -2.1,1.3 -2.5,1.3 -4.4,-0.3 -2.1,-1.7 -4,-3.7 -5.9,-5.7 -1.1,-1.2 -2.3,-2.4 -3.1,-3.8 -0.3,-0.5 -0.4,-0.9 0.1,-1.5 2.9,-2.9 5.6,-5.9 8.2,-9.1 1.5,-1.9 2.2,-3.9 2.1,-6.3 -0.2,-3.2 -1.7,-5.6 -4.6,-6.9 -3.6,-1.6 -10,-0.9 -12.8,4.8 -1.7,3.4 -1.6,6.9 -0.7,10.5 0.6,2.3 1.8,4.3 2.8,6.4 0.2,0.5 0.2,0.8 -0.2,1.2 -0.8,0.8 -1.6,1.7 -2.3,2.6 -1.6,2 -3.1,4 -3.9,6.5 -1,3.4 0.4,6.8 3.6,8.4 2.5,1.2 5.1,1.3 7.8,1.1 3.5,-0.3 6.8,-1.4 10,-2.7 0.5,-0.2 0.8,-0.2 1.3,0.1 0.9,0.6 1.9,1.2 2.9,1.8 1.6,1 3.3,1.7 5.2,1.6 1.3,-0.1 2.4,-0.5 3.4,-1.4 0.4,-0.4 0.5,-0.9 0.3,-1.4 -0.3,-0.5 -0.9,-0.5 -1.4,-0.3 z m -26.9,-26.1 c 0,-0.2 -0.1,-0.4 -0.1,-0.6 -0.1,-0.6 -0.2,-1.3 -0.2,-2 0,-3.4 2,-6.7 4.9,-8.2 0.6,-0.4 1.3,-0.6 2.1,-0.8 3.1,-0.6 5.5,1 5.8,3.9 0.1,1.1 -0.1,2.1 -0.5,3.2 -1.1,3 -3,5.4 -5.2,7.7 -1.1,1.2 -2.3,2.2 -3.6,3.2 -0.4,0.3 -0.6,0.3 -0.8,-0.1 -1.4,-1.8 -1.9,-4 -2.4,-6.3 z m 12.4,23.4 c -0.2,0.2 -0.5,0.3 -0.7,0.4 -3,1.1 -6.2,1.8 -8.9,2 -1.6,0 -2.6,-0.1 -3.6,-0.5 -1.2,-0.4 -1.8,-1.3 -2,-2.5 -0.2,-2.1 0.5,-4 1.4,-5.9 0.9,-1.6 2,-3 3.2,-4.4 0.3,-0.3 0.4,-0.3 0.7,0 3,3.7 6.2,7.1 9.9,10.2 0.4,0.3 0.3,0.5 0,0.7 z"
   id="path54"
   inkscape:connector-curvature="0"
   style="fill:#0b1783;fill-opacity:1" />
</g>
</svg>