<?xml version="1.0" encoding="UTF-8" standalone="no"?>
<!-- Generator: Adobe Illustrator 21.0.0, SVG Export Plug-In . SVG Version: 6.00 Build 0)  -->

<svg
   xmlns:dc="http://purl.org/dc/elements/1.1/"
   xmlns:cc="http://creativecommons.org/ns#"
   xmlns:rdf="http://www.w3.org/1999/02/22-rdf-syntax-ns#"
   xmlns:svg="http://www.w3.org/2000/svg"
   xmlns="http://www.w3.org/2000/svg"
   xmlns:sodipodi="http://sodipodi.sourceforge.net/DTD/sodipodi-0.dtd"
   xmlns:inkscape="http://www.inkscape.org/namespaces/inkscape"
   version="1.1"
   id="Calque_1"
   x="0px"
   y="0px"
   viewBox="0 0 799.99996 242.06202"
   xml:space="preserve"
   sodipodi:docname="8.svg"
   width="800"
   height="242.06201"
   inkscape:version="0.92.2 2405546, 2018-03-11"
   inkscape:export-filename="/home/raphael/Documents/FabLab/website/fab-manager/public/support/assets/logo-sponsoring/8.png"
   inkscape:export-xdpi="96"
   inkscape:export-ydpi="96"><metadata
   id="metadata57"><rdf:RDF><cc:Work
       rdf:about=""><dc:format>image/svg+xml</dc:format><dc:type
         rdf:resource="http://purl.org/dc/dcmitype/StillImage" /><dc:title></dc:title></cc:Work></rdf:RDF></metadata><defs
   id="defs55" /><sodipodi:namedview
   pagecolor="#ffffff"
   bordercolor="#666666"
   borderopacity="1"
   objecttolerance="10"
   gridtolerance="10"
   guidetolerance="10"
   inkscape:pageopacity="0"
   inkscape:pageshadow="2"
   inkscape:window-width="1920"
   inkscape:window-height="1016"
   id="namedview53"
   showgrid="false"
   fit-margin-top="0"
   fit-margin-left="0"
   fit-margin-right="0"
   fit-margin-bottom="0"
   inkscape:zoom="1.1212982"
   inkscape:cx="-132.93332"
   inkscape:cy="15.77156"
   inkscape:window-x="0"
   inkscape:window-y="27"
   inkscape:window-maximized="1"
   inkscape:current-layer="Calque_1" />
<style
   type="text/css"
   id="style2">
	.st0{fill:#1E1E1E;}
</style>
<g
   id="g50"
   transform="matrix(2.9884199,0,0,2.9884199,-848.41241,-755.77139)"
   style="fill:#0b1783;fill-opacity:1">
	<g
   id="g20"
   style="fill:#0b1783;fill-opacity:1">
		<path
   class="st0"
   d="m 284.1,313.8 h 6 v -31.4 h -6 v -1.1 h 6 v -4.2 c 0,-1.8 0.1,-8.2 0.3,-9.5 0.2,-1.3 0.4,-2.5 0.7,-3.5 0.3,-1 0.7,-1.9 1.1,-2.7 0.4,-0.8 0.9,-1.5 1.4,-2.1 1.4,-1.7 3.1,-3.2 5.1,-4.5 2,-1.3 4.2,-1.9 6.5,-1.9 1.7,0 3.2,0.3 4.4,0.7 1.2,0.5 2.2,1.1 3,1.8 0.8,0.7 1.4,1.5 1.7,2.4 0.4,0.9 0.6,1.6 0.6,2.3 0,1 -0.3,1.9 -0.9,2.7 -0.6,0.8 -1.5,1.3 -2.9,1.3 -0.7,0 -1.4,-0.2 -2.3,-0.5 -0.9,-0.3 -1.3,-1 -1.3,-2 0,-0.9 0.3,-1.7 0.7,-2.4 0.5,-0.7 0.7,-1.5 0.7,-2.4 0,-1.2 -0.5,-1.9 -1.4,-2.3 -0.9,-0.4 -1.9,-0.6 -2.9,-0.6 -2.1,0 -4,0.9 -5.6,2.8 -1.6,1.9 -2.3,4.8 -2.3,8.8 v 15.6 h 9.7 v 1.1 h -9.7 v 31.4 h 7.1 v 1.1 h -19.9 v -0.9 z"
   id="path4"
   inkscape:connector-curvature="0"
   style="fill:#0b1783;fill-opacity:1" />
		<path
   class="st0"
   d="m 345.5,314 c -0.7,0.5 -1.5,1 -2.4,1.4 -0.9,0.4 -2.1,0.6 -3.4,0.6 -2.5,0 -4.3,-0.5 -5.4,-1.6 -1.1,-1.1 -1.9,-2.6 -2.3,-4.5 h -0.2 c -0.2,0.5 -0.5,1 -0.9,1.8 -0.4,0.7 -0.9,1.4 -1.7,2.1 -0.8,0.6 -1.8,1.2 -3,1.6 -1.2,0.4 -2.8,0.7 -4.8,0.7 -2.2,0 -3.9,-0.2 -5.2,-0.7 -1.3,-0.5 -2.3,-1.1 -3.1,-1.8 -0.7,-0.7 -1.2,-1.6 -1.5,-2.5 -0.2,-0.9 -0.4,-1.8 -0.4,-2.5 0,-1.8 0.4,-3.3 1.1,-4.4 0.7,-1.1 1.7,-2 2.9,-2.6 1.2,-0.7 2.5,-1.2 3.9,-1.6 1.4,-0.4 2.9,-0.9 4.4,-1.3 1.7,-0.6 3.1,-1.1 4.3,-1.5 1.1,-0.4 2,-0.9 2.6,-1.5 0.6,-0.6 1.1,-1.4 1.3,-2.3 0.2,-0.9 0.3,-2.2 0.3,-3.7 0,-1.3 -0.1,-2.4 -0.2,-3.4 -0.1,-1 -0.4,-1.8 -0.9,-2.6 -0.4,-0.7 -1,-1.2 -1.8,-1.6 -0.8,-0.4 -1.8,-0.5 -3.1,-0.5 -1.7,0 -3.2,0.3 -4.3,0.9 -1.1,0.6 -1.7,1.6 -1.7,2.9 0,0.9 0.1,1.8 0.2,2.6 0.2,0.9 0.2,1.5 0.2,1.9 0,0.7 -0.3,1.3 -0.8,1.8 -0.5,0.5 -1.3,0.7 -2.3,0.7 -1.7,0 -2.8,-0.3 -3.2,-0.9 -0.4,-0.6 -0.6,-1.4 -0.6,-2.4 0,-1.1 0.2,-2.3 0.8,-3.3 0.5,-1.1 1.3,-2 2.3,-2.8 1,-0.8 2.3,-1.5 3.8,-1.9 1.5,-0.5 3.3,-0.7 5.3,-0.7 2.4,0 4.4,0.3 6,0.9 1.6,0.6 2.9,1.4 3.9,2.4 1,1 1.7,2.2 2.1,3.4 0.4,1.3 0.6,2.6 0.6,4.1 v 19.5 c 0,1.5 0.2,2.5 0.7,3 0.5,0.5 1.1,0.8 2,0.8 0.6,0 1.2,-0.1 1.8,-0.3 0.6,-0.2 1.2,-0.5 1.8,-0.9 z m -13.7,-18.3 h -0.1 c -0.1,0.7 -1,1.3 -2.6,2 l -5.9,2.4 c -1.7,0.7 -2.9,1.6 -3.8,2.8 -0.9,1.2 -1.3,2.8 -1.3,4.6 0,0.8 0.1,1.6 0.2,2.4 0.2,0.8 0.5,1.6 0.8,2.2 0.4,0.7 1,1.2 1.8,1.6 0.7,0.4 1.7,0.6 2.9,0.6 1.7,0 3.1,-0.4 4.2,-1.1 1.1,-0.7 1.9,-1.7 2.4,-2.7 0.6,-1.1 0.9,-2.3 1.1,-3.6 0.2,-1.3 0.3,-2.4 0.3,-3.5 z"
   id="path6"
   inkscape:connector-curvature="0"
   style="fill:#0b1783;fill-opacity:1" />
		<path
   class="st0"
   d="m 347.9,313.8 h 6 v -59.1 h -6 v -1.1 h 12.8 v 33.9 h 0.2 c 0.7,-2.1 2,-3.8 3.8,-5.2 1.8,-1.4 4.1,-2.1 7,-2.1 2.2,0 4.4,0.5 6.3,1.4 2,1 3.7,2.2 5.3,3.8 1.5,1.6 2.7,3.5 3.6,5.6 0.9,2.1 1.3,4.4 1.3,6.7 0,2.4 -0.5,4.7 -1.4,6.8 -0.9,2.2 -2.2,4.1 -3.7,5.8 -1.6,1.7 -3.4,3 -5.5,4 -2.1,1 -4.2,1.5 -6.5,1.5 -1.8,0 -3.3,-0.3 -4.5,-0.9 -1.2,-0.6 -2.2,-1.3 -3,-2.1 -0.8,-0.8 -1.4,-1.7 -1.8,-2.6 -0.4,-0.9 -0.7,-1.6 -0.9,-2.3 h -0.2 v 6.8 h -12.6 v -0.9 z m 32.4,-16.9 c 0,-2.4 -0.1,-4.6 -0.4,-6.5 -0.3,-1.9 -0.7,-3.5 -1.4,-4.9 -0.6,-1.3 -1.6,-2.4 -2.7,-3.1 -1.2,-0.7 -2.7,-1.1 -4.5,-1.1 -1.9,0 -3.5,0.3 -4.8,1 -1.3,0.7 -2.3,1.5 -3.1,2.6 -0.6,0.7 -1,1.5 -1.4,2.4 -0.4,0.8 -0.6,1.8 -0.8,3 -0.2,1.2 -0.4,2.5 -0.4,4 -0.1,1.5 -0.1,3.2 -0.1,5.3 0,1.7 0.1,3.5 0.4,5.3 0.3,1.8 0.8,3.5 1.5,5 0.7,1.5 1.8,2.7 3.1,3.7 1.3,0.9 3.1,1.4 5.3,1.4 2.1,0 3.9,-0.4 5.1,-1.2 1.3,-0.8 2.2,-2 2.8,-3.6 0.6,-1.6 1,-3.5 1.2,-5.7 0.1,-2.4 0.2,-4.8 0.2,-7.6 z"
   id="path8"
   inkscape:connector-curvature="0"
   style="fill:#0b1783;fill-opacity:1" />
		<path
   class="st0"
   d="m 391.5,313.8 h 6 v -31.4 h -6 v -1.1 h 12.6 v 7.9 h 0.2 c 0.2,-0.8 0.5,-1.7 1,-2.7 0.5,-1 1.1,-1.9 2,-2.9 0.8,-0.9 1.8,-1.7 3,-2.3 1.2,-0.6 2.6,-0.9 4.3,-0.9 1.2,0 2.2,0.2 3.1,0.6 0.9,0.4 1.6,0.9 2.2,1.5 0.6,0.6 1,1.3 1.2,2.1 0.3,0.8 0.4,1.6 0.4,2.3 0,1.7 -0.4,2.9 -1.2,3.5 -0.8,0.6 -1.7,0.9 -2.7,0.9 -2.3,0 -3.4,-0.7 -3.4,-2.2 0,-0.5 0,-0.8 0.2,-1.1 0.1,-0.3 0.2,-0.6 0.4,-0.9 0.1,-0.3 0.2,-0.6 0.4,-1 0.1,-0.4 0.2,-0.9 0.2,-1.6 0,-1.7 -0.9,-2.5 -2.8,-2.5 -0.8,0 -1.7,0.3 -2.7,0.9 -0.9,0.6 -1.8,1.5 -2.6,2.7 -0.8,1.2 -1.5,2.6 -2,4.4 -0.6,1.7 -0.8,3.6 -0.8,5.8 v 17.9 h 6.8 v 1.1 h -19.6 v -1 z"
   id="path10"
   inkscape:connector-curvature="0"
   style="fill:#0b1783;fill-opacity:1" />
		<path
   class="st0"
   d="m 423.4,313.8 h 6 v -31.4 h -6 v -1.1 h 12.8 v 32.5 h 6 v 1.1 h -18.8 z"
   id="path12"
   inkscape:connector-curvature="0"
   style="fill:#0b1783;fill-opacity:1" />
		<path
   class="st0"
   d="m 446.4,313.8 h 6 v -31.4 h -6 v -1.1 H 459 v 8.4 h 0.2 c 0.3,-0.7 0.8,-1.5 1.4,-2.6 0.6,-1 1.4,-2.1 2.5,-3 1,-1 2.4,-1.9 3.9,-2.6 1.6,-0.7 3.5,-1.1 5.7,-1.1 3.4,0 6.2,0.8 8.4,2.5 2.2,1.7 3.3,4.3 3.3,8 v 22.9 h 6 v 1.1 h -18.8 v -1.1 h 6 v -25.3 c 0,-2 -0.5,-3.7 -1.5,-5 -1,-1.3 -2.5,-2 -4.5,-2 -1.7,0 -3.3,0.4 -4.8,1.1 -1.5,0.7 -2.8,1.8 -4,3.1 -1.1,1.3 -2,2.8 -2.7,4.6 -0.6,1.8 -1,3.7 -1,5.8 v 17.7 h 6 v 1.1 h -18.8 v -1.1 z"
   id="path14"
   inkscape:connector-curvature="0"
   style="fill:#0b1783;fill-opacity:1" />
		<path
   class="st0"
   d="m 529.8,314 c -0.7,0.5 -1.5,1 -2.4,1.4 -0.9,0.4 -2.1,0.6 -3.5,0.6 -2.5,0 -4.3,-0.5 -5.4,-1.6 -1.1,-1.1 -1.9,-2.6 -2.3,-4.5 H 516 c -0.2,0.5 -0.5,1 -0.9,1.8 -0.4,0.7 -0.9,1.4 -1.7,2.1 -0.8,0.6 -1.8,1.2 -3,1.6 -1.2,0.4 -2.8,0.7 -4.8,0.7 -2.2,0 -3.9,-0.2 -5.2,-0.7 -1.3,-0.5 -2.3,-1.1 -3.1,-1.8 -0.7,-0.7 -1.2,-1.6 -1.4,-2.5 -0.2,-0.9 -0.4,-1.8 -0.4,-2.5 0,-1.8 0.4,-3.3 1.1,-4.4 0.7,-1.1 1.7,-2 2.9,-2.6 1.2,-0.7 2.5,-1.2 3.9,-1.6 1.4,-0.4 2.9,-0.9 4.4,-1.3 1.7,-0.6 3.1,-1.1 4.3,-1.5 1.1,-0.4 2,-0.9 2.6,-1.5 0.6,-0.6 1,-1.4 1.3,-2.3 0.2,-0.9 0.4,-2.2 0.4,-3.7 0,-1.3 -0.1,-2.4 -0.3,-3.4 -0.2,-1 -0.4,-1.8 -0.8,-2.6 -0.4,-0.7 -1,-1.2 -1.8,-1.6 -0.8,-0.4 -1.8,-0.5 -3.1,-0.5 -1.7,0 -3.2,0.3 -4.3,0.9 -1.1,0.6 -1.7,1.6 -1.7,2.9 0,0.9 0.1,1.8 0.3,2.6 0.2,0.9 0.2,1.5 0.2,1.9 0,0.7 -0.3,1.3 -0.8,1.8 -0.5,0.5 -1.3,0.7 -2.3,0.7 -1.7,0 -2.8,-0.3 -3.2,-0.9 -0.4,-0.6 -0.6,-1.4 -0.6,-2.4 0,-1.1 0.2,-2.3 0.8,-3.3 0.5,-1.1 1.3,-2 2.3,-2.8 1,-0.8 2.3,-1.5 3.8,-1.9 1.5,-0.5 3.3,-0.7 5.3,-0.7 2.4,0 4.4,0.3 6,0.9 1.6,0.6 2.9,1.4 3.9,2.4 1,1 1.7,2.2 2.1,3.4 0.4,1.3 0.6,2.6 0.6,4.1 v 19.5 c 0,1.5 0.2,2.5 0.7,3 0.5,0.5 1.1,0.8 2,0.8 0.6,0 1.2,-0.1 1.8,-0.3 0.6,-0.2 1.2,-0.5 1.8,-0.9 z M 516.1,295.7 H 516 c -0.1,0.7 -1,1.3 -2.6,2 l -5.9,2.4 c -1.7,0.7 -2.9,1.6 -3.8,2.8 -0.9,1.2 -1.4,2.8 -1.4,4.6 0,0.8 0.1,1.6 0.2,2.4 0.2,0.8 0.4,1.6 0.9,2.2 0.4,0.7 1,1.2 1.8,1.6 0.7,0.4 1.7,0.6 2.9,0.6 1.7,0 3.1,-0.4 4.2,-1.1 1.1,-0.7 1.9,-1.7 2.4,-2.7 0.6,-1.1 0.9,-2.3 1.1,-3.6 0.2,-1.3 0.3,-2.4 0.3,-3.5 z"
   id="path16"
   inkscape:connector-curvature="0"
   style="fill:#0b1783;fill-opacity:1" />
		<path
   class="st0"
   d="m 532.3,313.8 h 6 v -59.1 h -6 v -1.1 H 545 v 60.2 h 6 v 1.1 h -18.8 v -1.1 z"
   id="path18"
   inkscape:connector-curvature="0"
   style="fill:#0b1783;fill-opacity:1" />
	</g>
	<g
   id="g36"
   style="fill:#0b1783;fill-opacity:1">
		<path
   class="st0"
   d="m 501.7,329.9 h -3.8 v 3 h 4.4 v 0.9 h -5.6 v -8.4 h 5.5 v 0.9 h -4.4 v 2.7 h 3.8 v 0.9 z"
   id="path22"
   inkscape:connector-curvature="0"
   style="fill:#0b1783;fill-opacity:1" />
		<path
   class="st0"
   d="m 506.5,329.7 2.2,-4.3 h 1.3 l -2.9,5.4 v 3 H 506 v -3 l -2.9,-5.4 h 1.3 z"
   id="path24"
   inkscape:connector-curvature="0"
   style="fill:#0b1783;fill-opacity:1" />
		<path
   class="st0"
   d="m 516.4,329.9 h -3.8 v 3 h 4.4 v 0.9 h -5.6 v -8.4 h 5.5 v 0.9 h -4.4 v 2.7 h 3.8 v 0.9 z"
   id="path26"
   inkscape:connector-curvature="0"
   style="fill:#0b1783;fill-opacity:1" />
		<path
   class="st0"
   d="m 528.1,331.1 v 0 c 0,0.8 -0.2,1.5 -0.8,2 -0.6,0.5 -1.3,0.8 -2.3,0.8 -0.9,0 -1.7,-0.3 -2.3,-1 -0.6,-0.7 -0.9,-1.5 -0.9,-2.6 v -1.5 c 0,-1 0.3,-1.9 0.9,-2.6 0.6,-0.7 1.4,-1 2.3,-1 0.9,0 1.7,0.3 2.3,0.8 0.6,0.5 0.8,1.2 0.8,2 v 0 H 527 c 0,-0.6 -0.2,-1.1 -0.5,-1.4 -0.3,-0.3 -0.8,-0.5 -1.5,-0.5 -0.6,0 -1.1,0.3 -1.5,0.8 -0.4,0.5 -0.6,1.1 -0.6,1.9 v 1.5 c 0,0.8 0.2,1.4 0.6,1.9 0.4,0.5 0.9,0.8 1.5,0.8 0.6,0 1.1,-0.2 1.5,-0.5 0.3,-0.3 0.5,-0.8 0.5,-1.4 z"
   id="path28"
   inkscape:connector-curvature="0"
   style="fill:#0b1783;fill-opacity:1" />
		<path
   class="st0"
   d="M 534.5,331.6 H 531 l -0.8,2.2 H 529 l 3.2,-8.4 h 1 l 3.2,8.4 h -1.2 z m -3.2,-0.9 h 2.8 l -1.4,-3.8 v 0 z"
   id="path30"
   inkscape:connector-curvature="0"
   style="fill:#0b1783;fill-opacity:1" />
		<path
   class="st0"
   d="m 539,330.1 v 3.6 h -1.1 v -8.4 h 3 c 0.9,0 1.6,0.2 2.1,0.6 0.5,0.4 0.7,1 0.7,1.8 0,0.4 -0.1,0.8 -0.3,1.1 -0.2,0.3 -0.6,0.6 -1,0.8 0.5,0.1 0.8,0.4 1,0.7 0.2,0.3 0.3,0.8 0.3,1.2 v 0.8 c 0,0.3 0,0.5 0.1,0.7 0.1,0.2 0.2,0.4 0.3,0.5 v 0.1 h -1.2 c -0.2,-0.1 -0.2,-0.3 -0.3,-0.6 0,-0.3 -0.1,-0.5 -0.1,-0.8 v -0.8 c 0,-0.5 -0.1,-0.8 -0.4,-1.1 -0.3,-0.3 -0.6,-0.4 -1.1,-0.4 h -2 z m 0,-0.8 h 1.8 c 0.6,0 1.1,-0.1 1.4,-0.4 0.3,-0.2 0.4,-0.6 0.4,-1.1 0,-0.5 -0.1,-0.8 -0.4,-1.1 -0.3,-0.3 -0.7,-0.4 -1.3,-0.4 H 539 Z"
   id="path32"
   inkscape:connector-curvature="0"
   style="fill:#0b1783;fill-opacity:1" />
		<path
   class="st0"
   d="m 551,329.9 h -3.8 v 3 h 4.4 v 0.9 H 546 v -8.4 h 5.5 v 0.9 h -4.4 v 2.7 h 3.8 v 0.9 z"
   id="path34"
   inkscape:connector-curvature="0"
   style="fill:#0b1783;fill-opacity:1" />
	</g>
	<g
   id="g48"
   style="fill:#0b1783;fill-opacity:1">
		<g
   id="g40"
   style="fill:#0b1783;fill-opacity:1">
			<path
   class="st0"
   d="m 432.9,252.9 c -5.4,0 -9.8,4.4 -9.8,9.7 0,5.4 4.4,9.7 9.8,9.7 5.4,0 9.8,-4.4 9.8,-9.7 -0.1,-5.3 -4.4,-9.7 -9.8,-9.7 z"
   id="path38"
   inkscape:connector-curvature="0"
   style="fill:#0b1783;fill-opacity:1" />
		</g>
		<g
   id="g44"
   style="fill:#0b1783;fill-opacity:1">
			<path
   class="st0"
   d="m 452.8,262.6 -9.5,-5.7 c 0.9,1.7 1.5,3.6 1.5,5.7 0,2.1 -0.6,4 -1.5,5.7 z"
   id="path42"
   inkscape:connector-curvature="0"
   style="fill:#0b1783;fill-opacity:1" />
		</g>
		<path
   class="st0"
   d="m 420.9,262.6 c 0,-2 0.5,-3.8 1.4,-5.5 l -9.1,5.5 9.1,5.5 c -0.8,-1.6 -1.4,-3.5 -1.4,-5.5 z"
   id="path46"
   inkscape:connector-curvature="0"
   style="fill:#0b1783;fill-opacity:1" />
	</g>
</g>
</svg>