<?xml version="1.0" encoding="UTF-8" standalone="no"?>
<!-- Generator: Adobe Illustrator 21.0.0, SVG Export Plug-In . SVG Version: 6.00 Build 0)  -->

<svg
   xmlns:dc="http://purl.org/dc/elements/1.1/"
   xmlns:cc="http://creativecommons.org/ns#"
   xmlns:rdf="http://www.w3.org/1999/02/22-rdf-syntax-ns#"
   xmlns:svg="http://www.w3.org/2000/svg"
   xmlns="http://www.w3.org/2000/svg"
   xmlns:sodipodi="http://sodipodi.sourceforge.net/DTD/sodipodi-0.dtd"
   xmlns:inkscape="http://www.inkscape.org/namespaces/inkscape"
   version="1.1"
   id="Calque_1"
   x="0px"
   y="0px"
   viewBox="0 0 800.00001 223.99056"
   xml:space="preserve"
   sodipodi:docname="9.svg"
   width="800"
   height="223.99057"
   inkscape:version="0.92.2 2405546, 2018-03-11"
   inkscape:export-filename="/home/raphael/Documents/FabLab/website/fab-manager/public/support/assets/logo-sponsoring/9.png"
   inkscape:export-xdpi="96"
   inkscape:export-ydpi="96"><metadata
   id="metadata19"><rdf:RDF><cc:Work
       rdf:about=""><dc:format>image/svg+xml</dc:format><dc:type
         rdf:resource="http://purl.org/dc/dcmitype/StillImage" /><dc:title /></cc:Work></rdf:RDF></metadata><defs
   id="defs17" /><sodipodi:namedview
   pagecolor="#ffffff"
   bordercolor="#666666"
   borderopacity="1"
   objecttolerance="10"
   gridtolerance="10"
   guidetolerance="10"
   inkscape:pageopacity="0"
   inkscape:pageshadow="2"
   inkscape:window-width="1920"
   inkscape:window-height="1016"
   id="namedview15"
   showgrid="false"
   fit-margin-top="0"
   fit-margin-left="0"
   fit-margin-right="0"
   fit-margin-bottom="0"
   inkscape:zoom="1.1212733"
   inkscape:cx="372.45809"
   inkscape:cy="-11.717898"
   inkscape:window-x="0"
   inkscape:window-y="27"
   inkscape:window-maximized="1"
   inkscape:current-layer="Calque_1" />





<g
   id="g823"
   transform="scale(2.3577955)"><path
     style="fill:#0b1783;fill-opacity:1"
     inkscape:connector-curvature="0"
     id="path2"
     d="m 247.6,70.3 c -12.6,0 -22.8,-10.2 -22.8,-22.8 0,-12.6 10.2,-22.8 22.8,-22.8 6.6,0 12.5,2.8 16.7,7.3 L 284.8,20.2 C 276.2,8 262,0 245.9,0 c -26.2,0 -47.5,21.3 -47.5,47.5 0,26.2 21.3,47.5 47.5,47.5 15.9,0 30,-7.8 38.6,-19.9 L 264,63.2 c -4.2,4.4 -10,7.1 -16.4,7.1 z" /><path
     style="fill:#0b1783;fill-opacity:1"
     inkscape:connector-curvature="0"
     id="path4"
     d="m 190.6,40 h -45.7 v 17.6 h 20.7 c -3.6,7.9 -11.5,12.7 -20.7,12.7 -12.6,0 -22.8,-10.2 -22.8,-22.8 0,-12.6 10.2,-22.8 22.8,-22.8 6.6,0 12.5,2.8 16.7,7.3 L 182.1,20.2 C 173.5,8 159.3,0 143.2,0 117,0 95.7,21.3 95.7,47.5 c 0,26.2 20,47.5 47.6,47.5 12,0 22.3,-4.3 29.7,-11.2 v 7.9 h 17.6 z" /><polygon
     style="fill:#0b1783;fill-opacity:1"
     transform="translate(-140.2,-296)"
     id="polygon6"
     points="140.2,299.8 140.2,387.4 168.2,387.4 168.2,354 199.7,354 199.7,387.4 227.7,387.4 227.7,299.8 199.7,299.8 199.7,330.8 168.2,330.8 168.2,299.8 " /><polygon
     style="fill:#0b1783;fill-opacity:1"
     transform="translate(-140.2,-296)"
     id="polygon8"
     points="433.9,343.2 445.6,354.2 479.5,352.5 464.6,341.5 " /><polygon
     style="fill:#0b1783;fill-opacity:1"
     transform="translate(-140.2,-296)"
     id="polygon10"
     points="479.5,386 479.5,352.5 445.6,354.2 445.6,388.4 " /><polygon
     style="fill:#0b1783;fill-opacity:1"
     transform="translate(-140.2,-296)"
     id="polygon12"
     points="433.9,376.6 445.6,388.4 445.6,354.2 433.9,343.2 " /></g>
</svg>