<?xml version="1.0" encoding="UTF-8" standalone="no"?>
<!-- Generator: Adobe Illustrator 23.0.6, SVG Export Plug-In . SVG Version: 6.00 Build 0)  -->

<svg
   xmlns:dc="http://purl.org/dc/elements/1.1/"
   xmlns:cc="http://creativecommons.org/ns#"
   xmlns:rdf="http://www.w3.org/1999/02/22-rdf-syntax-ns#"
   xmlns:svg="http://www.w3.org/2000/svg"
   xmlns="http://www.w3.org/2000/svg"
   xmlns:sodipodi="http://sodipodi.sourceforge.net/DTD/sodipodi-0.dtd"
   xmlns:inkscape="http://www.inkscape.org/namespaces/inkscape"
   version="1.1"
   id="Calque_1"
   x="0px"
   y="0px"
   viewBox="0 0 700 500"
   style="enable-background:new 0 0 700 500;"
   xml:space="preserve"
   sodipodi:docname="communauté.svg"
   inkscape:export-filename="/home/raphael/github/fab-manager/public/home/assets/communauté.svg.png"
   inkscape:export-xdpi="95.897102"
   inkscape:export-ydpi="95.897102"
   inkscape:version="0.92.4 5da689c313, 2019-01-14"><metadata
   id="metadata156"><rdf:RDF><cc:Work
       rdf:about=""><dc:format>image/svg+xml</dc:format><dc:type
         rdf:resource="http://purl.org/dc/dcmitype/StillImage" /></cc:Work></rdf:RDF></metadata><defs
   id="defs154" /><sodipodi:namedview
   pagecolor="#ffffff"
   bordercolor="#666666"
   borderopacity="1"
   objecttolerance="10"
   gridtolerance="10"
   guidetolerance="10"
   inkscape:pageopacity="0"
   inkscape:pageshadow="2"
   inkscape:window-width="1866"
   inkscape:window-height="1016"
   id="namedview152"
   showgrid="false"
   inkscape:zoom="1.4953125"
   inkscape:cx="315.89342"
   inkscape:cy="250"
   inkscape:window-x="54"
   inkscape:window-y="30"
   inkscape:window-maximized="1"
   inkscape:current-layer="Calque_1" />
<style
   type="text/css"
   id="style2">
	.st0{fill:#0B1783;}
	.st1{fill:#FFFFFF;}
</style>
<g
   id="g1190">
	<g
   id="path1188">
		<path
   class="st0"
   d="M632.14,274.62c-1.45,0-3.33-0.24-5.81-0.84l-6.04-1.45c-7.3-1.74-8.61-3.84-8.93-5.86    c-0.23-1.41,0.24-3.35,2.24-4.58c0.44-0.5,1.42-3.32,1.84-5.68l22.29-89.76c0.83-11.77,3.91-21.79,5.89-27.22l-12.97-3.1    c-3.67-1.05-6.64-4.46-5.55-9.03l2.18-9.09c0.18-0.77,0.6-1.46,1.19-1.99l3.9-3.48c0.95-0.84,2.24-1.17,3.48-0.88l37.74,9.04    c1.18,0.28,2.17,1.11,2.65,2.23c0.43,0.99,0.42,2.11-0.01,3.09c0.01,0.52,0.58,6.17,19.68,13.8c0.29,0.11,0.56,0.26,0.81,0.44    c1.49,1.06,2.21,2.88,1.84,4.64c-0.69,3.26-4.25,4.42-8,5.19c-0.55,0.12-1.13,0.11-1.68-0.03l-23.1-5.53    c-0.69,5.74-2.49,16.07-7.07,26.95l-20.69,89.87c-0.75,2.54-1.16,5.51-0.9,6.35c1.12,1.78,0.66,3.73-0.17,4.89    C636.17,273.69,634.97,274.62,632.14,274.62z M630.43,271.55C630.43,271.56,630.43,271.56,630.43,271.55    C630.43,271.56,630.43,271.56,630.43,271.55z M620.93,264.5c0.39,0.11,0.79,0.22,1.17,0.31l6.04,1.45    c0.38,0.09,0.79,0.18,1.19,0.25c0.04-2.79,0.77-5.62,1.22-7.13l20.7-89.96c0.05-0.22,0.12-0.44,0.21-0.65    c6.33-14.84,7-29.06,7.01-29.2c0.05-1.15,0.62-2.23,1.54-2.93c0.92-0.7,2.11-0.94,3.23-0.68l15.04,3.6    c-4.91-3.29-7.99-6.69-9.21-10.17c-0.23-0.67-0.38-1.31-0.47-1.92l-32.58-7.8l-1.49,1.33l-1.84,7.66l17.08,4.08    c1.13,0.27,2.07,1.03,2.58,2.07c0.51,1.04,0.52,2.25,0.04,3.3c-0.06,0.13-5.89,13.11-6.97,29.2c-0.02,0.23-0.05,0.45-0.11,0.68    l-22.32,89.84C622.76,259.23,622.14,262.02,620.93,264.5z M676.07,126.38c-0.01,0.01-0.01,0.02-0.01,0.02    C676.06,126.4,676.07,126.39,676.07,126.38z M676.07,126.38C676.07,126.38,676.07,126.38,676.07,126.38    C676.07,126.38,676.07,126.38,676.07,126.38z"
   id="path4" />
	</g>
</g>
<g
   id="g1194">
	<g
   id="polygon1192">
		<path
   class="st0"
   d="M603.56,239.98c-0.97,0-1.91-0.36-2.62-1.02c-0.78-0.72-1.24-1.73-1.25-2.79l-1.71-117.29l-1.54-0.23    c-1.82-0.28-3.2-1.81-3.28-3.65l-1.92-41.32l-18.5-2.84c-1.89-0.29-3.28-1.91-3.28-3.82s1.38-3.53,3.27-3.83l18.9-2.99    l-16.76-3.91c-1.83-0.43-3.09-2.11-2.99-3.99c0.11-1.88,1.55-3.41,3.42-3.63l16.23-1.9l-0.05-0.57c-0.09-1.04,0.24-2.08,0.93-2.87    c0.68-0.79,1.66-1.27,2.7-1.33l17.86-1.05c0.3-0.02,0.61,0,0.91,0.05l29.52,5.28c1.15,0.21,2.15,0.92,2.71,1.95l2.95,5.39    c0.65,1.19,0.63,2.63-0.05,3.8c-0.68,1.17-1.92,1.9-3.28,1.93l-28.5,0.54l-0.26,6.65l28.7-1.14c1.35-0.05,2.51,0.54,3.27,1.57    c0.76,1.03,0.96,2.38,0.53,3.59l-2.3,6.53c-0.45,1.27-1.51,2.21-2.83,2.5l-22.57,4.91l-0.42,29.84c-0.03,1.96-1.52,3.6-3.47,3.8    l-2.42,0.25l1.71,117.02c0.03,2.06-1.56,3.78-3.61,3.92l-9.74,0.67C603.74,239.97,603.65,239.98,603.56,239.98z M600.75,111.46    l1.64,0.25c1.87,0.29,3.26,1.88,3.29,3.77l1.69,116.48l2.01-0.14l-1.71-116.9c-0.03-2.01,1.48-3.7,3.47-3.91l2.52-0.26l0.42-29.47    c0.03-1.8,1.29-3.35,3.05-3.73l18.53-4.03l-22.56,0.89c-1.12,0.03-2.13-0.37-2.89-1.13c-0.76-0.76-1.17-1.81-1.13-2.89l0.58-14.49    c0.08-2.05,1.75-3.68,3.8-3.72l17.34-0.33l-17.82-3.19l-13.43,0.79l0.03,0.35c0.14,1.61-0.72,3.08-2.08,3.78    c1.56,0.42,2.7,1.78,2.84,3.4l0.51,5.92c0.16,1.79-0.94,3.42-2.58,3.99c1.78,0.33,3.11,1.87,3.16,3.69    c0.05,1.63-0.93,3.09-2.39,3.69L600.75,111.46z"
   id="path8" />
	</g>
</g>
<g
   id="path1196">
	<path
   class="st0"
   d="M143.11,448.08l0.59,9.09c0,0,18.11,16.97,37.91,16.97c0,0,14.71,0.57,7.35-12.44c0,0-14.84-10.17-14.84-14.84   c0,0-1.11-7.78,4.66-5.52c0,0,15.55,15.84,35.63,15.84c0,0,14-2.68,2.26-14.42c0,0-8.77-4.94-10.19-11.17"
   id="path12" />
	<path
   class="st0"
   d="M181.9,479.3c-0.23,0-0.4-0.01-0.49-0.01c0,0-0.01,0-0.01,0c-21.39,0-40.43-17.61-41.23-18.36   c-0.96-0.9-1.54-2.12-1.62-3.43l-0.59-9.08l10.3-0.68l0.45,6.94c4.48,3.73,18.44,14.29,32.9,14.29c1.77,0.07,3.84-0.44,4.29-0.93   l0,0c-0.03,0,0.06-0.84-0.91-2.82c-10.3-7.2-15.68-13.22-16.01-17.91c-0.23-1.9-0.47-7.06,3.18-9.95c1.32-1.05,4.18-2.55,8.51-0.84   c0.68,0.26,1.29,0.67,1.8,1.19c0.13,0.13,14.04,13.98,31.36,14.28c1-0.28,2.14-0.86,2.42-1.25l0,0c-0.07,0-0.3-1.3-2.79-3.9   c-2.52-1.54-10.35-6.83-12.01-14.12l10.06-2.3c0.62,2.69,4.96,6.26,7.71,7.82c0.4,0.23,0.78,0.52,1.11,0.84   c5.23,5.23,7.17,10.19,5.77,14.76c-2.01,6.53-9.82,8.21-10.71,8.38c-0.32,0.06-0.65,0.09-0.97,0.09c-10.3,0-19.42-3.65-26.28-7.62   c1.21,0.93,2.48,1.85,3.75,2.72c0.65,0.44,1.19,1.03,1.58,1.72c3.18,5.62,3.6,10.43,1.24,14.29   C191.38,478.9,184.02,479.3,181.9,479.3z"
   id="path14" />
</g>
<g
   id="path1198">
	<path
   class="st0"
   d="M181.93,478.01c-0.22,0-0.37-0.01-0.47-0.01c-20.93,0-39.62-17.28-40.4-18.01c-0.72-0.67-1.15-1.59-1.22-2.57   l-0.47-7.21c-3.44-2.63-4.81-5.51-4.97-5.87c-0.18-0.39-0.29-0.81-0.32-1.25l-9.92-112.94c-0.01-0.11-0.02-0.22-0.02-0.34   l-0.01-17.59c-2.73-1.94-4.14-4.09-4.32-4.38c-0.39-0.62-0.6-1.34-0.6-2.07v-78.04c0-32.36,21.56-46.03,30.3-50.24   c0.97-2.81,2-7.83,1.94-11.83c-0.13-0.46-0.21-0.95-0.3-1.46c-0.04-0.25-0.08-0.5-0.12-0.7c-0.46-1.13-7.01-17.41-6.22-29.29   c0.72-10.75,2.22-33.12,27.79-34.87c13.2-0.9,24.25,2.13,31.1,8.53c3.88,3.63,6.1,8.12,6.29,12.71c2.11,7.02,1.81,16.22,0.4,21.84   c-0.07,0.28-0.18,0.56-0.31,0.82c-0.98,1.92-1.75,4.51-1.58,5.32c0.63,1.99,1.27,3.71,1.81,5.18c1.55,4.19,2.67,7.22,1.09,10.25   c-0.95,1.81-2.57,2.9-4.44,3.65l0.04,1.77c15.1,4.65,19.18,20.21,19.36,20.92c0.08,0.32,0.12,0.64,0.12,0.97l-0.59,77.6   c-0.06,3.73-1.02,34.29-15.01,40.59l-0.53,121.6c1,3.2,5.51,6.75,8.22,8.29c0.3,0.17,0.58,0.39,0.83,0.63   c4.86,4.86,6.7,9.39,5.45,13.47c-1.79,5.81-8.91,7.33-9.72,7.49c-0.24,0.05-0.48,0.07-0.73,0.07c-17.5,0-31.54-10.84-36.49-15.22   c0.01,0.15,0.02,0.29,0.04,0.42c0.02,0.13,0.04,0.27,0.04,0.4c0.68,1.98,6.77,7.47,13.16,11.85c0.49,0.33,0.89,0.77,1.18,1.29   c2.93,5.18,3.36,9.55,1.27,12.98C190.63,477.64,183.9,478.01,181.93,478.01z M147.47,455.31c4.09,3.46,18.8,14.95,34.15,14.95   c1.9,0.07,4.76-0.5,5.38-1.53c0.33-0.54,0.23-2-0.99-4.39c-7.34-5.11-15.7-12.1-15.75-17.45c-0.29-2.26,0.08-5.56,1.75-7.58   c0.9-1.09,3.5-3.42,8.18-1.58c0.51,0.2,0.96,0.5,1.35,0.89l0,0c0.14,0.15,14.49,14.46,32.45,14.68c1.34-0.35,3.21-1.25,3.47-2.09   c0.18-0.6-0.3-2.4-3.18-5.37c-2.22-1.33-9.98-6.43-11.57-13.39c-0.07-0.29-0.1-0.58-0.1-0.88l0.54-124.95   c0.01-1.9,1.39-3.51,3.27-3.81c8.44-1.33,11.55-23.48,11.73-34.01l0.58-77.01c-0.71-2.34-4.66-13.35-16.25-15.53   c-1.8-0.34-3.12-1.89-3.15-3.72l-0.16-7.63c-0.04-1.8,1.17-3.39,2.91-3.83c1.22-0.31,1.91-0.57,2.28-0.74   c-0.19-0.89-0.8-2.53-1.3-3.9c-0.58-1.57-1.26-3.4-1.94-5.56c-1.2-3.76,0.89-8.74,1.86-10.73c1.09-4.7,1.19-12.45-0.52-17.73   c-0.12-0.39-0.19-0.79-0.19-1.2c0-2.64-1.36-5.37-3.84-7.68c-5.19-4.84-14.41-7.2-25.29-6.46c-17.38,1.18-19.66,13.76-20.59,27.66   c-0.65,9.82,5.1,24.44,5.63,25.77c0.33,0.73,0.47,1.51,0.62,2.4c0.03,0.2,0.06,0.4,0.1,0.56c0.17,0.42,0.27,0.86,0.29,1.32   c0.26,6.31-1.66,14.06-3.14,17.23c-0.4,0.85-1.1,1.53-1.96,1.91c-6.36,2.78-27.13,14.15-27.13,43.81v76.7   c0.56,0.62,1.52,1.5,2.84,2.19c1.28,0.67,2.08,1.99,2.08,3.43l0.01,19.58l9.83,111.94c0.44,0.67,1.48,2.02,3.41,3.19   c1.08,0.66,1.77,1.8,1.85,3.06L147.47,455.31z M177.97,446.57L177.97,446.57z M151.24,163.93c0,0,0,0.01,0.01,0.01   C151.24,163.93,151.24,163.93,151.24,163.93z M151.24,163.92C151.24,163.92,151.24,163.92,151.24,163.92   S151.24,163.92,151.24,163.92z M151.01,163.4L151.01,163.4L151.01,163.4z M158.35,162.53   C158.35,162.53,158.35,162.53,158.35,162.53C158.35,162.53,158.35,162.53,158.35,162.53z M158.34,162.52   C158.34,162.52,158.34,162.53,158.34,162.52C158.34,162.53,158.34,162.52,158.34,162.52z"
   id="path17" />
</g>
<g
   id="path1200">
	<path
   class="st0"
   d="M160.6,451.56c-14.85,0-23.15-5.36-23.5-5.58l4.26-6.47c0.05,0.03,6.81,4.26,19.04,4.31   c1.26-0.15,11.35-1.59,13.3-7.81V338.2c0-0.01,0-0.01,0-0.02c0-0.01,0-0.02,0-0.03v0c0-0.01,0-0.01,0-0.01c0,0,0,0,0,0v0   c0-0.01,0-0.02,0-0.02c0-0.01,0-0.01,0-0.02c0-0.01,0-0.01,0-0.02h0c0-0.01,0-0.02,0-0.02l0,0c0-0.02,0-0.03,0-0.05c0,0,0,0,0,0   c0,0,0,0,0,0c0,0,0-0.01,0-0.01v0c0-0.01,0-0.02,0-0.02l0,0c0-0.01,0-0.01,0-0.01l0,0c0,0,0,0,0-0.01l0,0c0-0.01,0-0.01,0-0.01l0,0   c0,0,0,0,0-0.01c0,0,0,0,0,0c0,0,0,0,0,0v0l0,0v0c0,0,0,0,0,0c0,0,0,0,0-0.01c0,0,0,0,0,0v0c0,0,0,0,0,0v0c0,0,0,0,0-0.01   c0,0,0,0,0,0c0,0,0,0,0,0c0,0,0,0,0,0l0,0c0,0,0-0.01,0-0.01c0,0,0,0,0,0c0,0,0,0,0-0.01c0,0,0,0,0,0v0c0,0,0,0,0-0.01c0,0,0,0,0,0   v0c0,0,0-0.01,0-0.01l0,0c0,0,0,0,0-0.01c0,0,0,0,0,0c0,0,0,0,0,0v0l0,0c0,0,0-0.01,0-0.01c0,0,0,0,0,0c0,0,0-0.01,0-0.01v0   c0,0,0,0,0-0.01c0,0,0-0.01,0-0.01l0,0c0-0.01,0-0.01,0-0.01c0,0,0-0.01,0-0.01v0v0c0,0,0,0,0,0c0,0,0-0.01,0-0.01s0,0,0,0   c0,0,0,0,0,0c0,0,0,0,0,0v0v0v0c0,0,0-0.01,0-0.01c0,0,0,0,0,0l0,0c0,0,0,0,0,0c0,0,0,0,0-0.01l0,0c0,0,0,0,0,0v0c0,0,0,0,0,0   c0,0,0-0.01,0-0.01s0,0,0,0c0,0,0,0,0-0.01l0,0c0,0,0,0,0-0.01l0,0c0,0,0,0,0-0.01c0,0,0,0,0,0v0c0,0,0,0,0,0c0,0,0,0,0-0.01l0,0   c0,0,0,0,0,0c0,0,0,0,0-0.01c0,0,0,0,0,0v0l0,0c0,0,0,0,0,0c0,0,0-0.01,0-0.01c0,0,0,0,0,0s0,0,0-0.01l0,0c0-0.01,0-0.01,0-0.01   l0,0c0,0,0,0,0-0.01l0,0c0,0,0,0,0-0.01l0,0c0,0,0-0.01,0-0.01c0,0,0,0,0,0v0c0,0,0,0,0,0c0,0,0,0,0-0.01l0,0c0,0,0,0,0-0.01   c0,0,0,0,0,0v0c0,0,0,0,0,0c0,0,0,0,0-0.01l0,0c0,0,0-0.01,0-0.01l0,0c0,0,0,0,0-0.01v0c0,0,0,0,0,0c0,0,0,0,0-0.01c0,0,0,0,0,0   c0,0,0,0,0,0v0c0,0,0,0,0,0l0,0c0,0,0,0,0,0c0,0,0.01,0,0-0.01c0,0,0,0,0-0.01c0,0,0.01,0,0-0.01c0,0,0,0,0,0c0,0,0,0,0-0.01   c0,0,0,0,0,0c0,0,0,0,0,0v0v0c0,0,0,0,0,0c0,0,0,0,0-0.01c0,0,0,0,0,0v0c0,0,0,0,0-0.01l0,0c0,0,0,0,0-0.01l0,0   c0-0.01,0-0.01,0-0.01v0c0-0.01,0,0,0-0.01l0,0c0,0,0,0,0-0.01c0,0,0,0,0,0c0,0,0,0,0,0v0v0c0,0,0,0,0,0c0,0,0,0,0,0   c0,0,0,0,0-0.01c0,0,0,0,0,0l0,0v0c0,0,0-0.01,0-0.01c0,0,0,0,0,0c0,0,0,0,0,0c0,0,0,0,0,0c0,0,0,0,0,0v0c0,0,0,0,0,0s0,0,0-0.01h0   c0,0,0,0,0-0.01c0,0,0,0,0,0v0c0,0,0,0,0,0v0c0,0,0,0,0,0c0,0,0,0,0-0.01l0,0v0c0,0,0-0.01,0-0.01c0-0.01,0,0,0-0.01l0,0   c0,0,0,0,0,0s0,0,0-0.01l0,0c0,0,0,0,0-0.01l0,0c0,0,0,0,0-0.01c0,0,0,0,0,0c0,0,0,0,0,0v0v0c0,0,0,0,0,0c0,0,0,0,0,0   c0,0,0,0,0-0.01l0,0c0,0,0,0,0-0.01l0,0c0,0,0-0.01,0-0.01s0,0.02,0-0.01l0,0c0,0,0,0,0-0.01l0,0c0,0,0,0,0-0.01l0,0   c0,0,0-0.01,0-0.01c0,0,0,0,0,0c0.16-0.69,0.52-1.34,1.03-1.85l6.93-6.93c1.51-1.51,3.96-1.51,5.47,0c1.51,1.51,1.51,3.96,0,5.47   l-5.8,5.8v93.14c12.28,3.59,21.7-4.59,21.8-4.68l5.14,5.79c-0.53,0.48-12.37,10.75-28.22,6.58c-4.83,9.57-18.58,10.87-19.22,10.92   C160.82,451.56,160.71,451.56,160.6,451.56z"
   id="path20" />
</g>
<g
   id="path1202">
	<path
   class="st0"
   d="M153.41,162.07c0,0-6.7-16.31-5.95-27.6c0.75-11.29,2.12-29.76,24.19-31.26c22.07-1.5,33.52,9.32,33.06,16.23   c-0.46,6.91-9.12,10.25-18.72,7.64c-9.6-2.63-16.74-0.65-17.11,4.86c-0.37,5.5-1.25,6.01-0.58,8.61c0.68,2.6,1.76,7.63,0.35,7.53   c-1.41-0.09-3.9-0.97-3.78-2.8c0.12-1.83-4.9-7.27-6.34-4.81c-1.44,2.45-3.67,4.01-1.9,9.37c1.77,5.36,1.85,4.09,1.64,7.34   C158.05,160.4,156.44,167.66,153.41,162.07z"
   id="path23" />
	<path
   class="st0"
   d="M155.48,165.42c-1.73,0-2.83-2.03-3.21-2.73l-0.06-0.12c-0.28-0.68-6.81-16.72-6.05-28.18   c0.72-10.79,2.06-30.87,25.39-32.46c18.25-1.24,27.25,5.64,30.27,8.65c2.84,2.84,4.36,6.1,4.17,8.95c-0.19,2.86-1.59,5.3-4.05,7.05   c-3.93,2.8-10.03,3.46-16.3,1.75c-5.89-1.61-10.99-1.45-13.64,0.43c-1.13,0.8-1.75,1.9-1.84,3.26c-0.16,2.35-0.41,3.83-0.59,4.92   c-0.24,1.44-0.35,2.03-0.02,3.28c1.8,6.93,0.89,8.03,0.5,8.51c-0.37,0.44-0.93,0.67-1.49,0.64c-1.34-0.09-3.15-0.69-4.16-1.84   c-0.59-0.68-0.87-1.48-0.82-2.34c-0.03-0.43-1.03-2.06-2.5-3.26c-0.87-0.71-1.36-0.83-1.51-0.81c-0.21,0.44-0.5,0.87-0.79,1.3   c-1.22,1.78-2.19,3.19-0.93,7c0.49,1.49,0.85,2.47,1.11,3.16c0.73,1.98,0.76,2.16,0.59,4.66c-0.05,0.77-0.6,7.47-3.59,8.12   C155.81,165.4,155.64,165.42,155.48,165.42z M154.58,161.52c0.64,1.16,1.01,1.32,1.02,1.33c0.35-0.33,1.21-3.08,1.39-5.78   c0.14-2.05,0.14-2.05-0.43-3.59c-0.27-0.72-0.64-1.72-1.14-3.25c-1.66-5.02-0.11-7.28,1.26-9.27c0.26-0.38,0.52-0.75,0.75-1.16   c0.65-1.1,1.83-1.52,3.16-1.11c2.48,0.77,5.72,4.62,5.59,6.66c-0.01,0.12,0.01,0.27,0.18,0.47c0.35,0.4,1.04,0.7,1.71,0.86   c0.02-0.89-0.22-2.81-1-5.82c-0.46-1.78-0.29-2.81-0.03-4.36c0.18-1.08,0.41-2.43,0.56-4.66c0.14-2.14,1.15-3.93,2.92-5.19   c3.32-2.36,9.09-2.66,15.82-0.82c5.45,1.48,10.86,0.96,14.12-1.36c1.81-1.29,2.83-3.06,2.97-5.12c0.14-2.11-1.11-4.64-3.42-6.95   c-5.77-5.76-16.34-8.72-28.27-7.9c-21.08,1.43-22.27,19.35-22.99,30.06C148.04,145.07,154.13,160.41,154.58,161.52z"
   id="path25" />
</g>
<path
   class="st1"
   d="M266.31,262.21c23.38-7.7,31.33,11.36,24.89,11.36c-12.93,0,7.64,6.17,14.25,12.78  c4.13,4.13,4.15,8.65-3.82,8.04c-7.97-0.61-41.37-9.01-41.37-9.01L266.31,262.21z"
   id="path28" />
<path
   class="st0"
   d="M302.98,298.31c-0.52,0-1.06-0.02-1.64-0.06c-8.2-0.63-40.64-8.77-42.02-9.11c-1-0.25-1.86-0.89-2.39-1.78  c-0.53-0.89-0.68-1.95-0.42-2.95l6.04-23.17c0.33-1.27,1.29-2.29,2.54-2.7c17.35-5.71,26.26,2.19,28.58,4.75  c3.21,3.54,4.35,7.65,2.99,10.72c-0.26,0.59-0.6,1.11-1.01,1.56c4.46,2.34,9.48,4.99,12.54,8.05c3.53,3.52,4.72,7.34,3.29,10.46  C310.57,296.06,308.34,298.31,302.98,298.31z M265,282.56c11.01,2.71,31.39,7.54,36.93,7.96c0.88,0.07,1.52,0.05,1.98,0.01  c-0.25-0.39-0.63-0.88-1.19-1.44c-2.26-2.26-7-4.75-10.81-6.75c-6.18-3.24-9.58-5.02-8.63-8.88c0.68-2.76,3.31-3.5,5.63-3.69  c-0.48-0.8-1.3-1.79-2.6-2.75c-2.41-1.76-7.68-4.19-16.8-1.73L265,282.56z"
   id="path30" />
<g
   id="path1206">
	<path
   class="st0"
   d="M265.22,261.76l-28.21-15.55l-11.78-54.74c0,0-10.68-15.3-24.68-20.31c0,0,1.43,13.09-12.85,13.72   c0,0,8.8,12.03,8.8,23.06c0,11.02,0,103.12,0,103.12s24.81-1.94,24.81-29.22v-3.53c20.71,5.2,37.86,6.62,37.86,6.62L265.22,261.76z   "
   id="path32" />
	<path
   class="st0"
   d="M196.5,313.65c-0.65,0-1.27-0.24-1.75-0.69c-0.53-0.49-0.83-1.18-0.83-1.9V207.94   c0-10.04-8.22-21.42-8.3-21.54c-0.56-0.77-0.65-1.78-0.24-2.64c0.41-0.86,1.26-1.42,2.21-1.46c3.65-0.16,6.38-1.26,8.11-3.25   c2.69-3.11,2.29-7.58,2.28-7.62c-0.09-0.88,0.28-1.75,0.98-2.3c0.7-0.55,1.62-0.7,2.46-0.4c14.61,5.23,25.47,20.61,25.93,21.26   c0.2,0.28,0.34,0.6,0.41,0.94l11.53,53.59l27.18,14.98c1.03,0.57,1.55,1.77,1.25,2.91l-6.05,23.17c-0.32,1.21-1.46,2.02-2.71,1.92   c-0.16-0.02-15.83-1.34-35.07-5.91v0.24c0,29.34-26.92,31.77-27.19,31.8C196.64,313.65,196.57,313.65,196.5,313.65z M192.08,186.87   c2.76,4.59,7,12.97,7,21.07v100.08c6.03-1.39,19.65-6.69,19.65-26.18v-3.53c0-0.8,0.37-1.55,0.99-2.03   c0.63-0.49,1.44-0.66,2.22-0.47c16.05,4.03,30.09,5.78,35.29,6.34l4.98-19.09l-26.45-14.58c-0.66-0.36-1.12-0.99-1.28-1.72   l-11.66-54.21c-1.61-2.17-9.61-12.5-19.89-17.57c-0.36,2.23-1.24,5.01-3.29,7.4C197.75,184.6,195.21,186.1,192.08,186.87z"
   id="path34" />
</g>
<g
   id="path1208">
	<path
   class="st0"
   d="M177.85,280.27v-57.34c0,0,0.57-9.33-20.64-30.54c0,0-4.81-5.94-4.81-12.44c0,0-30.54,9.61-30.54,47.79   s0,78.04,0,78.04s4.81,7.64,14.7,5.38l13-2.68c25.31,7.76,48.95,9.69,48.95,9.69l6.04-23.17L177.85,280.27z"
   id="path37" />
	<path
   class="st0"
   d="M200.47,320.92l-2.16-0.18c-0.24-0.02-23.82-2.02-48.87-9.61l-12.36,2.55c-11.48,2.62-17.17-6.16-17.41-6.53   l-0.4-0.63v-78.78c0-20.64,8.75-33.19,16.08-40.09c7.97-7.49,15.93-10.05,16.26-10.16l3.36-1.06v3.52c0,5.05,3.62,10.01,4.16,10.73   c21.3,21.33,21.34,31.34,21.28,32.41l0.01,55.66l27.14,14.96L200.47,320.92z M149.69,305.81l0.63,0.19   c20.4,6.26,39.9,8.7,46.26,9.38l4.98-19.09l-26.3-14.49v-58.86c0-0.16-0.26-9.09-19.88-28.72l-0.18-0.2   c-0.18-0.22-3.76-4.7-4.98-10.41c-7.37,3.43-25.78,14.93-25.78,44.13v77.19c1.18,1.45,4.97,5.2,11.55,3.71L149.69,305.81z"
   id="path39" />
</g>
<path
   class="st1"
   d="M198.52,318.17c0,0,33.41,8.4,41.37,9.01s7.94-3.91,3.82-8.04c-6.62-6.61-27.18-12.78-14.25-12.78  c6.44,0-1.51-19.06-24.89-11.36L198.52,318.17z"
   id="path42" />
<path
   class="st0"
   d="M241.23,331.1c-0.52,0-1.06-0.02-1.63-0.06c-8.2-0.62-40.64-8.77-42.02-9.11c-1-0.25-1.86-0.89-2.39-1.78  c-0.53-0.89-0.68-1.95-0.41-2.95l6.04-23.17c0.33-1.27,1.29-2.29,2.54-2.7c17.35-5.72,26.26,2.18,28.58,4.74  c3.21,3.54,4.35,7.65,2.99,10.72c-0.26,0.59-0.6,1.11-1.01,1.56c4.46,2.34,9.48,4.99,12.54,8.05c3.53,3.53,4.72,7.34,3.29,10.46  C248.82,328.85,246.6,331.1,241.23,331.1z M203.25,315.36c11.01,2.71,31.39,7.54,36.93,7.96c0.88,0.07,1.53,0.05,1.98,0  c-0.25-0.39-0.63-0.88-1.2-1.44c-2.26-2.26-7-4.75-10.81-6.74c-6.18-3.24-9.58-5.02-8.63-8.88c0.68-2.76,3.31-3.5,5.63-3.69  c-0.48-0.8-1.3-1.8-2.6-2.75c-2.41-1.76-7.68-4.19-16.8-1.73L203.25,315.36z M227.11,310.37L227.11,310.37L227.11,310.37z"
   id="path44" />
<g
   id="path1212">
	<path
   class="st0"
   d="M538,448.08l-0.59,9.09c0,0-18.11,16.97-37.91,16.97c0,0-14.71,0.57-7.35-12.44c0,0,14.84-10.17,14.84-14.84   c0,0,1.11-7.78-4.66-5.52c0,0-15.55,15.84-35.63,15.84c0,0-14-2.68-2.26-14.42c0,0,8.77-4.94,10.19-11.17"
   id="path46" />
	<path
   class="st0"
   d="M499.08,479.31c-1.94,0-9.34-0.39-12.67-5.86c-2.35-3.86-1.93-8.67,1.24-14.29c0.39-0.68,0.93-1.27,1.58-1.72   c1.27-0.87,2.53-1.79,3.75-2.72c-6.86,3.96-15.98,7.61-26.28,7.61c-0.33,0-0.65-0.03-0.97-0.09c-0.88-0.17-8.7-1.84-10.71-8.38   c-1.4-4.57,0.54-9.53,5.76-14.76c0.33-0.33,0.71-0.62,1.12-0.85c2.73-1.56,7.08-5.13,7.69-7.82l10.07,2.3   c-1.67,7.29-9.5,12.58-12.02,14.12c-2.66,2.78-2.73,4.08-2.73,4.09c0.23,0.25,1.49,0.81,2.37,1.06   c17.44-0.3,31.23-14.14,31.37-14.28c0.51-0.52,1.12-0.92,1.8-1.19c4.33-1.7,7.19-0.2,8.51,0.84c3.65,2.89,3.41,8.05,3.18,9.95   c-0.34,4.69-5.72,10.71-16.01,17.91c-1.02,2.09-0.86,2.92-0.86,2.92c0.38,0.39,2.46,0.86,4.07,0.83   c14.59,0,28.58-10.56,33.06-14.29l0.45-6.94l10.3,0.68l-0.59,9.09c-0.09,1.31-0.67,2.53-1.62,3.43   c-0.8,0.75-19.85,18.36-41.44,18.36C499.43,479.3,499.29,479.31,499.08,479.31z"
   id="path48" />
</g>
<g
   id="path1214">
	<path
   class="st0"
   d="M499.08,478.01c-1.84,0-8.6-0.36-11.58-5.25c-2.09-3.43-1.67-7.8,1.27-12.98c0.29-0.51,0.69-0.96,1.18-1.29   c6.39-4.38,12.48-9.87,13.16-11.85c0.01-0.13,0.02-0.25,0.04-0.37c0.02-0.14,0.03-0.29,0.04-0.45   c-4.95,4.38-18.99,15.22-36.49,15.22c-0.24,0-0.49-0.02-0.73-0.07c-0.81-0.16-7.94-1.68-9.72-7.49c-1.25-4.07,0.58-8.6,5.44-13.47   c0.25-0.25,0.53-0.46,0.84-0.64c2.71-1.54,7.22-5.09,8.22-8.29l-0.53-121.6c-13.99-6.3-14.95-36.85-15.01-40.55l-0.59-77.64   c0-0.33,0.04-0.65,0.12-0.97c0.18-0.7,4.26-16.27,19.36-20.91l0.04-1.77c-1.86-0.75-3.49-1.84-4.44-3.65   c-1.58-3.02-0.46-6.05,1.09-10.25c0.54-1.47,1.18-3.18,1.82-5.21c0.16-0.77-0.63-3.41-1.59-5.29c-0.13-0.26-0.24-0.54-0.31-0.82   c-1.42-5.62-1.72-14.82,0.39-21.84c0.19-4.59,2.4-9.08,6.29-12.71c6.85-6.4,17.89-9.42,31.1-8.53   c25.57,1.74,27.07,24.11,27.79,34.86c0.79,11.87-5.75,28.13-6.22,29.29c-0.05,0.2-0.08,0.45-0.12,0.7c-0.09,0.52-0.17,1-0.3,1.46   c-0.05,4.01,0.98,9.03,1.94,11.84c8.74,4.2,30.31,17.87,30.31,50.24v78.04c0,0.73-0.21,1.45-0.6,2.07   c-0.18,0.29-1.59,2.43-4.32,4.38l-0.01,17.59c0.01,0.5,0.01,12.32-9.32,17.57l-0.59,95.39c0,0.54-0.12,1.07-0.34,1.56   c-0.16,0.36-1.52,3.24-4.97,5.87l-0.47,7.21c-0.07,0.98-0.5,1.9-1.22,2.57c-0.78,0.74-19.47,18.02-40.56,18.02   C499.42,478.01,499.28,478.01,499.08,478.01z M495.11,464.35c-1.23,2.39-1.32,3.85-0.99,4.39c0.63,1.03,3.5,1.57,5.23,1.52   c15.53,0,30.22-11.48,34.3-14.95l0.49-7.49c0.08-1.26,0.77-2.4,1.85-3.06c1.8-1.1,2.84-2.35,3.33-3.07l0.6-96.81   c0.01-1.61,1.02-3.05,2.53-3.61c6.7-2.47,6.78-11.08,6.78-11.45l0.01-19.77c0-1.44,0.8-2.76,2.08-3.43   c1.32-0.69,2.27-1.57,2.84-2.2v-76.7c0-29.67-20.77-41.04-27.13-43.81c-0.86-0.38-1.56-1.06-1.96-1.91   c-1.48-3.17-3.39-10.92-3.14-17.23c0.02-0.45,0.12-0.9,0.29-1.31c0.04-0.17,0.07-0.37,0.1-0.57c0.15-0.89,0.29-1.67,0.62-2.4   c0.53-1.32,6.29-15.95,5.64-25.78c-0.93-13.9-3.21-26.47-20.59-27.65c-10.9-0.73-20.11,1.61-25.29,6.46   c-2.48,2.31-3.84,5.04-3.84,7.68c0,0.41-0.06,0.81-0.19,1.2c-1.71,5.28-1.61,13.03-0.52,17.73c0.97,1.99,3.06,6.97,1.86,10.73   c-0.69,2.16-1.36,3.99-1.94,5.56c-0.51,1.37-1.11,3.01-1.31,3.9c0.37,0.17,1.06,0.43,2.28,0.74c1.74,0.45,2.95,2.03,2.91,3.83   l-0.16,7.63c-0.04,1.83-1.36,3.39-3.16,3.72c-11.55,2.17-15.54,13.24-16.25,15.54l0.58,77.04c0.19,10.49,3.3,32.64,11.73,33.97   c1.88,0.29,3.26,1.91,3.27,3.81l0.54,124.95c0,0.3-0.03,0.59-0.1,0.88c-1.59,6.96-9.35,12.05-11.57,13.39   c-2.88,2.98-3.37,4.77-3.18,5.37c0.26,0.85,2.13,1.75,3.45,2.09c18.05-0.21,32.31-14.53,32.46-14.67c0.38-0.39,0.84-0.69,1.35-0.89   c5.14-2.01,7.79,1,8.48,1.97c1.21,1.7,1.85,4.95,1.45,7.38C510.62,452.4,502.37,459.29,495.11,464.35z M503.14,446.57   L503.14,446.57L503.14,446.57z M529.87,163.92c0,0,0,0.01-0.01,0.01C529.87,163.93,529.87,163.92,529.87,163.92z M522.75,162.54   C522.75,162.54,522.75,162.54,522.75,162.54C522.75,162.54,522.75,162.54,522.75,162.54z M522.77,162.53   C522.76,162.53,522.76,162.53,522.77,162.53C522.76,162.53,522.76,162.53,522.77,162.53z"
   id="path51" />
</g>
<g
   id="path1216">
	<path
   class="st0"
   d="M520.51,451.56c-0.11,0-0.22-0.01-0.33-0.02c-0.64-0.06-14.4-1.36-19.22-10.92   c-15.85,4.17-27.68-6.11-28.22-6.58l5.13-5.8c0.41,0.36,9.67,8.25,21.81,4.7V339.8l-5.8-5.8c-1.51-1.51-1.51-3.96,0-5.47   c1.51-1.51,3.96-1.51,5.47,0l6.93,6.94c0,0,0,0,0,0l0,0c0,0,0,0,0.01,0.01l0,0l0,0h0c0,0,0,0,0,0.01l0,0c0,0,0,0,0.01,0.01l0,0l0,0   c0,0,0,0,0,0c0,0,0,0,0,0l0,0c0,0,0,0,0.01,0.01l0,0l0,0l0,0c0,0,0,0,0,0l0,0c0,0,0,0,0.01,0.01l0,0c0,0,0,0,0,0s0,0,0,0   c0,0,0,0,0,0c0,0,0-0.01,0,0.01c0,0,0,0,0,0c0,0,0,0,0,0c0,0,0,0,0,0c0,0,0,0,0,0v0c0.01,0,0,0,0.01,0c0,0,0,0,0,0.01   c0,0-0.01,0,0.01,0v0l0,0c0,0,0,0,0,0c0,0,0,0,0,0l0,0c0,0,0,0,0,0c0,0,0,0,0,0l0,0c0,0,0,0,0,0c0,0,0,0,0,0.01c0,0,0,0,0,0   c0,0,0,0,0,0c0,0.01-0.01,0.01,0.01,0.01v0c0,0,0,0,0,0s0,0,0,0c0,0,0,0,0,0l0,0c0,0,0,0,0,0c0,0,0,0,0,0l0,0c0,0,0,0,0,0   c0,0,0,0,0,0c0,0,0.01-0.01,0,0.01h0c0,0,0,0.01,0,0.01c0,0,0,0,0,0c0,0,0,0,0,0l0,0l0,0c0,0,0,0,0.01,0.01l0,0c0,0,0,0,0,0.01l0,0   c0,0,0,0,0.01,0v0l0,0c0,0,0,0,0,0c0,0,0,0,0,0l0,0c0.01,0.01,0,0,0.01,0.01c0,0,0,0,0,0.01l0,0c0,0,0,0,0.01,0l0,0   c0,0,0,0.01,0,0.01l0,0c0.01,0.01,0.01,0.01,0.01,0.02l0,0l0,0l0,0c0,0.01,0.01,0.01,0.01,0.01l0,0c0,0,0,0,0,0.01l0,0   c0.01,0,0,0.01,0.01,0.01l0,0l0,0c0.42,0.5,0.71,1.09,0.84,1.73l0,0c0,0.02,0.01,0.03,0.01,0.05l0,0c0,0.01,0,0.02,0.01,0.04l0,0   c0,0,0,0,0,0.01l0,0c0,0,0,0.01,0,0.01v0c0,0,0,0,0,0.01l0,0c0,0,0,0,0,0.01l0,0c0,0,0,0.01,0,0.01l0,0c0,0,0,0.01,0,0.01l0,0   c0,0.02,0.01,0.03,0.01,0.05c0,0,0,0,0,0s0,0,0,0.01l0,0c0.01,0.01,0,0.01,0,0.01c0,0,0,0.01,0,0.01c0,0.01,0,0.01,0,0.02l0,0   c0.01,0.06,0.02,0.12,0.02,0.18c0,0,0,0,0,0c0,0,0,0,0,0c0,0,0,0.01,0,0.01v0v0c0,0,0,0,0,0c0,0,0,0,0,0.01l0,0   c0.01,0.01,0,0.01,0,0.02c0,0,0,0,0,0v0v0v0v0c0,0,0,0,0,0c0,0,0,0,0,0.01l0,0c0,0,0,0,0,0.01v0c0,0,0,0,0,0.01l0,0   c0,0.01,0,0.01,0,0.02c0,0,0,0,0,0v0v0v0c0,0,0,0,0,0.01c0,0,0,0,0,0l0,0c0,0,0,0.01,0,0.01v0v0c0,0,0,0,0,0c0,0,0,0,0,0.01v0v0v0   c0,0,0,0,0,0.01l0,0c0,0,0,0,0,0.01v0c0,0,0,0,0,0c0,0,0,0,0,0.01c0,0,0,0,0,0c0,0,0,0,0,0v0c0,0,0,0,0,0.01l0,0c0,0,0,0,0,0.01v0   v0c0,0,0,0,0,0c0,0,0,0,0,0.01c0,0,0,0,0,0v0v0v0v0c0,0,0,0,0,0c0,0,0,0,0,0.01l0,0c0,0,0,0.01,0,0.01v0c0,0.01,0,0.02,0,0.02l0,0   c0,0,0,0.01,0,0.01s0,0,0,0c0,0.01,0,0.02,0,0.03c0,0,0,0,0,0c0,0,0,0,0,0.01c0,0,0,0,0,0v0l0,0c0,0,0,0.01,0,0.01   c0,0.01,0,0.01,0,0.02c0,0.01,0,0.01,0,0.02c0,0.01,0,0.02,0,0.02c0,0.01,0,0.02,0,0.02c0,0.01,0,0.01,0,0.02v97.82   c1.95,6.21,12.01,7.65,13.3,7.81c12.23-0.05,18.99-4.28,19.06-4.32l4.23,6.48C543.66,446.21,535.35,451.56,520.51,451.56z"
   id="path54" />
</g>
<g
   id="path1218">
	<path
   class="st0"
   d="M527.7,162.07c0,0,6.7-16.31,5.95-27.6c-0.75-11.29-2.12-29.76-24.19-31.26c-22.07-1.5-33.52,9.32-33.06,16.23   c0.46,6.91,9.12,10.25,18.72,7.64c9.6-2.63,16.74-0.65,17.11,4.86c0.37,5.5,1.25,6.01,0.58,8.61c-0.68,2.6-1.76,7.63-0.35,7.53   c1.41-0.09,3.9-0.97,3.78-2.8c-0.12-1.83,4.9-7.27,6.34-4.81c1.44,2.45,3.67,4.01,1.9,9.37c-1.77,5.36-1.85,4.09-1.64,7.34   C523.06,160.4,524.67,167.66,527.7,162.07z"
   id="path57" />
	<path
   class="st0"
   d="M525.63,165.42c-0.16,0-0.33-0.02-0.49-0.05c-2.99-0.65-3.53-7.36-3.59-8.12c-0.17-2.51-0.15-2.68,0.59-4.67   c0.26-0.7,0.62-1.67,1.11-3.16c1.26-3.81,0.29-5.22-0.93-7c-0.29-0.42-0.58-0.85-0.85-1.31c-0.08-0.02-0.55,0.09-1.45,0.82   c-1.47,1.19-2.47,2.83-2.5,3.28c0.06,0.83-0.22,1.64-0.82,2.31c-1.01,1.15-2.82,1.75-4.16,1.84c-0.58,0.04-1.11-0.2-1.48-0.64   c-0.39-0.47-1.31-1.57,0.5-8.51c0.33-1.25,0.22-1.84-0.02-3.28c-0.18-1.08-0.43-2.56-0.59-4.92c-0.09-1.36-0.71-2.46-1.84-3.26   c-2.65-1.88-7.75-2.05-13.64-0.43c-6.27,1.71-12.37,1.06-16.3-1.75c-2.46-1.75-3.86-4.19-4.05-7.05c-0.19-2.85,1.33-6.11,4.17-8.95   c3.02-3.01,12.01-9.89,30.27-8.65c23.33,1.59,24.67,21.67,25.39,32.46c0.76,11.46-5.77,27.5-6.04,28.18l-0.06,0.12   C528.45,163.39,527.36,165.42,525.63,165.42z M521.51,138.54c0.92,0,1.7,0.44,2.18,1.26c0.23,0.4,0.5,0.78,0.75,1.16   c1.37,1.99,2.92,4.24,1.26,9.27c-0.5,1.53-0.87,2.53-1.14,3.25c-0.57,1.55-0.57,1.55-0.43,3.6c0.18,2.6,0.99,5.24,1.56,5.75   c0.03-0.1,0.36-0.41,0.85-1.3c0.45-1.11,6.53-16.45,5.83-26.96c-0.71-10.71-1.91-28.62-22.99-30.06   c-11.94-0.82-22.5,2.14-28.27,7.9c-2.31,2.31-3.56,4.84-3.42,6.95c0.14,2.06,1.16,3.83,2.97,5.12c3.26,2.32,8.68,2.84,14.13,1.36   c6.73-1.84,12.5-1.54,15.81,0.82c1.77,1.26,2.78,3.05,2.92,5.19c0.15,2.22,0.38,3.57,0.56,4.65c0.26,1.55,0.44,2.58-0.03,4.36   c-0.78,3.01-1.02,4.92-1,5.82c0.67-0.16,1.36-0.46,1.71-0.86c0.17-0.2,0.19-0.35,0.18-0.47c-0.13-2.04,3.1-5.9,5.59-6.66   C520.87,138.59,521.19,138.54,521.51,138.54z"
   id="path59" />
</g>
<path
   class="st1"
   d="M420.84,285.38c0,0-33.41,8.4-41.37,9.01s-7.94-3.91-3.82-8.04c6.62-6.61,27.18-12.78,14.25-12.78  c-6.44,0,1.51-19.06,24.89-11.36L420.84,285.38z"
   id="path62" />
<path
   class="st0"
   d="M378.13,298.31c-5.37,0-7.59-2.25-8.5-4.24c-1.43-3.12-0.23-6.93,3.29-10.46c3.06-3.06,8.08-5.71,12.54-8.05  c-0.41-0.45-0.75-0.97-1.01-1.56c-1.36-3.07-0.22-7.18,2.99-10.72c2.32-2.56,11.23-10.46,28.57-4.75c1.25,0.41,2.21,1.43,2.54,2.7  l6.04,23.17c0.26,1,0.11,2.06-0.41,2.95c-0.53,0.89-1.39,1.53-2.39,1.78c-1.38,0.35-33.82,8.49-42.02,9.11  C379.19,298.29,378.65,298.31,378.13,298.31z M377.2,290.53c0.45,0.05,1.09,0.07,1.98,0c5.54-0.42,25.92-5.24,36.93-7.96  l-4.51-17.28c-9.11-2.46-14.39-0.03-16.8,1.73c-1.3,0.95-2.12,1.95-2.6,2.75c2.32,0.2,4.95,0.93,5.63,3.69  c0.95,3.86-2.45,5.64-8.63,8.88c-3.81,2-8.55,4.48-10.82,6.75C377.83,289.65,377.45,290.14,377.2,290.53z"
   id="path64" />
<g
   id="path1222">
	<path
   class="st0"
   d="M480.56,171.16c-20.37,7.29-24.68,20.31-24.68,20.31l-11.78,54.74l-28.21,15.55l6.05,23.17   c0,0,17.15-1.42,37.86-6.62v3.53c0,27.29,24.81,29.22,24.81,29.22s0-92.1,0-103.12c0-11.03,8.8-23.06,8.8-23.06   C479.12,184.25,480.56,171.16,480.56,171.16z"
   id="path66" />
	<path
   class="st0"
   d="M487.18,313.86l-2.78-0.22c-0.27-0.02-27.19-2.46-27.19-31.8v-0.24c-19.24,4.56-34.9,5.89-35.07,5.91   l-2.16,0.18l-7.1-27.21l28.94-15.95l11.6-53.86c0.19-0.58,4.95-14.3,26.26-21.93l3.88-1.39l-0.45,4.09   c-0.01,0.14-0.38,4.54,2.28,7.62c1.73,2,4.46,3.09,8.11,3.25l4.8,0.21l-2.84,3.89c-0.08,0.11-8.3,11.5-8.3,21.54V313.86z    M462.38,275v6.84c0,19.48,13.61,24.79,19.65,26.18V207.94c0-8.1,4.25-16.49,7-21.07c-3.13-0.78-5.67-2.28-7.57-4.49   c-2.09-2.43-2.96-5.27-3.31-7.51c-15.29,6.51-19.33,16.08-19.79,17.31l-11.99,55.73l-27.48,15.14l4.98,19.09   c5.21-0.56,19.24-2.31,35.29-6.34L462.38,275z"
   id="path68" />
</g>
<g
   id="path1224">
	<path
   class="st0"
   d="M528.71,179.95c0,6.5-4.81,12.44-4.81,12.44c-21.21,21.21-20.64,30.54-20.64,30.54v57.34L476.54,295   l6.04,23.17c0,0,23.65-1.94,48.95-9.69l13,2.68c9.89,2.26,14.7-5.38,14.7-5.38s0-39.87,0-78.04S528.71,179.95,528.71,179.95z"
   id="path71" />
	<path
   class="st0"
   d="M480.64,320.92l-7.1-27.21l27.14-14.96v-55.81c-0.06-0.92-0.01-10.92,21.29-32.25   c0.55-0.72,4.16-5.64,4.16-10.73v-3.52l3.36,1.06c0.33,0.1,8.29,2.67,16.26,10.16c7.34,6.9,16.08,19.45,16.08,40.09v78.78   l-0.4,0.63c-0.24,0.38-5.92,9.17-17.46,6.52l-12.31-2.54c-25.05,7.59-48.63,9.59-48.87,9.61L480.64,320.92z M479.55,296.29   l4.98,19.09c6.36-0.68,25.87-3.13,46.26-9.38l0.63-0.19l13.65,2.82c6.61,1.51,10.42-2.26,11.6-3.7v-77.19   c0-28.89-18.46-40.59-25.79-44.09c-1.23,5.69-4.79,10.15-4.97,10.37l-0.18,0.2c-19.62,19.62-19.89,28.56-19.89,28.64l0,58.94   L479.55,296.29z"
   id="path73" />
</g>
<path
   class="st1"
   d="M482.59,318.17c0,0-33.41,8.4-41.37,9.01c-7.97,0.6-7.94-3.91-3.82-8.04c6.62-6.61,27.18-12.78,14.25-12.78  c-6.44,0,1.51-19.06,24.89-11.36L482.59,318.17z"
   id="path76" />
<path
   class="st0"
   d="M439.88,331.1c-5.37,0-7.59-2.25-8.5-4.24c-1.43-3.12-0.24-6.93,3.29-10.46c3.06-3.06,8.08-5.71,12.54-8.05  c-0.41-0.45-0.75-0.97-1.01-1.56c-1.36-3.07-0.21-7.18,2.99-10.72c2.32-2.56,11.23-10.46,28.57-4.74c1.25,0.41,2.21,1.43,2.54,2.7  l6.04,23.17c0.26,1,0.11,2.06-0.41,2.95c-0.53,0.89-1.39,1.53-2.39,1.78c-1.38,0.35-33.82,8.49-42.02,9.11  C440.94,331.08,440.4,331.1,439.88,331.1z M438.94,323.32c0.45,0.05,1.09,0.07,1.98,0c5.54-0.42,25.92-5.25,36.93-7.96l-4.51-17.28  c-9.1-2.46-14.39-0.04-16.8,1.73c-1.3,0.95-2.12,1.95-2.6,2.75c2.32,0.2,4.95,0.93,5.63,3.69c0.95,3.86-2.45,5.64-8.63,8.88  c-3.81,2-8.55,4.48-10.81,6.75C439.57,322.44,439.19,322.93,438.94,323.32z M454,310.37L454,310.37L454,310.37z"
   id="path78" />
<g
   id="polygon1228">
	<path
   class="st0"
   d="M56.46,206.68c-0.54,0-1.06-0.17-1.51-0.49c-0.56-0.4-0.93-1.01-1.04-1.68L35.42,90.4   c-0.05-0.31-0.04-0.62,0.02-0.92l7.16-35.69c0.21-1.05,1.05-1.86,2.11-2.04c1.06-0.18,2.11,0.32,2.65,1.25l18.28,31.49   c0.16,0.27,0.26,0.56,0.31,0.87l19.2,113.99c0.11,0.68-0.05,1.37-0.44,1.93c-0.4,0.56-1,0.94-1.68,1.05l-26.15,4.33   C56.74,206.67,56.6,206.68,56.46,206.68z M40.59,90.03l18.01,111.1l21.04-3.48L60.94,86.68L46.32,61.48L40.59,90.03z"
   id="path80" />
</g>
<polygon
   class="st1"
   points="82.61,199.77 63.41,85.79 45.13,54.29 37.97,89.99 56.46,204.1 "
   id="polygon83" />
<path
   class="st0"
   d="M56.46,206.68c-0.54,0-1.06-0.17-1.51-0.49c-0.56-0.4-0.93-1.01-1.04-1.68L35.42,90.4  c-0.05-0.31-0.04-0.62,0.02-0.92l7.16-35.69c0.21-1.05,1.05-1.86,2.11-2.04c1.06-0.18,2.11,0.32,2.65,1.25l18.28,31.49  c0.16,0.27,0.26,0.56,0.31,0.87l19.2,113.99c0.11,0.68-0.05,1.37-0.44,1.93c-0.4,0.56-1,0.94-1.68,1.05l-26.15,4.33  C56.74,206.67,56.6,206.68,56.46,206.68z M40.59,90.03l18.01,111.1l21.04-3.48L60.94,86.68L46.32,61.48L40.59,90.03z"
   id="path85" />
<g
   id="path1232">
	<path
   class="st0"
   d="M42.02,95.84c-3.91,0-6.02-3.13-6.51-5.47c-0.29-1.4,0.6-2.76,2-3.05c1.39-0.29,2.76,0.6,3.05,2   c0.38,1.57,1.55,1.37,1.93,1.31c1.37-0.23,1.43-1.3,1.35-1.92c-0.18-1.38,0.77-2.66,2.15-2.89c1.38-0.22,2.69,0.69,2.95,2.06   c0.37,1.62,1.5,1.44,1.86,1.37c1.49-0.25,1.53-1.51,1.48-2.04c-0.13-1.34,0.79-2.55,2.11-2.79c1.32-0.24,2.61,0.58,2.95,1.88   c0.19,0.65,0.75,1.76,2.2,1.52c1.37-0.23,1.45-1.28,1.38-1.89l-0.03-0.21c-0.2-1.41,0.78-2.72,2.19-2.92   c1.41-0.2,2.72,0.78,2.92,2.19l0.04,0.26c0.33,2.68-0.91,6.87-5.66,7.66c-1.86,0.3-3.4-0.08-4.63-0.8   c-0.91,1.07-2.25,1.92-4.11,2.22c-1.76,0.29-3.22-0.02-4.38-0.66c-0.89,0.98-2.17,1.74-3.93,2.03   C42.88,95.8,42.44,95.84,42.02,95.84z"
   id="path87" />
</g>
<g
   id="path1234">
	<path
   class="st0"
   d="M40.5,77.32c0,0,7.95,6.5,14.08-6.74l-9.46-16.28L40.5,77.32z"
   id="path90" />
</g>
<g
   id="line1236">
	<path
   class="st0"
   d="M65.29,205.23c-1.24,0-2.34-0.9-2.54-2.16L43.85,88.79c-0.23-1.41,0.72-2.73,2.13-2.97   c1.41-0.23,2.73,0.72,2.97,2.13l18.89,114.27c0.23,1.41-0.72,2.73-2.13,2.97C65.57,205.22,65.43,205.23,65.29,205.23z"
   id="path93" />
</g>
<g
   id="line1238">
	<path
   class="st0"
   d="M73.55,203.86c-1.24,0-2.34-0.9-2.54-2.16L52.13,87.42c-0.23-1.41,0.72-2.73,2.13-2.97   c1.41-0.24,2.73,0.72,2.97,2.13L76.1,200.85c0.23,1.41-0.72,2.73-2.13,2.97C73.83,203.84,73.69,203.86,73.55,203.86z"
   id="path96" />
</g>
<g
   id="polygon1240">
	<path
   class="st0"
   d="M25.07,156.76c-0.02,0-0.04,0-0.06,0l-21.16-0.48c-0.69-0.02-1.34-0.3-1.81-0.8c-0.47-0.5-0.73-1.16-0.71-1.85   l2.42-92.3c0.01-0.31,0.07-0.61,0.19-0.9l10.92-26.95c0.4-0.99,1.3-1.64,2.45-1.61c1.07,0.02,2.02,0.71,2.37,1.72l9.67,27.43   c0.1,0.29,0.15,0.6,0.15,0.91l-1.85,92.3c-0.01,0.69-0.3,1.34-0.8,1.81C26.38,156.5,25.74,156.76,25.07,156.76z M6.56,151.17   l15.98,0.37l1.79-89.24l-7.25-20.56L8.9,61.93L6.56,151.17z"
   id="path99" />
</g>
<polygon
   class="st1"
   points="25.08,154.18 26.92,61.88 17.25,34.45 6.33,61.4 3.91,153.69 "
   id="polygon102" />
<path
   class="st0"
   d="M25.07,156.76c-0.02,0-0.04,0-0.06,0l-21.16-0.48c-0.69-0.02-1.34-0.3-1.81-0.8c-0.47-0.5-0.73-1.16-0.71-1.85  l2.42-92.3c0.01-0.31,0.07-0.61,0.19-0.9l10.92-26.95c0.4-0.99,1.3-1.64,2.45-1.61c1.07,0.02,2.02,0.71,2.37,1.72l9.67,27.43  c0.1,0.29,0.15,0.6,0.15,0.91l-1.85,92.3c-0.01,0.69-0.3,1.34-0.8,1.81C26.38,156.5,25.74,156.76,25.07,156.76z M6.56,151.17  l15.98,0.37l1.79-89.24l-7.25-20.56L8.9,61.93L6.56,151.17z"
   id="path104" />
<g
   id="path1244">
	<path
   class="st0"
   d="M23.64,67.55c-0.06,0-0.11,0-0.17,0c-1.46-0.04-2.62-0.49-3.52-1.17c-0.91,0.63-2.03,1.05-3.55,0.99   c-1.39-0.03-2.49-0.43-3.34-1.04c-0.88,0.57-1.97,0.95-3.38,0.88c-4.22-0.09-5.82-3.56-5.86-5.87c-0.02-1.43,1.11-2.6,2.54-2.63   c1.48,0.02,2.6,1.11,2.63,2.54c0.05,0.79,0.47,0.8,0.81,0.8c0.34,0.01,0.73,0.02,0.82-0.86c0.13-1.37,1.37-2.44,2.69-2.36   c1.37,0.06,2.46,1.16,2.46,2.54c0.04,0.82,0.44,0.83,0.76,0.83c0.28,0.01,0.81,0.02,0.94-0.96c0.17-1.31,1.37-2.27,2.64-2.27   c1.32,0.04,2.41,1.04,2.5,2.36c0.12,1.02,0.73,1.03,1,1.04c0.22-0.01,0.78,0.02,0.83-0.79c0.09-1.42,1.35-2.59,2.74-2.51   c1.42,0.09,2.51,1.21,2.42,2.63l-0.01,0.21C29.43,64.21,27.73,67.55,23.64,67.55z"
   id="path106" />
</g>
<g
   id="path1246">
	<path
   class="st0"
   d="M10.2,51.83c0,0,5.28,6.28,12.05-3.2l-5.01-14.18L10.2,51.83z"
   id="path109" />
</g>
<g
   id="line1248">
	<path
   class="st0"
   d="M11.06,156.44c-0.02,0-0.04,0-0.06,0c-1.43-0.03-2.55-1.21-2.52-2.64l2.13-92.48   c0.03-1.43,1.22-2.64,2.64-2.52c1.43,0.03,2.55,1.21,2.52,2.64l-2.13,92.48C13.6,155.32,12.45,156.44,11.06,156.44z"
   id="path112" />
</g>
<g
   id="line1250">
	<path
   class="st0"
   d="M17.75,156.59c-0.02,0-0.04,0-0.06,0c-1.43-0.03-2.55-1.21-2.52-2.64l2.15-92.48   c0.03-1.43,1.16-2.61,2.64-2.52c1.43,0.03,2.55,1.21,2.52,2.64l-2.15,92.48C20.29,155.48,19.14,156.59,17.75,156.59z"
   id="path115" />
</g>
<g
   id="polygon1252">
	<path
   class="st0"
   d="M92.33,175.96c-0.14,0-0.28-0.01-0.42-0.03l-26.15-4.33c-0.68-0.11-1.28-0.49-1.68-1.05   c-0.4-0.56-0.56-1.25-0.44-1.93l19.2-113.99c0.05-0.31,0.16-0.6,0.31-0.87l18.28-31.49c0.54-0.93,1.6-1.42,2.65-1.25   c1.06,0.18,1.9,0.99,2.11,2.04l7.16,35.69c0.06,0.3,0.07,0.62,0.02,0.92L94.88,173.79c-0.11,0.68-0.49,1.28-1.04,1.68   C93.39,175.79,92.87,175.96,92.33,175.96z M69.16,166.93l21.04,3.48L108.2,59.32l-5.73-28.55L87.85,55.96L69.16,166.93z"
   id="path118" />
</g>
<polygon
   class="st1"
   points="66.18,169.05 85.38,55.07 103.66,23.58 110.82,59.27 92.33,173.38 "
   id="polygon121" />
<path
   class="st0"
   d="M92.33,175.96c-0.14,0-0.28-0.01-0.42-0.03l-26.15-4.33c-0.68-0.11-1.28-0.49-1.68-1.05  c-0.4-0.56-0.56-1.25-0.44-1.93l19.2-113.99c0.05-0.31,0.16-0.6,0.31-0.87l18.28-31.49c0.54-0.93,1.6-1.42,2.65-1.25  c1.06,0.18,1.9,0.99,2.11,2.04l7.16,35.69c0.06,0.3,0.07,0.62,0.02,0.92L94.88,173.79c-0.11,0.68-0.49,1.28-1.04,1.68  C93.39,175.79,92.87,175.96,92.33,175.96z M69.16,166.93l21.04,3.48L108.2,59.32l-5.73-28.55L87.85,55.96L69.16,166.93z"
   id="path123" />
<g
   id="path1256">
	<path
   class="st0"
   d="M106.76,65.12c-0.42,0-0.86-0.04-1.32-0.11c-1.76-0.29-3.04-1.05-3.93-2.04c-1.16,0.64-2.61,0.95-4.37,0.67   c-1.86-0.31-3.19-1.15-4.11-2.22c-1.23,0.72-2.77,1.09-4.62,0.79c-4.75-0.79-6-4.98-5.67-7.61l0.04-0.3c0.2-1.41,1.5-2.4,2.91-2.2   c1.41,0.2,2.4,1.5,2.2,2.91l-0.04,0.26c-0.14,1.6,1.01,1.79,1.39,1.85c1.58,0.24,2.08-1.1,2.19-1.52c0.35-1.3,1.63-2.13,2.95-1.88   c1.32,0.24,2.24,1.45,2.11,2.79c-0.08,1.16,0.42,1.86,1.48,2.04c0.37,0.06,1.5,0.25,1.87-1.41c0.3-1.35,1.61-2.24,2.98-2   c1.36,0.24,2.29,1.49,2.11,2.86c-0.17,1.67,0.97,1.86,1.35,1.92c1.41,0.23,1.81-0.72,1.93-1.31c0.29-1.4,1.65-2.3,3.05-2   c1.4,0.29,2.29,1.66,2,3.05C112.79,61.99,110.68,65.12,106.76,65.12z"
   id="path125" />
</g>
<g
   id="path1258">
	<path
   class="st0"
   d="M108.29,46.6c0,0-7.95,6.5-14.08-6.74l9.46-16.28L108.29,46.6z"
   id="path128" />
</g>
<g
   id="line1260">
	<path
   class="st0"
   d="M83.5,174.51c-0.14,0-0.28-0.01-0.42-0.03c-1.41-0.23-2.36-1.56-2.13-2.97L99.84,57.24   c0.23-1.41,1.56-2.35,2.97-2.13c1.41,0.23,2.36,1.56,2.13,2.97L86.05,172.35C85.84,173.61,84.74,174.51,83.5,174.51z"
   id="path131" />
</g>
<g
   id="line1262">
	<path
   class="st0"
   d="M75.24,173.14c-0.14,0-0.28-0.01-0.42-0.03c-1.41-0.23-2.36-1.56-2.13-2.97L91.56,55.87   c0.23-1.41,1.55-2.36,2.97-2.13c1.41,0.23,2.36,1.56,2.13,2.97L77.78,170.98C77.57,172.24,76.48,173.14,75.24,173.14z"
   id="path134" />
</g>
<g
   id="g1278">
	<g
   id="g1276">
		<g
   id="g1274">
			<g
   id="path1264">
				<path
   class="st0"
   d="M259.57,83.6l-6.19-10.64c25.77-14.99,55.24-23.18,85.23-23.67c30.33-0.54,60.34,6.88,86.8,21.32      l-5.9,10.81c-24.6-13.43-52.53-20.29-80.71-19.82C310.93,62.05,283.53,69.66,259.57,83.6z"
   id="path137" />
			</g>
			<g
   id="g1268">
				<g
   id="polygon1266">
					<polygon
   class="st0"
   points="271.37,90.82 234.62,93.27 250.87,60.22      "
   id="polygon140" />
				</g>
			</g>
			<g
   id="g1272">
				<g
   id="polygon1270">
					<polygon
   class="st0"
   points="407.93,88.96 444.73,90.41 427.6,57.81      "
   id="polygon144" />
				</g>
			</g>
		</g>
	</g>
</g>
</svg>