<?xml version="1.0" encoding="UTF-8" standalone="no"?>
<!-- Generator: Adobe Illustrator 23.0.6, SVG Export Plug-In . SVG Version: 6.00 Build 0)  -->

<svg
   xmlns:dc="http://purl.org/dc/elements/1.1/"
   xmlns:cc="http://creativecommons.org/ns#"
   xmlns:rdf="http://www.w3.org/1999/02/22-rdf-syntax-ns#"
   xmlns:svg="http://www.w3.org/2000/svg"
   xmlns="http://www.w3.org/2000/svg"
   xmlns:sodipodi="http://sodipodi.sourceforge.net/DTD/sodipodi-0.dtd"
   xmlns:inkscape="http://www.inkscape.org/namespaces/inkscape"
   version="1.1"
   x="0px"
   y="0px"
   viewBox="0 0 500 500"
   style="enable-background:new 0 0 500 500;"
   xml:space="preserve"
   id="svg238"
   sodipodi:docname="elect.svg"
   inkscape:export-filename="/home/raphael/github/fab-manager/public/home/assets/elect.svg.png"
   inkscape:export-xdpi="95.897102"
   inkscape:export-ydpi="95.897102"
   inkscape:version="0.92.4 5da689c313, 2019-01-14"><metadata
   id="metadata244"><rdf:RDF><cc:Work
       rdf:about=""><dc:format>image/svg+xml</dc:format><dc:type
         rdf:resource="http://purl.org/dc/dcmitype/StillImage" /></cc:Work></rdf:RDF></metadata><defs
   id="defs242" /><sodipodi:namedview
   pagecolor="#ffffff"
   bordercolor="#666666"
   borderopacity="1"
   objecttolerance="10"
   gridtolerance="10"
   guidetolerance="10"
   inkscape:pageopacity="0"
   inkscape:pageshadow="2"
   inkscape:window-width="1866"
   inkscape:window-height="1016"
   id="namedview240"
   showgrid="false"
   inkscape:zoom="1.526625"
   inkscape:cx="250"
   inkscape:cy="250"
   inkscape:window-x="54"
   inkscape:window-y="30"
   inkscape:window-maximized="1"
   inkscape:current-layer="svg238" />
<style
   type="text/css"
   id="style2">
	.st0{display:none;}
	.st1{display:inline;}
	.st2{fill:#0B1783;}
	.st3{fill:#FFFFFF;}
</style>
<g
   id="Calque_1"
   class="st0">
	<g
   class="st1"
   id="g6">
		<path
   class="st2"
   d="M329.2,414.91l-1.7-0.41l-197.59-47.64l-0.07-21.71l-19.12-4.96l-15.47-30.25v-65.78l107.56-61.93l1.79,0.45    l238.72,60.58v66.68l-15.16,29.62l-9.51,5.48v20.88L329.2,414.91z M138.95,359.71l188.96,45.57l81.66-44.72v-20.74l11.72-6.76    l12.95-25.29v-57.45l-230.09-58.38l-99.83,57.48v58.35l12.62,24.67l21.94,5.69L138.95,359.71z M145.42,288.68l-4.53-7.86    l61.9-35.64l113.8,28.01l-2.17,8.81l-110.26-27.14L145.42,288.68z"
   id="path4" />
	</g>
	<g
   class="st1"
   id="g10">
		<path
   class="st2"
   d="M335.08,308.76c-0.18,0-0.38-0.02-0.56-0.07l-48.43-12.28l1.12-4.4l47.54,12.05l98.06-56.44l-229-58.1    l-102.9,59.24l-2.27-3.94l103.71-59.7c0.52-0.29,1.13-0.38,1.7-0.23l235.31,59.71c0.89,0.23,1.56,0.97,1.69,1.89    c0.13,0.91-0.32,1.81-1.12,2.28l-103.71,59.69C335.86,308.65,335.47,308.76,335.08,308.76z"
   id="path8" />
	</g>
	<g
   class="st1"
   id="g14">
		<polygon
   class="st2"
   points="142.6,259.99 99.22,248.98 100.34,244.59 143.72,255.59   "
   id="polygon12" />
	</g>
	<g
   class="st1"
   id="g18">
		<polygon
   class="st2"
   points="229.87,219.86 239.75,213.91 255.61,217.99 255.61,239.34 245.73,245.29 229.87,241.21   "
   id="polygon16" />
	</g>
	<g
   class="st1"
   id="g22">
		<polygon
   class="st3"
   points="254.41,226.72 214.23,216.88 200.19,189.42 200.19,127.35 245.02,101.84 285.07,111.75     285.07,173.83 281.15,211.49   "
   id="polygon20" />
	</g>
	<g
   class="st1"
   id="g26">
		<path
   class="st2"
   d="M255.09,231.55l-43.95-10.75l-15.49-30.28v-65.8L244.35,97l45.26,11.2v65.62l-4.19,40.45L255.09,231.55z     M217.32,212.97l36.41,8.91l23.15-13.18l3.68-35.35l-0.02-58.05l-34.85-8.62l-40.97,23.32v58.33L217.32,212.97z"
   id="path24" />
	</g>
	<g
   class="st1"
   id="g30">
		<polygon
   class="st2"
   points="285.38,112.06 238.88,137.13 238.97,199.11 254.41,226.72 281.16,211.48 285.07,173.82   "
   id="polygon28" />
	</g>
	<g
   class="st1"
   id="g40">
		<g
   id="g34">
			<path
   class="st2"
   d="M244.1,248.71c0,1.31-1.07,2.38-2.38,2.38c-1.31,0-2.38-1.07-2.38-2.38v-6.47c0-1.31,1.06-2.38,2.38-2.38     c1.31,0,2.38,1.07,2.38,2.38V248.71z"
   id="path32" />
		</g>
		<g
   id="g38">
			<path
   class="st2"
   d="M241.72,252.22c-1.94,0-3.52-1.58-3.52-3.51v-6.47c0-1.93,1.58-3.51,3.52-3.51c1.93,0,3.51,1.58,3.51,3.51     v6.47C245.23,250.64,243.66,252.22,241.72,252.22z M241.72,241c-0.69,0-1.25,0.55-1.25,1.24v6.47c0,0.69,0.56,1.24,1.25,1.24     c0.69,0,1.24-0.55,1.24-1.24v-6.47C242.96,241.56,242.41,241,241.72,241z"
   id="path36" />
		</g>
	</g>
	<g
   class="st1"
   id="g44">
		<polygon
   class="st2"
   points="322.39,396.72 336.44,369.26 336.44,307.19 438.79,246.79 438.79,308.85 424.74,336.31     414.12,342.43 414.12,363.24 328.56,410.09 328.56,396.72   "
   id="polygon42" />
	</g>
	<g
   class="st1"
   id="g48">
		<path
   class="st2"
   d="M300.7,386c-0.18,0-0.38-0.02-0.56-0.07l-143.49-36.4c-0.63-0.15-1.17-0.58-1.46-1.17l-14.05-27.46    c-0.16-0.32-0.25-0.67-0.25-1.03v-62.07c0-0.8,0.43-1.55,1.13-1.96l59.54-34.8c-0.14-0.41-0.18-0.86-0.07-1.31    c0.3-1.21,1.5-1.96,2.75-1.66l148.09,36.45c0.9,0.22,1.57,0.97,1.7,1.89c0.13,0.91-0.32,1.82-1.11,2.29l-36.17,20.82    c-0.05,0.03-0.11,0.07-0.18,0.1l-27.64,15.92v60.2l13.8,26.98c0.41,0.79,0.31,1.75-0.24,2.45C302.03,385.69,301.38,386,300.7,386z     M158.76,345.37l137.63,34.91l-11.77-22.99c-0.16-0.32-0.25-0.67-0.25-1.03V294.2c0-0.81,0.44-1.56,1.14-1.97l24.03-13.82    l-106.61-27.06c-1-0.25-1.71-1.16-1.71-2.2v-22.68l-55.79,32.62v60.21L158.76,345.37z M205.75,247.39l109.42,27.77l30.56-17.59    l-139.98-34.46V247.39z"
   id="path46" />
	</g>
	<g
   class="st1"
   id="g52">
		
			<rect
   x="215"
   y="264.13"
   transform="matrix(0.2521 -0.9677 0.9677 0.2521 -165.0584 461.4222)"
   class="st2"
   width="2"
   height="146.74"
   id="rect50" />
	</g>
</g>
<g
   id="Calque_2"
   class="st0">
	<g
   class="st1"
   id="g57">
		<path
   class="st2"
   d="M323.44,309.87l-172.53-40.41l0.96-4.11l171.22,40.1l68.75-28.21l1.61,3.9L323.44,309.87z M323.44,288.82    l-185.74-43.49l0.96-4.11l184.44,43.19l80.4-32.99l1.61,3.9L323.44,288.82z"
   id="path55" />
	</g>
	<g
   class="st1"
   id="g61">
		<path
   class="st2"
   d="M360.57,274.48c-0.24,0-0.47-0.03-0.71-0.08L74.37,209.04c-1.44-0.33-2.45-1.61-2.45-3.08v-10.1    c0-1.27,0.76-2.42,1.93-2.91l43.48-18.32c0.64-0.27,1.34-0.33,2.02-0.15l49.08,12.68l-1.58,6.12l-48.04-12.41l-40.57,17.09v5.48    l279.17,63.91v-7.59c0-1.24,0.73-2.37,1.85-2.88L402.99,237c0.98-0.44,2.11-0.36,3.02,0.22s1.45,1.58,1.45,2.66v13.49    c0,1.28-0.78,2.44-1.97,2.93l-43.71,17.94C361.4,274.39,360.98,274.48,360.57,274.48z M363.73,261.79v4.81l37.4-15.35v-6.46    L363.73,261.79z"
   id="path59" />
	</g>
	<g
   class="st1"
   id="g67">
		<g
   id="g65">
			<path
   class="st2"
   d="M298.58,192.39h-4.22v-36.48c0-4.75-1.36-8.18-4.06-10.19c-5.29-3.95-14.19-1.89-15.86-1.44l-51.9,33.67     l-2.3-3.54l52.17-33.85c0.17-0.1,0.35-0.19,0.55-0.25c0.49-0.16,12.35-3.58,19.85,2.02c3.83,2.86,5.76,7.43,5.76,13.58V192.39z"
   id="path63" />
		</g>
	</g>
	<g
   class="st1"
   id="g71">
		<path
   class="st2"
   d="M323.27,410.83c-0.33,0-0.64-0.04-0.96-0.11l-34.63-8.11c-1.14-0.27-2.12-1-2.7-2.02l-9.94-17.49    l-78.25-19.17l-7.05,12.62c-0.92,1.64-2.8,2.48-4.64,2.05l-33.75-7.9c-1.89-0.44-3.24-2.13-3.25-4.08l-0.66-98.03l-12.94-23.25    c-0.35-0.63-0.53-1.33-0.53-2.05v-13.49c0-1.52,0.82-2.91,2.13-3.66l11.77-6.68l4.16,7.32l-9.64,5.47v9.94l12.93,23.24    c0.34,0.62,0.53,1.31,0.53,2.02l0.64,95.8l27.43,6.42l7.07-12.65c0.93-1.66,2.82-2.5,4.68-2.03l83.13,20.37    c1.13,0.28,2.09,1,2.66,2.01l9.93,17.47l31.52,7.38l65.51-26.88l0.01-96.12c0-0.6,0.13-1.19,0.37-1.73l11.27-25v-9.24l-27.61-6.47    c-1.85-0.44-3.19-2.06-3.25-3.97l-0.34-10.59l-0.01-13l-71.26-12.66l-28.77,18.3l-4.53-7.11l30.15-19.18    c0.89-0.56,1.94-0.79,3-0.59l76.35,13.57c2.01,0.35,3.47,2.1,3.47,4.15l0.23,23.61l27.72,6.49c1.9,0.45,3.25,2.15,3.25,4.1v13.49    c0,0.6-0.13,1.19-0.37,1.73l-11.27,25l-0.01,98.04c0,1.71-1.03,3.25-2.62,3.9l-69.37,28.47    C324.35,410.72,323.81,410.83,323.27,410.83z"
   id="path69" />
	</g>
	<g
   class="st1"
   id="g77">
		<g
   id="g75">
			<path
   class="st2"
   d="M276.97,240.33l-8.41-0.44c1.45-27.92-20.14-53.75-50.21-60.09c-27.08-5.73-52.71,8.97-60.94,34.87     l-8.03-2.55c9.41-29.64,39.81-47.07,70.71-40.57C254.18,178.74,278.63,208.31,276.97,240.33z M220.36,227.85l-8.41-0.43     c0.11-2.09-1.64-4.05-4.06-4.56c-2.21-0.5-3.74,0.89-4.2,2.36l-8.03-2.55c1.86-5.87,7.85-9.36,13.98-8.06     C216.06,215.97,220.67,221.66,220.36,227.85z"
   id="path73" />
		</g>
	</g>
	<g
   class="st1"
   id="g81">
		
			<rect
   x="214.65"
   y="81.54"
   transform="matrix(0.2184 -0.9759 0.9759 0.2184 -52.0682 390.6122)"
   class="st2"
   width="6.33"
   height="292.55"
   id="rect79" />
	</g>
	<g
   class="st1"
   id="g85">
		<polygon
   class="st2"
   points="373.09,205.68 340.86,226.03 340.75,255.38 361.29,259.8 404.29,239.88 373.43,232.65   "
   id="polygon83" />
	</g>
	<g
   class="st1"
   id="g89">
		<polygon
   class="st2"
   points="323.27,307.66 323.27,286.62 360.56,271.31 360.56,259.76 404.29,239.88 404.29,253.37     392.64,279.19 392.64,378.14 323.27,406.61   "
   id="polygon87" />
	</g>
	<g
   class="st1"
   id="g95">
		<g
   id="g93">
			<path
   class="st2"
   d="M280.57,202.39V171.8c0-20.36-22.9-13.57-22.9-13.57l-30.32,19.66l-5.96-1.71l52.17-33.84     c0,0,22.91-6.78,22.91,13.58v36.47L280.57,202.39z"
   id="path91" />
		</g>
	</g>
</g>
<g
   id="Calque_3">
	<g
   id="g102">
		<g
   id="g100">
			<path
   class="st2"
   d="M15.82,306.41c30.37-24.99,57.66-53.91,90.26-76.13c32.73-22.31,69.73-31.5,108.9-33.92     c36.35-2.24,74.62-0.65,108.99,12.4c31.21,11.85,64.67,36.67,64.36,73.66c-0.3,36.94-41.09,43.46-68.85,31.94     c-8.42-3.5-21.12-10.31-23.1-20.3c-2.54-12.81,16.76-16.78,25.63-18.85c16.58-3.85,35.57-4.61,50.75,4.29     c12.06,7.07,27.2,28.82,15.86,42.29c-9.43,11.19-32.1,11.24-45.14,9.04c-16.35-2.76-32.41-11.06-41.95-24.96     c-16.09-23.44-9.28-53.61,19.92-59.37c22.53-4.45,52.83,1.08,69.47,17.82c20.62,20.74,33.38,54.65,31.22,83.8     c-1.04,14.12-6.4,30.01-19.54,37.32c-10.43,5.8-23.68,4.43-34.74,1.48c-36.83-9.83-114.06-71.18-66.38-111.4     c17.02-14.35,47.92-17.83,64.3-0.6c16.1,16.94,12.28,42.54-11.25,47.88c-20.35,4.62-47.9,0.87-64.81-12.03     c-6.53-4.99-14.51-14.42-13.34-23.27c1.07-8.09,9.75-11.91,16.57-14.39c19.41-7.04,42.79-8.33,63.18-6.06     c31.25,3.48,57.92,24.92,89.22,29.65c17.4,2.63,34.31-0.35,49.63-9.02c10.49-5.94,0.98-15.41-7.85-10.41     c-42.93,24.3-86.5-20.46-129.74-23.51c-26.86-1.89-60.01-0.22-83.49,14.4c-23.53,14.64-16.42,40.85,4.67,54.59     c23.32,15.21,58.45,19.16,84.77,10.6c28.15-9.15,39.89-38.58,21-63.45c-18.61-24.54-56.99-23.33-82.02-10.56     c-28.53,14.57-40.06,44.08-26.4,73.41c14.26,30.61,45.8,54.76,77.56,64.89c30.47,9.72,66.76,4.4,81.04-27.77     c15.41-34.74-0.03-81.37-23.43-109.01c-33.67-39.8-148.97-43.45-135.21,30.7c7.69,41.46,55.35,57.83,92.48,51.79     c15.38-2.5,33.72-8.75,40.1-24.47c6.97-17.17-5.28-37.99-19.2-47.77c-15.86-11.15-37.13-13.16-55.88-10.74     c-16.5,2.14-38,6.42-49.56,19.67c-21.57,24.74,19.6,45.99,38.88,50.47c33.64,7.83,78.86-4.9,83.27-44.63     c4.89-44.06-35.08-75.12-71.76-89.04c-43.94-16.68-95.26-17.24-141.34-11.16c-50.27,6.63-91.44,28.08-129.77,60.76     c-19.95,17.01-38.82,35.26-59.07,51.92C-5.23,306,8.99,312.03,15.82,306.41"
   id="path98" />
		</g>
	</g>
	<g
   id="g106">
		<polygon
   class="st3"
   points="53.82,220.99 65.89,230.19 66.27,241.48 201.49,342.62 386.15,215.04 387.47,200.07 395.14,194.56     242.29,91.13   "
   id="polygon104" />
	</g>
	<g
   id="g110">
		<path
   class="st2"
   d="M201.49,347.21c-0.97,0-1.94-0.31-2.76-0.92L63.51,245.16c-1.12-0.84-1.79-2.13-1.83-3.53l-0.31-9.11    l-10.33-7.88c-1.17-0.89-1.85-2.29-1.8-3.77c0.03-1.47,0.77-2.84,1.99-3.67L239.69,87.34c1.55-1.07,3.61-1.08,5.18-0.02    l152.84,103.43c1.25,0.84,2,2.24,2.02,3.74c0.03,1.5-0.69,2.92-1.91,3.8l-5.96,4.28l-1.13,12.86c-0.12,1.36-0.84,2.6-1.97,3.38    L204.1,346.4C203.31,346.94,202.4,347.21,201.49,347.21z M70.79,239.12l130.8,97.83l180.18-124.47l1.12-12.81    c0.12-1.33,0.81-2.55,1.9-3.33l2.32-1.67L242.32,96.69L61.65,221.18l7.02,5.36c1.1,0.84,1.76,2.12,1.8,3.5L70.79,239.12z"
   id="path108" />
	</g>
	<g
   id="g114">
		<polygon
   class="st2"
   points="132.38,181.34 132.38,155.68 254.97,75.62 267.29,85.38 266.65,107.13 144.46,188.72   "
   id="polygon112" />
	</g>
	<g
   id="g118">
		<polygon
   class="st2"
   points="205.17,236.51 205.17,210.84 327.75,130.78 345.11,141.9 344.54,161.79 217.24,243.89   "
   id="polygon116" />
	</g>
	<g
   id="g122">
		<polygon
   class="st2"
   points="240.03,260.64 240.03,234.97 362.61,154.91 379.97,166.03 379.4,185.92 252.1,268.02   "
   id="polygon120" />
	</g>
	<g
   id="g126">
		<path
   class="st3"
   d="M133.69,186.42c-0.22,5.71-10,9.95-21.84,9.49c-11.84-0.47-21.25-5.48-21.03-11.19    c0.22-5.7,10-9.95,21.84-9.48C124.5,175.71,133.92,180.71,133.69,186.42"
   id="path124" />
	</g>
	<g
   id="g130">
		<path
   class="st2"
   d="M113.65,200.05c-0.65,0-1.3-0.02-1.97-0.04c-14.56-0.58-25.28-7.22-24.96-15.45c0.1-2.64,1.35-5.15,3.6-7.24    c4.53-4.18,13.27-6.51,22.51-6.17c6.32,0.25,12.29,1.7,16.8,4.1c5.43,2.89,8.33,6.92,8.16,11.34    C137.47,194.43,127.23,200.05,113.65,200.05z M110.83,179.31c-7.3,0-12.7,1.96-14.95,4.03c-0.35,0.32-0.94,0.96-0.96,1.53    c-0.09,2.21,6.34,6.51,17.09,6.94c10.69,0.37,17.5-3.36,17.58-5.56c0.04-0.82-1.15-2.35-3.81-3.77c-3.38-1.8-8.22-2.95-13.27-3.15    C111.94,179.32,111.38,179.31,110.83,179.31z"
   id="path128" />
	</g>
	<g
   id="g134">
		<path
   class="st3"
   d="M90.82,184.73l0.66-16.82c0.23-5.71,10.01-9.96,21.84-9.49c11.84,0.47,21.26,5.48,21.04,11.19l-0.67,16.82"
   id="path132" />
	</g>
	<g
   id="g138">
		<path
   class="st2"
   d="M137.79,186.59l-8.2-0.33l0.67-16.82c0.09-2.2-6.34-6.5-17.1-6.93c-10.67-0.43-17.5,3.36-17.58,5.57    l-0.66,16.81l-8.2-0.32l0.66-16.82c0.35-8.24,11.44-14.05,26.11-13.43c14.56,0.58,25.29,7.23,24.97,15.45L137.79,186.59z"
   id="path136" />
	</g>
	<g
   id="g142">
		<path
   class="st2"
   d="M114.3,183.23c-0.65,0-1.29-0.02-1.96-0.04c-9.37-0.37-17.78-3.41-21.95-7.94c-2.08-2.25-3.12-4.84-3.01-7.5    l8.2,0.34c-0.03,0.57,0.51,1.25,0.84,1.6c2.21,2.41,8.11,4.99,16.25,5.31c10.71,0.39,17.49-3.36,17.58-5.56l8.2,0.34    C138.13,177.62,127.89,183.23,114.3,183.23z"
   id="path140" />
	</g>
	<g
   id="g146">
		<path
   class="st3"
   d="M105.62,212.35c-0.23,5.71-10,9.96-21.84,9.49c-11.84-0.47-21.26-5.48-21.03-11.18    c0.22-5.71,10-9.96,21.84-9.49C96.44,201.64,105.84,206.64,105.62,212.35"
   id="path144" />
	</g>
	<g
   id="g150">
		<path
   class="st2"
   d="M85.56,225.98c-0.65,0-1.29-0.02-1.95-0.04c-14.56-0.58-25.28-7.22-24.96-15.44    c0.17-4.42,3.38-8.21,9.03-10.66c4.68-2.03,10.72-3.02,17.08-2.76c6.32,0.25,12.29,1.7,16.8,4.1c5.43,2.89,8.33,6.92,8.16,11.34    c-0.17,4.42-3.38,8.21-9.03,10.66C96.49,225,91.18,225.98,85.56,225.98z M82.82,205.24c-4.47,0-8.72,0.75-11.87,2.12    c-2.78,1.21-4.07,2.64-4.1,3.47c-0.09,2.19,6.34,6.49,17.09,6.92c5.13,0.23,9.97-0.56,13.48-2.09c2.78-1.2,4.07-2.64,4.1-3.46    c0.04-0.82-1.15-2.35-3.81-3.77c-3.38-1.8-8.22-2.95-13.27-3.15C83.9,205.25,83.37,205.24,82.82,205.24z"
   id="path148" />
	</g>
	<g
   id="g154">
		<path
   class="st3"
   d="M62.75,210.66l0.66-16.82c0.23-5.71,10.01-9.95,21.84-9.49c11.84,0.47,21.26,5.48,21.04,11.18l-0.67,16.82"
   id="path152" />
	</g>
	<g
   id="g158">
		<path
   class="st2"
   d="M86.24,209.16c-0.65,0-1.29-0.02-1.96-0.04c-9.37-0.37-17.78-3.41-21.95-7.94c-2.08-2.25-3.12-4.84-3.01-7.5    l8.2,0.34c-0.03,0.57,0.51,1.25,0.84,1.6c2.21,2.41,8.11,4.99,16.25,5.31c10.66,0.4,17.49-3.36,17.58-5.56l8.2,0.34    C110.06,203.55,99.82,209.16,86.24,209.16z"
   id="path156" />
	</g>
	<g
   id="g162">
		<polygon
   class="st3"
   points="270.45,268.31 205.17,224.64 135.99,262.57 145.08,269.44 135.99,274.43 202.26,324.6 270.45,280.17     261.46,274.17   "
   id="polygon160" />
	</g>
	<g
   id="g166">
		<path
   class="st2"
   d="M202.26,328.7c-0.87,0-1.74-0.28-2.47-0.83l-66.26-50.17c-1.11-0.84-1.72-2.18-1.62-3.57    c0.1-1.39,0.9-2.63,2.12-3.3l3.54-1.94l-4.04-3.05c-1.11-0.84-1.72-2.18-1.62-3.57c0.1-1.39,0.9-2.63,2.12-3.3l69.17-37.93    c1.33-0.75,2.97-0.66,4.24,0.18l65.28,43.67c1.15,0.77,1.83,2.06,1.82,3.43c-0.01,1.37-0.71,2.65-1.87,3.41l-3.78,2.47l3.82,2.55    c1.15,0.76,1.83,2.06,1.82,3.43c-0.01,1.38-0.71,2.66-1.87,3.41l-68.19,44.43C203.81,328.48,203.04,328.7,202.26,328.7z     M143.51,274.98l58.92,44.62L263,280.13l-3.82-2.55c-1.15-0.76-1.83-2.06-1.82-3.43c0.01-1.38,0.71-2.66,1.87-3.41l3.78-2.47    l-58.05-38.83l-61.43,33.69l4.03,3.05c1.11,0.84,1.72,2.18,1.62,3.57c-0.1,1.39-0.9,2.63-2.12,3.3L143.51,274.98z"
   id="path164" />
	</g>
	<g
   id="g170">
		<path
   class="st2"
   d="M109.72,212.51l-8.2-0.33l0.67-16.82c0.09-2.19-6.34-6.49-17.1-6.92c-10.78-0.44-17.5,3.36-17.58,5.56    l-0.66,16.81l-8.2-0.32l0.66-16.82c0.34-8.22,11.45-13.93,26.11-13.42c14.56,0.58,25.29,7.22,24.97,15.44L109.72,212.51z"
   id="path168" />
	</g>
</g>
<g
   id="Calque_4"
   class="st0">
	<g
   class="st1"
   id="g175">
		<path
   class="st2"
   d="M406.06,347.44c-1.97,0-4.55-0.29-7.98-1.04l-9.01-1.98c-11.66-2.56-12.25-5.91-12.54-7.52    c-0.4-2.21,0.6-4.32,2.67-5.64c0.93-0.83,2.48-5.4,3.11-9.34l30.75-134.55c0.81-18.01,5.54-33.59,8.3-41.32l-20.7-4.55    c-3.98-1.05-9.08-5.02-7.58-11.86l2.97-13.58c0.2-0.91,0.67-1.74,1.35-2.37l5.71-5.29c1.1-1.02,2.61-1.45,4.08-1.11l56.41,12.38    c1.4,0.31,2.58,1.26,3.18,2.56c0.6,1.32,0.54,2.82-0.15,4.09c-0.57,1.99,3.46,10.89,30.56,21.13c0.34,0.13,0.66,0.3,0.96,0.49    c1.4,0.96,2.87,3.02,2.37,5.64c-0.8,4.19-5.68,5.85-10.83,7.01c-0.65,0.14-1.33,0.14-1.98,0l-35.85-7.85    c-0.74,8.2-3.03,24.51-10,41.77l-28.13,134c-1.14,4.13-1.64,8.92-1.11,10.14c1.28,1.99,1.3,4.32,0.02,6.18    C411.96,345.77,410.79,347.44,406.06,347.44z M387.81,334.66c1.03,0.32,2.16,0.62,3.22,0.85l9.01,1.98    c1.06,0.23,2.21,0.43,3.28,0.58c-0.3-4.37,0.85-9.27,1.53-11.72l28.3-134.47c9.36-23.34,9.93-44.61,9.93-44.82    c0.03-1.36,0.67-2.65,1.74-3.49c1.07-0.84,2.45-1.18,3.8-0.86l30.04,6.59c-11.07-5.75-17.83-11.83-20.17-18.14    c-0.46-1.25-0.71-2.39-0.82-3.43l-50.1-10.99l-2.91,2.7l-2.67,12.19c0.04,0.62,0.51,0.93,0.9,1.05l25.62,5.62    c1.33,0.29,2.47,1.16,3.08,2.38c0.62,1.21,0.67,2.65,0.12,3.9c-0.08,0.2-8.49,19.83-9.65,44.05l-30.8,135.06    C390.9,325.97,389.92,330.84,387.81,334.66z"
   id="path173" />
	</g>
	<g
   class="st1"
   id="g179">
		<path
   class="st2"
   d="M427.53,142.73c0,0,6.09-0.97,11.47,0.21c5.38,1.18,9.52,4.39,9.52,4.39l40.17,8.82l5.23-1.61l2.09-2.29    l-3.08-1.56l-17.95-8.77l-7.53-5.74l-4.31-5.75l-0.51-6.28l-56.41-12.39l-5.7,5.3l-2.98,13.57l1.15,4.64l4.28,2.07L427.53,142.73z    "
   id="path177" />
	</g>
	<g
   class="st1"
   id="g183">
		<path
   class="st2"
   d="M209.67,210.1c0,0-10.24-2.99-13.98-16.86c-3.73-13.86-6.29-16.5-11.64-16.28c0,0,4.99-5.99-0.7-19.03    c0,0-9.7-25.4-23.3-27.49l5.49,36.04c0,0-0.02,1-1.1,1.37c-0.93,0.32-1.48-0.5-1.48-0.5l-17.5-32    c-9.55,9.92-1.85,35.98-1.85,35.98c3.39,13.83,10.98,15.57,10.98,15.57c-4.09,3.92-1.92,9.4,3.62,19.63    c6.83,12.64,0.76,23,0.76,23s11.28-6.44,17.65-5.97c0,0-0.36-16.6-3.54-26.03c0,0-0.6-2.02,1.65-3.11    c2.27-1.09,3.68,0.98,3.68,0.98s8.54,15.83,13.35,21.13C191.79,216.54,199.94,211.47,209.67,210.1"
   id="path181" />
	</g>
	<g
   class="st1"
   id="g187">
		<path
   class="st3"
   d="M176.64,223.57l-12.73,55.9c-5.22,29.79,10.18,63.13,16.15,75.12c5.97,12,21.91,15.85,6.59,23.26    c-15.33,7.41-33.57-41.85-33.57-41.85c-21.11-52.11,5.91-106.47,5.91-106.47l9.8-4.47L176.64,223.57z"
   id="path185" />
	</g>
	<g
   class="st1"
   id="g191">
		<path
   class="st2"
   d="M183.39,383.17c-1.64,0-3.32-0.34-4.98-1.01c-14.98-6.03-28.16-40.65-29.62-44.58    c-21.58-53.27,4.97-107.78,6.11-110.08c0.46-0.94,1.24-1.69,2.19-2.12l9.8-4.48c0.33-0.15,0.68-0.27,1.04-0.34l7.85-1.49    c1.55-0.26,3.08,0.22,4.14,1.32c1.07,1.11,1.51,2.69,1.17,4.18l-12.73,55.9c-3.36,19.17,2.23,44.85,15.78,72.09    c1.71,3.44,4.59,6.26,7.13,8.75c3.63,3.55,7.07,6.91,6.3,11.63c-0.74,4.52-5.17,7.19-8.94,9.02    C186.96,382.77,185.2,383.17,183.39,383.17z M162.42,232.99c-3.92,8.76-23.33,56.33-5.12,101.31    c5.01,13.49,16.03,35.99,24.52,39.41c1.41,0.56,2.23,0.34,2.84,0.04c3.39-1.65,3.99-2.57,4.01-2.61    c-0.36,0.16-2.33-1.89-3.78-3.29c-2.91-2.85-6.53-6.39-8.92-11.22c-10.19-20.48-21.34-50.64-16.55-77.93l11.23-49.33l-0.46,0.09    L162.42,232.99z"
   id="path189" />
	</g>
	<g
   class="st1"
   id="g195">
		<path
   class="st3"
   d="M209.67,210.1c0,0,54.46,26.83,69.28,81.07c0,0,15.37,50.23-1.31,53.64c-16.69,3.4-6.34-9.33-8.87-22.48    c-2.54-13.16-10.51-49.01-32.72-69.53l-44.02-36.73l8.64-3.66L209.67,210.1z"
   id="path193" />
	</g>
	<g
   class="st1"
   id="g199">
		<path
   class="st2"
   d="M273.04,349.93c-2.6,0-5.14-0.58-7.08-2.41c-3.47-3.28-2.78-8.04-2.04-13.07c0.51-3.51,1.09-7.49,0.37-11.26    c-4.08-21.14-12.82-49.94-31.34-67.04l-43.85-36.58c-1.22-1.02-1.83-2.59-1.59-4.17c0.23-1.57,1.27-2.91,2.73-3.53l8.64-3.66    l9.66-2.53c1.06-0.27,2.17-0.14,3.15,0.33c2.3,1.13,56.47,28.39,71.66,83.97c1.19,3.87,11.7,39.4,3.45,53.27    c-1.92,3.24-4.77,5.33-8.24,6.03C276.83,349.63,274.92,349.93,273.04,349.93z M200.64,217.32l38.32,31.97    c20.51,18.94,29.95,49.68,34.28,72.17c1.01,5.28,0.29,10.28-0.3,14.31c-0.26,1.79-0.61,4.17-0.49,5.22    c0.29-0.15,1.58-0.1,4.27-0.65c0.66-0.14,1.45-0.45,2.22-1.76c4.67-7.85-0.2-32.43-4.37-46.07    c-12.79-46.82-56.92-72.88-65.49-77.55L200.64,217.32z"
   id="path197" />
	</g>
	<g
   class="st1"
   id="g203">
		<path
   class="st3"
   d="M175.24,179.13c1.2,3.55-0.71,7.41-4.26,8.61c-3.55,1.2-7.41-0.71-8.61-4.26c-1.19-3.55,0.71-7.41,4.26-8.61    C170.19,173.67,174.04,175.58,175.24,179.13"
   id="path201" />
	</g>
	<g
   class="st1"
   id="g207">
		<path
   class="st3"
   d="M271.61,208.12c0,0-31.99,25.95-40.13,60.05c-8.15,34.09-2.72,70.6,8.45,81.78c0,0,2.11,1.8,7.55-3.63    c5.43-5.43,0-14.79,0-18.11c0-3.32-7.25-28.67,0-52.2c7.24-23.53,33.49-52.8,35.91-57.93c2.4-5.13,2.4-10.57,2.4-10.57    L271.61,208.12z"
   id="path205" />
	</g>
	<g
   class="st1"
   id="g211">
		<path
   class="st2"
   d="M240.97,354.82c-2.07,0-3.42-0.9-4.01-1.4c-13.48-13.47-17.91-52.89-9.93-86.31    c8.41-35.2,40.35-61.44,41.7-62.53c0.76-0.62,1.7-0.98,2.68-1.02l14.17-0.62c1.27-0.03,2.45,0.4,3.36,1.27    c0.9,0.85,1.41,2.05,1.41,3.29c0,0.27-0.03,6.53-2.84,12.51c-0.83,1.76-2.83,4.43-6.91,9.79c-8.88,11.67-23.73,31.21-28.76,47.55    c-5.58,18.09-2.01,37.69-0.49,46.06c0.44,2.4,0.69,4.07,0.69,4.81c0.03,0.35,0.41,1.63,0.69,2.56c1.44,4.83,3.84,12.91-2.03,18.77    C246.56,353.68,243.31,354.82,240.97,354.82z M273.37,212.61c-5.6,4.88-30.62,27.98-37.46,56.62    c-7.39,30.92-3.03,64.36,5.88,75.94c0.57-0.37,1.38-1.01,2.45-2.08c1.87-1.86,0.99-5.5-0.27-9.71c-0.57-1.92-1.07-3.59-1.07-5.17    c-0.03-0.51-0.26-1.63-0.54-3.17c-1.64-9.03-5.49-30.16,0.75-50.38c5.51-17.89,20.98-38.24,30.22-50.39    c2.55-3.35,5.44-7.14,5.92-8.14c0.6-1.29,1.02-2.61,1.31-3.83L273.37,212.61z"
   id="path209" />
	</g>
	<g
   class="st1"
   id="g215">
		<path
   class="st3"
   d="M311.78,207.55c0,0,31.26,26.82,38.46,61.13c7.21,34.32,0.78,70.67-10.7,81.52c0,0-2.16,1.75-7.44-3.84    c-5.28-5.58,0.41-14.78,0.51-18.1c0.08-3.32,8.02-28.46,1.43-52.18c-6.6-23.73-32.03-53.71-34.3-58.9    c-2.28-5.2-2.13-10.62-2.13-10.62L311.78,207.55z"
   id="path213" />
	</g>
	<g
   class="st1"
   id="g219">
		<path
   class="st2"
   d="M338.49,355.01c-2.38,0-5.64-1.2-9.71-5.51c-5.72-6.04-3.08-14.05-1.5-18.85c0.3-0.92,0.72-2.17,0.76-2.59    c0.02-0.66,0.31-2.34,0.82-4.74c1.74-8.32,5.83-27.8,0.78-46.01c-4.59-16.49-18.89-36.41-27.44-48.32    c-3.94-5.49-5.87-8.2-6.64-9.98c-2.65-6.05-2.52-12.3-2.51-12.57c0.03-1.25,0.57-2.42,1.49-3.25c0.92-0.84,2.08-1.33,3.39-1.17    l14.17,0.99c0.98,0.06,1.91,0.44,2.65,1.09c1.33,1.13,32.52,28.23,39.95,63.65c7.07,33.65,1.56,72.92-12.03,85.78    C341.96,354.11,340.55,355.01,338.49,355.01z M302.71,211.5c0.26,1.22,0.64,2.56,1.21,3.86c0.45,1.02,3.24,4.9,5.7,8.32    c8.9,12.4,23.8,33.15,28.81,51.19c5.65,20.35,1.25,41.37-0.63,50.33c-0.32,1.55-0.58,2.68-0.63,3.27    c-0.05,1.5-0.59,3.15-1.21,5.05c-1.37,4.17-2.36,7.78-0.54,9.71c1.07,1.13,1.87,1.79,2.43,2.17c9.12-10.89,14.52-44.44,7.93-75.78    c-6.04-28.8-30.41-52.58-35.87-57.62L302.71,211.5z"
   id="path217" />
	</g>
	<g
   class="st1"
   id="g223">
		<path
   class="st2"
   d="M271.61,208.12c0,0,4.23-11.17,2.41-19.77c-1.81-8.6-1.67-12.97,3.17-15.24v-3.01l-4.68-2.56l-1.67-23.84    l6.95-60.65c0,0,0.6-3.62,2.11,0c1.52,3.62,8.76,52.36,8.76,52.36l0.53,0.53c0,0-5.51,3.54-5.51,9.88c0,0-1.36,8.91,8.6,10.87    l1.05-21.88l6.95-53.41c0,0,1.36-3.01,2.41,2.42c1.05,5.43,6.64,59.44,6.64,59.44v23.69l-3.77,3.76v3.48c0,0,5.88-0.76,3.63,12.52    c0,0-2.34,13.96,2.6,20.86l-14.16-0.99l-3.84-20.17h-5.28l-2.72,21.12L271.61,208.12z"
   id="path221" />
	</g>
	<g
   class="st1"
   id="g227">
		<path
   class="st3"
   d="M297.26,173.56c0,3.25-2.63,5.88-5.88,5.88c-3.26,0-5.89-2.63-5.89-5.88c0-3.25,2.63-5.88,5.89-5.88    C294.62,167.68,297.26,170.32,297.26,173.56"
   id="path225" />
	</g>
	<g
   class="st1"
   id="g231">
		<path
   class="st2"
   d="M144.87,451c-1.98,0-3.79-1.3-4.37-3.27l-55.5-188.84l-5.67,1.14c-2.24,0.44-4.52-0.86-5.23-3.07    l-15.86-48.73l-39.85,3.46c-1.64,0.13-3.12-0.56-4.06-1.83l-6.88-9.26c-0.9-1.21-1.14-2.79-0.64-4.22    c0.49-1.43,1.67-2.52,3.13-2.9l48.22-12.88l-4.97-14.07L5.83,180.21c-1.53,0.45-3.19,0.06-4.36-1.03c-1.17-1.08-1.7-2.7-1.38-4.26    l2.03-10.04c0.27-1.36,1.15-2.51,2.37-3.15l44.41-22.98c0.32-0.16,0.66-0.29,1.01-0.38l28.95-7.13c1.2-0.27,2.45-0.09,3.5,0.57    c1.04,0.65,1.78,1.7,2.04,2.9l0.6,2.73l28.58-5.31c2.2-0.41,4.34,0.82,5.11,2.89c0.77,2.08-0.06,4.42-1.97,5.54L88.98,156.8    l0.49,2.28l35.29-5.09c2.27-0.31,4.35,1.03,5.02,3.18c0.66,2.15-0.34,4.46-2.37,5.44l-29.44,14.32l17.71,68.25    c0.55,2.1-0.46,4.29-2.41,5.24l-3.77,1.84l55.59,189.14c0.35,1.2,0.2,2.49-0.43,3.58c-0.63,1.08-1.68,1.85-2.9,2.14l-15.84,3.75    C145.57,450.97,145.22,451,144.87,451z M88.2,249.03c1.99,0,3.79,1.3,4.37,3.27l55.46,188.7l6.94-1.65L99.66,251.14    c-0.63-2.13,0.38-4.42,2.38-5.38l3.88-1.89l-16.35-62.98l-0.47,0.04c-2.12,0.23-4.21-1.2-4.8-3.33c-0.59-2.12,0.42-4.35,2.4-5.32    l10.42-5.06l-10.53,1.52c-2.42,0.31-4.61-1.2-5.11-3.55l-2.11-9.67c-0.42-1.92,0.45-3.91,2.15-4.91l8.07-4.72l-7.26,1.35    c-2.42,0.46-4.77-1.11-5.29-3.52l-0.54-2.48l-23.87,5.89l-42.09,22.24l44.25-12.79c2.33-0.67,4.77,0.59,5.57,2.86l8.05,22.79    c0.43,1.2,0.33,2.52-0.27,3.65c-0.59,1.12-1.63,1.96-2.86,2.27l-46.5,12.41l1.35,1.82l40.92-3.55c2.18-0.15,4.08,1.12,4.73,3.14    l15.72,48.32l5.78-1.16C87.6,249.05,87.9,249.03,88.2,249.03z"
   id="path229" />
	</g>
	<g
   class="st1"
   id="g235">
		<polygon
   class="st2"
   points="71.49,234.21 105.45,223.94 93.01,176 111.14,165.45 111.78,160.48 85.91,164.22 85.31,153.37     103.3,143.13 100.3,139.24 81.49,142.73 79.95,135.67 51,142.8 6.59,165.79 4.56,175.82 56.05,160.93 64.11,183.72 11.11,197.87     17.99,207.13 61.45,203.37   "
   id="polygon233" />
	</g>
</g>
</svg>