<?xml version="1.0" encoding="UTF-8" standalone="no"?>
<!-- Created with Inkscape (http://www.inkscape.org/) -->

<svg
   xmlns:dc="http://purl.org/dc/elements/1.1/"
   xmlns:cc="http://creativecommons.org/ns#"
   xmlns:rdf="http://www.w3.org/1999/02/22-rdf-syntax-ns#"
   xmlns:svg="http://www.w3.org/2000/svg"
   xmlns="http://www.w3.org/2000/svg"
   xmlns:sodipodi="http://sodipodi.sourceforge.net/DTD/sodipodi-0.dtd"
   xmlns:inkscape="http://www.inkscape.org/namespaces/inkscape"
   width="400"
   height="400"
   viewBox="0 0 105.83333 105.83334"
   version="1.1"
   id="svg852"
   inkscape:version="0.92.2 2405546, 2018-03-11"
   sodipodi:docname="expert_lab.svg"
   inkscape:export-filename="/home/raphael/github/fab-manager/public/home/assets/expert_lab.png"
   inkscape:export-xdpi="96"
   inkscape:export-ydpi="96">
  <defs
     id="defs846" />
  <sodipodi:namedview
     id="base"
     pagecolor="#ffffff"
     bordercolor="#666666"
     borderopacity="1.0"
     inkscape:pageopacity="0.0"
     inkscape:pageshadow="2"
     inkscape:zoom="1.4"
     inkscape:cx="52.029141"
     inkscape:cy="186.54976"
     inkscape:document-units="mm"
     inkscape:current-layer="layer1"
     showgrid="false"
     units="px"
     inkscape:window-width="1865"
     inkscape:window-height="1016"
     inkscape:window-x="55"
     inkscape:window-y="30"
     inkscape:window-maximized="1" />
  <metadata
     id="metadata849">
    <rdf:RDF>
      <cc:Work
         rdf:about="">
        <dc:format>image/svg+xml</dc:format>
        <dc:type
           rdf:resource="http://purl.org/dc/dcmitype/StillImage" />
        <dc:title />
      </cc:Work>
    </rdf:RDF>
  </metadata>
  <g
     inkscape:label="Layer 1"
     inkscape:groupmode="layer"
     id="layer1"
     transform="translate(0,-191.16665)">
    <rect
       style="opacity:1;fill:#ffe8e0;fill-opacity:1;stroke:none;stroke-width:2.29793382;stroke-miterlimit:4;stroke-dasharray:none;stroke-opacity:1"
       id="rect841"
       width="105.83334"
       height="105.83334"
       x="0"
       y="191.16664" />
    <text
       xml:space="preserve"
       style="font-style:normal;font-weight:normal;font-size:10.58330727px;line-height:1.25;font-family:sans-serif;letter-spacing:0px;word-spacing:0px;fill:#e3005c;fill-opacity:1;stroke:none;stroke-width:0.26458266"
       x="11.733736"
       y="209.89473"
       id="text856"
       transform="scale(0.99999752,1.0000025)"><tspan
         sodipodi:role="line"
         id="tspan854"
         x="11.733736"
         y="209.89473"
         style="font-style:normal;font-variant:normal;font-weight:normal;font-stretch:normal;font-family:'GT Pressura';-inkscape-font-specification:'GT Pressura';fill:#e3005c;fill-opacity:1;stroke-width:0.26458266">Expert</tspan></text>
    <g
       id="g23"
       style="fill:#e3005c;fill-opacity:1"
       transform="translate(-6.0476191,-9.8273794)">
      <path
         style="fill:#e3005c;fill-opacity:1;stroke-width:0.0460529"
         inkscape:connector-curvature="0"
         d="m 40.300349,271.98498 c 3.25594,0 5.894772,-2.63883 5.894772,-5.89477 0,-3.25594 -2.638832,-5.89477 -5.894772,-5.89477 -3.255941,0 -5.894773,2.63883 -5.894773,5.89477 0,3.25594 2.638832,5.89477 5.894773,5.89477 z m 4.126345,1.47369 h -0.769088 c -1.022377,0.46974 -2.159879,0.73685 -3.357257,0.73685 -1.197371,0 -2.330278,-0.26711 -3.357258,-0.73685 h -0.76908 c -3.417125,0 -6.18951,2.7724 -6.18951,6.18952 v 1.9158 c 0,1.22041 0.990133,2.21054 2.210542,2.21054 h 16.210619 c 1.220401,0 2.210534,-0.99013 2.210534,-2.21054 v -1.9158 c 0,-3.41712 -2.772377,-6.18952 -6.189502,-6.18952 z"
         id="path10" />
      <path
         style="fill:#e3005c;fill-opacity:1;stroke-width:0.0462082"
         inkscape:connector-curvature="0"
         d="m 82.036941,232.86751 -0.378908,0.66078 c -0.138623,0.2449 -0.434355,0.34655 -0.697745,0.24952 -0.545254,-0.20331 -1.044303,-0.49442 -1.483284,-0.85947 -0.212555,-0.1756 -0.268007,-0.48519 -0.129384,-0.72547 l 0.378913,-0.66078 c -0.318844,-0.36967 -0.568365,-0.7994 -0.734714,-1.2661 h -0.762434 c -0.277251,0 -0.517533,-0.1987 -0.563739,-0.47595 -0.09242,-0.5545 -0.09704,-1.13672 0,-1.71432 0.04623,-0.27725 0.286488,-0.48057 0.563739,-0.48057 h 0.762434 c 0.166349,-0.4667 0.41587,-0.89644 0.734714,-1.26611 l -0.378913,-0.66077 c -0.138623,-0.24028 -0.08779,-0.54988 0.129384,-0.72547 0.438981,-0.36505 0.942652,-0.65616 1.483284,-0.85947 0.26339,-0.097 0.559122,0.004 0.697745,0.24952 l 0.378908,0.66078 c 0.485185,-0.0878 0.979617,-0.0878 1.464802,0 l 0.378904,-0.66078 c 0.138623,-0.24491 0.434359,-0.34656 0.697749,-0.24952 0.545253,0.20331 1.044302,0.49442 1.483275,0.85947 0.212564,0.17559 0.268015,0.48519 0.129389,0.72547 l -0.378909,0.66077 c 0.318836,0.36967 0.568362,0.79941 0.734713,1.26611 h 0.762431 c 0.277252,0 0.517541,0.1987 0.56374,0.47594 0.0924,0.55451 0.097,1.13673 0,1.71433 -0.0462,0.27725 -0.286488,0.48057 -0.56374,0.48057 h -0.762431 c -0.166351,0.4667 -0.415877,0.89643 -0.734713,1.2661 l 0.378909,0.66078 c 0.138626,0.24028 0.08779,0.54987 -0.129389,0.72547 -0.438973,0.36505 -0.942644,0.65616 -1.483275,0.85947 -0.26339,0.097 -0.559126,-0.004 -0.697749,-0.24952 l -0.378904,-0.66078 c -0.480568,0.0878 -0.979617,0.0878 -1.464802,0 z m -0.485188,-2.71704 c 1.779016,1.36776 3.807561,-0.66079 2.439792,-2.4398 -1.779016,-1.37238 -3.807553,0.66078 -2.439792,2.4398 z m -5.327809,7.11144 1.557221,0.77629 c 0.466701,0.26801 0.670015,0.83638 0.485185,1.34467 -0.411252,1.11824 -1.219896,2.14405 -1.968473,3.04049 -0.34194,0.41126 -0.933405,0.51291 -1.400106,0.24491 l -1.344658,-0.7763 c -0.73933,0.63305 -1.598803,1.13672 -2.536833,1.46479 v 1.5526 c 0,0.53602 -0.383527,0.9981 -0.910296,1.09052 -1.136727,0.19408 -2.328894,0.20331 -3.507203,0 -0.531397,-0.0924 -0.924166,-0.54988 -0.924166,-1.09052 v -1.5526 c -0.93803,-0.33269 -1.797502,-0.83174 -2.536833,-1.46479 l -1.344657,0.77168 c -0.462084,0.26801 -1.058167,0.16634 -1.400106,-0.2449 -0.748576,-0.89644 -1.538735,-1.92227 -1.949988,-3.03588 -0.184838,-0.50368 0.01847,-1.07204 0.485185,-1.34467 l 1.538735,-0.77629 c -0.180213,-0.96575 -0.180213,-1.95923 0,-2.9296 l -1.538735,-0.78092 c -0.466701,-0.268 -0.674639,-0.83637 -0.485185,-1.34004 0.411253,-1.11824 1.201412,-2.14406 1.949988,-3.0405 0.341939,-0.41126 0.933405,-0.51291 1.400106,-0.24491 l 1.344657,0.77631 c 0.739331,-0.63306 1.598803,-1.13673 2.536833,-1.4648 v -1.55722 c 0,-0.5314 0.378905,-0.99348 0.905679,-1.08589 1.136722,-0.19408 2.33352,-0.20332 3.511828,-0.004 0.531389,0.0924 0.924158,0.54988 0.924158,1.09051 v 1.55259 c 0.93803,0.3327 1.797503,0.83175 2.536833,1.4648 l 1.344658,-0.77629 c 0.462084,-0.26801 1.058166,-0.16635 1.400106,0.2449 0.748577,0.89644 1.534117,1.92227 1.945373,3.04051 0.184829,0.50366 0.0046,1.07202 -0.462085,1.34465 l -1.557221,0.7763 c 0.180213,0.97037 0.180213,1.96385 0,2.93423 z m -5.434081,0.97499 c 2.735524,-3.55803 -1.326174,-7.61973 -4.884206,-4.8842 -2.735524,3.55802 1.326171,7.61973 4.884206,4.8842 z m 11.247078,8.44224 -0.378908,0.66077 c -0.138623,0.24491 -0.434355,0.34656 -0.697745,0.24953 -0.545254,-0.20331 -1.044303,-0.49443 -1.483284,-0.85947 -0.212555,-0.17559 -0.268007,-0.48519 -0.129384,-0.72547 l 0.378913,-0.66078 c -0.318844,-0.36966 -0.568365,-0.79941 -0.734714,-1.2661 h -0.762434 c -0.277251,0 -0.517533,-0.19869 -0.563739,-0.47595 -0.09242,-0.5545 -0.09704,-1.13672 0,-1.71432 0.04623,-0.27725 0.286488,-0.48056 0.563739,-0.48056 h 0.762434 c 0.166349,-0.46671 0.41587,-0.89645 0.734714,-1.26611 L 79.34762,239.4799 c -0.138623,-0.24028 -0.08779,-0.54988 0.129384,-0.72547 0.438981,-0.36504 0.942652,-0.65616 1.483284,-0.85948 0.26339,-0.097 0.559122,0.004 0.697745,0.24954 l 0.378908,0.66077 c 0.485185,-0.0878 0.979617,-0.0878 1.464802,0 l 0.378904,-0.66077 c 0.138623,-0.24491 0.434359,-0.34657 0.697749,-0.24954 0.545253,0.20332 1.044302,0.49444 1.483275,0.85948 0.212564,0.17559 0.268015,0.48519 0.129389,0.72547 l -0.378909,0.66078 c 0.318836,0.36966 0.568362,0.7994 0.734713,1.26611 h 0.762431 c 0.277252,0 0.517541,0.19868 0.56374,0.47594 0.0924,0.55449 0.097,1.13672 0,1.71432 -0.0462,0.27726 -0.286488,0.48057 -0.56374,0.48057 h -0.762431 c -0.166351,0.4667 -0.415877,0.89644 -0.734713,1.2661 l 0.378909,0.66078 c 0.138626,0.24028 0.08779,0.54988 -0.129389,0.72547 -0.438973,0.36504 -0.942644,0.65616 -1.483275,0.85947 -0.26339,0.097 -0.559126,-0.004 -0.697749,-0.24953 l -0.378904,-0.66077 c -0.480568,0.0878 -0.979617,0.0878 -1.464802,0 z m -0.485188,-2.72166 c 1.779016,1.36776 3.807561,-0.66078 2.439792,-2.43979 -1.779016,-1.36777 -3.807553,0.66078 -2.439792,2.43979 z"
         id="path43" />
      <path
         sodipodi:nodetypes="cccsccccccccc"
         style="fill:#e3005c;fill-opacity:1;stroke-width:0.0272843"
         inkscape:connector-curvature="0"
         d="m 52.948084,258.92684 6.945459,-6.94545 0.926061,0.92607 c 0.41121,0.4112 1.117869,0.11996 1.117869,-0.46304 v -3.08686 c -1.8e-5,-0.36164 -0.293198,-0.65482 -0.654819,-0.65482 h -3.08687 c -0.579851,2e-5 -0.876629,0.70427 -0.46304,1.11785 l 0.92605,0.92606 -6.94545,6.94545 c -0.25573,0.25573 -0.25572,0.67033 1e-5,0.92606 l 0.30868,0.30868 c 0.25573,0.25573 0.67033,0.25573 0.92605,0 z"
         id="path32-3" />
    </g>
  </g>
</svg>
