<?xml version="1.0" encoding="UTF-8" standalone="no"?>
<!-- Generator: Adobe Illustrator 21.0.0, SVG Export Plug-In . SVG Version: 6.00 Build 0)  -->

<svg
   xmlns:dc="http://purl.org/dc/elements/1.1/"
   xmlns:cc="http://creativecommons.org/ns#"
   xmlns:rdf="http://www.w3.org/1999/02/22-rdf-syntax-ns#"
   xmlns:svg="http://www.w3.org/2000/svg"
   xmlns="http://www.w3.org/2000/svg"
   xmlns:xlink="http://www.w3.org/1999/xlink"
   xmlns:sodipodi="http://sodipodi.sourceforge.net/DTD/sodipodi-0.dtd"
   xmlns:inkscape="http://www.inkscape.org/namespaces/inkscape"
   version="1.1"
   x="0px"
   y="0px"
   viewBox="0 0 74 74"
   xml:space="preserve"
   id="svg26"
   sodipodi:docname="fablab-picto-instagram.svg"
   width="74"
   height="74"
   inkscape:version="0.92.2 2405546, 2018-03-11"
   inkscape:export-filename="/home/raphael/Documents/FabLab/website/fab-manager/public/home/assets/fablab-picto-instagram.png"
   inkscape:export-xdpi="96"
   inkscape:export-ydpi="96"><metadata
   id="metadata32"><rdf:RDF><cc:Work
       rdf:about=""><dc:format>image/svg+xml</dc:format><dc:type
         rdf:resource="http://purl.org/dc/dcmitype/StillImage" /><dc:title /></cc:Work></rdf:RDF></metadata><defs
   id="defs30" /><sodipodi:namedview
   pagecolor="#ffffff"
   bordercolor="#666666"
   borderopacity="1"
   objecttolerance="10"
   gridtolerance="10"
   guidetolerance="10"
   inkscape:pageopacity="0"
   inkscape:pageshadow="2"
   inkscape:window-width="1920"
   inkscape:window-height="1016"
   id="namedview28"
   showgrid="false"
   fit-margin-top="0"
   fit-margin-left="0"
   fit-margin-right="0"
   fit-margin-bottom="0"
   inkscape:zoom="1.7383042"
   inkscape:cx="-51.488113"
   inkscape:cy="0.91917337"
   inkscape:window-x="0"
   inkscape:window-y="27"
   inkscape:window-maximized="1"
   inkscape:current-layer="svg26" />
<style
   type="text/css"
   id="style2">
	.st0{fill:#0B1783;}
	.st1{display:none;}
	.st2{display:inline;}
	.st3{clip-path:url(#SVGID_2_);fill:#0B1783;}
	.st4{display:inline;fill:#0B1783;}
</style>
<g
   id="Calque_1"
   transform="translate(-319,-343)">
	<g
   id="g10">
		<circle
   class="st0"
   cx="356.29999"
   cy="379.79999"
   r="5.8000002"
   id="circle4"
   style="fill:#0b1783" />
		<path
   class="st0"
   d="M 368.6,364.5 H 344 c -1.7,0 -3,1.4 -3,3 v 24.6 c 0,1.7 1.4,3 3,3 h 24.6 c 1.7,0 3,-1.4 3,-3 v -24.6 c 0,-1.7 -1.3,-3 -3,-3 z m -12.3,25 c -5.4,0 -9.7,-4.4 -9.7,-9.7 0,-5.4 4.4,-9.7 9.7,-9.7 5.3,0 9.7,4.4 9.7,9.7 0,5.3 -4.4,9.7 -9.7,9.7 z m 11,-17.7 c -1.3,0 -2.3,-1 -2.3,-2.3 0,-1.3 1,-2.3 2.3,-2.3 1.3,0 2.3,1 2.3,2.3 0,1.3 -1,2.3 -2.3,2.3 z"
   id="path6"
   inkscape:connector-curvature="0"
   style="fill:#0b1783" />
		<path
   class="st0"
   d="m 356,343 c -20.4,0 -37,16.6 -37,37 0,20.4 16.6,37 37,37 20.4,0 37,-16.6 37,-37 0,-20.4 -16.6,-37 -37,-37 z m 19.5,49.1 c 0,3.8 -3.1,6.9 -6.9,6.9 H 344 c -3.8,0 -6.9,-3.1 -6.9,-6.9 v -24.6 c 0,-3.8 3.1,-6.9 6.9,-6.9 h 24.6 c 3.8,0 6.9,3.1 6.9,6.9 z"
   id="path8"
   inkscape:connector-curvature="0"
   style="fill:#0b1783" />
	</g>
</g>
<g
   id="Calque_2"
   class="st1"
   style="display:none"
   transform="translate(-319,-343)">
	<g
   class="st2"
   id="g21"
   style="display:inline">
		<defs
   id="defs14">
			<rect
   id="SVGID_1_"
   x="514"
   y="343"
   width="74"
   height="74" />
		</defs>
		<clipPath
   id="SVGID_2_">
			<use
   xlink:href="#SVGID_1_"
   style="overflow:visible"
   id="use16"
   x="0"
   y="0"
   width="100%"
   height="100%" />
		</clipPath>
		<path
   class="st3"
   d="m 562,371.7 c 0,1.1 -0.2,2.1 -0.5,3.1 -0.3,1 -0.7,1.8 -1.2,2.6 -0.5,0.8 -1.1,1.5 -1.7,2.1 -0.6,0.6 -1.2,1.1 -1.8,1.6 -0.5,0.4 -0.9,0.8 -1.2,1.1 -0.3,0.3 -0.6,0.7 -0.7,1 -0.2,0.4 -0.3,0.8 -0.4,1.2 -0.1,0.4 -0.1,1 -0.1,1.6 v 0.6 c 0,0.3 -0.1,0.5 -0.3,0.7 -0.2,0.2 -0.5,0.3 -0.7,0.3 H 548 c -0.3,0 -0.5,-0.1 -0.7,-0.3 -0.2,-0.2 -0.3,-0.5 -0.3,-0.7 V 386 c 0,-0.4 0,-0.9 0,-1.4 0,-0.5 0,-1.1 0.1,-1.7 0.1,-0.6 0.2,-1.2 0.5,-1.8 0.2,-0.6 0.6,-1.2 1,-1.8 0.6,-0.8 1.3,-1.4 2.1,-1.9 0.8,-0.5 1.5,-1 2,-1.6 0.5,-0.5 1,-1.1 1.4,-1.8 0.4,-0.7 0.6,-1.3 0.6,-1.9 0,-1.2 -0.3,-2.1 -1,-2.8 -0.7,-0.7 -1.6,-1 -2.6,-1 -1.1,0 -1.9,0.4 -2.5,1.2 -0.6,0.8 -0.9,1.7 -0.9,2.7 v 0.9 c 0,0.3 -0.1,0.5 -0.3,0.7 -0.2,0.2 -0.5,0.3 -0.8,0.3 h -5.4 c -0.3,0 -0.5,-0.1 -0.7,-0.3 -0.2,-0.2 -0.3,-0.5 -0.3,-0.7 v -0.8 c 0,-1.6 0.3,-3.1 0.9,-4.5 0.6,-1.4 1.4,-2.6 2.3,-3.7 1,-1 2.1,-1.9 3.4,-2.5 1.3,-0.6 2.7,-0.9 4.2,-0.9 1.5,0 3,0.3 4.3,0.8 1.4,0.5 2.5,1.3 3.5,2.3 1,1 1.8,2.1 2.4,3.5 0.5,1.3 0.8,2.8 0.8,4.4 m -15,20 c 0,-0.3 0.1,-0.5 0.3,-0.7 0.2,-0.2 0.4,-0.3 0.7,-0.3 h 5.8 c 0.3,0 0.5,0.1 0.7,0.3 0.2,0.2 0.3,0.5 0.3,0.7 v 6.5 c 0,0.3 -0.1,0.5 -0.3,0.7 -0.2,0.2 -0.4,0.3 -0.7,0.3 H 548 c -0.3,0 -0.5,-0.1 -0.7,-0.3 -0.2,-0.2 -0.3,-0.5 -0.3,-0.7 z M 588,380 c 0,-20.4 -16.6,-37 -37,-37 -20.4,0 -37,16.6 -37,37 0,20.4 16.6,37 37,37 20.4,0 37,-16.6 37,-37"
   clip-path="url(#SVGID_2_)"
   id="path19"
   inkscape:connector-curvature="0"
   style="fill:#0b1783" />
	</g>
	<path
   class="st4"
   d="m 463.5,434.5 c -20.4,0 -37,16.6 -37,37 0,20.4 16.6,37 37,37 20.4,0 37,-16.6 37,-37 0,-20.4 -16.6,-37 -37,-37 z m 9.4,24.4 c 0,0.4 -0.3,0.8 -0.8,0.8 -1.4,0 -2.5,0 -3.3,0.1 -0.7,0.1 -1.1,0.2 -1.4,0.4 v 0 c -0.3,0.3 -0.5,0.8 -0.6,1.7 -0.1,0.9 -0.1,2.1 -0.1,3.6 h 5.4 c 0.4,0 0.8,0.3 0.8,0.8 v 6.2 c 0,0.4 -0.3,0.8 -0.8,0.8 h -5.4 v 16.6 0 c 0,0.4 -0.3,0.8 -0.8,0.8 h -6.2 c -0.4,0 -0.8,-0.3 -0.8,-0.8 v -16.6 h -4.2 c -0.4,0 -0.8,-0.3 -0.8,-0.8 v -6.2 c 0,-0.4 0.3,-0.8 0.8,-0.8 h 4.2 c 0,-3 0,-5.3 0.2,-7.2 0.2,-2.1 0.6,-3.5 1.5,-4.5 0.9,-1 2.2,-1.5 4.2,-1.7 1.8,-0.2 4.1,-0.2 7.2,-0.2 0.4,0 0.8,0.3 0.8,0.8 v 6.2 z"
   id="path23"
   inkscape:connector-curvature="0"
   style="display:inline;fill:#0b1783" />
</g>
</svg>