<?xml version="1.0" encoding="UTF-8" standalone="no"?>
<!-- Generator: Adobe Illustrator 21.0.0, SVG Export Plug-In . SVG Version: 6.00 Build 0)  -->

<svg
   xmlns:dc="http://purl.org/dc/elements/1.1/"
   xmlns:cc="http://creativecommons.org/ns#"
   xmlns:rdf="http://www.w3.org/1999/02/22-rdf-syntax-ns#"
   xmlns:svg="http://www.w3.org/2000/svg"
   xmlns="http://www.w3.org/2000/svg"
   xmlns:xlink="http://www.w3.org/1999/xlink"
   xmlns:sodipodi="http://sodipodi.sourceforge.net/DTD/sodipodi-0.dtd"
   xmlns:inkscape="http://www.inkscape.org/namespaces/inkscape"
   version="1.1"
   x="0px"
   y="0px"
   viewBox="0 0 74 74"
   xml:space="preserve"
   id="svg40"
   sodipodi:docname="fablab-picto-mail.svg"
   width="74"
   height="74"
   inkscape:version="0.92.2 2405546, 2018-03-11"
   inkscape:export-filename="/home/raphael/Documents/FabLab/website/fab-manager/public/home/assets/fablab-picto-mail.png"
   inkscape:export-xdpi="96"
   inkscape:export-ydpi="96"><metadata
   id="metadata46"><rdf:RDF><cc:Work
       rdf:about=""><dc:format>image/svg+xml</dc:format><dc:type
         rdf:resource="http://purl.org/dc/dcmitype/StillImage" /><dc:title /></cc:Work></rdf:RDF></metadata><defs
   id="defs44" /><sodipodi:namedview
   pagecolor="#ffffff"
   bordercolor="#666666"
   borderopacity="1"
   objecttolerance="10"
   gridtolerance="10"
   guidetolerance="10"
   inkscape:pageopacity="0"
   inkscape:pageshadow="2"
   inkscape:window-width="1920"
   inkscape:window-height="1016"
   id="namedview42"
   showgrid="false"
   fit-margin-top="0"
   fit-margin-left="0"
   fit-margin-right="0"
   fit-margin-bottom="0"
   inkscape:zoom="0.30729167"
   inkscape:cx="-763.3305"
   inkscape:cy="-120"
   inkscape:window-x="0"
   inkscape:window-y="27"
   inkscape:window-maximized="1"
   inkscape:current-layer="svg40" />
<style
   type="text/css"
   id="style2">
	.st0{display:none;}
	.st1{display:inline;fill:#0B1783;}
	.st2{display:inline;}
	.st3{clip-path:url(#SVGID_2_);fill:#0B1783;}
	.st4{fill:#0B1783;}
</style>
<g
   id="Calque_1"
   class="st0"
   style="display:none"
   transform="translate(-637.5,-190)">
	<path
   class="st1"
   d="m 297,234.1 v 13.5 L 273.7,226.2 297,205.8 v 13.1 c 17.1,-0.2 27.2,16.1 21.4,29.3 4.2,-6 6.7,-13.3 6.7,-21.2 0,-20.4 -16.6,-37 -37,-37 -20.4,0 -37,16.6 -37,37 0,20.1 16,36.5 36,37 34.5,-3.9 28.3,-30.7 9.9,-29.9 z"
   id="path4"
   inkscape:connector-curvature="0"
   style="display:inline;fill:#0b1783" />
	<g
   class="st2"
   id="g14"
   style="display:inline">
		<defs
   id="defs7">
			<rect
   id="SVGID_1_"
   x="455"
   y="190"
   width="74"
   height="74" />
		</defs>
		<clipPath
   id="SVGID_2_">
			<use
   xlink:href="#SVGID_1_"
   style="overflow:visible"
   id="use9"
   x="0"
   y="0"
   width="100%"
   height="100%" />
		</clipPath>
		<path
   class="st3"
   d="m 503,218.7 c 0,1.1 -0.2,2.1 -0.5,3.1 -0.3,1 -0.7,1.8 -1.2,2.6 -0.5,0.8 -1.1,1.5 -1.7,2.1 -0.6,0.6 -1.2,1.1 -1.8,1.6 -0.5,0.4 -0.9,0.8 -1.2,1.1 -0.3,0.3 -0.6,0.7 -0.7,1 -0.2,0.4 -0.3,0.8 -0.4,1.2 -0.1,0.4 -0.1,1 -0.1,1.6 v 0.6 c 0,0.3 -0.1,0.5 -0.3,0.7 -0.2,0.2 -0.5,0.3 -0.7,0.3 H 489 c -0.3,0 -0.5,-0.1 -0.7,-0.3 -0.2,-0.2 -0.3,-0.5 -0.3,-0.7 V 233 c 0,-0.4 0,-0.9 0,-1.4 0,-0.5 0,-1.1 0.1,-1.7 0.1,-0.6 0.2,-1.2 0.5,-1.8 0.2,-0.6 0.6,-1.2 1,-1.8 0.6,-0.8 1.3,-1.4 2.1,-1.9 0.8,-0.5 1.5,-1 2,-1.6 0.5,-0.5 1,-1.1 1.4,-1.8 0.4,-0.7 0.6,-1.3 0.6,-1.9 0,-1.2 -0.3,-2.1 -1,-2.8 -0.7,-0.7 -1.6,-1 -2.6,-1 -1.1,0 -1.9,0.4 -2.5,1.2 -0.6,0.8 -0.9,1.7 -0.9,2.7 v 0.9 c 0,0.3 -0.1,0.5 -0.3,0.7 -0.2,0.2 -0.5,0.3 -0.8,0.3 h -5.4 c -0.3,0 -0.5,-0.1 -0.7,-0.3 -0.2,-0.2 -0.3,-0.5 -0.3,-0.7 v -0.8 c 0,-1.6 0.3,-3.1 0.9,-4.5 0.6,-1.4 1.4,-2.6 2.3,-3.7 1,-1 2.1,-1.9 3.4,-2.5 1.3,-0.6 2.7,-0.9 4.2,-0.9 1.5,0 3,0.3 4.3,0.8 1.4,0.5 2.5,1.3 3.5,2.3 1,1 1.8,2.1 2.4,3.5 0.5,1.3 0.8,2.8 0.8,4.4 m -15,20 c 0,-0.3 0.1,-0.5 0.3,-0.7 0.2,-0.2 0.4,-0.3 0.7,-0.3 h 5.8 c 0.3,0 0.5,0.1 0.7,0.3 0.2,0.2 0.3,0.5 0.3,0.7 v 6.5 c 0,0.3 -0.1,0.5 -0.3,0.7 -0.2,0.2 -0.4,0.3 -0.7,0.3 H 489 c -0.3,0 -0.5,-0.1 -0.7,-0.3 -0.2,-0.2 -0.3,-0.5 -0.3,-0.7 z M 529,227 c 0,-20.4 -16.6,-37 -37,-37 -20.4,0 -37,16.6 -37,37 0,20.4 16.6,37 37,37 20.4,0 37,-16.6 37,-37"
   clip-path="url(#SVGID_2_)"
   id="path12"
   inkscape:connector-curvature="0"
   style="fill:#0b1783" />
	</g>
	<path
   class="st1"
   d="m 391.5,190 c -20.4,0 -37,16.6 -37,37 0,20.4 16.6,37 37,37 20.4,0 37,-16.6 37,-37 0,-20.4 -16.6,-37 -37,-37 z m 9.4,24.4 c 0,0.4 -0.3,0.8 -0.8,0.8 -1.4,0 -2.5,0 -3.3,0.1 -0.7,0.1 -1.1,0.2 -1.4,0.4 v 0 c -0.3,0.3 -0.5,0.8 -0.6,1.7 -0.1,0.9 -0.1,2.1 -0.1,3.6 h 5.4 c 0.4,0 0.8,0.3 0.8,0.8 v 6.2 c 0,0.4 -0.3,0.8 -0.8,0.8 h -5.4 v 16.6 0 c 0,0.4 -0.3,0.8 -0.8,0.8 h -6.2 c -0.4,0 -0.8,-0.3 -0.8,-0.8 v -16.6 h -4.2 c -0.4,0 -0.8,-0.3 -0.8,-0.8 v -6.2 c 0,-0.4 0.3,-0.8 0.8,-0.8 h 4.2 c 0,-3 0,-5.3 0.2,-7.2 0.2,-2.1 0.6,-3.5 1.5,-4.5 0.9,-1 2.2,-1.5 4.2,-1.7 1.8,-0.2 4.1,-0.2 7.2,-0.2 0.4,0 0.8,0.3 0.8,0.8 v 6.2 z"
   id="path16"
   inkscape:connector-curvature="0"
   style="display:inline;fill:#0b1783" />
	<g
   class="st2"
   id="g24"
   style="display:inline">
		<circle
   class="st4"
   cx="585.29999"
   cy="226.8"
   r="5.8000002"
   id="circle18"
   style="fill:#0b1783" />
		<path
   class="st4"
   d="M 597.6,211.5 H 573 c -1.7,0 -3,1.4 -3,3 v 24.6 c 0,1.7 1.4,3 3,3 h 24.6 c 1.7,0 3,-1.4 3,-3 v -24.6 c 0,-1.7 -1.3,-3 -3,-3 z m -12.3,25 c -5.4,0 -9.7,-4.4 -9.7,-9.7 0,-5.4 4.4,-9.7 9.7,-9.7 5.3,0 9.7,4.4 9.7,9.7 0,5.3 -4.4,9.7 -9.7,9.7 z m 11,-17.7 c -1.3,0 -2.3,-1 -2.3,-2.3 0,-1.3 1,-2.3 2.3,-2.3 1.3,0 2.3,1 2.3,2.3 0,1.3 -1,2.3 -2.3,2.3 z"
   id="path20"
   inkscape:connector-curvature="0"
   style="fill:#0b1783" />
		<path
   class="st4"
   d="m 585,190 c -20.4,0 -37,16.6 -37,37 0,20.4 16.6,37 37,37 20.4,0 37,-16.6 37,-37 0,-20.4 -16.6,-37 -37,-37 z m 19.5,49.1 c 0,3.8 -3.1,6.9 -6.9,6.9 H 573 c -3.8,0 -6.9,-3.1 -6.9,-6.9 v -24.6 c 0,-3.8 3.1,-6.9 6.9,-6.9 h 24.6 c 3.8,0 6.9,3.1 6.9,6.9 z"
   id="path22"
   inkscape:connector-curvature="0"
   style="fill:#0b1783" />
	</g>
</g>
<g
   id="Calque_2"
   transform="translate(-637.5,-190)">
	<g
   id="g37">
		<path
   class="st4"
   d="m 678.2,231.3 c -0.9,0.9 -2.1,1.4 -3.5,1.4 -1.3,0 -2.6,-0.5 -3.5,-1.4 l -2.8,-2.8 -13.7,13.9 h 39.5 l -13.5,-13.7 z"
   id="path27"
   inkscape:connector-curvature="0"
   style="fill:#0b1783" />
		<path
   class="st4"
   d="m 674.7,230.5 c 0.8,0 1.5,-0.3 1.9,-0.7 l 18,-18.1 h -39.7 l 17.8,18.1 c 0.5,0.4 1.2,0.7 2,0.7 z"
   id="path29"
   inkscape:connector-curvature="0"
   style="fill:#0b1783" />
		<polygon
   class="st4"
   points="666.9,226.9 653.3,213.2 653.3,240.6 "
   id="polygon31"
   style="fill:#0b1783" />
		<polygon
   class="st4"
   points="682.3,227.1 695.7,240.7 695.7,213.6 "
   id="polygon33"
   style="fill:#0b1783" />
		<path
   class="st4"
   d="m 674.5,190 c -20.4,0 -37,16.6 -37,37 0,20.4 16.6,37 37,37 20.4,0 37,-16.6 37,-37 0,-20.4 -16.5,-37 -37,-37 z m 23.4,53.4 c 0,0.6 -0.5,1.1 -1.1,1.1 h -44.6 c -0.6,0 -1.1,-0.5 -1.1,-1.1 v -32.8 c 0,-0.6 0.5,-1.1 1.1,-1.1 h 44.6 c 0.6,0 1.1,0.5 1.1,1.1 z"
   id="path35"
   inkscape:connector-curvature="0"
   style="fill:#0b1783" />
	</g>
</g>
</svg>